<svg width="60" height="60" viewBox="0 0 60 60" fill="none" xmlns="http://www.w3.org/2000/svg">
<circle cx="30" cy="30" r="30" fill="white"/>
<path d="M32.9228 26.7971C32.6975 26.5719 32.3324 26.5719 32.1072 26.7971C31.882 27.0223 31.882 27.3874 32.1072 27.6125L32.8528 28.3581H27.5128L28.2583 27.6125C28.4835 27.3873 28.4835 27.0222 28.2583 26.7971C28.033 26.5719 27.668 26.5719 27.4428 26.7971L25.7128 28.527C25.4876 28.7522 25.4876 29.1173 25.7128 29.3425L27.4428 31.0724C27.5554 31.185 27.703 31.2413 27.8506 31.2413C27.9981 31.2413 28.1458 31.185 28.2584 31.0724C28.4836 30.8472 28.4836 30.4821 28.2584 30.2569L27.5128 29.5114H32.8529L32.1073 30.2569C31.8821 30.4821 31.8821 30.8473 32.1073 31.0724C32.22 31.185 32.3676 31.2413 32.5151 31.2413C32.6627 31.2413 32.8103 31.185 32.9229 31.0724L34.6529 29.3425C34.8781 29.1173 34.8781 28.7521 34.6529 28.527L32.9228 26.7971Z" fill="#0082C5"/>
<path d="M21.5076 21.9768H13.3832C11.7934 21.9768 10.5 23.2702 10.5 24.86C10.5 25.1785 10.7581 25.4367 11.0766 25.4367C11.3952 25.4367 11.6533 25.1785 11.6533 24.86C11.6533 23.9061 12.4294 23.1301 13.3832 23.1301H21.5076C22.4614 23.1301 23.2375 23.9061 23.2375 24.86L23.2374 34.2017C23.2374 34.5086 22.9895 34.7399 22.6608 34.7399C22.3321 34.7399 22.0841 34.5086 22.0841 34.2017V24.8985C22.0841 24.58 21.826 24.3218 21.5075 24.3218C21.189 24.3218 20.9309 24.58 20.9309 24.8985V45.4335C20.9309 45.8884 20.5289 46.2729 20.0531 46.2729C19.5691 46.2729 19.1753 45.8791 19.1753 45.3951V34.1633C19.1753 33.8448 18.9172 33.5866 18.5987 33.5866H16.2921C15.9735 33.5866 15.7154 33.8448 15.7154 34.1633V45.3951C15.7154 45.8791 15.3217 46.2729 14.8377 46.2729C14.3619 46.2729 13.9599 45.8885 13.9599 45.4335V24.8985C13.9599 24.58 13.7018 24.3218 13.3832 24.3218C13.0647 24.3218 12.8066 24.58 12.8066 24.8985V34.1633C12.8066 34.4813 12.5479 34.7399 12.2299 34.7399C11.9119 34.7399 11.6533 34.4813 11.6533 34.1633V27.1666C11.6533 26.8482 11.3952 26.59 11.0766 26.59C10.7581 26.59 10.5 26.8482 10.5 27.1666V34.1633C10.5 35.1172 11.2761 35.8932 12.2299 35.8932C12.4321 35.8932 12.6261 35.858 12.8066 35.794V45.4336C12.8066 46.5324 13.7178 47.4262 14.8377 47.4262C15.9575 47.4262 16.8687 46.5151 16.8687 45.3951V34.7399H18.022V45.3951C18.022 46.515 18.9332 47.4262 20.0531 47.4262C21.173 47.4262 22.0841 46.5323 22.0841 45.4335V35.8C22.2638 35.8602 22.4576 35.8932 22.6608 35.8932C23.6309 35.8932 24.3907 35.1502 24.3907 34.2017L24.3908 24.86C24.3908 23.2702 23.0974 21.9768 21.5076 21.9768Z" fill="#0082C5"/>
<path d="M17.4203 20.8231C19.646 20.8231 21.4568 19.0123 21.4568 16.7865C21.4568 14.5607 19.646 12.75 17.4203 12.75C15.1946 12.75 13.3838 14.5607 13.3838 16.7865C13.3838 19.0123 15.1946 20.8231 17.4203 20.8231ZM17.4203 13.9033C19.0102 13.9033 20.3036 15.1967 20.3036 16.7865C20.3036 18.3764 19.0102 19.6698 17.4203 19.6698C15.8305 19.6698 14.5371 18.3764 14.5371 16.7865C14.5371 15.1967 15.8305 13.9033 17.4203 13.9033Z" fill="#0082C5"/>
<path d="M46.9822 21.9768H38.8579C37.2681 21.9768 35.9747 23.2702 35.9747 24.86L35.9746 34.1633C35.9746 35.1172 36.7507 35.8932 37.7046 35.8932C37.9067 35.8932 38.1007 35.858 38.2812 35.794V45.4336C38.2812 46.5324 39.1924 47.4262 40.3122 47.4262C41.4321 47.4262 42.3433 46.5151 42.3433 45.3951V34.7399H43.4966L43.4967 45.3951C43.4967 46.515 44.4079 47.4262 45.5277 47.4262C46.6477 47.4262 47.5588 46.5323 47.5588 45.4335V35.8C47.7385 35.8602 47.9323 35.8932 48.1355 35.8932C49.1056 35.8932 49.8654 35.1502 49.8654 34.2017V24.86C49.8654 23.2702 48.572 21.9768 46.9822 21.9768ZM48.7121 34.2017C48.7121 34.5086 48.4642 34.7399 48.1355 34.7399C47.8068 34.7399 47.5588 34.5086 47.5588 34.2017C47.5588 34.2009 47.5588 24.8985 47.5588 24.8985C47.5588 24.58 47.3006 24.3218 46.9821 24.3218C46.6636 24.3218 46.4055 24.58 46.4055 24.8985L46.4055 45.4335C46.4055 45.8884 46.0035 46.2729 45.5277 46.2729C45.0437 46.2729 44.65 45.8791 44.65 45.3951L44.6499 34.1633C44.6499 33.8448 44.3918 33.5866 44.0733 33.5866H41.7667C41.6138 33.5866 41.4671 33.6474 41.3589 33.7556C41.2508 33.8637 41.19 34.0104 41.19 34.1633L41.1901 45.3951C41.1901 45.8791 40.7963 46.2729 40.3123 46.2729C39.8365 46.2729 39.4346 45.8885 39.4346 45.4335L39.4345 24.8985C39.4345 24.58 39.1764 24.3218 38.8578 24.3218C38.5393 24.3218 38.2812 24.58 38.2812 24.8985V34.1626C38.2812 34.4812 38.0225 34.7399 37.7046 34.7399C37.3866 34.7399 37.1279 34.4813 37.1279 34.1633L37.128 24.86C37.128 23.9061 37.9041 23.1301 38.8579 23.1301H46.9822C47.936 23.1301 48.7121 23.9061 48.7121 24.86V34.2017Z" fill="#0082C5"/>
<path d="M42.8949 20.8231C45.1206 20.8231 46.9315 19.0123 46.9315 16.7865C46.9315 14.5607 45.1206 12.75 42.8949 12.75C40.6692 12.75 38.8584 14.5607 38.8584 16.7865C38.8584 19.0123 40.6692 20.8231 42.8949 20.8231ZM42.8949 13.9033C44.4848 13.9033 45.7782 15.1967 45.7782 16.7865C45.7782 18.3764 44.4848 19.6698 42.8949 19.6698C41.3051 19.6698 40.0117 18.3764 40.0117 16.7865C40.0117 15.1967 41.3051 13.9033 42.8949 13.9033Z" fill="#0082C5"/>
</svg>
