<svg width="46" height="46" viewBox="0 0 46 46" fill="none" xmlns="http://www.w3.org/2000/svg">
<g clip-path="url(#clip0_1644_53314)">
<path d="M38.6145 21.2507H7.47806C4.89181 21.2507 2.78776 19.1466 2.78776 16.5604C2.78776 13.9741 4.89181 11.8701 7.47806 11.8701H30.064C30.6162 13.3883 32.0735 14.4755 33.7802 14.4755H42.1353V11.6982H45.9881V9.00298H42.1353V6.56947H33.7802C32.0735 6.56947 30.6162 7.65676 30.064 9.17485H7.47806C3.40562 9.17485 0.0925391 12.488 0.0925391 16.5604C0.0925391 20.6327 3.40571 23.9459 7.47806 23.9459H38.6146C41.2008 23.9459 43.3049 26.0499 43.3049 28.6362V29.2721C43.3049 31.8583 41.2008 33.9624 38.6146 33.9624H15.8589C15.2635 32.532 13.8515 31.5236 12.208 31.5236H3.85286V34.3008H0V36.996H3.85286V39.4296H12.208C13.9765 39.4296 15.4772 38.2623 15.9806 36.6577H38.6145C42.6869 36.6577 46 33.3445 46 29.2722V28.6363C46 24.5637 42.6869 21.2507 38.6145 21.2507ZM33.7802 9.2647H39.4401V11.7802H33.7802C33.0867 11.7802 32.5224 11.216 32.5224 10.5224C32.5224 9.82882 33.0866 9.2647 33.7802 9.2647ZM12.208 36.7342H6.54808V34.2187H12.208C12.9015 34.2187 13.4658 34.7829 13.4658 35.4765C13.4657 36.17 12.9015 36.7342 12.208 36.7342Z" fill="#0082C5"/>
</g>
<defs>
<clipPath id="clip0_1644_53314">
<rect width="46" height="46" fill="white"/>
</clipPath>
</defs>
</svg>
