<svg width="46" height="46" viewBox="0 0 46 46" fill="none" xmlns="http://www.w3.org/2000/svg">
<path d="M22.9999 0C10.3177 0 0 10.3178 0 23.0001C0 35.6822 10.3177 46 22.9999 46C35.6822 46 45.9999 35.6824 45.9999 23.0001C45.9999 10.3178 35.6824 0 22.9999 0ZM19.452 2.33695C17.5851 3.93526 15.7978 5.92501 14.3619 8.04311C13.7152 8.99708 13.1338 9.98211 12.6176 10.9924H5.82474C8.97293 6.5026 13.8342 3.29865 19.452 2.33695ZM21.9823 33.1868H13.9269C12.7147 30.5596 11.8776 27.5289 11.737 24.1247H21.9823V33.1868ZM4.56265 13.0276H11.6807C10.4929 15.9166 9.82079 18.9748 9.70058 22.0897H2.05637C2.19666 18.8211 3.08753 15.7439 4.56265 13.0276ZM2.06559 24.1249H9.69976C9.81686 27.2885 10.4824 30.3188 11.6865 33.1869H4.68232C3.16935 30.4771 2.23953 27.3998 2.06559 24.1249ZM5.9767 35.222H12.6463C13.155 36.192 13.7274 37.1419 14.3655 38.0696C16.0585 40.5313 17.8783 42.3623 19.4153 43.6568C13.903 42.7031 9.12163 39.5897 5.9767 35.222ZM21.9823 43.0902C19.7092 41.4255 17.0331 38.7704 14.9829 35.222H21.9823V43.0902ZM21.9823 22.0897H11.737C11.8637 18.9256 12.5835 15.8937 13.8854 13.0276H21.9825V22.0897H21.9823ZM21.9823 10.9924H14.9234C15.2702 10.3816 15.6439 9.77886 16.0463 9.18513C18.1415 6.09434 20.4382 4.0704 21.9823 2.9235V10.9924ZM43.9438 22.0897H36.2994C36.1792 18.9748 35.5071 15.9166 34.3193 13.0276H41.4372C42.9123 15.7439 43.8035 18.8211 43.9438 22.0897ZM40.1754 10.9924H33.3827C32.8664 9.98211 32.2849 8.99708 31.6384 8.04311C30.2025 5.92487 28.4147 3.93567 26.5476 2.33682C32.1654 3.29852 37.0268 6.50246 40.1754 10.9924ZM24.0175 2.92336C25.5617 4.07026 27.8584 6.0942 29.9535 9.18499C30.356 9.77873 30.7296 10.3814 31.0764 10.9923H24.0175V2.92336ZM24.0175 13.0276H32.1146C33.4165 15.8937 34.1363 18.9256 34.263 22.0897H24.0175V13.0276ZM24.0175 24.1249H34.263C34.1226 27.5291 33.2853 30.5597 32.0731 33.1869H24.0175V24.1249ZM24.0175 35.222H31.017C28.9667 38.7703 26.2907 41.4255 24.0175 43.0902V35.222ZM26.5851 43.6568C28.122 42.3624 29.9416 40.531 31.6345 38.0698C32.2726 37.142 32.845 36.1921 33.3537 35.2221H40.0233C36.8785 39.5895 32.0973 42.703 26.5851 43.6568ZM41.3177 33.1868H34.3136C35.5178 30.3186 36.1833 27.2885 36.3004 24.1247H43.9344C43.7603 27.3998 42.8307 30.4771 41.3177 33.1868Z" fill="#0082C5"/>
</svg>
