<svg width="46" height="46" viewBox="0 0 46 46" fill="none" xmlns="http://www.w3.org/2000/svg">
<g clip-path="url(#clip0_1644_53322)">
<mask id="path-1-outside-1_1644_53322" maskUnits="userSpaceOnUse" x="0.368164" y="-1" width="45" height="48" fill="black">
<rect fill="white" x="0.368164" y="-1" width="45" height="48"/>
<path d="M44.5303 31.7098L41.3085 37.2902C41.1168 37.6221 40.7098 37.7623 40.3544 37.6189L35.6118 35.7043C35.2179 35.5454 35.0274 35.0972 35.1865 34.7033C35.3455 34.3093 35.7937 34.1188 36.1876 34.2779L40.3104 35.9422L42.8638 31.5194L39.3655 28.7847C39.1144 28.5884 39.0104 28.2576 39.104 27.953C40.0729 24.7986 40.1099 21.322 39.104 18.0472C39.0104 17.7426 39.1144 17.4118 39.3655 17.2155L42.8638 14.4808L40.3104 10.058L36.1876 11.7223C35.8922 11.8418 35.5535 11.7663 35.3365 11.5329C33.021 9.04319 30.0567 7.33018 26.7641 6.5789C26.4531 6.50795 26.2181 6.2523 26.1736 5.93627L25.5542 1.53832H20.4473L19.8279 5.93608C19.7834 6.25201 19.5484 6.50766 19.2374 6.57871C15.9447 7.32998 12.9805 9.04309 10.665 11.5327C10.4479 11.7661 10.1095 11.8415 9.81386 11.7221L5.69107 10.0578L3.13756 14.4806L6.63589 17.2153C6.88702 17.4116 6.99095 17.7424 6.8974 18.0471C5.92845 21.2014 5.89144 24.678 6.8974 27.9528C6.99095 28.2574 6.88702 28.5882 6.63589 28.7845L3.13756 31.5192L5.69107 35.942L9.81386 34.2777C10.1095 34.1582 10.448 34.2337 10.665 34.4671C12.9805 36.9568 15.9448 38.6698 19.2374 39.4211C19.5484 39.4921 19.7834 39.7477 19.8279 40.0637L20.4473 44.4615H25.5542L26.1736 40.0637C26.2181 39.7478 26.4531 39.4922 26.7641 39.4211C28.567 39.0098 30.2808 38.3056 31.8575 37.3286C32.219 37.1052 32.6929 37.2163 32.9165 37.5773C33.1402 37.9385 33.0289 38.4126 32.6679 38.6364C31.098 39.6091 29.4035 40.3339 27.6242 40.7948L26.9844 45.3379C26.9309 45.7174 26.606 45.9998 26.2227 45.9998H19.779C19.3956 45.9998 19.0708 45.7174 19.0173 45.3379L18.3775 40.7948C15.1607 39.9624 12.2506 38.2807 9.90654 35.8992L5.64723 37.6186C5.29178 37.7622 4.8849 37.6219 4.69318 37.29L1.47128 31.7095C1.27956 31.3775 1.36167 30.9551 1.66366 30.7189L5.27822 27.8932C4.39888 24.7024 4.39869 21.2978 5.27822 18.1062L1.66366 15.2805C1.36167 15.0444 1.27956 14.6219 1.47128 14.2899L4.69318 8.70947C4.8849 8.37748 5.29169 8.23711 5.64723 8.38085L9.90654 10.1002C12.2506 7.7187 15.1607 6.03703 18.3775 5.20461L19.0173 0.661476C19.0707 0.282377 19.3955 0 19.7789 0H26.2226C26.6059 0 26.9308 0.282377 26.9843 0.661861L27.6241 5.20499C30.8409 6.03741 33.7509 7.71908 36.095 10.1006L40.3544 8.38123C40.7099 8.23759 41.1168 8.37787 41.3085 8.70986L44.5303 14.2903C44.722 14.6223 44.6399 15.0447 44.3379 15.2809L40.7233 18.1066C41.6027 21.2974 41.6029 24.702 40.7233 27.8936L44.3379 30.7193C44.6399 30.9554 44.722 31.3777 44.5303 31.7098ZM31.703 15.3861C32.0034 15.0857 32.0035 14.5987 31.703 14.2984C29.3786 11.9737 26.2881 10.6935 23.0007 10.6935C16.2148 10.6935 10.6942 16.2142 10.6942 23.0001C10.6942 29.7859 16.2148 35.3066 23.0007 35.3066C31.628 35.3066 37.6234 26.5898 34.4652 18.5175C34.3104 18.1219 33.8643 17.9268 33.4686 18.0815C33.0731 18.2363 32.8778 18.6825 33.0326 19.078C35.7944 26.1364 30.5535 33.7683 23.0008 33.7683C17.0632 33.7683 12.2326 28.9377 12.2326 23.0001C12.2326 17.0624 17.0632 12.2318 23.0008 12.2318C25.8772 12.2318 28.5815 13.352 30.6154 15.3861C30.9157 15.6864 31.4027 15.6865 31.703 15.3861ZM24.0536 26.0467C24.0536 26.0467 24.0537 26.0474 24.0537 26.0468C24.6172 26.6104 24.6173 27.5226 24.0536 28.0863C23.4913 28.6486 22.5765 28.6486 22.0141 28.0863C21.1024 27.1748 21.7608 25.6243 23.0339 25.6243C23.4191 25.6243 23.7812 25.7743 24.0536 26.0467ZM26.569 24.6191C26.8694 24.3188 26.8695 23.8318 26.569 23.5313C24.6152 21.5775 21.4527 21.5772 19.4986 23.5314C19.1983 23.8318 19.1983 24.3188 19.4986 24.6191C19.799 24.9194 20.2859 24.9195 20.5864 24.619C21.9391 23.2664 24.1284 23.2663 25.4812 24.6191C25.7818 24.9195 26.2687 24.9194 26.569 24.6191ZM29.4244 21.7637C29.7249 21.4633 29.7249 20.9764 29.4244 20.6759C25.8921 17.1438 20.1757 17.1436 16.6433 20.6759C16.3429 20.9764 16.3429 21.4634 16.6433 21.7637C16.9437 22.064 17.4306 22.064 17.731 21.7637C20.6617 18.8328 25.4055 18.8324 28.3366 21.7637C28.6372 22.0641 29.1241 22.064 29.4244 21.7637Z"/>
</mask>
<path d="M44.5303 31.7098L41.3085 37.2902C41.1168 37.6221 40.7098 37.7623 40.3544 37.6189L35.6118 35.7043C35.2179 35.5454 35.0274 35.0972 35.1865 34.7033C35.3455 34.3093 35.7937 34.1188 36.1876 34.2779L40.3104 35.9422L42.8638 31.5194L39.3655 28.7847C39.1144 28.5884 39.0104 28.2576 39.104 27.953C40.0729 24.7986 40.1099 21.322 39.104 18.0472C39.0104 17.7426 39.1144 17.4118 39.3655 17.2155L42.8638 14.4808L40.3104 10.058L36.1876 11.7223C35.8922 11.8418 35.5535 11.7663 35.3365 11.5329C33.021 9.04319 30.0567 7.33018 26.7641 6.5789C26.4531 6.50795 26.2181 6.2523 26.1736 5.93627L25.5542 1.53832H20.4473L19.8279 5.93608C19.7834 6.25201 19.5484 6.50766 19.2374 6.57871C15.9447 7.32998 12.9805 9.04309 10.665 11.5327C10.4479 11.7661 10.1095 11.8415 9.81386 11.7221L5.69107 10.0578L3.13756 14.4806L6.63589 17.2153C6.88702 17.4116 6.99095 17.7424 6.8974 18.0471C5.92845 21.2014 5.89144 24.678 6.8974 27.9528C6.99095 28.2574 6.88702 28.5882 6.63589 28.7845L3.13756 31.5192L5.69107 35.942L9.81386 34.2777C10.1095 34.1582 10.448 34.2337 10.665 34.4671C12.9805 36.9568 15.9448 38.6698 19.2374 39.4211C19.5484 39.4921 19.7834 39.7477 19.8279 40.0637L20.4473 44.4615H25.5542L26.1736 40.0637C26.2181 39.7478 26.4531 39.4922 26.7641 39.4211C28.567 39.0098 30.2808 38.3056 31.8575 37.3286C32.219 37.1052 32.6929 37.2163 32.9165 37.5773C33.1402 37.9385 33.0289 38.4126 32.6679 38.6364C31.098 39.6091 29.4035 40.3339 27.6242 40.7948L26.9844 45.3379C26.9309 45.7174 26.606 45.9998 26.2227 45.9998H19.779C19.3956 45.9998 19.0708 45.7174 19.0173 45.3379L18.3775 40.7948C15.1607 39.9624 12.2506 38.2807 9.90654 35.8992L5.64723 37.6186C5.29178 37.7622 4.8849 37.6219 4.69318 37.29L1.47128 31.7095C1.27956 31.3775 1.36167 30.9551 1.66366 30.7189L5.27822 27.8932C4.39888 24.7024 4.39869 21.2978 5.27822 18.1062L1.66366 15.2805C1.36167 15.0444 1.27956 14.6219 1.47128 14.2899L4.69318 8.70947C4.8849 8.37748 5.29169 8.23711 5.64723 8.38085L9.90654 10.1002C12.2506 7.7187 15.1607 6.03703 18.3775 5.20461L19.0173 0.661476C19.0707 0.282377 19.3955 0 19.7789 0H26.2226C26.6059 0 26.9308 0.282377 26.9843 0.661861L27.6241 5.20499C30.8409 6.03741 33.7509 7.71908 36.095 10.1006L40.3544 8.38123C40.7099 8.23759 41.1168 8.37787 41.3085 8.70986L44.5303 14.2903C44.722 14.6223 44.6399 15.0447 44.3379 15.2809L40.7233 18.1066C41.6027 21.2974 41.6029 24.702 40.7233 27.8936L44.3379 30.7193C44.6399 30.9554 44.722 31.3777 44.5303 31.7098ZM31.703 15.3861C32.0034 15.0857 32.0035 14.5987 31.703 14.2984C29.3786 11.9737 26.2881 10.6935 23.0007 10.6935C16.2148 10.6935 10.6942 16.2142 10.6942 23.0001C10.6942 29.7859 16.2148 35.3066 23.0007 35.3066C31.628 35.3066 37.6234 26.5898 34.4652 18.5175C34.3104 18.1219 33.8643 17.9268 33.4686 18.0815C33.0731 18.2363 32.8778 18.6825 33.0326 19.078C35.7944 26.1364 30.5535 33.7683 23.0008 33.7683C17.0632 33.7683 12.2326 28.9377 12.2326 23.0001C12.2326 17.0624 17.0632 12.2318 23.0008 12.2318C25.8772 12.2318 28.5815 13.352 30.6154 15.3861C30.9157 15.6864 31.4027 15.6865 31.703 15.3861ZM24.0536 26.0467C24.0536 26.0467 24.0537 26.0474 24.0537 26.0468C24.6172 26.6104 24.6173 27.5226 24.0536 28.0863C23.4913 28.6486 22.5765 28.6486 22.0141 28.0863C21.1024 27.1748 21.7608 25.6243 23.0339 25.6243C23.4191 25.6243 23.7812 25.7743 24.0536 26.0467ZM26.569 24.6191C26.8694 24.3188 26.8695 23.8318 26.569 23.5313C24.6152 21.5775 21.4527 21.5772 19.4986 23.5314C19.1983 23.8318 19.1983 24.3188 19.4986 24.6191C19.799 24.9194 20.2859 24.9195 20.5864 24.619C21.9391 23.2664 24.1284 23.2663 25.4812 24.6191C25.7818 24.9195 26.2687 24.9194 26.569 24.6191ZM29.4244 21.7637C29.7249 21.4633 29.7249 20.9764 29.4244 20.6759C25.8921 17.1438 20.1757 17.1436 16.6433 20.6759C16.3429 20.9764 16.3429 21.4634 16.6433 21.7637C16.9437 22.064 17.4306 22.064 17.731 21.7637C20.6617 18.8328 25.4055 18.8324 28.3366 21.7637C28.6372 22.0641 29.1241 22.064 29.4244 21.7637Z" fill="#0082C5"/>
<path d="M44.5303 31.7098L41.3085 37.2902C41.1168 37.6221 40.7098 37.7623 40.3544 37.6189L35.6118 35.7043C35.2179 35.5454 35.0274 35.0972 35.1865 34.7033C35.3455 34.3093 35.7937 34.1188 36.1876 34.2779L40.3104 35.9422L42.8638 31.5194L39.3655 28.7847C39.1144 28.5884 39.0104 28.2576 39.104 27.953C40.0729 24.7986 40.1099 21.322 39.104 18.0472C39.0104 17.7426 39.1144 17.4118 39.3655 17.2155L42.8638 14.4808L40.3104 10.058L36.1876 11.7223C35.8922 11.8418 35.5535 11.7663 35.3365 11.5329C33.021 9.04319 30.0567 7.33018 26.7641 6.5789C26.4531 6.50795 26.2181 6.2523 26.1736 5.93627L25.5542 1.53832H20.4473L19.8279 5.93608C19.7834 6.25201 19.5484 6.50766 19.2374 6.57871C15.9447 7.32998 12.9805 9.04309 10.665 11.5327C10.4479 11.7661 10.1095 11.8415 9.81386 11.7221L5.69107 10.0578L3.13756 14.4806L6.63589 17.2153C6.88702 17.4116 6.99095 17.7424 6.8974 18.0471C5.92845 21.2014 5.89144 24.678 6.8974 27.9528C6.99095 28.2574 6.88702 28.5882 6.63589 28.7845L3.13756 31.5192L5.69107 35.942L9.81386 34.2777C10.1095 34.1582 10.448 34.2337 10.665 34.4671C12.9805 36.9568 15.9448 38.6698 19.2374 39.4211C19.5484 39.4921 19.7834 39.7477 19.8279 40.0637L20.4473 44.4615H25.5542L26.1736 40.0637C26.2181 39.7478 26.4531 39.4922 26.7641 39.4211C28.567 39.0098 30.2808 38.3056 31.8575 37.3286C32.219 37.1052 32.6929 37.2163 32.9165 37.5773C33.1402 37.9385 33.0289 38.4126 32.6679 38.6364C31.098 39.6091 29.4035 40.3339 27.6242 40.7948L26.9844 45.3379C26.9309 45.7174 26.606 45.9998 26.2227 45.9998H19.779C19.3956 45.9998 19.0708 45.7174 19.0173 45.3379L18.3775 40.7948C15.1607 39.9624 12.2506 38.2807 9.90654 35.8992L5.64723 37.6186C5.29178 37.7622 4.8849 37.6219 4.69318 37.29L1.47128 31.7095C1.27956 31.3775 1.36167 30.9551 1.66366 30.7189L5.27822 27.8932C4.39888 24.7024 4.39869 21.2978 5.27822 18.1062L1.66366 15.2805C1.36167 15.0444 1.27956 14.6219 1.47128 14.2899L4.69318 8.70947C4.8849 8.37748 5.29169 8.23711 5.64723 8.38085L9.90654 10.1002C12.2506 7.7187 15.1607 6.03703 18.3775 5.20461L19.0173 0.661476C19.0707 0.282377 19.3955 0 19.7789 0H26.2226C26.6059 0 26.9308 0.282377 26.9843 0.661861L27.6241 5.20499C30.8409 6.03741 33.7509 7.71908 36.095 10.1006L40.3544 8.38123C40.7099 8.23759 41.1168 8.37787 41.3085 8.70986L44.5303 14.2903C44.722 14.6223 44.6399 15.0447 44.3379 15.2809L40.7233 18.1066C41.6027 21.2974 41.6029 24.702 40.7233 27.8936L44.3379 30.7193C44.6399 30.9554 44.722 31.3777 44.5303 31.7098ZM31.703 15.3861C32.0034 15.0857 32.0035 14.5987 31.703 14.2984C29.3786 11.9737 26.2881 10.6935 23.0007 10.6935C16.2148 10.6935 10.6942 16.2142 10.6942 23.0001C10.6942 29.7859 16.2148 35.3066 23.0007 35.3066C31.628 35.3066 37.6234 26.5898 34.4652 18.5175C34.3104 18.1219 33.8643 17.9268 33.4686 18.0815C33.0731 18.2363 32.8778 18.6825 33.0326 19.078C35.7944 26.1364 30.5535 33.7683 23.0008 33.7683C17.0632 33.7683 12.2326 28.9377 12.2326 23.0001C12.2326 17.0624 17.0632 12.2318 23.0008 12.2318C25.8772 12.2318 28.5815 13.352 30.6154 15.3861C30.9157 15.6864 31.4027 15.6865 31.703 15.3861ZM24.0536 26.0467C24.0536 26.0467 24.0537 26.0474 24.0537 26.0468C24.6172 26.6104 24.6173 27.5226 24.0536 28.0863C23.4913 28.6486 22.5765 28.6486 22.0141 28.0863C21.1024 27.1748 21.7608 25.6243 23.0339 25.6243C23.4191 25.6243 23.7812 25.7743 24.0536 26.0467ZM26.569 24.6191C26.8694 24.3188 26.8695 23.8318 26.569 23.5313C24.6152 21.5775 21.4527 21.5772 19.4986 23.5314C19.1983 23.8318 19.1983 24.3188 19.4986 24.6191C19.799 24.9194 20.2859 24.9195 20.5864 24.619C21.9391 23.2664 24.1284 23.2663 25.4812 24.6191C25.7818 24.9195 26.2687 24.9194 26.569 24.6191ZM29.4244 21.7637C29.7249 21.4633 29.7249 20.9764 29.4244 20.6759C25.8921 17.1438 20.1757 17.1436 16.6433 20.6759C16.3429 20.9764 16.3429 21.4634 16.6433 21.7637C16.9437 22.064 17.4306 22.064 17.731 21.7637C20.6617 18.8328 25.4055 18.8324 28.3366 21.7637C28.6372 22.0641 29.1241 22.064 29.4244 21.7637Z" stroke="#0082C5" stroke-width="0.4" mask="url(#path-1-outside-1_1644_53322)"/>
</g>
<defs>
<clipPath id="clip0_1644_53322">
<rect width="46" height="46" fill="white"/>
</clipPath>
</defs>
</svg>
