<svg width="18" height="18" viewBox="0 0 18 18" fill="none" xmlns="http://www.w3.org/2000/svg">
<path d="M3.44651 4.52007L3.44672 4.51986C3.46319 4.50346 3.47979 4.48951 3.49514 4.47761C4.9128 3.08286 6.85669 2.22048 8.99837 2.22048C11.14 2.22048 13.0838 3.08277 14.5014 4.47751C14.5169 4.48949 14.5336 4.50353 14.5502 4.52007C14.5668 4.5367 14.5809 4.55347 14.5927 4.56876C15.9875 5.98637 16.8499 7.93026 16.8499 10.072C16.8499 12.1688 16.033 14.141 14.5502 15.6238L14.5502 15.6239C14.4987 15.6752 14.439 15.714 14.3752 15.7399C14.3114 15.7658 14.2438 15.7786 14.1763 15.7786C14.0413 15.7786 13.9056 15.727 13.8024 15.6238L12.6164 14.4378C12.4099 14.2312 12.4099 13.8965 12.6164 13.69L12.6164 13.6899C12.8229 13.4835 13.1577 13.4835 13.3641 13.69L13.2581 13.796L13.3641 13.69L14.1618 14.4877C15.1026 13.3912 15.6617 12.0413 15.7718 10.6007H14.6437C14.3517 10.6007 14.115 10.3641 14.115 10.072C14.115 9.77989 14.3517 9.54322 14.6437 9.54322H15.7717C15.6575 8.06696 15.0693 6.72155 14.1593 5.65884L13.3641 6.45396C13.2609 6.55717 13.1253 6.60879 12.9903 6.60879C12.8552 6.60879 12.7196 6.55717 12.6164 6.45396C12.4099 6.24745 12.4099 5.9127 12.6164 5.70617L12.6164 5.70615L13.4115 4.91104C12.3488 4.00095 11.0034 3.41278 9.52713 3.29862V4.42656C9.52713 4.71864 9.29038 4.95532 8.99837 4.95532C8.70636 4.95532 8.46961 4.71864 8.46961 4.42656V3.29862C6.99335 3.41277 5.64793 4.00091 4.58523 4.911L5.3803 5.70615C5.5868 5.91266 5.58678 6.2474 5.38031 6.45394L5.3803 6.45396C5.27708 6.55717 5.14146 6.60879 5.00642 6.60879C4.87138 6.60879 4.73576 6.55717 4.63254 6.45396L3.83743 5.65884C2.92735 6.7215 2.33921 8.06696 2.22502 9.54322H3.3529C3.6449 9.54322 3.88166 9.77989 3.88166 10.072C3.88166 10.3641 3.6449 10.6007 3.3529 10.6007H2.22479C2.33492 12.0413 2.89407 13.3912 3.83486 14.4876L4.63254 13.69C4.839 13.4835 5.17379 13.4835 5.38028 13.6899L5.3803 13.69C5.5868 13.8965 5.58678 14.2312 5.38031 14.4377L5.3803 14.4378L4.21706 15.601C4.21195 15.607 4.20406 15.616 4.19536 15.6247C4.19535 15.6247 4.19534 15.6247 4.19532 15.6247L4.08926 15.5186C4.01533 15.5926 3.91836 15.6296 3.8214 15.6296C3.72449 15.6296 3.62757 15.5927 3.55364 15.5187L3.44651 4.52007ZM3.44651 4.52007C3.42996 4.53663 3.41591 4.55333 3.40393 4.56882M3.44651 4.52007L3.40393 4.56882M3.4459 15.6231L3.44595 15.6232L3.4465 15.6238L3.45699 15.6343L3.45802 15.635L3.51748 4.6673C2.14525 6.05867 1.29688 7.96798 1.29688 10.072C1.29688 12.1289 2.09778 14.0625 3.55202 15.5171L3.4459 15.6231ZM3.4459 15.6231C1.96356 14.1404 1.14687 12.1686 1.14687 10.072C1.14687 7.93029 2.00922 5.98642 3.40393 4.56882M3.4459 15.6231L3.40393 4.56882M3.44838 15.6256C3.44845 15.6257 3.44851 15.6257 3.44858 15.6258C3.4485 15.6257 3.44843 15.6256 3.44835 15.6256L3.44838 15.6256Z" fill="white" stroke="white" stroke-width="0.3"/>
<path d="M10.1964 9.03559C10.153 8.97571 10.0994 8.92105 10.04 8.87603L11.0813 6.27675L10.075 9.1237M10.1964 9.03559C10.1964 9.03562 10.1964 9.03565 10.1965 9.03568L10.075 9.1237M10.1964 9.03559C10.1964 9.03556 10.1964 9.03553 10.1963 9.03551L10.075 9.1237M10.1964 9.03559C10.5866 9.57248 10.6635 10.2262 10.3817 10.7794M10.075 9.1237C10.4363 9.62079 10.5012 10.2144 10.2481 10.7113M10.3817 10.7794L10.2481 10.7113M10.3817 10.7794C10.3817 10.7794 10.3817 10.7794 10.3817 10.7794L10.2481 10.7113M10.3817 10.7794C10.1141 11.305 9.58085 11.6319 8.9913 11.6319C8.62917 11.6319 8.27071 11.5069 7.95428 11.2768L10.2481 10.7113M7.60086 9.36478L7.60086 9.36479L10.9421 6.22097C11.0198 6.02684 10.9255 5.80635 10.7313 5.72858L10.7871 5.58933C10.7871 5.58933 10.7871 5.58933 10.7871 5.58933C10.5159 5.48072 10.2082 5.6124 10.0996 5.88354C10.0996 5.88355 10.0996 5.88356 10.0996 5.88356L9.04607 8.51346C9.02799 8.5127 9.00972 8.51227 8.9913 8.51227C8.40174 8.51227 7.8686 8.83925 7.60086 9.36478ZM8.54317 9.84479L8.54318 9.84476C8.62974 9.67482 8.80106 9.56979 8.9913 9.56979C9.05004 9.56979 9.11028 9.57955 9.17219 9.59963C9.17418 9.60052 9.17649 9.60152 9.17895 9.60252L9.17985 9.60287C9.19128 9.6074 9.20228 9.61104 9.21003 9.61354C9.26182 9.63373 9.31435 9.66074 9.36744 9.6957C9.51145 9.91493 9.52567 10.1299 9.43937 10.2994C9.35277 10.4693 9.18143 10.5744 8.99125 10.5744C8.87263 10.5744 8.74666 10.5354 8.61509 10.4485C8.471 10.2292 8.45681 10.0143 8.54317 9.84479Z" fill="white" stroke="white" stroke-width="0.3"/>
</svg>
