<svg width="180" height="180" viewBox="0 0 180 180" fill="none" xmlns="http://www.w3.org/2000/svg">
<path d="M53.78 94.18C52.62 95.5533 51.12 96.24 49.28 96.24C47.44 96.24 45.9467 95.5533 44.8 94.18C43.6533 92.8067 43.08 91.08 43.08 89C43.08 86.9333 43.66 85.2133 44.82 83.84C45.98 82.4533 47.48 81.76 49.32 81.76C51.1467 81.76 52.6333 82.4467 53.78 83.82C54.94 85.1933 55.52 86.92 55.52 89C55.52 91.0667 54.94 92.7933 53.78 94.18ZM47.08 92.2C47.6533 93.04 48.4 93.46 49.32 93.46C50.24 93.46 50.9733 93.0467 51.52 92.22C52.08 91.38 52.36 90.3067 52.36 89C52.36 87.72 52.0733 86.66 51.5 85.82C50.9267 84.9667 50.1867 84.54 49.28 84.54C48.3733 84.54 47.64 84.96 47.08 85.8C46.52 86.6267 46.24 87.6933 46.24 89C46.24 90.2933 46.52 91.36 47.08 92.2ZM68.3894 94.18C67.2294 95.5533 65.7294 96.24 63.8894 96.24C62.0494 96.24 60.556 95.5533 59.4094 94.18C58.2627 92.8067 57.6894 91.08 57.6894 89C57.6894 86.9333 58.2694 85.2133 59.4294 83.84C60.5894 82.4533 62.0894 81.76 63.9294 81.76C65.756 81.76 67.2427 82.4467 68.3894 83.82C69.5494 85.1933 70.1294 86.92 70.1294 89C70.1294 91.0667 69.5494 92.7933 68.3894 94.18ZM61.6894 92.2C62.2627 93.04 63.0094 93.46 63.9294 93.46C64.8494 93.46 65.5827 93.0467 66.1294 92.22C66.6894 91.38 66.9694 90.3067 66.9694 89C66.9694 87.72 66.6827 86.66 66.1094 85.82C65.536 84.9667 64.796 84.54 63.8894 84.54C62.9827 84.54 62.2494 84.96 61.6894 85.8C61.1294 86.6267 60.8494 87.6933 60.8494 89C60.8494 90.2933 61.1294 91.36 61.6894 92.2ZM72.5588 88.48V85.28H75.7988V88.48H72.5588ZM72.5588 96V92.8H75.7988V96H72.5588ZM88.9167 94.18C87.7567 95.5533 86.2567 96.24 84.4167 96.24C82.5767 96.24 81.0834 95.5533 79.9367 94.18C78.7901 92.8067 78.2167 91.08 78.2167 89C78.2167 86.9333 78.7967 85.2133 79.9567 83.84C81.1167 82.4533 82.6167 81.76 84.4567 81.76C86.2834 81.76 87.7701 82.4467 88.9167 83.82C90.0767 85.1933 90.6567 86.92 90.6567 89C90.6567 91.0667 90.0767 92.7933 88.9167 94.18ZM82.2167 92.2C82.7901 93.04 83.5367 93.46 84.4567 93.46C85.3767 93.46 86.1101 93.0467 86.6567 92.22C87.2167 91.38 87.4967 90.3067 87.4967 89C87.4967 87.72 87.2101 86.66 86.6367 85.82C86.0634 84.9667 85.3234 84.54 84.4167 84.54C83.5101 84.54 82.7767 84.96 82.2167 85.8C81.6567 86.6267 81.3767 87.6933 81.3767 89C81.3767 90.2933 81.6567 91.36 82.2167 92.2ZM103.526 94.18C102.366 95.5533 100.866 96.24 99.0261 96.24C97.1861 96.24 95.6928 95.5533 94.5461 94.18C93.3994 92.8067 92.8261 91.08 92.8261 89C92.8261 86.9333 93.4061 85.2133 94.5661 83.84C95.7261 82.4533 97.2261 81.76 99.0661 81.76C100.893 81.76 102.379 82.4467 103.526 83.82C104.686 85.1933 105.266 86.92 105.266 89C105.266 91.0667 104.686 92.7933 103.526 94.18ZM96.8261 92.2C97.3994 93.04 98.1461 93.46 99.0661 93.46C99.9861 93.46 100.719 93.0467 101.266 92.22C101.826 91.38 102.106 90.3067 102.106 89C102.106 87.72 101.819 86.66 101.246 85.82C100.673 84.9667 99.9328 84.54 99.0261 84.54C98.1194 84.54 97.3861 84.96 96.8261 85.8C96.2661 86.6267 95.9861 87.6933 95.9861 89C95.9861 90.2933 96.2661 91.36 96.8261 92.2ZM107.695 88.48V85.28H110.935V88.48H107.695ZM107.695 96V92.8H110.935V96H107.695ZM118.373 96.24C116.347 96.24 114.6 95.54 113.133 94.14L114.993 91.92C116.113 92.9333 117.227 93.44 118.333 93.44C119.067 93.44 119.64 93.2667 120.053 92.92C120.467 92.5733 120.673 92.0867 120.673 91.46C120.673 90.8733 120.447 90.4133 119.993 90.08C119.54 89.7333 118.94 89.56 118.193 89.56C117.447 89.56 116.667 89.7333 115.853 90.08L114.073 88.9L114.473 82H123.073V84.7H117.113L116.953 87.12C117.593 86.96 118.207 86.88 118.793 86.88C120.247 86.88 121.427 87.2533 122.333 88C123.24 88.7467 123.693 89.88 123.693 91.4C123.693 92.88 123.207 94.06 122.233 94.94C121.273 95.8067 119.987 96.24 118.373 96.24ZM130.813 96.24C129.08 96.24 127.547 95.6867 126.213 94.58L127.833 92.24C128.833 93.04 129.853 93.44 130.893 93.44C131.72 93.44 132.373 93.1533 132.853 92.58C133.333 92.0067 133.627 91.2333 133.733 90.26C132.987 90.9 132.04 91.22 130.893 91.22C129.36 91.22 128.14 90.82 127.233 90.02C126.34 89.2067 125.893 88.0867 125.893 86.66C125.893 85.2467 126.387 84.08 127.373 83.16C128.373 82.2267 129.66 81.76 131.233 81.76C132.153 81.76 132.92 81.88 133.533 82.12C134.16 82.36 134.74 82.7467 135.273 83.28C136.38 84.3867 136.933 86.16 136.933 88.6C136.933 90.92 136.4 92.7733 135.333 94.16C134.267 95.5467 132.76 96.24 130.813 96.24ZM129.613 88.08C130.053 88.4667 130.647 88.66 131.393 88.66C132.14 88.66 132.727 88.4667 133.153 88.08C133.58 87.68 133.793 87.1667 133.793 86.54C133.793 85.9133 133.573 85.4 133.133 85C132.693 84.6 132.093 84.4 131.333 84.4C130.587 84.4 130 84.6 129.573 85C129.16 85.3867 128.953 85.9067 128.953 86.56C128.953 87.1867 129.173 87.6933 129.613 88.08Z" fill="white"/>
<path d="M180 90C180 139.706 139.706 180 90 180C40.2944 180 0 139.706 0 90C0 40.2944 40.2944 0 90 0C139.706 0 180 40.2944 180 90ZM15.7583 90C15.7583 131.003 48.9975 164.242 90 164.242C131.003 164.242 164.242 131.003 164.242 90C164.242 48.9975 131.003 15.7583 90 15.7583C48.9975 15.7583 15.7583 48.9975 15.7583 90Z" fill="white" fill-opacity="0.2"/>
<path d="M90 0C101.819 1.4094e-07 113.522 2.32792 124.442 6.85084C135.361 11.3738 145.282 18.0031 153.64 26.3604C161.997 34.7177 168.626 44.6392 173.149 55.5585C177.672 66.4778 180 78.181 180 90H164.242C164.242 80.2505 162.321 70.5964 158.59 61.589C154.859 52.5815 149.391 44.3972 142.497 37.5032C135.603 30.6092 127.418 25.1406 118.411 21.4096C109.404 17.6786 99.7496 15.7583 90 15.7583V0Z" fill="white"/>
</svg>
