<svg width="120" height="120" viewBox="0 0 120 120" fill="none" xmlns="http://www.w3.org/2000/svg">
<path d="M94.1406 19.85H49.2969C45.9831 19.85 43.2875 22.5456 43.2875 25.8594V29.225H25.8594C22.5456 29.225 19.85 31.9206 19.85 35.2344V94.1406C19.85 97.4544 22.5456 100.15 25.8594 100.15H94.1406C97.4544 100.15 100.15 97.4544 100.15 94.1406V25.8594C100.15 22.5456 97.4544 19.85 94.1406 19.85ZM25.8594 97.5062C24.0036 97.5062 22.4938 95.9962 22.4938 94.1406V35.2344C22.4938 33.3788 24.0036 31.8687 25.8594 31.8687H56.3281C58.1839 31.8687 59.6937 33.3788 59.6937 35.2344V94.1406C59.6937 95.9962 58.1839 97.5062 56.3281 97.5062H25.8594ZM97.5062 94.1406C97.5062 95.9962 95.9962 97.5062 94.1406 97.5062H61.3041C61.956 96.5455 62.3375 95.3868 62.3375 94.1406V86.0875H94.1406C94.8708 86.0875 95.4625 85.4958 95.4625 84.7656V57.6562C95.4625 56.9261 94.8708 56.3344 94.1406 56.3344C93.4104 56.3344 92.8187 56.9261 92.8187 57.6562V83.4437H62.3375V35.2344C62.3375 31.9206 59.6419 29.225 56.3281 29.225H50.6187V27.1813H92.8187V52.9688C92.8187 53.6989 93.4104 54.2906 94.1406 54.2906C94.8708 54.2906 95.4625 53.6989 95.4625 52.9688V25.8594C95.4625 25.1292 94.8708 24.5375 94.1406 24.5375H49.2969C48.5669 24.5375 47.975 25.1292 47.975 25.8594V29.225H45.9312V25.8594C45.9312 24.0038 47.4411 22.4938 49.2969 22.4938H94.1406C95.9962 22.4938 97.5062 24.0038 97.5062 25.8594V94.1406Z" fill="#0082C5" stroke="#0082C5" stroke-width="0.3"/>
<path d="M75.3906 88.1312H68.0469C66.0256 88.1312 64.3812 89.7756 64.3812 91.7969C64.3812 93.8182 66.0256 95.4625 68.0469 95.4625H75.3906C77.4119 95.4625 79.0562 93.8182 79.0562 91.7969C79.0562 89.7756 77.4119 88.1312 75.3906 88.1312ZM75.3906 92.8187H68.0469C67.4835 92.8187 67.025 92.3603 67.025 91.7969C67.025 91.2335 67.4835 90.775 68.0469 90.775H75.3906C75.954 90.775 76.4125 91.2335 76.4125 91.7969C76.4125 92.3603 75.954 92.8187 75.3906 92.8187Z" fill="#0082C5" stroke="#0082C5" stroke-width="0.3"/>
<path d="M41.0938 38.6C38.4262 38.6 36.2562 40.77 36.2562 43.4375C36.2562 46.105 38.4262 48.275 41.0938 48.275C43.7613 48.275 45.9312 46.105 45.9312 43.4375C45.9312 40.77 43.7613 38.6 41.0938 38.6ZM41.0938 45.6312C39.8842 45.6312 38.9 44.647 38.9 43.4375C38.9 42.228 39.8842 41.2438 41.0938 41.2438C42.3033 41.2438 43.2875 42.228 43.2875 43.4375C43.2875 44.647 42.3033 45.6312 41.0938 45.6312Z" fill="#0082C5" stroke="#0082C5" stroke-width="0.3"/>
<path d="M41.0938 66.725C39.0723 66.725 37.4281 68.3693 37.4281 70.3906C37.4281 72.4119 39.0723 74.0563 41.0938 74.0563C43.1152 74.0563 44.7594 72.4119 44.7594 70.3906C44.7594 68.3693 43.1152 66.725 41.0938 66.725ZM41.0938 71.4125C40.5303 71.4125 40.0719 70.954 40.0719 70.3906C40.0719 69.8272 40.5303 69.3688 41.0938 69.3688C41.6572 69.3688 42.1156 69.8272 42.1156 70.3906C42.1156 70.954 41.6572 71.4125 41.0938 71.4125Z" fill="#0082C5" stroke="#0082C5" stroke-width="0.3"/>
<path d="M41.0938 50.3187C38.4262 50.3187 36.2562 52.4887 36.2562 55.1562C36.2562 57.8238 38.4262 59.9937 41.0938 59.9937C43.7613 59.9937 45.9312 57.8238 45.9312 55.1562C45.9312 52.4887 43.7613 50.3187 41.0938 50.3187ZM41.0938 57.35C39.8842 57.35 38.9 56.3658 38.9 55.1562C38.9 53.9467 39.8842 52.9625 41.0938 52.9625C42.3033 52.9625 43.2875 53.9467 43.2875 55.1562C43.2875 56.3658 42.3033 57.35 41.0938 57.35Z" fill="#0082C5" stroke="#0082C5" stroke-width="0.3"/>
<path d="M41.0938 33.9125C35.8415 33.9125 31.5687 38.1853 31.5687 43.4375V55.1562C31.5687 60.4085 35.8415 64.6812 41.0938 64.6812C46.346 64.6812 50.6187 60.4085 50.6187 55.1562V43.4375C50.6187 38.1853 46.346 33.9125 41.0938 33.9125ZM47.975 55.1562C47.975 58.9504 44.8879 62.0375 41.0938 62.0375C37.2996 62.0375 34.2125 58.9504 34.2125 55.1562V43.4375C34.2125 39.6433 37.2996 36.5563 41.0938 36.5563C44.8879 36.5563 47.975 39.6433 47.975 43.4375V55.1562Z" fill="#0082C5" stroke="#0082C5" stroke-width="0.3"/>
</svg>
