<svg width="120" height="120" viewBox="0 0 120 120" fill="none" xmlns="http://www.w3.org/2000/svg">
<path d="M113.995 93.5784C113.994 93.5627 113.994 93.5472 113.993 93.5315C113.987 93.4695 113.978 93.4087 113.965 93.3491C113.964 93.3433 113.962 93.3374 113.961 93.3316C113.948 93.2768 113.933 93.2233 113.915 93.1711C113.91 93.1571 113.905 93.1435 113.9 93.1297C113.882 93.0822 113.862 93.036 113.841 92.9911C113.837 92.9832 113.834 92.975 113.83 92.9671L105.448 76.4327V22.034C105.448 20.3609 104.086 18.9998 102.413 18.9998H18.5863C16.9132 18.9998 15.5521 20.3609 15.5521 22.034V76.4322L7.16949 92.9669C7.16552 92.9748 7.16301 92.983 7.15925 92.9909C7.1373 93.0358 7.11766 93.082 7.09989 93.1293C7.09467 93.1431 7.08945 93.1568 7.08464 93.1708C7.06688 93.2233 7.05141 93.277 7.03908 93.3318C7.03783 93.3374 7.03595 93.343 7.03469 93.3487C7.02194 93.4085 7.01296 93.4693 7.00731 93.5313C7.00585 93.5468 7.00585 93.5625 7.00502 93.5779C7.00293 93.6105 7 93.6427 7 93.6758V97.6519C7 99.6391 8.61649 101.256 10.6037 101.256H110.396C112.384 101.256 114 99.6391 114 97.6519V93.6758C114 93.6427 113.997 93.6105 113.995 93.5784ZM18.687 22.135H102.313V75.2398H18.687V22.135ZM18.0822 78.3743H102.918L109.881 92.1082H75.4441L73.7155 85.8409C73.3636 84.5651 72.1937 83.674 70.8702 83.674H50.1294C48.8059 83.674 47.6358 84.5651 47.284 85.8407L45.5555 92.1082H11.1193L18.0822 78.3743ZM72.1923 92.1084H48.8077L50.2692 86.8089H70.7308L72.1923 92.1084ZM110.865 97.6517C110.865 97.9102 110.655 98.1206 110.396 98.1206H10.6037C10.3452 98.1206 10.1348 97.9102 10.1348 97.6517V95.2429H110.865V97.6517Z" fill="#0082C5"/>
<path d="M97.4023 51.3001C96.5365 51.3001 95.8349 52.0017 95.8349 52.8675V68.7618H25.166V52.8675C25.166 52.0017 24.4645 51.3001 23.5986 51.3001C22.7328 51.3001 22.0312 52.0017 22.0312 52.8675V69.4387C22.0312 70.794 23.1336 71.8966 24.4891 71.8966H96.512C97.8673 71.8966 98.9699 70.7942 98.9699 69.4387V52.8675C98.9697 52.0021 98.2681 51.3001 97.4023 51.3001Z" fill="#0082C5"/>
<path d="M96.5118 25.4783H24.4891C23.1339 25.4783 22.0312 26.5807 22.0312 27.9362V44.5074C22.0312 45.3732 22.7328 46.0748 23.5986 46.0748C24.4645 46.0748 25.166 45.3732 25.166 44.5074V28.6131H95.8349V44.5074C95.8349 45.3732 96.5365 46.0748 97.4023 46.0748C98.2681 46.0748 98.9697 45.3732 98.9697 44.5074V27.9362C98.9697 26.5805 97.8673 25.4783 96.5118 25.4783Z" fill="#0082C5"/>
</svg>
