<svg width="120" height="120" viewBox="0 0 120 120" fill="none" xmlns="http://www.w3.org/2000/svg">
<path d="M107 36.461V86.1716C107 87.0362 106.306 87.7373 105.45 87.7373C104.594 87.7373 103.9 87.0362 103.9 86.1716V36.461C103.9 33.871 101.814 31.764 99.25 31.764H84.1375C81.5736 31.764 79.4875 33.871 79.4875 36.461V86.1716C79.4875 88.7616 81.5736 90.8686 84.1375 90.8686H99.25C100.106 90.8686 100.8 91.5697 100.8 92.4343C100.8 93.299 100.106 94 99.25 94H84.1375C79.8642 94 76.3875 90.4882 76.3875 86.1716V36.461C76.3875 32.1444 79.8642 28.6326 84.1375 28.6326H99.25C103.523 28.6326 107 32.1442 107 36.461ZM86.5476 62.1303C85.6784 62.3027 85.1595 63.1695 85.331 63.9699C85.5015 64.8514 86.3639 65.371 87.1521 65.199C87.8819 65.0546 88.3998 64.4042 88.3998 63.6646C88.4 62.6702 87.4919 61.9359 86.5476 62.1303ZM96.2351 62.1303C95.3705 62.3017 94.8461 63.1648 95.0185 63.9699C95.1869 64.8405 96.0401 65.3734 96.8396 65.199C97.5694 65.0546 98.0873 64.4036 98.0873 63.6646C98.0875 62.6831 97.1939 61.933 96.2351 62.1303ZM86.5476 70.9372C85.1799 71.2085 84.8604 73.0204 85.9896 73.7731C87.0085 74.4663 88.3998 73.7226 88.3998 72.4716C88.4 71.4895 87.5045 70.7404 86.5476 70.9372ZM96.2351 70.9372C95.3705 71.1087 94.8461 71.9718 95.0185 72.7769C95.1869 73.6475 96.0401 74.1804 96.8396 74.006C97.5694 73.8616 98.0873 73.2106 98.0873 72.4716C98.0875 71.4901 97.1939 70.74 96.2351 70.9372ZM85.3 81.2788C85.3 82.539 86.6993 83.2694 87.7101 82.5803C88.5093 82.0485 88.6459 80.8778 87.9466 80.1711C86.9781 79.1931 85.3 79.8801 85.3 81.2788ZM95.9444 79.8323C94.7895 80.3188 94.6591 81.9014 95.6771 82.5801C96.837 83.3692 98.3394 82.2949 98.0563 80.9733C97.8689 80.0033 96.8403 79.4558 95.9444 79.8323ZM98.475 46.2466C98.475 50.0236 95.4329 53.0964 91.6937 53.0964C87.9546 53.0964 84.9125 50.0236 84.9125 46.2466C84.9125 42.4695 87.9546 39.3967 91.6937 39.3967C95.4329 39.3967 98.475 42.4694 98.475 46.2466ZM95.375 46.2466C95.375 44.1961 93.7237 42.5281 91.6937 42.5281C89.6638 42.5281 88.0125 44.1961 88.0125 46.2466C88.0125 48.297 89.6638 49.9651 91.6937 49.9651C93.7237 49.9651 95.375 48.2968 95.375 46.2466ZM65.3438 45.8551C64.4878 45.8551 63.7937 46.5562 63.7937 47.4208V79.7131C63.7937 82.3032 61.7076 84.4102 59.1437 84.4102H21.75C19.1861 84.4102 17.1 82.3032 17.1 79.7131V41.9409C17.1 39.3509 19.1861 37.2439 21.75 37.2439H31.2437C32.0997 37.2439 32.7937 36.5428 32.7937 35.6782C32.7937 34.8135 32.0997 34.1125 31.2437 34.1125H21.75C17.4767 34.1125 14 37.6243 14 41.9409V79.7131C14 84.0297 17.4767 87.5415 21.75 87.5415H59.1437C63.4171 87.5415 66.8937 84.0297 66.8937 79.7131V47.4208C66.8937 46.556 66.1997 45.8551 65.3438 45.8551ZM28.1437 55.6407C27.2878 55.6407 26.5938 56.3417 26.5938 57.2064C26.5938 58.071 27.2878 58.7721 28.1437 58.7721H31.2437V68.1662C31.2437 69.0308 31.9378 69.7319 32.7937 69.7319C33.6497 69.7319 34.3438 69.0308 34.3438 68.1662V58.7721H37.4437C38.2997 58.7721 38.9937 58.071 38.9937 57.2064C38.9937 56.3417 38.2997 55.6407 37.4437 55.6407H28.1437ZM43.0332 55.7671C42.2464 56.1077 41.882 57.0283 42.2191 57.8231L46.8691 68.7829C47.4039 70.0432 49.1821 70.0473 49.7186 68.7829L54.3686 57.8231C54.7057 57.0283 54.3411 56.1078 53.5544 55.7671C52.768 55.4266 51.8564 55.7945 51.5191 56.5895L48.2938 64.1915L45.0686 56.5895C44.7311 55.7949 43.8204 55.4264 43.0332 55.7671ZM55.6468 43.3254C57.4771 45.1745 56.1629 48.3368 53.5916 48.3368C51.0223 48.3368 49.7048 45.1758 51.5367 43.3254C52.6723 42.1779 54.511 42.1777 55.6468 43.3254ZM60.7158 40.4193C61.3211 39.8079 61.3211 38.8166 60.7158 38.205C56.7785 34.2276 50.4056 34.2272 46.4675 38.205C45.8622 38.8164 45.8622 39.8077 46.4675 40.4193C47.0729 41.0307 48.0541 41.0309 48.6595 40.4193C51.3852 37.6656 55.7977 37.6654 58.5236 40.4193C59.1296 41.0311 60.1108 41.0301 60.7158 40.4193ZM40.7135 32.3926C40.1082 33.004 40.1082 33.9953 40.7135 34.6069C41.3189 35.2183 42.3001 35.2183 42.9056 34.6069C48.8114 28.6408 58.3713 28.6404 64.2777 34.6069C64.8832 35.2185 65.8646 35.2181 66.4698 34.6069C67.0751 33.9955 67.0751 33.004 66.4698 32.3926C59.352 25.2028 47.832 25.2022 40.7135 32.3926Z" fill="#0082C5"/>
</svg>
