<svg width="120" height="120" viewBox="0 0 120 120" fill="none" xmlns="http://www.w3.org/2000/svg">
<g clip-path="url(#clip0)">
<path d="M118.242 70.1956C119.213 70.1956 119.999 69.4088 119.999 68.4378V17.7554C119.999 16.9306 119.649 16.1399 119.038 15.5863C118.453 15.0559 117.671 14.7864 116.889 14.8335H3.11162C2.32436 14.7859 1.54718 15.0559 0.961953 15.5863C0.351178 16.1399 0.000556234 16.9306 0.000556234 17.7554V86.4198C-0.0331934 88.0625 1.47406 89.477 3.11138 89.3417H52.2657V93.1137L29.2118 95.5838C27.1226 95.8074 25.5472 97.5607 25.5472 99.6619V101.071C25.5472 103.333 27.3872 105.173 29.6487 105.173H73.1248C74.0958 105.173 74.8826 104.386 74.8826 103.415C74.8826 102.444 74.0958 101.657 73.1248 101.657H29.6487C29.3255 101.657 29.0628 101.395 29.0628 101.071V99.6619C29.0628 99.3616 29.2878 99.1111 29.5861 99.0792L54.3117 96.4299C58.1641 96.0174 62.0704 96.0174 65.9223 96.4299L90.6484 99.0792C90.9465 99.1113 91.1715 99.3616 91.1715 99.6619V101.071C91.1715 101.395 90.9088 101.657 90.5856 101.657H81.3279C80.3569 101.657 79.5701 102.444 79.5701 103.415C79.5701 104.386 80.3569 105.173 81.3279 105.173H90.5856C92.8471 105.173 94.6871 103.333 94.6871 101.071V99.6619C94.6871 97.5605 93.1117 95.8074 91.0225 95.5838L67.9686 93.1137V89.3417H116.889C118.521 89.4791 120.035 88.0614 119.999 86.4198V76.6408C119.999 75.6698 119.213 74.883 118.242 74.883C117.271 74.883 116.484 75.6698 116.484 76.6408V85.8259H3.51615V18.3491H116.484V68.4378C116.484 69.4086 117.271 70.1956 118.242 70.1956ZM64.453 92.7701C61.5689 92.5543 58.6654 92.5543 55.7813 92.7701V89.3417H64.453V92.7701Z" fill="#0082C5"/>
<path d="M8.78904 40.8993C7.81804 40.8993 7.03125 41.6861 7.03125 42.6571V79.9878C7.03125 80.9588 7.81804 81.7456 8.78904 81.7456H111.21C112.181 81.7456 112.968 80.9588 112.968 79.9878V24.1881C112.968 23.2171 112.181 22.4303 111.21 22.4303H8.78904C7.81804 22.4303 7.03125 23.2171 7.03125 24.1881V34.4541C7.03125 35.4251 7.81804 36.2119 8.78904 36.2119C9.76005 36.2119 10.5468 35.4251 10.5468 34.4541V25.9459H109.452V78.23H10.5468V42.6571C10.5468 41.6861 9.76005 40.8993 8.78904 40.8993Z" fill="#0082C5"/>
</g>
<defs>
<clipPath id="clip0">
<rect width="120" height="120" fill="white"/>
</clipPath>
</defs>
</svg>
