<svg width="30" height="19" viewBox="0 0 30 19" fill="none" xmlns="http://www.w3.org/2000/svg">
<path d="M0.286641 15V13.06L5.10664 8.96C6.09331 8.13333 6.77331 7.45333 7.14664 6.92C7.53331 6.37333 7.72664 5.79333 7.72664 5.18C7.72664 4.51333 7.51331 3.98667 7.08664 3.6C6.65997 3.2 6.11997 3 5.46664 3C4.85331 3 4.29997 3.16667 3.80664 3.5C3.32664 3.83333 2.79997 4.36667 2.22664 5.1L0.486641 3.74C1.20664 2.72667 1.94664 1.98667 2.70664 1.52C3.47997 1.04 4.45997 0.799999 5.64664 0.799999C7.01997 0.799999 8.13331 1.18667 8.98664 1.96C9.83997 2.73333 10.2666 3.75333 10.2666 5.02C10.2666 5.56667 10.2 6.06 10.0666 6.5C9.93331 6.92667 9.69331 7.36667 9.34664 7.82C9.01331 8.26 8.64664 8.66667 8.24664 9.04C7.85997 9.4 7.31997 9.86667 6.62664 10.44L3.74664 12.84H10.4066V15H0.286641ZM13.1323 2.82V0.519999H15.7323V2.82H13.1323ZM13.2323 15V4.44H15.6523V15H13.2323ZM18.8149 18.2V4.44H21.2349V6.2C22.1683 4.88 23.3616 4.22 24.8149 4.22C26.1483 4.22 27.3016 4.72 28.2749 5.72C29.2483 6.70667 29.7349 8.04667 29.7349 9.74C29.7349 11.4067 29.2483 12.74 28.2749 13.74C27.3016 14.7267 26.1483 15.22 24.8149 15.22C23.3616 15.22 22.1683 14.6 21.2349 13.36V18.2H18.8149ZM24.2549 13.12C25.1083 13.12 25.8216 12.8067 26.3949 12.18C26.9816 11.5533 27.2749 10.7267 27.2749 9.7C27.2749 8.7 26.9816 7.88667 26.3949 7.26C25.8083 6.63333 25.0949 6.32 24.2549 6.32C23.4149 6.32 22.6883 6.64 22.0749 7.28C21.4749 7.92 21.1749 8.74 21.1749 9.74C21.1749 10.7267 21.4749 11.54 22.0749 12.18C22.6883 12.8067 23.4149 13.12 24.2549 13.12Z" fill="white"/>
</svg>
