<svg width="57" height="19" viewBox="0 0 57 19" fill="none" xmlns="http://www.w3.org/2000/svg">
<path d="M24.257 9.74374C24.257 12.381 22.1635 14.3244 19.5943 14.3244C17.0251 14.3244 14.9316 12.381 14.9316 9.74374C14.9316 7.08787 17.0251 5.16309 19.5943 5.16309C22.1635 5.16309 24.257 7.08787 24.257 9.74374ZM22.2159 9.74374C22.2159 8.09569 21.0026 6.96809 19.5943 6.96809C18.1861 6.96809 16.9727 8.09569 16.9727 9.74374C16.9727 11.3753 18.1861 12.5194 19.5943 12.5194C21.0026 12.5194 22.2159 11.3732 22.2159 9.74374Z" fill="white"/>
<path d="M34.3156 9.74374C34.3156 12.381 32.2221 14.3244 29.6529 14.3244C27.0837 14.3244 24.9902 12.381 24.9902 9.74374C24.9902 7.08993 27.0837 5.16309 29.6529 5.16309C32.2221 5.16309 34.3156 7.08787 34.3156 9.74374ZM32.2745 9.74374C32.2745 8.09569 31.0612 6.96809 29.6529 6.96809C28.2447 6.96809 27.0313 8.09569 27.0313 9.74374C27.0313 11.3753 28.2447 12.5194 29.6529 12.5194C31.0612 12.5194 32.2745 11.3732 32.2745 9.74374Z" fill="white"/>
<path d="M43.9554 5.43983V13.6635C43.9554 17.0463 41.931 18.428 39.5379 18.428C37.2851 18.428 35.9293 16.9431 35.4179 15.7287L37.195 14.9997C37.5114 15.7453 38.2868 16.625 39.5358 16.625C41.0676 16.625 42.0169 15.6936 42.0169 13.9403V13.2815H41.9457C41.4889 13.837 40.6087 14.3223 39.498 14.3223C37.174 14.3223 35.0449 12.3273 35.0449 9.76026C35.0449 7.17461 37.174 5.16309 39.498 5.16309C40.6066 5.16309 41.4868 5.64841 41.9457 6.18743H42.0169V5.44189H43.9554V5.43983ZM42.1615 9.76026C42.1615 8.14732 41.0697 6.96809 39.6804 6.96809C38.2721 6.96809 37.0923 8.14732 37.0923 9.76026C37.0923 11.3567 38.2721 12.5194 39.6804 12.5194C41.0697 12.5194 42.1615 11.3567 42.1615 9.76026Z" fill="white"/>
<path d="M47.151 0.619629V14.0435H45.1602V0.619629H47.151Z" fill="white"/>
<path d="M54.9086 11.2512L56.4929 12.2921C55.9815 13.0376 54.7493 14.3222 52.6202 14.3222C49.9798 14.3222 48.0078 12.3107 48.0078 9.74154C48.0078 7.01752 49.9965 5.16089 52.3918 5.16089C54.8038 5.16089 55.9836 7.05263 56.3692 8.07491L56.5809 8.59534L50.3674 11.1314C50.8431 12.0505 51.5829 12.5193 52.6202 12.5193C53.6596 12.5193 54.3805 12.0153 54.9086 11.2512ZM50.0322 9.60317L54.1856 7.9035C53.9572 7.33143 53.2698 6.93284 52.4609 6.93284C51.4236 6.93284 49.9798 7.83534 50.0322 9.60317Z" fill="white"/>
<path d="M7.39606 8.55192V6.60855H14.0412C14.1061 6.94725 14.1397 7.3479 14.1397 7.7816C14.1397 9.23964 13.7352 11.0426 12.4318 12.3271C11.1639 13.6282 9.54404 14.3221 7.39816 14.3221C3.42073 14.3221 0.0761719 11.1293 0.0761719 7.20953C0.0761719 3.28975 3.42073 0.0969238 7.39816 0.0969238C9.59852 0.0969238 11.166 0.947793 12.3437 2.05682L10.9523 3.42812C10.1078 2.64747 8.96356 2.04029 7.39606 2.04029C4.49158 2.04029 2.21996 4.34714 2.21996 7.20953C2.21996 10.0719 4.49158 12.3788 7.39606 12.3788C9.27999 12.3788 10.3529 11.6332 11.0403 10.9558C11.5977 10.4065 11.9644 9.62171 12.109 8.54986L7.39606 8.55192Z" fill="white"/>
</svg>
