<svg width="16" height="16" viewBox="0 0 16 16" fill="none" xmlns="http://www.w3.org/2000/svg">
<circle cx="8" cy="8" r="8" fill="white"/>
<path fill-rule="evenodd" clip-rule="evenodd" d="M8.00848 1.60059C8.4325 1.60059 8.78867 1.96516 8.78867 2.41653V5.41989C8.78867 5.87126 8.4325 6.23584 7.99152 6.23584C7.55054 6.23584 7.19437 5.87126 7.19437 5.41989V2.41653C7.21133 1.96516 7.5675 1.60059 8.00848 1.60059Z" fill="#2C99EF"/>
<path fill-rule="evenodd" clip-rule="evenodd" d="M2.03833 6.02751C2.17401 5.61086 2.61499 5.36781 3.03901 5.50669L5.82056 6.4268C6.22761 6.56568 6.46506 7.01706 6.32938 7.45107C6.19369 7.86772 5.75271 8.11077 5.3287 7.97188L2.54715 7.05178C2.14009 6.91289 1.90264 6.46152 2.03833 6.02751Z" fill="#2C99EF"/>
<path fill-rule="evenodd" clip-rule="evenodd" d="M4.07019 13.4442C3.71402 13.1838 3.64617 12.6803 3.90058 12.3158L5.87144 9.63849C6.12585 9.27392 6.61771 9.20448 6.97388 9.46488C7.33005 9.72529 7.3979 10.2287 7.14349 10.5933L5.17263 13.2706C4.91822 13.6352 4.42636 13.7046 4.07019 13.4442Z" fill="#2C99EF"/>
<path fill-rule="evenodd" clip-rule="evenodd" d="M11.9207 13.4348C11.5645 13.6952 11.0726 13.6084 10.8182 13.2612L8.85651 10.5933C8.6021 10.2287 8.68691 9.72529 9.02612 9.46488C9.38229 9.20448 9.87415 9.29128 10.1286 9.63849L12.0903 12.3064C12.3447 12.671 12.2599 13.1744 11.9207 13.4348Z" fill="#2C99EF"/>
<path fill-rule="evenodd" clip-rule="evenodd" d="M13.9617 6.02751C14.0974 6.44416 13.8599 6.91289 13.4529 7.05178L10.6543 7.97188C10.2473 8.11077 9.78935 7.86772 9.65366 7.45107C9.51798 7.03442 9.75543 6.56568 10.1625 6.4268L12.944 5.50669C13.385 5.36781 13.826 5.61086 13.9617 6.02751Z" fill="#2C99EF"/>
</svg>
