<svg width="16" height="16" viewBox="0 0 16 16" fill="none" xmlns="http://www.w3.org/2000/svg">
<circle cx="8" cy="8" r="8" fill="white"/>
<path fill-rule="evenodd" clip-rule="evenodd" d="M2 8C2 4.7 4.67073 2 8 2C11.3293 2 14 4.7 14 8C14 11.3 11.3293 14 8 14C7.34146 14 6.71951 13.8875 6.13415 13.7C6.57317 11.225 8.10976 9.2 10.1951 8.3375C10.4512 8.6375 10.8171 8.7875 11.2195 8.7875C11.9512 8.7875 12.5366 8.1875 12.5366 7.4375C12.5366 6.6875 11.9512 6.0875 11.2195 6.0875C10.4878 6.0875 9.90244 6.6875 9.90244 7.4375C7.26829 8.225 5.14634 10.0625 4.04878 12.425C3.71951 12.125 3.39024 11.7875 3.13415 11.375C3.20732 9.0875 4.34146 7.0625 6.02439 5.8625C6.28049 6.1625 6.64634 6.3125 7.0122 6.3125C7.7439 6.3125 8.32927 5.7125 8.32927 4.9625C8.32927 4.2125 7.7439 3.6125 7.0122 3.6125C6.28049 3.6125 5.69512 4.2125 5.69512 4.9625C5.69512 5 5.69512 5.0375 5.69512 5.075C4.12195 5.6375 2.80488 6.725 2.03659 8.15C2 8.15 2 8.075 2 8Z" fill="#FEC330"/>
</svg>
