<svg width="16" height="16" viewBox="0 0 16 16" fill="none" xmlns="http://www.w3.org/2000/svg">
<path d="M13.0671 9.90642C12.3248 9.90642 11.5976 9.79051 10.9085 9.5631C10.5721 9.44719 10.1902 9.5365 9.96913 9.762L8.60286 10.7938C7.03516 9.95711 6.03183 8.9544 5.20651 7.39811L6.21046 6.06414C6.46319 5.81141 6.55378 5.44148 6.44546 5.09501C6.21616 4.40143 6.09962 3.67364 6.09962 2.93254C6.09962 2.4087 5.67334 1.98242 5.1495 1.98242H2.93254C2.4087 1.98242 1.98242 2.4087 1.98242 2.93254C1.98242 9.04434 6.95535 14.0173 13.0671 14.0173C13.591 14.0173 14.0173 13.591 14.0173 13.0671V10.8565C14.0173 10.3327 13.591 9.90642 13.0671 9.90642Z" fill="white"/>
</svg>
