<svg width="26" height="26" viewBox="0 0 26 26" fill="none" xmlns="http://www.w3.org/2000/svg">
<path d="M17.4046 9.22081L11.6142 14.6031C11.4107 14.7922 11.2792 15.0462 11.2421 15.3214L11.045 16.7829C11.0188 16.9779 10.7444 16.9975 10.6906 16.8083L9.93202 14.1432C9.84545 13.839 9.97166 13.5142 10.2409 13.3484L17.257 9.02688C17.3829 8.94942 17.5129 9.12009 17.4046 9.22081ZM26 0V26H0V0H26ZM20.2141 6.24653L5.48089 11.9301C5.11767 12.0703 5.12046 12.5852 5.48517 12.7214L9.07499 14.0614L10.4646 18.5301C10.5537 18.8163 10.9038 18.9218 11.1361 18.7324L13.1372 17.101C13.347 16.93 13.6455 16.9217 13.8645 17.0807L17.474 19.7013C17.7225 19.8817 18.0744 19.7457 18.1369 19.445L20.7807 6.72728C20.8489 6.39931 20.5267 6.12588 20.2141 6.24653Z" fill="white"/>
</svg>
