<svg width="26" height="26" viewBox="0 0 26 26" fill="none" xmlns="http://www.w3.org/2000/svg">
<path d="M16.8923 6.01221C14.3101 5.521 11.6915 5.521 9.10878 6.01221C7.97916 6.2638 6.55802 7.62561 6.28018 8.721C5.81807 10.8404 5.81807 12.989 6.28018 15.1085C6.55802 16.2038 7.97916 17.5656 9.10878 17.8172C9.10906 17.8173 9.10935 17.8174 9.10963 17.8174C9.15995 17.8273 9.19664 17.8709 9.19664 17.9222V21.027C9.19664 21.1822 9.38605 21.2586 9.49387 21.1462L10.9686 19.6327C10.9686 19.6327 12.1438 18.4263 12.3552 18.2094C12.3758 18.1881 12.4043 18.1767 12.4339 18.1775C13.9229 18.2187 15.4134 18.0984 16.8923 17.8173C18.0219 17.5657 19.4436 16.2039 19.7209 15.1085C20.1836 12.9891 20.1836 10.8405 19.7209 8.72106C19.4435 7.62562 18.0225 6.2638 16.8923 6.01221ZM16.9316 15.2665C16.7057 15.7462 16.377 16.1453 15.9028 16.4C15.769 16.4719 15.6091 16.4951 15.4581 16.5416C15.2844 16.4889 15.1189 16.4535 14.9652 16.3897C13.3726 15.7289 11.9068 14.8765 10.7457 13.5697C10.0855 12.8266 9.56867 11.9877 9.13188 11.0999C8.92473 10.6788 8.75015 10.2413 8.57221 9.80662C8.4099 9.41023 8.64894 9.00072 8.9006 8.70206C9.13673 8.42176 9.44059 8.20725 9.76966 8.04916C10.0265 7.92576 10.2799 7.9969 10.4675 8.21461C10.873 8.68528 11.2455 9.18003 11.5471 9.72561C11.7326 10.0612 11.6817 10.4714 11.3455 10.6998C11.2638 10.7553 11.1894 10.8204 11.1133 10.8831C11.0465 10.9381 10.9837 10.9936 10.938 11.068C10.8543 11.204 10.8503 11.3646 10.9042 11.5126C11.3187 12.6518 12.0174 13.5377 13.164 14.0148C13.3476 14.0911 13.5318 14.18 13.7432 14.1554C14.0972 14.114 14.2118 13.7257 14.4598 13.5228C14.7023 13.3246 15.0122 13.3219 15.2733 13.4872C15.5346 13.6526 15.7878 13.83 16.0395 14.0094C16.2866 14.1855 16.5326 14.3577 16.7605 14.5584C16.9796 14.7514 17.055 15.0046 16.9316 15.2665ZM14.8753 11.5543C14.7764 11.556 14.8153 11.5541 14.8529 11.553C14.6935 11.5474 14.6069 11.4536 14.5897 11.3011C14.5772 11.1897 14.5674 11.0768 14.5408 10.9684C14.4884 10.7549 14.3749 10.5571 14.1954 10.4263C14.1106 10.3645 14.0146 10.3194 13.9139 10.2904C13.7861 10.2535 13.6533 10.2637 13.5257 10.2324C13.3872 10.1985 13.3106 10.0863 13.3323 9.95633C13.3521 9.83806 13.4672 9.74575 13.5964 9.75511C14.4041 9.81341 14.9813 10.231 15.0637 11.1818C15.0695 11.2489 15.0764 11.3198 15.0615 11.384C15.0373 11.4883 14.9627 11.5426 14.8874 11.5525C14.8935 11.5526 14.8923 11.5531 14.8753 11.5543ZM14.3731 9.37954C14.1252 9.25819 13.8572 9.18277 13.5855 9.13781C13.4668 9.11819 13.3468 9.10626 13.2275 9.08966C13.083 9.06958 13.0058 8.97744 13.0126 8.83499C13.019 8.70149 13.1166 8.60547 13.262 8.61368C13.7401 8.64084 14.2019 8.74416 14.6269 8.96923C15.4913 9.42695 15.985 10.1494 16.1291 11.1142C16.1357 11.1579 16.1461 11.2012 16.1494 11.2451C16.1576 11.3533 16.1627 11.4618 16.171 11.6046C16.1676 11.6306 16.1658 11.6918 16.1506 11.7494C16.0953 11.9585 15.7782 11.9847 15.7052 11.7736C15.6836 11.711 15.6803 11.6397 15.6802 11.5723C15.6795 11.1311 15.5836 10.6903 15.3611 10.3064C15.1324 9.91194 14.7829 9.58025 14.3731 9.37954ZM17.0437 12.3611C16.8768 12.3631 16.8016 12.2234 16.7908 12.0736C16.7693 11.7772 16.7545 11.4794 16.7136 11.1854C16.4979 9.63359 15.2605 8.34971 13.7159 8.07421C13.4835 8.03273 13.2455 8.02184 13.0101 7.99713C12.8613 7.9815 12.6663 7.97249 12.6333 7.78747C12.6057 7.63235 12.7366 7.50883 12.8843 7.5009C12.9245 7.49873 12.9649 7.50056 13.0052 7.50073C15.0057 7.55681 13.1273 7.50507 13.0106 7.50102C15.0913 7.56166 16.7997 8.94344 17.1661 11.0012C17.2286 11.3521 17.2508 11.7109 17.2786 12.0671C17.2903 12.2168 17.2054 12.3592 17.0437 12.3611Z" fill="white"/>
<path d="M0 0V26H26V0H0ZM21.2228 15.4484L21.2177 15.4689C20.8024 17.1479 18.9299 18.9496 17.2104 19.3244L17.191 19.3284C15.8007 19.5937 14.4001 19.7261 13 19.7261C12.5879 19.7261 12.1759 19.7132 11.764 19.6902L9.86507 21.6641C9.39496 22.1536 8.56829 21.8204 8.56829 21.1421V19.2678C6.91295 18.7951 5.17996 17.0763 4.7818 15.4689L4.77724 15.4483C4.26378 13.1035 4.26378 10.7256 4.77724 8.38082L4.7818 8.36028C5.19771 6.68127 7.07013 4.87959 8.78908 4.50476L8.80905 4.50077C11.5897 3.97019 14.4098 3.97019 17.191 4.50077L17.2104 4.50476C18.9299 4.87959 20.8024 6.68127 21.2177 8.36028L21.2228 8.38082C21.7363 10.7257 21.7363 13.1036 21.2228 15.4484Z" fill="white"/>
</svg>
