<svg width="16" height="16" viewBox="0 0 16 16" fill="none" xmlns="http://www.w3.org/2000/svg">
<circle cx="8" cy="8" r="8" fill="white"/>
<path d="M5.39482 2.59138C6.98767 1.81605 8.91237 1.80497 10.5163 2.54707C9.2774 2.44739 8.03851 2.8572 6.99873 3.53284C5.92577 4.21956 5.1404 5.33824 4.81962 6.56769C4.58733 7.45378 4.63158 8.40632 4.9966 9.2481C5.49437 10.4443 6.72219 11.3304 8.02745 11.3415C8.77963 11.3526 9.53181 11.0978 10.107 10.6215C10.7928 10.0567 11.2353 9.19272 11.2795 8.29556C11.3127 7.57561 11.1357 6.81136 10.6711 6.24648C10.1623 5.61515 9.39907 5.26071 8.62477 5.07242C8.54734 3.90943 9.44332 2.80182 10.5716 2.5803C11.8658 3.18948 12.9166 4.27494 13.4918 5.58192C14.0449 6.83351 14.1555 8.28448 13.7794 9.61361C13.4476 10.8209 12.7175 11.9174 11.733 12.6928C10.6933 13.5235 9.36589 13.9997 8.02745 13.9997C6.85493 14.0108 5.68242 13.6675 4.69794 13.014C3.5033 12.2165 2.59626 10.9981 2.22017 9.61361C1.86621 8.36201 1.94364 6.98858 2.41928 5.78129C2.97235 4.39678 4.05638 3.23379 5.39482 2.59138Z" fill="#E30B17"/>
</svg>
