<svg width="60" height="60" viewBox="0 0 60 60" fill="none" xmlns="http://www.w3.org/2000/svg">
<g clip-path="url(#clip0)">
<path d="M53.5346 52.6126L45.9443 39.4659C47.2032 38.4058 48.0732 36.8981 48.3057 35.1896C48.4635 34.0278 49.0611 32.9928 49.9882 32.2751C52.3914 30.4149 53.266 27.151 52.115 24.3381C51.6709 23.253 51.6709 22.0579 52.115 20.9729C53.266 18.16 52.3914 14.8963 49.9882 13.0359C49.0611 12.3182 48.4634 11.2832 48.3057 10.1215C47.896 7.10998 45.5067 4.72063 42.4952 4.31124C41.3336 4.15324 40.2986 3.55573 39.581 2.62864C37.7205 0.225223 34.457 -0.649246 31.6439 0.501828C30.5588 0.945919 29.3636 0.945919 28.2787 0.501828C25.466 -0.649363 22.202 0.225223 20.3416 2.62864C19.624 3.55573 18.589 4.15324 17.4272 4.31124C14.4156 4.72075 12.0264 7.10998 11.617 10.1216C11.459 11.2833 10.8615 12.3184 9.9344 13.036C7.53098 14.8964 6.65651 18.1602 7.80759 20.973C8.25168 22.058 8.25168 23.2533 7.80759 24.3382C6.6564 27.151 7.53098 30.4149 9.9344 32.2753C10.8615 32.9929 11.459 34.028 11.617 35.1896C11.8523 36.9206 12.7426 38.4451 14.0283 39.5071L6.46172 52.6126C6.22473 53.0232 6.25825 53.5361 6.54693 53.9121C6.83549 54.2881 7.32201 54.4534 7.78016 54.3307L14.3754 52.5635L16.135 59.1304C16.2577 59.5883 16.6442 59.9272 17.1142 59.9891C17.1655 59.9958 17.2167 59.9991 17.2675 59.9991C17.6821 59.9991 18.071 59.7788 18.2821 59.4131L26.4469 45.2715C27.066 45.2048 27.6825 45.0532 28.2786 44.8092C29.3636 44.3651 30.5589 44.3651 31.6438 44.8092C32.2653 45.0637 32.909 45.2187 33.5547 45.2806L41.714 59.4131C41.9252 59.7789 42.314 59.9991 42.7287 59.9991C42.7796 59.9991 42.8307 59.9958 42.8821 59.9891C43.3521 59.9272 43.7385 59.5883 43.8612 59.1304L45.621 52.5635L52.2162 54.3307C52.6738 54.4534 53.1608 54.2883 53.4493 53.9121C53.7379 53.5361 53.7715 53.0232 53.5346 52.6126ZM17.6668 55.7906L16.3362 50.8248C16.2556 50.5245 16.0593 50.2685 15.7901 50.1131C15.5209 49.9577 15.2011 49.9156 14.9007 49.996L9.9065 51.3341L16.0648 40.6676C16.5002 40.8234 16.9561 40.9358 17.4271 40.9999C18.5888 41.1579 19.6239 41.7554 20.3415 42.6825C21.2523 43.8591 22.4997 44.6684 23.8658 45.0538L17.6668 55.7906ZM27.3906 42.6399C25.5494 43.3935 23.413 42.8209 22.1951 41.2478C21.0988 39.8315 19.5176 38.9185 17.7429 38.6773C15.7716 38.4092 14.2075 36.8452 13.9395 34.8738C13.6982 33.0991 12.7853 31.518 11.369 30.4215C9.79574 29.2038 9.22331 27.0672 9.97683 25.2261C10.6553 23.5684 10.6553 21.7427 9.97683 20.0851C9.22331 18.2439 9.79574 16.1074 11.369 14.8896C12.7853 13.7933 13.6982 12.2122 13.9395 10.4373C14.2076 8.46605 15.7716 6.90194 17.7429 6.63389C19.5176 6.39269 21.0988 5.47977 22.1951 4.06346C23.054 2.95388 24.3694 2.34219 25.7163 2.34219C26.2793 2.34219 26.8478 2.44919 27.3905 2.6713C29.0482 3.34968 30.8741 3.34968 32.5316 2.6713C34.3727 1.91767 36.5093 2.49022 37.7271 4.06346C38.8234 5.47977 40.4045 6.39269 42.1791 6.63389C44.1504 6.90194 45.7145 8.46593 45.9825 10.4373C46.2239 12.2122 47.1368 13.7933 48.5531 14.8896C50.1263 16.1074 50.6988 18.2438 49.9453 20.0851C49.2669 21.7427 49.2669 23.5684 49.9453 25.2261C50.6988 27.0672 50.1262 29.2038 48.5531 30.4215C47.1368 31.5179 46.2239 33.099 45.9825 34.8737C45.7145 36.8451 44.1504 38.4092 42.1792 38.6771C40.4044 38.9183 38.8233 39.8313 37.7269 41.2477C36.5091 42.821 34.3727 43.3934 32.5316 42.6397C30.874 41.9615 29.0484 41.9615 27.3906 42.6399ZM45.0954 49.996C44.4699 49.8283 43.8276 50.1996 43.66 50.8248L42.3293 55.7906L36.1197 45.0353C37.4609 44.6429 38.684 43.841 39.5809 42.6825C40.2984 41.7553 41.3335 41.1578 42.4951 40.9999C42.9882 40.9329 43.4643 40.8118 43.918 40.6445L50.0895 51.3341L45.0954 49.996Z" fill="#0082C5"/>
<path d="M24.6344 18.3209L20.9878 21.9674C20.7681 22.1871 20.6445 22.4853 20.6445 22.7961C20.6445 23.107 20.7681 23.4051 20.9878 23.6249L27.8271 30.4643C28.0469 30.6841 28.345 30.8076 28.6559 30.8076C28.9667 30.8076 29.2649 30.6841 29.4846 30.4643L39.0076 20.9414C39.4653 20.4837 39.4653 19.7415 39.0076 19.2838L35.3611 15.6372C35.1412 15.4175 34.8432 15.2939 34.5323 15.2939C34.2215 15.2939 33.9233 15.4175 33.7036 15.6372L28.656 20.6849L26.2922 18.321C26.0724 18.1012 25.7743 17.9777 25.4634 17.9777C25.1524 17.9776 24.8542 18.1011 24.6344 18.3209ZM27.827 23.1712C28.0468 23.391 28.3449 23.5145 28.6558 23.5145C28.9666 23.5145 29.2648 23.391 29.4845 23.1712L34.5321 18.1235L36.5212 20.1126L28.6558 27.978L23.4741 22.7963L25.4632 20.8073L27.827 23.1712Z" fill="#0082C5"/>
<path d="M45.235 23.0505C45.235 19.9371 44.3019 16.9427 42.5368 14.3911C40.8131 11.8997 38.4187 9.99454 35.6126 8.8818C35.0106 8.64328 34.3296 8.93759 34.091 9.53932C33.8524 10.1411 34.1468 10.8222 34.7484 11.0609C39.6948 13.0223 42.891 17.7286 42.891 23.0505C42.891 30.1595 37.1074 35.9431 29.9984 35.9431C22.8894 35.9431 17.1058 30.1595 17.1058 23.0505C17.1058 17.7285 20.302 13.0222 25.2484 11.0608C25.8502 10.8221 26.1446 10.1409 25.906 9.5392C25.6673 8.93747 24.986 8.64305 24.3844 8.88168C21.5781 9.99454 19.1838 11.8996 17.46 14.391C15.6948 16.9426 14.7617 19.937 14.7617 23.0504C14.7617 31.4519 21.5969 38.2871 29.9984 38.2871C38.3999 38.2872 45.235 31.452 45.235 23.0505Z" fill="#0082C5"/>
<path d="M30.0002 10.1564C30.3084 10.1564 30.6108 10.0321 30.8287 9.81295C31.0467 9.59495 31.1722 9.29373 31.1722 8.98431C31.1722 8.67606 31.0468 8.37367 30.8287 8.15567C30.6108 7.93767 30.3084 7.81226 30.0002 7.81226C29.6919 7.81226 29.3895 7.93767 29.1715 8.15567C28.9535 8.37367 28.8281 8.67606 28.8281 8.98431C28.8281 9.29373 28.9535 9.59495 29.1715 9.81295C29.3895 10.0321 29.6919 10.1564 30.0002 10.1564Z" fill="#0082C5"/>
</g>
<defs>
<clipPath id="clip0">
<rect width="60" height="60" fill="white"/>
</clipPath>
</defs>
</svg>
