<svg width="60" height="60" viewBox="0 0 60 60" fill="none" xmlns="http://www.w3.org/2000/svg">
<path d="M20.7971 33.3324C20.5793 33.1145 20.277 32.9902 19.9688 32.9902C19.6604 32.9902 19.3582 33.1146 19.1402 33.3324C18.9223 33.5516 18.7969 33.8539 18.7969 34.1609C18.7969 34.4703 18.9221 34.7715 19.1402 34.9895C19.3582 35.2085 19.6604 35.3328 19.9688 35.3328C20.277 35.3328 20.5793 35.2085 20.7971 34.9895C21.0151 34.7715 21.1406 34.4702 21.1406 34.1609C21.1406 33.8539 21.0152 33.5516 20.7971 33.3324Z" fill="#0082C5"/>
<path d="M60 34.3994C60 32.0328 58.337 30.0485 56.1185 29.5502C56.6437 28.7622 56.9507 27.8168 56.9507 26.8009C56.9507 24.0599 54.7207 21.8299 51.9797 21.8299H38.9391L40.645 16.7654C41.3334 14.7215 41.1689 12.5399 40.1818 10.6223C39.1948 8.70489 37.5148 7.30333 35.4516 6.67602L33.3955 6.05106C32.798 5.8693 32.1647 6.18735 31.9526 6.77352L28.7218 15.7025C27.8048 18.2367 25.9965 20.342 23.6299 21.6306L20.4025 23.3881C19.7082 22.4441 18.5905 21.83 17.3316 21.83H1.17188C0.524766 21.83 0 22.3548 0 23.0019V53.3947C0 54.0418 0.524766 54.5666 1.17188 54.5666H17.3316C18.7335 54.5666 19.9601 53.805 20.6217 52.6743L22.2758 53.3231C24.3803 54.1483 26.5934 54.5667 28.8536 54.5667H49.3303C52.0713 54.5667 54.3013 52.3367 54.3013 49.5957C54.3013 48.5716 53.9898 47.6191 53.457 46.8273C55.6334 46.2984 57.2545 44.3342 57.2545 41.9975C57.2545 40.9533 56.9302 39.9836 56.3779 39.1828C58.4652 38.5933 60 36.6729 60 34.3994ZM55.029 37.0265H52.2836H46.9016H42.9757C42.3286 37.0265 41.8038 37.5513 41.8038 38.1984C41.8038 38.8455 42.3286 39.3703 42.9757 39.3703H46.9016H52.2836C53.7322 39.3703 54.9108 40.5488 54.9108 41.9975C54.9108 43.4462 53.7322 44.6247 52.2836 44.6247H49.3303H43.375H42.9758C42.3287 44.6247 41.8039 45.1495 41.8039 45.7966C41.8039 46.4437 42.3287 46.9685 42.9758 46.9685H43.375H49.3303C50.779 46.9685 51.9575 48.147 51.9575 49.5957C51.9575 51.0444 50.779 52.2229 49.3303 52.2229H28.8536C26.8874 52.2229 24.9622 51.859 23.1315 51.1411L21.1418 50.3607V38.8636C21.1418 38.2165 20.617 37.6917 19.9699 37.6917C19.3228 37.6917 18.798 38.2165 18.798 38.8636V50.7562C18.798 51.5648 18.1403 52.2227 17.3316 52.2227H2.34375V24.1736H17.3316C18.1402 24.1736 18.798 24.8314 18.798 25.6401V29.6192C18.798 30.2663 19.3228 30.7911 19.9699 30.7911C20.617 30.7911 21.1418 30.2663 21.1418 29.6192V25.6542L24.7508 23.6888C27.6209 22.1261 29.8138 19.5731 30.9258 16.4999L33.7781 8.61688L34.7698 8.91829C36.2216 9.35973 37.4036 10.3457 38.098 11.6949C38.7926 13.0441 38.9082 14.579 38.4239 16.017L36.1973 22.6275C36.0769 22.9851 36.1361 23.3788 36.356 23.6852C36.5762 23.9916 36.9305 24.1734 37.3078 24.1734H51.9797C53.4284 24.1734 54.6069 25.352 54.6069 26.8006C54.6069 28.2493 53.4284 29.4279 51.9797 29.4279H42.9757C42.3286 29.4279 41.8038 29.9526 41.8038 30.5997C41.8038 31.2468 42.3286 31.7716 42.9757 31.7716H46.8948C46.8971 31.7716 46.8994 31.772 46.9016 31.772H55.029C56.4777 31.772 57.6562 32.9505 57.6562 34.3992C57.6562 35.8481 56.4777 37.0265 55.029 37.0265Z" fill="#0082C5"/>
<path d="M12.7943 43.2617C10.9843 43.2617 9.51172 44.7342 9.51172 46.5441C9.51172 48.3541 10.9842 49.8267 12.7943 49.8267C14.6043 49.8267 16.0768 48.3542 16.0768 46.5441C16.0768 44.7343 14.6042 43.2617 12.7943 43.2617ZM12.7943 47.4829C12.2766 47.4829 11.8555 47.0618 11.8555 46.5441C11.8555 46.0265 12.2766 45.6055 12.7943 45.6055C13.3119 45.6055 13.733 46.0265 13.733 46.5441C13.733 47.0618 13.3119 47.4829 12.7943 47.4829Z" fill="#0082C5"/>
</svg>
