<svg width="60" height="60" viewBox="0 0 60 60" fill="none" xmlns="http://www.w3.org/2000/svg">
<g clip-path="url(#clip0)">
<path d="M1.17891 59.8244C1.83 59.8244 2.35782 59.2966 2.35782 58.6455C2.35782 57.9944 1.83 57.4666 1.17891 57.4666C0.527815 57.4666 0 57.9944 0 58.6455C0 59.2966 0.527815 59.8244 1.17891 59.8244Z" fill="#0082C5"/>
<path d="M31.2898 29.9241C31.9396 29.9241 32.4664 29.3973 32.4664 28.7475C32.4664 28.0977 31.9396 27.5709 31.2898 27.5709C30.64 27.5709 30.1133 28.0977 30.1133 28.7475C30.1133 29.3973 30.64 29.9241 31.2898 29.9241Z" fill="#0082C5"/>
<path d="M46.6986 13.8322C45.7527 12.8863 44.4952 12.3655 43.1576 12.3655C41.8201 12.3655 40.5624 12.8865 39.6167 13.8322C37.6642 15.7848 37.6642 18.9617 39.6167 20.9142C40.5931 21.8905 41.8751 22.3785 43.1576 22.3785C44.4398 22.3785 45.7224 21.8903 46.6986 20.9142C48.651 18.9616 48.651 15.7847 46.6986 13.8322ZM45.0349 19.2503C43.9997 20.2853 42.3154 20.2853 41.2805 19.2503C40.2454 18.2153 40.2454 16.531 41.2805 15.4959C41.782 14.9945 42.4485 14.7184 43.1576 14.7184C43.8667 14.7184 44.5333 14.9945 45.0347 15.4959C46.0699 16.531 46.0699 18.2153 45.0349 19.2503Z" fill="#0082C5"/>
<path d="M14.6983 48.2177C14.1166 47.928 13.4104 48.1649 13.1208 48.7465L11.7194 51.5607C11.11 52.7843 9.8845 53.6025 8.52067 53.6958L6.89082 53.8074C6.61531 53.8257 6.43414 53.6885 6.35035 53.6047C6.26656 53.5209 6.12898 53.3394 6.14773 53.0641L6.25929 51.4344C6.35269 50.0707 7.1709 48.845 8.39434 48.2357L11.2085 46.8343C11.7902 46.5446 12.0269 45.8383 11.7372 45.2567C11.4477 44.6751 10.7414 44.4383 10.1597 44.728L7.34551 46.1293C5.37769 47.1092 4.06191 49.0803 3.91167 51.2736L3.80011 52.9034C3.73988 53.7831 4.06285 54.6451 4.68628 55.2686C5.26027 55.8425 6.03664 56.162 6.84289 56.162C6.91215 56.162 6.98187 56.1597 7.05148 56.1549L8.68133 56.0433C10.8746 55.8932 12.8457 54.5775 13.8256 52.6095L15.227 49.7953C15.5167 49.2136 15.2799 48.5074 14.6983 48.2177Z" fill="#0082C5"/>
<path d="M59.1898 0.958754C58.6377 0.414886 57.8772 0.130471 57.1047 0.180745L56.0092 0.250589C46.1867 0.87766 36.9941 5.61896 30.7887 13.2589L28.2101 16.4334L21.462 16.2352C21.4506 16.2349 21.439 16.2348 21.4276 16.2348C16.0759 16.2348 11.0444 18.3188 7.26007 22.1031L0.348568 29.0147C0.0198562 29.3434 -0.0845581 29.835 0.0823172 30.2688C0.249193 30.7028 0.655834 30.9978 1.12013 31.0215L15.7503 31.7731L15.1538 32.5076C14.8532 32.8778 14.8057 33.3927 15.0336 33.8115C15.2628 34.2329 15.503 34.6476 15.7536 35.0557L12.2841 39.1745C11.9875 39.5266 11.9237 40.0195 12.1204 40.4358C12.8783 42.0372 13.8841 43.476 15.1104 44.7123C16.3664 45.9789 17.8351 47.0146 19.4755 47.791C19.6358 47.8669 19.8077 47.904 19.9786 47.904C20.2435 47.904 20.5063 47.8145 20.72 47.6412C21.4674 47.0349 22.3291 46.3157 23.1626 45.6203C23.7566 45.1246 24.3643 44.6175 24.9323 44.1499C25.2714 44.354 25.6146 44.5518 25.963 44.7413C26.1392 44.8371 26.3325 44.8843 26.525 44.8843C26.7812 44.8843 27.0357 44.8009 27.2464 44.6373L28.0483 44.015L28.8033 58.7069C28.8272 59.1712 29.1221 59.5778 29.556 59.7447C29.6933 59.7974 29.836 59.8232 29.9778 59.8232C30.2843 59.8232 30.5852 59.7033 30.81 59.4784L37.7216 52.5668C41.506 48.7825 43.5899 43.7511 43.5899 38.3993V31.9546L46.3165 29.8387C54.4879 23.4977 59.4645 13.9359 59.9703 3.60485L59.9983 3.03227C60.0365 2.25837 59.7417 1.50274 59.1898 0.958754ZM3.88342 28.8075L8.9239 23.767C12.2596 20.4313 16.6938 18.5923 21.4106 18.5878L26.3424 18.7326L17.5874 29.5115L3.88342 28.8075ZM21.6551 43.8136C21.0409 44.3259 20.4112 44.8514 19.8269 45.332C18.6968 44.7199 17.6744 43.9562 16.781 43.0553C15.9157 42.1828 15.1791 41.1894 14.5852 40.0951L17.1254 37.0795C17.8934 38.11 18.7341 39.086 19.6424 40.0004C19.6431 40.0011 19.6438 40.0017 19.6445 40.0024C19.6447 40.0027 19.6449 40.003 19.6452 40.0032C19.6455 40.0036 19.6459 40.0038 19.6462 40.0042C20.6532 41.0176 21.7364 41.9476 22.8854 42.7887C22.4797 43.1255 22.064 43.4724 21.6551 43.8136ZM41.2372 38.3993C41.2372 43.1225 39.398 47.563 36.058 50.903L31.0175 55.9435L30.3142 42.2569L41.2371 33.7807V38.3993H41.2372ZM57.6204 3.48989C57.1483 13.1341 52.5025 22.0603 44.8743 27.9798L26.4219 42.2988C24.8917 41.4047 23.4654 40.3489 22.16 39.1528L28.381 32.9318C28.8404 32.4724 28.8404 31.7273 28.381 31.2678C27.9216 30.8083 27.1766 30.8083 26.7171 31.2678L20.5019 37.483C19.3592 36.218 18.3472 34.8415 17.4855 33.3692L32.6152 14.7424C38.408 7.61045 46.9894 3.18427 56.159 2.59903L57.2545 2.52919C57.398 2.52028 57.4941 2.59153 57.5384 2.63512C57.5826 2.6786 57.6556 2.77317 57.6486 2.91743L57.6204 3.48989Z" fill="#0082C5"/>
</g>
<defs>
<clipPath id="clip0">
<rect width="60" height="60" fill="white"/>
</clipPath>
</defs>
</svg>
