<svg width="60" height="60" viewBox="0 0 60 60" fill="none" xmlns="http://www.w3.org/2000/svg">
<path d="M21.4866 45.2386C21.0021 45.2386 20.6094 45.6313 20.6094 46.1159V50.7359C20.6094 51.2205 21.0021 51.6131 21.4866 51.6131C21.9711 51.6131 22.3639 51.2205 22.3639 50.7359V46.1159C22.3639 45.6313 21.9711 45.2386 21.4866 45.2386Z" fill="#0082C5"/>
<path d="M38.4671 45.2386C37.9826 45.2386 37.5898 45.6313 37.5898 46.1159V50.7359C37.5898 51.2205 37.9826 51.6131 38.4671 51.6131C38.9516 51.6131 39.3444 51.2205 39.3444 50.7359V46.1159C39.3444 45.6313 38.9516 45.2386 38.4671 45.2386Z" fill="#0082C5"/>
<path d="M55.5133 42.1759L52.5759 40.9974V40.2472C53.1525 39.9267 53.6702 39.5097 54.1059 39.0175C55.964 39.2368 57.7418 38.4951 58.8926 37.003C60.0827 35.46 60.3304 33.4714 59.5551 31.6836L58.2361 28.6422C58.1369 28.4136 58.0687 28.1725 58.0331 27.926C57.7489 25.9504 56.7616 24.1426 55.253 22.8356C53.7445 21.5285 51.8146 20.8088 49.8186 20.8088C47.8227 20.8088 45.8927 21.5285 44.3842 22.8356C42.8758 24.1426 41.8884 25.9503 41.6041 27.926C41.5686 28.1727 41.5004 28.4137 41.4012 28.6422L40.0823 31.6836C39.307 33.4713 39.5546 35.4598 40.7448 37.003C41.7629 38.323 43.2713 39.0586 44.8918 39.0585C45.1009 39.0585 45.312 39.0461 45.5242 39.0211C45.9195 39.4695 46.3832 39.8556 46.8996 40.163V40.9973L43.9623 42.1759C43.7708 42.2527 43.5839 42.3396 43.4017 42.4358C42.8333 41.3904 42.0219 40.4763 41.0123 39.7819L37.1864 37.1507C37.2085 36.6675 37.0153 36.1808 36.6217 35.8469L35.0671 34.5277C34.9197 34.4026 34.7541 34.3081 34.5791 34.2439V32.4678C36.2223 31.2759 37.3876 29.465 37.7291 27.3795H37.8227C39.4953 27.3795 40.8561 26.0187 40.8561 24.3462C40.8561 23.6321 40.6075 22.9752 40.193 22.4565L40.8201 17.9987C41.2721 14.7852 39.0285 11.7825 35.8186 11.305L35.6938 11.2866C34.6674 9.61136 33.0777 8.40274 31.1703 7.86188L30.9407 7.79673C28.4119 7.07972 25.7069 7.50771 23.5194 8.9712C23.1166 9.24058 23.0086 9.78541 23.2779 10.188C23.5473 10.5906 24.092 10.6988 24.4949 10.4293C26.2542 9.25239 28.4291 8.90815 30.4621 9.48469L30.6917 9.54984C32.2877 10.0024 33.5978 11.0571 34.3808 12.5196C34.9195 13.5259 35.1572 14.6325 35.0886 15.7395L34.4939 15.2284C33.9504 14.7612 33.1511 14.7488 32.5937 15.1991L31.8136 15.8292H27.3608C24.4713 15.8292 22.1205 18.18 22.1205 21.0695V21.3131C21.8879 21.3139 21.6617 21.3418 21.4441 21.3924C20.4524 18.6004 20.732 15.4547 22.2227 12.8815C22.4655 12.4622 22.3225 11.9256 21.9033 11.6826C21.4841 11.4399 20.9475 11.5827 20.7045 12.0019C18.9018 15.114 18.6095 18.9401 19.9055 22.2886C19.405 22.8297 19.0985 23.5527 19.0985 24.3462C19.0985 26.0187 20.4593 27.3795 22.1319 27.3795H22.2255C22.567 29.465 23.7322 31.2759 25.3755 32.4678V34.2439C25.2005 34.3079 25.0349 34.4026 24.8876 34.5276L23.3329 35.8469C22.9393 36.1808 22.7461 36.6676 22.7682 37.1507L18.9423 39.7819C18.1648 40.3166 17.5047 40.9814 16.9825 41.7362C16.6441 41.5493 16.2915 41.3895 15.9263 41.2601L13.3287 40.3401V39.6487C14.6518 38.8312 15.603 37.4685 15.8679 35.8764H16.2605C17.7997 35.8764 19.0518 34.6242 19.0518 33.0852C19.0518 32.3941 18.7989 31.7616 18.3814 31.2736L18.5381 29.4195C18.7557 26.7496 17.5907 24.2171 15.4216 22.6454C13.2524 21.0735 10.483 20.755 8.01359 21.7932L6.26504 22.5283C3.5576 23.126 1.748 25.7203 2.13458 28.4761L2.52572 31.2646C2.1037 31.7537 1.84766 32.3899 1.84766 33.0852C1.84766 34.6242 3.09979 35.8764 4.63896 35.8764H5.03151C5.27924 37.3652 6.12737 38.6529 7.31833 39.4823V40.3401L4.72072 41.26C4.35696 41.3889 3.99857 41.5503 3.65562 41.74C3.23161 41.9744 3.07792 42.5082 3.31232 42.9322C3.47233 43.2217 3.77189 43.3851 4.0808 43.3851C4.22431 43.3851 4.36994 43.3498 4.50445 43.2754C4.7633 43.1322 5.03314 43.0105 5.30626 42.9138L7.55086 42.1188C8.0054 43.2021 9.07682 43.965 10.3233 43.965C11.5699 43.965 12.6413 43.2021 13.0958 42.1188L15.3404 42.9139C15.6228 43.0138 15.8953 43.1382 16.1565 43.2841C15.8081 44.1675 15.6213 45.1194 15.6213 46.0961V51.3005C15.6213 51.7851 16.014 52.1777 16.4985 52.1777C16.983 52.1777 17.3758 51.7851 17.3758 51.3005V46.0961C17.3758 44.1503 18.333 42.3303 19.9363 41.2276L23.5899 38.7149L25.0874 40.7172C25.4093 41.1476 25.914 41.3901 26.4346 41.3901C26.5968 41.3901 26.7605 41.3666 26.9206 41.3178L29.0999 40.6546V51.6678C29.0999 52.1524 29.4926 52.545 29.9771 52.545C30.4616 52.545 30.8544 52.1524 30.8544 51.6678V40.6546L33.0338 41.3179C33.1939 41.3666 33.3575 41.3901 33.5196 41.3901C34.0401 41.3901 34.5449 41.1475 34.8668 40.7172L36.3642 38.7149L40.0178 41.2276C41.6212 42.3303 42.5784 44.1503 42.5784 46.0961V51.3005C42.5784 51.7851 42.9711 52.1777 43.4556 52.1777C43.9401 52.1777 44.3329 51.7851 44.3329 51.3005V46.0961C44.3329 45.4052 44.2392 44.7267 44.0614 44.0759C44.2392 43.9721 44.4241 43.8811 44.6153 43.8044L47.1625 42.7823C47.6138 43.7536 48.5981 44.4291 49.7377 44.4291C50.8773 44.4291 51.8616 43.7538 52.3128 42.7825L54.8601 43.8044C56.4709 44.4505 57.5116 45.9895 57.5116 47.7249V49.2098C57.5116 49.6944 57.9043 50.0871 58.3888 50.0871C58.8733 50.0871 59.2661 49.6944 59.2661 49.2098V47.7249C59.266 45.2686 57.7929 43.0906 55.5133 42.1759ZM20.8526 24.3461C20.8526 23.6447 21.4203 23.0739 22.1202 23.0677V25.6242C21.4204 25.6181 20.8526 25.0474 20.8526 24.3461ZM16.2602 34.1217H15.9435V32.0481H16.2602C16.832 32.0481 17.297 32.5133 17.297 33.0849C17.297 33.6566 16.832 34.1217 16.2602 34.1217ZM3.60193 33.0851C3.60193 32.5133 4.06699 32.0483 4.63873 32.0483H4.95548V34.1219H4.63873C4.06711 34.1217 3.60193 33.6567 3.60193 33.0851ZM6.02093 27.5896C5.43902 28.3931 5.08718 29.3185 4.98647 30.2936H4.63873C4.47778 30.2936 4.32034 30.3081 4.16677 30.3343L3.87189 28.2321C3.60965 26.3629 4.85325 24.6045 6.70297 24.2286C6.75958 24.2172 6.81502 24.2001 6.86836 24.1776L8.69352 23.4102C10.5933 22.6115 12.7235 22.8567 14.392 24.0657C16.0606 25.2749 16.9568 27.2229 16.7895 29.274L16.7004 30.3285C16.557 30.3057 16.4101 30.2935 16.2602 30.2935H15.9358C15.8602 29.5497 15.2304 28.9672 14.4669 28.9672H12.3007C10.7568 28.9672 9.22911 28.4534 7.99908 27.5206L7.75088 27.3324C7.49027 27.1347 7.15505 27.0488 6.83187 27.097C6.50833 27.1452 6.21276 27.3248 6.02093 27.5896ZM7.44197 28.6187C7.44173 28.619 7.44162 28.6192 7.4415 28.6195C7.44162 28.6192 7.44185 28.619 7.44197 28.6187ZM6.7101 30.8775C6.7101 30.2431 6.86298 29.63 7.15575 29.0779C8.64977 30.1398 10.4662 30.722 12.3008 30.722H14.189V34.9719C14.189 37.0339 12.5114 38.7114 10.4495 38.7114C8.38765 38.7114 6.7101 37.0339 6.7101 34.9719V30.8775ZM10.3232 42.2105C9.63358 42.2105 9.07261 41.6494 9.07261 40.9599V40.2911C9.51276 40.4051 9.97419 40.4659 10.4495 40.4659C10.8348 40.4659 11.2108 40.4257 11.574 40.3498V40.9599C11.574 41.6494 11.0129 42.2105 10.3232 42.2105ZM37.8337 25.6242V23.0677C38.5336 23.0738 39.1013 23.6447 39.1013 24.3461C39.1013 25.0474 38.5336 25.6181 37.8337 25.6242ZM39.0823 17.754L38.5686 21.4058C38.3333 21.346 38.087 21.3138 37.8336 21.3129V21.2419C37.8336 19.8275 37.3961 18.4671 36.6039 17.3303C36.9493 15.9999 36.9371 14.6302 36.5796 13.3283C38.2741 14.0516 39.3502 15.8502 39.0823 17.754ZM23.8748 26.1056V21.0692C23.8748 19.1471 25.4386 17.5835 27.3606 17.5835H32.1235C32.3241 17.5835 32.5186 17.5147 32.6746 17.3888L33.5206 16.7053L34.3065 17.3808C35.4331 18.3491 36.0791 19.7565 36.0791 21.2419V26.1055C36.0791 29.4703 33.3417 32.2077 29.9769 32.2077C26.6121 32.2077 23.8748 29.4703 23.8748 26.1056ZM29.977 33.9623C30.9812 33.9623 31.9408 33.771 32.8243 33.4261V34.5502L29.977 35.9463L27.1297 34.5502V33.4261C28.0131 33.7708 28.9728 33.9623 29.977 33.9623ZM26.4605 39.6236L24.5708 37.097L25.9506 35.9261L29.0996 37.47V38.8204L26.4605 39.6236ZM33.4934 39.6236L30.8543 38.8205V37.4702L34.0032 35.9262L35.3831 37.0972L33.4934 39.6236ZM42.1339 35.9315C41.3397 34.9017 41.1744 33.5748 41.6919 32.3817L43.0108 29.3403C43.172 28.9689 43.283 28.5771 43.3406 28.1759C43.8011 24.9763 46.586 22.5634 49.8186 22.5634C53.0513 22.5634 55.8361 24.9763 56.2965 28.1759C56.3542 28.577 56.4652 28.9687 56.6264 29.3403L57.9453 32.3817C58.4626 33.5747 58.2975 34.9017 57.5033 35.9315C56.9151 36.6938 56.0818 37.1632 55.1671 37.2759C55.356 36.7851 55.4791 36.2619 55.5244 35.7166C55.5644 35.2337 55.2053 34.8099 54.7226 34.7699C54.2402 34.7307 53.816 35.0889 53.7759 35.5717C53.6068 37.6124 51.8686 39.211 49.8186 39.211C47.6282 39.211 45.8463 37.4291 45.8463 35.2387V31.0303C45.8463 30.0971 46.1209 29.1794 46.6268 28.4004C47.762 29.2669 49.1613 29.7625 50.5906 29.8003L53.791 29.8847V31.9054C53.791 32.39 54.1837 32.7827 54.6682 32.7827C55.1527 32.7827 55.5455 32.39 55.5455 31.9054V29.6472C55.5455 28.8221 54.8993 28.1587 54.0746 28.1371L50.6368 28.0466C49.5236 28.0171 48.435 27.6139 47.5714 26.9115L47.3448 26.7271C47.0774 26.5096 46.7416 26.41 46.3987 26.4468C46.0561 26.4834 45.7489 26.6519 45.5338 26.9208C44.6038 28.0827 44.0914 29.5422 44.0914 31.0306V35.239C44.0914 35.9557 44.2249 36.6414 44.4664 37.2742C43.5534 37.1608 42.7212 36.6929 42.1339 35.9315ZM49.7376 42.6745C49.14 42.6745 48.6537 42.1884 48.6537 41.5907V40.8462C49.03 40.9242 49.4195 40.9656 49.8185 40.9656C50.1598 40.9656 50.4947 40.9336 50.8213 40.8746V41.5908C50.8214 42.1884 50.3352 42.6745 49.7376 42.6745Z" fill="#0082C5"/>
<path d="M1.88025 44.4453C1.4442 44.2337 0.919597 44.4164 0.708354 44.8524C0.238379 45.8234 0 46.8618 0 47.939V50.7354C0 51.22 0.392776 51.6127 0.877255 51.6127C1.36173 51.6127 1.75451 51.22 1.75451 50.7354V47.939C1.75451 47.1289 1.93382 46.3478 2.28765 45.6171C2.49877 45.181 2.31642 44.6563 1.88025 44.4453Z" fill="#0082C5"/>
</svg>
