<svg width="14" height="15" viewBox="0 0 14 15" fill="none" xmlns="http://www.w3.org/2000/svg">
<path d="M11.6641 4.88672H2.33073C1.6864 4.88672 1.16406 5.40905 1.16406 6.05339V11.8867C1.16406 12.5311 1.6864 13.0534 2.33073 13.0534H11.6641C12.3084 13.0534 12.8307 12.5311 12.8307 11.8867V6.05339C12.8307 5.40905 12.3084 4.88672 11.6641 4.88672Z" stroke="#7C7C7C" stroke-width="1.4" stroke-linecap="round" stroke-linejoin="round"/>
<path d="M9.33073 4.85383V3.72013C9.33073 3.41071 9.20781 3.11397 8.98902 2.89518C8.77023 2.67638 8.47348 2.55347 8.16406 2.55347H5.83073C5.52131 2.55347 5.22456 2.67638 5.00577 2.89518C4.78698 3.11397 4.66406 3.41071 4.66406 3.72013V4.85383" stroke="#7C7C7C" stroke-width="1.4" stroke-linecap="round" stroke-linejoin="round"/>
</svg>
