<svg width="24" height="24" viewBox="0 0 24 24" fill="none" xmlns="http://www.w3.org/2000/svg">
<path fill-rule="evenodd" clip-rule="evenodd" d="M12.017 0.288452C12.865 0.288452 13.5773 1.00006 13.5773 1.8811V7.74339C13.5773 8.62443 12.865 9.33604 11.983 9.33604C11.1011 9.33604 10.3887 8.62443 10.3887 7.74339V1.8811C10.4227 1.00006 11.135 0.288452 12.017 0.288452Z" fill="#2C99EF"/>
<path fill-rule="evenodd" clip-rule="evenodd" d="M0.0766592 8.92941C0.34803 8.11614 1.22998 7.64173 2.07802 7.91282L7.64111 9.70879C8.45522 9.97987 8.93012 10.8609 8.65875 11.7081C8.38738 12.5213 7.50543 12.9957 6.65739 12.7246L1.0943 10.9287C0.280187 10.6576 -0.194711 9.77656 0.0766592 8.92941Z" fill="#2C99EF"/>
<path fill-rule="evenodd" clip-rule="evenodd" d="M4.14038 23.4061C3.42803 22.8978 3.29235 21.9151 3.80116 21.2035L7.74288 15.9777C8.25169 15.2661 9.23541 15.1306 9.94776 15.6389C10.6601 16.1471 10.7958 17.1298 10.287 17.8414L6.34526 23.0672C5.83644 23.7788 4.85273 23.9144 4.14038 23.4061Z" fill="#2C99EF"/>
<path fill-rule="evenodd" clip-rule="evenodd" d="M19.8414 23.3878C19.129 23.8961 18.1453 23.7267 17.6365 23.049L13.713 17.8414C13.2042 17.1298 13.3738 16.1471 14.0522 15.6389C14.7646 15.1306 15.7483 15.3 16.2571 15.9777L20.1806 21.1852C20.6894 21.8968 20.5198 22.8795 19.8414 23.3878Z" fill="#2C99EF"/>
<path fill-rule="evenodd" clip-rule="evenodd" d="M23.9233 8.92941C24.1947 9.74267 23.7198 10.6576 22.9057 10.9287L17.3087 12.7246C16.4946 12.9957 15.5787 12.5213 15.3073 11.7081C15.036 10.8948 15.5109 9.97987 16.325 9.70879L21.8881 7.91282C22.77 7.64173 23.652 8.11614 23.9233 8.92941Z" fill="#2C99EF"/>
</svg>
