<svg width="24" height="24" viewBox="0 0 24 24" fill="none" xmlns="http://www.w3.org/2000/svg">
<path fill-rule="evenodd" clip-rule="evenodd" d="M0 12C0 5.4 5.34146 0 12 0C18.6585 0 24 5.4 24 12C24 18.6 18.6585 24 12 24C10.6829 24 9.43902 23.775 8.26829 23.4C9.14634 18.45 12.2195 14.4 16.3902 12.675C16.9024 13.275 17.6341 13.575 18.439 13.575C19.9024 13.575 21.0732 12.375 21.0732 10.875C21.0732 9.375 19.9024 8.175 18.439 8.175C16.9756 8.175 15.8049 9.375 15.8049 10.875C10.5366 12.45 6.29268 16.125 4.09756 20.85C3.43902 20.25 2.78049 19.575 2.26829 18.75C2.41463 14.175 4.68293 10.125 8.04878 7.725C8.56098 8.325 9.29268 8.625 10.0244 8.625C11.4878 8.625 12.6585 7.425 12.6585 5.925C12.6585 4.425 11.4878 3.225 10.0244 3.225C8.56098 3.225 7.39024 4.425 7.39024 5.925C7.39024 6 7.39024 6.075 7.39024 6.15C4.2439 7.275 1.60976 9.45 0.0731707 12.3C0 12.3 0 12.15 0 12Z" fill="#FEC330"/>
</svg>
