<svg width="24" height="24" viewBox="0 0 24 24" fill="none" xmlns="http://www.w3.org/2000/svg">
<circle cx="12" cy="12" r="11.5" stroke="#0082C5"/>
<g clip-path="url(#clip0)">
<path d="M15.6437 14.2613C15.1863 13.8097 14.6153 13.8097 14.1608 14.2613C13.8142 14.6051 13.4675 14.9488 13.1266 15.2984C13.0334 15.3945 12.9547 15.4149 12.8411 15.3508C12.6168 15.2285 12.3779 15.1294 12.1623 14.9954C11.1573 14.3633 10.3153 13.5504 9.56953 12.6357C9.19955 12.1812 8.87035 11.6947 8.6402 11.147C8.59359 11.0363 8.60233 10.9635 8.69264 10.8732C9.03932 10.5381 9.37726 10.1944 9.71811 9.8506C10.193 9.37282 10.193 8.81348 9.7152 8.33279C9.44426 8.05894 9.17333 7.79092 8.90239 7.51707C8.62272 7.2374 8.34596 6.95481 8.06337 6.67805C7.60599 6.23232 7.03499 6.23232 6.58052 6.68096C6.23093 7.02473 5.8959 7.37723 5.54048 7.71517C5.21128 8.02689 5.04523 8.40853 5.01027 8.85426C4.95492 9.57967 5.13263 10.2643 5.38317 10.9314C5.8959 12.3123 6.67666 13.5388 7.62347 14.6633C8.90239 16.184 10.4289 17.3872 12.2148 18.2554C13.0188 18.6458 13.852 18.9458 14.7581 18.9953C15.3815 19.0303 15.9234 18.873 16.3574 18.3865C16.6546 18.0544 16.9896 17.7514 17.3043 17.4338C17.7704 16.9619 17.7733 16.3909 17.3101 15.9248C16.7566 15.3683 16.2001 14.8148 15.6437 14.2613Z" fill="#0082C5"/>
<path d="M15.0874 11.9394L16.1624 11.7559C15.9935 10.7683 15.5273 9.87391 14.8194 9.16308C14.0707 8.41437 13.1239 7.94242 12.0809 7.79675L11.9294 8.87758C12.7364 8.99119 13.4706 9.35535 14.0503 9.93509C14.598 10.4828 14.9563 11.1761 15.0874 11.9394Z" fill="#0082C5"/>
<path d="M16.7667 7.26652C15.5256 6.02547 13.9554 5.2418 12.222 5L12.0705 6.08082C13.5679 6.29058 14.9255 6.96937 15.9976 8.03854C17.0143 9.05527 17.6815 10.34 17.9233 11.753L18.9983 11.5694C18.7157 9.93216 17.9437 8.4464 16.7667 7.26652Z" fill="#0082C5"/>
</g>
<defs>
<clipPath id="clip0">
<rect width="14" height="14" fill="white" transform="translate(5 5)"/>
</clipPath>
</defs>
</svg>
