<svg width="14" height="14" viewBox="0 0 14 14" fill="none" xmlns="http://www.w3.org/2000/svg">
<path d="M6.9974 12.8334C10.2191 12.8334 12.8307 10.2217 12.8307 7.00008C12.8307 3.77842 10.2191 1.16675 6.9974 1.16675C3.77573 1.16675 1.16406 3.77842 1.16406 7.00008C1.16406 10.2217 3.77573 12.8334 6.9974 12.8334Z" stroke="#7C7C7C" stroke-width="1.4" stroke-linecap="round" stroke-linejoin="round"/>
<path d="M6.9974 9.33342C8.28606 9.33342 9.33073 8.28875 9.33073 7.00008C9.33073 5.71142 8.28606 4.66675 6.9974 4.66675C5.70873 4.66675 4.66406 5.71142 4.66406 7.00008C4.66406 8.28875 5.70873 9.33342 6.9974 9.33342Z" stroke="#7C7C7C" stroke-width="1.4" stroke-linecap="round" stroke-linejoin="round"/>
<path d="M2.875 2.87598L5.34833 5.34931" stroke="#7C7C7C" stroke-width="1.4" stroke-linecap="round" stroke-linejoin="round"/>
<path d="M8.64844 8.65088L11.1218 11.1242" stroke="#7C7C7C" stroke-width="1.4" stroke-linecap="round" stroke-linejoin="round"/>
<path d="M8.64844 5.34931L11.1218 2.87598" stroke="#7C7C7C" stroke-width="1.4" stroke-linecap="round" stroke-linejoin="round"/>
<path d="M8.64844 5.34921L10.7076 3.29004" stroke="#7C7C7C" stroke-width="1.4" stroke-linecap="round" stroke-linejoin="round"/>
<path d="M2.875 11.1242L5.34833 8.65088" stroke="#7C7C7C" stroke-width="1.4" stroke-linecap="round" stroke-linejoin="round"/>
</svg>
