<svg width="24" height="24" viewBox="0 0 24 24" fill="none" xmlns="http://www.w3.org/2000/svg">
<path d="M6.78964 1.18275C9.97534 -0.367901 13.8247 -0.390053 17.0326 1.09414C14.5548 0.894773 12.077 1.7144 9.99746 3.06568C7.85154 4.43912 6.28081 6.67649 5.63924 9.13538C5.17466 10.9076 5.26315 12.8126 5.99321 14.4962C6.98874 16.8886 9.44439 18.6608 12.0549 18.683C13.5593 18.7051 15.0636 18.1956 16.214 17.2431C17.5856 16.1133 18.4706 14.3854 18.559 12.5911C18.6254 11.1512 18.2715 9.62273 17.3423 8.49296C16.3246 7.23029 14.7981 6.52142 13.2495 6.14484C13.0947 3.81886 14.8866 1.60364 17.1432 1.1606C19.7316 2.37897 21.8332 4.54988 22.9836 7.16384C24.0898 9.66703 24.311 12.569 23.5588 15.2272C22.8951 17.6418 21.435 19.8349 19.4661 21.3855C17.3865 23.0469 14.7318 23.9995 12.0549 23.9995C9.70986 24.0216 7.36483 23.3349 5.39589 22.0279C3.00661 20.433 1.19253 17.9962 0.440347 15.2272C-0.267588 12.724 -0.112727 9.97716 0.83856 7.56257C1.94471 4.79355 4.11276 2.46758 6.78964 1.18275Z" fill="#E30B17"/>
</svg>
