<svg width="56" height="56" viewBox="0 0 56 56" fill="none" xmlns="http://www.w3.org/2000/svg">
<rect width="56" height="56" rx="6" fill="#FF5C00"/>
<path d="M42.52 13.478H38.5595V10.8377C38.5595 10.1086 37.9684 9.51752 37.2393 9.51752C36.5102 9.51752 35.9191 10.1086 35.9191 10.8377V13.478H20.077V10.8377C20.077 10.1086 19.4859 9.51752 18.7569 9.51752C18.0278 9.51752 17.4367 10.1086 17.4367 10.8377V13.478H13.4761C11.2888 13.478 9.51562 15.2512 9.51562 17.4386V42.5219C9.51562 44.7092 11.2888 46.4824 13.4761 46.4824H42.52C44.7074 46.4824 46.4805 44.7092 46.4805 42.5219V17.4386C46.4805 15.2512 44.7074 13.478 42.52 13.478ZM43.8401 42.5219C43.8401 43.251 43.2491 43.8421 42.5199 43.8421H13.4761C12.747 43.8421 12.1559 43.251 12.1559 42.5219V25.3596H43.8401V42.5219ZM43.8401 22.7193H12.1559V17.4386C12.1559 16.7094 12.747 16.1184 13.4761 16.1184H17.4367V18.7587C17.4367 19.4878 18.0277 20.0789 18.7569 20.0789C19.486 20.0789 20.0771 19.4878 20.0771 18.7587V16.1184H35.9192V18.7587C35.9192 19.4878 36.5102 20.0789 37.2394 20.0789C37.9685 20.0789 38.5596 19.4878 38.5596 18.7587V16.1184H42.5201C43.2492 16.1184 43.8403 16.7094 43.8403 17.4386V22.7193H43.8401Z" fill="white"/>
<path d="M20.0777 28H17.4374C16.7082 28 16.1172 28.5911 16.1172 29.3202C16.1172 30.0493 16.7082 30.6404 17.4374 30.6404H20.0777C20.8068 30.6404 21.3979 30.0493 21.3979 29.3202C21.3979 28.5911 20.8068 28 20.0777 28Z" fill="white"/>
<path d="M29.3199 28H26.6796C25.9504 28 25.3594 28.5911 25.3594 29.3202C25.3594 30.0493 25.9504 30.6404 26.6796 30.6404H29.3199C30.049 30.6404 30.6401 30.0493 30.6401 29.3202C30.6401 28.5911 30.049 28 29.3199 28Z" fill="white"/>
<path d="M38.5621 28H35.9218C35.1926 28 34.6016 28.5911 34.6016 29.3202C34.6016 30.0493 35.1926 30.6404 35.9218 30.6404H38.5621C39.2912 30.6404 39.8823 30.0493 39.8823 29.3202C39.8822 28.5911 39.2911 28 38.5621 28Z" fill="white"/>
<path d="M20.0777 33.2838H17.4374C16.7082 33.2838 16.1172 33.8749 16.1172 34.604C16.1172 35.3332 16.7082 35.9242 17.4374 35.9242H20.0777C20.8068 35.9242 21.3979 35.3332 21.3979 34.604C21.3979 33.8749 20.8068 33.2838 20.0777 33.2838Z" fill="white"/>
<path d="M29.3199 33.2838H26.6796C25.9504 33.2838 25.3594 33.8749 25.3594 34.604C25.3594 35.3332 25.9504 35.9242 26.6796 35.9242H29.3199C30.049 35.9242 30.6401 35.3332 30.6401 34.604C30.6401 33.8749 30.049 33.2838 29.3199 33.2838Z" fill="white"/>
<path d="M38.5621 33.2838H35.9218C35.1926 33.2838 34.6016 33.8749 34.6016 34.604C34.6016 35.3332 35.1926 35.9242 35.9218 35.9242H38.5621C39.2912 35.9242 39.8823 35.3332 39.8823 34.604C39.8822 33.8749 39.2911 33.2838 38.5621 33.2838Z" fill="white"/>
<path d="M20.0777 38.5608H17.4374C16.7082 38.5608 16.1172 39.1519 16.1172 39.881C16.1172 40.6101 16.7082 41.2011 17.4374 41.2011H20.0777C20.8068 41.2011 21.3979 40.61 21.3979 39.8809C21.3979 39.1518 20.8068 38.5608 20.0777 38.5608Z" fill="white"/>
<path d="M29.3199 38.5608H26.6796C25.9504 38.5608 25.3594 39.1519 25.3594 39.881C25.3594 40.6101 25.9504 41.2012 26.6796 41.2012H29.3199C30.049 41.2012 30.6401 40.6101 30.6401 39.881C30.6401 39.1519 30.049 38.5608 29.3199 38.5608Z" fill="white"/>
<path d="M38.5621 38.5608H35.9218C35.1926 38.5608 34.6016 39.1519 34.6016 39.881C34.6016 40.6101 35.1926 41.2012 35.9218 41.2012H38.5621C39.2912 41.2012 39.8823 40.6101 39.8823 39.881C39.8823 39.1519 39.2911 38.5608 38.5621 38.5608Z" fill="white"/>
</svg>
