<svg width="20" height="20" viewBox="0 0 20 20" fill="none" xmlns="http://www.w3.org/2000/svg">
<path d="M19.9369 8.88981C19.9053 8.6087 19.5774 8.39723 19.2939 8.39723C18.3776 8.39723 17.5644 7.85942 17.2234 7.02701C16.8752 6.17462 17.0998 5.18073 17.7825 4.55444C17.9976 4.35784 18.0238 4.02865 17.8435 3.80013C17.3744 3.20454 16.8414 2.66647 16.2593 2.20019C16.0316 2.01752 15.6969 2.04295 15.4993 2.26169C14.9033 2.9218 13.8326 3.16709 13.0052 2.8219C12.1445 2.45975 11.6012 1.5873 11.6546 0.650844C11.6722 0.356508 11.457 0.100749 11.1637 0.0665843C10.4166 -0.0199085 9.66302 -0.0224168 8.91382 0.0607028C8.62424 0.0927052 8.40922 0.34241 8.41882 0.633026C8.45125 1.56032 7.90185 2.41737 7.04946 2.76654C6.23202 3.10049 5.16876 2.85702 4.57395 2.2027C4.37735 1.98716 4.04859 1.96069 3.8193 2.13947C3.22008 2.60973 2.67509 3.14815 2.20163 3.7389C2.01714 3.96854 2.04438 4.30136 2.26122 4.49865C2.9574 5.1291 3.18185 6.13155 2.82039 6.99388C2.47529 7.816 1.62169 8.34559 0.644581 8.34559C0.327498 8.33539 0.101838 8.54842 0.0668087 8.83679C-0.021068 9.5878 -0.0220194 10.3534 0.0625706 11.1106C0.0941405 11.3929 0.431722 11.6026 0.718359 11.6026C1.58934 11.5804 2.42504 12.1193 2.77611 12.9727C3.12546 13.8251 2.90057 14.8185 2.21676 15.4457C2.00286 15.6423 1.97553 15.9707 2.15613 16.199C2.62051 16.7908 3.154 17.3293 3.73782 17.7995C3.96703 17.9841 4.30037 17.9582 4.49905 17.7392C5.09741 17.0776 6.16793 16.8327 6.99194 17.1786C7.85514 17.5398 8.39815 18.4121 8.34513 19.3489C8.32774 19.6432 8.54345 19.8997 8.83571 19.9331C9.21801 19.9778 9.6023 20 9.9878 20C10.3537 20 10.7196 19.98 11.0856 19.9393C11.3755 19.9073 11.5902 19.6573 11.5804 19.3666C11.5469 18.4397 12.0975 17.5826 12.9489 17.2341C13.7718 16.898 14.8303 17.144 15.4254 17.7974C15.6231 18.0125 15.9498 18.0386 16.1801 17.8605C16.7783 17.3914 17.3222 16.8533 17.7978 16.261C17.9824 16.0318 17.9562 15.6985 17.7382 15.5009C17.0422 14.8709 16.8165 13.868 17.1779 13.0065C17.5177 12.1955 18.3395 11.6509 19.2235 11.6509L19.3472 11.6542C19.6342 11.6775 19.8979 11.4565 19.9326 11.1637C20.0209 10.412 20.0218 9.64722 19.9369 8.88981ZM9.99982 15.7651C6.81576 15.7651 4.23473 13.1841 4.23473 10.0001C4.23473 6.81614 6.81585 4.23511 9.99982 4.23511C13.1838 4.23511 15.7649 6.81614 15.7649 10.0001C15.7649 11.0808 15.4669 12.0917 14.9495 12.9561L12.4251 10.4316C12.6078 10.0007 12.7044 9.53357 12.7043 9.05146C12.7043 8.10739 12.3366 7.21989 11.669 6.55242C11.0015 5.88496 10.114 5.51736 9.17009 5.51736C8.85509 5.51736 8.54155 5.55923 8.23822 5.64183C8.10537 5.67807 7.99673 5.78757 7.96136 5.92068C7.9252 6.05682 7.96594 6.19633 8.07233 6.3028C8.07233 6.3028 9.3186 7.55868 9.73558 7.97558C9.77926 8.01926 9.77918 8.12348 9.77304 8.16102L9.76914 8.18844C9.72711 8.64685 9.64606 9.19711 9.57921 9.40859C9.57021 9.4175 9.56173 9.42502 9.55257 9.43419C9.54296 9.44379 9.53414 9.45305 9.52489 9.46256C9.31065 9.53132 8.7519 9.61332 8.28622 9.65501L8.28631 9.6525L8.26538 9.65778C8.26166 9.65821 8.25474 9.65873 8.24557 9.65873C8.19523 9.65873 8.12119 9.64463 8.0539 9.57742C7.61988 9.1434 6.42248 7.95456 6.42248 7.95456C6.31505 7.84748 6.20486 7.82499 6.13143 7.82499C5.96026 7.82499 5.80699 7.94868 5.75873 8.12607C5.42911 9.34588 5.77854 10.658 6.67088 11.5504C7.33852 12.218 8.22611 12.5856 9.17018 12.5856C9.65229 12.5856 10.1194 12.4891 10.5503 12.3064L13.1021 14.8582C12.2062 15.4314 11.1423 15.7651 9.99982 15.7651Z" fill="#0082C5"/>
</svg>
