<svg width="20" height="20" viewBox="0 0 20 20" fill="none" xmlns="http://www.w3.org/2000/svg">
<circle cx="10" cy="10" r="6" fill="#0082C5"/>
<circle cx="10" cy="10" r="9.5" stroke="#0082C5"/>
<path d="M8.08594 12.3413V11.4384L9.81026 10.0249C10.1507 9.7437 10.385 9.51922 10.5133 9.35147C10.6416 9.17879 10.7057 8.98885 10.7057 8.78163C10.7057 8.56948 10.6416 8.40421 10.5133 8.2858C10.385 8.16739 10.2173 8.10819 10.0101 8.10819C9.81766 8.10819 9.64251 8.16246 9.48464 8.271C9.33169 8.3746 9.15408 8.55222 8.9518 8.80384L8.15254 8.15999C8.42389 7.78996 8.70265 7.51861 8.9888 7.34593C9.27989 7.17325 9.64498 7.08691 10.0841 7.08691C10.6218 7.08691 11.0535 7.23492 11.3792 7.53095C11.7048 7.82203 11.8676 8.21179 11.8676 8.70023C11.8676 8.98145 11.8133 9.23553 11.7048 9.46248C11.5963 9.6845 11.4556 9.88184 11.283 10.0545C11.1103 10.2223 10.8513 10.4393 10.5059 10.7058L9.66225 11.357H11.9194V12.3413H8.08594Z" fill="white"/>
</svg>
