<svg width="20" height="20" viewBox="0 0 20 20" fill="none" xmlns="http://www.w3.org/2000/svg">
<path fill-rule="evenodd" clip-rule="evenodd" d="M10 0C6.12273 0 2.96875 3.15398 2.96875 7.03125C2.96875 8.34102 3.33152 9.61934 4.01762 10.7283L9.59949 19.7228C9.83094 20.0966 10.3766 20.0909 10.6009 19.7148L16.0402 10.6333C16.6879 9.54781 17.0312 8.30211 17.0312 7.03125C17.0312 3.15398 13.8773 0 10 0ZM10.0004 1.40039C6.9076 1.40039 4.40039 3.9076 4.40039 7.00039C4.40039 10.0932 6.9076 12.6004 10.0004 12.6004C13.0932 12.6004 15.6004 10.0932 15.6004 7.00039C15.6004 3.9076 13.0932 1.40039 10.0004 1.40039Z" fill="#C0C0C0"/>
<circle cx="10.0039" cy="6.99711" r="4.39848" fill="#C0C0C0"/>
</svg>
