<svg width="208" height="85" viewBox="0 0 208 85" fill="none" xmlns="http://www.w3.org/2000/svg">
<g clip-path="url(#clip0)">
<path d="M4.87705 56.4342C4.64481 57.8277 4.87705 60.8468 5.57377 62.4725C6.73497 65.2594 9.05738 66.6528 12.0765 66.6528C15.5601 66.6528 18.1148 65.4916 19.7404 64.3304L20.4372 68.5107C18.347 69.9042 14.8634 71.0654 10.9153 71.0654C3.25137 71.0654 0 65.2594 0 58.2921C0 48.538 6.50273 37.855 15.7923 37.855C21.3661 37.855 24.3852 41.5708 24.3852 45.9834C23.9208 54.3441 15.5601 56.6665 4.87705 56.4342ZM14.8634 42.0353C10.2186 42.0353 6.73497 47.1446 5.34153 52.2539C13.0055 52.2539 19.276 51.0927 19.276 46.2156C19.276 43.4288 17.418 42.0353 14.8634 42.0353ZM48.5382 55.7375C47.6093 61.3113 47.1448 66.885 47.377 70.6009H42.7322C42.7322 68.743 42.9645 65.7238 43.429 62.2402H43.1967C39.9454 68.743 35.9973 71.2976 32.0492 71.2976C26.9399 71.2976 23.6885 66.885 23.6885 60.6145C23.6885 49.467 31.1202 37.855 43.6612 37.855C46.4481 37.855 49.4672 38.3195 51.3251 39.0162L48.5382 55.7375ZM42.5 42.0353C35.0683 42.0353 29.0301 50.6282 28.7978 59.4533C28.7978 62.937 29.959 66.4206 33.6749 66.4206C37.8552 66.4206 42.7322 60.3823 44.1257 52.0216L45.7514 42.2676C45.2869 42.2676 44.1257 42.0353 42.5 42.0353ZM69.6721 43.4288C68.7432 42.732 66.8852 42.0353 64.5628 42.0353C61.5437 42.0353 59.4535 44.1255 59.4535 46.9124C59.4535 49.2348 60.847 50.6282 63.4016 52.2539C66.653 54.3441 68.7432 57.1309 68.7432 60.6145C68.7432 67.3495 63.8661 71.0654 57.5956 71.0654C54.5765 71.0654 51.7896 69.9042 50.3962 68.9752L51.7896 65.0271C53.1831 65.9561 55.7377 67.1173 58.0601 67.1173C61.3115 67.1173 63.6339 64.7949 63.6339 62.008C63.6339 59.4533 62.7049 58.0599 59.6858 56.202C56.4344 54.1118 54.5765 51.3249 54.5765 48.0736C54.5765 42.4998 58.9891 38.0872 65.0273 38.0872C67.582 38.0872 69.9044 38.7839 71.0656 39.7129L69.6721 43.4288ZM86.6257 62.7047C83.6065 69.6719 80.5874 75.2457 76.6393 79.426C73.388 83.1419 69.9044 84.5353 68.2787 84.9998L67.1175 80.355C68.2787 79.8905 70.3689 78.9615 72.459 77.3359C74.3169 75.7102 76.4071 73.1555 78.0328 69.9042C78.265 69.4397 78.265 68.9752 78.265 68.5107L72.459 38.5517H77.5683L80.3552 55.7375C81.0519 59.4533 81.2841 61.7757 81.7486 64.0982H81.9809C82.6776 62.008 83.6065 59.9178 85 56.202L92.4317 38.3195H97.3087L86.6257 62.7047Z" fill="#252525"/>
<path d="M136.558 70.8325C133.539 70.8325 131.448 70.1358 130.287 69.4391H130.055L127.733 83.1413H122.855L128.661 49.4664C129.358 45.5183 129.823 41.338 130.287 38.0866H134.7L133.771 44.1249H134.003C136.558 39.9445 140.506 37.3899 144.222 37.3899C150.492 37.3899 153.047 42.9637 153.047 49.0019C153.279 60.3817 146.08 70.8325 136.558 70.8325ZM142.596 42.0347C138.648 42.0347 133.771 46.9118 132.377 55.9691L130.984 64.7943C132.145 65.9555 134.235 66.6522 136.558 66.6522C142.828 66.6522 148.17 57.8271 148.17 49.4664C148.17 45.9828 146.776 42.0347 142.596 42.0347ZM178.593 55.5046C177.664 61.0784 177.2 66.6522 177.432 70.368H172.787C172.787 68.5101 173.019 65.491 173.484 62.0074H173.252C170 68.5101 166.284 71.0648 162.104 71.0648C156.995 71.0648 153.743 66.6522 153.743 60.3817C153.743 49.2342 161.175 37.6221 173.716 37.6221C176.503 37.6221 179.522 38.0866 181.38 38.7833L178.593 55.5046ZM172.555 41.8025C165.123 41.8025 159.085 50.3954 159.085 59.2205C159.085 62.7041 160.246 66.1877 163.962 66.1877C168.142 66.1877 173.019 60.1495 174.413 51.7888L176.039 42.0347C175.342 42.0347 174.181 41.8025 172.555 41.8025ZM197.172 62.4719C194.153 69.4391 191.134 75.0128 187.186 79.1932C183.935 82.909 180.451 84.3025 178.825 84.7669L177.664 80.1221C178.825 79.6577 180.916 78.7287 183.006 77.103C184.864 75.4773 186.954 72.9227 188.58 69.6713C188.812 69.2068 188.812 68.7424 188.812 68.2779L183.006 38.3189H188.115L190.902 55.5046C191.599 59.2205 191.831 61.5429 192.295 63.8653H192.528C193.224 61.7751 194.153 59.685 195.547 55.9691L202.746 38.0866H207.855L197.172 62.4719Z" fill="#252525"/>
<path d="M86.8567 75.71C86.8567 75.71 99.8622 54.3439 102.185 44.3575C104.507 34.3712 104.739 29.0296 95.6819 28.1007C86.3922 27.1717 75.9414 28.1007 75.9414 28.1007C75.9414 28.1007 90.5726 18.8111 109.849 19.5078C129.357 19.9723 140.504 28.1007 140.504 28.1007C140.504 28.1007 136.324 29.7264 129.589 30.1908C122.854 30.8876 120.299 32.281 120.764 39.945C121.228 47.6089 124.015 52.9504 124.015 52.9504C124.015 52.9504 113.1 45.751 106.365 52.9504C99.6299 60.1499 98.2365 63.4012 94.2884 68.0461C90.5726 72.6909 86.8567 75.71 86.8567 75.71Z" fill="#136BB5"/>
<path d="M108.224 16.7213C112.841 16.7213 116.585 12.9781 116.585 8.36066C116.585 3.74319 112.841 0 108.224 0C103.606 0 99.8633 3.74319 99.8633 8.36066C99.8633 12.9781 103.606 16.7213 108.224 16.7213Z" fill="#F8A81B"/>
</g>
<defs>
<clipPath id="clip0">
<rect width="207.855" height="85" fill="white"/>
</clipPath>
</defs>
</svg>
