<svg width="113" height="46" viewBox="0 0 113 46" fill="none" xmlns="http://www.w3.org/2000/svg">
<path d="M91.9486 12.9785C91.9486 8.01704 87.408 4 81.8057 4C80.2832 4 78.843 4.29296 77.5469 4.82719L88.7617 19.5098C90.8188 17.7744 91.9657 15.424 91.9486 12.9785Z" fill="#E14C9A"/>
<path d="M0 4V33.5043C0 37.9942 3.38247 41.6667 7.53333 41.6667V12.1624L7.52957 12.04C7.45988 7.58775 4.11697 4 0 4ZM28.5589 33.4892V33.4911H19.1347V26.9239H28.5589C30.2934 26.9239 31.7003 28.3929 31.7003 30.2066C31.7003 32.0202 30.2934 33.4892 28.5589 33.4892ZM32.576 19.4961L32.5911 19.4546C33.0387 18.1815 33.2667 16.8416 33.2653 15.4921C33.2653 9.19047 28.4101 4.0791 22.3966 4.00942C22.3627 4.00942 22.1329 4 22.0482 4H11.3038C11.3038 8.4748 14.7126 12.1511 19.0838 12.1793H22.2742C24.0106 12.1793 25.4175 13.6483 25.4175 15.462C25.4175 17.2756 24.0106 18.7465 22.2742 18.7465V18.7503H15.1929C13.0779 18.7616 11.364 20.5225 11.3057 22.7222L11.3038 22.7034V22.7561L11.3 22.8371L11.3038 22.9162V33.4836C11.3038 37.9734 14.7635 41.6158 19.048 41.6648H19.0537L19.1347 41.6667L19.2157 41.6648H28.9242C34.8247 41.4633 39.55 36.399 39.55 30.1859C39.55 25.3231 36.6572 21.1722 32.576 19.4961ZM61.2083 33.4855C55.6205 33.4855 51.0911 28.7169 51.0911 22.8371C51.0911 16.9555 55.6205 12.1869 61.2083 12.1869C66.7962 12.1869 71.3256 16.9555 71.3256 22.8371C71.3256 28.7169 66.7962 33.4855 61.2083 33.4855ZM61.2065 4C51.319 4 43.3167 12.4223 43.3167 22.8333C43.3167 33.2444 51.3171 41.6667 61.2065 41.6667C71.0977 41.6667 79.1 33.2444 79.1 22.8333C79.1 12.4223 71.0977 4 61.2065 4ZM113 4.74768C111.722 4.25427 110.364 4.0008 108.994 4C105.062 4 101.596 6.03777 99.5643 9.12832H99.5624L91.1722 22.1214C91.1722 22.1214 79.1 40.8625 79.1 40.9171C80.3487 41.3992 81.699 41.6648 83.1115 41.6648C87.0458 41.6648 90.5092 39.627 92.5414 36.5365H92.5432V36.5327L96.1253 31.056L99.7112 36.7549C101.753 39.725 105.143 41.6667 108.977 41.6667C110.393 41.6667 111.749 41.403 112.998 40.9171L101.423 22.9407C103.551 19.6072 113 4.8023 113 4.74768Z" fill="#3D3F40"/>
</svg>
