<svg width="210" height="35" viewBox="0 0 210 35" fill="none" xmlns="http://www.w3.org/2000/svg">
<path d="M0.14996 8.01814H5.83283V26.4323H0.14996V8.01814ZM6.02337 2.89938C6.02337 4.48048 4.82632 5.7612 2.95412 5.7612C1.16062 5.7612 -0.0364317 4.48048 0.000846601 2.89938C-0.0364317 1.24319 1.16062 0 2.9914 0C4.82219 0 5.98195 1.24319 6.02337 2.89938Z" fill="#E84F35"/>
<path d="M68.082 23.3701C68.082 21.3301 69.4696 19.8533 71.4621 19.8533C73.4542 19.8533 74.8044 21.2925 74.8044 23.3701C74.8044 25.3767 73.4501 26.8493 71.4248 26.8493C69.4696 26.8493 68.082 25.3767 68.082 23.3701Z" fill="#E84F35"/>
<path d="M15.9947 12.853C16.4834 12.9657 17.084 13.0074 17.9083 13.0074C20.9527 13.0074 22.829 11.4555 22.829 8.84812C22.829 6.5036 21.2136 5.10606 18.3598 5.10606C17.1958 5.10606 16.4088 5.2187 15.9947 5.33134V12.853ZM10.3242 1.28055C12.0887 0.976008 14.5698 0.750732 18.0615 0.750732C21.5905 0.750732 24.1089 1.43073 25.7989 2.7949C27.4143 4.07979 28.5036 6.19906 28.5036 8.69794C28.5036 11.1927 27.6752 13.3119 26.1758 14.7512C24.2207 16.6035 21.3337 17.4378 17.9497 17.4378C17.2 17.4378 16.5207 17.4003 15.9947 17.3252V26.4405H10.3242V1.28055Z" fill="#7B9AA9"/>
<path d="M41.0461 17.6964C38.0433 17.6588 35.7154 18.3764 35.7154 20.6083C35.7154 22.0809 36.693 22.8026 37.9687 22.8026C39.3936 22.8026 40.5616 21.8598 40.9345 20.6875C41.0092 20.3872 41.0461 20.0451 41.0461 19.703V17.6964ZM41.7212 26.4321L41.3817 24.5798H41.2701C40.0687 26.0566 38.1882 26.8493 36.0137 26.8493C32.2941 26.8493 30.0781 24.1292 30.0781 21.1756C30.0781 16.3739 34.361 14.0669 40.8558 14.1045V13.8417C40.8558 12.8571 40.3296 11.4596 37.5131 11.4596C35.6368 11.4596 33.6444 12.102 32.4432 12.8613L31.3912 9.15676C32.6669 8.43504 35.1853 7.52979 38.5279 7.52979C44.6497 7.52979 46.6009 11.1634 46.6009 15.5104V21.9432C46.6009 23.7204 46.6751 25.4225 46.8618 26.4446H41.7212V26.4321Z" fill="#7B9AA9"/>
<path d="M54.94 7.93872L57.6822 17.0165C57.9804 18.1137 58.3573 19.4737 58.5809 20.4582H58.6929C58.9538 19.4737 59.256 18.0761 59.5169 17.0165L61.7703 7.93872H67.8922L63.6135 20.1161C60.9832 27.4542 59.2187 30.4037 57.152 32.256C55.1639 33.9956 53.0595 34.6005 51.6305 34.7924L50.4296 29.9156C51.1417 29.803 52.0448 29.4609 52.9065 28.9311C53.7679 28.4763 54.708 27.5711 55.2715 26.6241C55.4577 26.3612 55.5697 26.0567 55.5697 25.7939C55.5697 25.6062 55.5324 25.3016 55.3044 24.8469L48.582 7.93872H54.94Z" fill="#7B9AA9"/>
<path d="M95.5759 20.4958C95.5759 22.9154 95.6505 24.8844 95.7248 26.4322H90.7669L90.506 23.8248H90.394C89.6815 24.9595 87.9544 26.8493 84.645 26.8493C80.9294 26.8493 78.1875 24.5048 78.1875 18.7937V7.93872H83.9325V17.8884C83.9325 20.575 84.7983 22.1978 86.7864 22.1978C88.3646 22.1978 89.2633 21.1007 89.6402 20.1954C89.7895 19.8533 89.8264 19.4027 89.8264 18.948V7.93872H95.5714V20.4958H95.5759Z" fill="#7B9AA9"/>
<path d="M109.917 17.6964C106.91 17.6588 104.582 18.3764 104.582 20.6083C104.582 22.0809 105.559 22.8026 106.835 22.8026C108.264 22.8026 109.428 21.8598 109.801 20.6875C109.875 20.3872 109.917 20.0451 109.917 19.703V17.6964ZM110.596 26.4321L110.256 24.5798H110.145C108.943 26.0566 107.067 26.8493 104.888 26.8493C101.169 26.8493 98.957 24.1292 98.957 21.1756C98.957 16.3739 103.236 14.0669 109.735 14.1045V13.8417C109.735 12.8571 109.208 11.4596 106.392 11.4596C104.516 11.4596 102.523 12.102 101.322 12.8613L100.27 9.15676C101.546 8.43504 104.064 7.52979 107.403 7.52979C113.524 7.52979 115.476 11.1634 115.476 15.5104V21.9432C115.476 23.7204 115.55 25.4225 115.736 26.4446H110.596V26.4321Z" fill="#7B9AA9"/>
</svg>
