<svg width="210" height="35" viewBox="0 0 210 35" fill="none" xmlns="http://www.w3.org/2000/svg">
<path d="M78.9896 5.22819C78.7568 4.54531 78.4517 3.9659 77.7947 3.94003H77.7534H77.2051H76.1498C76.1033 3.93486 76.0516 3.92969 75.9998 3.92969H75.4722C75.4205 3.92969 75.3688 3.93486 75.3222 3.94003C74.7739 4.02281 74.4998 4.57118 74.2929 5.21267L66.1719 27.908C66.1719 28.2081 66.415 28.4512 66.715 28.4512H68.4116C69.0841 28.4512 69.4306 27.8977 69.6324 27.2303L71.2514 22.5019C71.3652 22.176 71.6704 21.9587 72.0169 21.9587H81.0483C81.3897 21.9587 81.6949 22.176 81.8087 22.4967L83.4949 27.2769C83.7019 27.9442 84.0639 28.4978 84.7674 28.4978H86.5416C86.8571 28.4978 87.1106 28.2546 87.1106 27.9546L78.9896 5.22819ZM72.3635 19.2738L76.4602 7.33373L80.6759 19.2738H72.3635Z" fill="#76A62D"/>
<path d="M102.735 4.0018C102.518 3.91902 101.261 3.92937 101.261 3.92937C100.418 3.95006 99.8798 3.92937 99.5022 4.45187C99.4453 4.52947 99.404 4.61225 99.3626 4.69502L94.3296 15.5849L89.1467 4.70019C89.1053 4.61742 89.0639 4.53465 89.007 4.45705C88.6294 3.93454 88.0915 3.95006 87.2483 3.93454C87.2483 3.93454 85.9914 3.9242 85.7741 4.00697C85.2569 4.20355 85.5983 4.83987 85.8414 5.36238L92.1985 18.0474C92.4882 18.6268 92.6382 19.2631 92.6382 19.9098V27.5663C92.6382 28.0836 93.0572 28.5026 93.5744 28.5026H94.9038C95.421 28.5026 95.84 28.0836 95.84 27.5663V19.946C95.84 19.2993 95.99 18.663 96.2797 18.0836L102.663 5.35721C102.911 4.8347 103.252 4.19838 102.735 4.0018Z" fill="#76A62D"/>
<path d="M127.034 15.8489L111.775 3.06562C111.661 2.9725 111.495 2.97768 111.392 3.08632L109.137 5.435L121.598 15.8489L109.137 26.2628L111.392 28.6115C111.495 28.7201 111.661 28.7253 111.775 28.6322L127.034 15.8489Z" fill="#76A62D"/>
<path d="M137.999 15.9524L122.74 3.16914C122.626 3.07602 122.46 3.08119 122.357 3.18983L120.102 5.53852L132.562 15.9524L120.102 26.3663L122.357 28.715C122.46 28.8236 122.626 28.8288 122.74 28.7357L137.999 15.9524Z" fill="#76A62D"/>
<path d="M18.6796 3.91431H16.7554C16.352 3.91431 16.0312 4.24023 16.0312 4.63857V27.6857C16.0312 28.1047 16.3726 28.4514 16.7968 28.4514H18.6486C19.0676 28.4514 19.4141 28.1099 19.4141 27.6857V4.64374C19.409 4.24023 19.0831 3.91431 18.6796 3.91431Z" fill="#76A62D"/>
<path d="M11.7935 25.5281H3.20184V4.64345C3.20184 4.23994 2.87597 3.91919 2.47768 3.91919H0.724165C0.320702 3.91919 0 4.24511 0 4.64345V25.5333V27.4423C0 27.9182 0.382773 28.301 0.858653 28.301H3.20702H11.7987C12.2125 28.301 12.5436 27.97 12.5436 27.5561V26.2731C12.5384 25.8644 12.2022 25.5281 11.7935 25.5281Z" fill="#76A62D"/>
<path d="M63.6551 5.26938C62.5844 4.54512 61.105 4.03296 58.2756 4.03296H53.8116H52.7978C52.1461 4.03296 51.6133 4.56064 51.6133 5.21765V27.2353C51.6133 27.9078 52.1564 28.4562 52.834 28.4562H53.7754C54.4479 28.4562 54.9962 27.913 54.9962 27.2353V18.9632C56.01 18.9632 59.517 18.9632 59.9308 18.9632C60.4119 18.9632 66.588 17.9957 66.588 11.2704C66.5828 8.34233 65.0828 6.24197 63.6551 5.26938ZM58.8084 16.4282C58.4877 16.4282 55.3686 16.4282 55.3686 16.4282H54.991V6.56789H57.7118C59.5791 6.56789 60.5567 6.90415 61.2654 7.38527C62.212 8.02676 63.1999 9.41321 63.1999 11.348C63.2051 15.7919 59.1291 16.4282 58.8084 16.4282Z" fill="#76A62D"/>
<path d="M48.4809 28.9995C48.3465 28.9012 48.1964 28.8288 48.0361 28.7667C46.7636 28.2804 44.9067 26.9923 43.8721 26.3249C43.0704 25.8076 43.1945 25.3989 43.3032 25.2282C43.3239 25.2023 43.3497 25.1713 43.3704 25.1454C43.3756 25.1402 43.3756 25.1402 43.3756 25.1402C45.1343 22.983 46.1533 19.91 46.1533 16.03C46.1533 9.17021 43.2204 3.60889 35.2598 3.60889C27.9353 3.60889 24.418 9.17021 24.418 16.03C24.418 22.8898 26.7819 28.7616 35.2598 28.7616C36.9822 28.7616 38.5651 28.4305 39.9565 27.789H39.9617C40.3703 27.6131 40.7686 27.6183 41.3169 28.0166C45.2481 30.9292 47.1981 32.0001 48.5947 32.0001C49.2672 32.0001 49.1482 29.9307 49.1482 29.9307C49.1482 29.9307 49.0499 29.4082 48.4809 28.9995ZM27.894 16.0818C27.894 16.0662 27.894 16.0507 27.894 16.03C27.9043 11.374 29.6009 6.43352 35.2701 6.43352C41.6945 6.43352 42.6773 11.374 42.6824 16.03C42.6824 16.0455 42.6824 16.0611 42.6824 16.0818C42.6824 21.6224 40.8876 25.8335 35.2701 25.8335C28.8199 25.8335 27.894 20.7533 27.894 16.0818Z" fill="#76A62D"/>
</svg>
