<svg width="210" height="35" viewBox="0 0 210 35" fill="none" xmlns="http://www.w3.org/2000/svg">
<g clip-path="url(#clip0)">
<path d="M15.9309 33.008C24.7294 33.008 31.8619 25.8427 31.8619 17.004C31.8619 8.16523 24.7294 1 15.9309 1C7.13253 1 0 8.16523 0 17.004C0 25.8427 7.13253 33.008 15.9309 33.008Z" fill="#EB001B"/>
<path d="M35.1731 33.008C43.9715 33.008 51.1041 25.8427 51.1041 17.004C51.1041 8.16523 43.9715 1 35.1731 1C26.3747 1 19.2422 8.16523 19.2422 17.004C19.2422 25.8427 26.3747 33.008 35.1731 33.008Z" fill="#F79E1B"/>
<path d="M25.5478 4.2229C29.3837 7.14287 31.8535 11.7701 31.8535 16.9718C31.8535 22.1735 29.3837 26.8088 25.5478 29.7288C21.712 26.8088 19.2422 22.1815 19.2422 16.9718C19.2422 11.7622 21.72 7.14287 25.5478 4.2229Z" fill="#FF5F00"/>
<path d="M50.1095 27.6309V27.7665H49.8157V28.5324H49.6727V27.7665H49.3789V27.6309H50.1095ZM51.2293 27.6309V28.5324H51.0864V27.7904L50.8243 28.4446H50.6655L50.4034 27.7984V28.5324H50.2604V27.6309H50.4828L50.7449 28.2771L51.0069 27.6309H51.2293V27.6309Z" fill="#F79E1B"/>
<path d="M182.89 17.5385V17.6741H182.596V18.44H182.453V17.6741H182.159V17.5385H182.89ZM184.002 17.5385V18.44H183.859V17.698L183.597 18.3523H183.446L183.184 17.706V18.44H183.041V17.5385H183.263L183.525 18.1847L183.787 17.5385H184.002V17.5385ZM74.0495 7.41433C76.4876 7.41433 78.2109 9.0977 78.2109 11.5071V17.9693H75.9634V12.249C75.9634 10.5178 75.074 9.55245 73.5809 9.55245C72.1355 9.55245 70.9284 10.5098 70.9284 12.273V17.9773H68.6809V12.257C68.6809 10.5258 67.7915 9.56043 66.2984 9.56043C64.8531 9.56043 63.6459 10.5178 63.6459 12.2809V17.9853H61.3984V7.69356H63.6221V8.94612C64.448 7.73345 65.7187 7.42231 66.767 7.42231C68.3315 7.42231 69.6022 8.1164 70.309 9.25726C71.1984 7.77334 72.7788 7.41433 74.0495 7.41433ZM91.2511 7.67761V17.9693H89.0195V16.7327C88.3127 17.6422 87.2564 18.2326 85.8031 18.2326C82.9362 18.2326 80.6808 15.9668 80.6808 12.8235C80.6808 9.6801 82.9362 7.41433 85.8031 7.41433C87.2564 7.41433 88.3127 8.01268 89.0195 8.93016V7.67761H91.2511ZM86.0652 9.52852C84.1433 9.52852 82.9759 11.0204 82.9759 12.8235C82.9759 14.6265 84.1433 16.1184 86.0652 16.1184C87.9156 16.1184 89.1545 14.6983 89.1545 12.8235C89.1545 10.9486 87.9156 9.52852 86.0652 9.52852ZM102.496 8.50732L101.536 10.2545C100.916 9.87157 99.6454 9.37693 98.3747 9.37693C97.1597 9.37693 96.437 9.87157 96.437 10.5976C96.437 11.3156 97.1835 11.523 98.1286 11.6587L99.1848 11.8182C101.416 12.1373 102.743 13.0947 102.743 14.8579C102.743 16.8364 101.035 18.2166 98.0809 18.2166C97.0247 18.2166 95.1822 18.0092 93.6892 16.8923L94.7295 15.2089C95.4681 15.7753 96.437 16.262 98.1047 16.262C99.6295 16.262 100.432 15.7753 100.432 15.0094C100.432 14.427 99.8757 14.0441 98.6607 13.8686L97.5885 13.733C95.3252 13.4218 94.118 12.3687 94.118 10.7172C94.118 8.67486 95.7461 7.42231 98.3509 7.42231C99.9551 7.42231 101.44 7.82121 102.496 8.50732ZM112.161 7.67761V9.71999H108.238V14.1957C108.238 15.5839 108.969 16.1184 109.866 16.1184C110.557 16.1184 111.32 15.8072 111.931 15.4243L112.821 17.2194C111.995 17.7778 110.962 18.2406 109.676 18.2406C107.357 18.2406 105.999 16.988 105.999 14.2435V9.71999H103.958V7.67761H105.999V4.56616H108.246V7.67761H112.161ZM119.055 7.41433C121.922 7.41433 123.883 9.6083 123.899 12.8155C123.899 13.1027 123.875 13.3979 123.859 13.6532H116.291C116.593 15.5041 117.887 16.27 119.341 16.27C120.365 16.27 121.461 15.8631 122.303 15.185L123.415 16.7885C122.168 17.8656 120.754 18.2406 119.206 18.2406C116.14 18.2406 113.964 16.0945 113.964 12.8314C113.956 9.60032 116.045 7.41433 119.055 7.41433ZM119.015 9.40884C117.419 9.40884 116.537 10.438 116.299 11.9459H121.612C121.366 10.3423 120.437 9.40884 119.015 9.40884ZM131.658 7.41433C132.341 7.41433 132.865 7.50209 133.382 7.70154L132.849 9.92742C132.381 9.6801 131.698 9.55245 131.15 9.55245C129.728 9.55245 128.712 10.5657 128.712 12.3129V17.9693H126.48V7.67761H128.696V8.83442C129.363 7.8611 130.411 7.41433 131.658 7.41433ZM140.91 7.41433C143.777 7.41433 146.033 9.6801 146.033 12.8235C146.033 15.9668 143.777 18.2326 140.91 18.2326C139.457 18.2326 138.409 17.6422 137.702 16.7407V22.2615H135.47V7.67761H137.702V8.89825C138.409 8.00471 139.457 7.41433 140.91 7.41433ZM140.64 9.52852C138.79 9.52852 137.551 10.9486 137.551 12.8235C137.551 14.6983 138.79 16.1184 140.64 16.1184C142.562 16.1184 143.73 14.6265 143.73 12.8235C143.73 11.0204 142.562 9.52852 140.64 9.52852ZM158.437 7.67761V17.9693H156.206V16.7327C155.499 17.6422 154.443 18.2326 152.989 18.2326C150.123 18.2326 147.867 15.9668 147.867 12.8235C147.867 9.6801 150.123 7.41433 152.989 7.41433C154.443 7.41433 155.499 8.01268 156.206 8.93016V7.67761H158.437ZM153.252 9.52852C151.33 9.52852 150.162 11.0204 150.162 12.8235C150.162 14.6265 151.33 16.1184 153.252 16.1184C155.102 16.1184 156.341 14.6983 156.341 12.8235C156.341 10.9486 155.102 9.52852 153.252 9.52852ZM169.683 8.50732L168.722 10.2545C168.102 9.87157 166.832 9.37693 165.561 9.37693C164.346 9.37693 163.623 9.87157 163.623 10.5976C163.623 11.3156 164.37 11.523 165.315 11.6587L166.371 11.8182C168.603 12.1373 169.929 13.0947 169.929 14.8579C169.929 16.8364 168.222 18.2166 165.267 18.2166C164.211 18.2166 162.369 18.0092 160.876 16.8923L161.916 15.2089C162.654 15.7753 163.623 16.262 165.291 16.262C166.816 16.262 167.618 15.7753 167.618 15.0094C167.618 14.427 167.062 14.0441 165.847 13.8686L164.775 13.733C162.512 13.4218 161.304 12.3687 161.304 10.7172C161.304 8.67486 162.932 7.42231 165.537 7.42231C167.141 7.42231 168.627 7.82121 169.683 8.50732ZM180.301 8.50732L179.34 10.2545C178.72 9.87157 177.45 9.37693 176.179 9.37693C174.964 9.37693 174.241 9.87157 174.241 10.5976C174.241 11.3156 174.988 11.523 175.933 11.6587L176.989 11.8182C179.221 12.1373 180.547 13.0947 180.547 14.8579C180.547 16.8364 178.84 18.2166 175.885 18.2166C174.829 18.2166 172.987 18.0092 171.493 16.8923L172.534 15.2089C173.272 15.7753 174.241 16.262 175.909 16.262C177.434 16.262 178.236 15.7753 178.236 15.0094C178.236 14.427 177.68 14.0441 176.465 13.8686L175.393 13.733C173.129 13.4218 171.922 12.3687 171.922 10.7172C171.922 8.67486 173.55 7.42231 176.155 7.42231C177.759 7.42231 179.245 7.82121 180.301 8.50732ZM64.1065 23.53C65.4566 23.53 66.5129 24.5911 66.5129 26.075C66.5129 27.5589 65.4566 28.62 64.1065 28.62C63.4236 28.62 62.9312 28.3408 62.5976 27.9179V28.4924H61.5493V21.2244H62.5976V24.2321C62.9232 23.8092 63.4236 23.53 64.1065 23.53ZM63.9795 24.5273C63.1138 24.5273 62.5262 25.1974 62.5262 26.075C62.5262 26.9526 63.1059 27.6228 63.9795 27.6228C64.8848 27.6228 65.4328 26.9207 65.4328 26.075C65.4328 25.2293 64.8848 24.5273 63.9795 24.5273ZM72.1038 23.6577L68.2997 30.5427H67.1323L68.8556 27.5031L66.7273 23.6577H67.9026L69.4513 26.434L70.9443 23.6577H72.1038ZM81.054 23.53C82.1976 23.53 83.0077 24.3198 83.0077 25.4527V28.4924H81.9514V25.8038C81.9514 24.99 81.5305 24.5352 80.8317 24.5352C80.1566 24.5352 79.5848 24.982 79.5848 25.8117V28.4924H78.5286V25.8038C78.5286 24.99 78.1156 24.5352 77.4088 24.5352C76.7338 24.5352 76.162 24.982 76.162 25.8117V28.4924H75.1057V23.6577H76.154V24.248C76.5432 23.6736 77.1388 23.53 77.6312 23.53C78.3618 23.53 78.9654 23.8571 79.291 24.3916C79.7119 23.7055 80.4584 23.53 81.054 23.53ZM89.0354 23.6577V28.4924H87.9871V27.91C87.6535 28.3408 87.1611 28.62 86.4782 28.62C85.1281 28.62 84.0718 27.5589 84.0718 26.075C84.0718 24.5911 85.136 23.53 86.4782 23.53C87.1611 23.53 87.6615 23.8092 87.9871 24.2401V23.6577H89.0354ZM86.5973 24.5273C85.6919 24.5273 85.144 25.2293 85.144 26.075C85.144 26.9207 85.6919 27.6228 86.5973 27.6228C87.4629 27.6228 88.0506 26.9526 88.0506 26.075C88.0506 25.1894 87.4709 24.5273 86.5973 24.5273ZM94.2213 24.0486L93.7686 24.8703C93.4748 24.6868 92.8791 24.4555 92.2835 24.4555C91.7117 24.4555 91.3702 24.6868 91.3702 25.0299C91.3702 25.365 91.7197 25.4607 92.1644 25.5325L92.6647 25.6123C93.713 25.7639 94.3404 26.2106 94.3404 27.0404C94.3404 27.9658 93.5383 28.62 92.1485 28.62C91.6482 28.62 90.7905 28.5243 90.0837 27.9977L90.5681 27.2079C90.9175 27.4791 91.3702 27.7025 92.1564 27.7025C92.8712 27.7025 93.2524 27.4791 93.2524 27.1122C93.2524 26.8409 92.9903 26.6574 92.4185 26.5776L91.9182 26.5138C90.854 26.3702 90.2822 25.8756 90.2822 25.0937C90.2822 24.1363 91.0446 23.546 92.2756 23.546C93.0221 23.538 93.7209 23.7215 94.2213 24.0486ZM98.6607 23.6577V24.615H96.8182V26.7212C96.8182 27.3754 97.1597 27.6228 97.5806 27.6228C97.9062 27.6228 98.2636 27.4792 98.5495 27.2957L98.9624 28.1413C98.5733 28.4046 98.0889 28.62 97.4853 28.62C96.3973 28.62 95.754 28.0296 95.754 26.7452V24.615H94.7931V23.6577H95.754V22.1977H96.8102V23.6577H98.6607ZM101.798 23.53C103.148 23.53 104.069 24.5592 104.077 26.067C104.077 26.2027 104.069 26.3383 104.053 26.458H100.495C100.638 27.3276 101.242 27.6866 101.925 27.6866C102.409 27.6866 102.917 27.4951 103.314 27.176L103.839 27.9259C103.251 28.4285 102.584 28.6041 101.861 28.6041C100.416 28.6041 99.3992 27.5908 99.3992 26.0591C99.4072 24.5592 100.384 23.53 101.798 23.53ZM101.782 24.4714C101.035 24.4714 100.614 24.9581 100.503 25.6602H102.997C102.886 24.9102 102.449 24.4714 101.782 24.4714ZM107.619 23.53C107.936 23.53 108.183 23.5699 108.429 23.6656L108.175 24.7108C107.952 24.5911 107.635 24.5352 107.373 24.5352C106.706 24.5352 106.229 25.006 106.229 25.8357V28.4924H105.181V23.6577H106.221V24.2002C106.539 23.7454 107.031 23.53 107.619 23.53ZM111.296 23.53C112.011 23.53 112.67 23.7933 113.091 24.3039L112.416 25.0219C112.082 24.7028 111.725 24.5193 111.256 24.5193C110.446 24.5193 109.835 25.1575 109.835 26.067C109.835 26.9765 110.446 27.6148 111.256 27.6148C111.717 27.6148 112.13 27.3994 112.439 27.1122L113.091 27.8382C112.654 28.3488 112.011 28.612 111.296 28.612C109.763 28.612 108.762 27.519 108.762 26.067C108.762 24.623 109.763 23.53 111.296 23.53ZM118.594 23.6577V28.4924H117.546V27.91C117.212 28.3408 116.72 28.62 116.037 28.62C114.687 28.62 113.631 27.5589 113.631 26.075C113.631 24.5911 114.687 23.53 116.037 23.53C116.72 23.53 117.22 23.8092 117.546 24.2401V23.6577H118.594ZM116.164 24.5273C115.259 24.5273 114.711 25.2293 114.711 26.075C114.711 26.9207 115.259 27.6228 116.164 27.6228C117.03 27.6228 117.617 26.9526 117.617 26.075C117.609 25.1894 117.03 24.5273 116.164 24.5273ZM122.494 23.53C122.811 23.53 123.057 23.5699 123.304 23.6656L123.049 24.7108C122.827 24.5911 122.509 24.5352 122.247 24.5352C121.58 24.5352 121.104 25.006 121.104 25.8357V28.4924H120.055V23.6577H121.096V24.2002C121.406 23.7454 121.898 23.53 122.494 23.53ZM126.234 23.53C126.917 23.53 127.417 23.8092 127.743 24.2401V21.2244H128.791V28.4924H127.743V27.91C127.409 28.3408 126.917 28.62 126.234 28.62C124.884 28.62 123.828 27.5589 123.828 26.075C123.828 24.5911 124.892 23.53 126.234 23.53ZM126.361 24.5273C125.456 24.5273 124.908 25.2293 124.908 26.075C124.908 26.9207 125.456 27.6228 126.361 27.6228C127.227 27.6228 127.814 26.9526 127.814 26.075C127.814 25.1894 127.235 24.5273 126.361 24.5273Z" fill="black"/>
</g>
<defs>
<clipPath id="clip0">
<rect width="184" height="32" fill="white" transform="translate(0 1)"/>
</clipPath>
</defs>
</svg>
