<svg width="210" height="35" viewBox="0 0 210 35" fill="none" xmlns="http://www.w3.org/2000/svg">
<path fill-rule="evenodd" clip-rule="evenodd" d="M25.6642 28.5758V16.2401C25.6642 12.7408 23.7932 11.0795 20.6514 11.0795C18.0391 11.0795 15.7798 12.6348 14.7913 14.19C14.1559 12.2459 12.5673 11.0795 10.0609 11.0795C7.44862 11.0795 5.18933 12.7054 4.48329 13.7305V11.5037H0V28.5758H4.48329V17.0884C5.15402 16.134 6.46018 15.0736 8.01345 15.0736C9.84913 15.0736 10.5552 16.2047 10.5552 17.7953V28.5758H15.0738V17.053C15.7092 16.134 17.0153 15.0736 18.6039 15.0736C20.4396 15.0736 21.1456 16.2047 21.1456 17.7953V28.5758H25.6642ZM37.9845 29C32.3715 29 28.9826 24.8999 28.9826 20.0221C28.9826 15.1797 32.3715 11.0795 37.9845 11.0795C43.6327 11.0795 47.0216 15.1797 47.0216 20.0221C47.0216 24.8999 43.6327 29 37.9845 29ZM37.9845 25.0059C40.7733 25.0059 42.3618 22.7084 42.3618 20.0221C42.3618 17.3711 40.7733 15.0736 37.9845 15.0736C35.1956 15.0736 33.6424 17.3711 33.6424 20.0221C33.6424 22.7084 35.1956 25.0059 37.9845 25.0059ZM66.3316 28.5758V16.5228C66.3316 13.2003 64.5312 11.0795 60.7892 11.0795C58.0004 11.0795 55.9176 12.4227 54.8233 13.7305V11.5037H50.34V28.5758H54.8233V17.0884C55.5646 16.0633 56.9414 15.0736 58.7065 15.0736C60.6127 15.0736 61.8483 15.8866 61.8483 18.2548V28.5758H66.3316V28.5758ZM78.6871 29C73.0742 29 69.6852 24.8999 69.6852 20.0221C69.6852 15.1797 73.0742 11.0795 78.6871 11.0795C84.3354 11.0795 87.7243 15.1797 87.7243 20.0221C87.7243 24.8999 84.3354 29 78.6871 29ZM78.6871 25.0059C81.4759 25.0059 83.0645 22.7084 83.0645 20.0221C83.0645 17.3711 81.4759 15.0736 78.6871 15.0736C75.8983 15.0736 74.345 17.3711 74.345 20.0221C74.345 22.7084 75.8983 25.0059 78.6871 25.0059ZM95.526 23.0972C96.2673 24.1929 97.9265 25.0059 99.3738 25.0059C101.986 25.0059 103.716 23.0265 103.716 20.0574C103.716 17.0884 101.986 15.0736 99.3738 15.0736C97.9265 15.0736 96.2673 15.9219 95.526 17.053V23.0972ZM95.526 28.5758H91.0427V5H95.526V13.6951C96.8674 11.9632 98.7737 11.0795 100.786 11.0795C105.128 11.0795 108.34 14.4728 108.34 20.0574C108.34 25.7482 105.093 29 100.786 29C98.7384 29 96.8674 28.081 95.526 26.3844V28.5758ZM126.45 28.5758H121.967V26.8085C120.802 28.187 118.79 29 116.566 29C113.847 29 110.635 27.162 110.635 23.3446C110.635 19.3505 113.847 17.8306 116.566 17.8306C118.825 17.8306 120.837 18.5729 121.967 19.9161V17.6186C121.967 15.8866 120.484 14.7555 118.225 14.7555C116.389 14.7555 114.695 15.4271 113.247 16.7703L111.553 13.7658C113.636 11.9278 116.319 11.0795 119.001 11.0795C122.885 11.0795 126.45 12.6348 126.45 17.5479V28.5758ZM118.366 25.9602C119.813 25.9602 121.225 25.4654 121.967 24.4757V22.3549C121.225 21.3652 119.813 20.8704 118.366 20.8704C116.601 20.8704 115.154 21.7894 115.154 23.4507C115.154 25.0412 116.601 25.9602 118.366 25.9602V25.9602ZM146.89 28.5758V16.5228C146.89 13.2003 145.089 11.0795 141.347 11.0795C138.559 11.0795 136.476 12.4227 135.381 13.7305V11.5037H130.898V28.5758H135.381V17.0884C136.123 16.0633 137.499 15.0736 139.265 15.0736C141.171 15.0736 142.406 15.8866 142.406 18.2548V28.5758H146.89ZM168 28.5758L161.046 19.2445L167.788 11.5037H162.281L155.821 19.1031V5H151.338V28.5758H155.821V24.1929L157.868 22.0015L162.387 28.5758H168Z" fill="black"/>
</svg>
