<svg width="168" height="24" viewBox="0 0 168 24" fill="none" xmlns="http://www.w3.org/2000/svg">
<path fill-rule="evenodd" clip-rule="evenodd" d="M25.6642 23.5758V11.2401C25.6642 7.7408 23.7932 6.07953 20.6514 6.07953C18.0391 6.07953 15.7798 7.63476 14.7913 9.18999C14.1559 7.24595 12.5673 6.07953 10.0609 6.07953C7.44862 6.07953 5.18933 7.70545 4.48329 8.73049V6.50368H0V23.5758H4.48329V12.0884C5.15402 11.134 6.46018 10.0736 8.01345 10.0736C9.84913 10.0736 10.5552 11.2047 10.5552 12.7953V23.5758H15.0738V12.053C15.7092 11.134 17.0153 10.0736 18.6039 10.0736C20.4396 10.0736 21.1456 11.2047 21.1456 12.7953V23.5758H25.6642ZM37.9845 24C32.3715 24 28.9826 19.8999 28.9826 15.0221C28.9826 10.1797 32.3715 6.07953 37.9845 6.07953C43.6327 6.07953 47.0216 10.1797 47.0216 15.0221C47.0216 19.8999 43.6327 24 37.9845 24ZM37.9845 20.0059C40.7733 20.0059 42.3618 17.7084 42.3618 15.0221C42.3618 12.3711 40.7733 10.0736 37.9845 10.0736C35.1956 10.0736 33.6424 12.3711 33.6424 15.0221C33.6424 17.7084 35.1956 20.0059 37.9845 20.0059ZM66.3316 23.5758V11.5228C66.3316 8.20029 64.5312 6.07953 60.7892 6.07953C58.0004 6.07953 55.9176 7.42268 54.8233 8.73049V6.50368H50.34V23.5758H54.8233V12.0884C55.5646 11.0633 56.9414 10.0736 58.7065 10.0736C60.6127 10.0736 61.8483 10.8866 61.8483 13.2548V23.5758H66.3316ZM78.6871 24C73.0742 24 69.6852 19.8999 69.6852 15.0221C69.6852 10.1797 73.0742 6.07953 78.6871 6.07953C84.3354 6.07953 87.7243 10.1797 87.7243 15.0221C87.7243 19.8999 84.3354 24 78.6871 24ZM78.6871 20.0059C81.4759 20.0059 83.0645 17.7084 83.0645 15.0221C83.0645 12.3711 81.4759 10.0736 78.6871 10.0736C75.8983 10.0736 74.345 12.3711 74.345 15.0221C74.345 17.7084 75.8983 20.0059 78.6871 20.0059ZM95.526 18.0972C96.2673 19.1929 97.9265 20.0059 99.3738 20.0059C101.986 20.0059 103.716 18.0265 103.716 15.0574C103.716 12.0884 101.986 10.0736 99.3738 10.0736C97.9265 10.0736 96.2673 10.9219 95.526 12.053V18.0972ZM95.526 23.5758H91.0427V0H95.526V8.69514C96.8674 6.96318 98.7737 6.07953 100.786 6.07953C105.128 6.07953 108.34 9.47275 108.34 15.0574C108.34 20.7482 105.093 24 100.786 24C98.7384 24 96.8674 23.081 95.526 21.3844V23.5758ZM126.45 23.5758H121.967V21.8085C120.802 23.187 118.79 24 116.566 24C113.847 24 110.635 22.162 110.635 18.3446C110.635 14.3505 113.847 12.8306 116.566 12.8306C118.825 12.8306 120.837 13.5729 121.967 14.9161V12.6186C121.967 10.8866 120.484 9.75552 118.225 9.75552C116.389 9.75552 114.695 10.4271 113.247 11.7703L111.553 8.76583C113.636 6.92783 116.319 6.07953 119.001 6.07953C122.885 6.07953 126.45 7.63476 126.45 12.5479V23.5758ZM118.366 20.9602C119.813 20.9602 121.225 20.4654 121.967 19.4757V17.3549C121.225 16.3652 119.813 15.8704 118.366 15.8704C116.601 15.8704 115.154 16.7894 115.154 18.4507C115.154 20.0412 116.601 20.9602 118.366 20.9602ZM146.89 23.5758V11.5228C146.89 8.20029 145.089 6.07953 141.347 6.07953C138.559 6.07953 136.476 7.42268 135.381 8.73049V6.50368H130.898V23.5758H135.381V12.0884C136.123 11.0633 137.499 10.0736 139.265 10.0736C141.171 10.0736 142.406 10.8866 142.406 13.2548V23.5758H146.89ZM168 23.5758L161.046 14.2445L167.788 6.50368H162.281L155.821 14.1031V0H151.338V23.5758H155.821V19.1929L157.868 17.0015L162.387 23.5758H168Z" fill="black"/>
</svg>
