<svg width="210" height="35" viewBox="0 0 210 35" fill="none" xmlns="http://www.w3.org/2000/svg">
<g clip-path="url(#clip0)">
<path d="M0 7.52083H4.05204V9.86806C5.22262 8.15278 7.11357 7.06944 9.18461 7.15972C11.0756 7.15972 12.8765 7.97222 14.0471 9.41667C15.3977 10.8611 16.0281 12.9375 16.0281 15.5556C16.0281 18.2639 15.3977 20.3403 14.0471 21.875C12.7864 23.3194 11.0756 24.1319 9.18461 24.1319C8.37421 24.1319 7.47376 23.9514 6.75339 23.5903C5.85294 23.1389 5.04254 22.5069 4.41222 21.7847V29.9097H0V7.52083V7.52083ZM4.32217 15.2847C4.32217 17.0903 4.68235 18.4444 5.40271 19.3472C6.03303 20.1597 7.02353 20.7014 8.10407 20.6111C9.09457 20.6111 9.99503 20.1597 10.6253 19.4375C11.2557 18.625 11.6158 17.3611 11.6158 15.5556C11.6158 13.8403 11.2557 12.5764 10.5353 11.7639C9.90497 10.9514 9.00453 10.5 7.92398 10.5C6.93349 10.5 5.94299 10.9514 5.31267 11.6736C4.68235 12.4861 4.32217 13.75 4.32217 15.2847ZM17.7389 15.375C17.7389 13.9305 18.0991 12.4861 18.8195 11.2222C19.5398 9.95833 20.5303 8.87499 21.881 8.15277C23.2317 7.43055 24.7624 7.06944 26.2932 7.06944C28.5443 6.97916 30.7955 7.88194 32.4163 9.41667C34.0371 11.0417 34.8475 13.2083 34.8475 15.4653C34.9376 20.0694 31.4258 23.8611 26.8335 23.9514C26.6534 23.9514 26.4733 23.9514 26.3833 23.9514C24.8525 23.9514 23.4118 23.5903 22.0611 22.9583C20.7104 22.3264 19.6299 21.3333 18.9095 19.9792C18.009 18.625 17.6489 17 17.7389 15.375ZM22.2412 15.5556C22.2412 17.1806 22.6014 18.3542 23.4118 19.2569C24.8525 20.8819 27.2837 20.9722 28.8145 19.5278C28.9045 19.4375 28.9946 19.3472 29.0846 19.2569C29.895 18.4444 30.2552 17.1806 30.2552 15.5556C30.2552 13.9306 29.895 12.7569 29.0846 11.8542C27.6439 10.2292 25.2127 10.1389 23.6819 11.5833C23.5919 11.6736 23.5018 11.7639 23.4118 11.8542C22.6014 12.7569 22.2412 13.9306 22.2412 15.5556ZM56.8186 7.52083V10.9514H53.8471V17.4514C53.8471 18.2639 53.8471 18.9861 53.9371 19.7986C54.0271 19.9792 54.1172 20.25 54.2973 20.3403C54.4774 20.5208 54.7475 20.5208 55.0177 20.5208C55.648 20.5208 56.1882 20.3403 56.7285 20.0694L57.0887 23.4097C56.0081 23.8611 54.8376 24.0417 53.667 24.0417C52.9466 24.0417 52.2262 23.9514 51.5059 23.6806C50.9656 23.5 50.5154 23.1389 50.1552 22.6875C49.795 22.1458 49.6149 21.6042 49.5249 21.0625C49.4348 20.0694 49.3448 19.0764 49.3448 18.0833V11.0417H47.3638V7.61111H49.3448V5.44444L53.757 4V7.70138H56.8186V7.52083ZM59.1597 7.52083H63.2118V9.77777C64.6525 8.06249 66.3633 7.15972 68.3443 7.15972C69.3348 7.15972 70.2353 7.34028 71.1357 7.79166C71.9462 8.24305 72.5765 8.875 73.0267 9.6875C73.657 8.875 74.4674 8.24305 75.3679 7.79166C76.1783 7.34028 77.1688 7.15972 78.0692 7.15972C79.1498 7.15972 80.2303 7.34028 81.1308 7.88195C81.9412 8.33334 82.6615 9.14583 83.0217 10.0486C83.2919 10.7708 83.4719 11.8542 83.4719 13.3889V23.7708H79.0597V14.4722C79.0597 12.8472 78.8796 11.8542 78.6095 11.4028C78.1593 10.7708 77.4389 10.4097 76.7185 10.5C75.3679 10.5 74.1973 11.4028 73.8371 12.6667C73.567 13.75 73.3869 14.9236 73.4769 16.0069V23.7708H69.0647V14.9236C69.0647 13.3889 68.9747 12.3056 68.7946 11.8542C68.7045 11.4028 68.4344 11.0417 68.0742 10.8611C67.714 10.5903 67.1738 10.5 66.7235 10.5C66.0932 10.5 65.4629 10.6806 64.9226 11.0417C64.3824 11.4028 63.9321 11.9444 63.752 12.5764C63.4819 13.6597 63.3919 14.8333 63.3919 15.9167V23.7708H58.9796L59.1597 7.52083ZM85.0928 15.375C85.0928 13.9305 85.4529 12.4861 86.1733 11.2222C86.8937 9.95833 87.8842 8.87499 89.2348 8.15277C90.5855 7.43055 92.1163 7.06944 93.6471 7.06944C96.1683 7.06944 98.1493 7.88194 99.7701 9.41667C101.391 11.0417 102.201 13.2083 102.201 15.4653C102.291 20.0694 98.7796 23.8611 94.1873 23.9514C94.0072 23.9514 93.8272 23.9514 93.7371 23.9514C92.2063 23.9514 90.7656 23.5903 89.4149 22.9583C88.0643 22.3264 86.9837 21.3333 86.2634 19.9792C85.4529 18.625 85.0928 17 85.0928 15.375ZM89.595 15.5556C89.595 17.1806 89.9552 18.3542 90.7656 19.2569C92.2063 20.8819 94.6376 20.9722 96.1683 19.5278C96.2584 19.4375 96.3484 19.3472 96.4385 19.2569C97.2489 18.4444 97.609 17.1806 97.609 15.5556C97.609 13.9306 97.2489 12.7569 96.4385 11.8542C94.9977 10.2292 92.5665 10.1389 91.0358 11.5833C90.9457 11.6736 90.8557 11.7639 90.7656 11.8542C89.9552 12.7569 89.595 13.9306 89.595 15.5556ZM118.86 23.6806H114.538V15.375C114.538 13.6597 114.448 12.4861 114.267 11.9444C114.087 11.4931 113.817 11.0417 113.367 10.7708C112.917 10.5 112.376 10.3194 111.836 10.3194C111.116 10.3194 110.395 10.5 109.765 10.9514C109.225 11.3125 108.775 11.9444 108.505 12.5764C108.324 13.2083 108.144 14.4722 108.144 16.2778V23.5903H103.732V7.43056H107.784V9.77777C109.045 8.06249 111.116 6.97916 113.187 7.06944C114.087 7.06944 114.988 7.25 115.798 7.61111C116.519 7.88194 117.149 8.33333 117.599 8.87499C118.049 9.41666 118.319 10.0486 118.41 10.6806C118.59 11.6736 118.68 12.5764 118.68 13.5694L118.86 23.6806ZM131.826 18.5347L136.148 19.2569C135.698 20.7014 134.708 21.9653 133.537 22.8681C132.186 23.7708 130.566 24.1319 129.035 24.1319C126.153 24.1319 124.082 23.2292 122.642 21.3333C121.561 19.8889 121.021 17.9931 121.021 15.7361C121.021 13.0278 121.741 10.9514 123.182 9.41667C124.533 7.88194 126.514 7.06944 128.585 7.15972C131.016 7.15972 132.997 7.97221 134.348 9.50694C135.788 11.1319 136.419 13.5694 136.419 16.8194H125.523C125.523 17.9028 125.883 18.9861 126.604 19.7986C127.234 20.5208 128.134 20.8819 129.125 20.8819C129.755 20.8819 130.386 20.7014 130.836 20.3403C131.286 19.7986 131.646 19.1667 131.826 18.5347ZM132.096 14.2014C132.096 12.9375 131.736 12.0347 131.106 11.4028C129.845 10.1389 127.864 10.1389 126.604 11.3125L126.514 11.4028C125.883 12.2153 125.523 13.2083 125.613 14.2014H132.096ZM44.4823 11.3125C42.5014 11.3125 40.9706 12.5764 40.9706 15.375V23.7708H36.5584V7.61111H40.3403V10.4097H40.4303C41.2407 8.33333 42.9516 7.24999 44.4823 7.24999C44.8425 7.24999 45.1127 7.25 45.4729 7.34028V11.4028C45.2027 11.3125 44.8425 11.2222 44.4823 11.3125Z" fill="#FF0000"/>
<path d="M139.031 23.5001V20.4306H142.183V23.5904H139.031V23.5001ZM155.6 17.632L158.391 17.9931C158.211 19.7084 157.4 21.2431 156.05 22.3265C154.789 23.4098 153.168 23.9515 151.548 23.8612C149.296 23.8612 147.495 23.139 146.145 21.6945C144.794 20.2501 144.074 18.1737 144.074 15.4654C144.074 13.9306 144.344 12.3056 144.974 10.8612C145.515 9.5973 146.415 8.60425 147.676 7.88203C148.846 7.25009 150.197 6.88897 151.638 6.88897C153.168 6.79869 154.789 7.25008 156.05 8.24314C157.22 9.14591 158.031 10.5001 158.211 12.0348L155.51 12.3959C155.329 11.4931 154.879 10.5904 154.159 9.95841C153.529 9.41674 152.628 9.14591 151.818 9.14591C150.557 9.05564 149.296 9.68759 148.396 10.5904C147.495 11.5834 147.045 13.1181 147.045 15.2848C147.045 17.4515 147.496 19.0765 148.306 19.9792C149.116 20.9723 150.377 21.514 151.638 21.4237C152.628 21.4237 153.619 21.0626 154.339 20.4306C154.969 19.9792 155.419 18.9862 155.6 17.632ZM159.652 15.4654C159.652 12.4862 160.462 10.2293 162.173 8.78481C163.614 7.6112 165.505 6.97925 167.305 6.97925C169.376 6.88898 171.357 7.70147 172.888 9.14591C174.329 10.5904 175.049 12.5765 175.049 15.1945C175.049 17.2709 174.689 18.8959 174.059 20.0695C173.429 21.2431 172.438 22.2362 171.267 22.8681C170.007 23.5001 168.656 23.8612 167.305 23.8612C164.964 23.8612 163.163 23.139 161.723 21.6945C160.372 20.2501 159.652 18.1737 159.652 15.4654ZM162.533 15.4654C162.533 17.5417 162.983 19.0765 163.884 20.1598C165.595 22.0556 168.566 22.2362 170.457 20.5209C170.547 20.4306 170.727 20.2501 170.817 20.1598C171.718 19.0765 172.168 17.5417 172.168 15.4654C172.168 13.4792 171.718 11.9445 170.817 10.9515C169.106 9.05564 166.135 8.87509 164.244 10.5904C164.154 10.6806 163.974 10.7709 163.884 10.9515C162.983 11.8542 162.533 13.389 162.533 15.4654ZM176.67 23.5001V7.34036H179.191V9.5973C179.732 8.7848 180.452 8.15285 181.262 7.70146C182.163 7.25008 183.153 6.97925 184.144 6.97925C185.224 6.97925 186.215 7.1598 187.115 7.70146C187.926 8.15285 188.466 8.96536 188.736 9.77786C190.087 7.88202 191.708 6.97925 193.869 6.97925C195.49 6.97925 196.75 7.43064 197.651 8.33342C198.551 9.2362 199.001 10.5904 199.001 12.3959V23.5001H196.21V13.2987C196.21 12.4862 196.12 11.6737 195.94 10.9515C195.76 10.5001 195.4 10.0487 194.949 9.77786C194.409 9.50702 193.869 9.32647 193.238 9.32647C192.158 9.32647 191.077 9.68758 190.357 10.5001C189.637 11.2223 189.186 12.4862 189.186 14.1112V23.5001H186.395V13.0279C186.395 11.764 186.125 10.8612 185.675 10.3195C185.224 9.68758 184.504 9.41675 183.424 9.41675C182.613 9.41675 181.893 9.5973 181.262 10.0487C180.632 10.5001 180.092 11.0417 179.822 11.8542C179.462 12.9376 179.281 14.1112 179.372 15.1945V23.5904L176.67 23.5001Z" fill="#A7A9AB"/>
</g>
<defs>
<clipPath id="clip0">
<rect width="199" height="26" fill="white" transform="translate(0 4)"/>
</clipPath>
</defs>
</svg>
