<svg width="277" height="85" viewBox="0 0 277 85" fill="none" xmlns="http://www.w3.org/2000/svg">
<path d="M44.1646 1.03589C67.1678 1.03589 85.8213 19.6031 85.8213 42.5C85.8213 65.3968 67.1678 83.964 44.1646 83.964C21.1613 83.964 2.50781 65.3968 2.50781 42.5C2.50781 19.6031 21.1613 1.03589 44.1646 1.03589Z" fill="url(#paint0_linear)"/>
<path d="M44.1658 0.77002C21.0291 0.77002 2.24219 19.4435 2.24219 42.4997C2.24219 65.556 21.0024 84.2294 44.1658 84.2294C67.3292 84.2294 86.0894 65.556 86.0894 42.4997C86.0894 19.4435 67.3292 0.77002 44.1658 0.77002ZM44.1658 79.6341C23.5642 79.6341 6.85885 63.006 6.85885 42.4997C6.85885 21.9935 23.5642 5.36533 44.1658 5.36533C64.7673 5.36533 81.4727 21.9935 81.4727 42.4997C81.4727 63.006 64.7673 79.6341 44.1658 79.6341Z" fill="#8DC641"/>
<path d="M58.8161 33.0173L49.4761 46.8033H58.8161V33.0173ZM62.3387 27.4392V46.8298H66.4483V50.3361H62.3387V57.5876H58.7895V50.3361H45.5799V46.5642L58.8962 27.4658L62.3387 27.4392ZM41.6838 54.0548V57.5611H21.8828V57.4548C22.0696 54.1611 22.9236 51.7439 24.5781 49.7517C25.9124 48.1048 27.5402 46.883 30.876 44.8111C30.876 44.8111 32.0502 44.0673 32.3971 43.8548C34.185 42.7126 35.3325 41.8095 36.2665 40.7736C37.414 39.4455 38.0011 38.0111 38.0011 36.3111C38.0011 33.0173 35.6528 30.7595 32.2903 30.7595C28.3675 30.7595 26.3661 33.7345 26.2593 38.1705V38.2501H22.7368V38.1705L22.7101 37.3736C22.7101 31.4236 26.6062 27.4392 32.4771 27.4392C38.2146 27.4392 41.9506 30.8923 41.9506 36.2314C41.9506 38.9673 40.9633 41.172 39.0686 43.1111C37.6542 44.5986 36.1865 45.5814 32.9041 47.5736C32.8507 47.6001 32.824 47.6267 32.7707 47.6533C32.6106 47.733 31.89 48.158 31.7032 48.2908C30.1288 49.2205 29.1681 49.8845 28.3141 50.6814C27.2734 51.6642 26.5795 52.7533 26.2593 54.0283H41.6838V54.0548Z" fill="white"/>
<path d="M107.758 25.6858H121.715C125.184 25.6858 127.906 26.5092 129.907 28.1295C131.909 29.7764 132.923 32.1936 132.923 35.4342C132.923 38.4889 131.989 40.9061 130.121 42.6858C128.253 44.4655 125.717 45.3686 122.488 45.3686H113.415V57.6936H107.758V25.6858ZM113.415 30.3874V40.8795H121.288C125.397 40.8795 127.425 39.1264 127.425 35.6202C127.425 32.1405 125.21 30.4139 120.781 30.4139L113.415 30.3874Z" fill="black"/>
<path d="M149.679 34.053V38.9671C148.772 38.8874 148.185 38.8343 147.865 38.8343C143.382 38.8343 141.14 41.7296 141.14 47.5202V57.7202H136.043V34.5046H140.873V39.1265C142.528 35.6733 145.143 33.9468 148.692 33.9468L149.679 34.053Z" fill="black"/>
<path d="M158.088 25.5535V30.6003H152.938V25.5535H158.088ZM158.088 34.505V57.7207H152.938V34.505H158.088Z" fill="black"/>
<path d="M161.742 34.5045H167.346L173.324 52.3545L179.061 34.5045H184.399L176.046 57.7733H170.255L161.742 34.5045Z" fill="black"/>
<path d="M186.159 41.677C186.692 36.4176 190.108 33.8145 196.379 33.8145C199.288 33.8145 201.636 34.3723 203.371 35.5145C205.106 36.6566 205.96 38.4363 205.96 40.827V52.5941C205.96 53.2582 206.04 53.7098 206.2 53.9488C206.36 54.1879 206.68 54.3207 207.16 54.3207C207.534 54.3207 207.908 54.2941 208.335 54.241V57.8535C207 58.1723 205.906 58.3582 204.999 58.3582C202.811 58.3582 201.53 57.4285 201.209 55.5691C199.261 57.4285 196.513 58.3582 193.017 58.3582C190.615 58.3582 188.694 57.7473 187.279 56.4988C185.865 55.2504 185.145 53.577 185.145 51.4254C185.145 50.7613 185.225 50.1504 185.358 49.5926C185.518 49.0348 185.678 48.5301 185.892 48.1051C186.079 47.6801 186.399 47.3082 186.852 46.9363C187.279 46.5645 187.653 46.2723 187.947 46.0332C188.24 45.7941 188.694 45.5816 189.361 45.3691C190.001 45.1566 190.482 44.9973 190.802 44.891C191.122 44.7848 191.656 44.6785 192.456 44.5457C193.23 44.4395 193.764 44.3332 194.004 44.3066C194.271 44.2535 194.805 44.2004 195.605 44.0941C197.447 43.8551 198.701 43.6426 199.368 43.4832C200.035 43.3238 200.489 43.0582 200.729 42.7395C200.943 42.5004 201.049 41.9426 201.049 41.066C201.049 38.7285 199.448 37.5598 196.246 37.5598C194.565 37.5598 193.337 37.8785 192.537 38.516C191.763 39.1535 191.256 40.216 191.042 41.7035H186.159V41.677ZM200.969 46.0863C200.569 46.2988 200.115 46.4848 199.608 46.6441C199.101 46.8035 198.674 46.9098 198.354 46.9629C198.034 47.016 197.554 47.0691 196.86 47.1754C196.193 47.2551 195.739 47.3348 195.525 47.3613C194.885 47.441 194.405 47.5473 194.031 47.6004C193.657 47.6801 193.23 47.8129 192.697 47.9723C192.163 48.1582 191.763 48.3707 191.469 48.6363C191.176 48.902 190.935 49.2473 190.722 49.6723C190.508 50.0973 190.402 50.6285 190.402 51.2129C190.402 52.3285 190.775 53.1785 191.496 53.7629C192.243 54.3738 193.257 54.666 194.591 54.666C196.886 54.666 198.648 54.0551 199.875 52.8332C200.569 52.1426 200.916 50.8145 200.916 48.8223V46.0863H200.969Z" fill="black"/>
<path d="M223.122 34.5047V38.25H218.425V50.4688C218.425 51.186 218.452 51.6907 218.479 51.9829C218.505 52.275 218.586 52.5938 218.746 52.9391C218.906 53.2844 219.173 53.5235 219.546 53.6297C219.92 53.7625 220.454 53.8157 221.094 53.8157C221.948 53.8157 222.615 53.7891 223.122 53.736V57.7735C222.108 57.8797 220.934 57.9594 219.653 57.9594C218.746 57.9594 217.945 57.8797 217.278 57.7469C216.611 57.6141 216.024 57.4547 215.57 57.2688C215.116 57.0829 214.743 56.7907 214.449 56.3391C214.156 55.9141 213.916 55.5422 213.755 55.25C213.595 54.9579 213.462 54.4532 213.382 53.736C213.302 53.0188 213.275 52.461 213.275 52.0891C213.275 51.7172 213.275 51.0532 213.275 50.1235C213.275 50.0172 213.275 49.911 213.275 49.8313C213.275 49.7516 213.275 49.6719 213.275 49.5657C213.275 49.4594 213.275 49.3532 213.275 49.2735V38.25H209.379V34.5047H213.275V27.5188H218.425V34.5047H223.122Z" fill="black"/>
<path d="M250.206 53.1781V57.7203H228.617C228.644 56.3125 228.831 55.0109 229.204 53.8422C229.578 52.6734 229.978 51.6641 230.459 50.8406C230.912 50.0172 231.606 49.1672 232.54 48.3172C233.447 47.4672 234.275 46.75 235.022 46.1922C235.769 45.6344 236.783 44.9172 238.064 44.0672C238.144 44.0141 238.598 43.7219 239.398 43.1906C240.199 42.6594 240.679 42.3406 240.866 42.2078C241.053 42.075 241.453 41.7563 242.094 41.2516C242.734 40.7469 243.134 40.3484 243.348 40.0563C243.535 39.7641 243.801 39.3391 244.148 38.8344C244.495 38.3297 244.735 37.7984 244.842 37.2938C244.949 36.7625 245.029 36.2047 245.029 35.6203C245.029 33.9734 244.575 32.6719 243.641 31.7422C242.734 30.7859 241.48 30.3344 239.905 30.3344C238.998 30.3344 238.224 30.4672 237.557 30.7594C236.89 31.0516 236.383 31.4234 236.009 31.8484C235.636 32.3 235.315 32.8844 235.075 33.575C234.835 34.2922 234.675 34.9563 234.595 35.5672C234.515 36.2047 234.461 36.9219 234.435 37.7719H229.418V36.975C229.418 33.575 230.378 30.8922 232.3 28.9C234.221 26.9078 236.81 25.8984 240.039 25.8984C243.108 25.8984 245.589 26.7484 247.457 28.475C249.325 30.2016 250.259 32.4859 250.259 35.3281C250.259 36.4703 250.073 37.5594 249.726 38.5688C249.352 39.5781 248.979 40.4016 248.578 41.0391C248.178 41.6766 247.457 42.3938 246.47 43.2438C245.483 44.0938 244.735 44.6781 244.255 44.9969C243.775 45.3156 242.894 45.9266 241.587 46.8031C237.824 49.2203 235.556 51.3453 234.808 53.1516H250.206V53.1781Z" fill="black"/>
<path d="M274.759 45.9265V50.2561H270.729V57.7202H265.765L265.712 50.2561H252.289V45.1827L265.846 25.978H270.729V45.953L274.759 45.9265ZM265.792 45.9265V32.2999L256.532 45.9265H265.792Z" fill="black"/>
<defs>
<linearGradient id="paint0_linear" x1="2.50781" y1="42.5" x2="85.8213" y2="42.5" gradientUnits="userSpaceOnUse">
<stop stop-color="#333333"/>
<stop offset="1"/>
</linearGradient>
</defs>
</svg>
