<svg width="60" height="60" viewBox="0 0 60 60" fill="none" xmlns="http://www.w3.org/2000/svg">
<g clip-path="url(#clip0)">
<path d="M17.7105 57.9302H13.487V45.9394C13.487 43.6089 14.6782 41.4945 16.6737 40.283C17.1624 39.9863 17.3179 39.3497 17.0213 38.8611C16.7247 38.3726 16.0881 38.217 15.5994 38.5136C12.9805 40.1035 11.417 42.8796 11.417 45.9394V58.9652C11.417 59.5369 11.8804 60.0002 12.452 60.0002H17.7105C18.2821 60.0002 18.7455 59.5369 18.7455 58.9652C18.7455 58.3936 18.2821 57.9302 17.7105 57.9302Z" fill="#0082C5"/>
<path d="M38.6083 57.9298H28.5286V49.3478L35.9467 42.0621C36.3545 41.6615 36.3604 41.0063 35.96 40.5984C35.5595 40.1906 34.9042 40.1848 34.4963 40.5852L27.4935 47.463L20.4907 40.5851C20.0828 40.1847 19.4275 40.1905 19.027 40.5983C18.6266 41.0061 18.6324 41.6615 19.0402 42.0619L26.4583 49.3476V57.9296H21.1598C20.5882 57.9296 20.1248 58.393 20.1248 58.9646C20.1248 59.5363 20.5882 59.9996 21.1598 59.9996H38.608C39.1797 59.9996 39.6431 59.5363 39.6431 58.9646C39.6433 58.3931 39.1799 57.9298 38.6083 57.9298Z" fill="#0082C5"/>
<path d="M42.0978 41.1016C41.3972 40.0597 40.4597 39.1646 39.3867 38.5132C38.898 38.2166 38.2614 38.3723 37.9648 38.8608C37.6682 39.3493 37.824 39.9859 38.3124 40.2826C39.1307 40.7793 39.8457 41.462 40.3801 42.2566C40.5799 42.5537 40.9068 42.7142 41.2398 42.7142C41.4384 42.7142 41.6392 42.6573 41.8163 42.538C42.291 42.219 42.4168 41.5759 42.0978 41.1016Z" fill="#0082C5"/>
<path d="M42.9411 5.83883C39.9175 1.9203 33.6797 -0.402721 27.4178 0.0568906C27.4012 0.0581797 27.3844 0.0598203 27.3678 0.0618125C27.0416 0.101774 20.0523 1.00963 18.7786 5.20379C18.1911 5.05355 17.4421 4.92019 16.6248 4.91644C14.8312 4.90835 12.3647 5.52008 10.8413 8.48165C9.36114 11.3604 8.74074 16.3882 10.1188 19.9813C9.32914 20.754 8.83789 21.8306 8.83789 23.02C8.83789 24.9347 10.0938 26.5566 11.8433 27.0895C11.6798 30.9093 13.4519 34.6147 16.5632 36.8744L22.228 40.9909C23.8026 42.1352 25.6474 42.7071 27.4933 42.7071C29.3386 42.7071 31.1847 42.135 32.7597 40.9909L38.4245 36.8745C38.8877 36.5381 39.3288 36.1637 39.736 35.7616C40.1932 35.3799 43.8653 32.2132 46.1461 27.1447C48.3705 22.2015 49.6202 14.4926 42.9411 5.83883ZM12.0337 24.9321C11.3602 24.5597 10.9079 23.8434 10.9079 23.0202C10.9079 22.0507 11.5433 21.2277 12.419 20.9431L12.0337 24.9321ZM38.1363 34.4293C37.8443 34.7054 37.5328 34.964 37.2078 35.2L31.5432 39.3164C29.1204 41.0758 25.866 41.0758 23.4448 39.3165L17.7797 35.1998C15.0947 33.2497 13.6251 29.9861 13.9444 26.6822L14.6103 19.7858C17.4204 18.6506 19.7623 15.6128 20.9468 13.8332C22.3696 15.5348 25.3247 18.2881 29.5574 18.2875C29.762 18.2875 29.9706 18.281 30.1812 18.2675C33.3044 18.07 35.6503 18.9622 37.1546 20.9196C39.7428 24.2876 39.4827 30.2255 38.1363 34.4293ZM44.2878 26.2298C43.3172 28.4071 42.0426 30.2229 40.9264 31.5677C41.1423 30.1714 41.234 28.7561 41.1909 27.3946C41.0913 24.2428 40.263 21.5678 38.7958 19.6587C36.8457 17.1213 33.9043 15.9585 30.0504 16.2022C24.9381 16.5241 21.7838 11.5015 21.7536 11.4525C21.5617 11.1378 21.2169 10.9485 20.8483 10.9567C20.4797 10.9644 20.1429 11.1677 19.9642 11.49C19.9334 11.5454 16.8492 17.0501 13.3644 18.0284C12.9975 18.1313 12.7222 18.4263 12.6374 18.7906C12.3963 18.8163 12.1615 18.863 11.9339 18.9276C10.8542 15.7686 11.6041 11.5251 12.6822 9.42841C13.5221 7.79552 14.7894 6.99664 16.5565 6.98657C17.98 6.97496 19.1775 7.50829 19.1864 7.51251C19.5068 7.65841 19.8793 7.63145 20.1755 7.4409C20.4716 7.25047 20.6504 6.92258 20.6504 6.57055C20.6504 3.17327 27.1919 2.17729 27.6004 2.11928C33.1874 1.71768 38.6905 3.71843 41.3025 7.10364C46.1443 13.3768 47.1486 19.8119 44.2878 26.2298Z" fill="#0082C5"/>
<path d="M21.3495 23.2524C20.7778 23.2524 20.3145 23.7158 20.3145 24.2874V25.9428C20.3145 26.5145 20.7778 26.9778 21.3495 26.9778C21.9211 26.9778 22.3845 26.5145 22.3845 25.9428V24.2874C22.3845 23.7159 21.9211 23.2524 21.3495 23.2524Z" fill="#0082C5"/>
<path d="M36.7347 21.003C35.0266 19.2948 32.2469 19.2948 30.5385 21.003C30.1343 21.4072 30.1343 22.0627 30.5385 22.4667C30.9427 22.8709 31.5981 22.8709 32.0022 22.4667C32.9035 21.5656 34.3698 21.5656 35.2711 22.4667C35.4732 22.6688 35.7381 22.7699 36.003 22.7699C36.2678 22.7699 36.5328 22.6689 36.7348 22.4667C37.1389 22.0624 37.1389 21.4071 36.7347 21.003Z" fill="#0082C5"/>
<path d="M24.4487 21.0023C22.7404 19.2939 19.9606 19.2941 18.2524 21.0023C17.8482 21.4065 17.8482 22.062 18.2524 22.466C18.6565 22.8702 19.312 22.8702 19.716 22.466C20.6174 21.5648 22.0838 21.5648 22.985 22.466C23.187 22.6681 23.452 22.7692 23.7168 22.7692C23.9817 22.7692 24.2466 22.6682 24.4487 22.466C24.8528 22.062 24.8528 21.4065 24.4487 21.0023Z" fill="#0082C5"/>
<path d="M33.6366 23.2524C33.0649 23.2524 32.6016 23.7158 32.6016 24.2874V25.9428C32.6016 26.5145 33.0649 26.9778 33.6366 26.9778C34.2082 26.9778 34.6716 26.5145 34.6716 25.9428V24.2874C34.6716 23.7159 34.2082 23.2524 33.6366 23.2524Z" fill="#0082C5"/>
<path d="M30.9595 31.9418C30.5555 31.5376 29.9001 31.5376 29.4958 31.9418C28.3918 33.0458 26.5953 33.0458 25.4914 31.9418C25.0872 31.5376 24.4318 31.5376 24.0277 31.9418C23.6236 32.346 23.6236 33.0014 24.0277 33.4055C24.9833 34.361 26.2385 34.8389 27.4936 34.8389C28.7487 34.8389 30.0039 34.3612 30.9594 33.4055C31.3637 33.0012 31.3637 32.3459 30.9595 31.9418Z" fill="#0082C5"/>
<path d="M28.5752 27.1361H28.5281V24.997C28.5281 24.4254 28.0647 23.962 27.4931 23.962C26.9215 23.962 26.4581 24.4254 26.4581 24.997V27.1361H26.411C25.8393 27.1361 25.376 27.5994 25.376 28.1711C25.376 28.7427 25.8393 29.2061 26.411 29.2061H28.5751C29.1467 29.2061 29.6101 28.7427 29.6101 28.1711C29.6101 27.5994 29.1467 27.1361 28.5752 27.1361Z" fill="#0082C5"/>
<path d="M50.1445 53.397C49.5729 53.397 49.1095 53.8604 49.1095 54.432V57.9298H42.944V49.699H44.0459H48.0075H49.1094V50.982C49.1094 51.5536 49.5728 52.017 50.1444 52.017C50.7161 52.017 51.1794 51.5536 51.1794 50.982V48.664C51.1795 48.0924 50.7162 47.629 50.1445 47.629H49.0426V41.8406C49.0426 40.4939 47.947 39.3983 46.6003 39.3983H45.4533C44.1065 39.3983 43.0109 40.4939 43.0109 41.8406V47.6291H41.909C41.3374 47.6291 40.874 48.0925 40.874 48.6641V58.965C40.874 59.5366 41.3374 60 41.909 60H50.1445C50.7162 60 51.1795 59.5366 51.1795 58.965V54.4321C51.1795 53.8605 50.7161 53.397 50.1445 53.397ZM45.0811 41.8406C45.0811 41.6353 45.2481 41.4683 45.4534 41.4683H46.6004C46.8057 41.4683 46.9727 41.6353 46.9727 41.8406V47.6291H45.0811V41.8406Z" fill="#0082C5"/>
<path d="M11.5609 39.0455H11.1653V35.0759C11.1653 34.5449 10.7651 34.1077 10.25 34.0484V30.0713C10.25 29.7844 10.1309 29.5104 9.92124 29.3146L6.74732 26.3521C6.4458 26.0707 6.00658 25.9953 5.62864 26.1594C5.25071 26.3236 5.00614 26.6966 5.00614 27.1088V34.0485C4.49098 34.1078 4.09079 34.5451 4.09079 35.076V39.0458H3.69516C3.12352 39.0458 2.66016 39.5091 2.66016 40.0808V51.6727C2.66016 52.2443 3.12352 52.7077 3.69516 52.7077H9.49116C10.0628 52.7077 10.5262 52.2443 10.5262 51.6727C10.5262 51.101 10.0626 50.6377 9.49104 50.6377H4.73005V41.1157H11.561C12.1327 41.1157 12.5961 40.6523 12.5961 40.0807C12.5959 39.509 12.1326 39.0455 11.5609 39.0455ZM7.07603 29.4905L8.18006 30.5209V34.0409H7.07603V29.4905ZM9.09542 39.0455H6.16079V36.1108H9.09553V39.0455H9.09542Z" fill="#0082C5"/>
<path d="M57.0368 3.82057C56.6326 3.41628 55.9772 3.41639 55.5731 3.82057L53.7465 5.64718C53.3423 6.05136 53.3423 6.7068 53.7465 7.11086C53.9485 7.31313 54.2135 7.41403 54.4783 7.41403C54.7432 7.41403 55.0081 7.31301 55.2102 7.11086L57.0368 5.28425C57.4411 4.88007 57.4411 4.22464 57.0368 3.82057Z" fill="#0082C5"/>
<path d="M51.5934 9.26549C51.1892 8.86131 50.5338 8.86143 50.1297 9.26549L48.3031 11.0921C47.899 11.4963 47.899 12.1517 48.3031 12.5558C48.5052 12.7579 48.7701 12.8589 49.035 12.8589C49.2998 12.8589 49.5648 12.7579 49.7668 12.5558L51.5934 10.7292C51.9976 10.3249 51.9976 9.66956 51.5934 9.26549Z" fill="#0082C5"/>
<path d="M57.0368 11.0918L55.2102 9.26517C54.806 8.86099 54.1506 8.86099 53.7465 9.26517C53.3423 9.66935 53.3423 10.3246 53.7465 10.7289L55.5731 12.5555C55.7751 12.7576 56.0401 12.8586 56.3049 12.8586C56.5698 12.8586 56.8348 12.7576 57.0368 12.5555C57.441 12.1512 57.441 11.496 57.0368 11.0918Z" fill="#0082C5"/>
<path d="M51.5934 5.64718L49.7668 3.82057C49.3628 3.41628 48.7074 3.41639 48.3031 3.82057C47.899 4.22476 47.899 4.87995 48.3031 5.28425L50.1297 7.11086C50.3318 7.31301 50.5967 7.41403 50.8616 7.41403C51.1264 7.41403 51.3914 7.31301 51.5934 7.11086C51.9976 6.70656 51.9976 6.05136 51.5934 5.64718Z" fill="#0082C5"/>
<path d="M31.1073 51.7696C31.6789 51.7696 32.1423 51.3062 32.1423 50.7346C32.1423 50.163 31.6789 49.6996 31.1073 49.6996C30.5357 49.6996 30.0723 50.163 30.0723 50.7346C30.0723 51.3062 30.5357 51.7696 31.1073 51.7696Z" fill="#0082C5"/>
</g>
<defs>
<clipPath id="clip0">
<rect width="60" height="60" fill="white"/>
</clipPath>
</defs>
</svg>
