<svg width="60" height="60" viewBox="0 0 60 60" fill="none" xmlns="http://www.w3.org/2000/svg">
<g clip-path="url(#clip0)">
<path d="M57.5421 13.1209H54.7277V10.7822C54.7277 8.92797 53.2192 7.41949 51.3651 7.41949H48.6827C46.8286 7.41949 45.3202 8.92797 45.3202 10.7822V20.4099H40.8252V17.8251C40.8252 15.9491 39.2991 14.4231 37.4232 14.4231C36.6861 14.4231 36.0039 14.6595 35.4464 15.0594C34.8984 13.9141 33.7281 13.1209 32.3758 13.1209C31.0975 13.1209 29.9818 13.8297 29.4007 14.8749C28.8264 14.4321 28.108 14.1673 27.3283 14.1673C26.1451 14.1673 25.102 14.7752 24.4924 15.6945C23.8972 15.1839 23.1247 14.8745 22.281 14.8745C20.405 14.8745 18.879 16.4006 18.879 18.2765V20.4101H14.6801V17.9307C14.6801 17.4455 14.2869 17.0524 13.8018 17.0524C13.3168 17.0524 12.9235 17.4455 12.9235 17.9307V38.3348C12.9235 39.2203 12.2031 39.9407 11.3176 39.9407H8.63488C7.74931 39.9407 7.02897 39.2203 7.02897 38.3348V10.7822C7.02897 9.89658 7.74943 9.17612 8.63488 9.17612H11.3173C12.2028 9.17612 12.9232 9.89658 12.9232 10.7822V14.1874C12.9232 14.6726 13.3164 15.0657 13.8015 15.0657C14.2865 15.0657 14.6798 14.6726 14.6798 14.1874V10.7822C14.6798 8.92797 13.1713 7.41949 11.3173 7.41949H8.63488C6.7807 7.41949 5.27235 8.92797 5.27235 10.7822V13.1209H2.45788C1.10258 13.1209 0 14.2235 0 15.5787V33.538C0 34.8933 1.10258 35.9959 2.45788 35.9959H5.27235V38.3346C5.27235 40.1887 6.78082 41.6972 8.63488 41.6972H11.3173C13.1714 41.6972 14.6798 40.1887 14.6798 38.3346V28.7069H17.6897V30.3107C17.6897 31.1349 17.978 31.9395 18.5018 32.5762L21.2294 35.8925V51.7029C21.2294 52.1881 21.6227 52.5813 22.1078 52.5813C22.5928 52.5813 22.9861 52.1881 22.9861 51.7029V35.5777C22.9861 35.3741 22.9153 35.1769 22.7861 35.0196L19.8583 31.4601C19.5926 31.1371 19.4462 30.7289 19.4462 30.3107V28.7069L36.0567 28.8084C36.5417 28.8084 36.935 28.4153 36.935 27.9301C36.935 27.4449 36.5417 27.0518 36.0567 27.0518H32.0603C31.2359 27.0518 30.5651 26.381 30.5651 25.5567C30.5651 24.7322 31.2359 24.0614 32.0603 24.0614H39.6123C40.1312 24.0614 40.5534 24.4835 40.5534 25.0024V30.3106C40.5534 30.7288 40.407 31.1371 40.1413 31.46L37.2136 35.0195C37.0843 35.1768 37.0136 35.3739 37.0136 35.5776V37.8941C37.0136 38.3793 37.4068 38.7724 37.8919 38.7724C38.377 38.7724 38.7702 38.3793 38.7702 37.8941V35.8923L41.4979 32.5761C42.0215 31.9393 42.3099 31.1348 42.3099 30.3106V28.7068H45.3199V38.3345C45.3199 40.1886 46.8283 41.6971 48.6824 41.6971H51.3648C53.2189 41.6971 54.7273 40.1886 54.7273 38.3345V35.9957H57.5418C58.8971 35.9957 59.9996 34.8932 59.9996 33.5379V15.5787C60 14.2235 58.8974 13.1209 57.5421 13.1209ZM2.45788 34.2392C2.07118 34.2392 1.75663 33.9246 1.75663 33.538V15.5787C1.75663 15.192 2.07118 14.8776 2.45788 14.8776H5.27235V34.2392H2.45788ZM37.4231 16.1797C38.3305 16.1797 39.0685 16.9178 39.0685 17.8251V21.0951C39.0685 21.5588 38.8717 21.9952 38.535 22.3049H36.311C35.9743 21.9952 35.7776 21.5588 35.7776 21.0951V17.8251C35.7776 16.9178 36.5157 16.1797 37.4231 16.1797ZM30.7302 16.5229C30.7302 15.6157 31.4684 14.8776 32.3756 14.8776C33.2828 14.8776 34.021 15.6157 34.021 16.5229V21.0951C34.021 21.5588 33.8242 21.9952 33.4876 22.3049H32.0605C31.8181 22.3049 31.582 22.3325 31.3545 22.383C30.9635 22.0743 30.7301 21.6045 30.7301 21.0951V16.5229H30.7302ZM25.6827 17.5692C25.6827 16.6619 26.4209 15.9238 27.3281 15.9238C28.2353 15.9238 28.9736 16.6619 28.9736 17.5692V21.095C28.9736 22.0023 28.2355 22.7405 27.3281 22.7405C26.4207 22.7405 25.6827 22.0023 25.6827 21.095V17.5692ZM20.6352 18.2764C20.6352 17.3692 21.3734 16.631 22.2806 16.631C23.1879 16.631 23.926 17.3692 23.926 18.2764V21.0951C23.926 22.0024 23.1879 22.7406 22.2806 22.7406C21.3734 22.7406 20.6352 22.0024 20.6352 21.0951V18.2764ZM14.6799 22.1665H19.0525C19.5026 23.5189 20.7792 24.4971 22.2807 24.4971C23.2811 24.4971 24.1819 24.0629 24.8049 23.3733C25.4279 24.0627 26.328 24.4971 27.3282 24.4971C28.0528 24.4971 28.7235 24.2672 29.2757 23.8796C28.9796 24.3696 28.8088 24.9435 28.8088 25.5567C28.8088 26.0551 28.9218 26.5276 29.1231 26.9502H14.6799V22.1665ZM42.3103 26.9503V25.0025C42.3103 23.8389 41.5697 22.8452 40.5351 22.4675C40.5785 22.3692 40.617 22.2687 40.651 22.1665H45.3202V26.9503H42.3103ZM58.2434 33.538C58.2434 33.9247 57.9288 34.2392 57.5421 34.2392H54.7277V31.701C54.7277 31.2158 54.3344 30.8227 53.8493 30.8227C53.3643 30.8227 52.971 31.2158 52.971 31.701V38.3346C52.971 39.2202 52.2506 39.9406 51.3651 39.9406H48.6827C47.7972 39.9406 47.0768 39.2202 47.0768 38.3346V10.7822C47.0768 9.89658 47.7973 9.17612 48.6827 9.17612H51.3651C52.2507 9.17612 52.971 9.89658 52.971 10.7822V27.9579C52.971 28.4431 53.3643 28.8362 53.8493 28.8362C54.3344 28.8362 54.7277 28.4431 54.7277 27.9579V14.8776H57.5421C57.9288 14.8776 58.2434 15.1921 58.2434 15.5787V33.538Z" fill="#0082C5"/>
<path d="M37.892 40.7589C37.4069 40.7589 37.0137 41.152 37.0137 41.6372V51.7028C37.0137 52.188 37.4069 52.5811 37.892 52.5811C38.377 52.5811 38.7703 52.188 38.7703 51.7028V41.6372C38.7703 41.152 38.3772 40.7589 37.892 40.7589Z" fill="#0082C5"/>
</g>
<defs>
<clipPath id="clip0">
<rect width="60" height="60" fill="white"/>
</clipPath>
</defs>
</svg>
