<svg width="60" height="60" viewBox="0 0 60 60" fill="none" xmlns="http://www.w3.org/2000/svg">
<path d="M58.125 25.3125H48.75V22.5C48.75 21.9816 48.3309 21.5625 47.8125 21.5625C46.3781 21.5625 45.1078 22.2244 44.2472 23.2425C44.0175 23.1019 43.7766 22.9791 43.5178 22.8928L41.595 22.2506C40.8281 21.9956 40.3125 21.2812 40.3125 20.4731V19.6875H50.625C51.6591 19.6875 52.5 18.8466 52.5 17.8125V2.8125C52.5 1.77844 51.6591 0.9375 50.625 0.9375H24.375C23.3409 0.9375 22.5 1.77844 22.5 2.8125V17.8125C22.5 18.8466 23.3409 19.6875 24.375 19.6875H34.6875V20.4731C34.6875 21.2812 34.1719 21.9956 33.405 22.2516L31.4822 22.8928C30.3422 23.2725 29.505 24.1941 29.1975 25.3125H17.8125V9.375C17.8125 8.85656 17.3934 8.4375 16.875 8.4375H5.625C5.10656 8.4375 4.6875 8.85656 4.6875 9.375V25.3125H1.875C1.35656 25.3125 0.9375 25.7316 0.9375 26.25V31.875V58.125C0.9375 58.6434 1.35656 59.0625 1.875 59.0625H5.625C6.14344 59.0625 6.5625 58.6434 6.5625 58.125V51.5625H15.9375V58.125C15.9375 58.6434 16.3566 59.0625 16.875 59.0625H20.625C21.1434 59.0625 21.5625 58.6434 21.5625 58.125V32.8125H43.125V39.375H30.9375C28.3528 39.375 26.25 41.4778 26.25 44.0625V45.9375C26.25 46.4559 26.6691 46.875 27.1875 46.875H34.6875V47.5856C34.6875 49.7756 33.8719 51.8353 32.3991 53.4375H30.9375C29.3869 53.4375 28.125 54.6994 28.125 56.25C28.125 57.8006 29.3869 59.0625 30.9375 59.0625H44.0625C45.6131 59.0625 46.875 57.8006 46.875 56.25C46.875 54.6994 45.6131 53.4375 44.0625 53.4375H42.6009C41.1281 51.8353 40.3125 49.7756 40.3125 47.5856V46.875H45.9375C47.4881 46.875 48.75 45.6131 48.75 44.0625V40.3125V32.8125H53.4375V58.125C53.4375 58.6434 53.8566 59.0625 54.375 59.0625H58.125C58.6434 59.0625 59.0625 58.6434 59.0625 58.125V31.875V26.25C59.0625 25.7316 58.6434 25.3125 58.125 25.3125ZM50.625 2.8125L50.6259 14.0625H24.375V2.8125H50.625ZM24.375 15.9375H50.6269V17.8125H24.375V15.9375ZM32.0756 24.6703L33.9984 24.03C35.5312 23.5191 36.5625 22.0894 36.5625 20.4731V19.6875H38.4375V20.4731C38.4375 22.0903 39.4688 23.5191 41.0016 24.03L42.9244 24.6712C43.0772 24.7228 43.2206 24.795 43.3509 24.8869C43.3069 25.0294 43.2497 25.1653 43.2197 25.3134H31.2328C31.4334 25.02 31.7222 24.7884 32.0756 24.6703ZM15.9375 19.6875H6.5625V15.9375H15.9375V19.6875ZM15.9375 10.3125V14.0625H6.5625V10.3125H15.9375ZM6.5625 21.5625H15.9375V25.3125H6.5625V21.5625ZM4.6875 57.1875H2.8125V32.8125H4.6875V57.1875ZM15.9375 32.8125V40.3125H6.5625V32.8125H15.9375ZM6.5625 49.6875V42.1875H15.9375V49.6875H6.5625ZM19.6875 57.1875H17.8125V32.8125H19.6875V57.1875ZM20.625 30.9375H16.875H5.625H2.8125V27.1875H43.125V30.9375H20.625ZM45 26.25C45 25.0275 45.7837 23.985 46.875 23.5978V39.375H45V26.25ZM45 56.25C45 56.7675 44.58 57.1875 44.0625 57.1875H30.9375C30.42 57.1875 30 56.7675 30 56.25C30 55.7325 30.42 55.3125 30.9375 55.3125H44.0625C44.58 55.3125 45 55.7325 45 56.25ZM40.2084 53.4375H34.7916C35.9428 51.72 36.5625 49.7006 36.5625 47.5856V46.875H38.4375V47.5856C38.4375 49.7006 39.0572 51.72 40.2084 53.4375ZM46.875 44.0625C46.875 44.58 46.455 45 45.9375 45H28.125V44.0625C28.125 42.5119 29.3869 41.25 30.9375 41.25H46.875V44.0625ZM48.75 27.1875H57.1875V30.9375H54.375H48.75V27.1875ZM57.1875 57.1875H55.3125V32.8125H57.1875V57.1875Z" fill="#0082C5"/>
<path d="M9.375 34.6875H13.125V36.5625H9.375V34.6875Z" fill="#0082C5"/>
<path d="M9.375 44.0625H13.125V45.9375H9.375V44.0625Z" fill="#0082C5"/>
</svg>
