<svg width="60" height="60" viewBox="0 0 60 60" fill="none" xmlns="http://www.w3.org/2000/svg">
<path d="M55.6055 18.5911H51.6239C51.1385 18.5911 50.745 18.9846 50.745 19.47C50.745 19.9554 51.1385 20.3489 51.6239 20.3489H55.6055C57.0594 20.3489 58.2422 21.5317 58.2422 22.9856V58.1836C58.2422 58.2159 58.2159 58.2422 58.1836 58.2422H48.4008V54.7266H52.8905C53.8875 54.7266 54.7023 53.9154 54.7069 52.9184L54.7266 48.5906C54.7358 47.5975 53.9004 46.7611 52.9102 46.766H48.4008V43.3013H52.8905C53.8875 43.3013 54.7023 42.4902 54.7069 41.4932L54.7266 37.1653C54.7358 36.1721 53.9004 35.3359 52.9102 35.3407H48.4008V31.8251H52.8905C53.8875 31.8251 54.7023 31.0139 54.7069 30.0169L54.7266 25.689C54.7358 24.696 53.9004 23.8596 52.9102 23.8644H48.4008V14.7656C48.4008 12.3424 46.4295 10.3711 44.0062 10.3711H41.2158C40.766 4.57699 35.9075 0 30 0C24.0925 0 19.234 4.57699 18.7842 10.3711H15.9375C13.5143 10.3711 11.543 12.3424 11.543 14.7656V18.5911H4.39453C1.97133 18.5911 0 20.5624 0 22.9856V58.1836C0 59.1852 0.814805 60 1.81641 60H58.1836C59.1852 60 60 59.1852 60 58.1836V22.9856C60 20.5624 58.0287 18.5911 55.6055 18.5911ZM48.4008 25.6223H52.9102C52.9161 25.6223 52.9345 25.6223 52.9516 25.6396C52.9688 25.6568 52.9688 25.6751 52.9688 25.6811L52.9492 30.0088C52.9491 30.041 52.9227 30.0671 52.8906 30.0671H48.4008V25.6223ZM48.4008 37.0985H52.9102C52.9161 37.0985 52.9345 37.0985 52.9516 37.1157C52.9688 37.133 52.9688 37.1514 52.9688 37.1573L52.9492 41.4851C52.9491 41.5172 52.9227 41.5434 52.8906 41.5434H48.4008V37.0985ZM48.4008 48.5238H52.9102C52.9161 48.5238 52.9345 48.5238 52.9516 48.5411C52.9688 48.5583 52.9688 48.5767 52.9688 48.5827L52.9492 52.9104C52.9491 52.9425 52.9227 52.9688 52.8906 52.9688H48.4008V48.5238ZM11.543 52.9688H7.10977C7.07707 52.9688 7.05129 52.9433 7.05117 52.9107L7.03125 48.5831C7.03125 48.5769 7.03113 48.5583 7.04836 48.5411C7.06547 48.5238 7.08387 48.5238 7.08984 48.5238H11.543V52.9688ZM11.543 41.543H7.10977C7.07707 41.543 7.05129 41.5175 7.05117 41.485L7.03125 37.1573C7.03125 37.1512 7.03113 37.133 7.04859 37.1154C7.06582 37.098 7.08387 37.098 7.08984 37.098H11.543V41.543ZM11.543 30.0668H7.10977C7.07707 30.0668 7.05129 30.0414 7.05117 30.0088L7.03125 25.6812C7.03125 25.6751 7.03113 25.6568 7.04859 25.6392C7.06582 25.6219 7.08387 25.6219 7.08984 25.6219H11.543V30.0668ZM11.543 23.8641H7.08984C6.09598 23.8586 5.26465 24.6973 5.27344 25.6893L5.29336 30.0169C5.29793 31.0137 6.11273 31.8246 7.10977 31.8246H11.543V35.3402H7.08984C6.09598 35.3347 5.26465 36.1736 5.27344 37.1654L5.29336 41.4932C5.29793 42.49 6.11273 43.3009 7.10977 43.3009H11.543V46.7661H7.08984C6.09539 46.7606 5.26465 47.5988 5.27344 48.5913L5.29336 52.9191C5.29781 53.9156 6.11273 54.7266 7.10977 54.7266H11.543V58.2422H1.81641C1.78406 58.2422 1.75781 58.2159 1.75781 58.1836V22.9856C1.75781 21.5317 2.94059 20.3489 4.39453 20.3489H11.543V23.8641ZM30 1.75781C35.2341 1.75781 39.4922 6.01594 39.4922 11.25C39.4922 16.4841 35.2341 20.7422 30 20.7422C24.7659 20.7422 20.5078 16.4841 20.5078 11.25C20.5078 6.01594 24.7659 1.75781 30 1.75781ZM37.8544 58.2422H30.8789V42.7648H37.8544V58.2422ZM20.3878 41.007V39.2491H39.6123V41.007H20.3878ZM46.643 58.2422H39.6122V42.7648C40.5296 42.818 41.3759 42.147 41.37 41.1827V39.0734C41.37 38.201 40.6603 37.4913 39.788 37.4913H20.212C19.3397 37.4913 18.63 38.201 18.63 39.0734V41.1827C18.6238 42.1064 19.4549 42.8609 20.3878 42.7648V48.9885C20.3878 49.4739 20.7813 49.8674 21.2667 49.8674C21.7521 49.8674 22.1456 49.4739 22.1456 48.9885V42.7648H29.1211V58.2422H22.1456V53.09C22.1456 52.6046 21.7521 52.2111 21.2667 52.2111C20.7813 52.2111 20.3878 52.6046 20.3878 53.09V58.2422H13.3008V14.7656C13.3008 13.3117 14.4836 12.1289 15.9375 12.1289H18.7842C19.234 17.923 24.0925 22.5 30 22.5C35.9075 22.5 40.766 17.923 41.2158 12.1289H44.0062C45.4602 12.1289 46.643 13.3117 46.643 14.7656V58.2422ZM27.3633 13.8867V17.4023C27.3633 18.2747 28.073 18.9844 28.9453 18.9844H31.0547C31.927 18.9844 32.6367 18.2747 32.6367 17.4023V13.8867H36.1523C37.0247 13.8867 37.7344 13.177 37.7344 12.3047V10.1953C37.7344 9.32297 37.0247 8.61328 36.1523 8.61328H32.6367V5.09766C32.6367 4.22531 31.927 3.51562 31.0547 3.51562H28.9453C28.073 3.51562 27.3633 4.22531 27.3633 5.09766V8.61328H23.8477C22.9753 8.61328 22.2656 9.32297 22.2656 10.1953V12.3047C22.2656 13.177 22.9753 13.8867 23.8477 13.8867H27.3633ZM24.0234 10.3711H27.8906C28.5691 10.3711 29.1211 9.81914 29.1211 9.14062V5.27344H30.8789V9.14062C30.8789 9.81914 31.4309 10.3711 32.1094 10.3711H35.9766V12.1289H32.1094C31.4309 12.1289 30.8789 12.6809 30.8789 13.3594V17.2266H29.1211V13.3594C29.1211 12.6809 28.5691 12.1289 27.8906 12.1289H24.0234V10.3711ZM26.4844 52.2819C26.9698 52.2819 27.3633 51.8884 27.3633 51.403V49.6041C27.3633 49.1187 26.9698 48.7252 26.4844 48.7252C25.999 48.7252 25.6055 49.1187 25.6055 49.6041V51.403C25.6055 51.8884 25.999 52.2819 26.4844 52.2819ZM26.4258 26.0156H18.6567C17.6596 26.0156 16.8448 26.8268 16.8403 27.8238L16.8207 32.1514C16.8102 33.1396 17.6448 33.9818 18.6371 33.9762H26.4258C27.4274 33.9762 28.2422 33.1614 28.2422 32.1598V27.832C28.2422 26.8304 27.4274 26.0156 26.4258 26.0156ZM26.4844 32.1598C26.4844 32.1921 26.4581 32.2184 26.4258 32.2184H18.637C18.6137 32.2214 18.5753 32.1829 18.5784 32.1595L18.598 27.8317C18.5981 27.7996 18.6244 27.7734 18.6566 27.7734H26.4258C26.4581 27.7734 26.4844 27.7997 26.4844 27.832V32.1598ZM33.5156 52.2819C34.001 52.2819 34.3945 51.8884 34.3945 51.403V49.6041C34.3945 49.1187 34.001 48.7252 33.5156 48.7252C33.0302 48.7252 32.6367 49.1187 32.6367 49.6041V51.403C32.6367 51.8884 33.0302 52.2819 33.5156 52.2819ZM41.3348 26.0156H33.5742C32.5726 26.0156 31.7578 26.8304 31.7578 27.832V32.1598C31.7578 33.1614 32.5726 33.9762 33.5742 33.9762H41.3152C42.3122 33.9762 43.127 33.165 43.1316 32.168L43.1511 27.8401C43.1605 26.8472 42.325 26.0108 41.3348 26.0156ZM41.3737 32.16C41.3736 32.1921 41.3473 32.2184 41.3152 32.2184H33.5742C33.5419 32.2184 33.5156 32.1921 33.5156 32.1598V27.832C33.5156 27.7997 33.5419 27.7734 33.5742 27.7734H41.3348C41.3408 27.7734 41.3592 27.7734 41.3763 27.7907C41.3934 27.8079 41.3934 27.8262 41.3934 27.8321L41.3737 32.16Z" fill="#0082C5"/>
</svg>
