<svg width="60" height="60" viewBox="0 0 60 60" fill="none" xmlns="http://www.w3.org/2000/svg">
<g clip-path="url(#clip0)">
<path d="M58.3008 50.5372H57.2408V48.1349C57.2408 47.6494 56.8474 47.256 56.3619 47.256C55.8764 47.256 55.483 47.6494 55.483 48.1349V50.5372H52.8791V46.778C52.8791 45.6374 51.9512 44.7095 50.8106 44.7095H46.0982C44.9577 44.7095 44.0298 45.6374 44.0298 46.778V50.5372H40.5717V46.778C40.5717 45.6374 39.6438 44.7095 38.5034 44.7095H33.7909C32.6503 44.7095 31.7224 45.6374 31.7224 46.778V50.5372H28.2645V46.778C28.2645 45.6374 27.3366 44.7095 26.196 44.7095H21.4835C20.343 44.7095 19.4152 45.6374 19.4152 46.778V50.5372H15.9571V46.778C15.9571 45.6374 15.0292 44.7095 13.8887 44.7095H9.17613C8.03555 44.7095 7.10766 45.6374 7.10766 46.778V50.5372H4.50375V41.4711H55.483V44.0333C55.483 44.5188 55.8764 44.9122 56.3619 44.9122C56.8474 44.9122 57.2408 44.5188 57.2408 44.0333V41.425C57.2408 40.4811 56.473 39.7133 55.5293 39.7133H54.4256C54.4256 38.4417 54.4256 4.71 54.4256 4.15933C54.4256 3.21551 53.6578 2.44769 52.7141 2.44769H27.8154C26.8716 2.44769 26.1039 3.21562 26.1039 4.15933V13.9991H13.6192C12.6098 13.9991 11.7886 14.8202 11.7886 15.8296V22.8288H7.27289C6.32906 22.8288 5.56137 23.5966 5.56137 24.5403V31.2071C5.56137 31.6927 5.95477 32.0861 6.44027 32.0861C6.92578 32.0861 7.31918 31.6927 7.31918 31.2071V29.3377H11.7887V30.5266C11.7887 31.3335 12.3271 32.0549 13.1054 32.2839V39.7133H7.31906V35.3087C7.31906 34.8232 6.92566 34.4298 6.44016 34.4298C5.95465 34.4298 5.56125 34.8232 5.56125 35.3087V39.7133H4.45746C3.51363 39.7133 2.74594 40.4813 2.74594 41.425V50.5372H1.69922C0.762305 50.5372 0 51.2995 0 52.2364V55.8531C0 56.79 0.762305 57.5523 1.69922 57.5523H58.3008C59.2377 57.5523 60 56.79 60 55.8531V52.2364C60 51.2995 59.2377 50.5372 58.3008 50.5372ZM11.7886 27.5798H7.31906V24.5866H11.7886V27.5798ZM20.6495 39.7133H14.8631V32.3572H20.6495V39.7133ZM28.1936 39.7133H22.4073V32.3572H28.1936V39.7133ZM35.7377 39.7133H29.9514V32.2839C30.7195 32.0592 31.2681 31.3416 31.2681 30.5266V29.3377H35.7377V39.7133ZM35.7377 27.5798H31.2681V24.5866H35.7377V27.5798ZM52.6678 39.7133H37.4955V38.0068H52.6678V39.7133ZM37.4955 36.249C37.4955 35.1018 37.4955 26.9707 37.4955 25.841H39.3061V36.249H37.4955ZM41.0639 36.249V25.8411H45.9073V36.249H41.0639ZM52.6678 36.249H47.6652V25.8411H52.6678V36.249ZM52.6678 24.0832C51.8353 24.0832 37.8888 24.0832 37.4336 24.0832C37.2294 23.349 36.5528 22.8288 35.784 22.8288H31.2682V21.0901H52.6678V24.0832ZM34.4629 19.3323V8.95664H39.3061V19.3323H34.4629ZM41.0639 19.3323V8.95664H45.9073V19.3323H41.0639ZM52.6678 19.3323H47.6652V8.95664H52.6678V19.3323ZM27.8617 4.20551H52.6678V7.19871C51.9942 7.19871 35.087 7.19871 27.8617 7.19871V4.20551ZM27.8617 8.95664H32.705V19.3323H31.2681V15.8296C31.2681 14.8202 30.447 13.9991 29.4376 13.9991H27.8617V8.95664ZM13.6192 15.7569C30.5142 15.7569 29.5103 15.7167 29.5103 15.8296V30.5265C29.5103 30.5667 29.4777 30.5993 29.4376 30.5993C28.55 30.5993 14.5064 30.5993 13.6192 30.5993C13.579 30.5993 13.5464 30.5667 13.5464 30.5265C13.5464 14.921 13.502 15.7569 13.6192 15.7569ZM45.7876 46.778C45.7876 46.6066 45.927 46.4673 46.0982 46.4673H50.8106C50.982 46.4673 51.1213 46.6066 51.1213 46.778V50.5372H45.7875V46.778H45.7876ZM33.4801 46.778C33.4801 46.6066 33.6195 46.4673 33.7908 46.4673H38.5032C38.6745 46.4673 38.8138 46.6066 38.8138 46.778V50.5372C37.6225 50.5372 34.6663 50.5372 33.48 50.5372V46.778H33.4801ZM21.1729 46.778C21.1729 46.6066 21.3122 46.4673 21.4834 46.4673H26.1959C26.3672 46.4673 26.5065 46.6066 26.5065 46.778V50.5372H21.1727V46.778H21.1729ZM8.86535 46.778C8.86535 46.6066 9.00469 46.4673 9.17602 46.4673H13.8885C14.0597 46.4673 14.199 46.6066 14.199 46.778V50.5372H8.86535V46.778ZM58.2422 55.7945H1.75781V52.295H58.2422V55.7945Z" fill="#0082C5"/>
<path d="M17.2139 29.1135H25.8443C26.6886 29.1135 27.3756 28.4265 27.3756 27.5821V21.6307C27.3756 20.7864 26.6886 20.0994 25.8443 20.0994H23.8586V19.5724C23.8586 18.2879 22.8136 17.243 21.5291 17.243C20.2446 17.243 19.1996 18.2879 19.1996 19.5724V20.0994H17.2139C16.3696 20.0994 15.6826 20.7864 15.6826 21.6307V27.5821C15.6825 28.4264 16.3696 29.1135 17.2139 29.1135ZM20.9575 19.5723C20.9575 19.2572 21.2139 19.0007 21.5291 19.0007C21.8443 19.0007 22.1007 19.2571 22.1007 19.5723V20.0993H20.9575V19.5723ZM17.4403 21.8571H25.6179V27.3557H17.4404V21.8571H17.4403Z" fill="#0082C5"/>
</g>
<defs>
<clipPath id="clip0">
<rect width="60" height="60" fill="white"/>
</clipPath>
</defs>
</svg>
