<svg width="60" height="60" viewBox="0 0 60 60" fill="none" xmlns="http://www.w3.org/2000/svg">
<g clip-path="url(#clip0)">
<path d="M4.26191 24.6448V42.7148C4.26191 43.2004 4.65543 43.5938 5.14082 43.5938C5.62621 43.5938 6.01973 43.2004 6.01973 42.7148V24.6445C7.37031 24.4049 8.53598 23.6248 9.28363 22.5352C10.1895 23.8553 11.7085 24.7232 13.4268 24.7232C15.1452 24.7232 16.6642 23.8553 17.5701 22.5352C18.4759 23.8553 19.9949 24.7232 21.7132 24.7232C23.4317 24.7232 24.9507 23.8553 25.8565 22.5352C26.7624 23.8553 28.2814 24.7232 29.9997 24.7232C31.718 24.7232 33.2371 23.8553 34.1429 22.5352C35.0487 23.8553 36.5677 24.7232 38.2861 24.7232C40.0045 24.7232 41.5236 23.8553 42.4293 22.5352C43.3352 23.8553 44.8541 24.7232 46.5726 24.7232C48.2909 24.7232 49.81 23.8553 50.7157 22.5352C51.4634 23.6246 52.6291 24.4049 53.9796 24.6445V27.9492C53.9796 28.4347 54.3732 28.8281 54.8586 28.8281C55.3439 28.8281 55.7375 28.4347 55.7375 27.9492V24.6448C58.0891 24.2279 59.8812 22.1706 59.8812 19.7011V17.4519H59.8797C59.8797 17.3159 59.8497 17.1796 59.7862 17.0543L52.0389 1.77809C51.483 0.681445 50.3734 0 49.1437 0H38.7515C38.749 0 38.7466 0 38.7441 0H21.255C21.253 0 21.2509 0 21.2489 0H10.8559C9.62617 0 8.51664 0.681445 7.96047 1.77809L0.213203 17.0543C0.149687 17.1796 0.119688 17.3159 0.119688 17.4519H0.118164V19.7011C0.118164 22.1706 1.91031 24.2279 4.26191 24.6448ZM5.14035 22.9655C3.34047 22.9655 1.87609 21.5011 1.87609 19.7012V18.3309H8.40473V19.7012C8.40473 21.5011 6.94035 22.9655 5.14035 22.9655ZM20.145 1.75781L16.8645 16.573H10.5392L15.9361 1.75781H20.145ZM26.208 1.75781L25.0439 16.573H18.6648L21.9454 1.75781H26.208ZM32.0283 1.75781L33.1923 16.573H26.8073L27.9713 1.75781H32.0283ZM38.0542 1.75781L41.3348 16.573H34.9557L33.7916 1.75781H38.0542ZM44.0635 1.75781L49.4604 16.573H43.1351L39.8546 1.75781H44.0635ZM13.4268 22.9655C11.6269 22.9655 10.1625 21.5011 10.1625 19.7012V18.3309H16.6912V19.7012C16.6912 21.5011 15.2268 22.9655 13.4268 22.9655ZM21.7134 22.9655C19.9135 22.9655 18.4491 21.5011 18.4491 19.7012V18.3309H24.9777V19.7012C24.9777 21.5011 23.5132 22.9655 21.7134 22.9655ZM29.9998 22.9655C28.1999 22.9655 26.7355 21.5011 26.7355 19.7012V18.3309H33.2642V19.7012C33.2641 21.5011 31.7997 22.9655 29.9998 22.9655ZM38.2862 22.9655C36.4862 22.9655 35.0219 21.5011 35.0219 19.7012V18.3309H41.5505V19.7012C41.5506 21.5011 40.0863 22.9655 38.2862 22.9655ZM46.5728 22.9655C44.7728 22.9655 43.3084 21.5011 43.3084 19.7012V18.3309H49.8371V19.7012C49.8371 21.5011 48.3727 22.9655 46.5728 22.9655ZM54.8593 22.9655C53.0593 22.9655 51.5949 21.5011 51.5949 19.7012V18.3309H58.1235V19.7012C58.1236 21.5011 56.6593 22.9655 54.8593 22.9655ZM50.4714 2.5732L57.5713 16.573H51.3312L45.9343 1.75781H49.1437C49.7076 1.75781 50.2164 2.07023 50.4714 2.5732ZM9.5282 2.5732C9.7832 2.07023 10.292 1.75781 10.8559 1.75781H14.0654L8.6684 16.573H2.42828L9.5282 2.5732Z" fill="#0082C5"/>
<path d="M26.9219 29.5955C26.4365 29.5955 26.043 29.9889 26.043 30.4744V50.8355C26.043 51.321 26.4365 51.7144 26.9219 51.7144H51.0711C51.5564 51.7144 51.95 51.321 51.95 50.8355V30.4744C51.95 29.9889 51.5564 29.5955 51.0711 29.5955H26.9219ZM27.8008 31.3533H50.1921V46.1685H27.8008V31.3533ZM50.1921 49.9566H27.8008V47.9263H50.1921V49.9566Z" fill="#0082C5"/>
<path d="M19.3457 39.1837C18.8603 39.1837 18.4668 39.5771 18.4668 40.0626V44.7977C18.4668 45.2832 18.8603 45.6766 19.3457 45.6766C19.8311 45.6766 20.2246 45.2832 20.2246 44.7977V40.0626C20.2246 39.5772 19.8312 39.1837 19.3457 39.1837Z" fill="#0082C5"/>
<path d="M57.9375 54.4544H55.7379V32.0517C55.7379 31.5661 55.3444 31.1727 54.859 31.1727C54.3736 31.1727 53.9801 31.5661 53.9801 32.0517V54.4544H24.013V30.4744C24.013 29.9889 23.6195 29.5955 23.1341 29.5955H8.92863C8.44324 29.5955 8.04973 29.9889 8.04973 30.4744V54.4544H6.01992V46.8173C6.01992 46.3318 5.62641 45.9384 5.14102 45.9384C4.65562 45.9384 4.26211 46.3318 4.26211 46.8173V54.4544H2.0625C0.925195 54.4544 0 55.3802 0 56.5181V57.9384C0 59.0756 0.925313 60.0009 2.0625 60.0009H47.6004C48.0858 60.0009 48.4793 59.6075 48.4793 59.122C48.4793 58.6365 48.0858 58.2431 47.6004 58.2431H2.0625C1.89445 58.2431 1.75781 58.1064 1.75781 57.9384V56.5181C1.75781 56.3494 1.89457 56.2122 2.0625 56.2122H57.9375C58.1055 56.2122 58.2422 56.3494 58.2422 56.5181V57.9384C58.2422 58.1064 58.1054 58.2431 57.9375 58.2431H51.702C51.2166 58.2431 50.823 58.6365 50.823 59.122C50.823 59.6075 51.2166 60.0009 51.702 60.0009H57.9375C59.0748 60.0009 60 59.0756 60 57.9384V56.5181C60 55.3802 59.0747 54.4544 57.9375 54.4544ZM9.80754 31.3533H22.2552V54.4544H9.80754V31.3533Z" fill="#0082C5"/>
<path d="M44.9545 35.9345L40.9297 34.277C40.5791 34.1327 40.1748 34.2295 39.9277 34.5178L38.7703 35.8681H36.9254C34.4825 35.8681 32.4951 37.8555 32.4951 40.2984V42.4293C32.4951 42.9148 32.8886 43.3082 33.374 43.3082H44.6199C45.1053 43.3082 45.4988 42.9148 45.4988 42.4293V36.7471C45.4988 36.3909 45.2839 36.0699 44.9545 35.9345ZM43.741 41.5503H34.2529V40.2983C34.2529 38.8248 35.4518 37.6258 36.9254 37.6258H39.1746C39.4311 37.6258 39.675 37.5137 39.8418 37.3189L40.8485 36.1446L43.741 37.3355V41.5503Z" fill="#0082C5"/>
</g>
<defs>
<clipPath id="clip0">
<rect width="60" height="60" fill="white"/>
</clipPath>
</defs>
</svg>
