<svg width="60" height="60" viewBox="0 0 60 60" fill="none" xmlns="http://www.w3.org/2000/svg">
<path d="M17.768 20.5051C18.2511 20.7842 18.7872 20.927 19.3308 20.927C19.6035 20.927 19.878 20.891 20.1486 20.8185C21.8172 20.3677 22.8122 18.6431 22.3664 16.974C22.15 16.1634 21.6308 15.4861 20.9046 15.0667C20.1788 14.6474 19.333 14.536 18.5231 14.7526C18.5229 14.7526 18.5227 14.7526 18.5225 14.7527C17.7131 14.9699 17.0366 15.4898 16.6178 16.2169C16.1989 16.9439 16.0886 17.7901 16.3065 18.5976C16.5229 19.4081 17.042 20.0854 17.768 20.5051ZM18.141 17.0942C18.3252 16.7744 18.6224 16.5458 18.9779 16.4505C19.3348 16.3553 19.7065 16.4045 20.0255 16.5888C20.3448 16.7731 20.573 17.071 20.6681 17.4275C20.8645 18.1629 20.4259 18.9228 19.6918 19.1211C19.3375 19.2164 18.9663 19.1675 18.6475 18.9832C18.3282 18.7987 18.1001 18.5008 18.0043 18.1421C17.9082 17.786 17.9568 17.4139 18.141 17.0942Z" fill="#0082C5"/>
<path d="M54.8592 28.5061H54.3207C54.32 28.5061 54.3193 28.5061 54.3186 28.5061H49.5364L53.315 24.7269C53.8738 24.1678 54.1809 23.4226 54.1801 22.6287C54.1793 21.837 53.872 21.0949 53.315 20.539L44.2576 11.4744C44.138 11.3542 44.0092 11.2462 43.8736 11.1498C43.3499 9.24996 42.1253 7.66266 40.4187 6.67664C38.6957 5.68125 36.6885 5.41711 34.766 5.93332C33.0334 6.39996 31.513 7.53 30.3701 9.20004L30.326 9.26414C29.8332 9.98285 29.3235 10.7261 28.4884 10.9496L25.3529 11.7907C24.5149 12.0152 23.7009 11.6255 22.9137 11.2488L22.8523 11.2194C21.028 10.3417 19.1463 10.1232 17.4103 10.5873C15.6353 11.0631 14.1354 12.1637 13.1477 13.6416L12.3495 10.659C14.2666 10.4102 15.7529 8.76703 15.7529 6.78199C15.7529 4.62551 13.9996 2.87109 11.8445 2.87109H3.90855C1.75336 2.87109 0 4.62551 0 6.78199C0 8.93836 1.75336 10.6928 3.90855 10.6928H4.68563L6.62379 17.9302C6.72891 18.323 7.08422 18.582 7.47223 18.582C7.54758 18.582 7.62398 18.5722 7.70016 18.5518C8.16902 18.4263 8.44734 17.9443 8.32184 17.4755L6.50543 10.6928H10.5387L12.8387 19.2855L13.7027 22.5176C13.7041 22.523 13.7065 22.528 13.708 22.5334L15.3067 28.5062H11.2734L9.33164 21.2457C9.20625 20.7768 8.72367 20.4982 8.25551 20.6238C7.78652 20.7492 7.50809 21.231 7.63348 21.7L9.45375 28.5062H5.14078C5.06918 28.5062 4.99699 28.5084 4.92434 28.5117C4.8873 28.5132 4.85051 28.5154 4.81383 28.5177C4.79344 28.5191 4.77281 28.5207 4.75219 28.5224C2.09859 28.722 0 30.9446 0 33.6503V45.5286C0 48.3652 2.30613 50.6728 5.14078 50.6728H6.31617C6.75176 54.3042 9.84727 57.1289 13.5916 57.1289C17.3377 57.1289 20.4347 54.3042 20.8704 50.6728H37.9569C38.3925 54.3042 41.488 57.1289 45.2324 57.1289C48.9784 57.1289 52.0754 54.3042 52.5111 50.6728H54.8591C57.6937 50.6728 59.9999 48.3652 59.9999 45.5286V33.6503C60 30.8137 57.6939 28.5061 54.8592 28.5061ZM3.90855 8.93496C2.72262 8.93496 1.75781 7.9691 1.75781 6.78199C1.75781 5.59477 2.72262 4.62891 3.90855 4.62891H11.8445C13.0303 4.62891 13.9951 5.59477 13.9951 6.78199C13.9951 7.9691 13.0304 8.93496 11.8445 8.93496H3.90855ZM42.1642 12.3649H42.1655C42.4873 12.3653 42.7878 12.4894 43.0128 12.7157L52.0716 21.7815C52.072 21.7819 52.0725 21.7823 52.073 21.7828C52.298 22.0071 52.4221 22.308 52.4223 22.6304C52.4227 22.9545 52.2981 23.2577 52.0718 23.4843L47.0507 28.5061H43.7082L46.3253 20.3645C46.5578 19.6384 46.4817 19.0763 46.0991 18.6939C45.7164 18.3116 45.1548 18.2357 44.4281 18.4686L35.1968 21.4406C34.7348 21.5895 34.4809 22.0846 34.6296 22.5466C34.7784 23.0087 35.2733 23.2627 35.7356 23.1139L38.964 22.0746L42.7207 25.8342L41.8618 28.5062H37.2785L32.2576 23.4846C32.0311 23.2579 31.9066 22.9547 31.907 22.6305C31.9073 22.3082 32.0314 22.0071 32.2579 21.7814L38.1748 15.8576C38.1925 15.8413 38.2093 15.8244 38.2255 15.8068L41.3132 12.7157C41.5392 12.4895 41.8413 12.3649 42.1642 12.3649ZM43.3254 23.9525L40.8441 21.4692L44.5023 20.2915L43.3254 23.9525ZM26.3207 20.8168C26.6551 20.4253 27.0404 20.1027 27.5456 19.9678L30.6776 19.1269C31.2168 18.9825 31.7456 19.0914 32.2638 19.288L31.0157 20.5376C30.4577 21.0936 30.15 21.8363 30.1492 22.6286C30.1484 23.4225 30.4555 24.1677 31.0145 24.727L34.7927 28.506H28.3775L26.3207 20.8168ZM26.558 28.5061H17.1264L16.0464 24.4711C17.0658 24.9732 18.1894 25.2367 19.3311 25.2367C19.9744 25.2367 20.6235 25.1531 21.2625 24.9816C22.6707 24.6057 23.9387 23.7893 24.9777 22.5989L26.558 28.5061ZM35.3619 13.49C35.165 12.7528 35.6027 11.9931 36.3376 11.7966C36.4567 11.7647 36.5775 11.749 36.6974 11.749C36.9368 11.749 37.1732 11.8118 37.3859 11.9346C37.7051 12.1189 37.9332 12.4168 38.029 12.7752C38.0954 13.0219 38.0895 13.2848 38.015 13.53L37.0952 14.4509C37.0802 14.4552 37.0665 14.4598 37.0505 14.464C36.696 14.5597 36.3248 14.5116 36.0057 14.3278C35.6859 14.1435 35.4571 13.8457 35.3619 13.49ZM14.4858 18.6408L13.8524 16.2714C14.3889 14.3265 15.9093 12.8094 17.8648 12.2852C19.537 11.8382 21.0857 12.3199 22.0921 12.8043L22.155 12.8344C23.0782 13.2761 24.3422 13.8809 25.808 13.4885L28.9434 12.6475C30.4057 12.2559 31.1974 11.1013 31.7756 10.2582L31.8198 10.1938C32.45 9.27281 33.5521 8.08055 35.2222 7.63066C36.6902 7.23656 38.2232 7.43824 39.5392 8.19855C40.5337 8.77324 41.3146 9.61512 41.8069 10.6266C41.7973 10.6277 41.7891 10.6308 41.7797 10.6323C41.1332 10.7153 40.5364 11.0059 40.0696 11.4731L39.5999 11.9434C39.3389 11.3004 38.8757 10.765 38.2651 10.4123C37.5394 9.99316 36.6932 9.88172 35.8836 10.0983C34.2127 10.5451 33.2168 12.2701 33.6639 13.944C33.881 14.7546 34.4012 15.4318 35.1287 15.8509C35.2527 15.9224 35.3802 15.9845 35.5104 16.0378L33.6116 17.9388L33.5978 17.9503C32.7033 17.5301 31.5455 17.075 30.2223 17.4291L27.0911 18.2699C25.6227 18.662 24.83 19.8176 24.2514 20.6612L24.2101 20.7212C23.5801 21.6441 22.4788 22.8376 20.8083 23.2834C18.8537 23.8083 16.7797 23.2561 15.3429 21.8422L14.4858 18.6408ZM16.4484 30.2639C16.4494 30.2639 16.4503 30.2641 16.4513 30.2641C16.4524 30.2641 16.4536 30.2639 16.4548 30.2639H27.6996C27.7005 30.2639 27.7015 30.2641 27.7024 30.2641C27.7036 30.2641 27.7048 30.2639 27.7059 30.2639H36.9144H45.3574C40.7614 33.6795 35.1848 35.5373 29.4137 35.5373C23.6425 35.5373 18.0659 33.6795 13.47 30.2639H16.4484ZM13.5916 55.3711C10.5191 55.3711 8.01949 52.8691 8.01949 49.7939C8.01949 46.7168 10.5191 44.2133 13.5916 44.2133C16.6659 44.2133 19.1671 46.7167 19.1671 49.7939C19.1672 52.8691 16.6661 55.3711 13.5916 55.3711ZM45.2324 55.3711C42.1598 55.3711 39.6602 52.8691 39.6602 49.7939C39.6602 46.7168 42.1598 44.2133 45.2324 44.2133C48.3067 44.2133 50.8078 46.7167 50.8078 49.7939C50.8079 52.8691 48.3068 55.3711 45.2324 55.3711ZM58.2422 45.5286C58.2422 47.3959 56.7246 48.915 54.8592 48.915H52.5112C52.0757 45.2817 48.9786 42.4555 45.2324 42.4555C41.4879 42.4555 38.3923 45.2817 37.9569 48.915H20.8705C20.4349 45.2817 17.3379 42.4555 13.5916 42.4555C9.84715 42.4555 6.75152 45.2817 6.31617 48.915H5.14078C3.27539 48.915 1.75781 47.3958 1.75781 45.5286V33.6503C1.75781 32.1045 2.7982 30.7983 4.21465 30.394C7.03769 33.6858 10.4173 36.3577 14.2706 38.3367C18.4035 40.4593 22.8591 41.6687 27.514 41.9314C27.531 41.9324 27.5476 41.9328 27.5644 41.9328C28.027 41.9328 28.4147 41.5712 28.4411 41.1034C28.4684 40.6188 28.0977 40.2038 27.6131 40.1763C19.5695 39.7225 11.9591 36.1359 6.45633 30.2639H10.5955C10.5964 30.2639 10.5974 30.2641 10.5983 30.2641C10.5995 30.2641 10.6007 30.2639 10.6018 30.2639H10.6744C15.8705 34.7998 22.5108 37.2952 29.4139 37.2952C36.317 37.2952 42.9573 34.7998 48.1535 30.2639H52.3686C46.9236 36.07 39.4097 39.65 31.4671 40.1602C30.9826 40.1912 30.6151 40.6092 30.6463 41.0936C30.6762 41.5588 31.0628 41.9162 31.5225 41.9162C31.5415 41.9162 31.5606 41.9156 31.5797 41.9143C36.1918 41.6181 40.6045 40.3903 44.695 38.2649C48.542 36.266 51.9132 33.5741 54.7244 30.2639H54.8595C56.7248 30.2639 58.2424 31.783 58.2424 33.6503V45.5286H58.2422Z" fill="#0082C5"/>
<path d="M13.5912 45.9389C11.4672 45.9389 9.73926 47.6679 9.73926 49.7932C9.73926 51.9185 11.4672 53.6475 13.5912 53.6475C15.7152 53.6475 17.4432 51.9185 17.4432 49.7932C17.4432 47.6679 15.7152 45.9389 13.5912 45.9389ZM13.5912 51.8897C12.4364 51.8897 11.4971 50.9493 11.4971 49.7932C11.4971 48.6371 12.4366 47.6967 13.5912 47.6967C14.7459 47.6967 15.6854 48.6371 15.6854 49.7932C15.6854 50.9493 14.746 51.8897 13.5912 51.8897Z" fill="#0082C5"/>
<path d="M45.2318 45.9389C43.1078 45.9389 41.3799 47.6679 41.3799 49.7932C41.3799 51.9185 43.1078 53.6475 45.2318 53.6475C47.3559 53.6475 49.0838 51.9185 49.0838 49.7932C49.0838 47.6679 47.3559 45.9389 45.2318 45.9389ZM45.2318 51.8897C44.0771 51.8897 43.1377 50.9493 43.1377 49.7932C43.1377 48.6371 44.0772 47.6967 45.2318 47.6967C46.3865 47.6967 47.326 48.6371 47.326 49.7932C47.326 50.9493 46.3866 51.8897 45.2318 51.8897Z" fill="#0082C5"/>
</svg>
