<svg width="60" height="60" viewBox="0 0 60 60" fill="none" xmlns="http://www.w3.org/2000/svg">
<path d="M56 15H38.889C39.997 13.9175 40.7135 12.4973 40.926 10.963C44.948 10.647 45.963 8.245 46.641 5.786C46.8862 4.88291 46.6959 3.91714 46.1265 3.17454C45.5571 2.43193 44.6738 1.99757 43.738 2H41C41 0.89543 40.1046 0 39 0H21C19.8954 0 19 0.89543 19 2V10C18.9996 11.8834 19.761 13.6868 21.111 15H4C2.34315 15 1 16.3431 1 18V20.829C0.985935 23.2406 2.64884 25.3383 5 25.875V53H3C1.34315 53 0 54.3431 0 56V58C0 59.1046 0.89543 60 2 60H58C59.1046 60 60 59.1046 60 58V56C60 54.3431 58.6569 53 57 53H55V25.875C57.3512 25.3383 59.0141 23.2406 59 20.829V18C59 16.3431 57.6569 15 56 15ZM43.738 4C44.0528 4 44.3491 4.14819 44.538 4.4C44.7259 4.64246 44.7888 4.95912 44.708 5.255C44.088 7.52 43.465 8.717 41 8.953V4H43.738ZM21 10V7H24C24.5523 7 25 6.55228 25 6C25 5.44772 24.5523 5 24 5H21V2H39V5H28C27.4477 5 27 5.44772 27 6C27 6.55228 27.4477 7 28 7H39V10C38.9967 12.7601 36.7601 14.9967 34 15H26C23.2399 14.9967 21.0033 12.7601 21 10ZM53 53H49V32C49 30.8954 48.1046 30 47 30H37C35.8954 30 35 30.8954 35 32V53H16C15.4477 53 15 53.4477 15 54C15 54.5523 15.4477 55 16 55H57C57.5523 55 58 55.4477 58 56V58H2V56C2 55.4477 2.44772 55 3 55H11C11.5523 55 12 54.5523 12 54C12 53.4477 11.5523 53 11 53H7V25.9C8.20125 25.6674 9.27445 24.9998 10.014 24.025C10.9571 25.2748 12.4343 26.0067 14 26C15.5736 26.0006 17.0575 25.2674 18.013 24.017C18.9541 25.2707 20.4324 26.0059 22 26C23.5736 26.0006 25.0575 25.2674 26.013 24.017C26.9541 25.2707 28.4324 26.0059 30 26C31.5736 26.0006 33.0575 25.2674 34.013 24.017C34.9541 25.2707 36.4324 26.0059 38 26C39.5736 26.0006 41.0575 25.2674 42.013 24.017C42.9541 25.2707 44.4324 26.0059 46 26C47.578 26.0137 49.0613 25.2487 49.965 23.955C50.6982 24.9586 51.7812 25.6505 53 25.894V53ZM47 53H37V32H47V53ZM57 20.829C57.0346 22.4151 55.8723 23.7741 54.3 23.986C53.2429 24.0898 52.2094 23.6284 51.581 22.772C51.2241 22.2829 50.6555 21.9932 50.05 21.992C49.3996 21.9854 48.785 22.2897 48.396 22.811C47.829 23.5613 46.943 24.0024 46.0025 24.0024C45.062 24.0024 44.176 23.5613 43.609 22.811C43.2317 22.3027 42.636 22.003 42.003 22.003C41.37 22.003 40.7743 22.3027 40.397 22.811C39.83 23.5617 38.9438 24.003 38.003 24.003C37.0622 24.003 36.176 23.5617 35.609 22.811C35.2176 22.3249 34.6271 22.0423 34.003 22.0423C33.3789 22.0423 32.7884 22.3249 32.397 22.811C31.83 23.5617 30.9438 24.003 30.003 24.003C29.0622 24.003 28.176 23.5617 27.609 22.811C27.2176 22.3249 26.6271 22.0423 26.003 22.0423C25.3789 22.0423 24.7884 22.3249 24.397 22.811C23.83 23.5617 22.9438 24.003 22.003 24.003C21.0622 24.003 20.176 23.5617 19.609 22.811C19.2176 22.3249 18.6271 22.0423 18.003 22.0423C17.3789 22.0423 16.7884 22.3249 16.397 22.811C15.83 23.5613 14.944 24.0024 14.0035 24.0024C13.063 24.0024 12.177 23.5613 11.61 22.811C11.2215 22.2981 10.6164 21.9953 9.973 21.992H9.953C9.34772 21.993 8.77912 22.2823 8.422 22.771C7.7943 23.63 6.75859 24.0923 5.7 23.986C4.12796 23.7737 2.96589 22.4149 3 20.829V18C3 17.4477 3.44772 17 4 17H56C56.5523 17 57 17.4477 57 18V20.829Z" fill="#0082C5"/>
<path d="M29 30H13C11.8954 30 11 30.8954 11 32V48C11 49.1046 11.8954 50 13 50H29C30.1046 50 31 49.1046 31 48V32C31 30.8954 30.1046 30 29 30ZM29 32V44H13V32H29ZM13 48V46H29V48H13Z" fill="#0082C5"/>
<path d="M44 45.9994C44.5523 45.9994 45 45.5517 45 44.9994V39.9994C45 39.4471 44.5523 38.9994 44 38.9994C43.4477 38.9994 43 39.4471 43 39.9994V44.9994C43 45.5517 43.4477 45.9994 44 45.9994Z" fill="#0082C5"/>
<path d="M15.9998 36.9999C16.265 36.9998 16.5193 36.8944 16.7068 36.7069L17.7068 35.7069C18.0858 35.3145 18.0804 34.6908 17.6946 34.305C17.3089 33.9193 16.6852 33.9139 16.2928 34.2929L15.2928 35.2929C15.0069 35.5789 14.9214 36.0089 15.0761 36.3825C15.2309 36.7561 15.5954 36.9998 15.9998 36.9999Z" fill="#0082C5"/>
<path d="M15.9998 41.9999C16.265 41.9998 16.5193 41.8944 16.7068 41.7069L22.7068 35.7069C23.0858 35.3145 23.0804 34.6908 22.6946 34.305C22.3089 33.9193 21.6852 33.9139 21.2928 34.2929L15.2928 40.2929C15.0069 40.5789 14.9214 41.0089 15.0761 41.3825C15.2309 41.7561 15.5954 41.9998 15.9998 41.9999Z" fill="#0082C5"/>
</svg>
