<svg width="178" height="178" viewBox="0 0 178 178" fill="none" xmlns="http://www.w3.org/2000/svg">
<path d="M90.8561 126.668C87.2673 126.668 84.1206 129.065 83.1672 132.525C81.9643 136.89 77.3449 139.42 73.235 137.518C66.115 134.225 59.5843 129.676 53.9544 124.046C48.3244 118.416 43.7755 111.885 40.4816 104.765C38.5803 100.655 41.1096 96.0358 45.4753 94.8328C48.9351 93.8795 51.332 90.7327 51.332 87.1439V61.104C51.332 55.5812 46.8549 51.104 41.332 51.104H10C4.47716 51.104 0 55.5812 0 61.104V76.77C0 103.81 10.5298 129.231 29.6495 148.351C48.7691 167.47 74.1904 178 101.23 178H116.896C122.419 178 126.896 173.523 126.896 168V136.668C126.896 131.145 122.419 126.668 116.896 126.668H90.8561Z" fill="white"/>
<path d="M151.931 26.0679C135.121 9.25774 112.771 0.000366211 88.9987 0.000366211C66.9719 0.000366211 46.1667 7.94793 29.858 22.4871C27.7081 24.4038 27.7174 27.7189 29.7541 29.7554C31.7906 31.7919 35.082 31.7768 37.2465 29.8768C51.5744 17.2992 69.7588 10.4304 88.9987 10.4304C109.986 10.4304 129.716 18.6031 144.556 33.4428C159.396 48.2824 167.568 68.0133 167.568 88.9999C167.568 108.24 160.699 126.424 148.122 140.752C146.222 142.916 146.207 146.208 148.243 148.245C150.28 150.281 153.595 150.29 155.512 148.14C170.051 131.832 177.999 111.027 177.999 88.9999C177.999 65.2272 168.741 42.8774 151.931 26.0679Z" fill="white"/>
<path d="M80.7779 89.3926V78.9455H101.655V47.6384H70.3438V58.0684H91.2246V68.5155H70.3476V99.8226H101.659V89.3926H80.7779Z" fill="white"/>
<path d="M132.979 47.6346V68.5159H122.532V47.6346H112.102V78.9459H132.979V99.8271H143.409V47.6346H132.979Z" fill="white"/>
</svg>
