<svg width="335" height="134" viewBox="0 0 335 134" fill="none" xmlns="http://www.w3.org/2000/svg">
<path d="M0 114.912V97.344L33.552 69.84C40.176 64.368 44.736 60 47.232 56.736C49.728 53.376 50.976 49.68 50.976 45.648C50.976 41.52 49.728 38.304 47.232 36C44.736 33.696 41.472 32.544 37.44 32.544C33.696 32.544 30.288 33.6 27.216 35.712C24.24 37.728 20.784 41.184 16.848 46.08L1.296 33.552C6.576 26.352 12 21.072 17.568 17.712C23.232 14.352 30.336 12.672 38.88 12.672C49.344 12.672 57.744 15.552 64.08 21.312C70.416 26.976 73.584 34.56 73.584 44.064C73.584 49.536 72.528 54.48 70.416 58.896C68.304 63.216 65.568 67.056 62.208 70.416C58.848 73.68 53.808 77.904 47.088 83.088L30.672 95.76H74.592V114.912H0Z" fill="white"/>
<path d="M137.865 114.912V93.168H88.6174L85.0174 77.472L140.313 13.392H159.033V75.168H172.569V93.168H159.033V114.912H137.865ZM111.081 75.168H137.865V43.776L111.081 75.168Z" fill="white"/>
<path d="M172.99 133.344L236.782 0H255.358L191.566 133.344H172.99Z" fill="white"/>
<path d="M264.071 114.912L309.143 33.264H261.767V14.112H334.343V30.816L289.127 114.912H264.071Z" fill="white"/>
</svg>
