<svg width="120" height="40" viewBox="0 0 120 40" fill="none" xmlns="http://www.w3.org/2000/svg">
<g clip-path="url(#clip0)">
<path d="M110.444 -7.3291e-06H9.56145C9.19372 -7.3291e-06 8.8304 -7.32904e-06 8.46364 0.00199267C8.15663 0.00399267 7.85207 0.00980267 7.54211 0.0146927C6.86874 0.0225945 6.19695 0.0816689 5.53259 0.191403C4.86915 0.303525 4.2265 0.514908 3.62637 0.818403C3.02697 1.12446 2.47929 1.52216 2.00318 1.99706C1.52457 2.47063 1.12561 3.01801 0.82165 3.61815C0.516847 4.2171 0.305496 4.85893 0.194896 5.52147C0.083244 6.18318 0.0231632 6.85251 0.0151925 7.52347C0.00588648 7.83007 0.00490373 8.13769 0 8.44433V31.5586C0.00490373 31.8691 0.00588648 32.1699 0.0151925 32.4805C0.0231657 33.1514 0.0832464 33.8207 0.194896 34.4824C0.30519 35.1453 0.516554 35.7875 0.82165 36.3867C1.12548 36.9849 1.52449 37.5301 2.00318 38.001C2.47748 38.478 3.02552 38.876 3.62637 39.1797C4.2265 39.484 4.86908 39.6966 5.53259 39.8105C6.19707 39.9193 6.86879 39.9784 7.54211 39.9873C7.85207 39.9941 8.15663 39.998 8.46364 39.998C8.83039 40 9.19374 40 9.56145 40H110.444C110.804 40 111.171 40 111.531 39.998C111.837 39.998 112.15 39.9941 112.455 39.9873C113.128 39.9789 113.798 39.9198 114.461 39.8105C115.127 39.6958 115.772 39.4833 116.375 39.1797C116.975 38.8758 117.522 38.4778 117.996 38.001C118.474 37.5282 118.874 36.9834 119.181 36.3867C119.484 35.7871 119.693 35.1449 119.802 34.4824C119.914 33.8206 119.976 33.1515 119.988 32.4805C119.992 32.1699 119.992 31.8691 119.992 31.5586C120 31.1953 120 30.834 120 30.4648V9.53612C120 9.16991 120 8.80663 119.992 8.44433C119.992 8.13769 119.992 7.83007 119.988 7.52343C119.976 6.85242 119.914 6.18323 119.802 5.52143C119.693 4.85927 119.484 4.2175 119.181 3.61811C118.562 2.41519 117.581 1.43602 116.375 0.818313C115.772 0.51556 115.127 0.304233 114.461 0.191313C113.798 0.0810955 113.128 0.0220004 112.455 0.0145527C112.15 0.00967267 111.837 0.00381267 111.531 0.00186267C111.171 -0.000137329 110.804 -0.000137329 110.444 -0.000137329V-7.3291e-06Z" fill="#A6A6A6"/>
<path d="M8.46808 39.125C8.16254 39.125 7.86439 39.1211 7.56125 39.1143C6.93327 39.1061 6.30676 39.0516 5.68686 38.9512C5.10883 38.8519 4.54888 38.6673 4.02547 38.4033C3.50686 38.1415 3.03385 37.7983 2.62455 37.3867C2.20933 36.98 1.86363 36.5082 1.60117 35.9902C1.33582 35.4688 1.15218 34.9099 1.05665 34.333C0.953484 33.7131 0.897668 33.0863 0.889681 32.458C0.883323 32.2471 0.875 31.5449 0.875 31.5449V8.44434C0.875 8.44434 0.883865 7.75293 0.889731 7.5498C0.897379 6.92248 0.95287 6.29665 1.05573 5.67773C1.15143 5.09925 1.33522 4.53875 1.60071 4.01563C1.86221 3.49794 2.20598 3.02586 2.6187 2.61768C3.03096 2.20562 3.50549 1.8606 4.02498 1.59521C4.54718 1.33209 5.10608 1.14873 5.68294 1.05127C6.30488 0.949836 6.93356 0.894996 7.56371 0.88721L8.46857 0.875H111.526L112.441 0.8877C113.066 0.895099 113.689 0.94945 114.305 1.05029C114.888 1.14898 115.452 1.33362 115.98 1.59814C117.021 2.13299 117.868 2.97916 118.402 4.01807C118.664 4.53758 118.844 5.09351 118.939 5.66699C119.043 6.29099 119.101 6.92174 119.113 7.5542C119.116 7.8374 119.116 8.1416 119.116 8.44434C119.124 8.81934 119.124 9.17627 119.124 9.53613V30.4648C119.124 30.8281 119.124 31.1826 119.116 31.54C119.116 31.8652 119.116 32.1631 119.112 32.4697C119.101 33.0909 119.043 33.7104 118.941 34.3232C118.847 34.9043 118.665 35.4675 118.399 35.9932C118.135 36.5056 117.791 36.9733 117.381 37.3789C116.971 37.7927 116.497 38.1379 115.978 38.4014C115.451 38.6674 114.887 38.8527 114.305 38.9512C113.685 39.0522 113.058 39.1067 112.43 39.1143C112.137 39.1211 111.829 39.125 111.531 39.125L110.443 39.127L8.46808 39.125Z" fill="black"/>
<path d="M24.8389 20.3007C24.8496 19.466 25.072 18.6476 25.4851 17.9217C25.8983 17.1957 26.4889 16.5858 27.202 16.1486C26.749 15.5034 26.1514 14.9725 25.4566 14.598C24.7619 14.2234 23.9891 14.0156 23.1997 13.9909C21.5157 13.8147 19.8832 14.9958 19.0251 14.9958C18.1504 14.9958 16.8292 14.0084 15.4064 14.0376C14.4862 14.0673 13.5893 14.3341 12.8033 14.8122C12.0172 15.2902 11.3687 15.9632 10.921 16.7655C8.98154 20.1139 10.4282 25.035 12.286 27.7416C13.2155 29.0669 14.3018 30.5474 15.7232 30.4949C17.1142 30.4373 17.6337 29.6104 19.3127 29.6104C20.9761 29.6104 21.4635 30.4949 22.9138 30.4615C24.4063 30.4373 25.3467 29.1302 26.2436 27.7923C26.9115 26.848 27.4254 25.8043 27.7663 24.6998C26.8992 24.3341 26.1592 23.7219 25.6386 22.9396C25.118 22.1573 24.8399 21.2395 24.8389 20.3007Z" fill="white"/>
<path d="M22.0994 12.2109C22.9132 11.2367 23.3142 9.98449 23.2171 8.72026C21.9738 8.85048 20.8253 9.44304 20.0005 10.3799C19.5972 10.8375 19.2884 11.37 19.0916 11.9467C18.8948 12.5235 18.8139 13.1333 18.8536 13.7413C19.4754 13.7476 20.0907 13.6132 20.6529 13.3481C21.2151 13.0831 21.7097 12.6942 22.0994 12.2109Z" fill="white"/>
<path d="M42.4205 27.1396H37.6739L36.5339 30.4961H34.5234L39.0194 18.0781H41.1083L45.6043 30.4961H43.5595L42.4205 27.1396ZM38.1655 25.5908H41.928L40.0732 20.1435H40.0213L38.1655 25.5908Z" fill="white"/>
<path d="M55.314 25.9697C55.314 28.7832 53.8039 30.5908 51.5251 30.5908C50.9478 30.6209 50.3737 30.4883 49.8685 30.2082C49.3633 29.928 48.9474 29.5117 48.6685 29.0068H48.6253V33.4912H46.7617V21.4424H48.5656V22.9482H48.5999C48.8917 22.4458 49.3146 22.0316 49.8236 21.7497C50.3327 21.4679 50.9089 21.3289 51.4908 21.3476C53.7951 21.3477 55.314 23.1641 55.314 25.9697ZM53.3985 25.9697C53.3985 24.1367 52.4486 22.9316 50.9992 22.9316C49.5753 22.9316 48.6175 24.1621 48.6175 25.9697C48.6175 27.7939 49.5753 29.0156 50.9992 29.0156C52.4486 29.0156 53.3985 27.8193 53.3985 25.9697Z" fill="white"/>
<path d="M65.3062 25.9697C65.3062 28.7832 63.7961 30.5908 61.5173 30.5908C60.94 30.6209 60.3659 30.4883 59.8607 30.2082C59.3555 29.928 58.9396 29.5117 58.6606 29.0068H58.6175V33.4912H56.7539V21.4424H58.5578V22.9482H58.5921C58.8838 22.4458 59.3067 22.0316 59.8158 21.7497C60.3249 21.4679 60.901 21.3289 61.483 21.3476C63.7873 21.3476 65.3062 23.164 65.3062 25.9697ZM63.3907 25.9697C63.3907 24.1367 62.4407 22.9316 60.9914 22.9316C59.5675 22.9316 58.6097 24.1621 58.6097 25.9697C58.6097 27.7939 59.5675 29.0156 60.9914 29.0156C62.4408 29.0156 63.3907 27.8193 63.3907 25.9697H63.3907Z" fill="white"/>
<path d="M71.9116 27.0361C72.0497 28.2676 73.2494 29.0761 74.8887 29.0761C76.4595 29.0761 77.5896 28.2675 77.5896 27.1572C77.5896 26.1933 76.908 25.6162 75.2941 25.2207L73.6802 24.833C71.3936 24.2822 70.332 23.2158 70.332 21.4853C70.332 19.3427 72.2044 17.871 74.8632 17.871C77.4946 17.871 79.2985 19.3427 79.3592 21.4853H77.478C77.3653 20.246 76.338 19.498 74.8368 19.498C73.3355 19.498 72.3082 20.2548 72.3082 21.3564C72.3082 22.2343 72.9644 22.7509 74.5694 23.1464L75.9414 23.4823C78.4964 24.0849 79.558 25.1083 79.558 26.9247C79.558 29.248 77.7022 30.703 74.7506 30.703C71.989 30.703 70.1244 29.2821 70.0039 27.036L71.9116 27.0361Z" fill="white"/>
<path d="M83.5792 19.2998V21.4424H85.3058V22.914H83.5792V27.9053C83.5792 28.6806 83.9249 29.042 84.6839 29.042C84.8889 29.0384 85.0935 29.0241 85.2969 28.999V30.4619C84.9557 30.5254 84.6089 30.5542 84.2618 30.5478C82.4237 30.5478 81.7068 29.8593 81.7068 28.1035V22.914H80.3867V21.4424H81.7068V19.2998H83.5792Z" fill="white"/>
<path d="M86.3047 25.9697C86.3047 23.1211 87.9871 21.3311 90.6107 21.3311C93.2431 21.3311 94.9177 23.1211 94.9177 25.9697C94.9177 28.8262 93.2519 30.6084 90.6107 30.6084C87.9704 30.6084 86.3047 28.8262 86.3047 25.9697ZM93.0188 25.9697C93.0188 24.0156 92.1208 22.8623 90.6107 22.8623C89.1006 22.8623 88.2035 24.0244 88.2035 25.9697C88.2035 27.9316 89.1006 29.0762 90.6107 29.0762C92.1208 29.0762 93.0187 27.9316 93.0187 25.9697H93.0188Z" fill="white"/>
<path d="M96.457 21.4424H98.2345V22.9834H98.2776C98.3979 22.5021 98.6806 22.0768 99.0783 21.7789C99.476 21.481 99.9644 21.3287 100.461 21.3476C100.676 21.3469 100.89 21.3701 101.1 21.417V23.1552C100.829 23.0726 100.546 23.0347 100.263 23.0429C99.9919 23.032 99.722 23.0796 99.4714 23.1825C99.2209 23.2854 98.9956 23.4411 98.8111 23.639C98.6266 23.8369 98.4873 24.0722 98.4026 24.3289C98.318 24.5856 98.29 24.8575 98.3206 25.1259V30.4961H96.457L96.457 21.4424Z" fill="white"/>
<path d="M109.69 27.8369C109.439 29.4804 107.834 30.6084 105.781 30.6084C103.139 30.6084 101.5 28.8437 101.5 26.0127C101.5 23.1728 103.148 21.331 105.702 21.331C108.214 21.331 109.794 23.0517 109.794 25.7969V26.4336H103.381V26.5459C103.352 26.8791 103.393 27.2147 103.504 27.5306C103.614 27.8464 103.791 28.1352 104.022 28.3778C104.253 28.6203 104.533 28.8111 104.844 28.9374C105.154 29.0637 105.488 29.1226 105.824 29.1103C106.264 29.1515 106.706 29.0498 107.084 28.8203C107.462 28.5909 107.755 28.246 107.92 27.8369L109.69 27.8369ZM103.39 25.1347H107.929C107.946 24.8352 107.9 24.5353 107.795 24.2541C107.69 23.9729 107.528 23.7164 107.319 23.5006C107.11 23.2849 106.858 23.1145 106.58 23.0003C106.302 22.8861 106.003 22.8305 105.702 22.8369C105.399 22.8351 105.098 22.8932 104.817 23.008C104.536 23.1227 104.281 23.2918 104.066 23.5054C103.851 23.7191 103.681 23.973 103.565 24.2527C103.449 24.5323 103.389 24.8321 103.39 25.1348V25.1347Z" fill="white"/>
<path d="M37.9308 8.731C38.3216 8.70304 38.7136 8.7619 39.0787 8.90333C39.4439 9.04477 39.773 9.26525 40.0423 9.54887C40.3117 9.8325 40.5145 10.1722 40.6363 10.5435C40.758 10.9147 40.7956 11.3083 40.7463 11.6958C40.7463 13.6021 39.7132 14.6978 37.9308 14.6978H35.7695V8.731H37.9308ZM36.6989 13.854H37.827C38.1062 13.8706 38.3856 13.825 38.6449 13.7204C38.9041 13.6158 39.1368 13.4548 39.3258 13.2492C39.5148 13.0437 39.6555 12.7987 39.7376 12.5321C39.8197 12.2654 39.8411 11.9839 39.8003 11.708C39.8381 11.4332 39.8145 11.1534 39.7312 10.8887C39.6478 10.6241 39.5068 10.3811 39.3182 10.1771C39.1296 9.9732 38.8981 9.81339 38.6403 9.70916C38.3825 9.60492 38.1048 9.55884 37.827 9.57421H36.6989V13.854Z" fill="white"/>
<path d="M41.7952 12.4443C41.7668 12.1484 41.8008 11.8498 41.8949 11.5678C41.989 11.2857 42.1412 11.0264 42.3417 10.8064C42.5422 10.5864 42.7866 10.4106 43.0592 10.2904C43.3318 10.1701 43.6266 10.108 43.9247 10.108C44.2228 10.108 44.5176 10.1701 44.7903 10.2904C45.0629 10.4106 45.3073 10.5864 45.5078 10.8064C45.7083 11.0264 45.8605 11.2857 45.9546 11.5678C46.0487 11.8498 46.0826 12.1484 46.0542 12.4443C46.0831 12.7406 46.0496 13.0395 45.9557 13.3221C45.8619 13.6046 45.7098 13.8644 45.5092 14.0848C45.3087 14.3052 45.0641 14.4814 44.7912 14.6019C44.5183 14.7224 44.2232 14.7847 43.9247 14.7847C43.6263 14.7847 43.3311 14.7224 43.0582 14.6019C42.7853 14.4814 42.5408 14.3052 42.3402 14.0848C42.1396 13.8644 41.9876 13.6046 41.8937 13.3221C41.7998 13.0395 41.7663 12.7406 41.7952 12.4443ZM45.1376 12.4443C45.1376 11.4683 44.6979 10.8975 43.9262 10.8975C43.1516 10.8975 42.7158 11.4683 42.7158 12.4443C42.7158 13.4282 43.1516 13.9946 43.9262 13.9946C44.6979 13.9946 45.1376 13.4243 45.1376 12.4443H45.1376Z" fill="white"/>
<path d="M51.7172 14.6978H50.7927L49.8594 11.3813H49.7889L48.8596 14.6978H47.9439L46.6992 10.1948H47.6031L48.412 13.6308H48.4786L49.407 10.1948H50.2619L51.1903 13.6308H51.2608L52.0658 10.1948H52.957L51.7172 14.6978Z" fill="white"/>
<path d="M54.0039 10.1948H54.8618V10.9102H54.9284C55.0413 10.6532 55.2319 10.4379 55.4734 10.2941C55.715 10.1502 55.9955 10.0852 56.2759 10.1079C56.4956 10.0914 56.7162 10.1245 56.9214 10.2046C57.1266 10.2847 57.311 10.4098 57.4611 10.5706C57.6112 10.7314 57.7231 10.9239 57.7885 11.1337C57.8539 11.3435 57.8711 11.5654 57.8389 11.7827V14.6977H56.9477V12.0059C56.9477 11.2822 56.6324 10.9224 55.9733 10.9224C55.8241 10.9154 55.6752 10.9408 55.5368 10.9966C55.3983 11.0524 55.2736 11.1374 55.1712 11.2458C55.0688 11.3542 54.9911 11.4834 54.9434 11.6245C54.8958 11.7657 54.8793 11.9154 54.8951 12.0635V14.6978H54.0039L54.0039 10.1948Z" fill="white"/>
<path d="M59.2578 8.437H60.149V14.6977H59.2578V8.437Z" fill="white"/>
<path d="M61.389 12.4443C61.3606 12.1484 61.3946 11.8498 61.4887 11.5677C61.5828 11.2857 61.735 11.0263 61.9355 10.8063C62.1361 10.5863 62.3805 10.4106 62.6531 10.2903C62.9257 10.17 63.2206 10.1079 63.5187 10.1079C63.8168 10.1079 64.1117 10.17 64.3843 10.2903C64.6569 10.4106 64.9013 10.5863 65.1019 10.8063C65.3024 11.0263 65.4546 11.2857 65.5487 11.5677C65.6428 11.8498 65.6768 12.1484 65.6484 12.4443C65.6773 12.7406 65.6438 13.0396 65.5499 13.3221C65.456 13.6046 65.3039 13.8644 65.1033 14.0848C64.9027 14.3052 64.6581 14.4814 64.3852 14.6019C64.1123 14.7224 63.8172 14.7847 63.5187 14.7847C63.2202 14.7847 62.9251 14.7224 62.6522 14.6019C62.3793 14.4814 62.1347 14.3052 61.9341 14.0848C61.7335 13.8644 61.5814 13.6046 61.4875 13.3221C61.3936 13.0396 61.3601 12.7406 61.389 12.4443ZM64.7313 12.4443C64.7313 11.4683 64.2916 10.8975 63.5199 10.8975C62.7453 10.8975 62.3095 11.4683 62.3095 12.4444C62.3095 13.4282 62.7453 13.9946 63.5199 13.9946C64.2916 13.9946 64.7313 13.4243 64.7313 12.4443H64.7313Z" fill="white"/>
<path d="M66.5859 13.4243C66.5859 12.6138 67.1911 12.1465 68.2654 12.0801L69.4886 12.0098V11.6211C69.4886 11.1455 69.1733 10.877 68.5641 10.877C68.0667 10.877 67.7219 11.0591 67.623 11.3774H66.7603C66.8513 10.604 67.5809 10.1079 68.6053 10.1079C69.7373 10.1079 70.3758 10.6699 70.3758 11.6211V14.6977H69.518V14.0649H69.4475C69.3043 14.2919 69.1034 14.477 68.8651 14.6012C68.6268 14.7254 68.3597 14.7843 68.0911 14.7719C67.9016 14.7916 67.71 14.7714 67.5287 14.7127C67.3474 14.654 67.1805 14.5581 67.0387 14.4311C66.8969 14.3042 66.7833 14.149 66.7053 13.9756C66.6274 13.8021 66.5867 13.6144 66.5859 13.4243ZM69.4886 13.0395V12.6631L68.3859 12.7334C67.764 12.7749 67.482 12.9858 67.482 13.3828C67.482 13.7881 67.8345 14.0239 68.3193 14.0239C68.4614 14.0382 68.6049 14.0239 68.7412 13.9819C68.8776 13.9398 69.0041 13.8707 69.1132 13.7789C69.2223 13.6871 69.3118 13.5743 69.3763 13.4473C69.4407 13.3202 69.4789 13.1816 69.4886 13.0395Z" fill="white"/>
<path d="M71.5469 12.4443C71.5469 11.0215 72.2804 10.1201 73.4213 10.1201C73.7035 10.1071 73.9836 10.1746 74.2288 10.3144C74.474 10.4543 74.6742 10.6609 74.806 10.9101H74.8726V8.437H75.7638V14.6977H74.9098V13.9863H74.8393C74.6973 14.2338 74.4901 14.4378 74.2402 14.5763C73.9902 14.7148 73.707 14.7824 73.4213 14.7719C72.2725 14.772 71.5469 13.8706 71.5469 12.4443ZM72.4675 12.4443C72.4675 13.3994 72.9189 13.9741 73.674 13.9741C74.4251 13.9741 74.8893 13.3911 74.8893 12.4482C74.8893 11.5098 74.4202 10.9185 73.674 10.9185C72.9238 10.9185 72.4674 11.4971 72.4674 12.4443H72.4675Z" fill="white"/>
<path d="M79.4515 12.4443C79.4231 12.1484 79.457 11.8498 79.5511 11.5678C79.6452 11.2857 79.7974 11.0264 79.9979 10.8064C80.1984 10.5864 80.4428 10.4106 80.7154 10.2904C80.9881 10.1701 81.2829 10.108 81.581 10.108C81.8791 10.108 82.1739 10.1701 82.4465 10.2904C82.7191 10.4106 82.9635 10.5864 83.164 10.8064C83.3645 11.0264 83.5167 11.2857 83.6108 11.5678C83.7049 11.8498 83.7389 12.1484 83.7105 12.4443C83.7394 12.7406 83.7059 13.0395 83.612 13.3221C83.5181 13.6046 83.3661 13.8644 83.1655 14.0848C82.9649 14.3052 82.7204 14.4814 82.4475 14.6019C82.1746 14.7224 81.8794 14.7847 81.581 14.7847C81.2825 14.7847 80.9874 14.7224 80.7145 14.6019C80.4416 14.4814 80.197 14.3052 79.9964 14.0848C79.7959 13.8644 79.6438 13.6046 79.5499 13.3221C79.4561 13.0395 79.4226 12.7406 79.4515 12.4443ZM82.7938 12.4443C82.7938 11.4683 82.3541 10.8975 81.5824 10.8975C80.8078 10.8975 80.3721 11.4683 80.3721 12.4443C80.3721 13.4282 80.8078 13.9946 81.5824 13.9946C82.3541 13.9946 82.7938 13.4243 82.7938 12.4443Z" fill="white"/>
<path d="M84.9062 10.1948H85.7641V10.9102H85.8307C85.9437 10.6532 86.1342 10.4379 86.3758 10.2941C86.6173 10.1502 86.8978 10.0852 87.1782 10.1079C87.398 10.0914 87.6186 10.1245 87.8237 10.2046C88.0289 10.2847 88.2134 10.4098 88.3635 10.5706C88.5136 10.7314 88.6255 10.9239 88.6909 11.1337C88.7563 11.3435 88.7735 11.5654 88.7412 11.7827V14.6977H87.85V12.0059C87.85 11.2822 87.5347 10.9224 86.8756 10.9224C86.7265 10.9154 86.5775 10.9408 86.4391 10.9966C86.3007 11.0524 86.176 11.1374 86.0735 11.2458C85.9711 11.3542 85.8934 11.4834 85.8458 11.6245C85.7981 11.7657 85.7816 11.9154 85.7974 12.0635V14.6978H84.9062V10.1948Z" fill="white"/>
<path d="M93.777 9.07373V10.2153H94.7553V10.9639H93.777V13.2793C93.777 13.751 93.9718 13.9575 94.4155 13.9575C94.529 13.9572 94.6425 13.9503 94.7553 13.937V14.6772C94.5953 14.7058 94.4331 14.721 94.2705 14.7226C93.2795 14.7226 92.8848 14.375 92.8848 13.5068V10.9638H92.168V10.2153H92.8848V9.07373H93.777Z" fill="white"/>
<path d="M95.9727 8.437H96.856V10.9184H96.9265C97.045 10.6591 97.2407 10.4425 97.4871 10.2982C97.7335 10.1538 98.0185 10.0888 98.3033 10.1118C98.5219 10.0999 98.7404 10.1363 98.9433 10.2184C99.1461 10.3004 99.3283 10.4261 99.4768 10.5864C99.6254 10.7468 99.7366 10.9378 99.8026 11.146C99.8685 11.3541 99.8876 11.5742 99.8585 11.7905V14.6977H98.9664V12.0097C98.9664 11.2905 98.6305 10.9262 98.0008 10.9262C97.8477 10.9137 97.6936 10.9347 97.5494 10.9878C97.4052 11.0408 97.2744 11.1247 97.1661 11.2334C97.0578 11.3421 96.9747 11.4731 96.9225 11.6173C96.8702 11.7614 96.8502 11.9152 96.8639 12.0678V14.6977H95.9727L95.9727 8.437Z" fill="white"/>
<path d="M105.054 13.4819C104.933 13.8935 104.671 14.2495 104.313 14.4876C103.955 14.7258 103.525 14.8309 103.097 14.7847C102.8 14.7925 102.504 14.7357 102.231 14.6181C101.958 14.5006 101.713 14.3252 101.515 14.1041C101.316 13.8829 101.169 13.6214 101.082 13.3375C100.995 13.0537 100.971 12.7544 101.011 12.4604C100.972 12.1656 100.996 11.8656 101.083 11.581C101.17 11.2963 101.317 11.0335 101.514 10.8104C101.712 10.5874 101.955 10.4092 102.227 10.288C102.5 10.1668 102.795 10.1054 103.093 10.1079C104.35 10.1079 105.108 10.9639 105.108 12.3779V12.688H101.919V12.7378C101.905 12.903 101.926 13.0694 101.98 13.2261C102.035 13.3829 102.121 13.5266 102.234 13.648C102.348 13.7695 102.485 13.866 102.638 13.9314C102.791 13.9968 102.956 14.0296 103.122 14.0278C103.335 14.0533 103.551 14.015 103.742 13.9178C103.934 13.8206 104.092 13.6689 104.196 13.4819L105.054 13.4819ZM101.919 12.0308H104.2C104.211 11.8796 104.191 11.7278 104.14 11.5851C104.088 11.4424 104.008 11.3119 103.903 11.2021C103.799 11.0922 103.672 11.0054 103.532 10.9472C103.391 10.889 103.24 10.8608 103.089 10.8643C102.934 10.8623 102.781 10.8912 102.639 10.9491C102.496 11.0071 102.366 11.0929 102.257 11.2016C102.148 11.3104 102.062 11.4397 102.004 11.5821C101.946 11.7245 101.917 11.8771 101.919 12.0308H101.919Z" fill="white"/>
</g>
<defs>
<clipPath id="clip0">
<rect width="120" height="40" fill="white"/>
</clipPath>
</defs>
</svg>
