<svg width="180" height="40" viewBox="0 0 180 40" fill="none" xmlns="http://www.w3.org/2000/svg">
<g clip-path="url(#clip0)">
<path d="M0 15.1059L3.95811 11.1059C3.95811 11.1059 4.3822 10.7294 4.6178 10.5412C8.81152 7.52944 17.0576 5.88238 24.4555 8.00003L8.71728 23.8589L0 15.1059Z" fill="url(#paint0_linear)"/>
<path d="M3.91016 11.1059C3.91016 11.1059 4.56984 10.8706 5.46513 10.5882C6.0777 10.4 6.83162 10.2117 7.63267 10.0235C9.14052 9.6941 10.9311 9.36469 12.9573 9.22351C14.1353 9.12939 15.5018 9.12939 16.6327 9.17645C17.4337 9.22351 18.2819 9.27057 19.1772 9.41175C20.9206 9.64704 22.7583 10.0235 24.6431 10.5882C25.2557 10.7765 25.8683 10.9647 26.4808 11.2C27.2819 11.4823 28.0829 11.8117 28.884 12.1882C29.9206 12.6588 30.9573 13.2235 32.041 13.8353C33.5018 14.7294 34.9625 15.7647 36.329 16.9412L44.9049 8.37645C44.9049 8.37645 44.3395 7.76469 43.1615 6.63527C42.4547 5.97645 41.041 4.75292 38.7793 3.43527C38.0725 3.01175 37.2714 2.63527 36.4232 2.21175C35.1981 1.64704 33.7845 1.12939 32.2295 0.752922C30.9102 0.42351 29.5437 0.188216 28.0358 0.0470396C27.6117 -1.92001e-05 27.1405 -0.047078 26.6222 -0.047078C25.3499 -0.0941368 23.795 -0.047078 22.0515 0.188216C21.0149 0.329393 20.0725 0.517628 18.8002 0.84704C18.0463 1.03527 17.2924 1.27057 16.4913 1.59998C14.795 2.2588 13.2871 3.01174 12.062 3.76469C10.7426 4.56469 9.75309 5.36469 9.04628 5.92939C8.33948 6.4941 7.11434 7.71763 7.11434 7.71763L3.91016 11.1059Z" fill="white"/>
<path d="M61.2563 24.894L57.2982 28.894C57.2982 28.894 56.8741 29.2705 56.6385 29.4587C52.4448 32.4705 44.1987 34.1175 36.8008 31.9999L52.539 16.094L61.2563 24.894Z" fill="url(#paint1_linear)"/>
<path d="M57.3463 28.8941C57.3463 28.8941 56.6866 29.1294 55.7914 29.4118C55.1788 29.6 54.472 29.7883 53.6238 29.9765C52.116 30.3059 50.3254 30.6353 48.2992 30.7765C47.1212 30.8706 45.7547 30.8706 44.6238 30.8235C43.8228 30.7765 42.9746 30.7294 42.0793 30.5883C40.3359 30.353 38.4982 29.9765 36.6133 29.4118C36.0008 29.2235 35.3882 29.0353 34.7756 28.8C33.9746 28.5177 33.1736 28.1883 32.3725 27.8118C31.3359 27.3412 30.2521 26.7765 29.2154 26.1647C27.7547 25.2706 26.294 24.2353 24.9275 23.0588L16.3516 31.5765C16.3516 31.5765 16.917 32.1883 18.095 33.3177C18.8018 33.9765 20.2154 35.153 22.4772 36.5177C23.184 36.9412 23.9851 37.3177 24.8332 37.7412C26.0584 38.3059 27.472 38.8236 29.027 39.2C30.3463 39.5294 31.7128 39.8118 33.2207 39.9059C33.6448 39.953 34.116 40 34.6343 40C35.9065 40.0471 37.4615 40 39.205 39.7647C40.2416 39.6236 41.184 39.4353 42.4563 39.1059C43.2102 38.9177 43.9641 38.6824 44.7652 38.353C46.4615 37.6941 47.9694 36.9412 49.1945 36.1883C50.5139 35.3883 51.5034 34.5883 52.2102 34.0236C52.917 33.4588 54.1421 32.2353 54.1421 32.2353L57.3463 28.8941Z" fill="white"/>
<path d="M90.6125 28.4704C90.6125 28.7057 90.5654 28.894 90.4711 29.0822C90.3769 29.2704 90.2826 29.4116 90.1413 29.5528C89.9999 29.694 89.8586 29.7881 89.6701 29.8351C89.4816 29.8822 89.2931 29.9293 89.1046 29.9293H87.4083C87.0313 29.9293 86.7486 29.8822 86.4659 29.8351C86.1832 29.741 85.9476 29.6469 85.7591 29.4587C85.5235 29.2704 85.335 28.9881 85.1465 28.7057C84.958 28.3763 84.7224 27.9528 84.4397 27.4351L79.4921 18.0704C79.2094 17.5057 78.9266 16.894 78.6439 16.2822C78.3612 15.6234 78.0785 15.0116 77.8429 14.3999H77.7957C77.8429 15.1528 77.89 15.8587 77.89 16.6116C77.89 17.3646 77.9371 18.1175 77.9371 18.8704V29.3175C77.9371 29.4116 77.89 29.5057 77.8429 29.5999C77.7957 29.694 77.7015 29.741 77.5601 29.7881C77.4188 29.8351 77.2303 29.8822 76.9947 29.9293C76.7591 29.9763 76.4764 29.9763 76.0994 29.9763C75.7224 29.9763 75.4397 29.9763 75.2041 29.9293C74.9685 29.8822 74.78 29.8351 74.6387 29.7881C74.4973 29.741 74.4031 29.6469 74.356 29.5999C74.3088 29.5057 74.2617 29.4116 74.2617 29.3175V11.341C74.2617 10.8704 74.4031 10.494 74.6858 10.2587C74.9685 10.0234 75.2984 9.8822 75.7224 9.8822H77.89C78.267 9.8822 78.5968 9.92926 78.8795 9.97632C79.1622 10.0234 79.3978 10.1646 79.5863 10.3057C79.7748 10.4469 80.0104 10.6822 80.1989 10.9646C80.3874 11.2469 80.5758 11.5763 80.7643 11.9999L84.6282 19.294C84.8638 19.7175 85.0523 20.1881 85.2879 20.6116C85.5235 21.0351 85.712 21.4587 85.9005 21.8822C86.0889 22.3057 86.3245 22.7293 86.513 23.1528C86.7015 23.5763 86.89 23.9999 87.0785 24.3763C87.0313 23.6704 87.0313 22.9175 87.0313 22.1175C87.0313 21.3175 87.0313 20.6116 87.0313 19.8587V10.494C87.0313 10.3999 87.0785 10.3057 87.1256 10.2116C87.1727 10.1175 87.2669 10.0704 87.4554 9.97632C87.5968 9.92926 87.7853 9.8822 88.0209 9.83514C88.2565 9.78809 88.5392 9.78809 88.9162 9.78809C89.246 9.78809 89.5758 9.78809 89.8114 9.83514C90.047 9.8822 90.2355 9.8822 90.3769 9.97632C90.5182 10.0234 90.6125 10.1175 90.6596 10.2116C90.7067 10.3057 90.7539 10.3999 90.7539 10.494V28.4704H90.6125Z" fill="white"/>
<path d="M106.35 29.4115C106.35 29.5527 106.303 29.6468 106.209 29.741C106.114 29.8351 105.926 29.8821 105.737 29.9292C105.502 29.9762 105.172 29.9762 104.748 29.9762C104.277 29.9762 103.947 29.9762 103.758 29.9292C103.57 29.8821 103.381 29.8351 103.334 29.741C103.24 29.6468 103.193 29.5527 103.193 29.4115V28.3292C102.627 28.941 101.968 29.4115 101.261 29.741C100.554 30.0704 99.7531 30.2586 98.8578 30.2586C98.151 30.2586 97.4913 30.1645 96.8787 29.9762C96.2662 29.788 95.7479 29.5057 95.3238 29.1292C94.8997 28.7527 94.5227 28.2821 94.2871 27.7174C94.0515 27.1527 93.9102 26.4939 93.9102 25.788C93.9102 24.988 94.0515 24.2821 94.3814 23.7174C94.7112 23.1057 95.1353 22.6351 95.795 22.2586C96.4075 21.8821 97.1615 21.5998 98.1039 21.4115C98.9992 21.2233 100.083 21.1292 101.308 21.1292H102.627V20.2351C102.627 19.8115 102.58 19.4351 102.486 19.1057C102.392 18.7762 102.25 18.4939 102.062 18.3057C101.874 18.0704 101.591 17.9292 101.261 17.8351C100.931 17.741 100.507 17.6939 100.036 17.6939C99.3761 17.6939 98.8107 17.788 98.2924 17.9292C97.774 18.0704 97.3499 18.2115 96.973 18.3998C96.596 18.588 96.2662 18.7292 95.9835 18.8704C95.7007 19.0115 95.5122 19.1057 95.3709 19.1057C95.2766 19.1057 95.1353 19.0586 95.0882 19.0115C94.9939 18.9174 94.9468 18.8233 94.8526 18.6821C94.8054 18.541 94.7583 18.3998 94.7112 18.1645C94.6641 17.9762 94.6641 17.741 94.6641 17.5057C94.6641 17.1762 94.7112 16.941 94.7583 16.7527C94.8054 16.5645 94.8997 16.3762 95.041 16.2351C95.1824 16.0939 95.418 15.9057 95.795 15.7174C96.1719 15.5292 96.5489 15.388 97.0672 15.1998C97.5384 15.0586 98.0568 14.9174 98.6222 14.8233C99.1876 14.7292 99.7531 14.6821 100.366 14.6821C101.449 14.6821 102.345 14.7762 103.099 15.0115C103.853 15.1998 104.465 15.5292 104.983 15.9998C105.455 16.4233 105.832 16.988 106.067 17.6939C106.303 18.3998 106.397 19.1998 106.397 20.141V29.4115H106.35ZM102.58 23.4821H101.12C100.507 23.4821 99.9887 23.5292 99.5175 23.6233C99.0934 23.7174 98.7164 23.8586 98.4337 24.0468C98.151 24.2351 97.9625 24.4704 97.8212 24.7057C97.6798 24.988 97.6327 25.2704 97.6327 25.5998C97.6327 26.1645 97.8211 26.6351 98.1981 26.9645C98.5751 27.2939 99.0463 27.4351 99.706 27.4351C100.224 27.4351 100.743 27.2939 101.214 27.0115C101.685 26.7292 102.109 26.3057 102.58 25.788V23.4821Z" fill="white"/>
<path d="M119.827 25.4586C119.827 26.2586 119.686 26.9174 119.403 27.5292C119.121 28.141 118.697 28.6115 118.178 29.0351C117.66 29.4586 117 29.741 116.293 29.9292C115.587 30.1174 114.786 30.2115 113.937 30.2115C113.419 30.2115 112.948 30.1645 112.477 30.1174C112.005 30.0233 111.581 29.9292 111.252 29.8351C110.875 29.6939 110.592 29.5998 110.356 29.4586C110.121 29.3174 109.932 29.2233 109.838 29.1292C109.744 29.0351 109.649 28.8468 109.555 28.6115C109.508 28.3763 109.461 28.0468 109.461 27.5763C109.461 27.2939 109.461 27.0586 109.508 26.8704C109.508 26.6821 109.555 26.541 109.602 26.4468C109.649 26.3527 109.697 26.2586 109.744 26.2115C109.791 26.1645 109.885 26.1645 109.979 26.1645C110.073 26.1645 110.262 26.2115 110.498 26.3527C110.733 26.4939 110.969 26.6351 111.299 26.7763C111.628 26.9174 112.005 27.0586 112.43 27.1998C112.854 27.341 113.372 27.388 113.89 27.388C114.22 27.388 114.55 27.341 114.833 27.2939C115.115 27.1998 115.351 27.1057 115.539 26.9645C115.728 26.8233 115.869 26.6821 116.011 26.4468C116.105 26.2586 116.152 26.0233 116.152 25.741C116.152 25.4115 116.058 25.1762 115.869 24.941C115.681 24.7057 115.445 24.5174 115.115 24.3762C114.786 24.2351 114.456 24.0468 114.079 23.9057C113.702 23.7645 113.278 23.6233 112.854 23.4351C112.43 23.2468 112.053 23.0586 111.628 22.8233C111.252 22.588 110.875 22.3057 110.592 21.9762C110.309 21.6468 110.026 21.2704 109.838 20.7998C109.649 20.3292 109.555 19.7645 109.555 19.1527C109.555 18.4939 109.697 17.8821 109.932 17.3174C110.168 16.7527 110.545 16.2821 111.016 15.9057C111.487 15.5292 112.1 15.1998 112.759 15.0115C113.466 14.7762 114.22 14.6821 115.068 14.6821C115.492 14.6821 115.916 14.7292 116.293 14.7762C116.717 14.8233 117.047 14.9174 117.377 15.0115C117.707 15.1057 117.99 15.1998 118.225 15.2939C118.461 15.388 118.602 15.4821 118.697 15.5762C118.791 15.6704 118.885 15.7174 118.885 15.8115C118.932 15.9057 118.979 15.9998 118.979 16.0939C118.979 16.188 119.026 16.3292 119.026 16.5174C119.026 16.6586 119.074 16.8939 119.074 17.1292C119.074 17.4115 119.074 17.6468 119.026 17.788C119.026 17.9762 118.979 18.1174 118.932 18.2115C118.885 18.3057 118.838 18.3998 118.791 18.3998C118.744 18.4468 118.649 18.4468 118.555 18.4468C118.461 18.4468 118.32 18.3998 118.131 18.3057C117.943 18.2115 117.707 18.0704 117.424 17.9762C117.142 17.8351 116.812 17.741 116.435 17.6468C116.058 17.5527 115.634 17.5057 115.115 17.5057C114.786 17.5057 114.456 17.5527 114.22 17.5998C113.984 17.6939 113.749 17.788 113.608 17.9292C113.466 18.0704 113.325 18.2115 113.231 18.3998C113.136 18.588 113.089 18.7762 113.089 18.9645C113.089 19.2939 113.183 19.5292 113.372 19.7645C113.56 19.9998 113.843 20.188 114.126 20.3292C114.456 20.5174 114.786 20.6586 115.21 20.7998C115.634 20.941 116.011 21.0821 116.435 21.2704C116.859 21.4586 117.236 21.6468 117.66 21.8821C118.084 22.1174 118.414 22.3998 118.744 22.7292C119.074 23.0586 119.309 23.4351 119.498 23.9057C119.733 24.2821 119.827 24.8468 119.827 25.4586Z" fill="white"/>
<path d="M135.754 29.3647C135.754 29.4588 135.707 29.5529 135.66 29.647C135.613 29.7411 135.519 29.7882 135.33 29.8353C135.189 29.8823 135 29.9294 134.718 29.9294C134.482 29.9764 134.152 29.9764 133.775 29.9764C133.398 29.9764 133.068 29.9764 132.833 29.9294C132.597 29.8823 132.409 29.8823 132.22 29.8353C132.079 29.7882 131.985 29.7411 131.937 29.647C131.89 29.5529 131.843 29.4588 131.843 29.3647V21.5059C131.843 20.847 131.796 20.3294 131.702 19.9059C131.608 19.5294 131.466 19.2 131.278 18.9176C131.089 18.6353 130.854 18.447 130.571 18.3059C130.288 18.1647 129.958 18.0706 129.534 18.0706C129.063 18.0706 128.545 18.2588 128.027 18.5882C127.508 18.9647 126.99 19.4823 126.472 20.1411V29.3176C126.472 29.4117 126.424 29.5059 126.377 29.6C126.33 29.6941 126.189 29.7411 126.047 29.7882C125.906 29.8353 125.718 29.8823 125.435 29.8823C125.199 29.9294 124.869 29.9294 124.492 29.9294C124.116 29.9294 123.786 29.9294 123.55 29.8823C123.314 29.8353 123.126 29.8353 122.985 29.7882C122.843 29.7411 122.749 29.6941 122.655 29.6C122.608 29.5059 122.561 29.4117 122.561 29.3176V10.5411C122.561 10.447 122.608 10.3529 122.655 10.2588C122.702 10.1647 122.843 10.1176 122.985 10.0706C123.126 10.0235 123.314 9.97644 123.55 9.92938C123.786 9.88232 124.116 9.88232 124.492 9.88232C124.869 9.88232 125.199 9.88232 125.435 9.92938C125.67 9.97644 125.859 10.0235 126.047 10.0706C126.189 10.1176 126.283 10.2117 126.377 10.2588C126.424 10.3529 126.472 10.447 126.472 10.5411V16.6588C127.131 16 127.791 15.5294 128.498 15.2C129.205 14.8706 129.911 14.7294 130.665 14.7294C131.608 14.7294 132.362 14.8706 133.021 15.2C133.681 15.5294 134.152 15.9529 134.576 16.4706C134.953 16.9882 135.236 17.647 135.424 18.3529C135.613 19.0588 135.707 19.9529 135.707 20.9411V29.3647H135.754Z" fill="white"/>
<path d="M152.576 29.3645C152.576 29.4587 152.529 29.5528 152.482 29.6469C152.435 29.741 152.341 29.7881 152.152 29.8351C152.011 29.8822 151.822 29.9292 151.54 29.9292C151.304 29.9763 150.974 29.9763 150.597 29.9763C150.22 29.9763 149.89 29.9763 149.655 29.9292C149.419 29.8822 149.231 29.8822 149.042 29.8351C148.901 29.7881 148.807 29.741 148.76 29.6469C148.712 29.5528 148.665 29.4587 148.665 29.3645V21.5057C148.665 20.8469 148.618 20.3292 148.524 19.9057C148.43 19.5292 148.288 19.1998 148.1 18.9175C147.911 18.6351 147.676 18.4469 147.393 18.3057C147.11 18.1645 146.78 18.0704 146.356 18.0704C145.885 18.0704 145.367 18.2587 144.849 18.5881C144.33 18.9645 143.812 19.4822 143.294 20.141V29.3175C143.294 29.4116 143.246 29.5057 143.199 29.5998C143.152 29.694 143.011 29.741 142.869 29.7881C142.728 29.8351 142.54 29.8822 142.304 29.8822C142.068 29.9292 141.739 29.9292 141.362 29.9292C140.985 29.9292 140.655 29.9292 140.419 29.8822C140.184 29.8351 139.995 29.8351 139.854 29.7881C139.712 29.741 139.618 29.694 139.524 29.5998C139.477 29.5057 139.43 29.4116 139.43 29.3175V15.5763C139.43 15.4822 139.477 15.3881 139.524 15.294C139.571 15.1998 139.665 15.1528 139.807 15.1057C139.948 15.0587 140.089 15.0116 140.325 15.0116C140.513 14.9645 140.796 14.9645 141.126 14.9645C141.456 14.9645 141.739 14.9645 141.927 15.0116C142.163 15.0587 142.304 15.0587 142.445 15.1057C142.54 15.1528 142.634 15.1998 142.681 15.294C142.728 15.3881 142.775 15.4822 142.775 15.5763V17.1763C143.529 16.3292 144.283 15.7175 145.084 15.341C145.885 14.9175 146.686 14.7292 147.534 14.7292C148.477 14.7292 149.231 14.8704 149.89 15.1998C150.55 15.5292 151.021 15.9528 151.445 16.4704C151.822 16.9881 152.105 17.5998 152.294 18.3528C152.482 19.0587 152.576 19.9057 152.576 20.941V29.3645Z" fill="white"/>
<path d="M168.974 22.0704C168.974 22.541 168.88 22.9175 168.644 23.1057C168.456 23.341 168.126 23.4351 167.796 23.4351H159.503C159.503 23.9998 159.55 24.5645 159.691 25.0351C159.833 25.5057 160.068 25.9292 160.351 26.2587C160.634 26.5881 161.058 26.8704 161.529 27.0116C162 27.1998 162.566 27.294 163.225 27.294C163.885 27.294 164.498 27.2469 165.016 27.1528C165.534 27.0587 165.958 26.9645 166.335 26.8234C166.712 26.7292 166.995 26.5881 167.278 26.494C167.513 26.3998 167.702 26.3528 167.89 26.3528C167.984 26.3528 168.079 26.3528 168.126 26.3998C168.173 26.4469 168.22 26.494 168.267 26.5881C168.314 26.6822 168.314 26.8234 168.361 26.9645C168.361 27.1528 168.361 27.341 168.361 27.6234C168.361 27.8587 168.361 28.0469 168.361 28.1881C168.361 28.3292 168.314 28.4704 168.314 28.6116C168.314 28.7057 168.267 28.7998 168.22 28.894C168.173 28.9881 168.126 29.0351 168.079 29.1292C168.032 29.2234 167.843 29.3175 167.513 29.4116C167.231 29.5528 166.854 29.6469 166.382 29.7881C165.911 29.8822 165.393 30.0234 164.827 30.1175C164.215 30.2116 163.602 30.2587 162.943 30.2587C161.717 30.2587 160.681 30.1175 159.738 29.7881C158.843 29.4587 158.042 28.9881 157.429 28.3763C156.817 27.7645 156.346 26.9645 156.063 25.9763C155.78 25.0351 155.592 23.9057 155.592 22.5881C155.592 21.3645 155.733 20.2351 156.063 19.294C156.393 18.3057 156.817 17.4587 157.429 16.7998C158.042 16.094 158.749 15.5763 159.644 15.2469C160.492 14.8704 161.482 14.7292 162.566 14.7292C163.696 14.7292 164.686 14.9175 165.487 15.2469C166.288 15.5763 166.948 16.0469 167.466 16.6587C167.984 17.2704 168.361 17.9763 168.597 18.7763C168.833 19.6234 168.974 20.5175 168.974 21.4587V22.0704ZM165.251 20.941C165.299 19.8587 165.063 19.0116 164.592 18.3528C164.121 17.741 163.414 17.4116 162.424 17.4116C161.953 17.4116 161.529 17.5057 161.152 17.694C160.775 17.8822 160.492 18.1175 160.257 18.4469C160.021 18.7763 159.833 19.1528 159.691 19.5763C159.55 19.9998 159.503 20.4704 159.456 20.941H165.251Z" fill="white"/>
<path d="M180 27.9998C180 28.4704 179.953 28.7998 179.906 29.0351C179.858 29.2704 179.764 29.4586 179.67 29.5527C179.576 29.6468 179.434 29.741 179.246 29.8351C179.057 29.9292 178.869 29.9763 178.633 30.0233C178.398 30.0704 178.115 30.1174 177.832 30.1645C177.55 30.2115 177.267 30.2115 176.984 30.2115C176.23 30.2115 175.57 30.1174 175.005 29.9292C174.44 29.741 173.968 29.4115 173.591 29.0351C173.214 28.6115 172.932 28.0939 172.79 27.4821C172.602 26.8704 172.508 26.1174 172.508 25.2704V18.2116H170.858C170.67 18.2116 170.529 18.0704 170.434 17.8351C170.34 17.5998 170.293 17.1763 170.293 16.6116C170.293 16.3292 170.293 16.0468 170.34 15.8586C170.387 15.6704 170.387 15.4821 170.434 15.388C170.481 15.2468 170.529 15.1998 170.623 15.1527C170.717 15.1057 170.811 15.0586 170.906 15.0586H172.508V10.588C172.508 10.4939 172.555 10.3998 172.602 10.3057C172.649 10.2116 172.743 10.1645 172.932 10.1174C173.073 10.0704 173.262 10.0233 173.544 9.97626C173.78 9.9292 174.11 9.9292 174.487 9.9292C174.864 9.9292 175.193 9.9292 175.429 9.97626C175.665 10.0233 175.853 10.0233 176.042 10.1174C176.183 10.1645 176.277 10.2586 176.372 10.3057C176.419 10.3998 176.466 10.4939 176.466 10.588V15.0586H179.434C179.529 15.0586 179.623 15.1057 179.717 15.1527C179.811 15.1998 179.858 15.2939 179.906 15.388C179.953 15.5292 180 15.6704 180 15.8586C180.047 16.0468 180.047 16.3292 180.047 16.6116C180.047 17.1763 180 17.5998 179.906 17.8351C179.811 18.0704 179.67 18.2116 179.481 18.2116H176.513V24.7057C176.513 25.4586 176.607 26.0233 176.843 26.3998C177.078 26.7763 177.502 26.9645 178.115 26.9645C178.303 26.9645 178.492 26.9645 178.68 26.9174C178.822 26.8704 179.01 26.8233 179.105 26.7763C179.246 26.7292 179.34 26.6821 179.434 26.6351C179.529 26.588 179.623 26.588 179.67 26.588C179.717 26.588 179.811 26.588 179.858 26.6351C179.906 26.6821 179.953 26.7292 180 26.8704C180.047 26.9645 180.047 27.1057 180.094 27.2939C180 27.4821 180 27.7174 180 27.9998Z" fill="white"/>
</g>
<defs>
<linearGradient id="paint0_linear" x1="23.5969" y1="9.9213" x2="5.73663" y2="17.4178" gradientUnits="userSpaceOnUse">
<stop stop-color="#9BA4F6"/>
<stop offset="1" stop-color="white"/>
</linearGradient>
<linearGradient id="paint1_linear" x1="37.6725" y1="30.0793" x2="55.5322" y2="22.5831" gradientUnits="userSpaceOnUse">
<stop stop-color="#9BA4F7"/>
<stop offset="1" stop-color="white"/>
</linearGradient>
<clipPath id="clip0">
<rect width="180" height="40" fill="white"/>
</clipPath>
</defs>
</svg>
