<svg width="186" height="42" viewBox="0 0 186 42" fill="none" xmlns="http://www.w3.org/2000/svg">
<g clip-path="url(#clip0)">
<path d="M0 15.9361L4.09005 11.7973C4.09005 11.7973 4.52827 11.4078 4.77173 11.213C9.10524 8.0968 17.6262 6.39261 25.2707 8.58371L9.00785 24.9926L0 15.9361Z" fill="url(#paint0_linear)"/>
<path d="M4.03906 11.7974C4.03906 11.7974 4.72074 11.5539 5.64587 11.2618C6.27885 11.067 7.05791 10.8722 7.88566 10.6775C9.44378 10.3366 11.294 9.99579 13.3878 9.84971C14.605 9.75233 16.0171 9.75233 17.1857 9.80102C18.0134 9.84971 18.8898 9.89841 19.815 10.0445C21.6166 10.2879 23.5155 10.6775 25.4631 11.2618C26.0961 11.4565 26.7291 11.6513 27.3621 11.8947C28.1898 12.1869 29.0176 12.5277 29.8453 12.9173C30.9166 13.4042 31.9878 13.9885 33.1077 14.6214C34.6171 15.5466 36.1265 16.6178 37.5385 17.8351L46.4003 8.97327C46.4003 8.97327 45.816 8.34029 44.5987 7.1717C43.8684 6.49003 42.4076 5.22406 40.0705 3.86071C39.3401 3.42249 38.5124 3.03296 37.6359 2.59474C36.37 2.01045 34.9092 1.47485 33.3024 1.08532C31.9391 0.744479 30.527 0.501023 28.9689 0.35495C28.5307 0.306259 28.0438 0.257568 27.5082 0.257568C26.1935 0.208877 24.5867 0.257568 22.7851 0.501023C21.7139 0.647097 20.7401 0.841861 19.4255 1.1827C18.6464 1.37746 17.8673 1.62092 17.0396 1.96176C15.2867 2.64343 13.7286 3.42249 12.4626 4.20155C11.0993 5.02929 10.0768 5.85704 9.34639 6.44134C8.61603 7.02563 7.35006 8.2916 7.35006 8.2916L4.03906 11.7974Z" fill="#00AEEF"/>
<path d="M63.2976 26.0639L59.2076 30.2026C59.2076 30.2026 58.7694 30.5921 58.5259 30.7869C54.1924 33.9031 45.6714 35.6073 38.0269 33.4162L54.2898 16.9586L63.2976 26.0639Z" fill="url(#paint1_linear)"/>
<path d="M59.2558 30.2026C59.2558 30.2026 58.5741 30.4461 57.649 30.7382C57.016 30.933 56.2856 31.1277 55.4092 31.3225C53.8511 31.6634 52.0008 32.0042 49.9071 32.1503C48.6898 32.2476 47.2778 32.2476 46.1092 32.199C45.2814 32.1503 44.405 32.1016 43.4799 31.9555C41.6783 31.712 39.7793 31.3225 37.8317 30.7382C37.1987 30.5435 36.5657 30.3487 35.9328 30.1052C35.105 29.8131 34.2773 29.4722 33.4495 29.0827C32.3783 28.5958 31.2584 28.0115 30.1872 27.3785C28.6778 26.4534 27.1684 25.3822 25.7563 24.1649L16.8945 32.978C16.8945 32.978 17.4788 33.611 18.6961 34.7796C19.4265 35.4613 20.8872 36.6785 23.2244 38.0906C23.9547 38.5288 24.7825 38.9183 25.6589 39.3565C26.9249 39.9408 28.3856 40.4764 29.9924 40.866C31.3558 41.2068 32.7678 41.499 34.3259 41.5963C34.7642 41.645 35.2511 41.6937 35.7867 41.6937C37.1013 41.7424 38.7081 41.6937 40.5097 41.4503C41.5809 41.3042 42.5547 41.1094 43.8694 40.7686C44.6485 40.5738 45.4275 40.3304 46.2553 39.9895C48.0081 39.3079 49.5663 38.5288 50.8322 37.7497C52.1956 36.922 53.2181 36.0942 53.9485 35.51C54.6788 34.9257 55.9448 33.6597 55.9448 33.6597L59.2558 30.2026Z" fill="#00AEEF"/>
<path d="M93.6341 29.7643C93.6341 30.0078 93.5854 30.2025 93.488 30.3973C93.3906 30.5921 93.2933 30.7381 93.1472 30.8842C93.0011 31.0303 92.855 31.1277 92.6603 31.1764C92.4655 31.2251 92.2708 31.2738 92.076 31.2738H90.3231C89.9336 31.2738 89.6414 31.2251 89.3493 31.1764C89.0571 31.079 88.8137 30.9816 88.6189 30.7868C88.3755 30.5921 88.1807 30.2999 87.9859 30.0078C87.7912 29.6669 87.5477 29.2287 87.2556 28.6931L82.143 19.0036C81.8508 18.4193 81.5587 17.7863 81.2665 17.1533C80.9744 16.4717 80.6823 15.8387 80.4388 15.2057H80.3901C80.4388 15.9847 80.4875 16.7151 80.4875 17.4942C80.4875 18.2732 80.5362 19.0523 80.5362 19.8313V30.6408C80.5362 30.7381 80.4875 30.8355 80.4388 30.9329C80.3901 31.0303 80.2927 31.079 80.1467 31.1277C80.0006 31.1764 79.8058 31.2251 79.5624 31.2738C79.3189 31.3224 79.0268 31.3224 78.6372 31.3224C78.2477 31.3224 77.9556 31.3224 77.7121 31.2738C77.4686 31.2251 77.2739 31.1764 77.1278 31.1277C76.9817 31.079 76.8844 30.9816 76.8357 30.9329C76.787 30.8355 76.7383 30.7381 76.7383 30.6408V12.0408C76.7383 11.5539 76.8844 11.1643 77.1765 10.9209C77.4686 10.6774 77.8095 10.5313 78.2477 10.5313H80.4875C80.877 10.5313 81.2179 10.58 81.51 10.6287C81.8022 10.6774 82.0456 10.8235 82.2404 10.9696C82.4351 11.1156 82.6786 11.3591 82.8734 11.6512C83.0681 11.9434 83.2629 12.2842 83.4577 12.7224L87.4503 20.2696C87.6938 20.7078 87.8885 21.1947 88.132 21.6329C88.3755 22.0711 88.5702 22.5094 88.765 22.9476C88.9598 23.3858 89.2032 23.824 89.398 24.2622C89.5927 24.7005 89.7875 25.1387 89.9823 25.5282C89.9336 24.7978 89.9336 24.0188 89.9336 23.191C89.9336 22.3633 89.9336 21.6329 89.9336 20.8539V11.1643C89.9336 11.0669 89.9823 10.9696 90.031 10.8722C90.0796 10.7748 90.177 10.7261 90.3718 10.6287C90.5179 10.58 90.7126 10.5313 90.9561 10.4827C91.1995 10.434 91.4917 10.434 91.8812 10.434C92.2221 10.434 92.5629 10.434 92.8064 10.4827C93.0498 10.5313 93.2446 10.5313 93.3906 10.6287C93.5367 10.6774 93.6341 10.7748 93.6828 10.8722C93.7315 10.9696 93.7802 11.0669 93.7802 11.1643V29.7643H93.6341Z" fill="#0083C5"/>
<path d="M109.897 30.7381C109.897 30.8842 109.849 30.9816 109.751 31.079C109.654 31.1763 109.459 31.225 109.264 31.2737C109.021 31.3224 108.68 31.3224 108.242 31.3224C107.755 31.3224 107.414 31.3224 107.219 31.2737C107.025 31.225 106.83 31.1763 106.781 31.079C106.684 30.9816 106.635 30.8842 106.635 30.7381V29.6182C106.051 30.2512 105.369 30.7381 104.639 31.079C103.908 31.4198 103.081 31.6146 102.155 31.6146C101.425 31.6146 100.743 31.5172 100.11 31.3224C99.4774 31.1276 98.9418 30.8355 98.5036 30.446C98.0654 30.0564 97.6759 29.5695 97.4324 28.9852C97.189 28.4009 97.0429 27.7193 97.0429 26.9889C97.0429 26.1612 97.189 25.4308 97.5298 24.8465C97.8706 24.2135 98.3089 23.7266 98.9905 23.3371C99.6235 22.9475 100.403 22.6554 101.376 22.4606C102.302 22.2659 103.421 22.1685 104.687 22.1685H106.051V21.2434C106.051 20.8051 106.002 20.4156 105.905 20.0748C105.807 19.7339 105.661 19.4418 105.466 19.247C105.272 19.0036 104.98 18.8575 104.639 18.7601C104.298 18.6627 103.86 18.614 103.373 18.614C102.691 18.614 102.107 18.7114 101.571 18.8575C101.036 19.0036 100.597 19.1496 100.208 19.3444C99.8183 19.5392 99.4774 19.6852 99.1853 19.8313C98.8931 19.9774 98.6984 20.0748 98.5523 20.0748C98.4549 20.0748 98.3089 20.0261 98.2602 19.9774C98.1628 19.88 98.1141 19.7826 98.0167 19.6365C97.968 19.4905 97.9193 19.3444 97.8706 19.1009C97.8219 18.9062 97.8219 18.6627 97.8219 18.4193C97.8219 18.0784 97.8706 17.835 97.9193 17.6402C97.968 17.4454 98.0654 17.2507 98.2115 17.1046C98.3575 16.9585 98.601 16.7638 98.9905 16.569C99.3801 16.3742 99.7696 16.2282 100.305 16.0334C100.792 15.8873 101.328 15.7413 101.912 15.6439C102.496 15.5465 103.081 15.4978 103.714 15.4978C104.833 15.4978 105.759 15.5952 106.538 15.8386C107.317 16.0334 107.95 16.3742 108.485 16.8612C108.972 17.2994 109.362 17.8837 109.605 18.614C109.849 19.3444 109.946 20.1721 109.946 21.146V30.7381H109.897ZM106.002 24.603H104.493C103.86 24.603 103.324 24.6517 102.837 24.7491C102.399 24.8465 102.009 24.9926 101.717 25.1873C101.425 25.3821 101.23 25.6256 101.084 25.869C100.938 26.1612 100.889 26.4533 100.889 26.7941C100.889 27.3784 101.084 27.8653 101.474 28.2062C101.863 28.547 102.35 28.6931 103.032 28.6931C103.567 28.6931 104.103 28.547 104.59 28.2549C105.077 27.9627 105.515 27.5245 106.002 26.9889V24.603Z" fill="#0083C5"/>
<path d="M123.821 26.6481C123.821 27.4758 123.675 28.1575 123.383 28.7905C123.091 29.4235 122.653 29.9104 122.117 30.3486C121.582 30.7868 120.9 31.079 120.17 31.2737C119.439 31.4685 118.611 31.5659 117.735 31.5659C117.199 31.5659 116.713 31.5172 116.226 31.4685C115.739 31.3711 115.3 31.2737 114.96 31.1763C114.57 31.0303 114.278 30.9329 114.035 30.7868C113.791 30.6407 113.596 30.5434 113.499 30.446C113.402 30.3486 113.304 30.1538 113.207 29.9104C113.158 29.6669 113.109 29.3261 113.109 28.8392C113.109 28.547 113.109 28.3036 113.158 28.1088C113.158 27.914 113.207 27.768 113.255 27.6706C113.304 27.5732 113.353 27.4758 113.402 27.4271C113.45 27.3784 113.548 27.3784 113.645 27.3784C113.742 27.3784 113.937 27.4271 114.181 27.5732C114.424 27.7193 114.667 27.8653 115.008 28.0114C115.349 28.1575 115.739 28.3036 116.177 28.4496C116.615 28.5957 117.151 28.6444 117.686 28.6444C118.027 28.6444 118.368 28.5957 118.66 28.547C118.952 28.4496 119.196 28.3523 119.391 28.2062C119.585 28.0601 119.731 27.914 119.877 27.6706C119.975 27.4758 120.024 27.2324 120.024 26.9402C120.024 26.5994 119.926 26.3559 119.731 26.1125C119.537 25.869 119.293 25.6742 118.952 25.5282C118.611 25.3821 118.271 25.1873 117.881 25.0413C117.492 24.8952 117.053 24.7491 116.615 24.5543C116.177 24.3596 115.787 24.1648 115.349 23.9214C114.96 23.6779 114.57 23.3858 114.278 23.0449C113.986 22.7041 113.694 22.3146 113.499 21.8276C113.304 21.3407 113.207 20.7564 113.207 20.1235C113.207 19.4418 113.353 18.8088 113.596 18.2245C113.84 17.6402 114.229 17.1533 114.716 16.7638C115.203 16.3742 115.836 16.0334 116.518 15.8386C117.248 15.5952 118.027 15.4978 118.904 15.4978C119.342 15.4978 119.78 15.5465 120.17 15.5952C120.608 15.6439 120.949 15.7413 121.289 15.8386C121.63 15.936 121.922 16.0334 122.166 16.1308C122.409 16.2282 122.555 16.3256 122.653 16.4229C122.75 16.5203 122.848 16.569 122.848 16.6664C122.896 16.7638 122.945 16.8612 122.945 16.9585C122.945 17.0559 122.994 17.202 122.994 17.3968C122.994 17.5428 123.042 17.7863 123.042 18.0297C123.042 18.3219 123.042 18.5653 122.994 18.7114C122.994 18.9062 122.945 19.0523 122.896 19.1496C122.848 19.247 122.799 19.3444 122.75 19.3444C122.702 19.3931 122.604 19.3931 122.507 19.3931C122.409 19.3931 122.263 19.3444 122.069 19.247C121.874 19.1496 121.63 19.0036 121.338 18.9062C121.046 18.7601 120.705 18.6627 120.316 18.5653C119.926 18.468 119.488 18.4193 118.952 18.4193C118.611 18.4193 118.271 18.468 118.027 18.5167C117.784 18.614 117.54 18.7114 117.394 18.8575C117.248 19.0036 117.102 19.1496 117.005 19.3444C116.907 19.5392 116.859 19.7339 116.859 19.9287C116.859 20.2695 116.956 20.513 117.151 20.7564C117.346 20.9999 117.638 21.1947 117.93 21.3407C118.271 21.5355 118.611 21.6816 119.05 21.8276C119.488 21.9737 119.877 22.1198 120.316 22.3146C120.754 22.5093 121.143 22.7041 121.582 22.9475C122.02 23.191 122.361 23.4831 122.702 23.824C123.042 24.1648 123.286 24.5543 123.481 25.0413C123.724 25.4308 123.821 26.0151 123.821 26.6481Z" fill="#0083C5"/>
<path d="M140.282 30.6895C140.282 30.7869 140.233 30.8843 140.185 30.9816C140.136 31.079 140.038 31.1277 139.844 31.1764C139.698 31.2251 139.503 31.2738 139.211 31.2738C138.967 31.3225 138.626 31.3225 138.237 31.3225C137.847 31.3225 137.507 31.3225 137.263 31.2738C137.02 31.2251 136.825 31.2251 136.63 31.1764C136.484 31.1277 136.387 31.079 136.338 30.9816C136.289 30.8843 136.241 30.7869 136.241 30.6895V22.5581C136.241 21.8764 136.192 21.3408 136.095 20.9026C135.997 20.513 135.851 20.1722 135.656 19.8801C135.462 19.5879 135.218 19.3932 134.926 19.2471C134.634 19.101 134.293 19.0036 133.855 19.0036C133.368 19.0036 132.832 19.1984 132.297 19.5392C131.761 19.9288 131.225 20.4644 130.69 21.146V30.6408C130.69 30.7382 130.641 30.8356 130.592 30.9329C130.544 31.0303 130.398 31.079 130.252 31.1277C130.106 31.1764 129.911 31.2251 129.619 31.2251C129.375 31.2738 129.034 31.2738 128.645 31.2738C128.255 31.2738 127.914 31.2738 127.671 31.2251C127.427 31.1764 127.233 31.1764 127.087 31.1277C126.941 31.079 126.843 31.0303 126.746 30.9329C126.697 30.8356 126.648 30.7382 126.648 30.6408V11.213C126.648 11.1157 126.697 11.0183 126.746 10.9209C126.795 10.8235 126.941 10.7748 127.087 10.7261C127.233 10.6774 127.427 10.6288 127.671 10.5801C127.914 10.5314 128.255 10.5314 128.645 10.5314C129.034 10.5314 129.375 10.5314 129.619 10.5801C129.862 10.6288 130.057 10.6774 130.252 10.7261C130.398 10.7748 130.495 10.8722 130.592 10.9209C130.641 11.0183 130.69 11.1157 130.69 11.213V17.5429C131.371 16.8612 132.053 16.3743 132.784 16.0335C133.514 15.6926 134.244 15.5466 135.023 15.5466C135.997 15.5466 136.776 15.6926 137.458 16.0335C138.14 16.3743 138.626 16.8125 139.065 17.3481C139.454 17.8837 139.746 18.5654 139.941 19.2958C140.136 20.0261 140.233 20.9513 140.233 21.9738V30.6895H140.282Z" fill="#0083C5"/>
<path d="M157.662 30.6894C157.662 30.7868 157.614 30.8842 157.565 30.9816C157.516 31.079 157.419 31.1277 157.224 31.1764C157.078 31.225 156.883 31.2737 156.591 31.2737C156.348 31.3224 156.007 31.3224 155.617 31.3224C155.228 31.3224 154.887 31.3224 154.644 31.2737C154.4 31.225 154.205 31.225 154.011 31.1764C153.865 31.1277 153.767 31.079 153.719 30.9816C153.67 30.8842 153.621 30.7868 153.621 30.6894V22.558C153.621 21.8764 153.572 21.3407 153.475 20.9025C153.378 20.513 153.232 20.1722 153.037 19.88C152.842 19.5879 152.599 19.3931 152.306 19.247C152.014 19.101 151.673 19.0036 151.235 19.0036C150.748 19.0036 150.213 19.1983 149.677 19.5392C149.142 19.9287 148.606 20.4643 148.07 21.146V30.6407C148.07 30.7381 148.022 30.8355 147.973 30.9329C147.924 31.0303 147.778 31.079 147.632 31.1277C147.486 31.1763 147.291 31.225 147.048 31.225C146.804 31.2737 146.464 31.2737 146.074 31.2737C145.684 31.2737 145.344 31.2737 145.1 31.225C144.857 31.1764 144.662 31.1763 144.516 31.1277C144.37 31.079 144.272 31.0303 144.175 30.9329C144.126 30.8355 144.078 30.7381 144.078 30.6407V16.4229C144.078 16.3256 144.126 16.2282 144.175 16.1308C144.224 16.0334 144.321 15.9847 144.467 15.936C144.613 15.8873 144.759 15.8387 145.003 15.8387C145.198 15.79 145.49 15.79 145.831 15.79C146.171 15.79 146.464 15.79 146.658 15.8387C146.902 15.8873 147.048 15.8873 147.194 15.936C147.291 15.9847 147.389 16.0334 147.437 16.1308C147.486 16.2282 147.535 16.3256 147.535 16.4229V18.0784C148.314 17.202 149.093 16.569 149.921 16.1795C150.748 15.7413 151.576 15.5465 152.453 15.5465C153.426 15.5465 154.205 15.6926 154.887 16.0334C155.569 16.3743 156.056 16.8125 156.494 17.3481C156.883 17.8837 157.176 18.5167 157.37 19.2957C157.565 20.0261 157.662 20.9025 157.662 21.9737V30.6894Z" fill="#0083C5"/>
<path d="M174.607 23.1423C174.607 23.6292 174.509 24.0188 174.266 24.2135C174.071 24.457 173.73 24.5544 173.389 24.5544H164.82C164.82 25.1387 164.868 25.7229 165.014 26.2099C165.161 26.6968 165.404 27.135 165.696 27.4758C165.988 27.8167 166.426 28.1088 166.913 28.2549C167.4 28.4496 167.985 28.547 168.666 28.547C169.348 28.547 169.981 28.4983 170.517 28.401C171.052 28.3036 171.49 28.2062 171.88 28.0601C172.269 27.9627 172.562 27.8167 172.854 27.7193C173.097 27.6219 173.292 27.5732 173.487 27.5732C173.584 27.5732 173.681 27.5732 173.73 27.6219C173.779 27.6706 173.828 27.7193 173.876 27.8167C173.925 27.914 173.925 28.0601 173.974 28.2062C173.974 28.401 173.974 28.5957 173.974 28.8879C173.974 29.1313 173.974 29.3261 173.974 29.4722C173.974 29.6182 173.925 29.7643 173.925 29.9104C173.925 30.0078 173.876 30.1051 173.828 30.2025C173.779 30.2999 173.73 30.3486 173.681 30.446C173.633 30.5434 173.438 30.6407 173.097 30.7381C172.805 30.8842 172.415 30.9816 171.929 31.1277C171.442 31.225 170.906 31.3711 170.322 31.4685C169.689 31.5659 169.056 31.6146 168.374 31.6146C167.108 31.6146 166.037 31.4685 165.063 31.1277C164.138 30.7868 163.31 30.2999 162.677 29.6669C162.044 29.0339 161.557 28.2062 161.265 27.1837C160.973 26.2099 160.778 25.0413 160.778 23.6779C160.778 22.412 160.924 21.2434 161.265 20.2695C161.606 19.247 162.044 18.3706 162.677 17.6889C163.31 16.9586 164.041 16.4229 164.966 16.0821C165.842 15.6926 166.865 15.5465 167.985 15.5465C169.153 15.5465 170.176 15.7413 171.003 16.0821C171.831 16.4229 172.513 16.9099 173.048 17.5428C173.584 18.1758 173.974 18.9062 174.217 19.7339C174.461 20.6104 174.607 21.5355 174.607 22.5093V23.1423ZM170.76 21.9737C170.809 20.8538 170.565 19.9774 170.078 19.2957C169.591 18.6627 168.861 18.3219 167.839 18.3219C167.352 18.3219 166.913 18.4193 166.524 18.614C166.134 18.8088 165.842 19.0523 165.599 19.3931C165.355 19.7339 165.161 20.1235 165.014 20.5617C164.868 20.9999 164.82 21.4868 164.771 21.9737H170.76Z" fill="#0083C5"/>
<path d="M185.999 29.2775C185.999 29.7644 185.95 30.1052 185.902 30.3487C185.853 30.5921 185.756 30.7869 185.658 30.8843C185.561 30.9816 185.415 31.079 185.22 31.1764C185.025 31.2738 184.831 31.3225 184.587 31.3712C184.344 31.4199 184.051 31.4686 183.759 31.5172C183.467 31.5659 183.175 31.5659 182.883 31.5659C182.104 31.5659 181.422 31.4686 180.838 31.2738C180.254 31.079 179.767 30.7382 179.377 30.3487C178.988 29.9104 178.695 29.3748 178.549 28.7419C178.355 28.1089 178.257 27.3298 178.257 26.4534V19.1497H176.553C176.358 19.1497 176.212 19.0036 176.115 18.7602C176.017 18.5167 175.969 18.0785 175.969 17.4942C175.969 17.2021 175.969 16.9099 176.017 16.7152C176.066 16.5204 176.066 16.3256 176.115 16.2282C176.164 16.0822 176.212 16.0335 176.31 15.9848C176.407 15.9361 176.504 15.8874 176.602 15.8874H178.257V11.2618C178.257 11.1644 178.306 11.067 178.355 10.9696C178.403 10.8722 178.501 10.8235 178.695 10.7748C178.842 10.7262 179.036 10.6775 179.328 10.6288C179.572 10.5801 179.913 10.5801 180.302 10.5801C180.692 10.5801 181.033 10.5801 181.276 10.6288C181.52 10.6775 181.714 10.6775 181.909 10.7748C182.055 10.8235 182.153 10.9209 182.25 10.9696C182.299 11.067 182.347 11.1644 182.347 11.2618V15.8874H185.415C185.512 15.8874 185.61 15.9361 185.707 15.9848C185.804 16.0335 185.853 16.1309 185.902 16.2282C185.95 16.3743 185.999 16.5204 185.999 16.7152C186.048 16.9099 186.048 17.2021 186.048 17.4942C186.048 18.0785 185.999 18.5167 185.902 18.7602C185.804 19.0036 185.658 19.1497 185.464 19.1497H182.396V25.8691C182.396 26.6481 182.493 27.2324 182.737 27.622C182.98 28.0115 183.418 28.2063 184.051 28.2063C184.246 28.2063 184.441 28.2063 184.636 28.1576C184.782 28.1089 184.977 28.0602 185.074 28.0115C185.22 27.9628 185.317 27.9141 185.415 27.8654C185.512 27.8167 185.61 27.8167 185.658 27.8167C185.707 27.8167 185.804 27.8167 185.853 27.8654C185.902 27.9141 185.95 27.9628 185.999 28.1089C186.048 28.2063 186.048 28.3523 186.097 28.5471C185.999 28.7419 185.999 28.9853 185.999 29.2775Z" fill="#0083C5"/>
</g>
<defs>
<linearGradient id="paint0_linear" x1="24.3835" y1="10.5716" x2="5.92062" y2="18.3109" gradientUnits="userSpaceOnUse">
<stop stop-color="#005E96"/>
<stop offset="1" stop-color="#00AEEF"/>
</linearGradient>
<linearGradient id="paint1_linear" x1="38.9277" y1="31.429" x2="57.3899" y2="23.69" gradientUnits="userSpaceOnUse">
<stop stop-color="#005E96"/>
<stop offset="1" stop-color="#00AEEF"/>
</linearGradient>
<clipPath id="clip0">
<rect width="186" height="41.3874" fill="white" transform="translate(0 0.306274)"/>
</clipPath>
</defs>
</svg>
