<svg width="24" height="24" viewBox="0 0 24 24" fill="none" xmlns="http://www.w3.org/2000/svg">
<g clip-path="url(#clip0)">
<path d="M19.9886 5.16909C18.2573 3.37827 16.0167 2.23954 13.585 1.89313L14.2781 1.20004C14.5527 0.925445 14.5527 0.480273 14.2781 0.205679C14.0036 -0.0688675 13.5584 -0.0688675 13.2838 0.205679L11.5031 1.98627C11.2285 2.26082 11.2285 2.70604 11.5031 2.98063L13.2837 4.76123C13.421 4.89852 13.601 4.9672 13.7809 4.9672C13.9608 4.9672 14.1408 4.89852 14.278 4.76123C14.5526 4.48668 14.5526 4.04146 14.278 3.76687L13.8798 3.36866C15.8117 3.74671 17.5835 4.70456 18.9774 6.14643C20.7355 7.96499 21.7037 10.3599 21.7037 12.89C21.7038 18.2405 17.3508 22.5935 12.0003 22.5935C6.64987 22.5935 2.29687 18.2405 2.29687 12.8901C2.29687 10.8484 2.92345 8.89541 4.10892 7.24223C5.26978 5.6233 6.87009 4.41529 8.73698 3.74882C9.1027 3.61823 9.2933 3.21595 9.16275 2.85018C9.0322 2.48446 8.62983 2.29387 8.26411 2.42441C6.12647 3.18759 4.29445 4.57021 2.96606 6.42276C1.60828 8.31632 0.890625 10.5527 0.890625 12.8901C0.890625 15.8576 2.04623 18.6475 4.14459 20.7458C6.24295 22.8441 9.03281 23.9997 12.0003 23.9997C14.9678 23.9997 17.7577 22.8441 19.8561 20.7458C21.9544 18.6474 23.11 15.8576 23.11 12.8901C23.11 9.99327 22.0014 7.25123 19.9886 5.16909Z" fill="#FF5C00"/>
<path d="M4.77637 12.8903C4.77637 16.8737 8.01712 20.1145 12.0006 20.1145C15.9839 20.1145 19.2247 16.8737 19.2247 12.8903C19.2247 8.90695 15.9839 5.66611 12.0006 5.66611C8.01707 5.66611 4.77637 8.90691 4.77637 12.8903ZM12.4322 13.5162C11.4201 13.1584 10.8336 12.8764 10.4082 12.5427C9.88462 12.132 9.64494 11.4227 9.78266 10.6917C9.9321 9.89869 10.4851 9.26738 11.226 9.0442C11.2363 9.04111 11.2463 9.03863 11.2566 9.03563V8.7525C11.2566 8.36419 11.5714 8.04938 11.9597 8.04938C12.348 8.04938 12.6628 8.36419 12.6628 8.7525V8.99086C13.1537 9.10584 13.4964 9.33024 13.6349 9.43378C13.9459 9.66633 14.0096 10.1069 13.7771 10.418C13.5445 10.729 13.104 10.7926 12.7929 10.5601C12.644 10.4489 12.2331 10.2094 11.6316 10.3906C11.2762 10.4977 11.1843 10.8474 11.1646 10.9521C11.1256 11.1588 11.1704 11.3534 11.276 11.4362C11.6438 11.7246 12.3037 11.9793 12.9008 12.1903C13.993 12.5764 14.6003 13.5882 14.412 14.708C14.3196 15.2578 14.043 15.7679 13.6332 16.1445C13.3513 16.4034 13.0229 16.5876 12.6628 16.6914V17.0281C12.6628 17.4164 12.348 17.7312 11.9597 17.7312C11.5714 17.7312 11.2566 17.4164 11.2566 17.0281V16.7606C10.7888 16.7056 10.3985 16.5615 9.87351 16.2181C9.54852 16.0056 9.45744 15.5698 9.67002 15.2448C9.8826 14.9197 10.3184 14.8287 10.6434 15.0413C11.1301 15.3597 11.3141 15.389 11.955 15.3845C12.586 15.3803 12.9521 14.91 13.0252 14.4748C13.0611 14.2623 13.0748 13.7433 12.4322 13.5162Z" fill="#FF5C00"/>
</g>
<defs>
<clipPath id="clip0">
<rect width="24" height="24" fill="white"/>
</clipPath>
</defs>
</svg>
