<svg width="60" height="60" viewBox="0 0 60 60" fill="none" xmlns="http://www.w3.org/2000/svg">
<circle cx="30" cy="30" r="30" fill="white"/>
<path d="M32.9237 26.7978C32.6985 26.5726 32.3334 26.5726 32.1082 26.7978C31.883 27.023 31.883 27.3881 32.1082 27.6133L32.8538 28.3588H27.5137L28.2593 27.6133C28.4845 27.3881 28.4845 27.0229 28.2593 26.7978C28.034 26.5726 27.669 26.5726 27.4438 26.7978L25.7138 28.5277C25.4886 28.7529 25.4886 29.1181 25.7138 29.3432L27.4438 31.0731C27.5564 31.1857 27.704 31.2421 27.8516 31.2421C27.9991 31.2421 28.1467 31.1858 28.2594 31.0731C28.4846 30.8479 28.4846 30.4828 28.2594 30.2577L27.5138 29.5121H32.8539L32.1083 30.2577C31.8831 30.4829 31.8831 30.848 32.1083 31.0731C32.2209 31.1857 32.3686 31.2421 32.5161 31.2421C32.6636 31.2421 32.8113 31.1858 32.9239 31.0731L34.6538 29.3432C34.879 29.118 34.879 28.7529 34.6538 28.5277L32.9237 26.7978Z" fill="#0082C5"/>
<path d="M21.5076 21.9766H13.3832C11.7934 21.9766 10.5 23.2699 10.5 24.8598C10.5 25.1783 10.7581 25.4364 11.0766 25.4364C11.3952 25.4364 11.6533 25.1783 11.6533 24.8598C11.6533 23.9059 12.4294 23.1299 13.3832 23.1299H21.5076C22.4614 23.1299 23.2375 23.9059 23.2375 24.8598L23.2374 34.2015C23.2374 34.5083 22.9895 34.7397 22.6608 34.7397C22.3321 34.7397 22.0841 34.5083 22.0841 34.2015V24.8982C22.0841 24.5798 21.826 24.3216 21.5075 24.3216C21.189 24.3216 20.9309 24.5798 20.9309 24.8982V45.4333C20.9309 45.8882 20.5289 46.2726 20.0531 46.2726C19.5691 46.2726 19.1753 45.8788 19.1753 45.3948V34.163C19.1753 33.8446 18.9172 33.5864 18.5987 33.5864H16.2921C15.9735 33.5864 15.7154 33.8446 15.7154 34.163V45.3948C15.7154 45.8788 15.3217 46.2726 14.8377 46.2726C14.3619 46.2726 13.9599 45.8883 13.9599 45.4333V24.8982C13.9599 24.5798 13.7018 24.3216 13.3832 24.3216C13.0647 24.3216 12.8066 24.5798 12.8066 24.8982V34.163C12.8066 34.481 12.5479 34.7397 12.2299 34.7397C11.9119 34.7397 11.6533 34.481 11.6533 34.163V27.1664C11.6533 26.8479 11.3952 26.5897 11.0766 26.5897C10.7581 26.5897 10.5 26.8479 10.5 27.1664V34.163C10.5 35.117 11.2761 35.893 12.2299 35.893C12.4321 35.893 12.6261 35.8578 12.8066 35.7938V45.4333C12.8066 46.5321 13.7178 47.426 14.8377 47.426C15.9575 47.426 16.8687 46.5148 16.8687 45.3949V34.7397H18.022V45.3948C18.022 46.5147 18.9332 47.4259 20.0531 47.4259C21.173 47.4259 22.0841 46.532 22.0841 45.4333V35.7997C22.2638 35.86 22.4576 35.893 22.6608 35.893C23.6309 35.893 24.3907 35.1499 24.3907 34.2015L24.3908 24.8598C24.3908 23.2699 23.0974 21.9766 21.5076 21.9766Z" fill="#0082C5"/>
<path d="M17.4193 20.8231C19.645 20.8231 21.4559 19.0123 21.4559 16.7865C21.4559 14.5607 19.645 12.75 17.4193 12.75C15.1936 12.75 13.3828 14.5607 13.3828 16.7865C13.3828 19.0123 15.1936 20.8231 17.4193 20.8231ZM17.4193 13.9033C19.0092 13.9033 20.3026 15.1967 20.3026 16.7865C20.3026 18.3764 19.0092 19.6698 17.4193 19.6698C15.8295 19.6698 14.5361 18.3764 14.5361 16.7865C14.5361 15.1967 15.8295 13.9033 17.4193 13.9033Z" fill="#0082C5"/>
<path d="M46.9822 21.9766H38.8579C37.2681 21.9766 35.9747 23.2699 35.9747 24.8598L35.9746 34.163C35.9746 35.117 36.7507 35.893 37.7046 35.893C37.9067 35.893 38.1007 35.8578 38.2812 35.7938V45.4333C38.2812 46.5321 39.1924 47.426 40.3122 47.426C41.4321 47.426 42.3433 46.5148 42.3433 45.3949V34.7397H43.4966L43.4967 45.3948C43.4967 46.5147 44.4079 47.4259 45.5277 47.4259C46.6477 47.4259 47.5588 46.532 47.5588 45.4333V35.7997C47.7385 35.86 47.9323 35.893 48.1355 35.893C49.1056 35.893 49.8654 35.1499 49.8654 34.2015V24.8598C49.8654 23.2699 48.572 21.9766 46.9822 21.9766ZM48.7121 34.2015C48.7121 34.5083 48.4642 34.7397 48.1355 34.7397C47.8068 34.7397 47.5588 34.5083 47.5588 34.2015C47.5588 34.2006 47.5588 24.8982 47.5588 24.8982C47.5588 24.5798 47.3006 24.3216 46.9821 24.3216C46.6636 24.3216 46.4055 24.5798 46.4055 24.8982L46.4055 45.4333C46.4055 45.8882 46.0035 46.2726 45.5277 46.2726C45.0437 46.2726 44.65 45.8788 44.65 45.3948L44.6499 34.163C44.6499 33.8446 44.3918 33.5864 44.0733 33.5864H41.7667C41.6138 33.5864 41.4671 33.6471 41.3589 33.7553C41.2508 33.8634 41.19 34.0101 41.19 34.163L41.1901 45.3948C41.1901 45.8788 40.7963 46.2726 40.3123 46.2726C39.8365 46.2726 39.4346 45.8883 39.4346 45.4333L39.4345 24.8982C39.4345 24.5798 39.1764 24.3216 38.8578 24.3216C38.5393 24.3216 38.2812 24.5798 38.2812 24.8982V34.1623C38.2812 34.481 38.0225 34.7397 37.7046 34.7397C37.3866 34.7397 37.1279 34.481 37.1279 34.163L37.128 24.8598C37.128 23.9059 37.9041 23.1299 38.8579 23.1299H46.9822C47.936 23.1299 48.7121 23.9059 48.7121 24.8598V34.2015Z" fill="#0082C5"/>
<path d="M42.8959 20.8231C45.1216 20.8231 46.9324 19.0123 46.9324 16.7865C46.9324 14.5607 45.1216 12.75 42.8959 12.75C40.6702 12.75 38.8594 14.5607 38.8594 16.7865C38.8594 19.0123 40.6702 20.8231 42.8959 20.8231ZM42.8959 13.9033C44.4858 13.9033 45.7791 15.1967 45.7791 16.7865C45.7791 18.3764 44.4858 19.6698 42.8959 19.6698C41.306 19.6698 40.0127 18.3764 40.0127 16.7865C40.0127 15.1967 41.306 13.9033 42.8959 13.9033Z" fill="#0082C5"/>
</svg>
