<svg width="28" height="28" viewBox="0 0 28 28" fill="none" xmlns="http://www.w3.org/2000/svg">
<path d="M23.0674 6.34264L18.2059 1.74338C17.661 1.22782 16.9473 0.94375 16.1971 0.94375H6.94146C5.32959 0.94375 4.01846 2.25488 4.01846 3.86676V24.1349C4.01846 25.7468 5.32959 27.0579 6.94146 27.0579H21.0586C22.6705 27.0579 23.9816 25.7468 23.9816 24.1349V8.46602C23.9816 7.66605 23.6485 6.8924 23.0674 6.34264ZM17.6289 3.69262L21.1185 6.99395H17.731C17.6748 6.99395 17.6289 6.94802 17.6289 6.89186V3.69262ZM21.0586 25.2454H6.94146C6.32929 25.2454 5.83101 24.7471 5.83101 24.1349V3.86676C5.83101 3.25458 6.32929 2.7563 6.94146 2.7563H15.8163V6.89186C15.8163 7.94772 16.6751 8.8065 17.731 8.8065H22.1691V24.1349C22.1691 24.7471 21.6708 25.2454 21.0586 25.2454Z" fill="#0082C5" stroke="#0082C5" stroke-width="0.3"/>
<path d="M19.3952 11.0297H8.30315C7.80264 11.0297 7.39687 11.4355 7.39687 11.936C7.39687 12.4365 7.80264 12.8422 8.30315 12.8422H19.3952C19.8957 12.8422 20.3015 12.4365 20.3015 11.936C20.3015 11.4355 19.8957 11.0297 19.3952 11.0297Z" fill="#0082C5" stroke="#0082C5" stroke-width="0.3"/>
<path d="M19.3952 15.0609H8.30315C7.80264 15.0609 7.39687 15.4667 7.39687 15.9672C7.39687 16.4677 7.80264 16.8735 8.30315 16.8735H19.3952C19.8957 16.8735 20.3015 16.4677 20.3015 15.9672C20.3015 15.4667 19.8957 15.0609 19.3952 15.0609Z" fill="#0082C5" stroke="#0082C5" stroke-width="0.3"/>
<path d="M11.9696 19.0961H8.30315C7.80264 19.0961 7.39687 19.5019 7.39687 20.0024C7.39687 20.5029 7.80264 20.9086 8.30315 20.9086H11.9696C12.4701 20.9086 12.8758 20.5029 12.8758 20.0024C12.8758 19.5019 12.4701 19.0961 11.9696 19.0961Z" fill="#0082C5" stroke="#0082C5" stroke-width="0.3"/>
</svg>
