<svg width="14" height="14" viewBox="0 0 14 14" fill="none" xmlns="http://www.w3.org/2000/svg">
<path d="M11.6654 7V12.8333H2.33203V7" stroke="#FF5C00" stroke-width="1.4" stroke-linecap="round" stroke-linejoin="round"/>
<path d="M12.8346 4.08398H1.16797V7.00065H12.8346V4.08398Z" stroke="#FF5C00" stroke-width="1.4" stroke-linecap="round" stroke-linejoin="round"/>
<path d="M7 12.833V4.08301" stroke="#FF5C00" stroke-width="1.4" stroke-linecap="round" stroke-linejoin="round"/>
<path d="M7.0013 4.08268H4.3763C3.98953 4.08268 3.6186 3.92904 3.3451 3.65555C3.07161 3.38206 2.91797 3.01112 2.91797 2.62435C2.91797 2.23757 3.07161 1.86664 3.3451 1.59315C3.6186 1.31966 3.98953 1.16602 4.3763 1.16602C6.41797 1.16602 7.0013 4.08268 7.0013 4.08268Z" stroke="#FF5C00" stroke-width="1.4" stroke-linecap="round" stroke-linejoin="round"/>
<path d="M7 4.08366H9.625C10.0118 4.08366 10.3827 3.93001 10.6562 3.65652C10.9297 3.38303 11.0833 3.0121 11.0833 2.62533C11.0833 2.23855 10.9297 1.86762 10.6562 1.59413C10.3827 1.32064 10.0118 1.16699 9.625 1.16699C7.58333 1.16699 7 4.08366 7 4.08366Z" stroke="#FF5C00" stroke-width="1.4" stroke-linecap="round" stroke-linejoin="round"/>
</svg>
