<svg width="135" height="40" viewBox="0 0 135 40" fill="none" xmlns="http://www.w3.org/2000/svg">
<g clip-path="url(#clip0)">
<path d="M130 40H5C2.25 40 0 37.75 0 35V5C0 2.25 2.25 0 5 0H130C132.75 0 135 2.25 135 5V35C135 37.75 132.75 40 130 40Z" fill="black"/>
<path d="M130 0.8C132.32 0.8 134.2 2.68 134.2 5V35C134.2 37.32 132.32 39.2 130 39.2H5C2.68 39.2 0.8 37.32 0.8 35V5C0.8 2.68 2.68 0.8 5 0.8H130ZM130 0H5C2.25 0 0 2.25 0 5V35C0 37.75 2.25 40 5 40H130C132.75 40 135 37.75 135 35V5C135 2.25 132.75 0 130 0Z" fill="#A6A6A6"/>
<path d="M47.4216 10.2401C47.4216 11.0801 47.1716 11.7501 46.6716 12.2401C46.1116 12.8301 45.3716 13.1301 44.4716 13.1301C43.6016 13.1301 42.8716 12.8301 42.2616 12.2301C41.6516 11.6301 41.3516 10.8801 41.3516 10.0001C41.3516 9.11012 41.6516 8.37012 42.2616 7.77012C42.8716 7.17012 43.6016 6.87012 44.4716 6.87012C44.9016 6.87012 45.3116 6.95012 45.7016 7.12012C46.0916 7.29012 46.4016 7.51012 46.6416 7.79012L46.1116 8.32012C45.7116 7.85012 45.1716 7.61012 44.4716 7.61012C43.8416 7.61012 43.2916 7.83012 42.8316 8.28012C42.3716 8.72012 42.1416 9.30012 42.1416 10.0101C42.1416 10.7201 42.3716 11.3001 42.8316 11.7401C43.2916 12.1801 43.8416 12.4101 44.4716 12.4101C45.1416 12.4101 45.7016 12.1901 46.1516 11.7401C46.4416 11.4501 46.6116 11.0401 46.6516 10.5201H44.4716V9.80012H47.3816C47.4016 9.95012 47.4216 10.1001 47.4216 10.2401Z" fill="white" stroke="white" stroke-width="0.2" stroke-miterlimit="10"/>
<path d="M52.0312 7.74012H49.3013V9.64012H51.7612V10.3601H49.3013V12.2601H52.0312V13.0001H48.5312V7.00012H52.0312V7.74012Z" fill="white" stroke="white" stroke-width="0.2" stroke-miterlimit="10"/>
<path d="M55.282 13.0001H54.512V7.74012H52.832V7.00012H56.952V7.74012H55.272V13.0001H55.282Z" fill="white" stroke="white" stroke-width="0.2" stroke-miterlimit="10"/>
<path d="M59.9414 13.0001V7.00012H60.7114V13.0001H59.9414Z" fill="white" stroke="white" stroke-width="0.2" stroke-miterlimit="10"/>
<path d="M64.1297 13.0001H63.3597V7.74012H61.6797V7.00012H65.7997V7.74012H64.1197V13.0001H64.1297Z" fill="white" stroke="white" stroke-width="0.2" stroke-miterlimit="10"/>
<path d="M73.612 12.2201C73.022 12.8301 72.292 13.1301 71.412 13.1301C70.532 13.1301 69.802 12.8301 69.212 12.2201C68.622 11.6101 68.332 10.8701 68.332 10.0001C68.332 9.13012 68.622 8.38012 69.212 7.78012C69.802 7.17012 70.532 6.87012 71.412 6.87012C72.282 6.87012 73.012 7.17012 73.612 7.78012C74.202 8.39012 74.502 9.13012 74.502 10.0001C74.492 10.8801 74.202 11.6201 73.612 12.2201ZM69.782 11.7201C70.222 12.1701 70.772 12.3901 71.412 12.3901C72.052 12.3901 72.602 12.1701 73.042 11.7201C73.482 11.2701 73.712 10.7001 73.712 10.0001C73.712 9.30012 73.492 8.73012 73.042 8.28012C72.602 7.83012 72.052 7.61012 71.412 7.61012C70.772 7.61012 70.222 7.83012 69.782 8.28012C69.342 8.73012 69.112 9.30012 69.112 10.0001C69.112 10.7001 69.342 11.2701 69.782 11.7201Z" fill="white" stroke="white" stroke-width="0.2" stroke-miterlimit="10"/>
<path d="M75.582 13.0001V7.00012H76.522L79.442 11.6701H79.472L79.442 10.5101V7.00012H80.212V13.0001H79.412L76.362 8.11012H76.332L76.362 9.27012V13.0001H75.582Z" fill="white" stroke="white" stroke-width="0.2" stroke-miterlimit="10"/>
<path d="M68.1391 21.7498C65.7891 21.7498 63.8691 23.5398 63.8691 25.9998C63.8691 28.4498 65.7891 30.2498 68.1391 30.2498C70.4891 30.2498 72.4091 28.4498 72.4091 25.9998C72.4091 23.5398 70.4891 21.7498 68.1391 21.7498ZM68.1391 28.5798C66.8491 28.5798 65.7391 27.5198 65.7391 25.9998C65.7391 24.4698 66.8491 23.4198 68.1391 23.4198C69.4291 23.4198 70.5391 24.4698 70.5391 25.9998C70.5391 27.5198 69.4191 28.5798 68.1391 28.5798ZM58.8191 21.7498C56.4691 21.7498 54.5491 23.5398 54.5491 25.9998C54.5491 28.4498 56.4691 30.2498 58.8191 30.2498C61.1691 30.2498 63.0891 28.4498 63.0891 25.9998C63.0891 23.5398 61.1691 21.7498 58.8191 21.7498ZM58.8191 28.5798C57.5291 28.5798 56.4191 27.5198 56.4191 25.9998C56.4191 24.4698 57.5291 23.4198 58.8191 23.4198C60.1091 23.4198 61.2191 24.4698 61.2191 25.9998C61.2191 27.5198 60.1091 28.5798 58.8191 28.5798ZM47.7391 23.0598V24.8598H52.0591C51.9291 25.8698 51.5891 26.6198 51.0791 27.1298C50.4491 27.7598 49.4691 28.4498 47.7491 28.4498C45.0891 28.4498 43.0091 26.3098 43.0091 23.6498C43.0091 20.9898 45.0891 18.8498 47.7491 18.8498C49.1791 18.8498 50.2291 19.4098 50.9991 20.1398L52.2691 18.8698C51.1891 17.8398 49.7591 17.0498 47.7391 17.0498C44.0991 17.0498 41.0391 20.0098 41.0391 23.6598C41.0391 27.2998 44.0991 30.2698 47.7391 30.2698C49.7091 30.2698 51.1891 29.6298 52.3491 28.4198C53.5391 27.2298 53.9091 25.5498 53.9091 24.1998C53.9091 23.7798 53.8791 23.3898 53.8091 23.0698H47.7391V23.0598ZM93.0491 24.4598C92.6991 23.5098 91.6191 21.7498 89.4091 21.7498C87.2191 21.7498 85.3991 23.4698 85.3991 25.9998C85.3991 28.3798 87.1991 30.2498 89.6191 30.2498C91.5691 30.2498 92.6991 29.0598 93.1591 28.3698L91.7091 27.3998C91.2291 28.1098 90.5691 28.5798 89.6191 28.5798C88.6691 28.5798 87.9891 28.1398 87.5591 27.2898L93.2491 24.9398L93.0491 24.4598ZM87.2491 25.8798C87.1991 24.2398 88.5191 23.3998 89.4691 23.3998C90.2091 23.3998 90.8391 23.7698 91.0491 24.2998L87.2491 25.8798ZM82.6291 29.9998H84.4991V17.4998H82.6291V29.9998ZM79.5691 22.6998H79.4991C79.0791 22.1998 78.2791 21.7498 77.2591 21.7498C75.1291 21.7498 73.1791 23.6198 73.1791 26.0198C73.1791 28.3998 75.1291 30.2598 77.2591 30.2598C78.2691 30.2598 79.0791 29.8098 79.4991 29.2898H79.5591V29.8998C79.5591 31.5298 78.6891 32.3998 77.2891 32.3998C76.1491 32.3998 75.4391 31.5798 75.1491 30.8898L73.5191 31.5698C73.9891 32.6998 75.2291 34.0798 77.2891 34.0798C79.4791 34.0798 81.3291 32.7898 81.3291 29.6498V22.0098H79.5591V22.6998H79.5691ZM77.4191 28.5798C76.1291 28.5798 75.0491 27.4998 75.0491 26.0198C75.0491 24.5198 76.1291 23.4298 77.4191 23.4298C78.6891 23.4298 79.6891 24.5298 79.6891 26.0198C79.6991 27.4998 78.6991 28.5798 77.4191 28.5798ZM101.809 17.4998H97.3391V29.9998H99.2091V25.2598H101.819C103.889 25.2598 105.919 23.7598 105.919 21.3798C105.919 18.9998 103.869 17.4998 101.809 17.4998ZM101.849 23.5198H99.1991V19.2298H101.849C103.249 19.2298 104.039 20.3898 104.039 21.3698C104.039 22.3498 103.249 23.5198 101.849 23.5198ZM113.389 21.7298C112.039 21.7298 110.639 22.3298 110.059 23.6398L111.719 24.3298C112.069 23.6398 112.729 23.4098 113.419 23.4098C114.379 23.4098 115.369 23.9898 115.379 25.0198V25.1498C115.039 24.9598 114.319 24.6698 113.429 24.6698C111.639 24.6698 109.829 25.6498 109.829 27.4798C109.829 29.1498 111.289 30.2298 112.929 30.2298C114.179 30.2298 114.879 29.6698 115.309 29.0098H115.369V29.9798H117.169V25.1898C117.179 22.9698 115.519 21.7298 113.389 21.7298ZM113.159 28.5798C112.549 28.5798 111.699 28.2698 111.699 27.5198C111.699 26.5598 112.759 26.1898 113.679 26.1898C114.499 26.1898 114.889 26.3698 115.379 26.6098C115.239 27.7598 114.239 28.5798 113.159 28.5798ZM123.739 21.9998L121.599 27.4198H121.539L119.319 21.9998H117.309L120.639 29.5798L118.739 33.7898H120.689L125.819 21.9998H123.739ZM106.939 29.9998H108.809V17.4998H106.939V29.9998Z" fill="white"/>
<path d="M10.4405 7.53999C10.1505 7.84999 9.98047 8.32999 9.98047 8.93999V31.06C9.98047 31.68 10.1505 32.16 10.4405 32.46L10.5105 32.53L22.9005 20.15V20V19.85L10.5105 7.46999L10.4405 7.53999Z" fill="url(#paint0_linear)"/>
<path d="M27.0284 24.28L22.8984 20.15V20V19.85L27.0284 15.72L27.1184 15.77L32.0084 18.55C33.4084 19.34 33.4084 20.64 32.0084 21.44L27.1184 24.22L27.0284 24.28Z" fill="url(#paint1_linear)"/>
<path d="M27.1175 24.22L22.8975 20L10.4375 32.46C10.8975 32.95 11.6575 33.01 12.5175 32.52L27.1175 24.22Z" fill="url(#paint2_linear)"/>
<path d="M27.1197 15.78L12.5097 7.47999C11.6497 6.98999 10.8897 7.04999 10.4297 7.53999L22.8997 20L27.1197 15.78Z" fill="url(#paint3_linear)"/>
<path opacity="0.2" d="M27.0314 24.13L12.5114 32.38C11.7014 32.84 10.9714 32.81 10.5114 32.39L10.4414 32.46L10.5114 32.53C10.9814 32.95 11.7014 32.98 12.5114 32.52L27.1214 24.22L27.0314 24.13Z" fill="black"/>
<path opacity="0.12" d="M10.4405 32.32C10.1505 32.01 9.98047 31.53 9.98047 30.92V31.07C9.98047 31.69 10.1505 32.17 10.4405 32.47L10.5105 32.4L10.4405 32.32Z" fill="black"/>
<path opacity="0.12" d="M32.0095 21.3L27.0195 24.13L27.1095 24.22L31.9995 21.44C32.6995 21.04 33.0495 20.52 33.0495 20C32.9995 20.47 32.6495 20.94 32.0095 21.3Z" fill="black"/>
<path opacity="0.25" d="M12.5088 7.61998L32.0087 18.7C32.6387 19.06 32.9988 19.52 33.0588 20C33.0588 19.48 32.7087 18.95 32.0087 18.56L12.5088 7.47998C11.1088 6.68998 9.96875 7.34998 9.96875 8.94998V9.09998C9.96875 7.48998 11.1188 6.82998 12.5088 7.61998Z" fill="white"/>
</g>
<defs>
<linearGradient id="paint0_linear" x1="21.8002" y1="8.70969" x2="5.01777" y2="25.4921" gradientUnits="userSpaceOnUse">
<stop stop-color="#00A0FF"/>
<stop offset="0.00657445" stop-color="#00A1FF"/>
<stop offset="0.2601" stop-color="#00BEFF"/>
<stop offset="0.5122" stop-color="#00D2FF"/>
<stop offset="0.7604" stop-color="#00DFFF"/>
<stop offset="1" stop-color="#00E3FF"/>
</linearGradient>
<linearGradient id="paint1_linear" x1="33.8328" y1="20.0014" x2="9.63594" y2="20.0014" gradientUnits="userSpaceOnUse">
<stop stop-color="#FFE000"/>
<stop offset="0.4087" stop-color="#FFBD00"/>
<stop offset="0.7754" stop-color="#FFA500"/>
<stop offset="1" stop-color="#FF9C00"/>
</linearGradient>
<linearGradient id="paint2_linear" x1="24.8245" y1="22.2961" x2="2.0662" y2="45.0544" gradientUnits="userSpaceOnUse">
<stop stop-color="#FF3A44"/>
<stop offset="1" stop-color="#C31162"/>
</linearGradient>
<linearGradient id="paint3_linear" x1="7.29699" y1="0.176187" x2="17.4596" y2="10.3387" gradientUnits="userSpaceOnUse">
<stop stop-color="#32A071"/>
<stop offset="0.0685" stop-color="#2DA771"/>
<stop offset="0.4762" stop-color="#15CF74"/>
<stop offset="0.8009" stop-color="#06E775"/>
<stop offset="1" stop-color="#00F076"/>
</linearGradient>
<clipPath id="clip0">
<rect width="135" height="40" fill="white"/>
</clipPath>
</defs>
</svg>
