<svg width="60" height="60" viewBox="0 0 60 60" fill="none" xmlns="http://www.w3.org/2000/svg">
<circle cx="30" cy="30" r="30" fill="white"/>
<path d="M35.2559 40.4022C32.9986 41.8276 30.5154 42.7476 27.876 43.1367C27.4137 43.2049 27.0945 43.635 27.1628 44.0972C27.231 44.5594 27.6612 44.8788 28.1221 44.8105C30.9967 44.3871 33.7004 43.3852 36.158 41.8329C36.696 41.4932 37.0782 40.9794 37.2543 40.3877C37.4299 40.4022 37.606 40.4145 37.7808 40.4234C38.0468 40.4379 38.3136 40.4436 38.5799 40.4436C41.5711 40.4436 44.4818 39.6043 46.9979 38.0158C47.6253 37.6189 48 36.9372 48 36.1935C48 33.6736 47.02 31.3071 45.2413 29.5296C44.2674 28.555 43.1169 27.8218 41.863 27.3557C43.179 26.359 44.0314 24.7798 44.0314 23.0046C44.0314 19.9965 41.5857 17.5494 38.5795 17.5494C35.5733 17.5494 33.1276 19.9965 33.1276 23.0046C33.1276 24.7816 33.9817 26.363 35.3003 27.3596C34.0702 27.8179 32.9369 28.5321 31.9899 29.46C31.0112 28.7894 29.9471 28.2686 28.8257 27.9091C30.7686 26.6621 32.0604 24.4837 32.0604 22.0075C32.0604 18.1433 28.9186 15 25.0574 15C21.1958 15 18.054 18.1433 18.054 22.0075C18.054 24.486 19.3479 26.6661 21.2939 27.9122C16.3426 29.5072 12.75 34.16 12.75 39.6377C12.75 40.5353 13.2008 41.3557 13.9563 41.8329C16.9128 43.6998 20.3253 44.7942 23.8246 44.9987C23.8414 44.9996 23.8581 45 23.8744 45C24.319 45 24.6915 44.6528 24.7175 44.2034C24.7448 43.7368 24.3891 43.3367 23.9228 43.3094C20.7084 43.1221 17.5736 42.1166 14.8585 40.4022C14.5969 40.2365 14.4406 39.951 14.4406 39.6377C14.4406 33.7802 19.2031 29.015 25.0569 29.015C27.8923 29.015 30.559 30.1205 32.5654 32.1284C34.5699 34.1314 35.6737 36.7984 35.6737 39.6377C35.6737 39.951 35.5174 40.2365 35.2559 40.4022C35.5174 40.2365 32.9986 41.8276 35.2559 40.4022ZM19.7446 22.0075C19.7446 19.0765 22.1278 16.692 25.0569 16.692C27.9865 16.692 30.3693 19.0765 30.3693 22.0075C30.3693 24.9385 27.9865 27.3231 25.0569 27.3231C22.1278 27.3231 19.7446 24.9385 19.7446 22.0075ZM38.5795 19.2413C40.6532 19.2413 42.3407 20.9293 42.3407 23.0046C42.3407 25.0773 40.6571 26.7639 38.5861 26.7674C38.5843 26.7674 38.5821 26.7674 38.5799 26.7674C38.5768 26.7674 38.5742 26.7674 38.5711 26.7674C36.501 26.763 34.8182 25.0768 34.8182 23.0046C34.8182 20.9293 36.5054 19.2413 38.5795 19.2413ZM37.6681 28.514C37.9723 28.4761 38.2797 28.4598 38.5861 28.4598C40.6479 28.4612 42.5868 29.2662 44.0468 30.7268C45.5054 32.1848 46.3094 34.1261 46.3094 36.1935C46.3094 36.3539 46.2288 36.501 46.0949 36.5856C43.8504 38.0026 41.2515 38.7521 38.5799 38.7521C38.3426 38.7521 38.1053 38.7468 37.8684 38.7336C37.6884 38.7248 37.5079 38.712 37.3291 38.6962C37.109 35.7599 35.8612 33.0312 33.7603 30.9312C33.6194 30.7902 33.475 30.6528 33.3284 30.5193C34.5255 29.4111 36.055 28.7017 37.6681 28.514Z" fill="#0082C5"/>
</svg>
