<svg width="18" height="18" viewBox="0 0 18 18" fill="none" xmlns="http://www.w3.org/2000/svg">
<path d="M8.3411 2.3712C8.54835 1.73337 9.45071 1.73336 9.65795 2.37119L10.939 6.31381C11.0317 6.59906 11.2975 6.79218 11.5974 6.79218H15.7429C16.4136 6.79218 16.6924 7.65038 16.1499 8.04458L12.7961 10.4813C12.5534 10.6575 12.4519 10.97 12.5446 11.2553L13.8256 15.1979C14.0328 15.8357 13.3028 16.3661 12.7602 15.9719L9.40646 13.5352C9.16381 13.359 8.83525 13.359 8.5926 13.5352L5.23881 15.9719C4.69624 16.3661 3.96621 15.8357 4.17346 15.1979L5.45449 11.2553C5.54717 10.97 5.44564 10.6575 5.203 10.4813L1.84921 8.04458C1.30664 7.65038 1.58548 6.79218 2.25613 6.79218H6.40165C6.70157 6.79218 6.96739 6.59906 7.06007 6.31381L8.3411 2.3712Z" fill="white"/>
<mask id="mask0" mask-type="alpha" maskUnits="userSpaceOnUse" x="1" y="1" width="16" height="16">
<path d="M8.3411 2.3712C8.54835 1.73337 9.45071 1.73336 9.65795 2.37119L10.939 6.31381C11.0317 6.59906 11.2975 6.79218 11.5974 6.79218H15.7429C16.4136 6.79218 16.6924 7.65038 16.1499 8.04458L12.7961 10.4813C12.5534 10.6575 12.4519 10.97 12.5446 11.2553L13.8256 15.1979C14.0328 15.8357 13.3028 16.3661 12.7602 15.9719L9.40646 13.5352C9.16381 13.359 8.83525 13.359 8.5926 13.5352L5.23881 15.9719C4.69624 16.3661 3.96621 15.8357 4.17346 15.1979L5.45449 11.2553C5.54717 10.97 5.44564 10.6575 5.203 10.4813L1.84921 8.04458C1.30664 7.65038 1.58548 6.79218 2.25613 6.79218H6.40165C6.70157 6.79218 6.96739 6.59906 7.06007 6.31381L8.3411 2.3712Z" fill="white"/>
</mask>
<g mask="url(#mask0)">
<rect x="1.51953" y="1.38477" width="7.61539" height="15.2308" fill="#FFA134"/>
</g>
</svg>
