<svg width="24" height="24" viewBox="0 0 24 24" fill="none" xmlns="http://www.w3.org/2000/svg">
<path d="M12 24C18.6274 24 24 18.6274 24 12C24 5.37258 18.6274 0 12 0C5.37258 0 0 5.37258 0 12C0 18.6274 5.37258 24 12 24Z" fill="#FFD93B"/>
<path d="M12.0016 19.9012C8.77807 19.9012 5.94532 17.8357 4.95307 14.7615C4.85782 14.466 5.01982 14.1487 5.31532 14.0535C5.61232 13.9575 5.92807 14.1202 6.02332 14.4157C6.86557 17.0235 9.26782 18.7762 12.0016 18.7762C14.7353 18.7762 17.1376 17.0242 17.9798 14.4157C18.0751 14.1202 18.3908 13.9575 18.6878 14.0535C18.9833 14.1487 19.1453 14.466 19.0501 14.7615C18.0578 17.8357 15.2251 19.9012 12.0016 19.9012Z" fill="#3E4347"/>
<path d="M23.9994 11.9999C23.9994 18.6299 18.6257 23.9999 11.9994 23.9999C8.22695 23.9999 4.85945 22.2599 2.6582 19.5337C4.71695 21.1987 7.3382 22.1924 10.1919 22.1924C16.8182 22.1924 22.1919 16.8224 22.1919 10.1924C22.1919 7.33869 21.1982 4.71744 19.5332 2.65869C22.2557 4.85994 23.9994 8.22743 23.9994 11.9999Z" fill="#F4C534"/>
<path d="M10.0038 10.0396C9.43982 9.27006 8.42282 8.75856 7.26332 8.75856C6.09858 8.76381 5.08158 9.27531 4.51758 10.0448C4.54383 8.55306 5.76183 7.35156 7.26332 7.35156C8.75432 7.35156 9.97757 8.54781 10.0038 10.0396Z" fill="#3E4347"/>
<path d="M19.4804 10.0396C18.9164 9.27006 17.8994 8.75856 16.7399 8.75856C15.5751 8.76381 14.5581 9.27531 13.9941 10.0448C14.0204 8.55306 15.2384 7.35156 16.7399 7.35156C18.2316 7.35156 19.4541 8.54781 19.4804 10.0396Z" fill="#3E4347"/>
</svg>
