<svg width="157" height="157" viewBox="0 0 157 157" fill="none" xmlns="http://www.w3.org/2000/svg">
<g clip-path="url(#clip0)">
<path d="M144.545 22.2554C136.418 13.4407 125.266 8.58594 113.142 8.58594C104.079 8.58594 95.7797 11.4511 88.473 17.1012C84.7861 19.9532 81.4454 23.4424 78.5 27.515C75.5558 23.4436 72.2139 19.9532 68.5258 17.1012C61.2203 11.4511 52.9207 8.58594 43.858 8.58594C31.7337 8.58594 20.5809 13.4407 12.4537 22.2554C4.42353 30.9671 0 42.8686 0 55.7691C0 69.0468 4.94817 81.2011 15.5716 94.0201C25.0751 105.487 38.7337 117.127 54.5509 130.606C59.9518 135.209 66.0739 140.427 72.4307 145.985C74.11 147.456 76.2649 148.266 78.5 148.266C80.7339 148.266 82.89 147.456 84.5669 145.987C90.9237 140.428 97.0494 135.208 102.453 130.603C118.267 117.126 131.926 105.487 141.43 94.0189C152.053 81.2011 157 69.0468 157 55.7679C157 42.8686 152.576 30.9671 144.545 22.2554Z" fill="white"/>
</g>
<defs>
<clipPath id="clip0">
<rect width="157" height="157" fill="white"/>
</clipPath>
</defs>
</svg>
