<svg width="31" height="19" viewBox="0 0 31 19" fill="none" xmlns="http://www.w3.org/2000/svg">
<path d="M27.3609 19H3.63913C1.61739 19 0 17.4437 0 15.4983V3.50171C0 1.55631 1.61739 0 3.63913 0H27.3609C29.3826 0 31 1.55631 31 3.50171V15.4983C31 17.4437 29.3826 19 27.3609 19Z" fill="#BABBBD"/>
<path d="M11.8603 10.3824H8.55808L7.74939 14.1168H4.85156L6.8733 4.87891H9.77113L9.09721 7.95822H12.3994L13.0733 4.87891H15.9711L14.0168 14.1168H11.119L11.8603 10.3824Z" fill="white"/>
<path d="M16.0391 14.1168L17.9934 4.87891H21.363C22.1043 4.87891 22.5086 4.87891 22.7108 4.87891C23.1151 4.94442 23.5195 4.94442 23.7891 5.07546C24.126 5.20649 24.6651 5.40304 24.9347 5.5996C25.2043 5.79615 25.4065 6.05822 25.6086 6.3858C25.8108 6.71339 25.9456 7.04097 26.013 7.43408C26.0804 7.82718 26.1478 8.22029 26.1478 8.67891C26.1478 9.66166 25.9456 10.5789 25.5412 11.2996C25.1369 12.0858 24.6651 12.6755 24.0586 13.1341C23.5869 13.4617 22.7108 13.7237 21.9695 13.9203C21.5651 13.9858 20.9586 14.0513 20.0825 14.0513H16.0391V14.1168ZM19.5434 11.6927H20.0151C20.7565 11.6927 21.2282 11.6272 21.5651 11.5617C21.9021 11.4961 22.1717 11.2996 22.4412 11.103C22.8456 10.7755 23.2499 10.3824 23.3173 9.59615C23.3847 8.94098 23.1825 8.35132 22.9804 8.02373C22.7782 7.69615 22.5086 7.4996 22.1717 7.36856C21.9695 7.30304 21.5651 7.23753 20.9586 7.23753H20.4195L19.5434 11.6927Z" fill="white"/>
</svg>
