<svg width="60" height="60" viewBox="0 0 60 60" fill="none" xmlns="http://www.w3.org/2000/svg">
<circle cx="30" cy="30" r="30" fill="white"/>
<path d="M25.4011 35.2827C26.1534 35.2827 26.7632 34.6729 26.7632 33.9207C26.7632 33.1684 26.1534 32.5586 25.4011 32.5586C24.6489 32.5586 24.0391 33.1684 24.0391 33.9207C24.0391 34.6729 24.6489 35.2827 25.4011 35.2827Z" fill="#0082C5"/>
<path d="M34.4539 35.2827C35.2061 35.2827 35.8159 34.6729 35.8159 33.9207C35.8159 33.1684 35.2061 32.5586 34.4539 32.5586C33.7016 32.5586 33.0918 33.1684 33.0918 33.9207C33.0918 34.6729 33.7016 35.2827 34.4539 35.2827Z" fill="#0082C5"/>
<path d="M34.1982 40.3646C31.381 41.1703 28.3943 41.1703 25.5771 40.3646C25.4961 40.3414 25.4114 40.3344 25.3278 40.344C25.2442 40.3536 25.1632 40.3796 25.0896 40.4204C24.941 40.503 24.8312 40.6412 24.7845 40.8046C24.7613 40.8856 24.7543 40.9703 24.7639 41.0539C24.7735 41.1375 24.7995 41.2185 24.8404 41.2921C24.8812 41.3657 24.9362 41.4305 25.0021 41.4828C25.068 41.5352 25.1436 41.5741 25.2245 41.5972C28.2722 42.4689 31.5031 42.4689 34.5508 41.5972C34.7142 41.5505 34.8524 41.4407 34.935 41.2921C35.0175 41.1434 35.0376 40.9681 34.9908 40.8046C34.9441 40.6412 34.8343 40.503 34.6857 40.4204C34.537 40.3379 34.3617 40.3178 34.1982 40.3646Z" fill="#0082C5"/>
<path d="M34.1984 43.5598C31.381 44.3656 28.3942 44.3656 25.5768 43.5598C25.4133 43.5131 25.238 43.5333 25.0894 43.6159C24.9408 43.6984 24.8311 43.8366 24.7844 44.0001C24.7377 44.1636 24.7579 44.3389 24.8405 44.4875C24.923 44.6361 25.0613 44.7458 25.2247 44.7925C28.2722 45.664 31.5029 45.664 34.5504 44.7925C34.7139 44.7458 34.8521 44.6361 34.9347 44.4875C35.0173 44.3389 35.0374 44.1636 34.9907 44.0001C34.9441 43.8366 34.8344 43.6984 34.6858 43.6159C34.5372 43.5333 34.3618 43.5131 34.1984 43.5598Z" fill="#0082C5"/>
<path d="M43.9652 33.1424C44.7405 31.2042 45.1017 29.1254 45.0258 27.0393C44.9499 24.9532 44.4385 22.9061 43.5244 21.0294C42.6103 19.1528 41.3138 17.488 39.7182 16.1422C38.1225 14.7963 36.263 13.7991 34.259 13.2146L31.4427 12.3933C29.7713 11.9056 28.0003 11.8708 26.3111 12.2925C24.6218 12.7143 23.075 13.5773 21.8289 14.7934L20.9075 15.2029C19.3631 15.8948 18.0224 16.9719 17.0138 18.3309C16.0052 19.6898 15.3627 21.2851 15.1478 22.9637C14.7158 26.4212 15.2352 29.9311 16.6503 33.1152L16.9318 33.7481C16.4103 34.2621 16.0464 34.9144 15.8832 35.6282C15.7199 36.342 15.7639 37.0876 16.0101 37.7772C16.2562 38.4668 16.6943 39.0718 17.2727 39.5208C17.8511 39.9699 18.5457 40.2443 19.2749 40.3119C19.8298 42.7108 21.1811 44.851 23.1085 46.3834C25.0358 47.9158 27.4255 48.75 29.8878 48.75C32.3501 48.75 34.7398 47.9158 36.6671 46.3834C38.5945 44.851 39.9458 42.7108 40.5008 40.3119C41.1502 40.2516 41.7735 40.027 42.3122 39.6593C42.8509 39.2917 43.2871 38.793 43.5799 38.2102C43.8727 37.6274 44.0123 36.9797 43.9858 36.3281C43.9592 35.6764 43.7672 35.0422 43.4279 34.4852L43.9652 33.1424ZM17.8214 32.5948C16.501 29.6238 16.0162 26.3488 16.4193 23.1227C16.6062 21.6631 17.165 20.2759 18.0419 19.0943C18.9189 17.9126 20.0848 16.976 21.4277 16.3743L22.4559 15.9176C22.5277 15.8857 22.5931 15.8408 22.6488 15.7852C23.7318 14.7019 25.0862 13.9297 26.57 13.5495C28.0539 13.1694 29.6127 13.1952 31.0832 13.6243L33.8994 14.4457C35.7318 14.9801 37.4321 15.8918 38.8912 17.1223C40.3502 18.3528 41.5358 19.875 42.3716 21.5909C43.2074 23.3068 43.6751 25.1786 43.7445 27.086C43.814 28.9935 43.4837 30.8943 42.7749 32.6665L42.4713 33.4254C41.9769 33.0476 41.3979 32.796 40.7844 32.6924V30.715C40.7844 30.545 40.7169 30.382 40.5966 30.2618C40.4764 30.1416 40.3134 30.0741 40.1434 30.0741H38.5112C35.8872 30.0724 33.2926 29.5198 30.8955 28.4523C28.4984 27.3847 26.3521 25.8258 24.5954 23.8765C24.5309 23.8048 24.451 23.7486 24.3618 23.712C24.2725 23.6755 24.1762 23.6596 24.0799 23.6655C23.9836 23.6714 23.8899 23.6989 23.8058 23.746C23.7216 23.7932 23.6492 23.8587 23.5939 23.9377L19.1071 30.3474C19.0317 30.4552 18.9912 30.5835 18.9912 30.715V32.6924C18.6491 32.7499 18.3165 32.8539 18.0025 33.0014L17.8214 32.5948ZM37.3151 37.0757L36.0953 36.8859C31.9814 36.2448 27.7931 36.2448 23.6792 36.8859L22.5329 37.0642L20.2732 33.1087V30.9171L24.1911 25.3193C26.0558 27.2284 28.283 28.7458 30.742 29.7824C33.2011 30.8189 35.8424 31.3538 38.511 31.3557H39.5024V33.2486L37.3151 37.0757ZM18.9912 38.9666C18.4408 38.8245 17.9533 38.5034 17.6052 38.054C17.2571 37.6046 17.0682 37.0523 17.0682 36.4838C17.0682 35.9153 17.2571 35.363 17.6052 34.9136C17.9533 34.4642 18.4408 34.1432 18.9912 34.001V38.9666ZM20.2732 37.8504V35.6926L21.5551 37.936V42.6605C20.7121 41.1978 20.2699 39.5386 20.2732 37.8504ZM34.9836 46.0036C33.0865 47.186 30.8372 47.6718 28.6212 47.3779C26.4052 47.0841 24.3604 46.0287 22.8371 44.3927V38.3144L23.877 38.1525C27.8602 37.5318 31.9155 37.5318 35.8986 38.1525L36.9385 38.3144V44.3927C36.3601 45.0129 35.7029 45.5544 34.9836 46.0036ZM38.2205 42.6605V38.0762L39.5024 35.8328V37.8504C39.5058 39.5386 39.0636 41.1978 38.2205 42.6605ZM40.7844 38.9669V34.001C41.3348 34.1432 41.8223 34.4642 42.1704 34.9136C42.5185 35.363 42.7074 35.9153 42.7074 36.4838C42.7074 37.0523 42.5185 37.6046 42.1704 38.054C41.8223 38.5034 41.3348 38.8245 40.7844 38.9666V38.9669Z" fill="#0082C5"/>
</svg>
