<svg width="24" height="24" viewBox="0 0 24 24" fill="none" xmlns="http://www.w3.org/2000/svg">
<path d="M12 24C18.6274 24 24 18.6274 24 12C24 5.37258 18.6274 0 12 0C5.37258 0 0 5.37258 0 12C0 18.6274 5.37258 24 12 24Z" fill="#FFD93B"/>
<path d="M23.9994 11.9999C23.9994 18.6299 18.6257 23.9999 11.9994 23.9999C8.22695 23.9999 4.85945 22.2599 2.6582 19.5337C4.71695 21.1987 7.3382 22.1924 10.1919 22.1924C16.8182 22.1924 22.1919 16.8224 22.1919 10.1924C22.1919 7.33869 21.1982 4.71744 19.5332 2.65869C22.2557 4.85994 23.9994 8.22743 23.9994 11.9999Z" fill="#F4C534"/>
<path d="M15.5827 18.0373C15.5827 18.3876 15.303 18.6621 14.958 18.6621H9.04272C8.69772 18.6621 8.41797 18.3868 8.41797 18.0373C8.41797 17.6923 8.69772 17.4126 9.04272 17.4126H14.958C15.3022 17.4126 15.5827 17.6923 15.5827 18.0373Z" fill="#3E4347"/>
<path d="M5.24039 12.2659C5.53364 12.0934 6.40139 13.0234 7.76414 13.0744C9.17489 13.1269 9.99464 12.0934 10.2879 12.2659C10.6531 12.3912 10.1551 14.7762 7.76414 14.7852C5.37389 14.7762 4.87514 12.3912 5.24039 12.2659Z" fill="#3E4347"/>
<path d="M4.67832 11.2179C4.40607 11.1744 4.22007 10.9179 4.26432 10.6449C4.30857 10.3726 4.56057 10.1859 4.83732 10.2309C7.64832 10.6824 8.50257 8.67462 8.51082 8.65437C8.61432 8.39862 8.90532 8.27562 9.16257 8.37987C9.41832 8.48412 9.54132 8.77587 9.43707 9.03162C8.87307 10.4131 7.10157 11.6071 4.67832 11.2179Z" fill="#E9B02C"/>
<path d="M18.7606 12.2659C18.4674 12.0934 17.5996 13.0234 16.2369 13.0744C14.8261 13.1269 14.0064 12.0934 13.7131 12.2659C13.3479 12.3912 13.8459 14.7762 16.2369 14.7852C18.6271 14.7762 19.1259 12.3912 18.7606 12.2659Z" fill="#3E4347"/>
<path d="M14.5625 9.03078C14.4582 8.77503 14.5812 8.48328 14.837 8.37903C15.092 8.27478 15.383 8.39703 15.488 8.65128C15.5255 8.74128 16.3842 10.677 19.1622 10.2308C19.4375 10.1858 19.6917 10.3725 19.7352 10.6448C19.7787 10.9178 19.5935 11.1743 19.3212 11.2178C16.9152 11.6048 15.131 10.425 14.5625 9.03078Z" fill="#E9B02C"/>
</svg>
