<svg width="20" height="20" viewBox="0 0 20 20" fill="none" xmlns="http://www.w3.org/2000/svg">
<path d="M7.71592 11.0642C6.71715 12.2144 6.76627 13.9991 7.82235 15.1002C8.41179 15.7183 9.2018 16.0253 9.98772 16.0253C10.7573 16.0253 11.5227 15.7306 12.1081 15.1452C12.3741 14.8791 12.5829 14.5721 12.7262 14.2488L16.5944 6.74979C16.6967 6.53694 16.4756 6.3159 16.2628 6.41823L8.76381 10.2864C8.37495 10.4584 8.01883 10.7203 7.71592 11.0642ZM9.08309 12.1202C9.33279 11.8705 9.66025 11.7437 9.98772 11.7437C10.3152 11.7437 10.6427 11.8705 10.8964 12.1202C11.3958 12.6196 11.3958 13.4342 10.8964 13.9336C10.6467 14.1833 10.3193 14.3102 9.98772 14.3102C9.66025 14.3102 9.33279 14.1833 9.08309 13.9336C8.57961 13.4301 8.57961 12.6196 9.08309 12.1202ZM18.0188 13.9745C18.0188 12.5582 17.6463 11.1665 16.9382 9.95078C16.6639 9.47595 16.8236 8.87014 17.2984 8.59589C17.7732 8.32163 18.379 8.48127 18.6533 8.9561C19.5334 10.4747 20 12.2103 20 13.9745C20 14.523 19.5579 14.9651 19.0094 14.9651C18.465 14.9651 18.0188 14.523 18.0188 13.9745ZM0 13.9745C0 8.4608 4.48629 3.97452 10 3.97452C11.2812 3.97452 12.5297 4.21193 13.7086 4.68676C14.2161 4.89142 14.4617 5.46449 14.2612 5.97206C14.0565 6.47963 13.4834 6.72523 12.9758 6.52466C12.0303 6.14807 11.0274 5.95569 10 5.95569C5.57921 5.95569 1.98117 9.55372 1.98117 13.9745C1.98117 14.523 1.53909 14.9651 0.990585 14.9651C0.442079 14.9651 0 14.523 0 13.9745Z" fill="#0082C5"/>
</svg>
