<svg width="18" height="18" viewBox="0 0 18 18" fill="none" xmlns="http://www.w3.org/2000/svg">
<path d="M9.00126 11.9183C7.81586 11.9183 6.85156 12.8827 6.85156 14.0681C6.85156 15.2535 7.81593 16.2178 9.00126 16.2178C10.1866 16.2178 11.151 15.2534 11.151 14.0681C11.151 12.8827 10.1866 11.9183 9.00126 11.9183ZM9.00126 15.1576C8.40051 15.1576 7.91177 14.6688 7.91177 14.0681C7.91177 13.4673 8.40051 12.9786 9.00126 12.9786C9.60201 12.9786 10.0908 13.4673 10.0908 14.0681C10.0908 14.6688 9.60205 15.1576 9.00126 15.1576Z" fill="#0082C5"/>
<path d="M14.187 9.08277C11.3265 6.22225 6.6721 6.22225 3.81161 9.08277C3.05238 9.842 3.05238 11.0774 3.81161 11.8366C4.17942 12.2044 4.66844 12.407 5.18854 12.407C5.70868 12.407 6.1977 12.2044 6.56544 11.8366C7.21555 11.1865 8.0799 10.8285 8.99934 10.8285C9.91878 10.8285 10.7831 11.1865 11.4332 11.8366C11.801 12.2044 12.29 12.407 12.8101 12.407C13.3303 12.407 13.8193 12.2044 14.1871 11.8366C14.9463 11.0774 14.9463 9.842 14.187 9.08277ZM13.4374 11.0869C13.2698 11.2545 13.0471 11.3468 12.8101 11.3468C12.5732 11.3468 12.3505 11.2545 12.1829 11.0869C11.3325 10.2366 10.2019 9.76828 8.9993 9.76828C7.79671 9.76828 6.66612 10.2366 5.81573 11.087C5.64818 11.2545 5.42546 11.3468 5.18851 11.3468C4.95159 11.3468 4.7288 11.2545 4.56125 11.087C4.21542 10.7411 4.21542 10.1783 4.56125 9.83248C5.785 8.60869 7.39189 7.99707 8.99934 7.99707C10.6064 7.99707 12.2139 8.609 13.4374 9.83241C13.7832 10.1783 13.7832 10.741 13.4374 11.0869Z" fill="#0082C5"/>
<path d="M17.4296 5.27391C15.178 3.02229 12.1843 1.78223 9 1.78223C5.81569 1.78223 2.82199 3.02229 0.570375 5.27391C0.202535 5.64171 0 6.1307 0 6.65084C0 7.17098 0.202535 7.66 0.570375 8.02777C0.949992 8.40742 1.44854 8.5972 1.94727 8.59716C2.44586 8.59713 2.94462 8.40732 3.3242 8.02777C4.83768 6.51429 6.85343 5.68074 9.00004 5.68074C11.1466 5.68074 13.1624 6.51422 14.6759 8.02777C15.0436 8.39554 15.5327 8.59807 16.0528 8.59807C16.5729 8.59807 17.0619 8.39554 17.4297 8.02777C17.7974 7.66 18 7.17101 18 6.65084C18 6.1307 17.7975 5.64171 17.4296 5.27391ZM16.68 7.2781C16.5124 7.44562 16.2896 7.53787 16.0527 7.53787C15.8157 7.53787 15.593 7.44558 15.4254 7.2781C13.7117 5.56434 11.4298 4.62053 8.99993 4.62053C6.57011 4.62053 4.28815 5.56434 2.57446 7.27806C2.22855 7.62389 1.66581 7.62389 1.31994 7.27806C1.15246 7.11054 1.06021 6.88776 1.06021 6.65084C1.06021 6.41392 1.15249 6.19114 1.32005 6.02358C3.37145 3.97221 6.09891 2.84243 9 2.84243C11.9011 2.84243 14.6286 3.97218 16.68 6.02362C16.8475 6.19114 16.9398 6.41389 16.9398 6.65084C16.9398 6.88779 16.8475 7.11058 16.68 7.2781Z" fill="#0082C5"/>
</svg>
