<svg width="60" height="60" viewBox="0 0 60 60" fill="none" xmlns="http://www.w3.org/2000/svg">
<circle cx="30" cy="30" r="30" fill="white"/>
<path d="M42.1938 15.2109C37.9426 15.2109 34.4845 18.6698 34.4845 22.9202C34.4845 23.3931 34.8674 23.7768 35.3411 23.7768C35.8148 23.7768 36.1977 23.3931 36.1977 22.9202C36.1977 19.6138 38.8883 16.9241 42.1938 16.9241C45.4994 16.9241 48.19 19.6138 48.19 22.9202C48.19 26.2267 45.4994 28.9164 42.1938 28.9164H11.3566C10.8838 28.9164 10.5 29.3001 10.5 29.773C10.5 30.2458 10.8838 30.6296 11.3566 30.6296H42.1938C46.4451 30.6296 49.9032 27.1706 49.9032 22.9202C49.9032 18.6698 46.4451 15.2109 42.1938 15.2109Z" fill="#0082C5"/>
<path d="M11.3566 25.4923H25.9186C29.2251 25.4923 31.9148 22.8026 31.9148 19.4961C31.9148 16.1897 29.2251 13.5 25.9186 13.5C22.6122 13.5 19.9225 16.1897 19.9225 19.4961C19.9225 19.969 20.3062 20.3527 20.7791 20.3527C21.2519 20.3527 21.6357 19.969 21.6357 19.4961C21.6357 17.1345 23.557 15.2132 25.9186 15.2132C28.2802 15.2132 30.2016 17.1345 30.2016 19.4961C30.2016 21.8578 28.2802 23.7791 25.9186 23.7791H11.3566C10.8838 23.7791 10.5 24.1628 10.5 24.6357C10.5 25.1085 10.8838 25.4923 11.3566 25.4923Z" fill="#0082C5"/>
<path d="M40.4807 44.3377C38.119 44.3377 36.1977 42.4163 36.1977 40.0547C36.1977 39.5819 35.8148 39.1981 35.3411 39.1981C34.8674 39.1981 34.4845 39.5819 34.4845 40.0547C34.4845 43.3612 37.1751 46.0509 40.4807 46.0509C43.7862 46.0509 46.4768 43.3612 46.4768 40.0547C46.4768 36.7483 43.7862 34.0586 40.4807 34.0586H11.3566C10.8838 34.0586 10.5 34.4423 10.5 34.9152C10.5 35.388 10.8838 35.7718 11.3566 35.7718H40.4807C42.8423 35.7718 44.7636 37.6931 44.7636 40.0547C44.7636 42.4163 42.8423 44.3377 40.4807 44.3377Z" fill="#0082C5"/>
</svg>
