<svg width="211" height="59" viewBox="0 0 211 59" fill="none" xmlns="http://www.w3.org/2000/svg">
<rect x="0.5" y="0.5" width="210" height="58" rx="3.5" fill="white"/>
<path d="M82.9037 18.7361C82.9037 19.7296 82.6055 20.5221 82.0092 21.1017C81.3414 21.7995 80.4589 22.1544 79.3856 22.1544C78.3481 22.1544 77.4775 21.7995 76.75 21.0898C76.0226 20.3802 75.6648 19.493 75.6648 18.4522C75.6648 17.3995 76.0226 16.5242 76.75 15.8145C77.4775 15.1048 78.3481 14.75 79.3856 14.75C79.8984 14.75 80.3874 14.8446 80.8525 15.0457C81.3176 15.2468 81.6873 15.507 81.9735 15.8382L81.3414 16.4651C80.8644 15.9091 80.2204 15.6253 79.3856 15.6253C78.6343 15.6253 77.9784 15.8855 77.4298 16.4178C76.8812 16.9382 76.6069 17.6242 76.6069 18.464C76.6069 19.3038 76.8812 19.9898 77.4298 20.5103C77.9784 21.0307 78.6343 21.3027 79.3856 21.3027C80.1846 21.3027 80.8525 21.0425 81.3891 20.5103C81.735 20.1672 81.9377 19.6823 81.9854 19.0672H79.3856V18.2156H82.856C82.8798 18.393 82.9037 18.5705 82.9037 18.7361Z" fill="black" stroke="black" stroke-width="0.2" stroke-miterlimit="10"/>
<path d="M88.4016 15.7776H85.1459V18.0249H88.0796V18.8766H85.1459V21.1239H88.4016V21.9992H84.2277V14.9023H88.4016V15.7776Z" fill="black" stroke="black" stroke-width="0.2" stroke-miterlimit="10"/>
<path d="M92.2791 21.9992H91.3608V15.7776H89.3573V14.9023H94.2707V15.7776H92.2672V21.9992H92.2791Z" fill="black" stroke="black" stroke-width="0.2" stroke-miterlimit="10"/>
<path d="M97.837 21.9992V14.9023H98.7553V21.9992H97.837Z" fill="black" stroke="black" stroke-width="0.2" stroke-miterlimit="10"/>
<path d="M102.831 21.9992H101.913V15.7776H99.9092V14.9023H104.823V15.7776H102.819V21.9992H102.831Z" fill="black" stroke="black" stroke-width="0.2" stroke-miterlimit="10"/>
<path d="M114.136 21.078C113.432 21.7995 112.562 22.1544 111.512 22.1544C110.463 22.1544 109.592 21.7995 108.889 21.078C108.185 20.3565 107.839 19.4812 107.839 18.4522C107.839 17.4231 108.185 16.536 108.889 15.8264C109.592 15.1048 110.463 14.75 111.512 14.75C112.55 14.75 113.42 15.1048 114.136 15.8264C114.839 16.5479 115.197 17.4231 115.197 18.4522C115.185 19.493 114.839 20.3683 114.136 21.078ZM109.568 20.4866C110.093 21.0189 110.749 21.2791 111.512 21.2791C112.275 21.2791 112.931 21.0189 113.456 20.4866C113.981 19.9543 114.255 19.2801 114.255 18.4522C114.255 17.6242 113.993 16.95 113.456 16.4178C112.931 15.8855 112.275 15.6253 111.512 15.6253C110.749 15.6253 110.093 15.8855 109.568 16.4178C109.044 16.95 108.769 17.6242 108.769 18.4522C108.769 19.2801 109.044 19.9543 109.568 20.4866Z" fill="black" stroke="black" stroke-width="0.2" stroke-miterlimit="10"/>
<path d="M116.49 21.9992V14.9023H117.611L121.093 20.426H121.129L121.093 19.054V14.9023H122.011V21.9992H121.057L117.42 16.2153H117.384L117.42 17.5873V21.9992H116.49Z" fill="black" stroke="black" stroke-width="0.2" stroke-miterlimit="10"/>
<path d="M107.015 32.9018C104.188 32.9018 101.878 34.8951 101.878 37.6345C101.878 40.3628 104.188 42.3672 107.015 42.3672C109.841 42.3672 112.151 40.3628 112.151 37.6345C112.151 34.8951 109.841 32.9018 107.015 32.9018ZM107.015 40.5076C105.463 40.5076 104.128 39.3272 104.128 37.6345C104.128 35.9307 105.463 34.7615 107.015 34.7615C108.566 34.7615 109.901 35.9307 109.901 37.6345C109.901 39.3272 108.554 40.5076 107.015 40.5076ZM95.8039 32.9018C92.9772 32.9018 90.6678 34.8951 90.6678 37.6345C90.6678 40.3628 92.9772 42.3672 95.8039 42.3672C98.6306 42.3672 100.94 40.3628 100.94 37.6345C100.94 34.8951 98.6306 32.9018 95.8039 32.9018ZM95.8039 40.5076C94.2523 40.5076 92.9171 39.3272 92.9171 37.6345C92.9171 35.9307 94.2523 34.7615 95.8039 34.7615C97.3556 34.7615 98.6908 35.9307 98.6908 37.6345C98.6908 39.3272 97.3556 40.5076 95.8039 40.5076ZM82.4763 34.3606V36.365H87.6727C87.5163 37.4898 87.1073 38.3249 86.4939 38.8929C85.7361 39.5944 84.5573 40.3628 82.4884 40.3628C79.2888 40.3628 76.7869 37.9797 76.7869 35.0176C76.7869 32.0555 79.2888 29.6724 82.4884 29.6724C84.2084 29.6724 85.4714 30.296 86.3976 31.1089L87.9253 29.6947C86.6262 28.5477 84.9061 27.668 82.4763 27.668C78.098 27.668 74.4172 30.9642 74.4172 35.0287C74.4172 39.0822 78.098 42.3895 82.4763 42.3895C84.846 42.3895 86.6262 41.6768 88.0215 40.3294C89.4529 39.0042 89.8979 37.1334 89.8979 35.6301C89.8979 35.1624 89.8618 34.7281 89.7776 34.3717H82.4763V34.3606ZM136.978 35.9196C136.557 34.8617 135.257 32.9018 132.599 32.9018C129.965 32.9018 127.776 34.8172 127.776 37.6345C127.776 40.2848 129.941 42.3672 132.852 42.3672C135.197 42.3672 136.557 41.0421 137.11 40.2737L135.366 39.1935C134.788 39.9842 133.994 40.5076 132.852 40.5076C131.709 40.5076 130.891 40.0176 130.374 39.071L137.218 36.4541L136.978 35.9196ZM130.001 37.5009C129.941 35.6746 131.529 34.7392 132.671 34.7392C133.561 34.7392 134.319 35.1512 134.572 35.7414L130.001 37.5009ZM124.444 42.0888H126.693V28.1691H124.444V42.0888ZM120.763 33.9597H120.679C120.174 33.4029 119.211 32.9018 117.985 32.9018C115.422 32.9018 113.077 34.9842 113.077 37.6568C113.077 40.3071 115.422 42.3784 117.985 42.3784C119.199 42.3784 120.174 41.8773 120.679 41.2982H120.751V41.9775C120.751 43.7926 119.705 44.7614 118.021 44.7614C116.649 44.7614 115.795 43.8483 115.446 43.0799L113.486 43.8372C114.051 45.0955 115.543 46.6323 118.021 46.6323C120.655 46.6323 122.88 45.1957 122.88 41.6991V33.1913H120.751V33.9597H120.763ZM118.177 40.5076C116.625 40.5076 115.326 39.3049 115.326 37.6568C115.326 35.9864 116.625 34.7726 118.177 34.7726C119.705 34.7726 120.907 35.9976 120.907 37.6568C120.919 39.3049 119.717 40.5076 118.177 40.5076ZM147.515 28.1691H142.138V42.0888H144.387V36.8105H147.527C150.016 36.8105 152.458 35.1401 152.458 32.4898C152.458 29.8395 149.992 28.1691 147.515 28.1691ZM147.563 34.8728H144.375V30.0956H147.563C149.247 30.0956 150.197 31.3873 150.197 32.4786C150.197 33.5699 149.247 34.8728 147.563 34.8728ZM161.444 32.8795C159.82 32.8795 158.136 33.5477 157.438 35.0065L159.435 35.7748C159.856 35.0065 160.65 34.7503 161.48 34.7503C162.634 34.7503 163.825 35.3962 163.837 36.5432V36.688C163.428 36.4764 162.562 36.1535 161.492 36.1535C159.339 36.1535 157.161 37.2448 157.161 39.2826C157.161 41.1423 158.918 42.345 160.89 42.345C162.394 42.345 163.236 41.7214 163.753 40.9864H163.825V42.0666H165.99V36.7325C166.002 34.2604 164.006 32.8795 161.444 32.8795ZM161.167 40.5076C160.433 40.5076 159.411 40.1623 159.411 39.3272C159.411 38.2581 160.686 37.8461 161.792 37.8461C162.779 37.8461 163.248 38.0465 163.837 38.3138C163.669 39.5944 162.466 40.5076 161.167 40.5076ZM173.893 33.1802L171.319 39.2158H171.247L168.576 33.1802H166.159L170.164 41.6211L167.879 46.3093H170.224L176.395 33.1802H173.893ZM153.685 42.0888H155.934V28.1691H153.685V42.0888Z" fill="#464646"/>
<path d="M38.7978 15.5437C38.452 15.9104 38.2493 16.4782 38.2493 17.1997V43.3633C38.2493 44.0966 38.452 44.6644 38.7978 45.0192L38.8813 45.102L53.6572 30.4589V30.2815V30.1041L38.8813 15.4609L38.7978 15.5437Z" fill="url(#paint0_linear)"/>
<path d="M58.5899 35.3436L53.6646 30.4586V30.2812V30.1037L58.5899 25.2188L58.6972 25.2779L64.5288 28.5661C66.1984 29.5005 66.1984 31.0382 64.5288 31.9844L58.6972 35.2726L58.5899 35.3436Z" fill="url(#paint1_linear)"/>
<path d="M58.6982 35.2727L53.6656 30.2812L38.8062 45.019C39.3547 45.5986 40.2611 45.6695 41.2867 45.09L58.6982 35.2727Z" fill="url(#paint2_linear)"/>
<path d="M58.6967 25.2884L41.2733 15.4711C40.2477 14.8916 39.3413 14.9625 38.7927 15.5421L53.6641 30.2799L58.6967 25.2884Z" fill="url(#paint3_linear)"/>
<path opacity="0.2" d="M58.585 35.1641L41.2689 44.9222C40.3029 45.4663 39.4324 45.4308 38.8838 44.934L38.8003 45.0168L38.8838 45.0996C39.4443 45.5964 40.3029 45.6319 41.2689 45.0878L58.6923 35.2705L58.585 35.1641Z" fill="black"/>
<path opacity="0.12" d="M38.7978 44.8512C38.452 44.4846 38.2493 43.9168 38.2493 43.1953V43.3727C38.2493 44.1061 38.452 44.6738 38.7978 45.0287L38.8813 44.9459L38.7978 44.8512Z" fill="black"/>
<path opacity="0.12" d="M64.5309 31.8189L58.58 35.1662L58.6873 35.2727L64.5189 31.9845C65.3537 31.5114 65.7711 30.8963 65.7711 30.2812C65.7115 30.8372 65.2941 31.3931 64.5309 31.8189Z" fill="black"/>
<path opacity="0.25" d="M41.2711 15.6387L64.5262 28.7442C65.2775 29.17 65.7068 29.7141 65.7784 30.2818C65.7784 29.6668 65.361 29.0399 64.5262 28.5786L41.2711 15.4731C39.6015 14.5387 38.2419 15.3193 38.2419 17.2118V17.3893C38.2419 15.4849 39.6134 14.7043 41.2711 15.6387Z" fill="white"/>
<rect x="0.5" y="0.5" width="210" height="58" rx="3.5" stroke="#E7E7E7"/>
<defs>
<linearGradient id="paint0_linear" x1="52.3451" y1="16.9273" x2="32.4954" y2="36.9407" gradientUnits="userSpaceOnUse">
<stop stop-color="#00A0FF"/>
<stop offset="0.00657445" stop-color="#00A1FF"/>
<stop offset="0.2601" stop-color="#00BEFF"/>
<stop offset="0.5122" stop-color="#00D2FF"/>
<stop offset="0.7604" stop-color="#00DFFF"/>
<stop offset="1" stop-color="#00E3FF"/>
</linearGradient>
<linearGradient id="paint1_linear" x1="66.7046" y1="30.2828" x2="37.8481" y2="30.2828" gradientUnits="userSpaceOnUse">
<stop stop-color="#FFE000"/>
<stop offset="0.4087" stop-color="#FFBD00"/>
<stop offset="0.7754" stop-color="#FFA500"/>
<stop offset="1" stop-color="#FF9C00"/>
</linearGradient>
<linearGradient id="paint2_linear" x1="55.9636" y1="32.9971" x2="29.0459" y2="60.137" gradientUnits="userSpaceOnUse">
<stop stop-color="#FF3A44"/>
<stop offset="1" stop-color="#C31162"/>
</linearGradient>
<linearGradient id="paint3_linear" x1="35.0568" y1="6.83216" x2="47.0767" y2="18.9512" gradientUnits="userSpaceOnUse">
<stop stop-color="#32A071"/>
<stop offset="0.0685" stop-color="#2DA771"/>
<stop offset="0.4762" stop-color="#15CF74"/>
<stop offset="0.8009" stop-color="#06E775"/>
<stop offset="1" stop-color="#00F076"/>
</linearGradient>
</defs>
</svg>
