<svg width="211" height="59" viewBox="0 0 211 59" fill="none" xmlns="http://www.w3.org/2000/svg">
<rect x="0.5" y="0.5" width="210" height="58" rx="3.5" fill="white"/>
<path d="M79.898 25.7779C77.7384 25.7779 75.9435 25.035 74.5133 23.5491C73.083 22.0489 72.3679 20.2058 72.3679 18.0198C72.3679 15.8624 73.0902 14.0336 74.5347 12.5334C75.9792 11.019 77.7885 10.2617 79.9624 10.2617C81.221 10.2617 82.2937 10.4689 83.1804 10.8832C84.0672 11.2833 84.9324 11.8833 85.7763 12.6834L84.6607 13.8836C83.2162 12.512 81.6429 11.8262 79.941 11.8262C78.2819 11.8262 76.8946 12.4191 75.779 13.605C74.6777 14.7909 74.1271 16.2625 74.1271 18.0198C74.1271 19.7629 74.6849 21.2345 75.8005 22.4347C76.916 23.6205 78.2962 24.2135 79.941 24.2135C80.9135 24.2135 81.7716 24.0349 82.5154 23.6777C83.2591 23.3205 84.0171 22.7776 84.7894 22.0489L85.905 23.2276C85.0612 24.0706 84.1744 24.7064 83.2448 25.135C82.3151 25.5636 81.1996 25.7779 79.898 25.7779Z" fill="black"/>
<path d="M88.5927 25.5208V14.4408H90.1588L94.2993 20.2701L98.4398 14.4408H100.027V25.5208H98.354V17.0769L94.2564 22.6918L90.2017 17.0769V25.5208H88.5927Z" fill="black"/>
<path d="M112.922 24.0849C111.807 25.2136 110.427 25.7779 108.782 25.7779C107.137 25.7779 105.764 25.2136 104.663 24.0849C103.576 22.9562 103.032 21.5917 103.032 19.9915C103.032 18.4056 103.583 17.0483 104.684 15.9196C105.8 14.7766 107.18 14.2051 108.825 14.2051C110.47 14.2051 111.843 14.7694 112.944 15.8981C114.045 17.0268 114.596 18.3913 114.596 19.9915C114.596 21.5774 114.038 22.9419 112.922 24.0849ZM108.825 24.2992C110.012 24.2992 110.985 23.8848 111.743 23.0562C112.515 22.2275 112.901 21.2059 112.901 19.9915C112.901 18.7914 112.501 17.7698 111.7 16.9268C110.913 16.0839 109.94 15.6624 108.782 15.6624C107.595 15.6624 106.622 16.0839 105.864 16.9268C105.106 17.7555 104.727 18.7771 104.727 19.9915C104.727 21.1917 105.121 22.2132 105.907 23.0562C106.694 23.8848 107.666 24.2992 108.825 24.2992Z" fill="black"/>
<path d="M120.27 25.5208V15.8981H116.301V14.4408H125.912V15.8981H121.943V25.5208H120.27Z" fill="black"/>
<path d="M128.315 28.9498V14.4408H129.967V16.6697C131.082 15.0266 132.498 14.2051 134.215 14.2051C135.631 14.2051 136.868 14.7337 137.926 15.791C138.984 16.834 139.514 18.2341 139.514 19.9915C139.514 21.7203 138.984 23.1133 137.926 24.1706C136.868 25.2279 135.631 25.7565 134.215 25.7565C132.47 25.7565 131.054 24.9707 129.967 23.3991V28.9498H128.315ZM133.914 24.2778C135.03 24.2778 135.959 23.892 136.703 23.1205C137.447 22.3347 137.819 21.2845 137.819 19.9701C137.819 18.6985 137.44 17.6698 136.682 16.884C135.924 16.0839 135.001 15.6838 133.914 15.6838C132.842 15.6838 131.905 16.091 131.104 16.9054C130.303 17.7198 129.902 18.7485 129.902 19.9915C129.902 21.2345 130.303 22.2632 131.104 23.0776C131.905 23.8777 132.842 24.2778 133.914 24.2778Z" fill="black"/>
<path d="M147.41 25.7779C145.851 25.7779 144.535 25.2422 143.462 24.1706C142.404 23.0847 141.875 21.6917 141.875 19.9915C141.875 18.377 142.383 17.0126 143.398 15.8981C144.413 14.7694 145.679 14.2051 147.195 14.2051C148.783 14.2051 150.041 14.7623 150.971 15.8767C151.901 16.9911 152.365 18.3913 152.365 20.0772C152.365 20.2915 152.358 20.4844 152.344 20.6559H143.548C143.663 21.7846 144.084 22.6847 144.814 23.3562C145.558 24.0134 146.437 24.342 147.453 24.342C148.783 24.342 149.948 23.8206 150.95 22.7776L151.979 23.6991C150.735 25.085 149.212 25.7779 147.41 25.7779ZM143.548 19.3271H150.692C150.592 18.2556 150.234 17.3697 149.619 16.6697C149.019 15.9553 148.196 15.5981 147.152 15.5981C146.208 15.5981 145.4 15.9481 144.728 16.6482C144.056 17.3483 143.663 18.2413 143.548 19.3271Z" fill="black"/>
<path d="M157.939 25.5208V15.8981H153.97V14.4408H163.581V15.8981H159.612V25.5208H157.939Z" fill="black"/>
<path d="M165.984 25.5208V14.4408H167.636V18.5985H170.596C171.884 18.5985 172.935 18.8771 173.75 19.4343C174.565 19.9772 174.973 20.8059 174.973 21.9203C174.973 23.0205 174.594 23.8991 173.836 24.5564C173.078 25.1993 172.062 25.5208 170.79 25.5208H165.984ZM167.636 24.0634H170.639C171.483 24.0634 172.134 23.8848 172.592 23.5277C173.064 23.1705 173.3 22.649 173.3 21.9632C173.3 21.3345 173.056 20.8559 172.57 20.5273C172.098 20.1844 171.433 20.0129 170.575 20.0129H167.636V24.0634Z" fill="black"/>
<path d="M85.7146 46.4883C84.1986 47.9885 82.2964 48.7385 80.008 48.7385C77.7197 48.7385 75.8175 47.9885 74.3014 46.4883C72.7997 44.9881 72.0488 43.1521 72.0488 40.9804C72.0488 38.823 72.8068 36.9942 74.3229 35.494C75.8532 33.9796 77.7626 33.2223 80.0509 33.2223C82.3393 33.2223 84.2343 33.9724 85.7361 35.4726C87.2521 36.9728 88.0101 38.8087 88.0101 40.9804C88.0101 43.1378 87.245 44.9738 85.7146 46.4883ZM76.79 44.3237C77.6482 45.2381 78.7351 45.6953 80.0509 45.6953C81.3667 45.6953 82.4466 45.2453 83.2904 44.3451C84.1342 43.4307 84.5561 42.3092 84.5561 40.9804C84.5561 39.666 84.1271 38.5516 83.2689 37.6372C82.4108 36.7228 81.3238 36.2656 80.008 36.2656C78.6922 36.2656 77.6124 36.7228 76.7686 37.6372C75.9247 38.5373 75.5028 39.6517 75.5028 40.9804C75.5028 42.2949 75.9319 43.4093 76.79 44.3237Z" fill="#0082C5"/>
<path d="M101.131 36.9942V48.4814H97.8703V44.088H93.8585V48.4814H90.5976V36.9942H93.8585V41.4091H97.8703V36.9942H101.131Z" fill="#0082C5"/>
<path d="M105.421 36.9942H114.667V48.4814H111.406V39.7803H108.489C108.489 41.2948 108.431 42.5735 108.317 43.6165C108.203 44.6595 108.045 45.5096 107.845 46.1668C107.645 46.824 107.366 47.3312 107.008 47.6884C106.651 48.0456 106.265 48.2885 105.85 48.4171C105.435 48.5457 104.92 48.61 104.305 48.61C103.719 48.61 103.168 48.5457 102.653 48.4171L102.868 45.781C103.125 45.8239 103.354 45.8453 103.554 45.8453C103.898 45.8453 104.169 45.7667 104.37 45.6096C104.57 45.4381 104.756 45.0667 104.927 44.4952C105.113 43.9094 105.242 43.0164 105.314 41.8163C105.385 40.6018 105.421 38.9945 105.421 36.9942Z" fill="#0082C5"/>
<path d="M120.843 48.6957C119.713 48.6957 118.769 48.3814 118.011 47.7527C117.267 47.1241 116.895 46.2525 116.895 45.1381C116.895 43.9237 117.31 43.0093 118.14 42.3949C118.984 41.7805 120.113 41.4734 121.529 41.4734C122.488 41.4734 123.424 41.6305 124.34 41.9448V41.752C124.34 40.3518 123.517 39.6517 121.873 39.6517C120.886 39.6517 119.827 39.8589 118.697 40.2732L117.882 37.7872C119.284 37.1728 120.771 36.8656 122.345 36.8656C124.075 36.8656 125.369 37.2943 126.228 38.1515C127.057 38.9802 127.472 40.2018 127.472 41.8163V48.4814H124.318V47.2384C123.446 48.2099 122.287 48.6957 120.843 48.6957ZM121.83 46.4454C122.588 46.4454 123.203 46.2597 123.675 45.8882C124.147 45.5024 124.383 45.0167 124.383 44.4309V43.8522C123.768 43.5665 123.074 43.4236 122.302 43.4236C121.587 43.4236 121.029 43.5665 120.628 43.8522C120.242 44.1237 120.049 44.5237 120.049 45.0524C120.049 45.481 120.214 45.8239 120.542 46.0811C120.871 46.324 121.3 46.4454 121.83 46.4454Z" fill="#0082C5"/>
<path d="M140.983 36.9942V48.4814H137.83V41.7948L133.346 48.4814H130.278V36.9942H133.432V43.7022L137.915 36.9942H140.983ZM138.151 35.044C137.522 35.6155 136.714 35.9012 135.727 35.9012C134.74 35.9012 133.925 35.6155 133.281 35.044C132.652 34.4725 132.266 33.6724 132.123 32.6437L134.032 32.3008C134.333 33.258 134.898 33.7367 135.727 33.7367C136.557 33.7367 137.122 33.258 137.422 32.3008L139.331 32.6437C139.188 33.6724 138.795 34.4725 138.151 35.044Z" fill="#0082C5"/>
<path d="M154.429 36.9942V48.4814H151.168V44.088H147.157V48.4814H143.896V36.9942H147.157V41.4091H151.168V36.9942H154.429Z" fill="#0082C5"/>
<g clip-path="url(#clip0)">
<path d="M36.0245 12.8242C26.0768 12.8242 18.0123 20.8636 18.0123 30.7807C18.0123 40.6979 26.0768 48.7373 36.0245 48.7373C45.9723 48.7373 54.0367 40.6979 54.0367 30.7807C54.0367 20.8636 45.9723 12.8242 36.0245 12.8242ZM42.25 31.7326L33.2439 37.344C33.0617 37.4574 32.8544 37.5144 32.6472 37.5144C32.4595 37.5144 32.2715 37.4679 32.1014 37.3736C31.7435 37.1758 31.5215 36.8004 31.5215 36.3921V25.1693C31.5215 24.7611 31.7435 24.3857 32.1014 24.1879C32.4592 23.989 32.8968 24.001 33.2439 24.2175L42.25 29.8289C42.579 30.0344 42.7791 30.3939 42.7791 30.7807C42.7791 31.1676 42.579 31.5271 42.25 31.7326Z" fill="#0082C5"/>
</g>
<rect x="0.5" y="0.5" width="210" height="58" rx="3.5" stroke="#E7E7E7"/>
<defs>
<clipPath id="clip0">
<rect width="36.0244" height="35.913" fill="white" transform="translate(18.0123 12.8242)"/>
</clipPath>
</defs>
</svg>
