<svg width="46" height="46" viewBox="0 0 46 46" fill="none" xmlns="http://www.w3.org/2000/svg">
<path d="M39.6231 19.0148H39.5093V16.2252C39.5093 7.2643 32.2451 0 23.284 0C14.323 0 7.05879 7.2643 7.05879 16.2252V19.0148H6.37566C3.87069 19.0148 1.93507 21.2351 1.93507 23.7971V30.9134C1.87198 33.3964 3.83386 35.4605 6.31693 35.5236C6.33654 35.5242 6.35605 35.5245 6.37566 35.5247H10.5885C11.1852 35.4967 11.6463 34.9901 11.6182 34.3934C11.6172 34.3719 11.6155 34.3505 11.6132 34.3291V20.3811C11.6132 19.698 11.2148 19.0147 10.5885 19.0147H9.33602V16.2251C9.33602 8.52191 15.5808 2.27712 23.284 2.27712C30.9873 2.27712 37.232 8.52191 37.232 16.2251V19.0147H35.9796C35.3533 19.0147 34.9548 19.6979 34.9548 20.3811V34.3291C34.8913 34.9231 35.3213 35.4562 35.9153 35.5197C35.9366 35.522 35.9581 35.5236 35.9796 35.5246H37.2889L37.1751 35.6954C35.4667 37.9657 32.7861 39.2955 29.9449 39.282C29.3229 36.232 26.3461 34.2637 23.2961 34.8858C20.688 35.4177 18.8075 37.7019 18.7865 40.3637C18.8176 43.4856 21.3575 46 24.4795 45.9998C26.025 45.9747 27.4982 45.3405 28.5785 44.2349C29.3074 43.4885 29.785 42.5332 29.9449 41.5022C33.5029 41.5157 36.8584 39.8485 38.9968 37.0047L40.0785 35.4106C42.5265 35.2399 44.0636 33.7028 44.0636 31.4824V24.3661C44.0637 21.9183 42.242 19.0148 39.6231 19.0148ZM9.33602 33.2475H6.37566C5.14976 33.2176 4.18016 32.1997 4.21002 30.9738C4.21056 30.9537 4.21132 30.9335 4.2123 30.9133V23.7969C4.2123 22.4876 5.12318 21.292 6.37566 21.292H9.33602V33.2475ZM26.9276 42.641C26.2967 43.3251 25.4102 43.7169 24.4796 43.7228C22.6274 43.6933 21.1243 42.2153 21.0638 40.3638C21.063 38.5087 22.5663 37.0043 24.4213 37.0035C26.2764 37.0028 27.7808 38.506 27.7816 40.3611C27.7816 40.3619 27.7816 40.3629 27.7816 40.3638C27.829 41.2091 27.5191 42.0354 26.9276 42.641ZM41.7865 31.4826C41.7865 33.0197 40.3063 33.2475 39.6231 33.2475H37.232V21.2921H39.6231C40.8756 21.2921 41.7865 23.0569 41.7865 24.3663V31.4826Z" fill="#0082C5"/>
</svg>
