<svg width="48" height="48" viewBox="0 0 48 48" fill="none" xmlns="http://www.w3.org/2000/svg">
<path d="M46.2343 42.4001H43.9343V27.8335C43.9343 27.4103 43.5901 27.0669 43.1668 27.0676C42.9169 27.0676 42.683 27.1895 42.5397 27.3942L31.8064 42.7275C31.5641 43.0749 31.6484 43.5525 31.9958 43.7955C32.1238 43.8852 32.2772 43.9335 32.4343 43.9335H42.4009V46.2335C42.4009 46.6567 42.7444 47.0001 43.1676 47.0001C43.5907 47.0001 43.9342 46.6567 43.9342 46.2335V43.9335H46.2342C46.6574 43.9335 47.0008 43.59 47.0008 43.1669C47.0009 42.7436 46.6574 42.4001 46.2343 42.4001ZM42.4009 30.2653V42.4001H33.9063L42.4009 30.2653Z" fill="#0082C5"/>
<path d="M32.4337 45.4668H23.3571L31.7958 35.5299C31.8149 35.5069 31.8326 35.4831 31.8494 35.4586C33.4372 33.1087 32.9082 29.9279 30.6458 28.2182C27.895 26.2417 24.0624 26.8696 22.0859 29.6204C21.3369 30.663 20.9336 31.9158 20.9336 33.1999C20.9336 33.6231 21.2771 33.9666 21.7002 33.9666C22.1234 33.9666 22.4669 33.6231 22.4669 33.1999C22.4669 30.6592 24.5262 28.5999 27.0661 28.5991C28.029 28.5991 28.9674 28.9012 29.7501 29.4632C31.3348 30.6776 31.7043 32.914 30.5935 34.573L21.1162 45.7375C20.8425 46.0603 20.8816 46.544 21.2043 46.8176C21.3431 46.9357 21.5187 47.0001 21.7003 47.0001H32.4337C32.8568 47.0001 33.2003 46.6566 33.2003 46.2335C33.2003 45.8102 32.8568 45.4668 32.4337 45.4668Z" fill="#0082C5"/>
<path d="M21.7169 41.6479C21.733 41.2248 21.4025 40.869 20.9794 40.8529C10.9774 40.4818 2.94961 32.4679 2.56014 22.4666H5.6C6.02316 22.4666 6.36664 22.1232 6.36664 21.7C6.36664 21.2768 6.02316 20.9334 5.6 20.9334H2.56014C2.9435 10.9498 10.9497 2.94431 20.9333 2.56095V4.83336C20.9333 5.25653 21.2767 5.6 21.6999 5.6C22.1231 5.6 22.4665 5.25653 22.4665 4.83336V2.56095C32.3136 2.94197 40.2616 10.7398 40.8297 20.5776L37.8397 17.5876C37.5353 17.2932 37.0501 17.3016 36.7557 17.6067C36.469 17.9042 36.469 18.3749 36.7557 18.6716L41.0352 22.9512C41.1157 23.0486 41.22 23.1245 41.3372 23.1712C41.3672 23.1804 41.3978 23.1873 41.4284 23.1934C41.4813 23.2125 41.5358 23.2255 41.591 23.2325C41.5986 23.2325 41.6055 23.2325 41.6131 23.2325C41.6208 23.2325 41.6277 23.2325 41.6346 23.2325C41.6929 23.2279 41.7504 23.2164 41.8063 23.1988C41.8378 23.1949 41.8692 23.1888 41.8998 23.1812C42.0033 23.1443 42.0984 23.0853 42.1766 23.0079L46.5145 18.6715C46.8089 18.3672 46.8005 17.8819 46.4953 17.5875C46.1979 17.3008 45.7272 17.3008 45.4304 17.5875L42.366 20.6495C41.8189 9.66031 32.7576 1.02686 21.7544 1.01069C21.7353 1.00997 21.7191 1 21.7 1C21.6809 1 21.6647 1.00997 21.6456 1.01069C10.256 1.02605 1.02605 10.256 1.01069 21.6456C1.01069 21.6647 1 21.6809 1 21.7C1 21.7191 1.00997 21.7353 1.01069 21.7544C1.02983 32.8634 9.82122 41.9723 20.9226 42.3854H20.951C21.3626 42.3854 21.7015 42.0596 21.7169 41.6479Z" fill="#0082C5"/>
<path d="M32.001 11.3998C31.702 11.1008 31.2159 11.1008 30.9169 11.3998L22.6783 19.6377C22.0558 19.3602 21.3452 19.3602 20.7225 19.6377L16.8217 15.7369C16.5173 15.4424 16.0321 15.4509 15.7376 15.756C15.451 16.0535 15.451 16.5242 15.7376 16.8209L19.6308 20.714C19.0841 21.8586 19.5687 23.2287 20.7133 23.7754C21.5919 24.1947 22.6392 24.0153 23.3268 23.3269C24.0184 22.6407 24.197 21.5904 23.7699 20.7148L32.0009 12.4839C32.3 12.1849 32.3 11.6988 32.001 11.3998ZM22.2429 22.242C21.94 22.5318 21.4617 22.5318 21.1588 22.242C20.859 21.943 20.859 21.4569 21.1588 21.1579C21.4586 20.8589 21.9439 20.8581 22.2429 21.1579C22.5427 21.4569 22.5427 21.9423 22.2429 22.242Z" fill="#0082C5"/>
<path d="M27.0668 28.7992C24.6374 28.8 22.6677 30.7698 22.6677 33.2C22.6677 33.7336 22.2346 34.1666 21.701 34.1666C21.1674 34.1666 20.7344 33.7336 20.7344 33.2C20.7344 31.874 21.1508 30.5804 21.9243 29.5037C23.9652 26.6633 27.9227 26.0149 30.7633 28.0558L30.7672 28.0586C33.1145 29.8325 33.6633 33.1326 32.0159 35.5706L32.0152 35.5717C31.9955 35.6005 31.9741 35.6294 31.9503 35.6579L31.949 35.6595L23.7901 45.2668H32.4345C32.9681 45.2668 33.4011 45.6998 33.4011 46.2335C33.4011 46.7672 32.9681 47.2002 32.4345 47.2002H21.7011C21.4721 47.2002 21.2507 47.1189 21.0757 46.9702C20.6685 46.6249 20.6195 46.0149 20.9644 45.6082L30.4344 34.4524C31.4782 32.8829 31.1276 30.7723 29.6317 29.6238C28.8835 29.0874 27.9868 28.7992 27.0668 28.7992Z" fill="#0082C5"/>
<path d="M2.76998 22.6667C3.25761 32.4664 11.1595 40.2885 20.9876 40.6531C21.5208 40.6733 21.9377 41.1217 21.9175 41.6554C21.8981 42.1747 21.4708 42.5855 20.9518 42.5855H20.9159C9.71395 42.1686 0.841475 32.9823 0.811517 21.7751C0.810047 21.7697 0.808227 21.7627 0.806619 21.755C0.803694 21.7411 0.800781 21.7223 0.800781 21.7C0.800781 21.6766 0.804076 21.6569 0.807223 21.6427C0.808613 21.6365 0.810163 21.6306 0.811508 21.6258C0.837545 10.1417 10.1418 0.837201 21.6258 0.810778C21.6311 0.809309 21.6381 0.807492 21.6458 0.805887C21.6597 0.802961 21.6786 0.800049 21.7008 0.800049C21.723 0.800049 21.7418 0.802961 21.7558 0.805886C21.7634 0.807492 21.7705 0.809311 21.7758 0.81078C32.7272 0.837314 41.7686 9.3183 42.5397 20.1941L45.2922 17.4437C45.6666 17.082 46.2601 17.0823 46.6349 17.4435C47.0195 17.8146 47.0304 18.4267 46.659 18.8106L46.6567 18.8131L42.3181 23.1501C42.2185 23.2486 42.0981 23.3232 41.9677 23.3696L41.9585 23.3729L41.949 23.3753C41.9173 23.3832 41.884 23.39 41.8498 23.3949C41.7856 23.4139 41.7191 23.4266 41.6511 23.4319L41.6432 23.4325H41.5792L41.5669 23.431C41.5021 23.4228 41.4381 23.4081 41.3758 23.3867C41.3459 23.3805 41.3131 23.3728 41.2794 23.3625L41.2716 23.3601L41.264 23.357C41.1187 23.2991 40.9893 23.2059 40.8883 23.0863L36.6126 18.8107C36.2509 18.4363 36.2512 17.8428 36.6124 17.468C36.9835 17.0834 37.5956 17.0725 37.9795 17.4439L37.9819 17.4462L40.5927 20.057C39.7862 10.6431 32.1375 3.23901 22.6673 2.77001V4.83341C22.6673 5.36703 22.2343 5.80005 21.7007 5.80005C21.1671 5.80005 20.7341 5.36703 20.7341 4.83341V2.76995C11.0209 3.24807 3.248 11.0203 2.76987 20.7334H5.60078C6.1344 20.7334 6.56742 21.1664 6.56742 21.7C6.56742 22.2337 6.1344 22.6667 5.60078 22.6667H2.76998Z" fill="#0082C5"/>
<path d="M15.5946 16.9599C15.2329 16.5856 15.2332 15.9921 15.5944 15.6173C15.9655 15.2327 16.5776 15.2218 16.9615 15.5931L16.9639 15.5955L20.7703 19.4019C21.3697 19.1722 22.0328 19.1722 22.6322 19.4019L30.7763 11.2585C31.1534 10.8814 31.7661 10.8814 32.1432 11.2585C32.5203 11.6356 32.5203 12.2482 32.1431 12.6254L24.0099 20.7585C24.3962 21.683 24.1865 22.7562 23.4688 23.4686C22.7211 24.2169 21.5827 24.4117 20.6279 23.9559C19.4269 23.3823 18.8943 21.9747 19.3931 20.7585L15.5946 16.9599Z" fill="#0082C5"/>
<path fill-rule="evenodd" clip-rule="evenodd" d="M31.6431 42.6131C31.3377 43.0509 31.4441 43.6531 31.8819 43.9594C32.0436 44.0727 32.2371 44.1335 32.4351 44.1335H42.2017V46.2335C42.2017 46.7672 42.6347 47.2002 43.1683 47.2002C43.702 47.2002 44.135 46.7672 44.135 46.2335V44.1335H46.235C46.7686 44.1335 47.2016 43.7005 47.2016 43.1669C47.2017 42.6332 46.7687 42.2002 46.2351 42.2002H44.1351V27.8336C44.1351 27.2999 43.7012 26.8669 43.1676 26.8676C42.8523 26.8676 42.5574 27.0215 42.3767 27.2795L31.6431 42.6131ZM42.2017 30.8998L34.2912 42.2002H42.2017V30.8998Z" fill="#0082C5"/>
</svg>
