<svg width="46" height="46" viewBox="0 0 46 46" fill="none" xmlns="http://www.w3.org/2000/svg">
<g clip-path="url(#clip0)">
<path d="M22.7343 36.5432C22.4889 36.5432 22.2436 36.4493 22.0558 36.2634L9.73735 23.945C9.37701 23.5846 9.36168 23.0077 9.69901 22.6282L18.9316 12.2859C25.385 4.73613 35.8941 -0.149458 45.0577 0.00579209C45.5694 0.0172921 45.9815 0.429375 45.993 0.941125C46.2058 10.1105 41.2646 20.6138 33.6957 27.0806L23.3706 36.2998C23.1904 36.4627 22.9604 36.5432 22.7343 36.5432ZM11.7326 23.23L22.7707 34.2681L32.4364 25.6393C39.3479 19.7321 43.9383 10.3175 44.0802 1.92054C35.6833 2.06046 26.2705 6.65088 20.3748 13.547L11.7326 23.23Z" fill="#0082C5"/>
<path d="M26.4045 43.5582C26.3125 43.5582 26.2186 43.5448 26.1304 43.5161C25.7854 43.4011 25.5017 43.1366 25.4519 42.7762L24.1371 33.6012C24.0623 33.0779 24.4265 32.593 24.9497 32.5163C25.473 32.4339 25.9579 32.8038 26.0346 33.329L27.0619 40.4973C30.4199 36.4819 32.2867 31.3912 32.2867 26.2009C32.2867 25.6719 32.7161 25.2426 33.2451 25.2426C33.7741 25.2426 34.2034 25.6719 34.2034 26.2009C34.2034 32.5508 31.6312 38.7666 27.1462 43.2497C26.9546 43.4413 26.6747 43.5582 26.4045 43.5582Z" fill="#0082C5"/>
<path d="M12.5373 21.873C12.4932 21.873 12.4472 21.8711 12.4012 21.8634L3.22616 20.5486C2.86583 20.4969 2.56491 20.2458 2.45183 19.8989C2.33874 19.5539 2.43074 19.1724 2.68949 18.9175C7.23774 14.3693 13.4516 11.7971 19.8015 11.7971C20.3305 11.7971 20.7598 12.2264 20.7598 12.7554C20.7598 13.2844 20.3305 13.7138 19.8015 13.7138C14.5862 13.7138 9.46874 15.5979 5.49549 18.9367L12.6734 19.9659C13.1967 20.0426 13.5608 20.5256 13.4861 21.0508C13.4152 21.528 13.005 21.873 12.5373 21.873Z" fill="#0082C5"/>
<path d="M32.838 17.9515C31.6094 17.9515 30.3828 17.4838 29.4493 16.5504C27.5825 14.6816 27.5825 11.6418 29.4493 9.77305C31.3181 7.9043 34.3579 7.9043 36.2267 9.77305C38.0935 11.6418 38.0935 14.6816 36.2267 16.5504C35.2914 17.4857 34.0647 17.9515 32.838 17.9515ZM32.838 10.2886C32.102 10.2886 31.3641 10.5685 30.8044 11.1281C29.6851 12.2494 29.6851 14.074 30.8044 15.1953C31.9257 16.3146 33.7504 16.3127 34.8716 15.1953C35.9909 14.074 35.9909 12.2494 34.8716 11.1281C34.31 10.5704 33.574 10.2886 32.838 10.2886Z" fill="#0082C5"/>
<path d="M0.958746 46C0.707663 46 0.464246 45.9022 0.280246 45.7202C0.0310797 45.471 -0.0609204 45.1049 0.040663 44.7676C0.354996 43.7192 3.17058 34.454 5.22141 32.4032C7.531 30.0936 11.2896 30.0917 13.5992 32.4032C15.9087 34.7127 15.9087 38.4713 13.5992 40.7809C11.5483 42.8317 2.28316 45.6473 1.23475 45.9617C1.14275 45.9866 1.05075 46 0.958746 46ZM9.41125 32.5852C8.38391 32.5852 7.3585 32.9762 6.5765 33.7563C5.47058 34.8642 3.63058 39.8111 2.41541 43.585C6.18741 42.3698 11.1362 40.5298 12.2422 39.4239C13.8042 37.8618 13.8042 35.3184 12.2422 33.7563C11.4621 32.9762 10.4367 32.5852 9.41125 32.5852Z" fill="#0082C5"/>
</g>
<defs>
<clipPath id="clip0">
<rect width="46" height="46" fill="white"/>
</clipPath>
</defs>
</svg>
