<svg width="46" height="46" viewBox="0 0 46 46" fill="none" xmlns="http://www.w3.org/2000/svg">
<g clip-path="url(#clip0)">
<path d="M42.1654 17.25H3.83213C3.30313 17.25 2.87377 17.6794 2.87377 18.2084V45.0417C2.87377 45.5706 3.30313 46 3.83213 46H42.1655C42.6945 46 43.1239 45.5706 43.1239 45.0416V18.2084C43.1238 17.6794 42.6944 17.25 42.1654 17.25ZM41.2071 44.0834H4.79041V19.1666H41.207L41.2071 44.0834Z" fill="#0082C5"/>
<path d="M44.0821 9.58337H1.91539C1.38639 9.58337 0.957031 10.0127 0.957031 10.5417V18.2084C0.957031 18.7374 1.38639 19.1667 1.91539 19.1667H44.082C44.611 19.1667 45.0404 18.7374 45.0404 18.2084V10.5417C45.0404 10.0126 44.6111 9.58337 44.0821 9.58337ZM43.1238 17.25H2.87376V11.5H43.1238V17.25Z" fill="#0082C5"/>
<path d="M22.9997 9.58337C22.4706 9.58337 22.0413 10.0127 22.0413 10.5417V45.0417C22.0413 45.5707 22.4706 46.0001 22.9997 46.0001C23.5287 46.0001 23.958 45.5707 23.958 45.0417V10.5417C23.958 10.0126 23.5287 9.58337 22.9997 9.58337Z" fill="#0082C5"/>
<path d="M23.9782 10.3155C22.993 5.69439 17.1165 0.736 13.2008 0.0728633C12.9593 0.0248867 12.712 0 12.4571 0C10.343 0 8.62377 1.71925 8.62377 3.83336C8.62377 4.71698 8.93239 5.57948 9.49202 6.26373C9.49966 6.26948 9.50541 6.27909 9.51116 6.28673C12.3574 9.92261 21.8315 11.3161 22.9087 11.4636C22.9528 11.4694 22.9968 11.4732 23.039 11.4732C23.3054 11.4732 23.5584 11.364 23.7424 11.1666C23.9552 10.9384 24.0434 10.6203 23.9782 10.3155ZM10.9947 5.06961C10.9774 5.04473 10.9583 5.02361 10.939 5.0025C10.6784 4.66711 10.5404 4.26264 10.5404 3.83336C10.5404 2.77536 11.401 1.91673 12.457 1.91673C12.5835 1.91673 12.7082 1.93011 12.8557 1.95698C15.7288 2.44384 20.0662 5.92061 21.6244 9.31311C18.2876 8.69786 12.6545 7.26225 10.9947 5.06961Z" fill="#0082C5"/>
<path d="M33.5395 0C33.2846 0 33.0374 0.0248867 32.8227 0.0671133C28.882 0.736 23.0055 5.69439 22.0204 10.3155C21.9553 10.6203 22.0434 10.9384 22.2561 11.1665C22.4383 11.362 22.6931 11.4731 22.9576 11.4731C22.9998 11.4731 23.0439 11.4693 23.086 11.4655C24.1632 11.3179 33.6373 9.9245 36.4835 6.28861C36.4912 6.28098 36.4969 6.27136 36.5046 6.26373C37.0643 5.57939 37.3729 4.71689 37.3729 3.83336C37.3729 1.71925 35.6536 0 33.5395 0ZM35.0575 5.00439C35.0384 5.0255 35.0192 5.04652 35.0019 5.0715C33.344 7.26036 27.7109 8.69975 24.3721 9.315C25.9322 5.91864 30.2715 2.44375 33.1677 1.95311C33.2884 1.93011 33.413 1.91673 33.5395 1.91673C34.5956 1.91673 35.4562 2.77536 35.4562 3.83336C35.4562 4.26264 35.3182 4.66514 35.0575 5.00439Z" fill="#0082C5"/>
</g>
<defs>
<clipPath id="clip0">
<rect width="46" height="46" fill="white"/>
</clipPath>
</defs>
</svg>
