<svg width="24" height="24" viewBox="0 0 24 24" fill="none" xmlns="http://www.w3.org/2000/svg">
<path d="M20.6429 3.35714H18.2857V1.78573C18.2857 1.35178 17.9339 1 17.5 1C17.066 1 16.7143 1.35178 16.7143 1.78573V3.35714H7.28569V1.78573C7.28569 1.35178 6.93392 1 6.50001 1C6.0661 1 5.71428 1.35178 5.71428 1.78573V3.35714H3.35714C2.05533 3.35714 1 4.41247 1 5.71428V20.6429C1 21.9447 2.05533 23 3.35714 23H20.6429C21.9447 23 23 21.9447 23 20.6429V5.71428C23 4.41247 21.9447 3.35714 20.6429 3.35714ZM21.4285 20.6429C21.4285 21.0768 21.0768 21.4286 20.6428 21.4286H3.35714C2.92319 21.4286 2.57141 21.0768 2.57141 20.6429V10.4286H21.4285V20.6429ZM21.4285 8.85715H2.57141V5.71428C2.57141 5.28033 2.92319 4.92855 3.35714 4.92855H5.71428V6.49997C5.71428 6.93392 6.06606 7.28569 6.50001 7.28569C6.93396 7.28569 7.28574 6.93392 7.28574 6.49997V4.92855H16.7143V6.49997C16.7143 6.93392 17.0661 7.28569 17.5 7.28569C17.934 7.28569 18.2858 6.93392 18.2858 6.49997V4.92855H20.6429C21.0769 4.92855 21.4286 5.28033 21.4286 5.71428V8.85715H21.4285Z" fill="white"/>
<path d="M7.28683 12H5.71542C5.28146 12 4.92969 12.3518 4.92969 12.7857C4.92969 13.2197 5.28146 13.5715 5.71542 13.5715H7.28683C7.72078 13.5715 8.07256 13.2197 8.07256 12.7857C8.07256 12.3518 7.72078 12 7.28683 12Z" fill="white"/>
<path d="M12.7868 12H11.2154C10.7815 12 10.4297 12.3518 10.4297 12.7857C10.4297 13.2197 10.7815 13.5715 11.2154 13.5715H12.7868C13.2208 13.5715 13.5726 13.2197 13.5726 12.7857C13.5726 12.3518 13.2208 12 12.7868 12Z" fill="white"/>
<path d="M18.2868 12H16.7154C16.2815 12 15.9297 12.3518 15.9297 12.7857C15.9297 13.2197 16.2815 13.5715 16.7154 13.5715H18.2868C18.7208 13.5715 19.0726 13.2197 19.0726 12.7857C19.0725 12.3518 18.7207 12 18.2868 12Z" fill="white"/>
<path d="M7.28683 15.1429H5.71542C5.28146 15.1429 4.92969 15.4947 4.92969 15.9286C4.92969 16.3626 5.28146 16.7143 5.71542 16.7143H7.28683C7.72078 16.7143 8.07256 16.3626 8.07256 15.9286C8.07256 15.4947 7.72078 15.1429 7.28683 15.1429Z" fill="white"/>
<path d="M12.7868 15.1429H11.2154C10.7815 15.1429 10.4297 15.4947 10.4297 15.9286C10.4297 16.3626 10.7815 16.7143 11.2154 16.7143H12.7868C13.2208 16.7143 13.5726 16.3626 13.5726 15.9286C13.5726 15.4947 13.2208 15.1429 12.7868 15.1429Z" fill="white"/>
<path d="M18.2868 15.1429H16.7154C16.2815 15.1429 15.9297 15.4947 15.9297 15.9286C15.9297 16.3626 16.2815 16.7143 16.7154 16.7143H18.2868C18.7208 16.7143 19.0726 16.3626 19.0726 15.9286C19.0725 15.4947 18.7207 15.1429 18.2868 15.1429Z" fill="white"/>
<path d="M7.28683 18.2858H5.71542C5.28146 18.2858 4.92969 18.6375 4.92969 19.0715C4.92969 19.5054 5.28146 19.8572 5.71542 19.8572H7.28683C7.72078 19.8572 8.07256 19.5054 8.07256 19.0714C8.07256 18.6375 7.72078 18.2858 7.28683 18.2858Z" fill="white"/>
<path d="M12.7868 18.2858H11.2154C10.7815 18.2858 10.4297 18.6375 10.4297 19.0715C10.4297 19.5054 10.7815 19.8572 11.2154 19.8572H12.7868C13.2208 19.8572 13.5726 19.5054 13.5726 19.0715C13.5726 18.6375 13.2208 18.2858 12.7868 18.2858Z" fill="white"/>
<path d="M18.2868 18.2858H16.7154C16.2815 18.2858 15.9297 18.6375 15.9297 19.0715C15.9297 19.5054 16.2815 19.8572 16.7154 19.8572H18.2868C18.7208 19.8572 19.0726 19.5054 19.0726 19.0715C19.0726 18.6375 18.7207 18.2858 18.2868 18.2858Z" fill="white"/>
</svg>
