<svg width="696" height="125" viewBox="0 0 696 125" fill="none" xmlns="http://www.w3.org/2000/svg">
<g opacity="0.3" clip-path="url(#clip0)">
<path d="M68.2054 24.3026C61.0572 24.3026 55.2695 24.9248 55.2695 25.6934V28.9631C55.2695 29.7317 61.0572 30.3539 68.2054 30.3539C75.3535 30.3539 81.1412 29.7317 81.1412 28.9631V25.6934C81.1412 24.9248 75.3535 24.3026 68.2054 24.3026Z" fill="#1E79FF"/>
<path d="M68.2052 0L67.1445 25.5226H69.2428L68.2052 0Z" fill="#1E79FF"/>
<path d="M243.729 85.8397H210.594V147.95H243.729V85.8397Z" fill="url(#paint0_linear)"/>
<path d="M227.145 107.8H191.289V149.317H227.145V107.8Z" fill="#5577FF"/>
<path d="M205.747 114.095H176.809V149.317H205.747V114.095Z" fill="#3F64F5"/>
<path d="M200.309 115.34H173.93V147.95H200.309V115.34Z" fill="url(#paint1_linear)"/>
<path d="M175.541 100.48H157.855V147.109H175.541V100.48Z" fill="#3F64F5"/>
<path d="M163.3 84.827H147.551V147.962H163.3V84.827Z" fill="url(#paint2_linear)"/>
<path d="M155.433 71.5535H122.137V147.109H155.433V71.5535Z" fill="#5577FF"/>
<path d="M119.096 120.171V116.645H114.438V120.171H111.855V148.682H120.018V120.171H119.096Z" fill="url(#paint3_linear)"/>
<path d="M109.205 123.623H92.9023V147.108H109.205V123.623Z" fill="#5577FF"/>
<path d="M46.9922 123.623L50.4279 31.8423L59.8588 27.0842L85.5921 29.3534L92.9016 137.934H46.9922V123.623Z" fill="url(#paint4_linear)"/>
<path d="M49.7798 120.171H23.0781V149.414H49.7798V120.171Z" fill="#708DFF"/>
<path d="M-1.68359 127.698V71.5535L8.62356 70.5287V73.9325L27.6007 72.3953L32.4199 73.5909V145.23H-1.68359V127.698Z" fill="#3F64F5"/>
<path d="M270.567 111.362H247.094V147.096H270.567V111.362Z" fill="url(#paint5_linear)"/>
<path d="M284.565 114.937V112.387H281.499V108.812H277.971V112.387H274.742V114.937H269.762V150H290.676V114.937H284.565Z" fill="url(#paint6_linear)"/>
<path d="M245.643 88.3408H220.555V88.9142H245.643V88.3408Z" fill="#ABBCFF"/>
<path d="M245.643 90.8296H220.555V91.3908H245.643V90.8296Z" fill="#ABBCFF"/>
<path d="M245.643 93.3185H220.555V93.8797H245.643V93.3185Z" fill="#ABBCFF"/>
<path d="M245.643 95.8071H220.555V96.3683H245.643V95.8071Z" fill="#ABBCFF"/>
<path d="M245.643 98.2961H220.555V98.8696H245.643V98.2961Z" fill="#ABBCFF"/>
<path d="M245.643 100.773H220.555V101.334H245.643V100.773Z" fill="#ABBCFF"/>
<path d="M245.643 103.261H220.555V103.823H245.643V103.261Z" fill="#ABBCFF"/>
<path d="M245.643 105.75H220.555V106.311H245.643V105.75Z" fill="#ABBCFF"/>
<path d="M252.167 113.07H249.516V114.473H252.167V113.07Z" fill="#B3C2FF"/>
<path d="M255.808 113.07H253.156V114.473H255.808V113.07Z" fill="#B3C2FF"/>
<path d="M259.456 113.07H256.805V114.473H259.456V113.07Z" fill="#B3C2FF"/>
<path d="M263.097 113.07H260.445V114.473H263.097V113.07Z" fill="#B3C2FF"/>
<path d="M266.742 113.07H264.09V114.473H266.742V113.07Z" fill="#B3C2FF"/>
<path d="M252.167 115.278H249.516V116.681H252.167V115.278Z" fill="#B3C2FF"/>
<path d="M255.808 115.278H253.156V116.681H255.808V115.278Z" fill="#B3C2FF"/>
<path d="M259.456 115.278H256.805V116.681H259.456V115.278Z" fill="#B3C2FF"/>
<path d="M263.097 115.278H260.445V116.681H263.097V115.278Z" fill="#B3C2FF"/>
<path d="M266.742 115.278H264.09V116.681H266.742V115.278Z" fill="#B3C2FF"/>
<path d="M252.167 117.487H249.516V118.89H252.167V117.487Z" fill="#B3C2FF"/>
<path d="M255.808 117.487H253.156V118.89H255.808V117.487Z" fill="#B3C2FF"/>
<path d="M259.456 117.487H256.805V118.89H259.456V117.487Z" fill="#B3C2FF"/>
<path d="M263.097 117.487H260.445V118.89H263.097V117.487Z" fill="#B3C2FF"/>
<path d="M266.742 117.487H264.09V118.89H266.742V117.487Z" fill="#B3C2FF"/>
<path d="M252.167 119.695H249.516V121.098H252.167V119.695Z" fill="#B3C2FF"/>
<path d="M255.808 119.695H253.156V121.098H255.808V119.695Z" fill="#B3C2FF"/>
<path d="M259.456 119.695H256.805V121.098H259.456V119.695Z" fill="#B3C2FF"/>
<path d="M263.097 119.695H260.445V121.098H263.097V119.695Z" fill="#B3C2FF"/>
<path d="M266.742 119.695H264.09V121.098H266.742V119.695Z" fill="#B3C2FF"/>
<path d="M252.167 121.903H249.516V123.306H252.167V121.903Z" fill="#B3C2FF"/>
<path d="M255.808 121.903H253.156V123.306H255.808V121.903Z" fill="#B3C2FF"/>
<path d="M259.456 121.903H256.805V123.306H259.456V121.903Z" fill="#B3C2FF"/>
<path d="M263.097 121.903H260.445V123.306H263.097V121.903Z" fill="#B3C2FF"/>
<path d="M266.742 121.903H264.09V123.306H266.742V121.903Z" fill="#B3C2FF"/>
<path d="M217.463 109.776H214.281V110.484H217.463V109.776Z" fill="#1E79FF"/>
<path d="M215.918 110.862H214.281V111.728H215.918V110.862Z" fill="#1E79FF"/>
<path d="M200.538 109.215H198.809V110.13H200.538V109.215Z" fill="#1E79FF"/>
<path d="M199.458 112.107H197.844V112.961H199.458V112.107Z" fill="#1E79FF"/>
<path d="M208.888 112.534H207.273V113.388H208.888V112.534Z" fill="#1E79FF"/>
<path d="M198.879 118.036H197.195V118.926H198.879V118.036Z" fill="#1E79FF"/>
<path d="M198.879 119.768H197.195V120.659H198.879V119.768Z" fill="#1E79FF"/>
<path d="M175.541 100.48H157.855V101.505H175.541V100.48Z" fill="#3F64F5"/>
<path d="M175.541 114.315H157.855V115.34H175.541V114.315Z" fill="#A0B3FF"/>
<path d="M176.832 123.623H159.031V146.596H176.832V123.623Z" fill="#3F64F5"/>
<path d="M134.593 91.7201H126.223V92.7083H134.593V91.7201Z" fill="#1E79FF"/>
<path d="M144.343 93.7332H135.973V94.7214H144.343V93.7332Z" fill="#1E79FF"/>
<path d="M134.593 97.7592H126.223V98.7474H134.593V97.7592Z" fill="#1E79FF"/>
<path d="M144.343 97.7592H135.973V98.7474H144.343V97.7592Z" fill="#1E79FF"/>
<path d="M149.484 79.9714H122.137V80.9108H149.484V79.9714Z" fill="#1E79FF"/>
<path d="M59.8594 27.0842L77.453 127.698L85.5927 29.3534L59.8594 27.0842Z" fill="url(#paint7_linear)"/>
<path d="M59.8567 27.0842L51.9246 127.698L50.4258 31.8423L59.8567 27.0842Z" fill="#5577FF"/>
<path d="M67.7242 30.9395L63.4123 30.4637L63.0664 29.7195L67.4014 30.1953L67.7242 30.9395Z" fill="#94C0FF"/>
<path d="M73.6734 33.3184L69.3615 32.8426L69.0156 32.0984L73.3506 32.5864L73.6734 33.3184Z" fill="#94C0FF"/>
<path d="M80.5914 32.7084L76.2795 32.2326L75.9336 31.4884L80.2455 31.9764L80.5914 32.7084Z" fill="#94C0FF"/>
<path d="M69.6149 42.627L65.3029 42.139L64.957 41.407L69.269 41.8828L69.6149 42.627Z" fill="#94C0FF"/>
<path d="M70.4434 44.5181L66.1314 44.0423L65.8086 43.2981L70.1205 43.7739L70.4434 44.5181Z" fill="#94C0FF"/>
<path d="M71.3883 46.409L67.0533 45.9332L66.7305 45.189L71.0424 45.6648L71.3883 46.409Z" fill="#94C0FF"/>
<path d="M78.1912 51.2159H76.2773V52.2285H78.1912V51.2159Z" fill="#94C0FF"/>
<path d="M77.7068 53.4486H75.793V54.4612H77.7068V53.4486Z" fill="#94C0FF"/>
<path d="M73.6951 57.6208H71.7812V58.6335H73.6951V57.6208Z" fill="#94C0FF"/>
<path d="M74.0154 59.9756H72.1016V60.9882H74.0154V59.9756Z" fill="#94C0FF"/>
<path d="M64.4724 65.9414H62.5586V66.954H64.4724V65.9414Z" fill="#94C0FF"/>
<path d="M64.1013 69.943H62.1875V70.9556H64.1013V69.943Z" fill="#94C0FF"/>
<path d="M66.8904 78.4465H64.9766V79.4591H66.8904V78.4465Z" fill="#94C0FF"/>
<path d="M60.5037 80.0691H58.5898V81.0817H60.5037V80.0691Z" fill="#94C0FF"/>
<path d="M69.2889 100.48H40.9961V149.414H69.2889V100.48Z" fill="#3F64F5"/>
<path d="M85.5928 124.38H62.0039V149.305H85.5928V124.38Z" fill="#5577FF"/>
<path d="M219.448 85.8397H210.594V107.788H219.448V85.8397Z" fill="url(#paint8_linear)"/>
<path d="M32.4192 102.371H-11V123.623L32.4192 128.162V102.371Z" fill="#3F64F5"/>
<path d="M27.6007 72.3953V127.698L-1.68359 102.371V71.5535L8.62356 70.5287V73.9325L27.6007 72.3953Z" fill="url(#paint9_linear)"/>
<path d="M653.795 24.3026C660.943 24.3026 666.73 24.9248 666.73 25.6934V28.9631C666.73 29.7317 660.943 30.3539 653.795 30.3539C646.646 30.3539 640.859 29.7317 640.859 28.9631V25.6934C640.859 24.9248 646.646 24.3026 653.795 24.3026Z" fill="#1E79FF"/>
<path d="M653.795 0L654.855 25.5226H652.757L653.795 0Z" fill="#1E79FF"/>
<path d="M478.271 85.8397H511.406V147.95H478.271V85.8397Z" fill="url(#paint10_linear)"/>
<path d="M494.855 107.8H530.711V149.317H494.855V107.8Z" fill="#5577FF"/>
<path d="M516.253 114.095H545.191V149.317H516.253V114.095Z" fill="#3F64F5"/>
<path d="M521.691 115.34H548.07V147.95H521.691V115.34Z" fill="url(#paint11_linear)"/>
<path d="M546.459 100.48H564.145V147.109H546.459V100.48Z" fill="#3F64F5"/>
<path d="M558.7 84.827H574.449V147.962H558.7V84.827Z" fill="url(#paint12_linear)"/>
<path d="M566.567 71.5535H599.863V147.109H566.567V71.5535Z" fill="#5577FF"/>
<path d="M602.904 120.171V116.645H607.562V120.171H610.145V148.682H601.982V120.171H602.904Z" fill="url(#paint13_linear)"/>
<path d="M612.795 123.623H629.098V147.108H612.795V123.623Z" fill="#5577FF"/>
<path d="M675.008 123.623L671.572 31.8423L662.141 27.0842L636.408 29.3534L629.098 137.934H675.008V123.623Z" fill="url(#paint14_linear)"/>
<path d="M672.22 120.171H698.922V149.414H672.22V120.171Z" fill="#708DFF"/>
<path d="M723.684 127.698V71.5535L713.376 70.5287V73.9325L694.399 72.3953L689.58 73.5909V145.23H723.684V127.698Z" fill="#3F64F5"/>
<path d="M451.433 111.362H474.906V147.096H451.433V111.362Z" fill="url(#paint15_linear)"/>
<path d="M437.435 114.937V112.387H440.501V108.812H444.029V112.387H447.258V114.937H452.238V150H431.324V114.937H437.435Z" fill="url(#paint16_linear)"/>
<path d="M476.357 88.3408H501.445V88.9142H476.357V88.3408Z" fill="#ABBCFF"/>
<path d="M476.357 90.8296H501.445V91.3908H476.357V90.8296Z" fill="#ABBCFF"/>
<path d="M476.357 93.3185H501.445V93.8797H476.357V93.3185Z" fill="#ABBCFF"/>
<path d="M476.357 95.8071H501.445V96.3683H476.357V95.8071Z" fill="#ABBCFF"/>
<path d="M476.357 98.2961H501.445V98.8696H476.357V98.2961Z" fill="#ABBCFF"/>
<path d="M476.357 100.773H501.445V101.334H476.357V100.773Z" fill="#ABBCFF"/>
<path d="M476.357 103.261H501.445V103.823H476.357V103.261Z" fill="#ABBCFF"/>
<path d="M476.357 105.75H501.445V106.311H476.357V105.75Z" fill="#ABBCFF"/>
<path d="M469.833 113.07H472.484V114.473H469.833V113.07Z" fill="#B3C2FF"/>
<path d="M466.192 113.07H468.844V114.473H466.192V113.07Z" fill="#B3C2FF"/>
<path d="M462.544 113.07H465.195V114.473H462.544V113.07Z" fill="#B3C2FF"/>
<path d="M458.903 113.07H461.555V114.473H458.903V113.07Z" fill="#B3C2FF"/>
<path d="M455.258 113.07H457.91V114.473H455.258V113.07Z" fill="#B3C2FF"/>
<path d="M469.833 115.278H472.484V116.681H469.833V115.278Z" fill="#B3C2FF"/>
<path d="M466.192 115.278H468.844V116.681H466.192V115.278Z" fill="#B3C2FF"/>
<path d="M462.544 115.278H465.195V116.681H462.544V115.278Z" fill="#B3C2FF"/>
<path d="M458.903 115.278H461.555V116.681H458.903V115.278Z" fill="#B3C2FF"/>
<path d="M455.258 115.278H457.91V116.681H455.258V115.278Z" fill="#B3C2FF"/>
<path d="M469.833 117.487H472.484V118.89H469.833V117.487Z" fill="#B3C2FF"/>
<path d="M466.192 117.487H468.844V118.89H466.192V117.487Z" fill="#B3C2FF"/>
<path d="M462.544 117.487H465.195V118.89H462.544V117.487Z" fill="#B3C2FF"/>
<path d="M458.903 117.487H461.555V118.89H458.903V117.487Z" fill="#B3C2FF"/>
<path d="M455.258 117.487H457.91V118.89H455.258V117.487Z" fill="#B3C2FF"/>
<path d="M469.833 119.695H472.484V121.098H469.833V119.695Z" fill="#B3C2FF"/>
<path d="M466.192 119.695H468.844V121.098H466.192V119.695Z" fill="#B3C2FF"/>
<path d="M462.544 119.695H465.195V121.098H462.544V119.695Z" fill="#B3C2FF"/>
<path d="M458.903 119.695H461.555V121.098H458.903V119.695Z" fill="#B3C2FF"/>
<path d="M455.258 119.695H457.91V121.098H455.258V119.695Z" fill="#B3C2FF"/>
<path d="M469.833 121.903H472.484V123.306H469.833V121.903Z" fill="#B3C2FF"/>
<path d="M466.192 121.903H468.844V123.306H466.192V121.903Z" fill="#B3C2FF"/>
<path d="M462.544 121.903H465.195V123.306H462.544V121.903Z" fill="#B3C2FF"/>
<path d="M458.903 121.903H461.555V123.306H458.903V121.903Z" fill="#B3C2FF"/>
<path d="M455.258 121.903H457.91V123.306H455.258V121.903Z" fill="#B3C2FF"/>
<path d="M504.537 109.776H507.719V110.484H504.537V109.776Z" fill="#1E79FF"/>
<path d="M506.082 110.862H507.719V111.728H506.082V110.862Z" fill="#1E79FF"/>
<path d="M521.462 109.215H523.191V110.13H521.462V109.215Z" fill="#1E79FF"/>
<path d="M522.542 112.107H524.156V112.961H522.542V112.107Z" fill="#1E79FF"/>
<path d="M513.112 112.534H514.727V113.388H513.112V112.534Z" fill="#1E79FF"/>
<path d="M523.121 118.036H524.805V118.926H523.121V118.036Z" fill="#1E79FF"/>
<path d="M523.121 119.768H524.805V120.659H523.121V119.768Z" fill="#1E79FF"/>
<path d="M546.459 100.48H564.145V101.505H546.459V100.48Z" fill="#3F64F5"/>
<path d="M546.459 114.315H564.145V115.34H546.459V114.315Z" fill="#A0B3FF"/>
<path d="M545.168 123.623H562.969V146.596H545.168V123.623Z" fill="#3F64F5"/>
<path d="M587.407 91.7201H595.777V92.7083H587.407V91.7201Z" fill="#1E79FF"/>
<path d="M577.657 93.7332H586.027V94.7214H577.657V93.7332Z" fill="#1E79FF"/>
<path d="M587.407 97.7592H595.777V98.7474H587.407V97.7592Z" fill="#1E79FF"/>
<path d="M577.657 97.7592H586.027V98.7474H577.657V97.7592Z" fill="#1E79FF"/>
<path d="M572.516 79.9714H599.863V80.9108H572.516V79.9714Z" fill="#1E79FF"/>
<path d="M662.141 27.0842L644.547 127.698L636.407 29.3534L662.141 27.0842Z" fill="url(#paint17_linear)"/>
<path d="M662.143 27.0842L670.075 127.698L671.574 31.8423L662.143 27.0842Z" fill="#5577FF"/>
<path d="M654.276 30.9395L658.588 30.4637L658.934 29.7195L654.599 30.1953L654.276 30.9395Z" fill="#94C0FF"/>
<path d="M648.327 33.3184L652.638 32.8426L652.984 32.0984L648.649 32.5864L648.327 33.3184Z" fill="#94C0FF"/>
<path d="M641.409 32.7084L645.721 32.2326L646.066 31.4884L641.754 31.9764L641.409 32.7084Z" fill="#94C0FF"/>
<path d="M652.385 42.627L656.697 42.139L657.043 41.407L652.731 41.8828L652.385 42.627Z" fill="#94C0FF"/>
<path d="M651.557 44.5181L655.869 44.0423L656.191 43.2981L651.879 43.7739L651.557 44.5181Z" fill="#94C0FF"/>
<path d="M650.612 46.409L654.947 45.9332L655.27 45.189L650.958 45.6648L650.612 46.409Z" fill="#94C0FF"/>
<path d="M643.809 51.2159H645.723V52.2285H643.809V51.2159Z" fill="#94C0FF"/>
<path d="M644.293 53.4486H646.207V54.4612H644.293V53.4486Z" fill="#94C0FF"/>
<path d="M648.305 57.6208H650.219V58.6335H648.305V57.6208Z" fill="#94C0FF"/>
<path d="M647.985 59.9756H649.898V60.9882H647.985V59.9756Z" fill="#94C0FF"/>
<path d="M657.528 65.9414H659.441V66.954H657.528V65.9414Z" fill="#94C0FF"/>
<path d="M657.899 69.943H659.812V70.9556H657.899V69.943Z" fill="#94C0FF"/>
<path d="M655.11 78.4465H657.023V79.4591H655.11V78.4465Z" fill="#94C0FF"/>
<path d="M661.496 80.0691H663.41V81.0817H661.496V80.0691Z" fill="#94C0FF"/>
<path d="M652.711 100.48H681.004V149.414H652.711V100.48Z" fill="#3F64F5"/>
<path d="M636.407 124.38H659.996V149.305H636.407V124.38Z" fill="#5577FF"/>
<path d="M502.552 85.8397H511.406V107.788H502.552V85.8397Z" fill="url(#paint18_linear)"/>
<path d="M689.581 102.371H733V123.623L689.581 128.162V102.371Z" fill="#3F64F5"/>
<path d="M694.399 72.3953V127.698L723.684 102.371V71.5535L713.376 70.5287V73.9325L694.399 72.3953Z" fill="url(#paint19_linear)"/>
</g>
<defs>
<linearGradient id="paint0_linear" x1="227.155" y1="77.6762" x2="227.155" y2="144.626" gradientUnits="userSpaceOnUse">
<stop stop-color="white"/>
<stop offset="1" stop-color="#5577FF"/>
</linearGradient>
<linearGradient id="paint1_linear" x1="187.113" y1="105.016" x2="187.113" y2="139.051" gradientUnits="userSpaceOnUse">
<stop stop-color="white"/>
<stop offset="1" stop-color="#5577FF"/>
</linearGradient>
<linearGradient id="paint2_linear" x1="155.435" y1="80.7391" x2="155.435" y2="136.117" gradientUnits="userSpaceOnUse">
<stop stop-color="white"/>
<stop offset="1" stop-color="#5577FF"/>
</linearGradient>
<linearGradient id="paint3_linear" x1="115.932" y1="101.244" x2="115.932" y2="140.809" gradientUnits="userSpaceOnUse">
<stop stop-color="white"/>
<stop offset="1" stop-color="#5577FF"/>
</linearGradient>
<linearGradient id="paint4_linear" x1="69.9443" y1="29.577" x2="69.9443" y2="143.051" gradientUnits="userSpaceOnUse">
<stop stop-color="white"/>
<stop offset="1" stop-color="#5577FF"/>
</linearGradient>
<linearGradient id="paint5_linear" x1="258.832" y1="104.675" x2="258.832" y2="149.675" gradientUnits="userSpaceOnUse">
<stop stop-color="white"/>
<stop offset="1" stop-color="#5577FF"/>
</linearGradient>
<linearGradient id="paint6_linear" x1="280.221" y1="97.33" x2="280.221" y2="141.078" gradientUnits="userSpaceOnUse">
<stop stop-color="white"/>
<stop offset="1" stop-color="#5577FF"/>
</linearGradient>
<linearGradient id="paint7_linear" x1="72.7269" y1="24.5855" x2="72.7269" y2="101.73" gradientUnits="userSpaceOnUse">
<stop stop-color="white"/>
<stop offset="1" stop-color="#5577FF"/>
</linearGradient>
<linearGradient id="paint8_linear" x1="215.014" y1="74.9536" x2="215.014" y2="110.67" gradientUnits="userSpaceOnUse">
<stop stop-color="white"/>
<stop offset="1" stop-color="#5577FF"/>
</linearGradient>
<linearGradient id="paint9_linear" x1="12.9609" y1="51.3011" x2="12.9609" y2="110.383" gradientUnits="userSpaceOnUse">
<stop stop-color="white"/>
<stop offset="1" stop-color="#3F64F5"/>
</linearGradient>
<linearGradient id="paint10_linear" x1="494.845" y1="77.6762" x2="494.845" y2="144.626" gradientUnits="userSpaceOnUse">
<stop stop-color="white"/>
<stop offset="1" stop-color="#5577FF"/>
</linearGradient>
<linearGradient id="paint11_linear" x1="534.887" y1="105.016" x2="534.887" y2="139.051" gradientUnits="userSpaceOnUse">
<stop stop-color="white"/>
<stop offset="1" stop-color="#5577FF"/>
</linearGradient>
<linearGradient id="paint12_linear" x1="566.565" y1="80.7391" x2="566.565" y2="136.117" gradientUnits="userSpaceOnUse">
<stop stop-color="white"/>
<stop offset="1" stop-color="#5577FF"/>
</linearGradient>
<linearGradient id="paint13_linear" x1="606.068" y1="101.244" x2="606.068" y2="140.809" gradientUnits="userSpaceOnUse">
<stop stop-color="white"/>
<stop offset="1" stop-color="#5577FF"/>
</linearGradient>
<linearGradient id="paint14_linear" x1="652.056" y1="29.577" x2="652.056" y2="143.051" gradientUnits="userSpaceOnUse">
<stop stop-color="white"/>
<stop offset="1" stop-color="#5577FF"/>
</linearGradient>
<linearGradient id="paint15_linear" x1="463.168" y1="104.675" x2="463.168" y2="149.675" gradientUnits="userSpaceOnUse">
<stop stop-color="white"/>
<stop offset="1" stop-color="#5577FF"/>
</linearGradient>
<linearGradient id="paint16_linear" x1="441.779" y1="97.33" x2="441.779" y2="141.078" gradientUnits="userSpaceOnUse">
<stop stop-color="white"/>
<stop offset="1" stop-color="#5577FF"/>
</linearGradient>
<linearGradient id="paint17_linear" x1="649.273" y1="24.5855" x2="649.273" y2="101.73" gradientUnits="userSpaceOnUse">
<stop stop-color="white"/>
<stop offset="1" stop-color="#5577FF"/>
</linearGradient>
<linearGradient id="paint18_linear" x1="506.986" y1="74.9536" x2="506.986" y2="110.67" gradientUnits="userSpaceOnUse">
<stop stop-color="white"/>
<stop offset="1" stop-color="#5577FF"/>
</linearGradient>
<linearGradient id="paint19_linear" x1="709.039" y1="51.3011" x2="709.039" y2="110.383" gradientUnits="userSpaceOnUse">
<stop stop-color="white"/>
<stop offset="1" stop-color="#3F64F5"/>
</linearGradient>
<clipPath id="clip0">
<rect width="727" height="150" fill="white" transform="translate(-11)"/>
</clipPath>
</defs>
</svg>
