<svg width="424" height="150" viewBox="0 0 424 150" fill="none" xmlns="http://www.w3.org/2000/svg">
<g opacity="0.3" clip-path="url(#clip0)">
<path d="M316.502 141.07V140.96H312.536V143.168H311.983V136.519H306.403V139.984H303.152V141.045H301.122V143.107H300.5V139.13H298.448V136.348H297.11V134.262H291.507V143.79H289.316V146.974H291.507H292.96H295.796H297.11H297.525H298.448H298.632H300.5H301.122H301.63H303.152H305.988H306.403H309.193H310.461H311.983H312.536H316.364H316.502H319.546H319.869V141.07H316.502Z" fill="url(#paint0_linear)"/>
<path d="M343.621 140.24V140.118H339.124V142.631H338.479V135.055H332.115V139.008H328.402V140.216H326.096V142.57H325.382V138.02H323.03V134.848H321.531V132.469H315.121V143.351H312.653V146.974H315.121H316.804H320.009H321.531H321.992H323.03H323.26H325.382H326.096H326.673H328.402H331.654H332.115H335.297H336.749H338.479H339.124H343.483H343.621H347.126H347.495V140.24H343.621Z" fill="url(#paint1_linear)"/>
<path d="M386.716 141.924V141.826H383.326V143.717H382.842V138.032H378.069V140.996H375.302V141.899H373.572V143.668H373.042V140.264H371.267V137.885H370.137V136.104H365.341V144.254H363.473V146.974H365.341H366.586H369.007H370.137H370.483H371.267H371.428H373.042H373.572H374.011H375.302H377.723H378.069H380.467H381.551H382.842H383.326H386.6H386.716H389.321H389.598V141.924H386.716Z" fill="url(#paint2_linear)"/>
<path d="M394.141 143.424V143.351H391.766V144.681H391.42V140.679H388.077V142.765H386.117V143.4H384.895V144.644H384.526V142.253H383.281V140.582H382.474V139.313H379.107V145.059H377.793V146.974H379.107H379.983H381.69H382.474H382.727H383.281H383.396H384.526H384.895H385.195H386.117H387.823H388.077H389.76H390.521H391.42H391.766H394.072H394.141H395.986H396.193V143.424H394.141Z" fill="url(#paint3_linear)"/>
<path d="M407.653 143.424V143.351H405.278V144.681H404.932V140.679H401.589V142.765H399.629V143.4H398.407V144.644H398.015V142.253H396.793V140.582H395.986V139.313H392.619V145.059H391.305V146.974H392.619H393.495H395.179H395.986H396.239H396.793H396.908H398.015H398.407H398.706H399.629H401.335H401.589H403.249H404.033H404.932H405.278H407.584H407.653H409.498H409.705V143.424H407.653Z" fill="url(#paint4_linear)"/>
<path d="M424.001 136.787V149.963H397.438V145.95H400.181V133.932H407.237V136.568H408.921V140.069H411.503V145.083H412.287V142.485H414.847V141.155H418.951V136.787H424.001Z" fill="url(#paint5_linear)"/>
<path d="M354.964 144.29V144.242H353.166V145.242H352.889V142.216H350.353V143.79H348.877V144.278H347.955V145.218H347.678V143.4H346.732V142.143H346.133V141.192H343.596V145.523H342.605V146.974H343.596H344.265H345.533H346.133H346.317H346.732H346.825H347.678H347.955H348.185H348.877H350.168H350.353H351.621H352.22H352.889H353.166H354.895H354.964H356.348H356.486V144.29H354.964Z" fill="url(#paint6_linear)"/>
<path d="M357.772 142.314V142.216H360.908V143.973H361.346V138.715H365.751V141.448H368.333V142.29H369.924V143.912H370.408V140.765H372.046V138.569H373.083V136.922H377.534V144.461H379.24V146.974H377.534H376.358H374.144H373.083H372.783H372.046H371.884H370.408H369.924H369.532H368.333H366.073H365.751H363.56H362.546H361.346H360.908H357.888H357.772H355.351H355.098V142.314H357.772Z" fill="url(#paint7_linear)"/>
<path d="M79.2059 24.3026C72.0577 24.3026 66.2701 24.9248 66.2701 25.6934V28.963C66.2701 29.7317 72.0577 30.3539 79.2059 30.3539C86.354 30.3539 92.1417 29.7317 92.1417 28.963V25.6934C92.1417 24.9248 86.354 24.3026 79.2059 24.3026Z" fill="#1E79FF"/>
<path d="M79.2052 0L78.1445 25.5226H80.2428L79.2052 0Z" fill="#1E79FF"/>
<path d="M299.738 125.356H245.712V147.963H299.738V125.356Z" fill="#708DFF"/>
<path d="M254.729 85.8398H221.594V147.95H254.729V85.8398Z" fill="url(#paint8_linear)"/>
<path d="M238.146 107.8H202.289V149.317H238.146V107.8Z" fill="#5577FF"/>
<path d="M216.747 114.095H187.809V149.317H216.747V114.095Z" fill="#3F64F5"/>
<path d="M211.308 115.34H184.929V147.95H211.308V115.34Z" fill="url(#paint9_linear)"/>
<path d="M186.541 100.48H168.855V147.109H186.541V100.48Z" fill="#3F64F5"/>
<path d="M174.3 84.827H158.551V147.962H174.3V84.827Z" fill="url(#paint10_linear)"/>
<path d="M166.433 71.5535H133.137V147.109H166.433V71.5535Z" fill="#5577FF"/>
<path d="M141.836 127.698H120.184V146.584H141.836V127.698Z" fill="url(#paint11_linear)"/>
<path d="M130.095 120.171V116.645H125.438V120.171H122.855V148.682H131.018V120.171H130.095Z" fill="url(#paint12_linear)"/>
<path d="M120.204 123.623H103.902V147.108H120.204V123.623Z" fill="#5577FF"/>
<path d="M108.604 126.454H91.8868V149.414H108.604V126.454Z" fill="#5577FF"/>
<path d="M57.9922 123.623L61.4279 31.8422L70.8588 27.0842L96.5921 29.3534L103.902 137.934H57.9922V123.623Z" fill="url(#paint13_linear)"/>
<path d="M60.7791 120.171H34.0774V149.414H60.7791V120.171Z" fill="#708DFF"/>
<path d="M9.31641 127.698V71.5535L19.6236 70.5287V73.9325L38.6007 72.3953L43.4199 73.5909V145.23H9.31641V127.698Z" fill="#3F64F5"/>
<path d="M281.567 111.362H258.094V147.096H281.567V111.362Z" fill="url(#paint14_linear)"/>
<path d="M295.565 114.937V112.387H292.499V108.813H288.971V112.387H285.742V114.937H280.762V150H301.676V114.937H295.565Z" fill="url(#paint15_linear)"/>
<path d="M256.643 88.3408H231.555V88.9142H256.643V88.3408Z" fill="#ABBCFF"/>
<path d="M256.643 90.8296H231.555V91.3908H256.643V90.8296Z" fill="#ABBCFF"/>
<path d="M256.643 93.3184H231.555V93.8796H256.643V93.3184Z" fill="#ABBCFF"/>
<path d="M256.643 95.8072H231.555V96.3684H256.643V95.8072Z" fill="#ABBCFF"/>
<path d="M256.643 98.2961H231.555V98.8696H256.643V98.2961Z" fill="#ABBCFF"/>
<path d="M256.643 100.773H231.555V101.334H256.643V100.773Z" fill="#ABBCFF"/>
<path d="M256.643 103.261H231.555V103.823H256.643V103.261Z" fill="#ABBCFF"/>
<path d="M256.643 105.75H231.555V106.311H256.643V105.75Z" fill="#ABBCFF"/>
<path d="M303.516 127.662H283.824V128.052H303.516V127.662Z" fill="#8FA5FF"/>
<path d="M303.516 129.37H283.824V129.76H303.516V129.37Z" fill="#8FA5FF"/>
<path d="M303.516 131.078H283.824V131.468H303.516V131.078Z" fill="#8FA5FF"/>
<path d="M303.516 132.786H283.824V133.176H303.516V132.786Z" fill="#8FA5FF"/>
<path d="M303.516 134.494H283.824V134.884H303.516V134.494Z" fill="#8FA5FF"/>
<path d="M303.516 136.202H283.824V136.592H303.516V136.202Z" fill="#8FA5FF"/>
<path d="M303.516 137.898H283.824V138.288H303.516V137.898Z" fill="#8FA5FF"/>
<path d="M303.516 139.606H283.824V139.996H303.516V139.606Z" fill="#8FA5FF"/>
<path d="M263.167 113.07H260.516V114.473H263.167V113.07Z" fill="#B3C2FF"/>
<path d="M266.809 113.07H264.157V114.473H266.809V113.07Z" fill="#B3C2FF"/>
<path d="M270.455 113.07H267.804V114.473H270.455V113.07Z" fill="#B3C2FF"/>
<path d="M274.097 113.07H271.445V114.473H274.097V113.07Z" fill="#B3C2FF"/>
<path d="M277.742 113.07H275.09V114.473H277.742V113.07Z" fill="#B3C2FF"/>
<path d="M263.167 115.278H260.516V116.681H263.167V115.278Z" fill="#B3C2FF"/>
<path d="M266.809 115.278H264.157V116.681H266.809V115.278Z" fill="#B3C2FF"/>
<path d="M270.455 115.278H267.804V116.681H270.455V115.278Z" fill="#B3C2FF"/>
<path d="M274.097 115.278H271.445V116.681H274.097V115.278Z" fill="#B3C2FF"/>
<path d="M277.742 115.278H275.09V116.681H277.742V115.278Z" fill="#B3C2FF"/>
<path d="M263.167 117.487H260.516V118.89H263.167V117.487Z" fill="#B3C2FF"/>
<path d="M266.809 117.487H264.157V118.89H266.809V117.487Z" fill="#B3C2FF"/>
<path d="M270.455 117.487H267.804V118.89H270.455V117.487Z" fill="#B3C2FF"/>
<path d="M274.097 117.487H271.445V118.89H274.097V117.487Z" fill="#B3C2FF"/>
<path d="M277.742 117.487H275.09V118.89H277.742V117.487Z" fill="#B3C2FF"/>
<path d="M263.167 119.695H260.516V121.098H263.167V119.695Z" fill="#B3C2FF"/>
<path d="M266.809 119.695H264.157V121.098H266.809V119.695Z" fill="#B3C2FF"/>
<path d="M270.455 119.695H267.804V121.098H270.455V119.695Z" fill="#B3C2FF"/>
<path d="M274.097 119.695H271.445V121.098H274.097V119.695Z" fill="#B3C2FF"/>
<path d="M277.742 119.695H275.09V121.098H277.742V119.695Z" fill="#B3C2FF"/>
<path d="M263.167 121.903H260.516V123.306H263.167V121.903Z" fill="#B3C2FF"/>
<path d="M266.809 121.903H264.157V123.306H266.809V121.903Z" fill="#B3C2FF"/>
<path d="M270.455 121.903H267.804V123.306H270.455V121.903Z" fill="#B3C2FF"/>
<path d="M274.097 121.903H271.445V123.306H274.097V121.903Z" fill="#B3C2FF"/>
<path d="M277.742 121.903H275.09V123.306H277.742V121.903Z" fill="#B3C2FF"/>
<path d="M228.463 109.776H225.281V110.484H228.463V109.776Z" fill="#1E79FF"/>
<path d="M226.918 110.862H225.281V111.728H226.918V110.862Z" fill="#1E79FF"/>
<path d="M211.538 109.215H209.809V110.13H211.538V109.215Z" fill="#1E79FF"/>
<path d="M210.458 112.107H208.844V112.961H210.458V112.107Z" fill="#1E79FF"/>
<path d="M219.888 112.534H218.274V113.388H219.888V112.534Z" fill="#1E79FF"/>
<path d="M209.879 118.036H208.195V118.926H209.879V118.036Z" fill="#1E79FF"/>
<path d="M209.879 119.768H208.195V120.659H209.879V119.768Z" fill="#1E79FF"/>
<path d="M194.522 127.954H192.539V129.004H194.522V127.954Z" fill="#F5F6F7"/>
<path d="M197.519 127.954H195.536V129.004H197.519V127.954Z" fill="#F5F6F7"/>
<path d="M197.519 130.004H195.536V131.053H197.519V130.004Z" fill="#F5F6F7"/>
<path d="M194.522 132.041H192.539V133.091H194.522V132.041Z" fill="#F5F6F7"/>
<path d="M197.519 132.041H195.536V133.091H197.519V132.041Z" fill="#F5F6F7"/>
<path d="M194.522 134.091H192.539V135.14H194.522V134.091Z" fill="#F5F6F7"/>
<path d="M177.046 130.492H175.063V131.541H177.046V130.492Z" fill="#F5F6F7"/>
<path d="M180.046 130.492H178.062V131.541H180.046V130.492Z" fill="#F5F6F7"/>
<path d="M183.108 130.492H181.125V131.541H183.108V130.492Z" fill="#F5F6F7"/>
<path d="M186.132 130.492H184.148V131.541H186.132V130.492Z" fill="#F5F6F7"/>
<path d="M183.108 132.542H181.125V133.591H183.108V132.542Z" fill="#F5F6F7"/>
<path d="M186.132 134.579H184.148V135.628H186.132V134.579Z" fill="#F5F6F7"/>
<path d="M183.108 136.629H181.125V137.678H183.108V136.629Z" fill="#F5F6F7"/>
<path d="M186.132 136.629H184.148V137.678H186.132V136.629Z" fill="#F5F6F7"/>
<path d="M180.046 132.542H178.062V133.591H180.046V132.542Z" fill="#F5F6F7"/>
<path d="M177.046 134.579H175.063V135.628H177.046V134.579Z" fill="#F5F6F7"/>
<path d="M180.046 134.579H178.062V135.628H180.046V134.579Z" fill="#F5F6F7"/>
<path d="M177.046 136.629H175.063V137.678H177.046V136.629Z" fill="#F5F6F7"/>
<path d="M186.541 100.48H168.855V101.505H186.541V100.48Z" fill="#3F64F5"/>
<path d="M186.541 114.315H168.855V115.34H186.541V114.315Z" fill="#A0B3FF"/>
<path d="M187.832 123.623H170.031V146.596H187.832V123.623Z" fill="#3F64F5"/>
<path d="M145.592 91.7201H137.222V92.7083H145.592V91.7201Z" fill="#1E79FF"/>
<path d="M155.343 93.7332H146.973V94.7214H155.343V93.7332Z" fill="#1E79FF"/>
<path d="M145.592 97.7592H137.222V98.7475H145.592V97.7592Z" fill="#1E79FF"/>
<path d="M155.343 97.7592H146.973V98.7475H155.343V97.7592Z" fill="#1E79FF"/>
<path d="M160.484 79.9715H133.137V80.9109H160.484V79.9715Z" fill="#1E79FF"/>
<path d="M70.8594 27.0842L88.453 127.698L96.5927 29.3534L70.8594 27.0842Z" fill="url(#paint16_linear)"/>
<path d="M70.8569 27.0842L62.9247 127.698L61.4259 31.8422L70.8569 27.0842Z" fill="#5577FF"/>
<path d="M78.7252 30.9395L74.4133 30.4636L74.0674 29.7194L78.4024 30.1952L78.7252 30.9395Z" fill="#94C0FF"/>
<path d="M84.6734 33.3185L80.3615 32.8427L80.0156 32.0984L84.3506 32.5865L84.6734 33.3185Z" fill="#94C0FF"/>
<path d="M91.5914 32.7085L87.2795 32.2327L86.9336 31.4884L91.2455 31.9765L91.5914 32.7085Z" fill="#94C0FF"/>
<path d="M80.6149 42.627L76.3029 42.139L75.957 41.407L80.269 41.8828L80.6149 42.627Z" fill="#94C0FF"/>
<path d="M81.4443 44.5181L77.1323 44.0423L76.8095 43.298L81.1214 43.7739L81.4443 44.5181Z" fill="#94C0FF"/>
<path d="M82.3886 46.4091L78.0537 45.9333L77.7308 45.189L82.0428 45.6648L82.3886 46.4091Z" fill="#94C0FF"/>
<path d="M89.1908 51.2159H87.2769V52.2285H89.1908V51.2159Z" fill="#94C0FF"/>
<path d="M88.7066 53.4486H86.7927V54.4612H88.7066V53.4486Z" fill="#94C0FF"/>
<path d="M84.6949 57.6209H82.781V58.6335H84.6949V57.6209Z" fill="#94C0FF"/>
<path d="M85.0149 59.9756H83.1011V60.9882H85.0149V59.9756Z" fill="#94C0FF"/>
<path d="M75.472 65.9414H73.5582V66.954H75.472V65.9414Z" fill="#94C0FF"/>
<path d="M75.1018 69.943H73.188V70.9556H75.1018V69.943Z" fill="#94C0FF"/>
<path d="M77.891 78.4465H75.9771V79.4591H77.891V78.4465Z" fill="#94C0FF"/>
<path d="M71.5037 80.0691H69.5898V81.0817H71.5037V80.0691Z" fill="#94C0FF"/>
<path d="M80.2897 100.48H51.9969V149.414H80.2897V100.48Z" fill="#3F64F5"/>
<path d="M96.5927 124.38H73.0038V149.305H96.5927V124.38Z" fill="#5577FF"/>
<path d="M230.448 85.8398H221.594V107.788H230.448V85.8398Z" fill="url(#paint17_linear)"/>
<path d="M43.4192 102.371H0V123.623L43.4192 128.162V102.371Z" fill="#3F64F5"/>
<path d="M38.6007 72.3953V127.698L9.31641 102.371V71.5535L19.6236 70.5287V73.9325L38.6007 72.3953Z" fill="url(#paint18_linear)"/>
</g>
<defs>
<linearGradient id="paint0_linear" x1="304.601" y1="152.775" x2="304.601" y2="123.958" gradientUnits="userSpaceOnUse">
<stop stop-color="white"/>
<stop offset="1" stop-color="#5577FF"/>
</linearGradient>
<linearGradient id="paint1_linear" x1="330.066" y1="152.775" x2="330.066" y2="123.958" gradientUnits="userSpaceOnUse">
<stop stop-color="white"/>
<stop offset="1" stop-color="#5577FF"/>
</linearGradient>
<linearGradient id="paint2_linear" x1="376.544" y1="152.775" x2="376.544" y2="123.958" gradientUnits="userSpaceOnUse">
<stop stop-color="white"/>
<stop offset="1" stop-color="#5577FF"/>
</linearGradient>
<linearGradient id="paint3_linear" x1="386.99" y1="152.775" x2="386.99" y2="123.958" gradientUnits="userSpaceOnUse">
<stop stop-color="white"/>
<stop offset="1" stop-color="#5577FF"/>
</linearGradient>
<linearGradient id="paint4_linear" x1="400.498" y1="152.775" x2="400.498" y2="123.958" gradientUnits="userSpaceOnUse">
<stop stop-color="white"/>
<stop offset="1" stop-color="#5577FF"/>
</linearGradient>
<linearGradient id="paint5_linear" x1="410.721" y1="152.772" x2="410.721" y2="123.961" gradientUnits="userSpaceOnUse">
<stop stop-color="white"/>
<stop offset="1" stop-color="#5577FF"/>
</linearGradient>
<linearGradient id="paint6_linear" x1="349.545" y1="152.775" x2="349.545" y2="123.958" gradientUnits="userSpaceOnUse">
<stop stop-color="white"/>
<stop offset="1" stop-color="#5577FF"/>
</linearGradient>
<linearGradient id="paint7_linear" x1="367.174" y1="152.775" x2="367.174" y2="123.958" gradientUnits="userSpaceOnUse">
<stop stop-color="white"/>
<stop offset="1" stop-color="#5577FF"/>
</linearGradient>
<linearGradient id="paint8_linear" x1="238.155" y1="77.6762" x2="238.155" y2="144.626" gradientUnits="userSpaceOnUse">
<stop stop-color="white"/>
<stop offset="1" stop-color="#5577FF"/>
</linearGradient>
<linearGradient id="paint9_linear" x1="198.113" y1="105.016" x2="198.113" y2="139.051" gradientUnits="userSpaceOnUse">
<stop stop-color="white"/>
<stop offset="1" stop-color="#5577FF"/>
</linearGradient>
<linearGradient id="paint10_linear" x1="166.435" y1="80.739" x2="166.435" y2="136.117" gradientUnits="userSpaceOnUse">
<stop stop-color="white"/>
<stop offset="1" stop-color="#5577FF"/>
</linearGradient>
<linearGradient id="paint11_linear" x1="131.011" y1="101.244" x2="131.011" y2="140.809" gradientUnits="userSpaceOnUse">
<stop stop-color="white"/>
<stop offset="1" stop-color="#5577FF"/>
</linearGradient>
<linearGradient id="paint12_linear" x1="126.931" y1="101.244" x2="126.931" y2="140.809" gradientUnits="userSpaceOnUse">
<stop stop-color="white"/>
<stop offset="1" stop-color="#5577FF"/>
</linearGradient>
<linearGradient id="paint13_linear" x1="80.9443" y1="29.577" x2="80.9443" y2="143.051" gradientUnits="userSpaceOnUse">
<stop stop-color="white"/>
<stop offset="1" stop-color="#5577FF"/>
</linearGradient>
<linearGradient id="paint14_linear" x1="269.832" y1="104.675" x2="269.832" y2="149.675" gradientUnits="userSpaceOnUse">
<stop stop-color="white"/>
<stop offset="1" stop-color="#5577FF"/>
</linearGradient>
<linearGradient id="paint15_linear" x1="291.221" y1="97.3301" x2="291.221" y2="141.078" gradientUnits="userSpaceOnUse">
<stop stop-color="white"/>
<stop offset="1" stop-color="#5577FF"/>
</linearGradient>
<linearGradient id="paint16_linear" x1="83.7269" y1="24.5855" x2="83.7269" y2="101.73" gradientUnits="userSpaceOnUse">
<stop stop-color="white"/>
<stop offset="1" stop-color="#5577FF"/>
</linearGradient>
<linearGradient id="paint17_linear" x1="226.014" y1="74.9536" x2="226.014" y2="110.67" gradientUnits="userSpaceOnUse">
<stop stop-color="white"/>
<stop offset="1" stop-color="#5577FF"/>
</linearGradient>
<linearGradient id="paint18_linear" x1="23.9609" y1="51.3011" x2="23.9609" y2="110.383" gradientUnits="userSpaceOnUse">
<stop stop-color="white"/>
<stop offset="1" stop-color="#3F64F5"/>
</linearGradient>
<clipPath id="clip0">
<rect width="424" height="150" fill="white"/>
</clipPath>
</defs>
</svg>
