<svg width="455" height="229" viewBox="0 0 455 229" fill="none" xmlns="http://www.w3.org/2000/svg">
<path opacity="0.74" d="M183.323 110.319C182.253 110.319 181.249 110.481 180.244 110.741C180.276 110.481 180.276 110.19 180.276 109.93C180.276 104.939 176.225 100.856 171.201 100.856C168.932 100.856 166.89 101.699 165.302 103.06C165.464 102.347 165.561 101.634 165.561 100.856C165.561 95.5085 161.25 91.1981 155.902 91.1981C153.115 91.1981 150.587 92.3972 148.804 94.3093C149.063 93.3047 149.193 92.2676 149.193 91.1981C149.193 84.4571 143.845 78.98 137.168 78.6883C137.201 78.3318 137.201 77.9429 137.201 77.554C137.201 68.4472 129.811 61.0256 120.67 61.0256C115.485 61.0256 110.85 63.4238 107.835 67.1508C102.228 61.1876 94.2871 57.4606 85.4386 57.4606C71.1449 57.4606 59.1201 67.2157 55.6844 80.4384C54.55 80.2115 53.3507 80.0819 52.1515 80.0819C42.5251 80.0819 34.7462 87.86 34.7462 97.4854C34.7462 99.3975 35.0703 101.212 35.6213 102.93C30.7271 103.092 26.2867 105.037 22.9482 108.18C20.5173 105.555 17.0493 103.902 13.1922 103.902C5.83469 103.902 -0.0967102 109.866 -0.0967102 117.19C-0.0967102 124.547 5.8671 130.477 13.1922 130.477C14.9425 130.477 16.6279 130.121 18.1513 129.505C21.0035 136.7 28.0369 141.788 36.2372 141.788C40.1266 141.788 43.7244 140.654 46.7711 138.677C49.915 148.464 59.0552 155.529 69.8809 155.529C81.8085 155.529 91.759 146.909 93.7685 135.566C99.3758 143.052 108.322 147.913 118.402 147.913C126.991 147.913 134.77 144.381 140.345 138.677C143.035 141.561 146.859 143.376 151.138 143.376C157.717 143.376 163.26 139.066 165.14 133.103C166.728 134.496 168.835 135.371 171.104 135.371C173.502 135.371 175.706 134.431 177.327 132.876C179.077 133.848 181.054 134.399 183.193 134.399C189.87 134.399 195.283 128.987 195.283 122.31C195.413 115.731 190 110.319 183.323 110.319Z" fill="url(#paint0_linear)"/>
<path d="M206.821 130.802C206.368 130.802 205.946 130.866 205.525 130.964C205.525 130.866 205.557 130.737 205.557 130.607C205.557 128.533 203.872 126.815 201.765 126.815C200.825 126.815 199.95 127.172 199.302 127.723C199.367 127.431 199.399 127.107 199.399 126.815C199.399 124.579 197.584 122.797 195.38 122.797C194.213 122.797 193.176 123.283 192.43 124.093C192.528 123.672 192.592 123.25 192.592 122.797C192.592 119.977 190.356 117.708 187.569 117.579C187.569 117.417 187.601 117.255 187.601 117.125C187.601 113.333 184.522 110.222 180.697 110.222C178.526 110.222 176.613 111.227 175.349 112.782C173.016 110.287 169.677 108.731 166.015 108.731C160.051 108.731 155.027 112.815 153.601 118.324C153.115 118.227 152.628 118.162 152.11 118.162C148.091 118.162 144.85 121.403 144.85 125.422C144.85 126.232 144.979 126.977 145.206 127.69C143.164 127.755 141.317 128.565 139.923 129.894C138.918 128.792 137.46 128.112 135.871 128.112C132.792 128.112 130.329 130.607 130.329 133.654C130.329 136.7 132.825 139.195 135.871 139.195C136.617 139.195 137.298 139.066 137.946 138.807C139.145 141.821 142.062 143.927 145.498 143.927C147.118 143.927 148.642 143.441 149.906 142.631C151.202 146.714 155.027 149.663 159.565 149.663C164.556 149.663 168.672 146.066 169.548 141.334C171.881 144.478 175.609 146.487 179.822 146.487C183.42 146.487 186.661 144.997 188.995 142.631C190.129 143.83 191.717 144.608 193.5 144.608C196.255 144.608 198.556 142.793 199.334 140.33C200.015 140.913 200.858 141.27 201.83 141.27C202.835 141.27 203.742 140.881 204.423 140.233C205.136 140.621 205.979 140.881 206.886 140.881C209.674 140.881 211.942 138.612 211.942 135.825C211.845 133.07 209.609 130.802 206.821 130.802Z" fill="url(#paint1_linear)"/>
<path d="M103.622 87.8277C103.362 87.8277 103.103 87.8601 102.844 87.9249C102.844 87.8601 102.844 87.7952 102.844 87.7304C102.844 86.4341 101.806 85.397 100.51 85.397C99.9265 85.397 99.4079 85.6239 98.9866 85.9479C99.019 85.7535 99.0514 85.5914 99.0514 85.397C99.0514 84.0358 97.9494 82.9339 96.5881 82.9339C95.875 82.9339 95.2268 83.2256 94.773 83.7441C94.8379 83.4849 94.8703 83.2256 94.8703 82.9339C94.8703 81.2163 93.509 79.7903 91.7911 79.7255C91.7911 79.6282 91.7911 79.531 91.7911 79.4338C91.7911 77.1004 89.9112 75.1882 87.5452 75.1882C86.2163 75.1882 85.017 75.804 84.2391 76.7439C82.813 75.2207 80.771 74.2484 78.5022 74.2484C74.8396 74.2484 71.7605 76.7439 70.8854 80.1468C70.5937 80.082 70.302 80.0496 69.9778 80.0496C67.5145 80.0496 65.505 82.0589 65.505 84.522C65.505 85.0081 65.5698 85.4942 65.7319 85.9155C64.4678 85.9479 63.3334 86.4665 62.4907 87.2443C61.8748 86.5637 60.9673 86.1424 59.9949 86.1424C58.115 86.1424 56.5917 87.6656 56.5917 89.5453C56.5917 91.425 58.115 92.9482 59.9949 92.9482C60.4487 92.9482 60.8701 92.851 61.259 92.689C62.0045 94.5363 63.7871 95.8326 65.8939 95.8326C66.8987 95.8326 67.8062 95.5409 68.5841 95.0224C69.3944 97.5179 71.7281 99.3327 74.5155 99.3327C77.5622 99.3327 80.1228 97.129 80.6414 94.2122C82.0675 96.1243 84.3688 97.3882 86.9617 97.3882C89.1657 97.3882 91.1429 96.4808 92.569 95.0224C93.2497 95.7678 94.2544 96.2215 95.324 96.2215C97.0095 96.2215 98.4356 95.1196 98.9218 93.5964C99.3431 93.9529 99.8617 94.1798 100.445 94.1798C101.061 94.1798 101.612 93.9205 102.033 93.5316C102.487 93.7909 103.006 93.9205 103.524 93.9205C105.242 93.9205 106.636 92.5269 106.636 90.8093C106.701 89.2212 105.307 87.8277 103.622 87.8277Z" fill="url(#paint2_linear)"/>
<path d="M170.26 158.025C169.773 158.025 169.287 158.09 168.866 158.219C169.06 157.766 169.158 157.28 169.158 156.793C169.158 154.719 167.472 153.002 165.365 153.002C165.333 153.002 165.268 153.002 165.236 153.002C165.625 152.224 165.884 151.349 165.884 150.409C165.884 147.33 163.388 144.835 160.309 144.835C159.142 144.835 158.073 145.191 157.198 145.774C157.068 145.677 156.938 145.58 156.809 145.483C156.841 145.256 156.841 145.061 156.841 144.835C156.841 141.561 154.183 138.904 150.91 138.904C149.192 138.904 147.636 139.649 146.566 140.816C146.729 140.2 146.826 139.552 146.826 138.904C146.826 134.756 143.552 131.385 139.436 131.223C139.436 130.996 139.468 130.769 139.468 130.542C139.468 125.681 136.065 121.63 131.495 120.625C133.44 118.065 134.574 114.857 134.574 111.389C134.574 102.865 127.67 95.9947 119.178 95.9947C112.534 95.9947 106.894 100.175 104.723 106.041C102.292 103.87 99.1153 102.541 95.5824 102.541C88.0628 102.541 81.9369 108.634 81.9369 116.185C81.9369 118.648 82.5852 120.949 83.7196 122.926C81.2563 123.769 79.4736 126.102 79.4736 128.857C79.4736 129.505 79.5708 130.121 79.7653 130.704C78.3716 130.121 76.8482 129.797 75.2276 129.797C68.6156 129.797 63.2676 135.144 63.2676 141.756C63.2676 143.571 63.6889 145.321 64.402 146.844C64.0131 146.779 63.6241 146.747 63.2352 146.747C58.7299 146.747 55.0674 150.409 55.0674 154.914C55.0674 159.419 58.7299 163.081 63.2352 163.081C64.3048 163.081 65.342 162.854 66.2819 162.497C68.0322 166.905 72.343 170.049 77.3992 170.049C80.446 170.049 83.2334 168.914 85.3726 167.002C86.9932 173.97 93.2487 179.155 100.736 179.155C107.445 179.155 113.182 174.975 115.451 169.076C118.789 172.026 123.165 173.808 127.962 173.808C132.467 173.808 136.584 172.22 139.825 169.595C142.191 171.183 145.011 172.123 148.09 172.123C150.132 172.123 152.077 171.701 153.859 170.956C155.156 171.701 156.679 172.123 158.3 172.123C161.768 172.123 164.75 170.178 166.273 167.326C167.278 168.428 168.736 169.141 170.357 169.141C173.436 169.141 175.932 166.646 175.932 163.567C175.835 160.52 173.339 158.025 170.26 158.025ZM88.3545 153.423C88.3869 153.423 88.4193 153.423 88.4517 153.423C88.4193 153.455 88.4193 153.488 88.3869 153.52C88.3545 153.488 88.3545 153.455 88.3545 153.423Z" fill="url(#paint3_linear)"/>
<path d="M208.736 190.336C208.185 195.327 211.815 199.832 216.807 200.351C219.432 200.642 221.928 199.767 223.775 198.147C225.752 203.041 230.258 206.703 235.865 207.319C238.49 207.61 241.018 207.189 243.255 206.217C246.01 207.74 249.089 208.745 252.395 209.133C257.354 209.684 262.119 208.647 266.235 206.508C271.032 211.337 277.482 214.643 284.775 215.421C292.553 216.263 299.976 214.124 305.907 209.944C308.565 219.926 317.154 227.736 328.045 228.903C340.167 230.199 351.219 222.875 355.109 211.856C358.22 215.291 362.531 217.657 367.49 218.175C375.69 219.051 383.242 214.74 386.872 207.87C388.331 208.647 389.984 209.166 391.734 209.36C399.059 210.138 405.671 204.855 406.449 197.531C407.227 190.207 401.944 183.595 394.619 182.818C393.971 182.753 393.355 182.753 392.707 182.753C394.165 180.355 395.137 177.632 395.462 174.683C396.628 163.956 388.882 154.33 378.154 153.164C375.561 152.872 373 153.131 370.634 153.812C371.023 152.904 371.282 151.9 371.412 150.863C371.898 146.39 369.435 142.307 365.578 140.492C367.782 137.445 369.24 133.848 369.662 129.862C370.991 117.644 362.142 106.657 349.923 105.328C344.218 104.713 338.773 106.301 334.462 109.444C331.966 99.5271 323.539 91.749 312.779 90.5823C298.971 89.0915 286.557 99.0734 285.066 112.88C284.45 118.519 285.747 123.899 288.437 128.403C280.853 129.214 274.597 135.209 273.722 143.117C273.69 143.506 273.657 143.862 273.657 144.251C266.948 143.797 261.049 148.691 260.303 155.432C260.174 156.502 260.239 157.571 260.368 158.576C258.813 156.469 256.446 155.011 253.627 154.719C248.311 154.136 243.514 157.992 242.931 163.308C242.898 163.664 242.866 164.021 242.866 164.377C242.639 164.507 242.412 164.669 242.185 164.798C240.856 163.664 239.171 162.919 237.291 162.724C232.299 162.173 227.794 165.803 227.276 170.794C227.114 172.317 227.34 173.776 227.859 175.104C227.794 175.104 227.729 175.072 227.665 175.072C224.261 174.715 221.215 177.146 220.858 180.549C220.761 181.359 220.858 182.169 221.052 182.915C220.339 182.656 219.594 182.461 218.816 182.364C213.76 181.716 209.287 185.313 208.736 190.336ZM352.483 189.299C352.451 189.234 352.418 189.202 352.386 189.137C352.451 189.137 352.483 189.17 352.548 189.17C352.516 189.234 352.516 189.267 352.483 189.299Z" fill="url(#paint4_linear)"/>
<path d="M240.497 181.943C239.72 181.943 238.974 182.04 238.261 182.234C238.293 182.04 238.293 181.845 238.293 181.619C238.293 177.956 235.312 174.975 231.649 174.975C229.996 174.975 228.505 175.59 227.338 176.595C227.468 176.077 227.533 175.558 227.533 174.975C227.533 171.086 224.356 167.91 220.467 167.91C218.425 167.91 216.577 168.785 215.281 170.178C215.475 169.465 215.573 168.687 215.573 167.91C215.573 162.983 211.651 158.965 206.789 158.77C206.821 158.511 206.821 158.219 206.821 157.96C206.821 151.284 201.409 145.872 194.732 145.872C190.939 145.872 187.536 147.622 185.332 150.376C181.216 146.001 175.414 143.279 168.932 143.279C158.463 143.279 149.679 150.409 147.151 160.099C146.308 159.937 145.433 159.84 144.558 159.84C137.524 159.84 131.82 165.544 131.82 172.576C131.82 173.97 132.047 175.299 132.468 176.563C128.87 176.66 125.629 178.118 123.198 180.387C121.416 178.475 118.888 177.276 116.068 177.276C110.687 177.276 106.344 181.651 106.344 186.998C106.344 192.378 110.72 196.721 116.068 196.721C117.364 196.721 118.563 196.462 119.698 196.008C121.805 201.258 126.926 204.985 132.922 204.985C135.774 204.985 138.4 204.143 140.636 202.717C142.937 209.879 149.647 215.032 157.555 215.032C166.306 215.032 173.567 208.712 175.058 200.416C179.174 205.893 185.721 209.458 193.079 209.458C199.367 209.458 205.071 206.865 209.155 202.717C211.132 204.823 213.92 206.152 217.031 206.152C221.828 206.152 225.912 203.008 227.273 198.633C228.44 199.67 229.964 200.286 231.649 200.286C233.399 200.286 235.02 199.605 236.219 198.471C237.483 199.184 238.942 199.573 240.497 199.573C245.392 199.573 249.346 195.619 249.346 190.725C249.346 185.896 245.392 181.943 240.497 181.943Z" fill="url(#paint5_linear)"/>
<path d="M446.119 173.516C445.341 173.516 444.596 173.614 443.883 173.808C443.915 173.614 443.915 173.419 443.915 173.192C443.915 169.53 440.933 166.548 437.271 166.548C435.618 166.548 434.127 167.164 432.96 168.169C433.089 167.65 433.154 167.132 433.154 166.548C433.154 162.659 429.978 159.483 426.088 159.483C424.046 159.483 422.199 160.358 420.902 161.752C421.097 161.039 421.194 160.261 421.194 159.483C421.194 154.557 417.272 150.539 412.411 150.344C412.443 150.085 412.443 149.793 412.443 149.534C412.443 142.858 407.03 137.445 400.353 137.445C396.561 137.445 393.158 139.195 390.954 141.95C386.837 137.575 381.036 134.853 374.553 134.853C364.084 134.853 355.301 141.983 352.772 151.673C351.93 151.511 351.055 151.414 350.179 151.414C343.146 151.414 337.442 157.118 337.442 164.15C337.442 165.544 337.668 166.873 338.09 168.136C334.492 168.234 331.251 169.692 328.82 171.961C327.037 170.049 324.509 168.849 321.689 168.849C316.309 168.849 311.966 173.225 311.966 178.572C311.966 183.952 316.341 188.295 321.689 188.295C322.986 188.295 324.185 188.035 325.319 187.582C327.426 192.832 332.547 196.559 338.544 196.559C341.396 196.559 344.021 195.716 346.258 194.29C348.559 201.453 355.268 206.606 363.177 206.606C371.928 206.606 379.188 200.286 380.679 191.989C384.796 197.466 391.343 201.031 398.7 201.031C404.988 201.031 410.693 198.439 414.777 194.29C416.754 196.397 419.541 197.726 422.653 197.726C427.45 197.726 431.534 194.582 432.895 190.207C434.062 191.244 435.585 191.86 437.271 191.86C439.021 191.86 440.641 191.179 441.841 190.045C443.105 190.758 444.563 191.147 446.119 191.147C451.013 191.147 454.968 187.193 454.968 182.299C455 177.47 451.013 173.516 446.119 173.516Z" fill="url(#paint6_linear)"/>
<path opacity="0.74" d="M218.295 30.9503C217.679 30.9503 217.063 31.0476 216.512 31.1772C216.512 31.0151 216.545 30.8531 216.545 30.6911C216.545 27.7419 214.179 25.376 211.229 25.376C209.9 25.376 208.701 25.8622 207.761 26.6724C207.858 26.2511 207.923 25.8298 207.923 25.376C207.923 22.2648 205.395 19.7045 202.251 19.7045C200.598 19.7045 199.139 20.4175 198.102 21.5194C198.264 20.936 198.329 20.3203 198.329 19.7045C198.329 15.7506 195.218 12.5422 191.296 12.3801C191.296 12.1533 191.328 11.9588 191.328 11.732C191.328 6.38452 186.985 2.04175 181.637 2.04175C178.59 2.04175 175.9 3.43532 174.117 5.63912C170.811 2.17138 166.144 0 160.991 0C152.628 0 145.562 5.70394 143.553 13.4496C142.872 13.32 142.192 13.2228 141.478 13.2228C135.839 13.2552 131.269 17.8248 131.269 23.4639C131.269 24.5658 131.463 25.6677 131.787 26.6724C128.903 26.7696 126.31 27.9039 124.365 29.7512C122.939 28.1956 120.897 27.2233 118.628 27.2233C114.35 27.2233 110.849 30.7235 110.849 35.0014C110.849 39.2794 114.35 42.8119 118.66 42.8119C119.698 42.8119 120.67 42.6175 121.578 42.261C123.263 46.4741 127.379 49.4557 132.176 49.4557C134.445 49.4557 136.584 48.7751 138.335 47.6408C140.182 53.3772 145.53 57.5255 151.883 57.5255C158.884 57.5255 164.685 52.4697 165.885 45.8259C169.158 50.2335 174.409 53.0531 180.341 53.0531C185.397 53.0531 189.934 50.9789 193.208 47.6408C194.796 49.3261 197.033 50.3956 199.528 50.3956C203.385 50.3956 206.627 47.8677 207.729 44.3675C208.669 45.1778 209.9 45.6963 211.229 45.6963C212.655 45.6963 213.919 45.1454 214.892 44.2379C215.896 44.7889 217.096 45.1454 218.327 45.1454C222.249 45.1454 225.426 41.9693 225.426 38.0478C225.361 34.1264 222.184 30.9503 218.295 30.9503Z" fill="url(#paint7_linear)"/>
<path opacity="0.74" d="M299.94 58.4329C299.681 58.4329 299.421 58.4653 299.194 58.5302C299.194 58.4653 299.194 58.4005 299.194 58.3357C299.194 57.1042 298.19 56.0995 296.958 56.0995C296.407 56.0995 295.888 56.294 295.5 56.6505C295.532 56.4884 295.564 56.294 295.564 56.0995C295.564 54.7708 294.495 53.7337 293.198 53.7337C292.518 53.7337 291.902 54.0253 291.448 54.5115C291.513 54.2522 291.545 54.0254 291.545 53.7337C291.545 52.0808 290.216 50.7197 288.596 50.6548C288.596 50.5576 288.596 50.4604 288.596 50.3632C288.596 48.127 286.781 46.2797 284.512 46.2797C283.248 46.2797 282.081 46.863 281.335 47.8029C279.942 46.3445 277.997 45.4046 275.825 45.4046C272.293 45.4046 269.343 47.8029 268.5 51.0762C268.209 51.0113 267.917 50.9789 267.625 50.9789C265.259 50.9789 263.347 52.891 263.347 55.2569C263.347 55.7106 263.412 56.1643 263.574 56.5856C262.374 56.618 261.272 57.1042 260.462 57.882C259.879 57.2338 259.004 56.8449 258.064 56.8449C256.249 56.8449 254.79 58.3033 254.79 60.1182C254.79 61.9331 256.249 63.3915 258.064 63.3915C258.485 63.3915 258.906 63.2942 259.295 63.1646C260.008 64.9471 261.726 66.1786 263.736 66.1786C264.708 66.1786 265.583 65.8869 266.329 65.4008C267.107 67.7991 269.343 69.5491 272.033 69.5491C274.983 69.5491 277.414 67.4101 277.932 64.623C279.326 66.4703 281.53 67.6694 283.993 67.6694C286.1 67.6694 288.012 66.7944 289.406 65.4008C290.054 66.1138 291.027 66.5675 292.064 66.5675C293.684 66.5675 295.046 65.498 295.5 64.0396C295.888 64.3961 296.407 64.5906 296.958 64.5906C297.541 64.5906 298.092 64.3637 298.481 63.9748C298.903 64.2017 299.389 64.3637 299.94 64.3637C301.593 64.3637 302.922 63.035 302.922 61.3821C302.922 59.7617 301.561 58.4329 299.94 58.4329Z" fill="url(#paint8_linear)"/>
<path opacity="0.74" d="M245.167 161.169C244.907 161.169 244.648 161.201 244.421 161.266C244.421 161.201 244.421 161.136 244.421 161.071C244.421 159.84 243.416 158.835 242.185 158.835C241.634 158.835 241.115 159.03 240.726 159.386C240.759 159.224 240.791 159.03 240.791 158.835C240.791 157.506 239.721 156.469 238.425 156.469C237.744 156.469 237.128 156.761 236.675 157.247C236.739 156.988 236.772 156.761 236.772 156.469C236.772 154.816 235.443 153.455 233.822 153.39C233.822 153.293 233.822 153.196 233.822 153.099C233.822 150.863 232.007 149.015 229.738 149.015C228.474 149.015 227.308 149.599 226.562 150.539C225.168 149.08 223.224 148.14 221.052 148.14C217.519 148.14 214.57 150.539 213.727 153.812C213.435 153.747 213.143 153.715 212.852 153.715C210.486 153.715 208.573 155.627 208.573 157.993C208.573 158.446 208.638 158.9 208.8 159.321C207.601 159.354 206.499 159.84 205.689 160.618C205.105 159.969 204.23 159.581 203.29 159.581C201.475 159.581 200.017 161.039 200.017 162.854C200.017 164.669 201.475 166.127 203.29 166.127C203.712 166.127 204.133 166.03 204.522 165.9C205.235 167.683 206.953 168.914 208.962 168.914C209.935 168.914 210.81 168.623 211.555 168.136C212.333 170.535 214.57 172.285 217.26 172.285C220.209 172.285 222.64 170.146 223.159 167.359C224.552 169.206 226.757 170.405 229.22 170.405C231.327 170.405 233.239 169.53 234.633 168.136C235.281 168.849 236.253 169.303 237.29 169.303C238.911 169.303 240.272 168.234 240.726 166.775C241.115 167.132 241.634 167.326 242.185 167.326C242.768 167.326 243.319 167.099 243.708 166.71C244.129 166.937 244.616 167.099 245.167 167.099C246.82 167.099 248.148 165.771 248.148 164.118C248.148 162.497 246.787 161.169 245.167 161.169Z" fill="url(#paint9_linear)"/>
<path opacity="0.91" d="M404.471 119.556C404.212 119.556 403.953 119.588 403.726 119.653C403.726 119.588 403.726 119.523 403.726 119.459C403.726 118.227 402.721 117.222 401.489 117.222C400.938 117.222 400.42 117.417 400.031 117.773C400.063 117.611 400.096 117.417 400.096 117.222C400.096 115.894 399.026 114.857 397.73 114.857C397.049 114.857 396.433 115.148 395.979 115.634C396.044 115.375 396.077 115.148 396.077 114.857C396.077 113.204 394.748 111.843 393.127 111.778C393.127 111.68 393.127 111.583 393.127 111.486C393.127 109.25 391.312 107.403 389.043 107.403C387.779 107.403 386.612 107.986 385.867 108.926C384.473 107.467 382.528 106.527 380.357 106.527C376.824 106.527 373.874 108.926 373.032 112.199C372.74 112.134 372.448 112.102 372.156 112.102C369.79 112.102 367.878 114.014 367.878 116.38C367.878 116.833 367.943 117.287 368.105 117.709C366.906 117.741 365.804 118.227 364.993 119.005C364.41 118.357 363.535 117.968 362.595 117.968C360.78 117.968 359.321 119.426 359.321 121.241C359.321 123.056 360.78 124.514 362.595 124.514C363.016 124.514 363.438 124.417 363.827 124.287C364.54 126.07 366.257 127.301 368.267 127.301C369.239 127.301 370.114 127.01 370.86 126.524C371.638 128.922 373.874 130.672 376.565 130.672C379.514 130.672 381.945 128.533 382.463 125.746C383.857 127.593 386.061 128.792 388.525 128.792C390.631 128.792 392.544 127.917 393.937 126.524C394.586 127.237 395.558 127.69 396.595 127.69C398.216 127.69 399.577 126.621 400.031 125.163C400.42 125.519 400.938 125.713 401.489 125.713C402.073 125.713 402.624 125.487 403.013 125.098C403.434 125.325 403.92 125.487 404.471 125.487C406.124 125.487 407.453 124.158 407.453 122.505C407.453 120.852 406.092 119.556 404.471 119.556Z" fill="url(#paint10_linear)"/>
<path opacity="0.74" d="M314.592 146.876C313.522 146.876 312.517 147.038 311.513 147.298C311.545 147.038 311.545 146.747 311.545 146.487C311.545 141.496 307.493 137.413 302.47 137.413C300.201 137.413 298.159 138.256 296.571 139.617C296.733 138.904 296.83 138.191 296.83 137.413C296.83 132.066 292.519 127.755 287.171 127.755C284.384 127.755 281.856 128.954 280.073 130.866C280.332 129.862 280.462 128.825 280.462 127.755C280.462 121.014 275.114 115.537 268.437 115.245C268.469 114.889 268.469 114.5 268.469 114.111C268.469 105.004 261.079 97.5827 251.939 97.5827C246.753 97.5827 242.118 99.9809 239.104 103.708C233.497 97.7447 225.556 94.0177 216.707 94.0177C202.414 94.0177 190.389 103.773 186.953 116.995C185.819 116.769 184.619 116.639 183.42 116.639C173.794 116.639 166.015 124.417 166.015 134.042C166.015 135.955 166.339 137.769 166.89 139.487C161.996 139.649 157.555 141.594 154.217 144.737C151.786 142.112 148.318 140.459 144.461 140.459C137.103 140.459 131.172 146.423 131.172 153.747C131.172 161.104 137.136 167.035 144.461 167.035C146.211 167.035 147.897 166.678 149.42 166.062C152.272 173.257 159.306 178.345 167.506 178.345C171.395 178.345 174.993 177.211 178.04 175.234C181.184 185.021 190.324 192.086 201.15 192.086C213.077 192.086 223.028 183.466 225.037 172.123C230.645 179.609 239.59 184.47 249.67 184.47C258.26 184.47 266.038 180.938 271.613 175.234C274.304 178.118 278.128 179.933 282.407 179.933C288.986 179.933 294.529 175.623 296.409 169.66C297.997 171.053 300.103 171.928 302.372 171.928C304.771 171.928 306.975 170.988 308.595 169.433C310.346 170.405 312.323 170.956 314.462 170.956C321.139 170.956 326.552 165.544 326.552 158.868C326.681 152.289 321.269 146.876 314.592 146.876Z" fill="url(#paint11_linear)"/>
<path d="M147.799 181.943C147.021 181.943 146.276 182.04 145.563 182.234C145.595 182.04 145.595 181.845 145.595 181.619C145.595 177.956 142.613 174.975 138.951 174.975C137.298 174.975 135.807 175.59 134.64 176.595C134.769 176.077 134.834 175.558 134.834 174.975C134.834 171.086 131.658 167.91 127.768 167.91C125.726 167.91 123.879 168.785 122.583 170.178C122.777 169.465 122.874 168.687 122.874 167.91C122.874 162.983 118.952 158.965 114.091 158.77C114.123 158.511 114.123 158.219 114.123 157.96C114.123 151.284 108.71 145.872 102.033 145.872C98.2411 145.872 94.8378 147.622 92.6338 150.376C88.5175 146.001 82.7157 143.279 76.2333 143.279C65.7643 143.279 56.9806 150.409 54.4525 160.099C53.6097 159.937 52.7346 159.84 51.8595 159.84C44.8261 159.84 39.1216 165.544 39.1216 172.576C39.1216 173.97 39.3485 175.299 39.7698 176.563C36.1721 176.66 32.9309 178.118 30.5 180.387C28.7173 178.475 26.1892 177.276 23.3693 177.276C17.9889 177.276 13.6457 181.651 13.6457 186.998C13.6457 192.378 18.0213 196.721 23.3693 196.721C24.6658 196.721 25.8651 196.462 26.9995 196.008C29.1063 201.258 34.2274 204.985 40.2236 204.985C43.0758 204.985 45.7012 204.143 47.9376 202.717C50.2389 209.879 56.9482 215.032 64.8567 215.032C73.608 215.032 80.8683 208.712 82.3592 200.416C86.4755 205.893 93.0228 209.458 100.38 209.458C106.668 209.458 112.373 206.865 116.457 202.717C118.434 204.823 121.221 206.152 124.333 206.152C129.13 206.152 133.214 203.008 134.575 198.633C135.742 199.67 137.265 200.286 138.951 200.286C140.701 200.286 142.321 199.605 143.521 198.471C144.785 199.184 146.243 199.573 147.799 199.573C152.693 199.573 156.648 195.619 156.648 190.725C156.648 185.896 152.693 181.943 147.799 181.943Z" fill="url(#paint12_linear)"/>
<path d="M409.007 85.2349C408.359 85.2349 407.743 85.3322 407.16 85.4942C407.16 85.3322 407.192 85.1701 407.192 85.0081C407.192 82.0265 404.761 79.5958 401.779 79.5958C400.418 79.5958 399.186 80.0819 398.247 80.8922C398.344 80.4708 398.409 80.0171 398.409 79.5958C398.409 76.4198 395.816 73.8271 392.639 73.8271C390.954 73.8271 389.463 74.5401 388.393 75.6744C388.555 75.091 388.62 74.4428 388.62 73.8271C388.62 69.776 385.444 66.5027 381.425 66.3406C381.425 66.1138 381.457 65.8869 381.457 65.6601C381.457 60.2154 377.049 55.7754 371.571 55.7754C368.46 55.7754 365.705 57.2014 363.89 59.4376C360.551 55.8726 355.787 53.6364 350.504 53.6364C341.947 53.6364 334.751 59.47 332.709 67.3777C332.029 67.2481 331.316 67.1509 330.603 67.1509C324.866 67.1509 320.198 71.8177 320.198 77.5541C320.198 78.6884 320.393 79.7903 320.717 80.8273C317.8 80.9246 315.142 82.0913 313.133 83.971C311.674 82.4154 309.6 81.4107 307.298 81.4107C302.89 81.4107 299.325 84.9757 299.325 89.3832C299.325 93.7908 302.89 97.3558 307.298 97.3558C308.336 97.3558 309.34 97.1613 310.28 96.7724C311.998 101.083 316.179 104.129 321.106 104.129C323.44 104.129 325.579 103.449 327.394 102.282C329.274 108.115 334.751 112.361 341.234 112.361C348.364 112.361 354.296 107.208 355.528 100.402C358.866 104.875 364.246 107.791 370.275 107.791C375.428 107.791 380.063 105.685 383.402 102.282C385.022 104 387.291 105.101 389.852 105.101C393.774 105.101 397.112 102.509 398.247 98.9438C399.186 99.7864 400.451 100.305 401.812 100.305C403.27 100.305 404.567 99.7216 405.539 98.8142C406.576 99.3975 407.776 99.7216 409.04 99.7216C413.026 99.7216 416.268 96.4808 416.268 92.4945C416.235 88.4758 412.994 85.2349 409.007 85.2349Z" fill="url(#paint13_linear)"/>
<path d="M311.221 117.028C310.735 117.028 310.249 117.093 309.795 117.222C309.795 117.093 309.828 116.963 309.828 116.833C309.828 114.532 307.948 112.653 305.646 112.653C304.609 112.653 303.637 113.042 302.924 113.657C302.989 113.333 303.053 113.009 303.053 112.653C303.053 110.19 301.044 108.18 298.581 108.18C297.284 108.18 296.117 108.731 295.307 109.606C295.437 109.153 295.501 108.666 295.501 108.18C295.501 105.069 293.038 102.541 289.959 102.412C289.959 102.249 289.991 102.055 289.991 101.893C289.991 97.6798 286.556 94.2445 282.342 94.2445C279.944 94.2445 277.804 95.3464 276.411 97.0965C273.818 94.3418 270.155 92.6241 266.071 92.6241C259.459 92.6241 253.917 97.1289 252.329 103.254C251.81 103.157 251.259 103.092 250.708 103.092C246.268 103.092 242.67 106.689 242.67 111.129C242.67 112.004 242.8 112.847 243.059 113.657C240.79 113.722 238.748 114.63 237.192 116.088C236.058 114.889 234.47 114.111 232.687 114.111C229.284 114.111 226.529 116.866 226.529 120.269C226.529 123.672 229.284 126.426 232.687 126.426C233.497 126.426 234.275 126.264 234.988 125.973C236.317 129.311 239.558 131.644 243.351 131.644C245.133 131.644 246.819 131.126 248.212 130.218C249.671 134.723 253.884 137.996 258.908 137.996C264.418 137.996 269.021 134.01 269.961 128.76C272.554 132.228 276.702 134.464 281.337 134.464C285.324 134.464 288.922 132.843 291.482 130.186C292.714 131.515 294.497 132.357 296.474 132.357C299.521 132.357 302.081 130.348 302.956 127.625C303.702 128.274 304.674 128.663 305.711 128.663C306.813 128.663 307.85 128.209 308.596 127.528C309.406 127.982 310.314 128.241 311.318 128.241C314.398 128.241 316.893 125.746 316.893 122.667C316.893 119.588 314.3 117.028 311.221 117.028Z" fill="url(#paint14_linear)"/>
<defs>
<linearGradient id="paint0_linear" x1="97.7106" y1="155.602" x2="97.7106" y2="57.4959" gradientUnits="userSpaceOnUse">
<stop stop-color="#EDFAFF" stop-opacity="0.3"/>
<stop offset="0.0503937" stop-color="#EBFBFF" stop-opacity="0.3353"/>
<stop offset="0.4746" stop-color="#E1FEFF" stop-opacity="0.6322"/>
<stop offset="1" stop-color="#DEFFFF"/>
</linearGradient>
<linearGradient id="paint1_linear" x1="171.074" y1="149.701" x2="171.074" y2="108.758" gradientUnits="userSpaceOnUse">
<stop stop-color="#EDFAFF" stop-opacity="0.3"/>
<stop offset="0.0503937" stop-color="#EBFBFF" stop-opacity="0.3353"/>
<stop offset="0.4746" stop-color="#E1FEFF" stop-opacity="0.6322"/>
<stop offset="1" stop-color="#DEFFFF"/>
</linearGradient>
<linearGradient id="paint2_linear" x1="81.6797" y1="99.4243" x2="81.6797" y2="74.2937" gradientUnits="userSpaceOnUse">
<stop stop-color="#EDFAFF" stop-opacity="0.3"/>
<stop offset="0.0503937" stop-color="#EBFBFF" stop-opacity="0.3353"/>
<stop offset="0.4746" stop-color="#E1FEFF" stop-opacity="0.6322"/>
<stop offset="1" stop-color="#DEFFFF"/>
</linearGradient>
<linearGradient id="paint3_linear" x1="115.405" y1="179.195" x2="115.405" y2="95.9684" gradientUnits="userSpaceOnUse">
<stop stop-color="#EDFAFF" stop-opacity="0.3"/>
<stop offset="0.0503937" stop-color="#EBFBFF" stop-opacity="0.3353"/>
<stop offset="0.4746" stop-color="#E1FEFF" stop-opacity="0.6322"/>
<stop offset="1" stop-color="#DEFFFF"/>
</linearGradient>
<linearGradient id="paint4_linear" x1="307.612" y1="229.01" x2="307.615" y2="90.3517" gradientUnits="userSpaceOnUse">
<stop stop-color="#EDFAFF" stop-opacity="0.3"/>
<stop offset="0.0503937" stop-color="#EBFBFF" stop-opacity="0.3353"/>
<stop offset="0.4746" stop-color="#E1FEFF" stop-opacity="0.6322"/>
<stop offset="1" stop-color="#DEFFFF"/>
</linearGradient>
<linearGradient id="paint5_linear" x1="177.832" y1="215.102" x2="177.832" y2="143.287" gradientUnits="userSpaceOnUse">
<stop stop-color="#EDFAFF" stop-opacity="0.3"/>
<stop offset="0.0503937" stop-color="#EBFBFF" stop-opacity="0.3353"/>
<stop offset="0.4746" stop-color="#E1FEFF" stop-opacity="0.6322"/>
<stop offset="1" stop-color="#DEFFFF"/>
</linearGradient>
<linearGradient id="paint6_linear" x1="383.46" y1="206.676" x2="383.46" y2="134.861" gradientUnits="userSpaceOnUse">
<stop stop-color="#EDFAFF" stop-opacity="0.3"/>
<stop offset="0.0503937" stop-color="#EBFBFF" stop-opacity="0.3353"/>
<stop offset="0.4746" stop-color="#E1FEFF" stop-opacity="0.6322"/>
<stop offset="1" stop-color="#DEFFFF"/>
</linearGradient>
<linearGradient id="paint7_linear" x1="168.108" y1="57.4959" x2="168.108" y2="0" gradientUnits="userSpaceOnUse">
<stop stop-color="#EDFAFF" stop-opacity="0.3"/>
<stop offset="0.0503937" stop-color="#EBFBFF" stop-opacity="0.3353"/>
<stop offset="0.4746" stop-color="#E1FEFF" stop-opacity="0.6322"/>
<stop offset="1" stop-color="#DEFFFF"/>
</linearGradient>
<linearGradient id="paint8_linear" x1="278.839" y1="69.5789" x2="278.839" y2="45.413" gradientUnits="userSpaceOnUse">
<stop stop-color="#EDFAFF" stop-opacity="0.3"/>
<stop offset="0.0503937" stop-color="#EBFBFF" stop-opacity="0.3353"/>
<stop offset="0.4746" stop-color="#E1FEFF" stop-opacity="0.6322"/>
<stop offset="1" stop-color="#DEFFFF"/>
</linearGradient>
<linearGradient id="paint9_linear" x1="224.065" y1="172.315" x2="224.065" y2="148.149" gradientUnits="userSpaceOnUse">
<stop stop-color="#EDFAFF" stop-opacity="0.3"/>
<stop offset="0.0503937" stop-color="#EBFBFF" stop-opacity="0.3353"/>
<stop offset="0.4746" stop-color="#E1FEFF" stop-opacity="0.6322"/>
<stop offset="1" stop-color="#DEFFFF"/>
</linearGradient>
<linearGradient id="paint10_linear" x1="383.365" y1="130.715" x2="383.365" y2="106.549" gradientUnits="userSpaceOnUse">
<stop stop-color="#EDFAFF" stop-opacity="0.3"/>
<stop offset="0.0503937" stop-color="#EBFBFF" stop-opacity="0.3353"/>
<stop offset="0.4746" stop-color="#E1FEFF" stop-opacity="0.6322"/>
<stop offset="1" stop-color="#DEFFFF"/>
</linearGradient>
<linearGradient id="paint11_linear" x1="228.979" y1="192.178" x2="228.979" y2="94.072" gradientUnits="userSpaceOnUse">
<stop stop-color="#EDFAFF" stop-opacity="0.3"/>
<stop offset="0.0503937" stop-color="#EBFBFF" stop-opacity="0.3353"/>
<stop offset="0.4746" stop-color="#E1FEFF" stop-opacity="0.6322"/>
<stop offset="1" stop-color="#DEFFFF"/>
</linearGradient>
<linearGradient id="paint12_linear" x1="85.1335" y1="215.102" x2="85.1335" y2="143.287" gradientUnits="userSpaceOnUse">
<stop stop-color="#EDFAFF" stop-opacity="0.3"/>
<stop offset="0.0503937" stop-color="#EBFBFF" stop-opacity="0.3353"/>
<stop offset="0.4746" stop-color="#E1FEFF" stop-opacity="0.6322"/>
<stop offset="1" stop-color="#DEFFFF"/>
</linearGradient>
<linearGradient id="paint13_linear" x1="357.793" y1="112.318" x2="357.793" y2="53.6309" gradientUnits="userSpaceOnUse">
<stop stop-color="#EDFAFF" stop-opacity="0.3"/>
<stop offset="0.0503937" stop-color="#EBFBFF" stop-opacity="0.3353"/>
<stop offset="0.4746" stop-color="#E1FEFF" stop-opacity="0.6322"/>
<stop offset="1" stop-color="#DEFFFF"/>
</linearGradient>
<linearGradient id="paint14_linear" x1="271.618" y1="137.98" x2="271.618" y2="92.6176" gradientUnits="userSpaceOnUse">
<stop stop-color="#EDFAFF" stop-opacity="0.3"/>
<stop offset="0.0503937" stop-color="#EBFBFF" stop-opacity="0.3353"/>
<stop offset="0.4746" stop-color="#E1FEFF" stop-opacity="0.6322"/>
<stop offset="1" stop-color="#DEFFFF"/>
</linearGradient>
</defs>
</svg>
