<svg width="14" height="14" viewBox="0 0 14 14" fill="none" xmlns="http://www.w3.org/2000/svg">
<path d="M11.6654 7V12.8333H2.33203V7" stroke="white" stroke-width="1.4" stroke-linecap="round" stroke-linejoin="round"/>
<path d="M12.8346 4.08325H1.16797V6.99992H12.8346V4.08325Z" stroke="white" stroke-width="1.4" stroke-linecap="round" stroke-linejoin="round"/>
<path d="M7 12.8334V4.08337" stroke="white" stroke-width="1.4" stroke-linecap="round" stroke-linejoin="round"/>
<path d="M7.0013 4.08341H4.3763C3.98953 4.08341 3.6186 3.92977 3.3451 3.65628C3.07161 3.38279 2.91797 3.01186 2.91797 2.62508C2.91797 2.23831 3.07161 1.86737 3.3451 1.59388C3.6186 1.32039 3.98953 1.16675 4.3763 1.16675C6.41797 1.16675 7.0013 4.08341 7.0013 4.08341Z" stroke="white" stroke-width="1.4" stroke-linecap="round" stroke-linejoin="round"/>
<path d="M7 4.08329H9.625C10.0118 4.08329 10.3827 3.92965 10.6562 3.65616C10.9297 3.38267 11.0833 3.01173 11.0833 2.62496C11.0833 2.23819 10.9297 1.86725 10.6562 1.59376C10.3827 1.32027 10.0118 1.16663 9.625 1.16663C7.58333 1.16663 7 4.08329 7 4.08329Z" stroke="white" stroke-width="1.4" stroke-linecap="round" stroke-linejoin="round"/>
</svg>
