<svg width="111" height="31" viewBox="0 0 111 31" fill="none" xmlns="http://www.w3.org/2000/svg">
<rect x="0.5" y="0.5" width="110" height="30" rx="3.5" fill="white"/>
<g clip-path="url(#clip0)">
<path d="M47.4364 8.742C48.0727 7.97589 48.3881 6.99333 48.3164 6C47.3411 6.09413 46.4409 6.56436 45.8064 7.311C45.4905 7.66864 45.2483 8.08518 45.0939 8.53669C44.9394 8.9882 44.8757 9.46579 44.9064 9.942C45.3922 9.95152 45.8736 9.84809 46.3127 9.63985C46.7517 9.43161 47.1364 9.12425 47.4364 8.742ZM48.2564 10.123C46.8564 10.042 45.6764 10.923 45.0064 10.923C44.3364 10.923 43.3164 10.167 42.2164 10.187C41.4961 10.2073 40.7938 10.4163 40.1796 10.793C39.5654 11.1698 39.0609 11.7011 38.7164 12.334C37.2164 14.934 38.3164 18.807 39.7764 20.924C40.4864 21.93 41.3364 23.129 42.4664 23.09C43.5964 23.051 43.9464 22.39 45.2364 22.39C46.5264 22.39 46.9064 23.09 48.0264 23.065C49.1464 23.04 49.9264 22.057 50.6264 20.965C51.1313 20.2191 51.5254 19.404 51.7964 18.545C51.124 18.2473 50.5519 17.7616 50.1492 17.1463C49.7464 16.531 49.5302 15.8124 49.5264 15.077C49.5347 14.4245 49.7066 13.7845 50.0263 13.2157C50.346 12.6468 50.8033 12.1673 51.3564 11.821C51.005 11.3185 50.5425 10.9038 50.0049 10.609C49.4673 10.3142 48.869 10.1472 48.2564 10.121V10.123ZM57.1864 8.105V10.96H59.4664V12.845H57.1864V19.6C57.1864 20.608 57.6364 21.122 58.6364 21.122C58.9106 21.117 59.1844 21.097 59.4564 21.062V22.962C59.0101 23.0343 58.5584 23.0677 58.1064 23.062C55.7464 23.062 54.8364 22.145 54.8364 19.846V12.89H53.0464V11H54.7864V8.107L57.1864 8.105ZM67.4364 22.958H64.9364L60.7364 11H63.2264L66.1764 20.608H66.2364L69.1864 11H71.6264L67.4364 22.958Z" fill="#333333"/>
</g>
<rect x="0.5" y="0.5" width="110" height="30" rx="3.5" stroke="#E7E7E7"/>
<defs>
<clipPath id="clip0">
<rect width="34" height="17" fill="white" transform="translate(38 6)"/>
</clipPath>
</defs>
</svg>
