<svg width="111" height="31" viewBox="0 0 111 31" fill="none" xmlns="http://www.w3.org/2000/svg">
<rect x="0.5" y="0.5" width="110" height="30" rx="3.5" fill="white"/>
<path d="M42.0317 13.5439C40.8955 13.5439 39.9513 13.1536 39.1989 12.3729C38.4465 11.5846 38.0703 10.6162 38.0703 9.46765C38.0703 8.3341 38.4503 7.3732 39.2102 6.58497C39.9701 5.78923 40.9219 5.39136 42.0655 5.39136C42.7276 5.39136 43.2919 5.50021 43.7584 5.71791C44.2249 5.92811 44.6801 6.2434 45.124 6.66379L44.5371 7.29438C43.7772 6.57371 42.9496 6.21337 42.0542 6.21337C41.1815 6.21337 40.4516 6.52491 39.8648 7.14799C39.2854 7.77107 38.9958 8.54429 38.9958 9.46765C38.9958 10.3835 39.2892 11.1567 39.8761 11.7873C40.4629 12.4104 41.189 12.7219 42.0542 12.7219C42.5659 12.7219 43.0173 12.6281 43.4085 12.4404C43.7998 12.2527 44.1986 11.9675 44.6048 11.5846L45.1917 12.2039C44.7478 12.6469 44.2813 12.9809 43.7923 13.2061C43.3032 13.4313 42.7163 13.5439 42.0317 13.5439Z" fill="black"/>
<path d="M46.6056 13.4088V7.58715H47.4295L49.6077 10.65L51.7858 7.58715H52.621V13.4088H51.7407V8.97219L49.5851 11.9224L47.4521 8.97219V13.4088H46.6056Z" fill="black"/>
<path d="M59.4047 12.6544C58.8178 13.2474 58.0918 13.5439 57.2265 13.5439C56.3613 13.5439 55.639 13.2474 55.0596 12.6544C54.4878 12.0613 54.2019 11.3444 54.2019 10.5036C54.2019 9.67034 54.4916 8.95718 55.0709 8.36412C55.6578 7.76357 56.3838 7.46329 57.2491 7.46329C58.1143 7.46329 58.8366 7.75981 59.416 8.35286C59.9953 8.94592 60.285 9.66283 60.285 10.5036C60.285 11.3369 59.9916 12.0538 59.4047 12.6544ZM57.2491 12.767C57.8736 12.767 58.3852 12.5493 58.784 12.1139C59.1903 11.6785 59.3934 11.1417 59.3934 10.5036C59.3934 9.87303 59.1827 9.33628 58.7614 8.89337C58.3476 8.45045 57.836 8.229 57.2265 8.229C56.602 8.229 56.0904 8.45045 55.6916 8.89337C55.2929 9.32877 55.0935 9.86552 55.0935 10.5036C55.0935 11.1342 55.3004 11.671 55.7142 12.1139C56.128 12.5493 56.6397 12.767 57.2491 12.767Z" fill="black"/>
<path d="M63.2699 13.4088V8.35286H61.1821V7.58715H66.2381V8.35286H64.1502V13.4088H63.2699Z" fill="black"/>
<path d="M67.5021 15.2105V7.58715H68.3712V8.75824C68.958 7.89494 69.7029 7.46329 70.6058 7.46329C71.3506 7.46329 72.0015 7.74104 72.5582 8.29656C73.115 8.84457 73.3934 9.58026 73.3934 10.5036C73.3934 11.412 73.115 12.1439 72.5582 12.6994C72.0015 13.2549 71.3506 13.5327 70.6058 13.5327C69.6878 13.5327 68.943 13.1198 68.3712 12.294V15.2105H67.5021ZM70.4478 12.7557C71.0346 12.7557 71.5237 12.553 71.9149 12.1476C72.3062 11.7348 72.5018 11.183 72.5018 10.4924C72.5018 9.82423 72.3024 9.28373 71.9036 8.87085C71.5049 8.45046 71.0196 8.24026 70.4478 8.24026C69.8835 8.24026 69.3906 8.45421 68.9693 8.88211C68.548 9.31 68.3373 9.85051 68.3373 10.5036C68.3373 11.1567 68.548 11.6972 68.9693 12.1251C69.3906 12.5455 69.8835 12.7557 70.4478 12.7557Z" fill="black"/>
<path d="M77.5473 13.5439C76.7272 13.5439 76.035 13.2624 75.4707 12.6994C74.9139 12.1289 74.6355 11.3969 74.6355 10.5036C74.6355 9.65533 74.9026 8.93841 75.4368 8.35286C75.971 7.75981 76.6369 7.46329 77.4344 7.46329C78.2696 7.46329 78.9317 7.75606 79.4207 8.3416C79.9098 8.92715 80.1543 9.66283 80.1543 10.5487C80.1543 10.6613 80.1506 10.7626 80.143 10.8527H75.5158C75.576 11.4457 75.798 11.9187 76.1817 12.2715C76.5729 12.6168 77.0357 12.7895 77.5699 12.7895C78.2696 12.7895 78.8828 12.5155 79.4095 11.9675L79.9512 12.4517C79.2966 13.1799 78.4953 13.5439 77.5473 13.5439ZM75.5158 10.1545H79.274C79.2214 9.59152 79.0333 9.12608 78.7097 8.75824C78.3937 8.38289 77.9611 8.19522 77.4119 8.19522C76.9153 8.19522 76.4902 8.37914 76.1366 8.74698C75.7829 9.11482 75.576 9.58401 75.5158 10.1545Z" fill="black"/>
<path d="M83.0864 13.4088V8.35286H80.9985V7.58715H86.0546V8.35286H83.9667V13.4088H83.0864Z" fill="black"/>
<path d="M87.3186 13.4088V7.58715H88.1876V9.77168H89.745C90.4222 9.77168 90.9752 9.91807 91.4041 10.2108C91.8329 10.4961 92.0474 10.9315 92.0474 11.5171C92.0474 12.0951 91.848 12.5568 91.4492 12.9021C91.0504 13.2399 90.5162 13.4088 89.8466 13.4088H87.3186ZM88.1876 12.6431H89.7676C90.2115 12.6431 90.5539 12.5493 90.7946 12.3616C91.0429 12.1739 91.1671 11.8999 91.1671 11.5396C91.1671 11.2093 91.0392 10.9578 90.7833 10.7851C90.5351 10.605 90.1852 10.5149 89.7338 10.5149H88.1876V12.6431Z" fill="black"/>
<path d="M45.0915 24.4263C44.2939 25.2145 43.2932 25.6087 42.0894 25.6087C40.8856 25.6087 39.8849 25.2145 39.0874 24.4263C38.2973 23.6381 37.9023 22.6734 37.9023 21.5324C37.9023 20.3988 38.3011 19.4379 39.0986 18.6497C39.9037 17.8539 40.9082 17.4561 42.112 17.4561C43.3158 17.4561 44.3127 17.8502 45.1027 18.6384C45.9003 19.4266 46.299 20.3913 46.299 21.5324C46.299 22.6659 45.8965 23.6306 45.0915 24.4263ZM40.3965 23.289C40.848 23.7694 41.4198 24.0097 42.112 24.0097C42.8042 24.0097 43.3722 23.7732 43.8161 23.3003C44.2601 22.8198 44.482 22.2305 44.482 21.5324C44.482 20.8417 44.2563 20.2562 43.8049 19.7757C43.3534 19.2953 42.7816 19.0551 42.0894 19.0551C41.3972 19.0551 40.8292 19.2953 40.3852 19.7757C39.9413 20.2487 39.7194 20.8342 39.7194 21.5324C39.7194 22.223 39.9451 22.8085 40.3965 23.289Z" fill="#0082C5"/>
<path d="M53.2016 19.4379V25.4735H51.4861V23.1651H49.3757V25.4735H47.6602V19.4379H49.3757V21.7576H51.4861V19.4379H53.2016Z" fill="#0082C5"/>
<path d="M55.4582 19.4379H60.3225V25.4735H58.607V20.9018H57.0721C57.0721 21.6975 57.042 22.3694 56.9818 22.9174C56.9217 23.4654 56.8389 23.9121 56.7336 24.2574C56.6282 24.6027 56.4815 24.8692 56.2934 25.0569C56.1053 25.2446 55.9022 25.3722 55.684 25.4397C55.4658 25.5073 55.1949 25.5411 54.8714 25.5411C54.5629 25.5411 54.2732 25.5073 54.0024 25.4397L54.1152 24.0547C54.2507 24.0772 54.371 24.0885 54.4764 24.0885C54.6569 24.0885 54.7999 24.0472 54.9052 23.9646C55.0106 23.8745 55.1084 23.6794 55.1987 23.3791C55.2965 23.0713 55.3642 22.6021 55.4018 21.9715C55.4394 21.3334 55.4582 20.4889 55.4582 19.4379Z" fill="#0082C5"/>
<path d="M63.5712 25.5861C62.9768 25.5861 62.4802 25.421 62.0815 25.0907C61.6902 24.7604 61.4946 24.3024 61.4946 23.7169C61.4946 23.0788 61.7128 22.5984 62.1492 22.2756C62.5931 21.9528 63.1875 21.7913 63.9324 21.7913C64.4365 21.7913 64.9293 21.8739 65.4108 22.0391V21.9377C65.4108 21.2021 64.9782 20.8342 64.1129 20.8342C63.5938 20.8342 63.037 20.9431 62.4426 21.1608L62.0138 19.8545C62.7511 19.5317 63.5336 19.3703 64.3612 19.3703C65.2716 19.3703 65.9525 19.5956 66.404 20.046C66.8404 20.4814 67.0586 21.1232 67.0586 21.9715V25.4735H65.3995V24.8204C64.9406 25.3309 64.3311 25.5861 63.5712 25.5861ZM64.0904 24.4038C64.4891 24.4038 64.8127 24.3062 65.061 24.111C65.3092 23.9083 65.4334 23.6531 65.4334 23.3453V23.0413C65.1099 22.8911 64.7449 22.8161 64.3387 22.8161C63.9625 22.8161 63.669 22.8911 63.4584 23.0413C63.2552 23.1839 63.1536 23.3941 63.1536 23.6719C63.1536 23.8971 63.2402 24.0772 63.4132 24.2124C63.5863 24.34 63.812 24.4038 64.0904 24.4038Z" fill="#0082C5"/>
<path d="M74.1664 19.4379V25.4735H72.5073V21.9603L70.1486 25.4735H68.5347V19.4379H70.1937V22.9624L72.5525 19.4379H74.1664ZM72.6766 18.4132C72.3456 18.7135 71.9205 18.8636 71.4013 18.8636C70.8822 18.8636 70.4533 18.7135 70.1147 18.4132C69.7837 18.1129 69.5805 17.6925 69.5053 17.152L70.5097 16.9719C70.6677 17.4748 70.9649 17.7263 71.4013 17.7263C71.8377 17.7263 72.1349 17.4748 72.2929 16.9719L73.2974 17.152C73.2221 17.6925 73.0152 18.1129 72.6766 18.4132Z" fill="#0082C5"/>
<path d="M81.24 19.4379V25.4735H79.5245V23.1651H77.4141V25.4735H75.6986V19.4379H77.4141V21.7576H79.5245V19.4379H81.24Z" fill="#0082C5"/>
<g clip-path="url(#clip0)">
<path d="M18.9522 6.73914C13.719 6.73914 9.47656 10.9632 9.47656 16.1739C9.47656 21.3846 13.719 25.6087 18.9522 25.6087C24.1853 25.6087 28.4278 21.3846 28.4278 16.1739C28.4278 10.9632 24.1853 6.73914 18.9522 6.73914ZM22.2272 16.674L17.4894 19.6224C17.3935 19.682 17.2845 19.712 17.1755 19.712C17.0767 19.712 16.9778 19.6875 16.8883 19.638C16.7001 19.534 16.5833 19.3368 16.5833 19.1223V13.2255C16.5833 13.0111 16.7001 12.8138 16.8883 12.7099C17.0766 12.6054 17.3068 12.6117 17.4894 12.7254L22.2272 15.6738C22.4003 15.7818 22.5055 15.9707 22.5055 16.1739C22.5055 16.3772 22.4003 16.5661 22.2272 16.674Z" fill="#0082C5"/>
</g>
<rect x="0.5" y="0.5" width="110" height="30" rx="3.5" stroke="#E7E7E7"/>
<defs>
<clipPath id="clip0">
<rect width="18.9512" height="18.8696" fill="white" transform="translate(9.47656 6.73914)"/>
</clipPath>
</defs>
</svg>
