<svg width="111" height="31" viewBox="0 0 111 31" fill="none" xmlns="http://www.w3.org/2000/svg">
<rect x="0.5" y="0.5" width="110" height="30" rx="3.5" fill="white"/>
<path d="M25.3447 19.4931C24.0865 19.4931 23.0685 18.4414 23.0685 17.1338C23.0685 15.8509 24.0865 14.7836 25.3447 14.7836C26.1808 14.7836 27.017 15.173 27.3728 15.8846C27.3975 15.934 27.4301 16.0002 27.4301 16.0833V18.1686C27.4301 18.2102 27.4053 18.3011 27.3885 18.3258C27.0002 19.0374 26.2055 19.4931 25.3447 19.4931ZM29.475 21.2888V13.0125H27.4301V13.7072C26.8588 13.1528 26.081 12.8475 25.1214 12.8475C22.779 12.8475 21 14.751 21 17.1338C21 19.5267 22.779 21.455 25.1214 21.455C26.081 21.455 26.8588 21.1317 27.4301 20.5773V21.2888H29.475ZM38.3552 21.2888V16.8117C38.3552 14.6096 36.6425 12.8475 34.4573 12.8475C32.2641 12.8475 30.5592 14.6096 30.5592 16.8117V21.2888H32.6031V16.8117C32.6031 15.7275 33.3652 14.8992 34.4573 14.8992C35.5415 14.8992 36.3114 15.7275 36.3114 16.8117V21.2888H38.3552ZM43.553 19.4931C42.2948 19.4931 41.2768 18.4414 41.2768 17.1338C41.2768 15.8509 42.2948 14.7836 43.553 14.7836C44.3892 14.7836 45.1838 15.1977 45.5811 15.8846C45.6058 15.934 45.6383 16.0002 45.6383 16.0833V18.1776C45.6383 18.2192 45.6136 18.3011 45.5979 18.3258C45.2084 19.0374 44.4138 19.4931 43.553 19.4931ZM47.6833 21.2888V10.5298H45.6383V13.7072C45.0682 13.1528 44.2892 12.8217 43.3296 12.8217C40.9872 12.8217 39.2082 14.751 39.2082 17.1338C39.2082 19.5267 40.9872 21.455 43.3296 21.455C44.2892 21.455 45.0682 21.1317 45.6383 20.5773V21.2888H47.6833ZM50.8114 21.2888V16.8689C50.8114 15.5614 51.4982 14.8666 52.8058 14.8666V12.8475C50.1738 12.8475 48.7675 14.246 48.7675 16.8689V21.2888H50.8114ZM57.2752 19.3943C56.0338 19.3943 55.0248 18.3841 55.0248 17.1338C55.0248 15.8925 56.0338 14.8835 57.2752 14.8835C58.5333 14.8835 59.5356 15.8925 59.5356 17.1338C59.5356 18.3841 58.5333 19.3943 57.2752 19.3943ZM57.2752 21.455C59.6681 21.455 61.6041 19.5267 61.6041 17.1338C61.6041 14.751 59.6681 12.8475 57.2752 12.8475C54.8923 12.8475 52.9551 14.751 52.9551 17.1338C52.9551 19.5267 54.8923 21.455 57.2752 21.455ZM63.5571 12.3839C64.2114 12.3839 64.7412 11.8452 64.7412 11.192C64.7412 10.5298 64.2114 10 63.5571 10C62.9038 10 62.3741 10.5298 62.3741 11.192C62.3741 11.8452 62.9038 12.3839 63.5571 12.3839ZM64.575 13.0125H62.53V21.2888H64.575V13.0125ZM69.8479 19.4931C68.5898 19.4931 67.5718 18.4414 67.5718 17.1338C67.5718 15.8509 68.5898 14.7836 69.8479 14.7836C70.6841 14.7836 71.4777 15.1977 71.875 15.8846C71.9008 15.934 71.9334 16.0002 71.9334 16.0833V18.1855C71.9334 18.227 71.9086 18.3011 71.8918 18.3258C71.5034 19.0374 70.7088 19.4931 69.8479 19.4931ZM73.9772 21.2888V10.5298H71.9334V13.7072C71.3621 13.1528 70.5843 12.8475 69.6246 12.8475C67.2822 12.8475 65.5021 14.751 65.5021 17.1338C65.5021 19.5267 67.2822 21.4628 69.6246 21.4628C70.5843 21.4628 71.3621 21.1317 71.9334 20.5773V21.2888H73.9772Z" fill="#77C159"/>
<path d="M84.7532 21.2892L88.1136 13.0038H86.4256L83.6769 20.1881H84.2482L81.4927 13.0128H79.7542L83.1146 21.2892H84.7532ZM79.349 21.3879L79.3568 19.9154H79.175C77.9752 19.9154 77.13 19.1948 77.13 17.9782V14.3787H79.2907V13.0128H77.13V10.7692H75.6328V17.9782C75.6328 20.1219 77.0234 21.3879 79.175 21.3879H79.349Z" fill="#868686"/>
<rect x="0.5" y="0.5" width="110" height="30" rx="3.5" stroke="#E7E7E7"/>
</svg>
