<svg width="111" height="31" viewBox="0 0 111 31" fill="none" xmlns="http://www.w3.org/2000/svg">
<rect x="0.5" y="0.5" width="110" height="30" rx="3.5" fill="white"/>
<path d="M43.6128 9.84437C43.6128 10.3664 43.456 10.7828 43.1423 11.0873C42.791 11.454 42.3267 11.6404 41.7621 11.6404C41.2163 11.6404 40.7583 11.454 40.3756 11.0811C39.9929 10.7082 39.8047 10.2421 39.8047 9.69521C39.8047 9.1421 39.9929 8.68221 40.3756 8.30933C40.7583 7.93644 41.2163 7.75 41.7621 7.75C42.0319 7.75 42.2891 7.79972 42.5337 7.90537C42.7784 8.01102 42.9729 8.14774 43.1235 8.32176L42.791 8.65114C42.54 8.35904 42.2012 8.20989 41.7621 8.20989C41.3668 8.20989 41.0218 8.34661 40.7332 8.62628C40.4446 8.89973 40.3003 9.26018 40.3003 9.70143C40.3003 10.1427 40.4446 10.5031 40.7332 10.7766C41.0218 11.05 41.3668 11.193 41.7621 11.193C42.1824 11.193 42.5337 11.0562 42.8161 10.7766C42.998 10.5963 43.1047 10.3415 43.1297 10.0184H41.7621V9.57092H43.5877C43.6003 9.66414 43.6128 9.75736 43.6128 9.84437Z" fill="black" stroke="black" stroke-width="0.2" stroke-miterlimit="10"/>
<path d="M46.5044 8.29058H44.7917V9.47138H46.335V9.91884H44.7917V11.0996H46.5044V11.5595H44.3086V7.83069H46.5044V8.29058Z" fill="black" stroke="black" stroke-width="0.2" stroke-miterlimit="10"/>
<path d="M48.5449 11.5594H48.0618V8.29046H47.0078V7.83057H49.5926V8.29046H48.5386V11.5594H48.5449Z" fill="black" stroke="black" stroke-width="0.2" stroke-miterlimit="10"/>
<path d="M51.4688 11.5594V7.83057H51.9518V11.5594H51.4688Z" fill="black" stroke="black" stroke-width="0.2" stroke-miterlimit="10"/>
<path d="M54.0957 11.5595H53.6126V8.29058H52.5586V7.83069H55.1434V8.29058H54.0894V11.5595H54.0957Z" fill="black" stroke="black" stroke-width="0.2" stroke-miterlimit="10"/>
<path d="M60.043 11.0749C59.6728 11.454 59.2149 11.6404 58.6628 11.6404C58.1107 11.6404 57.6527 11.454 57.2826 11.0749C56.9124 10.6958 56.7305 10.2359 56.7305 9.69521C56.7305 9.15453 56.9124 8.68843 57.2826 8.31554C57.6527 7.93644 58.1107 7.75 58.6628 7.75C59.2086 7.75 59.6666 7.93644 60.043 8.31554C60.4131 8.69464 60.6013 9.15453 60.6013 9.69521C60.5951 10.2421 60.4131 10.702 60.043 11.0749ZM57.6402 10.7641C57.9162 11.0438 58.2613 11.1805 58.6628 11.1805C59.0643 11.1805 59.4093 11.0438 59.6854 10.7641C59.9614 10.4845 60.1057 10.1302 60.1057 9.69521C60.1057 9.26018 59.9677 8.90594 59.6854 8.62628C59.4093 8.34661 59.0643 8.20989 58.6628 8.20989C58.2613 8.20989 57.9162 8.34661 57.6402 8.62628C57.3641 8.90594 57.2198 9.26018 57.2198 9.69521C57.2198 10.1302 57.3641 10.4845 57.6402 10.7641Z" fill="black" stroke="black" stroke-width="0.2" stroke-miterlimit="10"/>
<path d="M61.2812 11.5594V7.83057H61.871L63.7029 10.7328H63.7217L63.7029 10.0119V7.83057H64.186V11.5594H63.6841L61.7706 8.5204H61.7518L61.7706 9.24131V11.5594H61.2812Z" fill="black" stroke="black" stroke-width="0.2" stroke-miterlimit="10"/>
<path d="M56.2968 17.2866C54.8097 17.2866 53.5948 18.3339 53.5948 19.7733C53.5948 21.2068 54.8097 22.26 56.2968 22.26C57.7838 22.26 58.9987 21.2068 58.9987 19.7733C58.9987 18.3339 57.7838 17.2866 56.2968 17.2866ZM56.2968 21.2828C55.4805 21.2828 54.7781 20.6626 54.7781 19.7733C54.7781 18.8781 55.4805 18.2637 56.2968 18.2637C57.113 18.2637 57.8154 18.8781 57.8154 19.7733C57.8154 20.6626 57.1067 21.2828 56.2968 21.2828ZM50.3993 17.2866C48.9122 17.2866 47.6973 18.3339 47.6973 19.7733C47.6973 21.2068 48.9122 22.26 50.3993 22.26C51.8863 22.26 53.1012 21.2068 53.1012 19.7733C53.1012 18.3339 51.8863 17.2866 50.3993 17.2866ZM50.3993 21.2828C49.583 21.2828 48.8806 20.6626 48.8806 19.7733C48.8806 18.8781 49.583 18.2637 50.3993 18.2637C51.2155 18.2637 51.9179 18.8781 51.9179 19.7733C51.9179 20.6626 51.2155 21.2828 50.3993 21.2828ZM43.3881 18.0531V19.1063H46.1217C46.0394 19.6972 45.8243 20.136 45.5015 20.4344C45.1029 20.8031 44.4828 21.2068 43.3944 21.2068C41.7112 21.2068 40.395 19.9547 40.395 18.3983C40.395 16.8419 41.7112 15.5898 43.3944 15.5898C44.2993 15.5898 44.9637 15.9175 45.4509 16.3446L46.2546 15.6015C45.5711 14.9989 44.6663 14.5366 43.3881 14.5366C41.0847 14.5366 39.1484 16.2685 39.1484 18.4041C39.1484 20.5339 41.0847 22.2717 43.3881 22.2717C44.6346 22.2717 45.5711 21.8972 46.3052 21.1892C47.0582 20.493 47.2923 19.51 47.2923 18.7201C47.2923 18.4744 47.2733 18.2462 47.229 18.0589H43.3881V18.0531ZM72.0593 18.8722C71.8378 18.3164 71.1544 17.2866 69.756 17.2866C68.3702 17.2866 67.2185 18.293 67.2185 19.7733C67.2185 21.1658 68.3575 22.26 69.8889 22.26C71.1228 22.26 71.8378 21.5637 72.1289 21.16L71.2114 20.5924C70.9076 21.0078 70.49 21.2828 69.8889 21.2828C69.2877 21.2828 68.8574 21.0254 68.5853 20.5281L72.1859 19.1531L72.0593 18.8722ZM68.3892 19.7031C68.3575 18.7435 69.1928 18.252 69.794 18.252C70.2622 18.252 70.6609 18.4685 70.7937 18.7786L68.3892 19.7031ZM65.4657 22.1137H66.649V14.7999H65.4657V22.1137ZM63.5294 17.8424H63.4851C63.2194 17.5499 62.7131 17.2866 62.0677 17.2866C60.7199 17.2866 59.486 18.3807 59.486 19.785C59.486 21.1775 60.7199 22.2658 62.0677 22.2658C62.7068 22.2658 63.2194 22.0025 63.4851 21.6983H63.5231V22.0552C63.5231 23.0089 62.9726 23.5179 62.0867 23.5179C61.3653 23.5179 60.9161 23.0382 60.7325 22.6344L59.7011 23.0323C59.9985 23.6935 60.7832 24.5009 62.0867 24.5009C63.4725 24.5009 64.6431 23.7461 64.6431 21.9089V17.4387H63.5231V17.8424H63.5294ZM62.169 21.2828C61.3527 21.2828 60.6693 20.6509 60.6693 19.785C60.6693 18.9073 61.3527 18.2696 62.169 18.2696C62.9726 18.2696 63.6054 18.9132 63.6054 19.785C63.6117 20.6509 62.9789 21.2828 62.169 21.2828ZM77.6024 14.7999H74.7739V22.1137H75.9572V19.3403H77.6088C78.9186 19.3403 80.2032 18.4627 80.2032 17.0701C80.2032 15.6776 78.906 14.7999 77.6024 14.7999ZM77.6278 18.3222H75.9509V15.8121H77.6278C78.5137 15.8121 79.0135 16.4909 79.0135 17.0643C79.0135 17.6377 78.5137 18.3222 77.6278 18.3222ZM84.93 17.2749C84.0758 17.2749 83.1899 17.626 82.8229 18.3924L83.8733 18.7962C84.0948 18.3924 84.5124 18.2579 84.949 18.2579C85.5565 18.2579 86.1829 18.5972 86.1893 19.1999V19.2759C85.9741 19.1648 85.5185 18.9951 84.9553 18.9951C83.8227 18.9951 82.6773 19.5685 82.6773 20.6392C82.6773 21.6164 83.6012 22.2483 84.639 22.2483C85.4299 22.2483 85.8729 21.9206 86.145 21.5344H86.1829V22.102H87.3219V19.2994C87.3283 18.0004 86.2779 17.2749 84.93 17.2749ZM84.7845 21.2828C84.3985 21.2828 83.8606 21.1015 83.8606 20.6626C83.8606 20.1009 84.5314 19.8845 85.1135 19.8845C85.6324 19.8845 85.8792 19.9898 86.1893 20.1302C86.1007 20.8031 85.4679 21.2828 84.7845 21.2828ZM91.4793 17.4329L90.1252 20.6041H90.0872L88.6824 17.4329H87.4105L89.5177 21.8679L88.3154 24.3312H89.5493L92.7955 17.4329H91.4793ZM80.8486 22.1137H82.0319V14.7999H80.8486V22.1137Z" fill="#464646"/>
<path d="M20.4097 8.16625C20.2277 8.3589 20.1211 8.65721 20.1211 9.03631V22.7833C20.1211 23.1686 20.2277 23.4669 20.4097 23.6534L20.4536 23.6969L28.2267 16.003V15.9098V15.8166L20.4536 8.12274L20.4097 8.16625Z" fill="url(#paint0_linear)"/>
<path d="M30.8215 18.5698L28.2305 16.0031V15.9098V15.8166L30.8215 13.2499L30.878 13.281L33.9458 15.0087C34.8241 15.4997 34.8241 16.3076 33.9458 16.8048L30.878 18.5325L30.8215 18.5698Z" fill="url(#paint1_linear)"/>
<path d="M30.8786 18.5325L28.2311 15.9099L20.4141 23.6534C20.7027 23.9579 21.1795 23.9952 21.719 23.6907L30.8786 18.5325Z" fill="url(#paint2_linear)"/>
<path d="M30.8771 13.2872L21.7112 8.129C21.1716 7.82447 20.6948 7.86176 20.4062 8.16629L28.2296 15.9098L30.8771 13.2872Z" fill="url(#paint3_linear)"/>
<path opacity="0.2" d="M30.8182 18.4765L21.7088 23.6037C21.2006 23.8895 20.7427 23.8709 20.4541 23.6099L20.4102 23.6534L20.4541 23.6969C20.7489 23.9579 21.2006 23.9765 21.7088 23.6907L30.8747 18.5324L30.8182 18.4765Z" fill="black"/>
<path opacity="0.12" d="M20.4097 23.5664C20.2277 23.3738 20.1211 23.0754 20.1211 22.6964V22.7896C20.1211 23.1749 20.2277 23.4732 20.4097 23.6596L20.4536 23.6161L20.4097 23.5664Z" fill="black"/>
<path opacity="0.12" d="M33.947 16.7178L30.8164 18.4765L30.8729 18.5325L33.9407 16.8048C34.3799 16.5562 34.5994 16.233 34.5994 15.9099C34.5681 16.2019 34.3485 16.494 33.947 16.7178Z" fill="black"/>
<path opacity="0.25" d="M21.7107 8.21672L33.9444 15.1027C34.3397 15.3264 34.5655 15.6123 34.6032 15.9106C34.6032 15.5874 34.3836 15.258 33.9444 15.0156L21.7107 8.12972C20.8324 7.63875 20.1172 8.04892 20.1172 9.04328V9.1365C20.1172 8.13593 20.8387 7.72576 21.7107 8.21672Z" fill="white"/>
<rect x="0.5" y="0.5" width="110" height="30" rx="3.5" stroke="#E7E7E7"/>
<defs>
<linearGradient id="paint0_linear" x1="27.5364" y1="8.89318" x2="17.1071" y2="19.4215" gradientUnits="userSpaceOnUse">
<stop stop-color="#00A0FF"/>
<stop offset="0.00657445" stop-color="#00A1FF"/>
<stop offset="0.2601" stop-color="#00BEFF"/>
<stop offset="0.5122" stop-color="#00D2FF"/>
<stop offset="0.7604" stop-color="#00DFFF"/>
<stop offset="1" stop-color="#00E3FF"/>
</linearGradient>
<linearGradient id="paint1_linear" x1="35.0904" y1="15.9107" x2="19.91" y2="15.9107" gradientUnits="userSpaceOnUse">
<stop stop-color="#FFE000"/>
<stop offset="0.4087" stop-color="#FFBD00"/>
<stop offset="0.7754" stop-color="#FFA500"/>
<stop offset="1" stop-color="#FF9C00"/>
</linearGradient>
<linearGradient id="paint2_linear" x1="29.44" y1="17.3368" x2="15.297" y2="31.6141" gradientUnits="userSpaceOnUse">
<stop stop-color="#FF3A44"/>
<stop offset="1" stop-color="#C31162"/>
</linearGradient>
<linearGradient id="paint3_linear" x1="18.4409" y1="3.58988" x2="24.7564" y2="9.96524" gradientUnits="userSpaceOnUse">
<stop stop-color="#32A071"/>
<stop offset="0.0685" stop-color="#2DA771"/>
<stop offset="0.4762" stop-color="#15CF74"/>
<stop offset="0.8009" stop-color="#06E775"/>
<stop offset="1" stop-color="#00F076"/>
</linearGradient>
</defs>
</svg>
