<svg width="111" height="31" viewBox="0 0 111 31" fill="none" xmlns="http://www.w3.org/2000/svg">
<rect x="0.5" y="0.5" width="110" height="30" rx="3.5" fill="white"/>
<path d="M57.0996 12.6667V18.2381L52.6621 15.0952L57.0996 12.6667Z" fill="#244A9A"/>
<path d="M48.2715 12.6667V18.2381L52.709 15.0952L48.2715 12.6667Z" fill="#95A948"/>
<path d="M52.7102 7L46.9844 10.2381L52.7102 10.1905V7Z" fill="#FFDE14"/>
<path d="M52.7109 7L58.389 10.2381L52.7109 10.1905V7Z" fill="#F0C3C0"/>
<path d="M52.7102 15.0952L46.9844 19.0952H52.7102V15.0952Z" fill="#D3D80E"/>
<path d="M52.7109 15.0952L58.389 19.0952H52.7109V15.0952Z" fill="#2DAFE6"/>
<path d="M46.9844 19.0952H52.7102V23L46.9844 19.0952Z" fill="#FBEF82"/>
<path d="M58.389 19.0952H52.7109V23L58.389 19.0952Z" fill="#AFDFF9"/>
<path d="M46.9844 10.1905H52.7102V13.3809L46.9844 10.1905Z" fill="#F18825"/>
<path d="M58.4367 10.1905H52.7109V13.3809L58.4367 10.1905Z" fill="#E94287"/>
<path d="M58.3883 19.1428V10.1905L52.7102 13.3809L46.9844 10.1905V19.1428L48.2727 20V12.6666L52.7102 15.0952L57.1 12.6666V20L58.3883 19.1428Z" fill="black"/>
<path d="M75.228 15.8572C75.7052 15.6667 76.1346 15.381 76.4686 14.9524C76.8503 14.4762 77.0412 13.8572 77.0412 13.1905C77.0412 12.7619 76.9457 12.3334 76.8026 12C76.6595 11.6191 76.4209 11.3334 76.1346 11.0477C75.8483 10.8096 75.4666 10.5715 75.0371 10.4286C74.6077 10.2857 74.1306 10.2381 73.6057 10.2381H69.9316V20H71.2199V11.5238H73.6057C74.3214 11.5238 74.8463 11.6667 75.1803 11.9524C75.5143 12.2381 75.7052 12.6667 75.7052 13.1905C75.7052 13.7619 75.5143 14.1429 75.1803 14.4286C74.7986 14.7143 74.2737 14.8572 73.6057 14.8572H72.0311V16.0953H73.9397L75.7529 20H77.1843L75.228 15.8572Z" fill="black"/>
<path d="M78.1406 10.2857V11.5714H81.099V20.0476H82.3873V11.5714H85.3456V10.2857H78.1406Z" fill="black"/>
<path d="M64.5915 10.2857H63.4941L59.7246 20.0476H61.1083L62.3012 17H65.8798L67.0727 20.0476H68.4087L64.5915 10.2857ZM62.7307 15.8572L64.0667 12.381L65.4027 15.8572H62.7307Z" fill="black"/>
<path d="M45.0261 16.2857C44.883 15.9524 44.6921 15.6667 44.4535 15.4286C44.215 15.1905 43.9287 15 43.5947 14.8095C43.2607 14.6667 42.8789 14.5238 42.4972 14.4762L40.7318 14.2381C40.5409 14.1905 40.35 14.1905 40.1592 14.0952C40.016 14.0476 39.8729 13.9524 39.7298 13.8571C39.6343 13.7619 39.5389 13.619 39.4435 13.4762C39.3957 13.3333 39.348 13.1429 39.348 12.9048C39.348 12.6667 39.3957 12.4286 39.4912 12.2857C39.5866 12.0952 39.7298 11.9524 39.8729 11.8095C40.0638 11.6667 40.3023 11.5238 40.5409 11.4286C40.8272 11.3333 41.1135 11.3333 41.3998 11.3333C41.7815 11.3333 42.1632 11.3809 42.4495 11.5238C42.7358 11.619 42.9744 11.8095 43.1652 12C43.3084 12.1429 43.4038 12.2857 43.4515 12.4762C43.4992 12.619 43.5947 12.8095 43.5947 13.0476L43.6424 13.2857H44.9307L44.883 12.9524C44.8353 12.5714 44.7875 12.2381 44.6444 11.9524C44.6444 11.7619 44.5013 11.4762 44.2627 11.2381C43.9764 10.9048 43.547 10.619 43.0698 10.4286C42.5927 10.2381 42.0678 10.1429 41.5429 10.1429C41.0658 10.1429 40.6363 10.2381 40.2069 10.3809C39.7775 10.5238 39.3957 10.7619 39.0617 11.0476C38.8232 11.2857 38.5846 11.5714 38.3937 11.8571C38.2029 12.1905 38.1074 12.5714 38.1074 13C38.1074 13.3809 38.1552 13.7619 38.2983 14.0476C38.4414 14.3333 38.6323 14.619 38.8709 14.8571C39.1095 15.0952 39.3957 15.2381 39.682 15.3809C39.9683 15.5238 40.3023 15.5714 40.6841 15.619L42.4018 15.8571C42.6404 15.9048 42.8789 15.9524 43.0698 16.0476C43.2607 16.1429 43.4038 16.2381 43.547 16.3809C43.6901 16.5238 43.7855 16.6667 43.8332 16.8095C43.881 16.9524 43.9287 17.1429 43.9287 17.3333C43.9287 17.5714 43.881 17.8095 43.7855 17.9524C43.6901 18.1428 43.5947 18.2857 43.4515 18.4286C43.213 18.619 42.9744 18.7619 42.6404 18.8571C42.3064 18.9524 41.9246 19 41.5429 19C41.2089 19 40.8272 18.9524 40.5409 18.8095C40.2069 18.7143 39.9683 18.5238 39.7298 18.3333C39.5866 18.1905 39.4435 18 39.348 17.7619C39.2526 17.5714 39.1572 17.3333 39.1572 17.0952L39.1095 16.8095H37.7734L37.8212 17.1428C37.8689 17.5238 37.9643 17.9048 38.1074 18.2381C38.2506 18.5714 38.4892 18.8571 38.7277 19.1428C39.0617 19.5238 39.4912 19.7619 39.9683 19.9524C40.4455 20.1428 40.9703 20.2381 41.5429 20.2381C42.1155 20.2381 42.6404 20.1428 43.1175 20C43.5947 19.8571 44.0241 19.5714 44.3581 19.2381C44.5967 19 44.7875 18.7143 44.9307 18.4286C45.0738 18.0952 45.1693 17.7143 45.1693 17.2857C45.2647 16.9048 45.1693 16.5714 45.0261 16.2857Z" fill="black"/>
<path d="M98.0386 20.0953H98.8974L102.667 10.2381H101.713L98.468 18.7143L95.1757 10.2381H87.9707V11.1429H91.0722V20.0953H92.0265V11.1429H94.5554L98.0386 20.0953Z" fill="black"/>
<path d="M57.1007 12.6666V20L58.389 19.1428V10.1905L52.7109 13.3809V15.0952L57.1007 12.6666Z" fill="black"/>
<path d="M8.81116 14.8572C8.19086 14.6667 8.04772 14.1429 8.04772 13.7143V13.5714C8.04772 12.7619 8.47715 12.3333 9.38374 12.3333H9.81317C10.5289 12.3333 10.9583 12.6191 10.9583 13.381C10.9583 13.5714 10.8629 13.7143 10.6243 13.7143C10.3858 13.7143 10.2903 13.5714 10.2903 13.381C10.2903 13.0952 10.0995 12.9524 9.81317 12.9524H9.38374C8.90659 12.9524 8.66801 13.1429 8.66801 13.5714V13.7143C8.66801 14 8.85887 14.1905 9.04973 14.2381L10.2903 14.7143C10.8152 14.9048 11.1015 15.2857 11.1015 15.9048V16.1429C11.1015 16.9524 10.672 17.4286 9.76546 17.4286H9.14516C8.42944 17.4286 8 17.1429 8 16.381C8 16.1905 8.09543 16.0476 8.33401 16.0476C8.57258 16.0476 8.66801 16.1905 8.66801 16.381C8.66801 16.6667 8.85887 16.8095 9.14516 16.8095H9.81317C10.2903 16.8095 10.5289 16.5714 10.5289 16.1429V15.9048C10.5289 15.6191 10.3858 15.4286 10.1949 15.3333L8.81116 14.8572Z" fill="black"/>
<path d="M13.4409 13.7143C14.1567 13.7143 14.5861 14.1428 14.5861 14.8095V17.0476C14.5861 17.2381 14.4907 17.3809 14.2521 17.3809H12.9638C12.2958 17.3809 11.9141 17.0952 11.9141 16.4285V15.9047C11.9141 15.2381 12.3435 14.9524 12.9638 14.9524H13.9658V14.8095C13.9658 14.4762 13.7749 14.3333 13.4887 14.3333H12.5344C12.3435 14.3333 12.2004 14.2381 12.2004 14.0476C12.2004 13.8571 12.3435 13.7619 12.5344 13.7619H13.4409V13.7143ZM13.9658 16.7619V15.5238H12.9638C12.6775 15.5238 12.5344 15.6666 12.5344 15.9047V16.4285C12.5344 16.619 12.6775 16.8095 12.9638 16.8095H13.9658V16.7619Z" fill="black"/>
<path d="M18.9745 15C18.9745 14.5714 18.7837 14.3333 18.3065 14.3333H17.9248V17.1428C17.9248 17.3333 17.8294 17.4762 17.5908 17.4762C17.3522 17.4762 17.2568 17.3333 17.2568 17.1428V14.3333H16.2071V17.1428C16.2071 17.3333 16.1116 17.4762 15.8731 17.4762C15.6345 17.4762 15.5391 17.3333 15.5391 17.1428V14.0476C15.5391 13.8571 15.6345 13.7143 15.8731 13.7143H18.3065C19.1654 13.7143 19.5948 14.1905 19.5948 15V17.1428C19.5948 17.3333 19.4994 17.4762 19.2608 17.4762C19.0223 17.4762 18.9268 17.3333 18.9268 17.1428V15H18.9745Z" fill="black"/>
<path d="M21.5517 17.4286C20.8837 17.4286 20.502 17.1905 20.502 16.5714C20.502 16.381 20.5974 16.2381 20.836 16.2381C21.0745 16.2381 21.1222 16.381 21.17 16.5714C21.17 16.7143 21.3131 16.8571 21.5994 16.8571H22.172C22.506 16.8571 22.6014 16.6667 22.6014 16.4762V16.2381C22.6014 16.0476 22.506 16 22.3628 15.9048L21.2654 15.619C20.836 15.4762 20.6451 15.1905 20.6451 14.7619V14.5714C20.6451 13.9048 21.0268 13.619 21.6948 13.619H22.0765C22.7446 13.619 23.1263 13.8571 23.1263 14.4762C23.1263 14.6667 23.0786 14.8095 22.7923 14.8095C22.5537 14.8095 22.506 14.6667 22.4583 14.4762C22.4583 14.3333 22.3151 14.1905 22.0765 14.1905H21.6948C21.3608 14.1905 21.2654 14.381 21.2654 14.5714V14.7619C21.2654 14.9048 21.3608 15 21.504 15.0952L22.6014 15.381C23.0308 15.5238 23.2694 15.7619 23.2694 16.2381V16.4762C23.2694 17.1429 22.8877 17.4286 22.2197 17.4286H21.5517Z" fill="black"/>
<path d="M24.6995 16.0952C24.6995 16.5238 24.8904 16.7619 25.3675 16.7619H26.2264V13.9524C26.2264 13.7619 26.3218 13.619 26.5604 13.619C26.799 13.619 26.8944 13.7619 26.8944 13.9524V17.0476C26.8944 17.2381 26.799 17.381 26.5604 17.381H25.4153C24.5087 17.381 24.127 16.9048 24.127 16.0952V13.9524C24.127 13.7619 24.2224 13.619 24.461 13.619C24.6995 13.619 24.795 13.7619 24.795 13.9524V16.0952H24.6995Z" fill="black"/>
<path d="M30.0445 15C30.0445 14.5714 29.8536 14.3333 29.3765 14.3333H28.5176V17.1428C28.5176 17.3333 28.4222 17.4762 28.1836 17.4762C27.945 17.4762 27.8496 17.3333 27.8496 17.1428V14.0476C27.8496 13.8571 27.945 13.7143 28.1836 13.7143H29.3288C30.1876 13.7143 30.6171 14.1905 30.6171 15V17.1428C30.6171 17.3333 30.5217 17.4762 30.2831 17.4762C30.0445 17.4762 29.9491 17.3333 29.9491 17.1428V15H30.0445Z" fill="black"/>
<path d="M34.3866 17.7619C34.3866 18.5238 33.9572 19.1428 33.0506 19.1428H32.2394C32.0963 19.1428 31.9054 19.0476 31.9054 18.8571C31.9054 18.6666 32.0486 18.5714 32.2394 18.5714H33.0506C33.5277 18.5714 33.7663 18.2381 33.7663 17.8095V17.4285H32.9074C32.0486 17.4285 31.6191 16.9524 31.6191 16.1428V15.0952C31.6191 14.2857 32.0486 13.7143 32.9552 13.7143H34.1003C34.3389 13.7143 34.4343 13.8571 34.4343 14.0476V17.7619H34.3866ZM32.9074 14.3333C32.4303 14.3333 32.2394 14.6666 32.2394 15.0952V16.0952C32.2394 16.5238 32.4303 16.7619 32.9074 16.7619H33.7663V14.3333H32.9074Z" fill="black"/>
<rect x="0.5" y="0.5" width="110" height="30" rx="3.5" stroke="#E7E7E7"/>
</svg>
