<svg width="18" height="18" viewBox="0 0 18 18" fill="none" xmlns="http://www.w3.org/2000/svg">
<path d="M16.7695 0.88501H1.23047C0.551988 0.88501 0 1.437 0 2.11548V11.9592C0 12.6377 0.551988 13.1897 1.23047 13.1897H6.4248V14.5993L2.14682 16.0895C1.87179 16.1853 1.72649 16.4859 1.82232 16.7609C1.91816 17.036 2.21878 17.1812 2.49381 17.0855L8.24836 15.081C8.73306 14.9121 9.26701 14.9121 9.75171 15.081L15.5063 17.0855C15.5637 17.1055 15.6222 17.1149 15.6798 17.1149C15.8979 17.1149 16.1019 16.9785 16.1777 16.7609C16.2736 16.4859 16.1283 16.1853 15.8533 16.0895L11.5752 14.5993V13.1897H16.7695C17.448 13.1897 18 12.6377 18 11.9592V2.11548C18 1.437 17.448 0.88501 16.7695 0.88501ZM10.5205 14.232L10.0986 14.085C9.39016 13.8382 8.60984 13.8382 7.90137 14.085L7.47949 14.232V13.1897H10.5205V14.232ZM16.9453 11.9592C16.9453 12.0561 16.8665 12.135 16.7695 12.135H1.23047C1.13354 12.135 1.05469 12.0561 1.05469 11.9592V2.11548C1.05469 2.01855 1.13354 1.9397 1.23047 1.9397H16.7695C16.8665 1.9397 16.9453 2.01855 16.9453 2.11548V11.9592Z" fill="#0082C5"/>
<path d="M2.86898 4.94929L4.10518 3.71309C4.31112 3.50715 4.31112 3.17327 4.10518 2.96733C3.89927 2.76138 3.56535 2.76138 3.35941 2.96733L2.12321 4.20352C1.91726 4.40947 1.91726 4.74335 2.12321 4.94929C2.22618 5.05227 2.36115 5.10377 2.49608 5.10377C2.63101 5.10377 2.76604 5.05227 2.86898 4.94929Z" fill="#0082C5"/>
<path d="M5.76202 3.37736L2.53337 6.606C2.32742 6.81195 2.32742 7.14583 2.53337 7.35177C2.63634 7.45475 2.7713 7.50625 2.90623 7.50625C3.04116 7.50625 3.17616 7.45478 3.2791 7.35177L6.50775 4.12313C6.7137 3.91718 6.7137 3.5833 6.50775 3.37736C6.30184 3.17141 5.96793 3.17141 5.76202 3.37736Z" fill="#0082C5"/>
</svg>
