<svg width="120" height="120" viewBox="0 0 120 120" fill="none" xmlns="http://www.w3.org/2000/svg">
<path fill-rule="evenodd" clip-rule="evenodd" d="M99.082 51.0483H37.1504L96.6364 33.8161C97.0987 33.6821 97.4887 33.3693 97.7213 32.9481C97.9538 32.5262 98.0091 32.0299 97.8751 31.5676L94.7622 20.8214C93.5185 16.5293 89.5221 13.5312 85.0435 13.5312C84.0997 13.5312 83.1595 13.6653 82.2476 13.929L26.3964 30.1083C23.8132 30.8563 21.6725 32.5738 20.3671 34.9428C19.0624 37.3119 18.756 40.0397 19.5041 42.6222L22.5454 53.1209V96.3702C22.5454 101.941 27.0772 106.473 32.647 106.473H54.4599C55.4626 106.473 56.2752 105.66 56.2752 104.657C56.2752 103.655 55.4626 102.842 54.4599 102.842H32.6477C29.0789 102.842 26.1759 99.939 26.1759 96.3702V71.6671H35.4756H35.4798H35.4834H49.6991H49.7034H49.7076H63.9234H63.9276H63.9319H78.1476H78.1519H78.1554H97.2667V96.3702C97.2667 99.939 94.3637 102.842 90.7949 102.842H68.982C67.9801 102.842 67.1667 103.655 67.1667 104.657C67.1667 105.66 67.9801 106.473 68.982 106.473H90.7949C96.3655 106.473 100.897 101.941 100.897 96.3702V52.8635C100.897 51.8609 100.085 51.0483 99.082 51.0483ZM67.0731 68.0366L74.7859 54.6788H84.8173L77.1053 68.0366H67.0731ZM52.8489 68.0366L60.5616 54.6788H70.593L62.881 68.0366H52.8489ZM38.6253 68.0366L46.3373 54.6788H56.3695L48.6568 68.0366H38.6253ZM45.3744 44.5367L32.4591 32.132L42.136 29.329C42.2041 29.4282 42.2835 29.5218 42.3743 29.6091L55.2896 42.0138L45.6127 44.8168C45.5446 44.7176 45.4645 44.6232 45.3744 44.5367ZM69.6989 21.6935L82.6142 34.0983L72.9373 36.9013C72.8692 36.802 72.7898 36.7077 72.699 36.6212L59.7837 24.2165L69.4606 21.4134C69.5287 21.5127 69.6081 21.6063 69.6989 21.6935ZM56.0362 25.6517L68.9515 38.0557L59.2746 40.8594C59.2065 40.7601 59.1271 40.6658 59.0364 40.5793L46.1211 28.1746L55.798 25.3716C55.8668 25.4701 55.9462 25.5644 56.0362 25.6517ZM83.258 17.4163C83.8409 17.2476 84.4415 17.1618 85.0435 17.1618C87.916 17.1618 90.4779 19.082 91.275 21.8318L93.883 30.8337L86.6 32.9432C86.5312 32.8439 86.4518 32.7503 86.361 32.6631L73.4464 20.2591L83.258 17.4163ZM23.5473 36.6943C24.384 35.1747 25.7547 34.0742 27.4069 33.5955L28.4733 33.2864C28.5421 33.3857 28.6215 33.48 28.7116 33.5665L41.6269 45.9712L25.5994 50.6143L22.9914 41.6125C22.5128 39.961 22.7106 38.2145 23.5473 36.6943ZM26.1759 54.6788H42.1452L34.4332 68.0366H26.1759V54.6788ZM81.2974 68.0366L89.0094 54.6788H97.2667V68.0366H81.2974Z" fill="#0082C5"/>
<path fill-rule="evenodd" clip-rule="evenodd" d="M74.2739 87.0694C74.2739 86.4206 73.9278 85.8214 73.3663 85.4974L57.4182 76.2899C56.8566 75.9659 56.1645 75.9659 55.6029 76.2899C55.0413 76.614 54.6953 77.2131 54.6953 77.862V96.2769C54.6953 96.925 55.0413 97.5242 55.6029 97.8483C55.8837 98.0106 56.1972 98.0922 56.5106 98.0922C56.824 98.0922 57.1374 98.0106 57.4182 97.8483L73.3663 88.6415C73.9278 88.3174 74.2739 87.7183 74.2739 87.0694ZM58.3258 93.1328V81.006L68.8281 87.0694L58.3258 93.1328Z" fill="#0082C5"/>
<path fill-rule="evenodd" clip-rule="evenodd" d="M61.7215 102.844C60.7217 102.844 59.9062 103.659 59.9062 104.659C59.9062 105.659 60.7217 106.474 61.7215 106.474C62.722 106.474 63.5368 105.659 63.5368 104.659C63.5368 103.659 62.722 102.844 61.7215 102.844Z" fill="#0082C5"/>
</svg>
