<svg width="120" height="120" viewBox="0 0 120 120" fill="none" xmlns="http://www.w3.org/2000/svg">
<path d="M112.006 66.7376H105.505C104.638 66.7376 103.936 67.4404 103.936 68.3072V73.2384H99.0044C98.1375 73.2384 97.4347 73.9411 97.4347 74.808V79.7392H85.9902C83.2783 79.7392 81.072 77.5329 81.072 74.821V68.275C83.0433 66.802 84.3218 64.4507 84.3218 61.8064C84.3218 60.4074 83.9635 59.0907 83.3346 57.9424L95.1123 51.1427C97.3587 49.8425 98.1312 46.9573 96.8343 44.7112L92.6869 37.5286L96.9588 35.0624C97.3194 34.8541 97.5823 34.5113 97.6903 34.1093C97.798 33.7073 97.7415 33.2789 97.5333 32.9183L91.0262 21.6477C88.8034 17.801 83.8656 16.4779 80.0193 18.6982L63.3519 28.3211C62.6012 28.7545 62.344 29.7145 62.7774 30.4652C63.2109 31.2162 64.1709 31.4732 64.9216 31.0397L81.589 21.417C83.9371 20.0615 86.9512 20.87 88.308 23.2177L94.0299 33.1284L40.0697 64.2816L27.1652 52.8382L58.9971 34.4594C59.7478 34.026 60.0051 33.066 59.5716 32.3153C59.138 31.5646 58.1778 31.3074 57.4275 31.7408L23.7097 51.2085C23.2727 51.4609 22.9837 51.9077 22.9328 52.4095C22.882 52.9116 23.0756 53.4074 23.4531 53.7421L32.0773 61.3899L30.5156 62.2913L23.6974 62.8466C22.4245 63.1774 22.0139 63.9606 22.4655 65.196L25.5399 70.5202C25.9735 71.2707 26.9335 71.5277 27.6842 71.0947C28.4349 70.6612 28.6921 69.701 28.2587 68.9503L26.4245 65.7742L30.1322 65.4722L35.651 75.0336L33.5808 78.1697L31.6782 74.8752C31.2448 74.1247 30.2848 73.8675 29.5339 74.3009C28.7832 74.7343 28.5262 75.6945 28.9596 76.4452L32.1324 81.9389C32.7194 82.9552 34.1626 82.9866 34.8016 82.0187L38.6011 76.2629L48.1803 70.7309L49.0764 72.2832C50.3951 74.5646 53.3333 75.2651 55.5084 74.006L69.364 66.008C69.9034 66.8887 70.6061 67.6588 71.4307 68.275V74.8337C71.4307 82.9525 78.3756 89.5705 86.4301 89.379C87.297 89.379 87.9998 88.6762 87.9998 87.8094C87.9998 86.9425 87.297 86.2397 86.4301 86.2397C80.1213 86.1973 74.57 81.4032 74.57 74.8337V69.6996C75.6911 69.9363 76.812 69.9363 77.9332 69.6996V74.821C77.9332 79.2639 81.5477 82.8784 85.9906 82.8784H97.4343V86.2395H93.2695C92.4027 86.2395 91.6999 86.9423 91.6999 87.8092C91.6999 88.676 92.4027 89.3788 93.2695 89.3788H97.4349V94.3106C97.4349 95.1774 98.1377 95.8802 99.0046 95.8802H103.936V100.811C103.936 101.678 104.638 102.381 105.505 102.381H112.006C112.873 102.381 113.576 101.678 113.576 100.811V68.3072C113.576 67.4404 112.873 66.7376 112.006 66.7376ZM38.0697 72.9443L33.1388 64.4018L34.5529 63.5853L38.833 67.3809C39.4219 67.8367 40.0305 67.8983 40.6592 67.5659L44.9297 65.1003L46.6104 68.0117L38.0697 72.9443ZM53.9371 71.2878C53.0641 71.6884 52.3501 71.4967 51.7944 70.7125L47.6485 63.5309L89.9685 39.098L94.1159 46.2809C94.5483 47.0295 94.2898 47.9916 93.5414 48.4248L81.2824 55.5024C75.6907 51.0308 67.2042 55.9268 68.2718 63.0131L53.9371 71.2878ZM71.3202 61.8062C71.3202 59.0872 73.5324 56.875 76.2516 56.875C78.9708 56.875 81.1827 59.0872 81.1827 61.8062C81.1827 64.5252 78.9706 66.7376 76.2516 66.7376C73.5326 66.7376 71.3202 64.5252 71.3202 61.8062ZM100.574 92.741V76.3776H103.936V92.741H100.574ZM110.437 99.2417H107.075V69.8768H110.437V99.2417Z" fill="#0082C5"/>
<path d="M31.0187 21.0338C31.8856 21.0338 32.5884 20.331 32.5884 19.4642C32.5884 18.5973 31.8856 17.8945 31.0187 17.8945C17.457 17.8945 6.42383 28.9277 6.42383 42.4894C6.42383 43.3563 7.1266 44.0591 7.99345 44.0591C8.8603 44.0591 9.56307 43.3563 9.56307 42.4894C9.56307 30.6587 19.188 21.0338 31.0187 21.0338Z" fill="#0082C5"/>
<path d="M30.7453 27.5377C31.6122 27.5377 32.3149 26.8349 32.3149 25.9681C32.3149 25.1012 31.6122 24.3984 30.7453 24.3984C20.9184 24.3984 12.9238 32.3932 12.9238 42.2201C12.9238 43.087 13.6266 43.7897 14.4934 43.7897C15.3603 43.7897 16.0631 43.087 16.0631 42.2201C16.0631 34.1242 22.6494 27.5377 30.7453 27.5377Z" fill="#0082C5"/>
<path d="M30.7552 34.0181C31.622 34.0181 32.3248 33.3154 32.3248 32.4485C32.3248 31.5817 31.622 30.8789 30.7552 30.8789C24.5077 30.8789 19.4248 35.9618 19.4248 42.2093C19.4248 43.0761 20.1276 43.7789 20.9944 43.7789C21.8613 43.7789 22.564 43.0761 22.564 42.2093C22.5643 37.6927 26.2386 34.0181 30.7552 34.0181Z" fill="#0082C5"/>
</svg>
