<svg width="120" height="120" viewBox="0 0 120 120" fill="none" xmlns="http://www.w3.org/2000/svg">
<path d="M102.281 22.2109H92.9888C91.9555 22.2109 91.1179 23.0485 91.1179 24.0818C91.1179 25.115 91.9555 25.9526 92.9888 25.9526H102.281C103.312 25.9526 104.151 26.7919 104.151 27.8234V75.7168C104.151 76.7484 103.312 77.5876 102.281 77.5876H17.7189C16.6874 77.5876 15.8481 76.7484 15.8481 75.7168V73.9195L27.9283 61.8393C28.6588 61.1088 28.6588 59.9241 27.9283 59.1934C27.1977 58.4628 26.0131 58.4628 25.2824 59.1934L15.8481 68.6276V27.8234C15.8481 26.7919 16.6874 25.9526 17.7189 25.9526H43.5097L23.6768 45.7857C22.9462 46.5163 22.9462 47.7009 23.6768 48.4316C24.0422 48.797 24.5209 48.9796 24.9997 48.9796C25.4784 48.9796 25.9574 48.797 26.3225 48.4316L48.3359 26.4181C48.4764 26.2776 48.5892 26.12 48.6756 25.9526H76.158C77.1913 25.9526 78.0288 25.115 78.0288 24.0818C78.0288 23.0485 77.1913 22.2109 76.158 22.2109H17.7189C14.6242 22.2109 12.1064 24.7287 12.1064 27.8234V75.7168C12.1064 78.8115 14.6242 81.3293 17.7189 81.3293H52.8906V86.5676H46.5298C43.4351 86.5676 40.9173 89.0854 40.9173 92.1801V95.9218C40.9173 96.9551 41.7549 97.7926 42.7881 97.7926H77.2115C78.2447 97.7926 79.0823 96.9551 79.0823 95.9218V92.1801C79.0823 89.0854 76.5645 86.5676 73.4698 86.5676H67.109V81.3293H102.281C105.375 81.3293 107.893 78.8115 107.893 75.7168V27.8234C107.893 24.7287 105.375 22.2109 102.281 22.2109ZM56.6323 81.3293H63.3673V86.5676H56.6323V81.3293ZM73.4698 90.3093C74.5014 90.3093 75.3406 91.1486 75.3406 92.1801V94.051H44.659V92.1801C44.659 91.1486 45.4982 90.3093 46.5298 90.3093H73.4698Z" fill="#0082C5"/>
<path d="M86.5783 22.7591C86.2303 22.4111 85.7476 22.2109 85.2556 22.2109C84.7636 22.2109 84.2809 22.4111 83.9329 22.7591C83.5849 23.1071 83.3848 23.5897 83.3848 24.0818C83.3848 24.5738 83.5849 25.0565 83.9329 25.4045C84.2809 25.7524 84.7636 25.9526 85.2556 25.9526C85.7476 25.9526 86.2303 25.7524 86.5783 25.4045C86.9263 25.0565 87.1264 24.5738 87.1264 24.0818C87.1264 23.5897 86.9263 23.1071 86.5783 22.7591Z" fill="#0082C5"/>
<path d="M76.9036 42.5739C75.9558 42.1618 74.8539 42.596 74.4418 43.5434L69.5847 54.7121L64.3269 43.4953C63.8884 42.5599 62.7747 42.1565 61.8389 42.5954C60.9035 43.0339 60.5005 44.1478 60.939 45.0834L67.9546 60.0501C68.263 60.7079 68.9235 61.1268 69.6485 61.1268C69.6573 61.1268 69.6663 61.1268 69.6751 61.1266C70.4103 61.1163 71.0711 60.6763 71.3644 60.002L77.8732 45.0354C78.2852 44.088 77.8512 42.9859 76.9036 42.5739Z" fill="#0082C5"/>
<path d="M53.5259 42.418H44.3796C43.3464 42.418 42.5088 43.2555 42.5088 44.2888C42.5088 45.3221 43.3464 46.1596 44.3796 46.1596H47.0819V59.2555C47.0819 60.2887 47.9194 61.1263 48.9527 61.1263C49.986 61.1263 50.8235 60.2887 50.8235 59.2555V46.1596H53.5259C54.5592 46.1596 55.3968 45.3221 55.3968 44.2888C55.3968 43.2555 54.5592 42.418 53.5259 42.418Z" fill="#0082C5"/>
<path d="M33.2599 53.8607C32.9119 53.5127 32.4293 53.3125 31.9372 53.3125C31.4452 53.3125 30.9625 53.5127 30.6146 53.8607C30.2666 54.2086 30.0664 54.6913 30.0664 55.1833C30.0664 55.6754 30.2666 56.158 30.6146 56.506C30.9625 56.854 31.4452 57.0542 31.9372 57.0542C32.4293 57.0542 32.9119 56.854 33.2599 56.506C33.6079 56.158 33.8081 55.6754 33.8081 55.1833C33.8081 54.6913 33.6079 54.2086 33.2599 53.8607Z" fill="#0082C5"/>
</svg>
