<svg width="120" height="120" viewBox="0 0 120 120" fill="none" xmlns="http://www.w3.org/2000/svg">
<path d="M43.9694 49.5234C42.972 49.5234 42.1631 50.3323 42.1631 51.3298V74.089C42.1631 75.0864 42.972 75.8953 43.9694 75.8953C44.9669 75.8953 45.7757 75.0864 45.7757 74.089V51.3298C45.7757 50.3323 44.9669 49.5234 43.9694 49.5234Z" fill="#0082C5"/>
<path d="M58.4196 49.5234C57.4222 49.5234 56.6133 50.3323 56.6133 51.3298V74.089C56.6133 75.0864 57.4222 75.8953 58.4196 75.8953C59.4171 75.8953 60.2259 75.0864 60.2259 74.089V51.3298C60.2259 50.3323 59.4171 49.5234 58.4196 49.5234Z" fill="#0082C5"/>
<path d="M72.8708 49.5234C71.8733 49.5234 71.0645 50.3323 71.0645 51.3298V74.089C71.0645 75.0864 71.8733 75.8953 72.8708 75.8953C73.8682 75.8953 74.6771 75.0864 74.6771 74.089V51.3298C74.6771 50.3323 73.8682 49.5234 72.8708 49.5234Z" fill="#0082C5"/>
<path d="M87.321 49.5234C86.3235 49.5234 85.5146 50.3323 85.5146 51.3298V74.089C85.5146 75.0864 86.3235 75.8953 87.321 75.8953C88.3184 75.8953 89.1273 75.0864 89.1273 74.089V51.3298C89.1273 50.3323 88.3184 49.5234 87.321 49.5234Z" fill="#0082C5"/>
<path d="M98.9873 82.3845L106.213 42.9824C106.309 42.4551 106.167 41.912 105.824 41.5003C105.48 41.0885 104.972 40.8502 104.436 40.8502H96.4881V25.3182C96.4881 24.3208 95.6792 23.5119 94.6817 23.5119H61.8068V15.5641C61.8068 14.5667 60.9979 13.7578 60.0005 13.7578H41.2148C40.2173 13.7578 39.4085 14.5667 39.4085 15.5641V40.8502H29.8222L27.0993 25.0122C26.9503 24.1454 26.1987 23.5119 25.3192 23.5119H15.5651C14.5677 23.5119 13.7588 24.3208 13.7588 25.3182V32.5435C13.7588 33.5409 14.5677 34.3498 15.5651 34.3498H25.0389L33.267 82.2129V84.5645C33.267 89.7985 37.2626 94.1167 42.3636 94.6297C41.6297 95.7973 41.2032 97.1769 41.2032 98.6549C41.2032 102.838 44.6065 106.241 48.7898 106.241C52.973 106.241 56.3763 102.838 56.3763 98.6549C56.3763 97.1986 55.963 95.8375 55.2488 94.681H77.0348C76.3205 95.8375 75.9073 97.1986 75.9073 98.6549C75.9073 102.838 79.3105 106.241 83.4938 106.241C87.677 106.241 91.0803 102.838 91.0803 98.6549C91.0803 97.1986 90.667 95.8375 89.9528 94.681H97.2106C98.208 94.681 99.0169 93.8721 99.0169 92.8746C99.0169 91.8772 98.208 91.0683 97.2106 91.0683H43.3835C39.7972 91.0681 36.8796 88.1506 36.8796 84.5643V83.8649H97.2106C98.0825 83.8649 98.8301 83.2421 98.9873 82.3845ZM17.3714 30.7372V27.1246H23.7968L24.4179 30.7372H17.3714ZM83.4941 94.6808C85.6854 94.6808 87.468 96.4634 87.468 98.6547C87.468 100.846 85.6854 102.629 83.4941 102.629C81.3029 102.629 79.5202 100.846 79.5202 98.6547C79.5202 96.4634 81.3029 94.6808 83.4941 94.6808ZM48.7899 94.6808C50.9812 94.6808 52.7638 96.4634 52.7638 98.6547C52.7638 100.846 50.9812 102.629 48.7899 102.629C46.5987 102.629 44.816 100.846 44.816 98.6547C44.816 96.4634 46.5987 94.6808 48.7899 94.6808ZM61.8297 34.3498H77.5246C78.5221 34.3498 79.3309 33.5409 79.3309 32.5435C79.3309 31.5461 78.5221 30.7372 77.5246 30.7372H61.8297V27.1246H92.8754V40.8502H61.8297V34.3498ZM43.0211 17.3704H58.1942V40.8502H43.0211V17.3704ZM95.7054 80.2523H36.5957L30.4432 44.4628H102.268L95.7054 80.2523Z" fill="#0082C5"/>
<path d="M88.0297 31.2675C87.6919 30.9316 87.2259 30.7383 86.7526 30.7383C86.2775 30.7383 85.8115 30.9314 85.4737 31.2675C85.1379 31.6035 84.9463 32.0695 84.9463 32.5446C84.9463 33.0197 85.1379 33.4857 85.4737 33.8215C85.8115 34.1576 86.2777 34.3509 86.7526 34.3509C87.2259 34.3509 87.6919 34.1576 88.0297 33.8215C88.3656 33.4857 88.5589 33.0197 88.5589 32.5446C88.5589 32.0695 88.3658 31.6035 88.0297 31.2675Z" fill="#0082C5"/>
</svg>
