<svg width="80" height="80" viewBox="0 0 80 80" fill="none" xmlns="http://www.w3.org/2000/svg">
<path d="M23.6898 36.4245H33.8157C34.3072 36.4245 34.7056 36.0261 34.7056 35.5345C34.7056 35.0429 34.3072 34.6445 33.8157 34.6445H23.6898C23.1983 34.6445 22.7998 35.0429 22.7998 35.5345C22.7998 36.0261 23.1983 36.4245 23.6898 36.4245Z" fill="#0082C5" stroke="#0082C5" stroke-width="0.5"/>
<path d="M23.6898 43.987H33.8157C34.3072 43.987 34.7056 43.5886 34.7056 43.097C34.7056 42.6054 34.3072 42.207 33.8157 42.207H23.6898C23.1983 42.207 22.7998 42.6054 22.7998 43.097C22.7998 43.5886 23.1983 43.987 23.6898 43.987Z" fill="#0082C5" stroke="#0082C5" stroke-width="0.5"/>
<path d="M23.6898 51.5534H33.8157C34.3072 51.5534 34.7056 51.155 34.7056 50.6634C34.7056 50.1718 34.3072 49.7734 33.8157 49.7734H23.6898C23.1983 49.7734 22.7998 50.1718 22.7998 50.6634C22.7998 51.155 23.1983 51.5534 23.6898 51.5534Z" fill="#0082C5" stroke="#0082C5" stroke-width="0.5"/>
<path d="M44.8329 27.082H23.6898C23.1983 27.082 22.7998 27.4804 22.7998 27.972C22.7998 28.4636 23.1983 28.862 23.6898 28.862H44.8329C45.3244 28.862 45.7229 28.4636 45.7229 27.972C45.7229 27.4804 45.3244 27.082 44.8329 27.082Z" fill="#0082C5" stroke="#0082C5" stroke-width="0.5"/>
<path d="M22.7998 58.222C22.7998 58.7136 23.1983 59.112 23.6898 59.112H44.8329C45.3244 59.112 45.7229 58.7136 45.7229 58.222C45.7229 57.7304 45.3244 57.332 44.8329 57.332H23.6898C23.1983 57.332 22.7998 57.7304 22.7998 58.222Z" fill="#0082C5" stroke="#0082C5" stroke-width="0.5"/>
<path d="M50.6719 37.9648C47.8427 37.9648 45.541 40.2666 45.541 43.0957C45.541 45.9249 47.8427 48.2266 50.6719 48.2266C53.5011 48.2266 55.8028 45.9249 55.8028 43.0957C55.8028 40.2666 53.5011 37.9648 50.6719 37.9648ZM50.6719 46.4466C48.8242 46.4466 47.321 44.9434 47.321 43.0957C47.321 41.248 48.8242 39.7448 50.6719 39.7448C52.5196 39.7448 54.0228 41.248 54.0228 43.0957C54.0228 44.9434 52.5196 46.4466 50.6719 46.4466Z" fill="#0082C5" stroke="#0082C5" stroke-width="0.5"/>
<path d="M63.4237 40.0579H61.679C61.4628 39.2732 61.1634 38.5162 60.7842 37.7953L61.9879 36.5917C62.3146 36.265 62.4945 35.8306 62.4945 35.3685C62.4945 34.9065 62.3146 34.4724 61.9879 34.1454L60.4472 32.6048V17.7279C60.4472 15.9286 58.9833 14.4647 57.1839 14.4647H50.3689C50.1668 13.5989 49.3903 12.9513 48.4637 12.9513H44.1198C44.1198 10.6853 42.4643 9.33203 40.6968 9.33203H35.0833C33.3278 9.33203 31.6602 10.6708 31.6602 12.9513H27.3163C26.3898 12.9513 25.6134 13.5989 25.4112 14.4647H18.5962C16.7968 14.4647 15.333 15.9286 15.333 17.7279V66.8243C15.333 68.6236 16.7968 70.0875 18.5962 70.0875H37.1574C37.6489 70.0875 38.0474 69.6892 38.0474 69.1976C38.0474 68.7059 37.6489 68.3076 37.1574 68.3076H18.5962C17.7783 68.3076 17.113 67.6422 17.113 66.8243V17.7279C17.113 16.91 17.7783 16.2446 18.5962 16.2446H25.3584V18.0246H20.3762C19.5582 18.0246 18.8929 18.6899 18.8929 19.5079V65.0444C18.8929 65.8623 19.5582 66.5276 20.3762 66.5276H55.4041C56.2221 66.5276 56.8874 65.8623 56.8874 65.0444V54.1226C57.3653 54.6005 57.7905 55.1605 58.6673 55.1308V66.8243C58.6673 67.6422 58.002 68.3076 57.1841 68.3076H41.3106C40.8191 68.3076 40.4206 68.7059 40.4206 69.1976C40.4206 69.6892 40.8191 70.0875 41.3106 70.0875H57.1839C58.9833 70.0875 60.4472 68.6236 60.4472 66.8243V54.0137C62.1488 52.3122 62.1226 52.3658 62.2743 52.0948C62.5144 51.6659 62.3615 51.1235 61.9326 50.8835C61.5058 50.6443 60.9669 50.7947 60.725 51.2187C59.517 52.4266 58.7393 53.2041 58.6126 53.3308L56.7578 51.4759C56.4612 51.1792 56.0067 51.1385 55.6666 51.3446C54.8083 51.8657 53.8475 52.2607 52.8346 52.4944C52.4299 52.5872 52.1434 52.9472 52.1434 53.362V56.0104H49.2005V53.362C49.2005 52.947 48.9137 52.5872 48.5093 52.4944C47.5095 52.2653 46.5566 51.8786 45.6773 51.3446C45.3268 51.1317 44.8762 51.186 44.5861 51.4759L42.7312 53.3308L40.6503 51.2499L42.4576 49.4426C42.7544 49.1458 42.8035 48.682 42.5754 48.3297C42.0015 47.4429 41.5807 46.4756 41.3244 45.4541C41.2252 45.0583 40.8693 44.7807 40.4612 44.7807H37.9707V41.8379H40.3653C40.7871 41.8379 41.1509 41.5419 41.2367 41.129C41.4591 40.0587 41.8599 39.0417 42.4281 38.1061C42.6409 37.7555 42.5867 37.3048 42.2967 37.0148L40.6504 35.3685L42.7312 33.2876L44.3301 34.8864C44.627 35.1833 45.0909 35.2321 45.4429 35.0041C46.3867 34.3933 47.4183 33.9569 48.5092 33.7069C48.9137 33.6142 49.2004 33.2544 49.2004 32.8393V32.8392C49.2004 32.099 49.2004 31.4774 49.2004 30.6077H52.1432V32.8392C52.1432 33.2542 52.4299 33.6139 52.8343 33.7067C52.8361 33.7071 52.8378 33.7077 52.8396 33.708C53.8726 33.9454 54.9349 34.3788 55.9007 35.0041C56.2529 35.2324 56.7169 35.1831 57.0135 34.8864L58.6124 33.2875C58.6124 33.2875 60.6801 35.3551 60.6934 35.3684L59.0469 37.0147C58.7569 37.3047 58.7027 37.7554 58.9156 38.1061C59.4837 39.0415 59.8846 40.0584 60.107 41.1289C60.1928 41.5417 60.5566 41.8378 60.9783 41.8378H63.3729V44.7806H60.8824C60.4743 44.7806 60.1185 45.0582 60.0193 45.454C59.7976 46.3375 59.4508 47.1847 58.9886 47.9722C58.7397 48.396 58.8817 48.9414 59.3055 49.1903C59.7295 49.4391 60.2748 49.2971 60.5236 48.8733C60.9532 48.1416 61.2986 47.3663 61.5545 46.5607H63.4234C64.3771 46.5607 65.153 45.7849 65.153 44.8312V41.7876C65.1532 40.8338 64.3774 40.0579 63.4237 40.0579ZM27.1383 14.9092C27.1383 14.8111 27.2182 14.7312 27.3163 14.7312H32.5502C33.0417 14.7312 33.4402 14.3328 33.4402 13.8412V12.7552C33.4402 11.8491 34.1773 11.112 35.0833 11.112H40.6968C41.6028 11.112 42.3399 11.8491 42.3399 12.7552V13.8412C42.3399 14.3328 42.7384 14.7312 43.2299 14.7312H48.4637C48.5619 14.7312 48.6417 14.8111 48.6417 14.9092V21.9702C48.6417 22.0684 48.5619 22.1482 48.4637 22.1482H27.3163C27.2182 22.1482 27.1383 22.0684 27.1383 21.9702C27.1383 20.6865 27.1383 16.4703 27.1383 14.9092ZM48.9736 28.8369C48.1025 28.9257 47.4206 29.6634 47.4206 30.5575V30.5577V32.1532C46.6117 32.393 45.8339 32.7216 45.0964 33.1354L43.9543 31.9932C43.2777 31.3167 42.1829 31.3188 41.5083 31.9932C41.3296 32.1719 39.7636 33.7379 39.356 34.1456C38.6783 34.8237 38.6829 35.9183 39.3561 36.5916L40.5597 37.7952C40.1806 38.5162 39.8812 39.2732 39.665 40.0578H37.9203C36.9666 40.0578 36.1907 40.8336 36.1907 41.7873V44.8309C36.1907 45.7846 36.9666 46.5604 37.9203 46.5604H39.789C40.0154 47.2736 40.3185 47.9837 40.7067 48.676L39.3561 50.0266L39.356 50.0267C39.3469 50.0358 39.339 50.0459 39.3301 50.0552C38.6745 50.7399 38.6941 51.8108 39.356 52.4728L41.5081 54.6248C42.1823 55.2991 43.2767 55.3023 43.9542 54.6249L45.3664 53.2128C46.0231 53.5581 46.7101 53.8373 47.4206 54.048C47.4206 56.2356 47.4171 56.1158 47.4295 56.2373C47.5182 57.1084 48.2561 57.7904 49.1501 57.7904H52.1937C53.0878 57.7904 53.8257 57.1084 53.9143 56.2373C53.9266 56.1163 53.9232 56.239 53.9232 54.048C54.2647 53.9467 54.7184 53.7871 55.1071 53.6229V64.7477H20.6728V19.8045H25.3584V21.9702C25.3584 22.9149 26.0308 23.7055 26.9222 23.8883C27.2185 23.9491 48.5381 23.9539 48.8579 23.8883C49.7493 23.7055 50.4218 22.9149 50.4218 21.9702V19.8045H55.1073V32.5771C54.7212 32.4141 54.3262 32.2726 53.9234 32.1532V30.5577V30.5575C53.9234 29.6037 53.1474 28.828 52.1938 28.828C48.8646 28.828 49.0946 28.8246 48.9736 28.8369ZM56.8873 32.4958V19.5079C56.8873 18.6899 56.2219 18.0246 55.404 18.0246H50.4218V16.2446H57.1839C58.0019 16.2446 58.6672 16.91 58.6672 17.7279V31.4876C57.8009 31.461 57.3946 31.9885 56.8873 32.4958Z" fill="#0082C5" stroke="#0082C5" stroke-width="0.5"/>
</svg>
