<svg width="80" height="80" viewBox="0 0 80 80" fill="none" xmlns="http://www.w3.org/2000/svg">
<path d="M63.3337 63.6577V12.1662C63.3337 11.7055 62.9602 11.332 62.4995 11.332H22.2305C21.7698 11.332 21.3964 11.7055 21.3964 12.1662V15.1151H17.5011C17.0405 15.1151 16.667 15.4885 16.667 15.9492V23.2331C16.667 24.3116 18.3352 24.3116 18.3352 23.2331V16.7833H21.3964V49.2881C21.3964 53.9077 24.6909 57.8413 29.23 58.6413L56.936 63.5242V66.6066H18.3352V27.965C18.3352 26.8865 16.667 26.8865 16.667 27.965V67.4408C16.667 67.9014 17.0405 68.2749 17.5011 68.2749H57.7702C58.2308 68.2749 58.6043 67.9014 58.6043 67.4408V63.8182L62.3548 64.4792C62.7204 64.5436 63.3337 64.3081 63.3337 63.6577ZM23.0646 49.2881V13.0003H61.6654V62.1727L45.0878 52.0712C44.1668 51.5101 43.2987 52.9347 44.2197 53.4959L58.2885 62.0687L33.453 57.6916C36.2847 56.0462 37.425 52.6067 37.6906 49.5172L40.4317 51.1876C41.3528 51.7486 42.2209 50.3241 41.2999 49.7629L37.3447 47.3528C36.6279 47.0958 36.2054 47.3427 36.0771 48.0933C36.2187 52.4749 33.142 57.598 29.5143 56.9973C25.7697 56.3773 23.0646 53.0947 23.0646 49.2881Z" fill="#0082C5" stroke="#0082C5"/>
<path d="M29.6337 21.4495H55.0951C56.1996 21.4112 56.1987 19.8192 55.0951 19.7812H29.6337C28.5293 19.8195 28.5301 21.4116 29.6337 21.4495Z" fill="#0082C5" stroke="#0082C5"/>
<path d="M29.6337 26.5901H55.0951C56.1996 26.5519 56.1987 24.9598 55.0951 24.9219H29.6337C28.5293 24.9602 28.5301 26.5523 29.6337 26.5901Z" fill="#0082C5" stroke="#0082C5"/>
<path d="M29.6337 31.7347H55.0951C56.1996 31.6964 56.1987 30.1043 55.0951 30.0664H29.6337C28.5293 30.1047 28.5301 31.6967 29.6337 31.7347Z" fill="#0082C5" stroke="#0082C5"/>
<path d="M29.6337 36.8753H55.0951C56.1996 36.837 56.1987 35.245 55.0951 35.207H29.6337C28.5293 35.2453 28.5301 36.8374 29.6337 36.8753Z" fill="#0082C5" stroke="#0082C5"/>
</svg>
