<svg width="120" height="120" viewBox="0 0 120 120" fill="none" xmlns="http://www.w3.org/2000/svg">
<path d="M109.96 47.4443L107.324 42.8789C106.779 41.9338 105.571 41.6099 104.625 42.1556C103.68 42.7012 103.356 43.9099 103.902 44.8552L106.537 49.4207C106.676 49.6614 106.645 49.8906 106.615 50.0058C106.584 50.1211 106.496 50.3353 106.255 50.4742L99.2851 54.4984C98.9163 54.7106 98.444 54.584 98.2313 54.216L84.2094 29.9299C83.9968 29.5616 84.1235 29.0888 84.4918 28.876L91.4617 24.852C91.8301 24.6398 92.3032 24.7659 92.5156 25.1342L95.0082 29.4515C95.554 30.3969 96.7627 30.7209 97.7078 30.1748C98.6531 29.6291 98.977 28.4204 98.4311 27.4752L95.9386 23.1579C94.6364 20.9024 91.7419 20.1263 89.4856 21.4289L82.5155 25.453C81.4566 26.0645 80.724 27.0268 80.3792 28.109H60.6201C57.8459 28.109 55.2378 29.1892 53.2759 31.1509L51.2514 33.1754C49.4763 32.7523 47.6577 32.5347 45.8288 32.5347H39.6936C39.387 31.3507 38.6256 30.2851 37.4852 29.6266L30.5152 25.6024C29.4223 24.9714 28.1488 24.804 26.9304 25.1305C25.7116 25.457 24.6928 26.2388 24.062 27.3315L10.0403 51.6177C9.40946 52.7104 9.24167 53.9835 9.56816 55.2025C9.89464 56.4215 10.6765 57.4401 11.7694 58.0709L18.7394 62.0951C19.4815 62.5236 20.2924 62.7271 21.0934 62.7271C21.3853 62.7271 21.6756 62.6989 21.961 62.6459L27.6658 68.3509C27.5784 68.7993 27.5332 69.2592 27.5332 69.7264C27.5332 71.6254 28.2727 73.411 29.6156 74.7537C30.9014 76.0393 32.5611 76.7276 34.2479 76.8207C34.222 77.0686 34.2079 77.3188 34.2079 77.5713C34.2079 79.4706 34.9475 81.256 36.2904 82.5987C37.6333 83.9416 39.4187 84.6811 41.3177 84.6811C41.3693 84.6811 41.4203 84.6785 41.4716 84.6773C41.4705 84.7287 41.4679 84.7797 41.4679 84.8313C41.4679 86.7305 42.2074 88.5159 43.5503 89.8586C44.8932 91.2015 46.6786 91.941 48.5776 91.941C48.6292 91.941 48.6802 91.9385 48.7316 91.9373C48.7304 91.9887 48.7278 92.0397 48.7278 92.0912C48.7278 93.9903 49.4674 95.7759 50.8103 97.1186C52.1532 98.4613 53.9386 99.201 55.8376 99.201C57.7366 99.201 59.5222 98.4615 60.8649 97.1186L63.6764 94.3073C64.5007 93.483 65.0778 92.5043 65.412 91.464C66.661 92.3857 68.1452 92.8468 69.63 92.8466C71.4504 92.8464 73.2716 92.1535 74.6574 90.7675C75.4866 89.9383 76.0848 88.94 76.422 87.8509C77.5661 88.5989 78.9025 89.0013 80.3013 89.0013C82.2003 89.0013 83.9859 88.2618 85.3286 86.9189C86.3264 85.9208 86.9905 84.6785 87.2662 83.3267C87.98 83.5631 88.7342 83.6878 89.5079 83.6878C91.4069 83.6878 93.1927 82.9483 94.5354 81.6052C97.3074 78.833 97.3074 74.3225 94.5354 71.5503L89.9227 66.9376L98.3424 58.518C98.5293 58.5403 98.7177 58.553 98.9068 58.553C99.7078 58.553 100.519 58.3494 101.261 57.9211L108.231 53.8972C109.324 53.2661 110.105 52.2476 110.432 51.0286C110.759 49.8096 110.591 48.537 109.96 47.4443ZM13.7455 54.648C13.5048 54.509 13.417 54.295 13.3862 54.1796C13.3554 54.0644 13.3243 53.8351 13.4635 53.5942L27.4851 29.3078C27.6241 29.0671 27.8383 28.9793 27.9535 28.9485C28.0027 28.9355 28.0727 28.9222 28.1553 28.9222C28.2666 28.9222 28.4008 28.9461 28.5387 29.0256L35.5087 33.0497C35.8769 33.2624 36.0038 33.7351 35.7912 34.1035L21.7695 58.3897C21.5566 58.7579 21.0843 58.8848 20.7157 58.6721L13.7455 54.648ZM31.4858 69.7262C31.4858 68.8827 31.8142 68.09 32.4107 67.4936L34.1162 65.788C34.7317 65.1724 35.5402 64.8647 36.3489 64.8647C37.1572 64.8647 37.9659 65.1726 38.5813 65.788C39.1777 66.3845 39.5062 67.1772 39.5062 68.0205C39.5062 68.8637 39.1777 69.6566 38.5813 70.2529L36.8757 71.9584C35.6447 73.1897 33.6417 73.1895 32.4107 71.9584C31.8142 71.3624 31.4858 70.5695 31.4858 69.7262ZM41.3179 80.7285C40.4744 80.7285 39.6817 80.4 39.0855 79.8038C38.489 79.2075 38.1605 78.4146 38.1605 77.5713C38.1605 76.728 38.489 75.9352 39.0855 75.3389L41.8967 72.5276C42.5122 71.9122 43.3207 71.6045 44.1292 71.6045C44.9379 71.6045 45.7464 71.9122 46.3618 72.5276C46.9583 73.1239 47.2867 73.9168 47.2867 74.76C47.2867 75.6033 46.9583 76.3962 46.3618 76.9925L43.5505 79.8038C42.9541 80.4002 42.1612 80.7285 41.3179 80.7285ZM48.5778 87.9886C47.7344 87.9886 46.9417 87.6602 46.3454 87.0639C45.749 86.4677 45.4205 85.6748 45.4205 84.8315C45.4205 83.9882 45.749 83.1953 46.3454 82.5989L49.1567 79.7876C49.7721 79.1721 50.5806 78.8644 51.3891 78.8644C52.1976 78.8644 53.0063 79.1721 53.6218 79.7878C54.2182 80.384 54.5467 81.1769 54.5467 82.0202C54.5467 82.8635 54.2182 83.6564 53.6218 84.2526L50.8105 87.0639C50.2142 87.6602 49.4213 87.9886 48.5778 87.9886ZM60.8817 91.5126L58.0702 94.3241C57.474 94.9203 56.6813 95.2488 55.8378 95.2488C54.9943 95.2488 54.2016 94.9203 53.6054 94.3241C53.0089 93.7276 52.6805 92.9349 52.6805 92.0916C52.6805 91.2482 53.0089 90.4555 53.6054 89.859L56.4167 87.0477C57.0321 86.4321 57.8406 86.1244 58.6493 86.1244C59.4576 86.1244 60.2663 86.4323 60.8817 87.0475C62.1128 88.2784 62.1128 90.2815 60.8817 91.5126ZM91.7409 78.8107C91.1445 79.4071 90.3518 79.7356 89.5083 79.7356C88.665 79.7356 87.8723 79.4071 87.2759 78.8107L68.412 59.9468C67.6403 59.1753 66.3893 59.1751 65.617 59.9468C64.8452 60.7186 64.8452 61.97 65.617 62.7417L82.5341 79.6591C83.1306 80.2554 83.459 81.0482 83.459 81.8915C83.459 82.7348 83.1306 83.5277 82.5341 84.1242C81.9379 84.7204 81.1452 85.0489 80.3017 85.0489C79.4582 85.0489 78.6655 84.7204 78.0693 84.1242L57.7408 63.7957C56.969 63.0242 55.7176 63.0242 54.9457 63.7957C54.1739 64.5674 54.1739 65.8188 54.9457 66.5906L71.8629 83.508C72.4593 84.1042 72.7878 84.8971 72.7878 85.7404C72.7878 86.5837 72.4593 87.3766 71.8629 87.9728C70.632 89.2039 68.629 89.2043 67.3978 87.9728L63.6772 84.2522C63.6721 84.2471 63.6663 84.2427 63.6612 84.2378C62.2379 82.823 60.3604 82.1374 58.4955 82.1775C58.4967 82.1251 58.4993 82.073 58.4993 82.0202C58.4993 80.1212 57.7598 78.3356 56.4169 76.9927C54.9917 75.5676 53.1071 74.8772 51.2354 74.9174C51.2366 74.865 51.2391 74.8128 51.2391 74.7602C51.2391 72.861 50.4996 71.0756 49.1567 69.7327C47.5982 68.1742 45.4901 67.4922 43.4505 67.6861C43.3689 65.9127 42.6398 64.257 41.3762 62.9933C38.604 60.2212 34.0933 60.2218 31.3211 62.9933L29.6156 64.6989C29.6136 64.7009 29.6116 64.703 29.6097 64.705L25.2211 60.3164L38.9787 36.4873H45.8286C46.4998 36.4873 47.1691 36.5229 47.8348 36.5921L45.5756 38.8512C44.2327 40.1941 43.4932 41.9797 43.4932 43.8787C43.4932 45.7779 44.2327 47.5633 45.5756 48.9062C46.9618 50.2922 48.7826 50.9853 50.603 50.9853C52.4237 50.9853 54.2445 50.2924 55.6305 48.9062L60.9657 43.571L91.7407 74.3458C92.9718 75.5766 92.9718 77.5798 91.7409 78.8107ZM72.753 49.7679C75.6289 47.6864 77.3918 44.3275 77.3918 40.6783C77.3918 39.5868 76.5068 38.702 75.4155 38.702C74.3242 38.702 73.4392 39.5868 73.4392 40.6783C73.4392 43.2599 72.0755 45.6147 69.8998 46.9149L62.3724 39.3875C61.6005 38.6158 60.3513 38.5956 59.5793 39.3674L52.8356 46.1111C51.6046 47.3422 49.6016 47.342 48.3705 46.1111C47.7741 45.5149 47.4456 44.722 47.4456 43.8787C47.4456 43.0354 47.7741 42.2425 48.3705 41.6461L56.0708 33.9458C57.2858 32.7308 58.9015 32.0616 60.6201 32.0616H80.8762L94.8082 56.1927C94.8412 56.2498 94.8771 56.3041 94.9121 56.3593L87.1282 64.1431L72.753 49.7679Z" fill="#0082C5"/>
<path d="M101.167 38.1402C101.687 38.1402 102.195 37.9288 102.564 37.5612C102.931 37.1916 103.143 36.6837 103.143 36.1639C103.143 35.6421 102.932 35.1342 102.564 34.7646C102.195 34.397 101.687 34.1875 101.167 34.1875C100.645 34.1875 100.137 34.397 99.7695 34.7646C99.3999 35.1342 99.1904 35.6421 99.1904 36.1639C99.1904 36.6837 99.3999 37.1916 99.7695 37.5612C100.137 37.929 100.645 38.1402 101.167 38.1402Z" fill="#0082C5"/>
</svg>
