<svg width="120" height="120" viewBox="0 0 120 120" fill="none" xmlns="http://www.w3.org/2000/svg">
<path d="M76.4903 71.5445C75.4785 71.5445 74.658 72.3648 74.658 73.3767V86.0194C74.658 91.071 70.5482 95.1808 65.4967 95.1808H45.714C44.7024 95.1808 43.8825 96.0003 43.8817 97.0117L43.8792 100.655L39.5059 96.2816C39.2228 95.6317 38.5749 95.1808 37.8255 95.1808H25.9196C20.8681 95.1808 16.7583 91.071 16.7583 86.0194V57.8025C16.7583 52.7509 20.8681 48.6411 25.9196 48.6411H44.4256C45.4373 48.6411 46.2578 47.8208 46.2578 46.8088C46.2578 45.7969 45.4373 44.9766 44.4256 44.9766H25.9196C18.8474 44.9766 13.0938 50.7303 13.0938 57.8025V86.0194C13.0938 93.0916 18.8474 98.8453 25.9196 98.8453H36.8872L44.4126 106.371C44.7631 106.721 45.2316 106.907 45.7085 106.907C45.9443 106.907 46.1823 106.862 46.4086 106.768C47.0933 106.485 47.5399 105.817 47.5404 105.076L47.5448 98.8453H65.4967C72.5689 98.8453 78.3226 93.0916 78.3226 86.0194V73.3767C78.3226 72.3648 77.5021 71.5445 76.4903 71.5445Z" fill="#0082C5"/>
<path d="M80.2754 13.0938H75.6381C60.9536 13.0938 49.0068 25.0405 49.0068 39.7251C49.0068 54.4096 60.9536 66.3562 75.638 66.3562H80.2753C82.5672 66.3562 84.8358 66.065 87.0345 65.4897L93.8848 72.3362C94.2353 72.6863 94.7036 72.8725 95.1804 72.8725C95.4166 72.8725 95.6548 72.8269 95.8814 72.7329C96.566 72.4492 97.0123 71.7812 97.0123 71.0402V60.4394C99.9126 58.0906 102.322 55.1236 104.013 51.8091C105.933 48.0445 106.907 43.9789 106.907 39.7251C106.907 25.0405 94.9598 13.0938 80.2754 13.0938ZM94.0776 58.0824C93.6182 58.4285 93.3478 58.9705 93.3478 59.546V66.6186L88.864 62.1372C88.5152 61.7887 88.0472 61.6009 87.5686 61.6009C87.389 61.6009 87.2076 61.6275 87.0307 61.6819C84.8497 62.3521 82.577 62.6918 80.2754 62.6918H75.6381C62.974 62.6918 52.6714 52.389 52.6714 39.7251C52.6714 27.0611 62.9742 16.7583 75.6381 16.7583H80.2754C92.9394 16.7583 103.242 27.0611 103.242 39.7251C103.242 47.0048 99.9018 53.6959 94.0776 58.0824Z" fill="#0082C5"/>
<path d="M86.2076 33.1411C85.9432 29.3052 82.8511 26.2131 79.015 25.9487C76.8405 25.7994 74.7653 26.5328 73.1769 28.0157C71.6103 29.478 70.7119 31.5452 70.7119 33.6873C70.7119 34.6993 71.5324 35.5196 72.5442 35.5196C73.556 35.5196 74.3765 34.6993 74.3765 33.6873C74.3765 32.5405 74.8386 31.4776 75.6774 30.6947C76.5154 29.9125 77.6108 29.5253 78.7633 29.6048C80.7839 29.7441 82.4126 31.3728 82.5519 33.3932C82.6926 35.4338 81.3537 37.2371 79.3687 37.6813C77.7603 38.0411 76.6371 39.4388 76.6371 41.08V45.482C76.6371 46.494 77.4576 47.3143 78.4694 47.3143C79.4813 47.3143 80.3016 46.494 80.3015 45.482V41.2264C83.9935 40.3344 86.4705 36.9561 86.2076 33.1411Z" fill="#0082C5"/>
<path d="M79.7654 51.4353C79.4246 51.0945 78.9519 50.8984 78.47 50.8984C77.9881 50.8984 77.5154 51.0945 77.1746 51.4353C76.8338 51.7761 76.6377 52.2488 76.6377 52.7307C76.6377 53.2144 76.8339 53.6872 77.1746 54.028C77.5154 54.3688 77.9881 54.563 78.47 54.563C78.9519 54.563 79.4246 54.3688 79.7654 54.028C80.1062 53.6853 80.3022 53.2144 80.3022 52.7307C80.3022 52.2488 80.106 51.7761 79.7654 51.4353Z" fill="#0082C5"/>
<path d="M63.4814 69.8945H24.8206C23.8088 69.8945 22.9883 70.7148 22.9883 71.7268C22.9883 72.7388 23.8088 73.5591 24.8206 73.5591H63.4814C64.4934 73.5591 65.3137 72.7388 65.3137 71.7268C65.3137 70.7148 64.4932 69.8945 63.4814 69.8945Z" fill="#0082C5"/>
<path d="M64.7769 80.6931C64.4363 80.3523 63.9636 80.1562 63.4817 80.1562C62.9998 80.1562 62.5271 80.3523 62.1863 80.6931C61.8453 81.0339 61.6494 81.5066 61.6494 81.9885C61.6494 82.4704 61.8455 82.9431 62.1863 83.2839C62.5271 83.6247 62.9998 83.8208 63.4817 83.8208C63.9636 83.8208 64.4363 83.6247 64.7769 83.2839C65.1179 82.9431 65.314 82.4722 65.314 81.9885C65.314 81.5066 65.1177 81.0339 64.7769 80.6931Z" fill="#0082C5"/>
<path d="M56.2746 80.1562H24.8206C23.8088 80.1562 22.9883 80.9766 22.9883 81.9885C22.9883 83.0005 23.8088 83.8208 24.8206 83.8208H56.2746C57.2865 83.8208 58.1068 83.0005 58.1068 81.9885C58.1068 80.9766 57.2864 80.1562 56.2746 80.1562Z" fill="#0082C5"/>
<path d="M51.5717 59.6328H24.8206C23.8088 59.6328 22.9883 60.4531 22.9883 61.4651C22.9883 62.477 23.8088 63.2974 24.8206 63.2974H51.5717C52.5837 63.2974 53.404 62.477 53.404 61.4651C53.404 60.4531 52.5835 59.6328 51.5717 59.6328Z" fill="#0082C5"/>
</svg>
