<svg width="60" height="60" viewBox="0 0 60 60" fill="none" xmlns="http://www.w3.org/2000/svg">
<g clip-path="url(#clip0)">
<path d="M59.8843 32.7716C59.3456 27.353 56.9248 22.2446 53.0677 18.3873C49.7714 15.0911 45.7368 12.9729 41.4915 12.031V9.0535C43.2254 8.62213 44.5142 7.05261 44.5142 5.18707C44.5142 2.99001 42.7269 1.20264 40.5298 1.20264H32.0922C29.8951 1.20264 28.1077 2.99001 28.1077 5.18707C28.1077 7.05249 29.3966 8.62201 31.1304 9.0535V12.0394C26.8981 12.9852 22.8769 15.1005 19.59 18.3874C18.8706 19.1067 18.2074 19.8613 17.6002 20.6455C17.5708 20.6433 17.5414 20.6411 17.5114 20.6411H9.16034C8.51322 20.6411 7.98844 21.1657 7.98844 21.813C7.98844 22.4602 8.51322 22.9848 9.16034 22.9848H16.0056C15.1464 24.4233 14.4535 25.934 13.9262 27.4891H1.17189C0.524774 27.4891 0 28.0138 0 28.661C0 29.3083 0.524774 29.8329 1.17189 29.8329H13.264C12.9262 31.3155 12.7324 32.8243 12.6823 34.3373H7.50012C6.853 34.3373 6.32822 34.862 6.32822 35.5092C6.32822 36.1565 6.853 36.6811 7.50012 36.6811H12.7197C12.8186 38.198 13.0625 39.7069 13.4515 41.1855H5.85947C5.21235 41.1855 4.68757 41.7102 4.68757 42.3574C4.68757 43.0047 5.21235 43.5293 5.85947 43.5293H14.1994C15.349 46.5705 17.1456 49.4209 19.59 51.8652C23.4509 55.7261 28.5645 58.1475 33.9888 58.6834C34.7629 58.7598 35.5377 58.7977 36.3113 58.7977C40.8843 58.7977 45.3991 57.4743 49.2301 54.9795C49.7724 54.6263 49.9258 53.9003 49.5726 53.358C49.2194 52.8156 48.4934 52.6622 47.9511 53.0154C39.5653 58.4761 28.3347 57.2954 21.2472 50.2079C12.9313 41.8919 12.9313 28.3609 21.2472 20.0448C29.5631 11.7289 43.0941 11.7289 51.4103 20.0448C58.4884 27.123 59.6755 38.344 54.2329 46.7256C53.8804 47.2685 54.0347 47.9943 54.5774 48.3467C55.1205 48.6992 55.8461 48.5449 56.1985 48.0021C59.1064 43.5237 60.4154 38.1148 59.8843 32.7716ZM30.4515 5.18719C30.4515 4.28249 31.1875 3.54654 32.0922 3.54654H40.5298C41.4345 3.54654 42.1705 4.28249 42.1705 5.18719C42.1705 6.09189 41.4345 6.82784 40.5298 6.82784H40.3196H32.3023H32.0922C31.1875 6.82784 30.4515 6.09177 30.4515 5.18719ZM33.4742 11.6365V9.17163H39.1477V11.6323C37.2637 11.4082 35.3578 11.4096 33.4742 11.6365Z" fill="#0082C5"/>
<path d="M52.2383 49.8641C51.9289 49.8641 51.6277 49.9895 51.4099 50.2075C51.1907 50.4255 51.0664 50.7278 51.0664 51.036C51.0664 51.3442 51.1907 51.6466 51.4099 51.8645C51.6277 52.0837 51.929 52.2079 52.2383 52.2079C52.5465 52.2079 52.8477 52.0837 53.0668 51.8645C53.2848 51.6466 53.4102 51.3442 53.4102 51.036C53.4102 50.7278 53.2849 50.4255 53.0668 50.2075C52.8477 49.9895 52.5464 49.8641 52.2383 49.8641Z" fill="#0082C5"/>
<path d="M36.3279 16.9468C26.3038 16.9468 18.1484 25.102 18.1484 35.1262C18.1484 45.1505 26.3038 53.3057 36.3279 53.3057C46.352 53.3057 54.5074 45.1505 54.5074 35.1262C54.5074 25.102 46.352 16.9468 36.3279 16.9468ZM36.3279 50.9619C27.596 50.9619 20.4922 43.858 20.4922 35.1262C20.4922 26.3945 27.596 19.2906 36.3279 19.2906C45.0598 19.2906 52.1636 26.3945 52.1636 35.1262C52.1636 43.858 45.0598 50.9619 36.3279 50.9619Z" fill="#0082C5"/>
<path d="M43.7409 26.0564L37.9365 31.8606C37.4511 31.6206 36.9052 31.485 36.328 31.485C35.7507 31.485 35.2049 31.6206 34.7195 31.8606L32.1217 29.2629C31.664 28.8053 30.9222 28.8053 30.4643 29.2629C30.0067 29.7205 30.0067 30.4626 30.4643 30.9202L33.062 33.5179C32.8219 34.0033 32.6865 34.5493 32.6865 35.1265C32.6865 37.1344 34.32 38.768 36.328 38.768C38.336 38.768 39.9695 37.1344 39.9695 35.1265C39.9695 34.5493 39.834 34.0033 39.5939 33.5179L45.2279 27.8839L45.3982 27.7136C45.8558 27.256 45.8558 26.514 45.3982 26.0564C44.9406 25.5987 44.1988 25.5987 43.7409 26.0564ZM36.328 36.4243C35.6124 36.4243 35.0302 35.8421 35.0302 35.1266C35.0302 34.411 35.6124 33.8288 36.328 33.8288C37.0436 33.8288 37.6258 34.411 37.6258 35.1266C37.6258 35.8421 37.0436 36.4243 36.328 36.4243Z" fill="#0082C5"/>
<path d="M48.8592 33.9686H47.7734C47.1263 33.9686 46.6016 34.4933 46.6016 35.1405C46.6016 35.7877 47.1263 36.3124 47.7734 36.3124H48.8592C49.5063 36.3124 50.0311 35.7877 50.0311 35.1405C50.0311 34.4933 49.5063 33.9686 48.8592 33.9686Z" fill="#0082C5"/>
<path d="M24.8864 33.9399H23.8008C23.1537 33.9399 22.6289 34.4646 22.6289 35.1118C22.6289 35.759 23.1537 36.2837 23.8008 36.2837H24.8864C25.5335 36.2837 26.0583 35.759 26.0583 35.1118C26.0583 34.4646 25.5335 33.9399 24.8864 33.9399Z" fill="#0082C5"/>
<path d="M36.3438 24.8538C36.9909 24.8538 37.5156 24.3292 37.5156 23.6819V22.5963C37.5156 21.9491 36.9909 21.4244 36.3438 21.4244C35.6966 21.4244 35.1719 21.9491 35.1719 22.5963V23.6819C35.1719 24.3292 35.6966 24.8538 36.3438 24.8538Z" fill="#0082C5"/>
<path d="M36.3125 45.3983C35.6654 45.3983 35.1406 45.923 35.1406 46.5702V47.6558C35.1406 48.303 35.6654 48.8277 36.3125 48.8277C36.9596 48.8277 37.4844 48.303 37.4844 47.6558V46.5702C37.4844 45.923 36.9596 45.3983 36.3125 45.3983Z" fill="#0082C5"/>
<path d="M1.17188 41.1853C0.863672 41.1853 0.561328 41.3107 0.343359 41.5287C0.125391 41.7466 0 42.049 0 42.3572C0 42.6666 0.125273 42.9677 0.343359 43.1857C0.561445 43.4037 0.863672 43.529 1.17188 43.529C1.48008 43.529 1.78242 43.4037 2.00027 43.1857C2.21824 42.9677 2.34375 42.6654 2.34375 42.3572C2.34375 42.049 2.21836 41.7466 2.00027 41.5287C1.78242 41.3107 1.48008 41.1853 1.17188 41.1853Z" fill="#0082C5"/>
</g>
<defs>
<clipPath id="clip0">
<rect width="60" height="60" fill="white"/>
</clipPath>
</defs>
</svg>
