<svg width="60" height="60" viewBox="0 0 60 60" fill="none" xmlns="http://www.w3.org/2000/svg">
<path d="M11.25 15.9375C11.25 15.3812 11.0851 14.8375 10.776 14.375C10.467 13.9124 10.0277 13.552 9.5138 13.3391C8.99988 13.1262 8.43438 13.0705 7.88881 13.179C7.34324 13.2876 6.8421 13.5554 6.44876 13.9488C6.05543 14.3421 5.78756 14.8432 5.67904 15.3888C5.57052 15.9344 5.62622 16.4999 5.83909 17.0138C6.05196 17.5277 6.41245 17.967 6.87496 18.276C7.33747 18.585 7.88124 18.75 8.4375 18.75C9.18317 18.7492 9.89805 18.4526 10.4253 17.9253C10.9526 17.398 11.2492 16.6832 11.25 15.9375ZM7.5 15.9375C7.5 15.7521 7.55498 15.5708 7.658 15.4167C7.76101 15.2625 7.90743 15.1423 8.07874 15.0714C8.25004 15.0004 8.43854 14.9818 8.6204 15.018C8.80226 15.0542 8.9693 15.1435 9.10041 15.2746C9.23153 15.4057 9.32081 15.5727 9.35699 15.7546C9.39316 15.9365 9.3746 16.125 9.30364 16.2963C9.23268 16.4676 9.11252 16.614 8.95835 16.717C8.80418 16.82 8.62292 16.875 8.4375 16.875C8.18895 16.8747 7.95065 16.7759 7.7749 16.6001C7.59914 16.4243 7.50028 16.1861 7.5 15.9375Z" fill="#0082C5"/>
<path d="M22.5 6.5625C20.6458 6.5625 18.8332 7.11233 17.2915 8.14247C15.7498 9.17261 14.5482 10.6368 13.8386 12.3498C13.1291 14.0629 12.9434 15.9479 13.3051 17.7665C13.6669 19.585 14.5598 21.2555 15.8709 22.5666C17.182 23.8777 18.8525 24.7706 20.671 25.1324C22.4896 25.4941 24.3746 25.3084 26.0877 24.5989C27.8007 23.8893 29.2649 22.6877 30.295 21.146C31.3252 19.6043 31.875 17.7917 31.875 15.9375C31.8722 13.452 30.8836 11.069 29.126 9.31149C27.3685 7.55395 24.9855 6.56532 22.5 6.5625ZM22.5 23.4375C21.0166 23.4375 19.5666 22.9976 18.3332 22.1735C17.0999 21.3494 16.1386 20.1781 15.5709 18.8076C15.0032 17.4372 14.8547 15.9292 15.1441 14.4743C15.4335 13.0195 16.1478 11.6831 17.1967 10.6342C18.2456 9.5853 19.582 8.871 21.0368 8.58161C22.4917 8.29222 23.9997 8.44075 25.3701 9.0084C26.7406 9.57606 27.9119 10.5374 28.736 11.7707C29.5601 13.0041 30 14.4541 30 15.9375C29.9978 17.9259 29.2069 19.8323 27.8008 21.2383C26.3948 22.6444 24.4884 23.4353 22.5 23.4375Z" fill="#0082C5"/>
<path d="M22.5 13.125C22.7486 13.1253 22.9868 13.2241 23.1626 13.3999C23.3384 13.5757 23.4372 13.8139 23.4375 14.0625C23.4375 14.3111 23.5363 14.5496 23.7121 14.7254C23.8879 14.9012 24.1264 15 24.375 15C24.6236 15 24.8621 14.9012 25.0379 14.7254C25.2137 14.5496 25.3125 14.3111 25.3125 14.0625C25.3118 13.4811 25.1311 12.9142 24.7954 12.4395C24.4597 11.9649 23.9854 11.6057 23.4375 11.4112V11.25C23.4375 11.0014 23.3387 10.7629 23.1629 10.5871C22.9871 10.4113 22.7486 10.3125 22.5 10.3125C22.2514 10.3125 22.0129 10.4113 21.8371 10.5871C21.6613 10.7629 21.5625 11.0014 21.5625 11.25V11.4112C20.9373 11.6326 20.4104 12.0678 20.0749 12.64C19.7394 13.2121 19.617 13.8844 19.7291 14.5381C19.8413 15.1918 20.1809 15.7849 20.6879 16.2125C21.1949 16.6401 21.8367 16.8747 22.5 16.875C22.6854 16.875 22.8667 16.93 23.0208 17.033C23.175 17.136 23.2952 17.2824 23.3661 17.4537C23.4371 17.625 23.4557 17.8135 23.4195 17.9954C23.3833 18.1773 23.294 18.3443 23.1629 18.4754C23.0318 18.6065 22.8648 18.6958 22.6829 18.732C22.501 18.7682 22.3125 18.7496 22.1412 18.6786C21.9699 18.6077 21.8235 18.4875 21.7205 18.3333C21.6175 18.1792 21.5625 17.9979 21.5625 17.8125C21.5625 17.5639 21.4637 17.3254 21.2879 17.1496C21.1121 16.9738 20.8736 16.875 20.625 16.875C20.3764 16.875 20.1379 16.9738 19.9621 17.1496C19.7863 17.3254 19.6875 17.5639 19.6875 17.8125C19.6882 18.3939 19.8689 18.9608 20.2046 19.4355C20.5403 19.9101 21.0146 20.2693 21.5625 20.4637V20.625C21.5625 20.8736 21.6613 21.1121 21.8371 21.2879C22.0129 21.4637 22.2514 21.5625 22.5 21.5625C22.7486 21.5625 22.9871 21.4637 23.1629 21.2879C23.3387 21.1121 23.4375 20.8736 23.4375 20.625V20.4637C24.0627 20.2424 24.5896 19.8072 24.9251 19.235C25.2606 18.6629 25.383 17.9906 25.2709 17.3369C25.1587 16.6832 24.8191 16.0901 24.3121 15.6625C23.8051 15.2349 23.1633 15.0003 22.5 15C22.2514 15 22.0129 14.9012 21.8371 14.7254C21.6613 14.5496 21.5625 14.3111 21.5625 14.0625C21.5625 13.8139 21.6613 13.5754 21.8371 13.3996C22.0129 13.2238 22.2514 13.125 22.5 13.125Z" fill="#0082C5"/>
<path d="M27.1875 27.1875H8.4375C8.18886 27.1875 7.9504 27.2863 7.77459 27.4621C7.59877 27.6379 7.5 27.8764 7.5 28.125C7.5 28.3736 7.59877 28.6121 7.77459 28.7879C7.9504 28.9637 8.18886 29.0625 8.4375 29.0625H27.1875C27.4361 29.0625 27.6746 28.9637 27.8504 28.7879C28.0262 28.6121 28.125 28.3736 28.125 28.125C28.125 27.8764 28.0262 27.6379 27.8504 27.4621C27.6746 27.2863 27.4361 27.1875 27.1875 27.1875Z" fill="#0082C5"/>
<path d="M27.1875 30.9375H8.4375C8.18886 30.9375 7.9504 31.0363 7.77459 31.2121C7.59877 31.3879 7.5 31.6264 7.5 31.875C7.5 32.1236 7.59877 32.3621 7.77459 32.5379C7.9504 32.7137 8.18886 32.8125 8.4375 32.8125H27.1875C27.4361 32.8125 27.6746 32.7137 27.8504 32.5379C28.0262 32.3621 28.125 32.1236 28.125 31.875C28.125 31.6264 28.0262 31.3879 27.8504 31.2121C27.6746 31.0363 27.4361 30.9375 27.1875 30.9375Z" fill="#0082C5"/>
<path d="M27.1875 34.6875H8.4375C8.18886 34.6875 7.9504 34.7863 7.77459 34.9621C7.59877 35.1379 7.5 35.3764 7.5 35.625C7.5 35.8736 7.59877 36.1121 7.77459 36.2879C7.9504 36.4637 8.18886 36.5625 8.4375 36.5625H27.1875C27.4361 36.5625 27.6746 36.4637 27.8504 36.2879C28.0262 36.1121 28.125 35.8736 28.125 35.625C28.125 35.3764 28.0262 35.1379 27.8504 34.9621C27.6746 34.7863 27.4361 34.6875 27.1875 34.6875Z" fill="#0082C5"/>
<path d="M27.1875 38.4375H8.4375C8.18886 38.4375 7.9504 38.5363 7.77459 38.7121C7.59877 38.8879 7.5 39.1264 7.5 39.375C7.5 39.6236 7.59877 39.8621 7.77459 40.0379C7.9504 40.2137 8.18886 40.3125 8.4375 40.3125H27.1875C27.4361 40.3125 27.6746 40.2137 27.8504 40.0379C28.0262 39.8621 28.125 39.6236 28.125 39.375C28.125 39.1264 28.0262 38.8879 27.8504 38.7121C27.6746 38.5363 27.4361 38.4375 27.1875 38.4375Z" fill="#0082C5"/>
<path d="M27.1875 42.1875H8.4375C8.18886 42.1875 7.9504 42.2863 7.77459 42.4621C7.59877 42.6379 7.5 42.8764 7.5 43.125C7.5 43.3736 7.59877 43.6121 7.77459 43.7879C7.9504 43.9637 8.18886 44.0625 8.4375 44.0625H27.1875C27.4361 44.0625 27.6746 43.9637 27.8504 43.7879C28.0262 43.6121 28.125 43.3736 28.125 43.125C28.125 42.8764 28.0262 42.6379 27.8504 42.4621C27.6746 42.2863 27.4361 42.1875 27.1875 42.1875Z" fill="#0082C5"/>
<path d="M36.5625 42.1875H32.8125C32.5639 42.1875 32.3254 42.2863 32.1496 42.4621C31.9738 42.6379 31.875 42.8764 31.875 43.125C31.875 43.3736 31.9738 43.6121 32.1496 43.7879C32.3254 43.9637 32.5639 44.0625 32.8125 44.0625H36.5625C36.8111 44.0625 37.0496 43.9637 37.2254 43.7879C37.4012 43.6121 37.5 43.3736 37.5 43.125C37.5 42.8764 37.4012 42.6379 37.2254 42.4621C37.0496 42.2863 36.8111 42.1875 36.5625 42.1875Z" fill="#0082C5"/>
<path d="M27.1875 45.9375H8.4375C8.18886 45.9375 7.9504 46.0363 7.77459 46.2121C7.59877 46.3879 7.5 46.6264 7.5 46.875C7.5 47.1236 7.59877 47.3621 7.77459 47.5379C7.9504 47.7137 8.18886 47.8125 8.4375 47.8125H27.1875C27.4361 47.8125 27.6746 47.7137 27.8504 47.5379C28.0262 47.3621 28.125 47.1236 28.125 46.875C28.125 46.6264 28.0262 46.3879 27.8504 46.2121C27.6746 46.0363 27.4361 45.9375 27.1875 45.9375Z" fill="#0082C5"/>
<path d="M36.5625 45.9375H32.8125C32.5639 45.9375 32.3254 46.0363 32.1496 46.2121C31.9738 46.3879 31.875 46.6264 31.875 46.875C31.875 47.1236 31.9738 47.3621 32.1496 47.5379C32.3254 47.7137 32.5639 47.8125 32.8125 47.8125H36.5625C36.8111 47.8125 37.0496 47.7137 37.2254 47.5379C37.4012 47.3621 37.5 47.1236 37.5 46.875C37.5 46.6264 37.4012 46.3879 37.2254 46.2121C37.0496 46.0363 36.8111 45.9375 36.5625 45.9375Z" fill="#0082C5"/>
<path d="M43.125 18.7523C41.2708 18.7523 39.4582 19.3022 37.9165 20.3323C36.3748 21.3624 35.1732 22.8266 34.4636 24.5397C33.7541 26.2527 33.5684 28.1377 33.9301 29.9563C34.2919 31.7749 35.1848 33.4453 36.4959 34.7564C37.807 36.0676 39.4775 36.9604 41.296 37.3222C43.1146 37.6839 44.9996 37.4983 46.7127 36.7887C48.4257 36.0791 49.8899 34.8775 50.92 33.3358C51.9502 31.7941 52.5 29.9815 52.5 28.1273C52.4972 25.6418 51.5086 23.2588 49.751 21.5013C47.9935 19.7437 45.6105 18.7551 43.125 18.7523ZM35.625 28.1273C35.6271 26.4653 36.1802 24.851 37.1977 23.5369C38.2153 22.2228 39.6398 21.2832 41.2484 20.8652V35.3895C39.6398 34.9715 38.2153 34.0319 37.1977 32.7178C36.1802 31.4037 35.6271 29.7893 35.625 28.1273ZM43.125 35.6273H43.1234V20.6273H43.125C45.1141 20.6273 47.0218 21.4175 48.4283 22.824C49.8348 24.2305 50.625 26.1382 50.625 28.1273C50.625 30.1164 49.8348 32.0241 48.4283 33.4306C47.0218 34.8371 45.1141 35.6273 43.125 35.6273Z" fill="#0082C5"/>
<path d="M57.851 54.0179L53.5165 45.0117C53.4859 44.8919 53.4317 44.7794 53.3572 44.6808L51.8103 41.4661C51.7568 41.3548 51.6818 41.2552 51.5896 41.173C51.4974 41.0908 51.3899 41.0276 51.2733 40.9871C51.1566 40.9466 51.0331 40.9295 50.9098 40.9368C50.7866 40.9442 50.6659 40.9758 50.5549 41.0299L49.7122 41.4401L48.9538 39.8838C51.6069 38.5699 53.7378 36.3975 55.0003 33.7195C56.2627 31.0415 56.5826 28.0153 55.9078 25.1326C55.2331 22.2498 53.6034 19.6799 51.2835 17.8404C48.9637 16.0009 46.09 14.9999 43.1293 15H43.125V2.8125C43.125 2.56386 43.0262 2.3254 42.8504 2.14959C42.6746 1.97377 42.4361 1.875 42.1875 1.875H2.8125C2.56386 1.875 2.3254 1.97377 2.14959 2.14959C1.97377 2.3254 1.875 2.56386 1.875 2.8125V52.5969C1.875 52.7228 1.90035 52.8474 1.94953 52.9632C1.99872 53.0791 2.07074 53.1839 2.16129 53.2713L4.97379 55.9869C5.14857 56.1557 5.38204 56.25 5.625 56.25C5.86796 56.25 6.10143 56.1557 6.27621 55.9869L8.4375 53.9L10.5988 55.9869C10.7736 56.1557 11.007 56.25 11.25 56.25C11.493 56.25 11.7264 56.1557 11.9012 55.9869L14.0625 53.9L16.2238 55.9869C16.3986 56.1557 16.632 56.25 16.875 56.25C17.118 56.25 17.3514 56.1557 17.5262 55.9869L19.6875 53.9L21.8488 55.9869C22.0236 56.1557 22.257 56.25 22.5 56.25C22.743 56.25 22.9764 56.1557 23.1512 55.9869L25.3125 53.9L27.4738 55.9869C27.6486 56.1557 27.882 56.25 28.125 56.25C28.368 56.25 28.6014 56.1557 28.7762 55.9869L30.9375 53.9L33.0988 55.9869C33.2736 56.1557 33.507 56.25 33.75 56.25C33.993 56.25 34.2264 56.1557 34.4012 55.9869L36.5625 53.9L38.7238 55.9869C38.8986 56.1557 39.132 56.25 39.375 56.25C39.618 56.25 39.8514 56.1557 40.0262 55.9869L42.8387 53.2713C42.9293 53.1839 43.0013 53.0791 43.0505 52.9632C43.0997 52.8474 43.125 52.7228 43.125 52.5969V41.25H43.1293C44.5173 41.251 45.8966 41.0309 47.2153 40.598L48.0264 42.262L47.1836 42.6722C46.9608 42.7808 46.7902 42.9733 46.7089 43.2074C46.6277 43.4415 46.6424 43.6983 46.75 43.9215L52.793 56.4778C53.1197 57.1484 53.6994 57.6617 54.4046 57.9048C55.1097 58.1479 55.8826 58.101 56.5532 57.7743C57.223 57.4478 57.736 56.8689 57.9794 56.1647C58.2228 55.4604 58.1767 54.6883 57.8514 54.0179H57.851ZM41.25 52.1989L39.375 54.0094L37.2137 51.9225C37.0389 51.7537 36.8055 51.6594 36.5625 51.6594C36.3195 51.6594 36.0861 51.7537 35.9113 51.9225L33.75 54.0094L31.5887 51.9225C31.4139 51.7537 31.1805 51.6594 30.9375 51.6594C30.6945 51.6594 30.4611 51.7537 30.2863 51.9225L28.125 54.0094L25.9637 51.9225C25.7889 51.7537 25.5555 51.6594 25.3125 51.6594C25.0695 51.6594 24.8361 51.7537 24.6613 51.9225L22.5 54.0094L20.3387 51.9225C20.1639 51.7537 19.9305 51.6594 19.6875 51.6594C19.4445 51.6594 19.2111 51.7537 19.0363 51.9225L16.875 54.0094L14.7137 51.9225C14.5389 51.7537 14.3055 51.6594 14.0625 51.6594C13.8195 51.6594 13.5861 51.7537 13.4113 51.9225L11.25 54.0094L9.08871 51.9225C8.91393 51.7537 8.68046 51.6594 8.4375 51.6594C8.19454 51.6594 7.96107 51.7537 7.78629 51.9225L5.625 54.0094L3.75 52.1989V3.75H41.25V15.1351C40.6065 15.2281 39.9709 15.3691 39.3485 15.557C39.2875 15.1062 39.118 14.6769 38.8546 14.306C38.5912 13.935 38.2418 13.6335 37.8363 13.4273C37.4308 13.2211 36.9813 13.1164 36.5264 13.122C36.0715 13.1277 35.6248 13.2436 35.2246 13.4598C34.8243 13.6761 34.4825 13.9862 34.2284 14.3635C33.9744 14.7409 33.8156 15.1743 33.7658 15.6265C33.716 16.0787 33.7767 16.5362 33.9426 16.9598C34.1084 17.3834 34.3746 17.7604 34.7182 18.0586C33.2177 19.3097 32.0159 20.8805 31.2006 22.6559C30.3853 24.4313 29.9772 26.3664 30.0061 28.3199C30.0349 30.2733 30.5 32.1956 31.3674 33.9461C32.2348 35.6967 33.4825 37.2312 35.0193 38.4375H32.8125C32.5639 38.4375 32.3254 38.5363 32.1496 38.7121C31.9738 38.8879 31.875 39.1264 31.875 39.375C31.875 39.6236 31.9738 39.8621 32.1496 40.0379C32.3254 40.2137 32.5639 40.3125 32.8125 40.3125H36.5625C36.7156 40.3126 36.8664 40.2751 37.0017 40.2034C37.1369 40.1317 37.2525 40.0279 37.3384 39.9012C38.5701 40.5096 39.8903 40.9192 41.25 41.1149V52.1989ZM36.4022 16.8602C36.2112 16.8265 36.0355 16.7343 35.8992 16.5963C35.763 16.4584 35.673 16.2815 35.6417 16.0901C35.6104 15.8987 35.6394 15.7024 35.7246 15.5282C35.8098 15.354 35.947 15.2107 36.1173 15.1179C36.2876 15.0251 36.4825 14.9876 36.675 15.0104C36.8676 15.0333 37.0483 15.1155 37.1921 15.2455C37.3359 15.3756 37.4357 15.5471 37.4778 15.7364C37.5198 15.9257 37.502 16.1234 37.4268 16.3021L37.4316 16.3042C37.0795 16.4746 36.7363 16.6599 36.4022 16.8602ZM43.1293 39.375C40.9043 39.375 38.7292 38.7152 36.8792 37.479C35.0291 36.2429 33.5872 34.4859 32.7357 32.4302C31.8842 30.3745 31.6614 28.1125 32.0955 25.9302C32.5296 23.7479 33.601 21.7434 35.1744 20.17C36.7477 18.5967 38.7523 17.5253 40.9346 17.0912C43.1169 16.6571 45.3789 16.8799 47.4345 17.7314C49.4902 18.5828 51.2472 20.0248 52.4834 21.8748C53.7195 23.7249 54.3793 25.9 54.3793 28.125C54.376 31.1076 53.1896 33.9672 51.0806 36.0762C48.9715 38.1853 46.112 39.3716 43.1293 39.375ZM48.8438 43.9498L49.6897 43.5375H49.6905H49.6916L50.5293 43.1292L51.3424 44.8188L49.6569 45.6402L48.8438 43.9498ZM56.2072 55.5513C56.1469 55.7263 56.0362 55.8794 55.889 55.9916C55.7418 56.1037 55.5647 56.1698 55.3801 56.1815C55.1954 56.1931 55.0114 56.1499 54.8513 56.0572C54.6911 55.9645 54.562 55.8265 54.4801 55.6605L50.47 47.3285L52.1556 46.5071L56.1634 54.8351C56.2177 54.9457 56.2495 55.0659 56.257 55.1889C56.2645 55.3118 56.2476 55.4351 56.2071 55.5514L56.2072 55.5513Z" fill="#0082C5"/>
</svg>
