<svg width="60" height="60" viewBox="0 0 60 60" fill="none" xmlns="http://www.w3.org/2000/svg">
<g clip-path="url(#clip0)">
<path d="M56.86 30.2278L55.457 29.5399C55.4671 28.5487 55.4518 27.6484 55.457 26.8008C55.457 22.4398 54.3382 18.156 52.2173 14.3679C52.713 13.653 52.7376 12.6993 52.2348 11.9469C50.3709 9.15762 48.0323 6.76664 45.284 4.84031C43.484 3.57867 41.5347 2.54227 39.4904 1.75969C39.037 1.58613 38.5289 1.81301 38.3553 2.26629C38.1818 2.71969 38.4086 3.22781 38.8619 3.40137C40.7717 4.13238 42.593 5.10082 44.275 6.27984C46.8444 8.08078 49.0307 10.3161 50.7732 12.9237C50.8831 13.0881 50.8573 13.3046 50.7121 13.4386C50.5789 13.5441 47.6437 16.3054 47.4662 16.4128C47.3769 16.4575 47.2907 16.4564 47.24 16.4496C47.1684 16.4399 47.0347 16.4018 46.9439 16.2558C45.7899 14.4011 44.3492 12.7543 42.6617 11.3611C39.087 8.40984 34.5676 6.78445 29.9359 6.78445C25.0654 6.78445 20.3686 8.56125 16.7102 11.7877C15.2702 13.0575 14.0214 14.523 12.9984 16.1433C12.9139 16.277 12.7859 16.3099 12.717 16.3175C12.645 16.3257 12.5064 16.3214 12.3874 16.2022L9.3357 13.1504C9.19977 13.0144 9.18066 12.8 9.29035 12.6405C10.5842 10.7603 12.1286 9.06293 13.8807 7.59563C18.3765 3.83109 24.0784 1.75781 29.936 1.75781C31.5471 1.75781 33.1592 1.9125 34.7278 2.21766C35.2041 2.31035 35.6656 1.99922 35.7583 1.52273C35.851 1.04625 35.5399 0.584883 35.0634 0.492187C33.3846 0.165586 31.6595 0 29.936 0C23.6664 0 17.5638 2.21906 12.7522 6.2482C10.8782 7.81758 9.22625 9.63316 7.84227 11.6443C7.31223 12.4147 7.34504 13.425 7.88961 14.1557C7.0168 15.6529 6.29586 17.2309 5.74438 18.8564C5.5884 19.316 5.83473 19.8151 6.29434 19.9711C6.38797 20.0029 6.48313 20.0179 6.57676 20.0179C6.94297 20.0179 7.2848 19.7871 7.40902 19.4211C7.87074 18.0602 8.4616 16.7353 9.16684 15.4676L11.0437 17.3446C9.55309 20.3276 8.76734 23.6487 8.76734 26.9984V45.2965L3.91379 42.9169C3.34203 42.6366 2.97254 42.0441 2.97254 41.4073V33.3157C2.97254 32.6789 3.34203 32.0864 3.91379 31.8061C4.21051 31.6474 4.80922 31.3863 5.30469 31.1238C5.84023 30.8366 6.17293 30.2804 6.17293 29.6723V27.0089C6.1666 25.8779 6.24465 24.7364 6.40484 23.6162C6.47363 23.1356 6.13977 22.6904 5.6593 22.6218C5.17941 22.5529 4.73363 22.8868 4.66484 23.3673C4.49234 24.5729 4.40844 25.8014 4.41512 27.0138V29.6059C4.19527 29.7273 3.46496 30.0573 3.10801 30.2436C1.95676 30.8234 1.21484 32.0251 1.21484 33.3157V41.4073C1.21484 42.7097 1.97059 43.9219 3.14 44.4953L9.00266 47.3695C9.61883 49.2394 11.3811 50.5934 13.4547 50.5934C16.0393 50.5934 18.142 48.4908 18.142 45.9062V30.097C18.142 27.5125 16.0393 25.4098 13.4547 25.4098C12.3511 25.4098 11.336 25.7941 10.5342 26.4348C10.6171 23.5295 11.3397 20.6636 12.6418 18.0773C12.7314 18.0784 12.8216 18.0746 12.9121 18.0645C13.5631 17.9918 14.1364 17.6337 14.4849 17.0816C15.4186 15.6028 16.5586 14.2651 17.873 13.1059C21.2101 10.163 25.4941 8.54215 29.936 8.54215C34.1602 8.54215 38.2822 10.0246 41.5427 12.7165C43.0831 13.9883 44.3982 15.4914 45.4514 17.1841C45.7955 17.7373 46.3616 18.1044 47.0043 18.1914C47.1014 18.2045 47.1983 18.2109 47.2947 18.2109C47.3371 18.2109 47.3792 18.2075 47.4213 18.2051C48.683 20.7571 49.3843 23.5781 49.466 26.4348C48.6642 25.794 47.6491 25.4096 46.5453 25.4096C43.9607 25.4096 41.858 27.5123 41.858 30.0969V32.7328C41.858 33.2182 42.2516 33.6117 42.737 33.6117C43.2223 33.6117 43.6159 33.2182 43.6159 32.7328V30.0969C43.6159 28.4816 44.93 27.1675 46.5453 27.1675C48.1606 27.1675 49.4748 28.4816 49.4748 30.0969V45.9061C49.4748 47.5213 48.1606 48.8354 46.5453 48.8354C44.93 48.8354 43.6159 47.5213 43.6159 45.9061V37.1644C43.6159 36.679 43.2223 36.2855 42.737 36.2855C42.2516 36.2855 41.858 36.679 41.858 37.1644V45.9061C41.858 48.4907 43.9607 50.5932 46.5453 50.5932C47.6531 50.5932 48.6716 50.2062 49.4748 49.5612V51.6548C49.4748 52.2872 48.9602 52.8018 48.3279 52.8018H37.7973C37.5234 51.9909 36.7572 51.4049 35.8552 51.4049H29.2094C28.0787 51.4049 27.1586 52.3249 27.1586 53.4557V57.9492C27.1586 59.08 28.0787 60 29.2094 60H35.8552C36.7541 60 37.518 59.4178 37.7942 58.6113H43.5004C43.9858 58.6113 44.3793 58.2178 44.3793 57.7324C44.3793 57.247 43.9858 56.8535 43.5004 56.8535H37.906V54.5597H48.3279C49.9295 54.5597 51.2326 53.2566 51.2326 51.655V47.2541L53.5264 46.1296V53.934C53.5264 55.5438 52.2167 56.8535 50.6069 56.8535H47.8849C47.3995 56.8535 47.006 57.247 47.006 57.7324C47.006 58.2178 47.3995 58.6113 47.8849 58.6113H50.6069C53.186 58.6113 55.2842 56.5131 55.2842 53.934V45.2678L56.86 44.4953C58.0295 43.9219 58.7852 42.7098 58.7852 41.4073V33.3157C58.7852 32.0133 58.0295 30.8012 56.86 30.2278ZM13.4546 27.1677C15.0699 27.1677 16.3841 28.4818 16.3841 30.0971V45.9063C16.3841 47.5215 15.0699 48.8357 13.4546 48.8357C11.8393 48.8357 10.5252 47.5215 10.5252 45.9063V30.097C10.5252 28.4817 11.8393 27.1677 13.4546 27.1677ZM28.9163 57.9492V53.4559C28.9163 53.2944 29.0478 53.1629 29.2093 53.1629H31.6532V58.2422H29.2093C29.0478 58.2422 28.9163 58.1107 28.9163 57.9492ZM36.1481 57.9492C36.1481 58.1107 36.0166 58.2422 35.8551 58.2422H33.4112V53.1629H35.8551C36.0166 53.1629 36.1481 53.2944 36.1481 53.4559V57.9492ZM57.0274 41.4074C57.0274 42.0442 56.6579 42.6367 56.0861 42.917L51.2326 45.2966C51.2326 43.055 51.2326 28.8239 51.2326 26.9985C51.2326 23.6773 50.4595 20.3808 48.9927 17.4172L50.9128 15.6454C52.7357 19.0621 53.6963 22.8898 53.6991 26.7844C53.6928 27.5142 53.7104 28.4931 53.698 29.6728C53.6925 30.2546 54.0261 30.7961 54.5482 31.0521L56.0863 31.8062C56.658 32.0865 57.0275 32.679 57.0275 33.3158V41.4074H57.0274Z" fill="#0082C5"/>
<path d="M37.9056 27.1368C37.8422 26.3761 37.3988 25.7599 36.7758 25.5669C36.4823 25.476 35.722 25.3599 35.0015 26.244C34.3315 27.0661 30.965 33.1484 30.2969 34.3593C30.1467 34.6315 30.1515 34.9629 30.3095 35.2307C30.4676 35.4985 30.7554 35.6628 31.0663 35.6628H36.1414C36.1348 36.5953 36.1277 37.4951 36.1209 38.2936C36.1167 38.779 36.5068 39.1758 36.9922 39.18H36.9999C37.4817 39.18 37.8745 38.7916 37.8786 38.3086C37.8813 37.9966 37.8899 36.9732 37.8993 35.6626H38.5502C39.0356 35.6626 39.4291 35.2691 39.4291 34.7837C39.4291 34.2984 39.0356 33.9048 38.5502 33.9048H37.911C37.9293 30.9548 37.9414 27.5667 37.9056 27.1368ZM36.1532 33.905H32.5588C33.8786 31.5348 35.5302 28.6228 36.1645 27.6423C36.1783 28.6069 36.1694 31.2168 36.1532 33.905Z" fill="#0082C5"/>
<path d="M28.8751 38.3796C28.869 37.8942 28.4753 37.5089 27.9852 37.5118C26.3842 37.532 24.6683 37.5431 23.4937 37.5381C24.1534 36.6704 25.2326 35.2305 26.8852 32.8692C27.6829 31.6851 28.2908 30.566 28.3699 29.3169C28.3699 27.1508 26.6077 25.3885 24.4416 25.3885C22.5686 25.3885 20.9475 26.7209 20.5869 28.5565C20.4934 29.0327 20.8037 29.4947 21.28 29.5883C21.7564 29.6816 22.2183 29.3715 22.3118 28.8953C22.5108 27.8819 23.4066 27.1464 24.4416 27.1464C25.6212 27.1464 26.5841 28.0924 26.6115 29.2656C26.5445 30.0576 26.1107 30.865 25.4449 31.8612C23.5518 34.5661 22.4215 36.0462 21.8142 36.8413C21.0921 37.7867 20.8743 38.0721 21.0332 38.5889C21.1231 38.8813 21.3462 39.1062 21.6453 39.2058C22.2567 39.3698 26.027 39.2784 28.0071 39.2694C28.4926 39.2633 28.8812 38.865 28.8751 38.3796Z" fill="#0082C5"/>
</g>
<defs>
<clipPath id="clip0">
<rect width="60" height="60" fill="white"/>
</clipPath>
</defs>
</svg>
