<svg width="60" height="60" viewBox="0 0 60 60" fill="none" xmlns="http://www.w3.org/2000/svg">
<g clip-path="url(#clip0)">
<path d="M59.1211 13.7397H53.3251L56.8335 7.52743C57.4829 6.37756 57.6455 5.04371 57.2914 3.77138C56.9374 2.49916 56.1092 1.44094 54.9593 0.791592C52.5856 -0.548942 49.5638 0.291192 48.2234 2.66464L47.4241 4.08029C47.1855 4.50299 47.3347 5.03914 47.7574 5.27773C48.1799 5.51633 48.7163 5.36715 48.9549 4.94445L49.754 3.52891C50.6178 1.99947 52.565 1.45817 54.0949 2.32209C54.8359 2.74058 55.3697 3.42262 55.5979 4.24248C55.826 5.06246 55.7213 5.92204 55.3028 6.66292L46.3413 22.5304C45.8151 23.462 44.8648 24.0642 43.8009 24.1414C43.7211 24.147 43.6444 24.1499 43.5662 24.1499C42.5889 24.1499 41.6477 23.6887 41.0488 22.9164L34.2516 14.1482C33.1751 12.76 33.429 10.7545 34.8176 9.67774C36.2059 8.60112 38.2113 8.85507 39.288 10.2435L42.3396 14.1799C42.5199 14.4124 42.8046 14.5394 43.0981 14.518C43.3915 14.4967 43.6548 14.3298 43.7996 14.0736L47.2262 8.00556C47.4649 7.58286 47.3157 7.04671 46.893 6.808C46.4704 6.5694 45.9343 6.71847 45.6955 7.14117L42.9189 12.0582L40.6774 9.16656C39.0067 7.01203 35.8949 6.61815 33.7406 8.28869C32.0459 9.60286 31.4413 11.8085 32.0732 13.7386L0.878923 13.7388C0.393523 13.7388 0 14.1324 0 14.6178V38.2866C0 41.4051 2.53704 43.9422 5.65558 43.9422C6.13571 43.9422 6.60611 43.881 7.0635 43.7637C7.27772 44.4269 7.64652 45.035 8.1536 45.5419C9.02326 46.4116 10.1655 46.8464 11.3079 46.8464C11.9257 46.8464 12.5432 46.718 13.118 46.4636C13.1693 47.5761 13.6267 48.6146 14.4194 49.4073C15.289 50.277 16.4313 50.7117 17.5737 50.7117C18.4055 50.7117 19.2368 50.4799 19.9634 50.0188C20.0672 51.0359 20.5134 51.9789 21.2462 52.7117C22.1158 53.5814 23.2581 54.0161 24.4004 54.0161C25.5271 54.0161 26.6532 53.5923 27.5183 52.7463C27.6464 53.7112 28.0837 54.6036 28.7833 55.3045C29.4221 55.9445 30.2229 56.3655 31.0937 56.5312C31.2183 57.3239 31.5845 58.0858 32.194 58.6954C32.9363 59.4377 33.9232 59.8465 34.9729 59.8465C36.0227 59.8465 37.0096 59.4377 37.7519 58.6954C38.6212 57.8261 38.9967 56.6475 38.8796 55.5105C39.0144 55.5244 39.1504 55.5318 39.2878 55.5318C40.3375 55.5318 41.3244 55.1229 42.0667 54.3807C42.809 53.6384 43.2177 52.6516 43.2177 51.6018C43.2177 51.4654 43.2105 51.3302 43.1969 51.1963C43.3308 51.2099 43.4663 51.2172 43.6028 51.2172C43.872 51.2172 44.138 51.19 44.3932 51.1362C44.8683 51.0362 45.1723 50.5702 45.0724 50.0951C44.9724 49.62 44.5061 49.3162 44.0312 49.416C43.8947 49.4447 43.7506 49.4592 43.6028 49.4592C43.0221 49.4592 42.477 49.2333 42.0668 48.8223L39.4819 46.2387C38.6357 45.3917 38.6357 44.0133 39.4817 43.1665C39.8923 42.7558 40.4379 42.5298 41.0176 42.5298C41.5975 42.5298 42.143 42.756 42.5537 43.1667L45.1386 45.751C45.1404 45.7529 45.1424 45.7546 45.1444 45.7565C45.656 46.2729 45.8749 47.0061 45.7299 47.7198C45.6332 48.1954 45.9405 48.6594 46.4162 48.7561C46.8917 48.8525 47.3558 48.5455 47.4525 48.0697C47.5334 47.6718 47.551 47.2707 47.5105 46.8786C47.6457 46.8925 47.7816 46.9001 47.9175 46.9001C48.9238 46.9001 49.9302 46.5171 50.6964 45.751C51.3669 45.0805 51.744 44.2261 51.8277 43.3487C52.5862 43.7274 53.4405 43.9417 54.3445 43.9417C57.4631 43.9417 60.0001 41.4046 60.0001 38.2861V14.6185C60 14.1332 59.6065 13.7397 59.1211 13.7397ZM1.75785 38.2866V15.4967H9.55331V22.8937C9.55331 23.3791 9.94683 23.7726 10.4322 23.7726C10.9176 23.7726 11.3112 23.3791 11.3112 22.8937V15.4972H25.3554C26.4884 15.4972 27.5535 15.9384 28.3547 16.7395L37.3982 25.783C38.1086 26.4934 38.4998 27.4379 38.4998 28.4423C38.4998 29.4467 38.1086 30.3907 37.3982 31.1007C36.6874 31.8115 35.7429 32.2029 34.7388 32.2029C33.7339 32.2029 32.789 31.8115 32.0782 31.1007L24.8037 23.8262C24.6389 23.6613 24.4153 23.5687 24.1822 23.5687C23.9491 23.5687 23.7255 23.6613 23.5608 23.8262L11.3112 36.0758V26.4094C11.3112 25.924 10.9176 25.5305 10.4322 25.5305C9.94683 25.5305 9.55331 25.924 9.55331 26.4094V37.8336L8.1536 39.2334C7.40499 39.982 6.95615 40.95 6.8651 41.9922C6.47532 42.1189 6.07055 42.1843 5.65558 42.1843C3.50632 42.1843 1.75785 40.4357 1.75785 38.2866ZM36.509 57.4526C36.0987 57.8629 35.5532 58.0888 34.9731 58.0888C34.393 58.0888 33.8475 57.8629 33.4372 57.4526C32.5902 56.6057 32.5902 55.2276 33.4372 54.3808C33.8606 53.9573 34.4169 53.7457 34.9731 53.7457C35.5292 53.7457 36.0855 53.9574 36.509 54.3808C37.3558 55.2276 37.3558 56.6057 36.509 57.4526ZM40.8237 53.1378C40.4134 53.5481 39.8678 53.774 39.2878 53.774C38.7077 53.774 38.1622 53.5481 37.7519 53.1378L36.5856 51.9715C36.1753 51.5613 35.9494 51.0159 35.9494 50.4356C35.9494 49.8554 36.1753 49.31 36.5856 48.8998C36.9959 48.4895 37.5414 48.2635 38.1215 48.2635C38.7013 48.2635 39.2464 48.4892 39.6566 48.8991L40.8237 50.066C41.2339 50.4763 41.4599 51.0218 41.4599 51.6019C41.4599 52.182 41.2339 52.7275 40.8237 53.1378ZM41.0176 40.7722C39.9682 40.7722 38.9813 41.1812 38.2384 41.924C36.9903 43.1735 36.7602 45.0617 37.5481 46.5472C36.716 46.6681 35.948 47.0514 35.3427 47.6567C34.6004 48.399 34.1916 49.3859 34.1916 50.4356C34.1916 50.9887 34.3061 51.5239 34.5221 52.0155C33.671 52.113 32.8457 52.4864 32.1941 53.1379C31.7264 53.6056 31.4023 54.1631 31.2201 54.7553C30.773 54.633 30.3629 54.399 30.0274 54.0629C29.5169 53.5515 29.2358 52.8725 29.2358 52.1508C29.2358 51.4348 29.5128 50.7605 30.0229 50.2439L36.1368 44.1295C36.48 43.7863 36.48 43.2299 36.1368 42.8866C35.7935 42.5434 35.237 42.5434 34.8938 42.8866L26.3119 51.469C25.258 52.5229 23.5433 52.5229 22.4893 51.469C21.9788 50.9585 21.6977 50.2798 21.6977 49.5578C21.6977 48.8358 21.9788 48.157 22.4893 47.6464L28.9781 41.1576C29.3214 40.8144 29.3214 40.2579 28.9781 39.9147C28.6349 39.5714 28.0783 39.5714 27.7352 39.9147L19.4853 48.1646C18.4314 49.2185 16.7167 49.2185 15.6626 48.1646C15.1522 47.6541 14.871 46.9754 14.871 46.2534C14.871 45.5314 15.1522 44.8526 15.6626 44.342L22.1911 37.8136C22.5343 37.4704 22.5343 36.9139 22.1911 36.5707C21.8478 36.2274 21.2913 36.2274 20.9481 36.5707L13.2196 44.2992C12.1657 45.353 10.451 45.3531 9.39698 44.2992C8.8865 43.7888 8.60536 43.11 8.60536 42.388C8.60536 41.666 8.8865 40.9872 9.39698 40.4767L24.1828 25.6913L30.8358 32.3442C31.8786 33.387 33.2649 33.9612 34.7394 33.9612C36.2132 33.9612 37.5991 33.387 38.6416 32.3444C39.6841 31.3024 40.2582 29.9169 40.2582 28.4428C40.2582 26.9687 39.6842 25.5829 38.6418 24.5405L29.5983 15.4969L29.5982 15.4968H33.0734L39.6605 23.9941C40.5901 25.1927 42.0505 25.9083 43.5672 25.9083C43.6853 25.9083 43.806 25.904 43.9273 25.8954C45.5816 25.7754 47.0565 24.8408 47.8728 23.3955L48.6897 21.9493V38.2867C48.6897 38.3207 48.6917 38.3543 48.6922 38.3882C48.1072 38.0549 47.4435 37.8764 46.7519 37.8764C45.7021 37.8764 44.7153 38.2852 43.973 39.0275C43.3682 39.6323 42.9849 40.3996 42.8637 41.2311C42.3014 40.9311 41.6716 40.7722 41.0176 40.7722ZM49.4534 44.5082C48.608 45.3537 47.2333 45.3548 46.3859 44.5123C46.3844 44.5108 46.3831 44.5092 46.3816 44.5077L45.2138 43.3405C44.8045 42.9303 44.579 42.3856 44.579 41.8061C44.579 41.2259 44.8049 40.6805 45.2152 40.2703C45.6255 39.86 46.1709 39.634 46.7511 39.634C47.3313 39.634 47.8767 39.86 48.287 40.2703L49.4533 41.4365C50.3002 42.2832 50.3002 43.6613 49.4534 44.5082ZM58.2421 38.2862C58.2421 40.4355 56.4937 42.184 54.3444 42.184C52.1953 42.184 50.4467 40.4355 50.4467 38.2862V18.8362L52.3323 15.4975H58.2421V38.2862Z" fill="#0082C5"/>
<path d="M51.332 20.6287C51.332 22.3159 52.7047 23.6885 54.3919 23.6885C56.079 23.6885 57.4517 22.3159 57.4517 20.6287C57.4517 18.9415 56.079 17.5688 54.3919 17.5688C52.7047 17.5688 51.332 18.9415 51.332 20.6287ZM55.6938 20.6287C55.6938 21.3466 55.1098 21.9307 54.3919 21.9307C53.674 21.9307 53.0899 21.3466 53.0899 20.6287C53.0899 19.9108 53.674 19.3267 54.3919 19.3267C55.1098 19.3267 55.6938 19.9108 55.6938 20.6287Z" fill="#0082C5"/>
<path d="M8.71731 20.6287C8.71731 18.9415 7.34466 17.5688 5.65748 17.5688C3.9703 17.5688 2.59766 18.9415 2.59766 20.6287C2.59766 22.3159 3.9703 23.6885 5.65748 23.6885C7.34466 23.6885 8.71731 22.3159 8.71731 20.6287ZM4.3555 20.6287C4.3555 19.9108 4.93958 19.3267 5.65748 19.3267C6.37539 19.3267 6.95946 19.9108 6.95946 20.6287C6.95946 21.3466 6.37539 21.9307 5.65748 21.9307C4.93958 21.9307 4.3555 21.3466 4.3555 20.6287Z" fill="#0082C5"/>
</g>
<defs>
<clipPath id="clip0">
<rect width="60" height="60" fill="white"/>
</clipPath>
</defs>
</svg>
