<svg width="135" height="135" viewBox="0 0 135 135" fill="none" xmlns="http://www.w3.org/2000/svg">
<path d="M130.891 78.0871L122.981 73.5201C123.194 71.5417 123.306 69.5337 123.306 67.5C123.306 65.4663 123.194 63.4583 122.981 61.4799L130.891 56.9129C132.581 55.937 133.79 54.361 134.295 52.4749C134.8 50.5893 134.54 48.6192 133.565 46.9291L118.348 20.5718C117.046 18.316 114.618 16.9155 112.011 16.9155C110.735 16.9155 109.474 17.2543 108.363 17.8958L100.431 22.4753C97.2075 20.1111 93.7219 18.0843 90.0259 16.4474V7.30873C90.0264 3.27876 86.7463 0 82.7181 0H52.2817C48.2517 0 44.9738 3.27876 44.9738 7.30873V16.4474C41.2783 18.0843 37.7927 20.1111 34.5684 22.4753L26.636 17.8958C25.5251 17.2543 24.2648 16.9159 22.9888 16.9159C20.382 16.9159 17.9533 18.316 16.6512 20.5718L1.435 46.9286C0.458643 48.6187 0.199966 50.5893 0.705998 52.4749C1.20942 54.3606 2.41963 55.9366 4.10887 56.9129L12.0194 61.4799C11.8065 63.4583 11.6941 65.4663 11.6941 67.5C11.6941 69.5337 11.8065 71.5417 12.0194 73.5201L4.10887 78.0871C2.41963 79.063 1.20942 80.639 0.705998 82.5251C0.199966 84.4107 0.458643 86.3813 1.435 88.071L16.6512 114.428C17.9533 116.684 20.3816 118.084 22.9888 118.084C24.2648 118.084 25.5251 117.746 26.636 117.104L34.5688 112.525C37.7927 114.889 41.2783 116.916 44.9742 118.553V127.692C44.9742 129.644 45.7337 131.478 47.1142 132.859C48.4964 134.239 50.3303 135 52.2821 135H82.7185C86.7467 135 90.0264 131.721 90.0264 127.692V118.553C93.7219 116.916 97.2075 114.889 100.431 112.525L108.364 117.105C109.475 117.746 110.736 118.085 112.012 118.085C114.619 118.085 117.046 116.684 118.348 114.429L133.566 88.0718C134.541 86.3817 134.801 84.4111 134.295 82.5255C133.791 80.6394 132.581 79.0634 130.891 78.0871ZM67.5001 107.173C59.5612 107.173 52.168 104.84 45.9658 100.824L59.3792 87.4095C62.1876 88.6166 65.2364 89.2559 68.3837 89.2563C68.3846 89.2563 68.385 89.2563 68.3854 89.2563C74.487 89.2563 80.2197 86.876 84.5262 82.5542C90.4052 76.6595 92.6005 68.0252 90.255 60.021C90.1187 59.5555 89.7463 59.1962 89.276 59.0764C88.8066 58.9558 88.3071 59.0939 87.9648 59.4375L73.6069 73.8385C72.745 73.4883 70.5755 72.296 66.5581 68.2921C62.5404 64.287 61.3428 62.12 60.9913 61.26L75.3475 46.8589C75.6902 46.5153 75.8257 46.0163 75.7046 45.5468C75.5835 45.0769 75.2234 44.7059 74.7574 44.5709C72.6884 43.9708 70.5437 43.666 68.3832 43.666C62.2795 43.666 56.5464 46.0455 52.2403 50.3659C47.9408 54.6785 45.5778 60.4068 45.5861 66.4958C45.5905 69.633 46.2289 72.6709 47.4325 75.4685L34.0536 88.8483C30.1116 82.6845 27.8258 75.3592 27.8258 67.5C27.8258 45.5895 45.5878 27.8265 67.5001 27.8265C89.4123 27.8265 107.174 45.5895 107.174 67.5C107.174 89.4105 89.4119 107.173 67.5001 107.173Z" fill="white"/>
</svg>
