<svg width="60" height="60" viewBox="0 0 60 60" fill="none" xmlns="http://www.w3.org/2000/svg">
<g clip-path="url(#clip0)">
<path d="M58.2523 26.1259C58.4311 26.2268 58.6297 26.2772 58.8281 26.2772C59.0324 26.2772 59.2366 26.2237 59.4191 26.1172C59.7788 25.9071 60 25.5218 60 25.1053V18.7704C60 18.3476 59.7723 17.9574 59.404 17.7497L30.5759 1.48521C30.2183 1.28353 29.7816 1.28353 29.4241 1.48521L0.596016 17.7497C0.227812 17.9574 0 18.3476 0 18.7704V25.1053C0 25.5219 0.221133 25.9072 0.580898 26.1172C0.940664 26.3273 1.38492 26.3307 1.74773 26.1259L5.51742 23.999V50.8054H1.17188C0.524648 50.8054 0 51.3301 0 51.9773V57.4946C0 58.1418 0.524648 58.6665 1.17188 58.6665H24.7266C25.3738 58.6665 25.8984 58.1418 25.8984 57.4946C25.8984 56.8474 25.3738 56.3227 24.7266 56.3227H2.34375V53.1492H57.6562V56.3227H35.2734C34.6263 56.3227 34.1016 56.8474 34.1016 57.4946C34.1016 58.1418 34.6263 58.6665 35.2734 58.6665H58.8281C59.4752 58.6665 60 58.1418 60 57.4946V51.9773C60 51.3301 59.4752 50.8054 58.8281 50.8054H54.4827V23.9992L58.2523 26.1259ZM2.34375 19.4547L30 3.85146L57.6562 19.4546V23.0984L30.5759 7.82013C30.3971 7.71935 30.1985 7.66896 30 7.66896C29.8015 7.66896 29.6029 7.71935 29.4241 7.82013L2.34375 23.0986V19.4547ZM52.1389 50.8056H7.86105V22.6768L30 10.1864L52.1389 22.6768V50.8056Z" fill="#0082C5"/>
<path d="M30 58.6669C30.6472 58.6669 31.1719 58.1422 31.1719 57.495C31.1719 56.8478 30.6472 56.3232 30 56.3232C29.3528 56.3232 28.8281 56.8478 28.8281 57.495C28.8281 58.1422 29.3528 58.6669 30 58.6669Z" fill="#0082C5"/>
<path d="M24.6586 23.3631C23.6734 24.3343 22.985 25.529 22.6418 26.8344C22.1521 26.6735 21.6359 26.5897 21.1113 26.5897C18.409 26.5897 16.2105 28.7881 16.2105 31.4905C16.2105 34.1921 18.409 36.3901 21.1113 36.3901H21.7969V39.0611L18.7092 40.0906C18.0653 39.2657 17.0626 38.7338 15.9375 38.7338C13.999 38.7338 12.4219 40.3109 12.4219 42.2494C12.4219 44.188 13.999 45.7651 15.9375 45.7651C17.8545 45.7651 19.4169 44.2225 19.4515 42.3137L23.3393 41.0173C23.8179 40.8578 24.1406 40.41 24.1406 39.9056V36.3899H28.8281V38.9353C27.4642 39.419 26.4844 40.7216 26.4844 42.2493C26.4844 44.1878 28.0615 45.765 30 45.765C31.9385 45.765 33.5156 44.1878 33.5156 42.2493C33.5156 40.7217 32.5358 39.419 31.1719 38.9353V36.3899H35.8594V39.9056C35.8594 40.41 36.1821 40.8577 36.6607 41.0173L40.5485 42.3135C40.5831 44.2224 42.1455 45.765 44.0625 45.765C46.001 45.765 47.5781 44.1878 47.5781 42.2493C47.5781 40.3108 46.001 38.7337 44.0625 38.7337C42.9374 38.7337 41.9347 39.2656 41.2908 40.0905L38.2031 39.061V36.3899H38.8887C41.591 36.3899 43.7895 34.192 43.7895 31.4903C43.7895 28.788 41.5909 26.5896 38.8887 26.5896C38.364 26.5896 37.8479 26.6735 37.3582 26.8342C37.015 25.5289 36.3266 24.3342 35.3414 23.363C33.9088 21.9508 32.0119 21.173 30 21.173C27.9881 21.173 26.0912 21.9509 24.6586 23.3631ZM15.9375 43.4212C15.2913 43.4212 14.7656 42.8955 14.7656 42.2493C14.7656 41.6032 15.2913 41.0775 15.9375 41.0775C16.5837 41.0775 17.1094 41.6032 17.1094 42.2493C17.1094 42.8955 16.5837 43.4212 15.9375 43.4212ZM30 43.4212C29.3538 43.4212 28.8281 42.8955 28.8281 42.2493C28.8281 41.6032 29.3538 41.0775 30 41.0775C30.6462 41.0775 31.1719 41.6032 31.1719 42.2493C31.1719 42.8955 30.6462 43.4212 30 43.4212ZM44.0625 41.0775C44.7087 41.0775 45.2344 41.6032 45.2344 42.2493C45.2344 42.8955 44.7087 43.4212 44.0625 43.4212C43.4163 43.4212 42.8906 42.8955 42.8906 42.2493C42.8906 41.6032 43.4163 41.0775 44.0625 41.0775ZM35.2642 28.7002C35.2711 29.157 35.5427 29.5681 35.9603 29.7536C36.3778 29.9391 36.865 29.8651 37.2084 29.5639C37.6723 29.1574 38.269 28.9334 38.8887 28.9334C40.2987 28.9334 41.4457 30.0806 41.4457 31.4905C41.4457 32.8998 40.2987 34.0463 38.8887 34.0463H21.1113C19.7014 34.0463 18.5543 32.8998 18.5543 31.4905C18.5543 30.0806 19.7014 28.9334 21.1113 28.9334C21.7311 28.9334 22.3279 29.1574 22.7916 29.5639C23.1349 29.8649 23.6222 29.9391 24.0397 29.7536C24.4571 29.5682 24.7289 29.157 24.7357 28.7003C24.7786 25.8422 27.1402 23.5171 29.9999 23.5171C32.8596 23.5171 35.2213 25.8421 35.2642 28.7002Z" fill="#0082C5"/>
</g>
<defs>
<clipPath id="clip0">
<rect width="60" height="60" fill="white"/>
</clipPath>
</defs>
</svg>
