<svg width="60" height="60" viewBox="0 0 60 60" fill="none" xmlns="http://www.w3.org/2000/svg">
<path d="M59.1203 33.7723H55.48C54.9946 33.7723 54.6011 34.1659 54.6011 34.6513V37.4124H51.8399C51.3545 37.4124 50.961 37.806 50.961 38.2914V41.0526H44.5527C43.0342 41.0526 41.7988 39.8172 41.7988 38.2986V34.6332C42.9026 33.8084 43.6185 32.4918 43.6185 31.0111C43.6185 30.2277 43.4178 29.4905 43.0657 28.8475L49.6606 25.04C50.9185 24.312 51.351 22.6964 50.6248 21.4387L48.3025 17.4168L50.6945 16.0359C50.8965 15.9193 51.0436 15.7273 51.1041 15.5022C51.1645 15.2771 51.1328 15.0372 51.0162 14.8353L47.3726 8.52433C46.1279 6.3704 43.363 5.62954 41.2093 6.87279L31.8764 12.2611C31.4561 12.5038 31.312 13.0414 31.5547 13.4617C31.7974 13.8822 32.335 14.0261 32.7553 13.7834L42.0882 8.39519C43.4031 7.63616 45.0908 8.08885 45.8506 9.40347L49.0545 14.9529L18.8396 32.3971L11.6137 25.9894L29.438 15.6982C29.8583 15.4556 30.0024 14.918 29.7597 14.4977C29.5168 14.0773 28.9792 13.9333 28.5591 14.176L9.67884 25.0768C9.43415 25.2182 9.27232 25.4684 9.24384 25.7494C9.21536 26.0305 9.32376 26.3081 9.53517 26.4955L14.3643 30.7779L13.4898 31.2827L9.67193 31.5936C8.95919 31.7788 8.72927 32.2174 8.98216 32.9091L10.7037 35.8904C10.9465 36.3106 11.484 36.4545 11.9044 36.2121C12.3247 35.9694 12.4687 35.4317 12.226 35.0114L11.199 33.2329L13.2751 33.0638L16.3654 38.4177L15.2061 40.1738L14.1408 38.329C13.8981 37.9087 13.3606 37.7647 12.9401 38.0074C12.5197 38.2501 12.3758 38.7878 12.6185 39.2081L14.3951 42.2843C14.7238 42.8534 15.5319 42.871 15.8897 42.329L18.0173 39.106L23.3811 36.0084L23.8829 36.8776C24.6213 38.1551 26.2665 38.5473 27.4844 37.8423L35.2429 33.3638C35.5449 33.8569 35.9384 34.2882 36.4001 34.6332V38.3058C36.4001 42.8519 40.2889 46.5576 44.799 46.4504C45.2844 46.4504 45.6779 46.0568 45.6779 45.5715C45.6779 45.0861 45.2844 44.6925 44.799 44.6925C41.2664 44.6688 38.158 41.9843 38.158 38.3058V35.4309C38.7857 35.5634 39.4134 35.5634 40.0412 35.4309V38.2986C40.0412 40.7864 42.0651 42.8104 44.5529 42.8104H50.9608V44.6924H48.6287C48.1433 44.6924 47.7498 45.0859 47.7498 45.5713C47.7498 46.0567 48.1433 46.4502 48.6287 46.4502H50.9611V49.2118C50.9611 49.6972 51.3547 50.0907 51.8401 50.0907H54.6012V52.8519C54.6012 53.3373 54.9948 53.7308 55.4802 53.7308H59.1204C59.6058 53.7308 59.9993 53.3373 59.9993 52.8519V34.6513C59.9992 34.1659 59.6057 33.7723 59.1203 33.7723ZM17.7197 37.2478L14.9586 32.4644L15.7505 32.0072L18.1471 34.1326C18.4769 34.3878 18.8177 34.4223 19.1697 34.2362L21.5609 32.8556L22.5021 34.4858L17.7197 37.2478ZM26.6046 36.3202C26.1158 36.5445 25.716 36.4372 25.4048 35.9981L23.0833 31.9768L46.7803 18.2956L49.1026 22.3176C49.3448 22.7368 49.2 23.2755 48.781 23.5181L41.9165 27.4812C38.7855 24.9773 34.0335 27.7189 34.6313 31.6869L26.6046 36.3202ZM36.3383 31.011C36.3383 29.4885 37.5769 28.2498 39.0996 28.2498C40.6222 28.2498 41.8608 29.4885 41.8608 31.011C41.8608 32.5335 40.6221 33.7723 39.0996 33.7723C37.5771 33.7723 36.3383 32.5335 36.3383 31.011ZM52.719 48.3329V39.1703H54.6012V48.3329H52.719ZM58.2413 51.973H56.359V35.5302H58.2413V51.973Z" fill="#0082C5"/>
<path d="M13.7719 8.18164C14.2573 8.18164 14.6508 7.78813 14.6508 7.30273C14.6508 6.81734 14.2573 6.42383 13.7719 6.42383C6.17801 6.42383 0 12.6018 0 20.1957C0 20.6811 0.393516 21.0746 0.878906 21.0746C1.3643 21.0746 1.75781 20.6811 1.75781 20.1957C1.75781 13.5711 7.14727 8.18164 13.7719 8.18164Z" fill="#0082C5"/>
<path d="M13.6197 11.8213C14.1051 11.8213 14.4986 11.4278 14.4986 10.9424C14.4986 10.457 14.1051 10.0635 13.6197 10.0635C8.11719 10.0635 3.64062 14.5402 3.64062 20.0427C3.64062 20.5281 4.03414 20.9216 4.51953 20.9216C5.00492 20.9216 5.39844 20.5281 5.39844 20.0427C5.39844 15.5094 9.08645 11.8213 13.6197 11.8213Z" fill="#0082C5"/>
<path d="M13.6257 15.451C14.1111 15.451 14.5046 15.0574 14.5046 14.5721C14.5046 14.0867 14.1111 13.6931 13.6257 13.6931C10.1274 13.6931 7.28125 16.5393 7.28125 20.0376C7.28125 20.5229 7.67477 20.9165 8.16016 20.9165C8.64555 20.9165 9.03906 20.5229 9.03906 20.0376C9.03918 17.5085 11.0966 15.451 13.6257 15.451Z" fill="#0082C5"/>
</svg>
