<svg width="60" height="60" viewBox="0 0 60 60" fill="none" xmlns="http://www.w3.org/2000/svg">
<path d="M49.222 56.3137C47.5369 57.5748 45.5302 58.2415 43.4188 58.2415H17.1055C11.7598 58.2415 7.41062 53.8923 7.41062 48.5466C7.41062 43.2009 11.7597 38.8517 17.1055 38.8517H22.6539C23.1394 38.8517 23.533 38.4581 23.533 37.9725C23.533 37.487 23.1394 37.0934 22.6539 37.0934H17.1055C10.7902 37.0934 5.65234 42.2313 5.65234 48.5466C5.65234 54.8619 10.7902 59.9998 17.1055 59.9998H43.4189C45.9132 59.9998 48.2841 59.2119 50.2756 57.7213C50.6643 57.4303 50.7435 56.8794 50.4527 56.4907C50.1617 56.102 49.6107 56.0228 49.222 56.3137Z" fill="#0082C5"/>
<path d="M43.4192 37.0934H33.8058C33.5224 35.2463 31.9226 33.8271 29.9974 33.8271C27.8729 33.8271 26.1445 35.5555 26.1445 37.68C26.1445 39.8044 27.8729 41.5327 29.9974 41.5327C31.7135 41.5327 33.1705 40.4048 33.6675 38.8516H43.4191C48.7649 38.8516 53.114 43.2008 53.114 48.5465C53.114 50.3344 52.6236 52.0812 51.6958 53.5979C51.4425 54.012 51.5728 54.5532 51.9871 54.8066C52.1301 54.8941 52.2886 54.9358 52.4449 54.9358C52.7409 54.9358 53.0299 54.7863 53.1957 54.5153C54.2925 52.7224 54.8722 50.6584 54.8722 48.5465C54.8724 42.2313 49.7345 37.0934 43.4192 37.0934ZM29.9974 39.7746C28.8424 39.7746 27.9028 38.835 27.9028 37.68C27.9028 36.525 28.8424 35.5853 29.9974 35.5853C31.1524 35.5853 32.092 36.525 32.092 37.68C32.092 38.835 31.1524 39.7746 29.9974 39.7746Z" fill="#0082C5"/>
<path d="M44.0276 25.6348C44.5525 26.5231 45.52 27.0749 46.5524 27.0749C47.0748 27.0749 47.5896 26.9339 48.0411 26.667C48.715 26.2688 49.1935 25.632 49.3884 24.874C49.5834 24.1159 49.4714 23.3272 49.0732 22.6534C47.149 19.3972 44.4056 16.669 41.1395 14.7637C37.7701 12.7981 33.917 11.7591 29.9968 11.7591C26.0767 11.7591 22.2237 12.7981 18.8542 14.7636C15.5882 16.6688 12.8447 19.3971 10.9205 22.6532C10.5223 23.3271 10.4103 24.1157 10.6052 24.8738C10.8002 25.6319 11.2787 26.2687 11.9525 26.6668C13.297 27.4973 15.1914 27.0068 15.9663 25.6347C18.8877 20.6911 24.2638 17.6199 29.9967 17.6199C35.7296 17.6199 41.1062 20.6911 44.0276 25.6348ZM14.453 24.7404C14.1437 25.2895 13.3834 25.4851 12.8475 25.1532C12.578 24.994 12.3865 24.7392 12.3086 24.4359C12.2306 24.1326 12.2754 23.8173 12.4346 23.5477C14.2066 20.5491 16.733 18.0369 19.7406 16.2822C22.8414 14.4733 26.388 13.5173 29.9972 13.5173C33.6063 13.5173 37.153 14.4734 40.2538 16.2823C43.2614 18.0369 45.7877 20.5491 47.5597 23.5479C48.0322 24.2892 47.4292 25.3435 46.5525 25.3166C46.1326 25.3166 45.7546 25.1012 45.5414 24.7404C42.3052 19.2638 36.349 15.8618 29.9972 15.8618C23.6454 15.8618 17.6891 19.2638 14.453 24.7404Z" fill="#0082C5"/>
<path d="M58.4149 15.4106C52.1236 5.76094 41.5 0 29.9967 0C25.6908 0 21.4902 0.797461 17.5117 2.37023C17.0602 2.54871 16.8388 3.05941 17.0174 3.51094C17.1959 3.96246 17.7067 4.18395 18.1581 4.00523C21.9299 2.51414 25.913 1.75816 29.9967 1.75816C40.9034 1.75816 50.9764 7.22086 56.9421 16.3709C57.1131 16.6331 57.1717 16.9463 57.1072 17.2526C56.934 18.2503 55.5005 18.5188 54.9783 17.6511C49.447 9.16758 40.1081 4.10262 29.9967 4.10262C19.8853 4.10262 10.5464 9.16758 5.01515 17.6515C4.68093 18.1862 3.91605 18.348 3.39316 17.9931C3.13089 17.8221 2.95089 17.5591 2.88632 17.2528C2.82187 16.9465 2.88046 16.6334 3.05156 16.371C5.97703 11.8839 9.99199 8.17231 14.6625 5.63766C15.0892 5.40609 15.2474 4.87242 15.0158 4.44563C14.7841 4.01883 14.2506 3.86063 13.8238 4.09231C8.89734 6.76594 4.663 10.6798 1.57851 15.4107C0.690816 16.7123 1.09546 18.6329 2.43269 19.4659C2.91023 19.7773 3.463 19.9419 4.03125 19.9419C5.02664 19.9419 5.94503 19.4446 6.48796 18.6117C11.6936 10.6275 20.4819 5.8609 29.9967 5.8609C39.5115 5.8609 48.2999 10.6275 53.5055 18.6116C54.3401 19.948 56.2534 20.3548 57.5606 19.4659C58.2164 19.0384 58.6664 18.3812 58.8278 17.6152C58.9891 16.8491 58.8425 16.0663 58.4149 15.4106Z" fill="#0082C5"/>
<path d="M34.5356 32.3454C35.0766 33.1947 36.0013 33.7019 37.0094 33.7019C37.5663 33.7019 38.11 33.5433 38.5814 33.243C39.9443 32.3751 40.3471 30.5601 39.4791 29.1972C37.4025 25.9362 33.8581 23.9892 29.9978 23.9892C26.1375 23.9892 22.593 25.9362 20.5165 29.1972C19.6485 30.5601 20.0513 32.3751 21.4141 33.243C22.0754 33.6651 22.8659 33.8011 23.623 33.6322C24.3872 33.4626 25.0396 33.0056 25.4599 32.3454C26.455 30.7829 28.1514 29.8501 29.9978 29.8501C31.8442 29.8501 33.5406 30.7828 34.5356 32.3454ZM23.9769 31.4011C23.8089 31.6651 23.5479 31.8479 23.2423 31.9156C22.9366 31.9837 22.6228 31.9282 22.3586 31.76C21.8134 31.4129 21.6524 30.6868 21.9996 30.1417C23.7518 27.3902 26.7417 25.7475 29.9979 25.7475C33.2541 25.7475 36.244 27.3902 37.9962 30.1417C38.3434 30.6869 38.1823 31.4129 37.6372 31.76C37.11 32.1091 36.3475 31.94 36.0189 31.401C34.6994 29.3288 32.4485 28.0918 29.998 28.0918C27.5475 28.0918 25.2965 29.3288 23.9769 31.4011Z" fill="#0082C5"/>
<path d="M18.8349 45.8135C19.3204 45.8135 19.7141 45.4199 19.7141 44.9344C19.7141 44.4489 19.3204 44.0553 18.8349 44.0553H15.6877C15.2022 44.0553 14.8086 44.4489 14.8086 44.9344V52.6996C14.8086 53.1851 15.2022 53.5787 15.6877 53.5787C16.1732 53.5787 16.5669 53.1851 16.5669 52.6996V49.6226H18.585C19.0705 49.6226 19.4641 49.229 19.4641 48.7435C19.4641 48.258 19.0705 47.8643 18.585 47.8643H16.5669V45.8135H18.8349Z" fill="#0082C5"/>
<path d="M36.4341 45.7466C36.9196 45.7466 37.3132 45.353 37.3132 44.8674C37.3132 44.3819 36.9196 43.9883 36.4341 43.9883H33.1682C32.6827 43.9883 32.2891 44.3819 32.2891 44.8674V52.6186C32.2891 53.1041 32.6827 53.4977 33.1682 53.4977H36.4341C36.9196 53.4977 37.3132 53.1041 37.3132 52.6186C37.3132 52.1331 36.9196 51.7394 36.4341 51.7394H34.0473V49.6221H36.1934C36.6789 49.6221 37.0725 49.2285 37.0725 48.743C37.0725 48.2574 36.6789 47.8638 36.1934 47.8638H34.0473V45.7465H36.4341V45.7466Z" fill="#0082C5"/>
<path d="M44.9459 45.7466C45.4314 45.7466 45.8251 45.353 45.8251 44.8674C45.8251 44.3819 45.4314 43.9883 44.9459 43.9883H41.6799C41.1944 43.9883 40.8008 44.3819 40.8008 44.8674V52.6186C40.8008 53.1041 41.1944 53.4977 41.6799 53.4977H44.9459C45.4314 53.4977 45.8251 53.1041 45.8251 52.6186C45.8251 52.1331 45.4314 51.7394 44.9459 51.7394H42.5591V49.6221H44.7051C45.1906 49.6221 45.5843 49.2285 45.5843 48.743C45.5843 48.2574 45.1906 47.8638 44.7051 47.8638H42.5591V45.7465H44.9459V45.7466Z" fill="#0082C5"/>
<path d="M28.8938 46.9331C28.8938 45.3274 27.5359 44.021 25.8666 44.021H23.788C23.7875 44.021 23.7871 44.0211 23.7867 44.0211C23.7862 44.0211 23.7859 44.021 23.7854 44.021C23.2999 44.021 22.9062 44.4146 22.9062 44.9001V52.7226C22.9062 53.2081 23.2999 53.6018 23.7854 53.6018C24.2709 53.6018 24.6645 53.2081 24.6645 52.7226V50.2468L27.3547 53.3034C27.5285 53.5009 27.7711 53.6018 28.0149 53.6018C28.2212 53.6018 28.4284 53.5296 28.5954 53.3825C28.9598 53.0618 28.9952 52.5063 28.6745 52.1417L26.5805 49.7626C27.9063 49.453 28.8938 48.3022 28.8938 46.9331ZM25.8666 48.0869C25.5905 48.0869 25.1069 48.089 24.6765 48.0911C24.6743 47.67 24.6711 46.2202 24.6697 45.7793H25.8666C26.5544 45.7793 27.1355 46.3077 27.1355 46.9331C27.1355 47.5585 26.5544 48.0869 25.8666 48.0869Z" fill="#0082C5"/>
</svg>
