<svg width="60" height="60" viewBox="0 0 60 60" fill="none" xmlns="http://www.w3.org/2000/svg">
<g clip-path="url(#clip0)">
<path d="M10.5528 46.4003C9.71283 46.4003 8.90533 46.61 8.18893 47.0036C4.41513 42.166 2.34375 36.1565 2.34375 30C2.34375 14.7501 14.7501 2.34375 30 2.34375C31.8539 2.34375 33.707 2.52823 35.5078 2.89215C36.1414 3.02032 36.7603 2.61017 36.8884 1.97571C37.0166 1.34125 36.6064 0.723267 35.972 0.594635C34.0187 0.200043 32.0096 0 30 0C21.9868 0 14.453 3.12057 8.78677 8.78677C3.12057 14.453 0 21.9868 0 30C0 36.7406 2.28882 43.3186 6.45584 48.5921C5.91934 49.3936 5.63095 50.3357 5.63095 51.3222C5.63095 52.6369 6.14319 53.8728 7.07291 54.8021C8.00217 55.7318 9.23813 56.244 10.5528 56.244C11.8675 56.244 13.1035 55.7318 14.0332 54.8021C14.9629 53.8728 15.4747 52.6364 15.4747 51.3217C15.4747 50.0075 14.9629 48.7711 14.0332 47.8418C13.1035 46.9121 11.8675 46.4003 10.5528 46.4003ZM12.3756 53.145C11.889 53.632 11.2413 53.9003 10.5528 53.9003C9.86435 53.9003 9.21707 53.632 8.73001 53.145C8.24295 52.6579 7.9747 52.0107 7.9747 51.3222C7.9747 50.6332 8.24295 49.986 8.73001 49.4989C9.21661 49.0118 9.86435 48.744 10.5528 48.744C11.2413 48.744 11.8886 49.0123 12.3756 49.4989C12.8627 49.986 13.131 50.6332 13.131 51.3222C13.131 52.0107 12.8627 52.6579 12.3756 53.145Z" fill="#0082C5"/>
<path d="M53.5412 11.4066C54.8152 9.49539 54.6106 6.88248 52.9255 5.19745C51.9958 4.26819 50.7599 3.75595 49.4452 3.75595C48.1305 3.75595 46.8945 4.26819 45.9648 5.19745C45.0351 6.12717 44.5233 7.36313 44.5233 8.67783C44.5233 9.99252 45.0351 11.2285 45.9648 12.1582C46.8945 13.0879 48.1305 13.5997 49.4452 13.5997C50.2852 13.5997 51.0926 13.39 51.809 12.9964C55.5829 17.8345 57.6542 23.8435 57.6542 30C57.6542 45.2499 45.2479 57.6562 29.998 57.6562C28.1623 57.6562 26.3267 57.4754 24.5428 57.1184C23.9084 56.9916 23.2908 57.4031 23.1636 58.0376C23.0368 58.6725 23.4483 59.2896 24.0828 59.4168C26.0177 59.8036 28.0081 60 29.998 60C38.0111 60 45.545 56.8794 51.2112 51.2132C56.8774 45.547 59.998 38.0132 59.998 30C59.998 23.259 57.7087 16.6805 53.5412 11.4066ZM47.6223 10.5011C47.1353 10.014 46.867 9.36676 46.867 8.67783C46.867 7.98935 47.1353 7.34207 47.6223 6.85501C48.1089 6.36795 48.7567 6.0997 49.4452 6.0997C50.1336 6.0997 50.7814 6.36795 51.2684 6.85501C52.2732 7.86026 52.2732 9.49585 51.2684 10.5011C50.7814 10.9877 50.1336 11.256 49.4452 11.256C48.7562 11.256 48.1089 10.9877 47.6223 10.5011Z" fill="#0082C5"/>
<path d="M25.166 50.1562C25.166 50.8035 25.6911 51.3281 26.3379 51.3281H33.6653C34.3126 51.3281 34.8372 50.8035 34.8372 50.1562V47.8844C36.378 47.4696 37.8511 46.859 39.2354 46.0616L40.8394 47.6656C41.0591 47.8853 41.3571 48.0089 41.6684 48.0089C41.9788 48.0089 42.2772 47.8853 42.4969 47.6651L47.6761 42.4823C48.1334 42.0245 48.1334 41.2825 47.6761 40.8252L46.0739 39.223C46.8713 37.8387 47.482 36.3657 47.8967 34.8248H50.1599C50.8072 34.8248 51.3318 34.3002 51.3318 33.653V26.3255C51.3318 25.6783 50.8072 25.1537 50.1599 25.1537H47.8963C47.4815 23.6133 46.8713 22.1402 46.0739 20.7559L47.6674 19.1624C47.8871 18.9427 48.0107 18.6443 48.0107 18.3334C48.0103 18.0226 47.8867 17.7242 47.6669 17.5044L42.4837 12.3253C42.0264 11.868 41.2843 11.868 40.8266 12.3257L39.2354 13.9174C37.8511 13.12 36.378 12.5093 34.8372 12.0946V9.84375C34.8372 9.19647 34.3126 8.67188 33.6653 8.67188H26.3379C25.6911 8.67188 25.166 9.19647 25.166 9.84375V12.095C23.6256 12.5093 22.1526 13.12 20.7683 13.9174L19.1766 12.3257C18.7193 11.8684 17.9773 11.868 17.5195 12.3253L12.3367 17.5049C12.1165 17.7246 11.993 18.0226 11.993 18.3334C11.993 18.6443 12.1165 18.9427 12.3363 19.1624L13.9297 20.7559C13.1323 22.1402 12.5217 23.6128 12.1069 25.1537H9.84787C9.20059 25.1537 8.676 25.6783 8.676 26.3251L8.67188 33.6525C8.67142 33.9633 8.79501 34.2618 9.01474 34.4815C9.23447 34.7012 9.53247 34.8248 9.84375 34.8248H12.1069C12.5217 36.3657 13.1323 37.8387 13.9297 39.223L12.3276 40.8252C11.8703 41.2825 11.8698 42.0245 12.3276 42.4823L17.5067 47.6651C17.7264 47.8848 18.0244 48.0089 18.3353 48.0089H18.3357C18.6465 48.0089 18.9446 47.8853 19.1643 47.6656L20.7678 46.0616C22.1526 46.859 23.6256 47.4696 25.166 47.8844V50.1562ZM21.2274 43.597C20.7637 43.2971 20.1535 43.3621 19.7626 43.7526L18.3357 45.1794L14.8132 41.6542L16.2387 40.2283C16.6292 39.8378 16.6942 39.2276 16.3943 38.7639C15.3319 37.1196 14.5848 35.3174 14.1747 33.4067C14.0584 32.867 13.5814 32.4811 13.0289 32.4811H11.0161L11.0188 27.4974H13.0289C13.5814 27.4974 14.0584 27.112 14.1747 26.5718C14.5848 24.6616 15.3319 22.8593 16.3943 21.2151C16.6942 20.7513 16.6292 20.1411 16.2387 19.7507L14.8224 18.3339L18.3476 14.8114L19.7626 16.2268C20.1535 16.6173 20.7632 16.6818 21.2274 16.3824C22.8712 15.32 24.6735 14.5729 26.5842 14.1628C27.1239 14.0465 27.5098 13.569 27.5098 13.017V11.0156H32.4934V13.0165C32.4934 13.569 32.8789 14.0465 33.419 14.1623C35.3293 14.5729 37.132 15.3195 38.7758 16.382C39.2395 16.6818 39.8497 16.6173 40.2402 16.2263L41.6556 14.8114L45.1808 18.3339L43.7645 19.7502C43.3736 20.1411 43.309 20.7513 43.6089 21.2151C44.6713 22.8593 45.4179 24.6616 45.8286 26.5718C45.9444 27.112 46.4218 27.4974 46.9743 27.4974H48.988V32.4811H46.9743C46.4218 32.4811 45.9448 32.867 45.8286 33.4067C45.4184 35.3169 44.6713 37.1196 43.6089 38.7634C43.309 39.2276 43.374 39.8378 43.7645 40.2283L45.19 41.6537L41.6675 45.179L40.2406 43.7526C39.8497 43.3617 39.2395 43.2971 38.7758 43.597C37.1315 44.6594 35.3293 45.406 33.419 45.8167C32.8789 45.9329 32.4934 46.4099 32.4934 46.9624V48.9844H27.5098V46.9624C27.5098 46.4104 27.1239 45.9329 26.5842 45.8167C24.6739 45.4065 22.8717 44.6594 21.2274 43.597Z" fill="#0082C5"/>
<path d="M39.6826 30C39.6826 24.6606 35.3388 20.3169 29.9995 20.3169C24.6601 20.3169 20.3164 24.6606 20.3164 30C20.3164 35.3394 24.6601 39.6831 29.9995 39.6831C35.3388 39.6831 39.6826 35.3394 39.6826 30ZM22.6602 30C22.6602 25.9529 25.9524 22.6607 29.9995 22.6607C34.0466 22.6607 37.3388 25.9534 37.3388 30C37.3388 34.0466 34.0466 37.3393 29.9995 37.3393C25.9524 37.3393 22.6602 34.0471 22.6602 30Z" fill="#0082C5"/>
<path d="M40.7891 4.43207C41.0976 4.43207 41.3997 4.30664 41.6176 4.08875C41.8355 3.86948 41.9609 3.56735 41.9609 3.25882C41.9609 2.95212 41.836 2.64954 41.6176 2.43027C41.3997 2.21237 41.0976 2.08694 40.7891 2.08694C40.4796 2.08694 40.1789 2.21237 39.961 2.43027C39.7426 2.64954 39.6172 2.95074 39.6172 3.25882C39.6172 3.56827 39.7426 3.86948 39.961 4.08875C40.1789 4.30664 40.4796 4.43207 40.7891 4.43207Z" fill="#0082C5"/>
<path d="M19.2617 55.589C18.9536 55.589 18.6511 55.7144 18.4332 55.9323C18.2153 56.1502 18.0898 56.4528 18.0898 56.7609C18.0898 57.0703 18.2153 57.3715 18.4332 57.5894C18.6511 57.8073 18.9536 57.9327 19.2617 57.9327C19.5698 57.9327 19.8724 57.8073 20.0903 57.5894C20.3082 57.3715 20.4336 57.0689 20.4336 56.7609C20.4336 56.4528 20.3082 56.1502 20.0903 55.9323C19.8724 55.7144 19.5698 55.589 19.2617 55.589Z" fill="#0082C5"/>
</g>
<defs>
<clipPath id="clip0">
<rect width="60" height="60" fill="white"/>
</clipPath>
</defs>
</svg>
