<svg width="60" height="60" viewBox="0 0 60 60" fill="none" xmlns="http://www.w3.org/2000/svg">
<g clip-path="url(#clip0)">
<path d="M50.0111 5.7345C49.5238 5.7345 49.1289 6.1293 49.1289 6.61668C49.1289 7.10395 49.5238 7.49887 50.0111 7.49887C51.3742 7.49887 52.4833 8.60782 52.4833 9.97094C52.4833 10.4582 52.8781 10.8531 53.3655 10.8531C53.8527 10.8531 54.2477 10.4583 54.2477 9.97094C54.2475 7.63504 52.3471 5.7345 50.0111 5.7345Z" fill="#0082C5"/>
<path d="M57.0088 2.97352C55.1192 1.08387 52.5686 0 50.0111 0C49.5238 0 49.1289 0.394805 49.1289 0.882187C49.1289 1.36945 49.5238 1.76437 50.0111 1.76437C54.3831 1.76437 58.2181 5.59934 58.2181 9.97113C58.2181 10.4584 58.6129 10.8533 59.1003 10.8533C59.5875 10.8533 59.9825 10.4585 59.9825 9.97113C59.9823 7.41387 58.8985 4.86316 57.0088 2.97352Z" fill="#0082C5"/>
<path d="M50.0111 2.89261C49.5238 2.89261 49.1289 3.28741 49.1289 3.7748C49.1289 4.26206 49.5238 4.65698 50.0111 4.65698C52.9416 4.65698 55.3258 7.04116 55.3258 9.97155C55.3258 10.4588 55.7206 10.8537 56.208 10.8537C56.6952 10.8537 57.0902 10.4589 57.0902 9.97155C57.0902 6.06816 53.9145 2.89261 50.0111 2.89261Z" fill="#0082C5"/>
<path d="M19.4838 12.4141C19.3238 12.2541 19.1038 12.1553 18.8603 12.1553H5.84559C4.63996 12.1553 3.66016 13.1363 3.66016 14.3408V26.3088C3.66016 26.7957 4.05531 27.191 4.54234 27.191C5.02902 27.191 5.42453 26.7958 5.42453 26.3088V14.3408C5.42453 14.1091 5.61391 13.9197 5.84559 13.9197H18.8275C19.2968 13.9197 19.7085 13.568 19.7403 13.0999C19.759 12.8316 19.6567 12.5869 19.4838 12.4141Z" fill="#0082C5"/>
<path d="M56.3557 22.4293H51.525V13.4148C51.525 10.6295 49.2596 8.36414 46.4743 8.36414H5.07019C2.28605 8.36414 0.0195312 10.6295 0.0195312 13.4148V37.8837C0.0195312 40.6678 2.28605 42.9343 5.07019 42.9343H23.057V44.9715H19.5295C18.3874 44.9715 17.4582 45.9007 17.4582 47.0428V48.0002C17.4582 49.1424 18.3874 50.0715 19.5295 50.0715H32.015C33.1571 50.0715 34.0863 49.1424 34.0863 48.0002V47.0428C34.0863 45.9007 33.1571 44.9715 32.015 44.9715H28.4875V42.9343H41.9023V56.3973C41.9023 58.384 43.5185 60.0001 45.505 60.0001H56.3557C58.3435 60.0001 59.9596 58.384 59.9596 56.3973V26.032C59.9595 24.0454 58.3434 22.4293 56.3557 22.4293ZM32.015 46.7358C32.182 46.7358 32.322 46.8757 32.322 47.0428V48.0002C32.322 48.1661 32.1821 48.3073 32.015 48.3073H19.5295C19.3625 48.3073 19.2225 48.1662 19.2225 48.0002V47.0428C19.2225 46.8758 19.3624 46.7358 19.5295 46.7358H32.015ZM24.8212 44.9715V42.9343H26.7232V44.9715H24.8212ZM41.9022 26.032V37.6049H5.84422C5.61254 37.6049 5.42316 37.4155 5.42316 37.1838V30.4253C5.42316 29.9384 5.02801 29.5431 4.54098 29.5431C4.05418 29.5431 3.65879 29.9382 3.65879 30.4253V37.1838C3.65879 38.3883 4.63859 39.3693 5.84422 39.3693H41.9023V41.1701H5.07031C3.25543 41.1701 1.78391 39.6987 1.78391 37.8837V13.4148C1.78391 11.5999 3.25531 10.1284 5.07031 10.1284H46.4742C48.2891 10.1284 49.7606 11.5998 49.7606 13.4148V22.4293H47.8869V14.3405C47.8869 13.1384 46.9036 12.155 45.7014 12.155H23.0087C22.1996 12.155 21.7913 13.0957 22.3523 13.6605C22.5123 13.8205 22.7322 13.9193 22.9757 13.9193H45.7014C45.9331 13.9193 46.1225 14.1087 46.1225 14.3403V22.4292H45.505C43.5148 22.4293 41.9022 24.0418 41.9022 26.032ZM56.3557 58.2356H45.505C44.4911 58.2356 43.6666 57.4111 43.6666 56.3972V53.3814H58.1953V56.3972C58.1953 57.4112 57.3696 58.2356 56.3557 58.2356ZM58.1953 30.8357H49.7742C49.287 30.8357 48.892 31.2306 48.892 31.7179C48.892 32.2051 49.2869 32.6 49.7742 32.6H58.1953V51.6171H43.6666V32.6H45.8144C46.3016 32.6 46.6966 32.2051 46.6966 31.7179C46.6966 31.2306 46.3017 30.8357 45.8144 30.8357H43.6666V26.032C43.6666 25.0167 44.4897 24.1936 45.505 24.1936H56.3557C57.3717 24.1936 58.1953 25.0172 58.1953 26.0332V30.8357Z" fill="#0082C5"/>
<path d="M55.6738 26.6027H52.7533C52.2664 26.6027 51.8711 26.9978 51.8711 27.4848C51.8711 27.9729 52.2663 28.367 52.7533 28.367H55.6738C56.1607 28.367 56.556 27.9731 56.556 27.4848C56.556 26.9978 56.1609 26.6027 55.6738 26.6027Z" fill="#0082C5"/>
<path d="M47.2087 34.4868H46.1869C45.6996 34.4868 45.3047 34.8816 45.3047 35.369C45.3047 35.8562 45.6995 36.2512 46.1869 36.2512H47.2087C47.696 36.2512 48.0909 35.8564 48.0909 35.369C48.0908 34.8817 47.696 34.4868 47.2087 34.4868Z" fill="#0082C5"/>
<path d="M51.4432 34.4868H50.4212C49.934 34.4868 49.5391 34.8816 49.5391 35.369C49.5391 35.8562 49.9339 36.2512 50.4212 36.2512H51.4432C51.9305 36.2512 52.3254 35.8564 52.3254 35.369C52.3254 34.8817 51.9305 34.4868 51.4432 34.4868Z" fill="#0082C5"/>
<path d="M55.6775 34.4868H54.6556C54.1684 34.4868 53.7734 34.8816 53.7734 35.369C53.7734 35.8562 54.1684 36.2512 54.6556 36.2512H55.6775C56.1648 36.2512 56.5597 35.8564 56.5597 35.369C56.5597 34.8817 56.1649 34.4868 55.6775 34.4868Z" fill="#0082C5"/>
<path d="M47.2087 38.8667H46.1869C45.6996 38.8667 45.3047 39.2615 45.3047 39.7489C45.3047 40.2361 45.6995 40.631 46.1869 40.631H47.2087C47.696 40.631 48.0909 40.2362 48.0909 39.7489C48.0908 39.2616 47.696 38.8667 47.2087 38.8667Z" fill="#0082C5"/>
<path d="M51.4432 38.8667H50.4212C49.934 38.8667 49.5391 39.2615 49.5391 39.7489C49.5391 40.2361 49.9339 40.631 50.4212 40.631H51.4432C51.9305 40.631 52.3254 40.2362 52.3254 39.7489C52.3254 39.2616 51.9305 38.8667 51.4432 38.8667Z" fill="#0082C5"/>
<path d="M55.6775 38.8667H54.6556C54.1684 38.8667 53.7734 39.2615 53.7734 39.7489C53.7734 40.2361 54.1684 40.631 54.6556 40.631H55.6775C56.1648 40.631 56.5597 40.2362 56.5597 39.7489C56.5597 39.2616 56.1649 38.8667 55.6775 38.8667Z" fill="#0082C5"/>
<path d="M47.2087 43.2466H46.1869C45.6996 43.2466 45.3047 43.6414 45.3047 44.1287C45.3047 44.616 45.6995 45.0109 46.1869 45.0109H47.2087C47.696 45.0109 48.0909 44.6161 48.0909 44.1287C48.0908 43.6415 47.696 43.2466 47.2087 43.2466Z" fill="#0082C5"/>
<path d="M51.4432 43.2466H50.4212C49.934 43.2466 49.5391 43.6414 49.5391 44.1287C49.5391 44.616 49.9339 45.0109 50.4212 45.0109H51.4432C51.9305 45.0109 52.3254 44.6161 52.3254 44.1287C52.3254 43.6415 51.9305 43.2466 51.4432 43.2466Z" fill="#0082C5"/>
<path d="M55.6775 43.2466H54.6556C54.1684 43.2466 53.7734 43.6414 53.7734 44.1287C53.7734 44.616 54.1684 45.0109 54.6556 45.0109H55.6775C56.1648 45.0109 56.5597 44.6161 56.5597 44.1287C56.5597 43.6415 56.1649 43.2466 55.6775 43.2466Z" fill="#0082C5"/>
<path d="M47.2087 47.6264H46.1869C45.6996 47.6264 45.3047 48.0212 45.3047 48.5086C45.3047 48.9959 45.6995 49.3908 46.1869 49.3908H47.2087C47.696 49.3908 48.0909 48.996 48.0909 48.5086C48.0908 48.0214 47.696 47.6264 47.2087 47.6264Z" fill="#0082C5"/>
<path d="M51.4432 47.6264H50.4212C49.934 47.6264 49.5391 48.0212 49.5391 48.5086C49.5391 48.9959 49.9339 49.3908 50.4212 49.3908H51.4432C51.9305 49.3908 52.3254 48.996 52.3254 48.5086C52.3254 48.0214 51.9305 47.6264 51.4432 47.6264Z" fill="#0082C5"/>
<path d="M55.6775 47.6264H54.6556C54.1684 47.6264 53.7734 48.0212 53.7734 48.5086C53.7734 48.9959 54.1684 49.3908 54.6556 49.3908H55.6775C56.1648 49.3908 56.5597 48.996 56.5597 48.5086C56.5597 48.0214 56.1649 47.6264 55.6775 47.6264Z" fill="#0082C5"/>
</g>
<defs>
<clipPath id="clip0">
<rect width="60" height="60" fill="white"/>
</clipPath>
</defs>
</svg>
