<svg width="150" height="85" viewBox="0 0 150 85" fill="none" xmlns="http://www.w3.org/2000/svg">
<path d="M73.93 15.02C59.7 15.57 48.25 26.92 47.54 41.1C46.71 57.7 59.8 70.79 76.4 69.96C90.58 69.25 101.94 57.79 102.48 43.57C103.1 27.35 90.15 14.4 73.93 15.02ZM77.99 64.23C73.13 64.87 68.53 63.92 64.63 61.82C64.62 61.81 64.6 61.81 64.59 61.81L58.8 61.78C58.75 61.78 58.71 61.74 58.71 61.68L58.74 57.23C58.74 57.21 58.73 57.18 58.72 57.17C54.72 52.73 52.51 46.64 53.23 40.05C54.33 29.93 62.33 21.88 72.45 20.73C86.85 19.09 98.87 31.42 96.69 45.91C95.23 55.48 87.59 62.96 77.99 64.23ZM79.13 30.23V39.48H70.88V30.23C70.88 29.62 70.38 29.12 69.77 29.12H65.34C64.73 29.12 64.23 29.62 64.23 30.23V54.77C64.23 55.38 64.73 55.88 65.34 55.88H69.77C70.38 55.88 70.88 55.38 70.88 54.77V45.58H79.13V54.77C79.13 55.38 79.63 55.88 80.24 55.88H84.67C85.28 55.88 85.78 55.38 85.78 54.77V30.23C85.78 29.62 85.28 29.12 84.67 29.12H80.24C79.62 29.12 79.13 29.62 79.13 30.23V30.23Z" fill="url(#paint0_linear)"/>
<defs>
<linearGradient id="paint0_linear" x1="49.785" y1="67.182" x2="102.178" y2="15.897" gradientUnits="userSpaceOnUse">
<stop stop-color="#57AC62"/>
<stop offset="1" stop-color="#D0D74E"/>
</linearGradient>
</defs>
</svg>
