<svg width="150" height="85" viewBox="0 0 150 85" fill="none" xmlns="http://www.w3.org/2000/svg">
<path d="M45.61 45.77L59.67 34.71H43.81L41.14 18.54L33.79 34.71H15L28.77 45.85L19.39 66.46L37.05 52.55L48.19 61.55L45.61 45.77ZM65.23 37.14H71.77V52.42H65.23V37.14ZM96.75 41.34H101.76V52.42H108.3V41.34H113.31V37.14H96.75V41.34ZM84.94 40.88C87 40.88 87.88 41.7 88.19 43.11H94.43C93.99 39.69 91.93 36.59 84.86 36.59C76.69 36.59 75.2 40.79 75.2 44.75C75.2 48.71 76.69 52.91 84.86 52.91C91.75 52.91 93.91 49.95 94.39 46.62H88.2C87.89 47.99 87.01 48.81 84.95 48.81C82.14 48.81 81.52 47.31 81.52 44.84C81.52 42.38 82.13 40.88 84.94 40.88V40.88ZM128.55 37.14L125.25 48.13L121.91 37.14H115.46L120.38 52.42H130.13L135 37.14H128.55Z" fill="#FF4A00"/>
</svg>
