<svg width="150" height="85" viewBox="0 0 150 85" fill="none" xmlns="http://www.w3.org/2000/svg">
<path d="M98.31 42.42C98.23 42.21 98.06 41.88 97.99 41.74L91.92 31.21L86.51 21.84C86.42 21.69 86.32 21.56 86.24 21.4C83.98 17.56 79.81 14.99 75.05 14.99C70.47 14.99 66.4 17.31 64.09 20.88C64.03 20.97 63.87 21.25 63.8 21.38L58.1 31.23L52.04 41.77C51.93 41.97 51.83 42.13 51.74 42.35C50.18 45.99 50.4 50.32 52.53 54.01C54.64 57.66 58.25 59.94 62.14 60.44C62.72 60.51 63.32 60.51 63.9 60.52H87.42L87.46 60.44C91.5 60.07 95.3 57.8 97.49 54.01C99.59 50.34 99.82 46.03 98.31 42.42V42.42ZM86.26 49.15C80.04 55.37 69.95 55.37 63.73 49.15C57.51 42.93 57.51 32.84 63.73 26.62C69.95 20.4 80.04 20.4 86.26 26.62C92.48 32.84 92.48 42.93 86.26 49.15V49.15Z" fill="#FFB130"/>
<path d="M75 25.14C67.78 25.14 61.93 30.99 61.93 38.21C61.93 45.43 67.78 51.28 75 51.28C79.51 51.28 83.49 48.99 85.84 45.52H82.65C80.72 47.54 78.01 48.8 75 48.8C69.16 48.8 64.42 44.06 64.42 38.22C64.42 32.38 69.16 27.64 75 27.64C80.84 27.64 85.58 32.38 85.58 38.22C85.58 39.07 85.48 39.9 85.29 40.69H81.18C80.2 43.14 77.8 44.88 75 44.88C71.72 44.88 68.99 42.5 68.45 39.37H83.93C83.98 38.99 84.01 38.61 84.01 38.22C84.01 33.25 79.98 29.22 75.01 29.22C70.04 29.22 66.01 33.25 66.01 38.22C66.01 43.19 70.04 47.22 75.01 47.22C78.09 47.22 80.8 45.68 82.42 43.32H87.04C87.71 41.75 88.08 40.03 88.08 38.22C88.07 30.99 82.22 25.14 75 25.14V25.14ZM75 31.55C78.17 31.55 80.81 33.76 81.49 36.73H68.51C69.19 33.77 71.83 31.55 75 31.55ZM54.72 69.29H53.3C53.01 69.29 52.74 69.26 52.49 69.21C52.23 69.16 52.01 69.08 51.82 68.99C51.63 68.9 51.48 68.78 51.37 68.65C51.26 68.52 51.2 68.38 51.2 68.24V65.45C51.2 65.3 51.26 65.17 51.37 65.04C51.48 64.91 51.63 64.8 51.82 64.71C52.01 64.61 52.24 64.54 52.49 64.48C52.75 64.42 53.02 64.4 53.3 64.4H54.71V63.7H56.81V64.4H58.22C58.51 64.4 58.78 64.43 59.03 64.48C59.29 64.54 59.51 64.61 59.7 64.71C59.89 64.81 60.04 64.92 60.15 65.04C60.26 65.17 60.32 65.3 60.32 65.45V68.24C60.32 68.38 60.26 68.52 60.15 68.65C60.04 68.78 59.89 68.89 59.7 68.99C59.51 69.08 59.28 69.16 59.03 69.21C58.77 69.27 58.5 69.29 58.22 69.29H56.81V69.99H54.71V69.29H54.72ZM54.72 68.24V65.45H53.3V68.24H54.72ZM56.82 65.45V68.24H58.23V65.45H56.82ZM62.58 69.99V63.69H64.68V69.99H62.58ZM67.28 68.95L67.27 64.75C67.27 64.6 67.32 64.47 67.43 64.34C67.54 64.21 67.69 64.1 67.88 64C68.07 63.9 68.29 63.83 68.55 63.77C68.8 63.71 69.07 63.69 69.36 63.69L74.76 63.68L74.78 69.98L72.69 69.99L72.68 64.7L69.37 64.71L69.38 68.95C69.38 69.09 69.33 69.23 69.22 69.36C69.11 69.49 68.96 69.6 68.77 69.7C68.58 69.79 68.36 69.87 68.1 69.92C67.85 69.98 67.58 70 67.29 70H65.89V68.95H67.28V68.95ZM76.75 69.99V63.69H78.6V65.77H80.45C80.7 65.77 83.17 65.8 83.4 65.85C83.62 65.91 83.82 65.98 83.99 66.07C84.16 66.16 84.29 66.27 84.39 66.4C84.49 66.53 84.54 66.66 84.54 66.81V68.93C84.54 69.07 84.49 69.21 84.39 69.34C84.29 69.47 84.16 69.58 83.99 69.68C83.82 69.78 83.62 69.85 83.4 69.91C83.18 69.97 80.7 69.99 80.45 69.99H76.75V69.99ZM78.6 66.86V68.98H82.48V66.86H78.6V66.86ZM94.54 66.84L92.84 69.95H91.17L89.5 66.84V69.99H86.98V63.69H89.5L92.02 67.86L94.54 63.69H97.05V69.99H94.54V66.84Z" fill="#FFB130"/>
</svg>
