<svg width="150" height="85" viewBox="0 0 150 85" fill="none" xmlns="http://www.w3.org/2000/svg">
<path d="M26.82 33.65V39.56H20.91V45.44H15V33.65H26.82Z" fill="#02B1EC"/>
<path d="M32.73 39.56V51.35H20.91V45.44H26.82V39.56H32.73Z" fill="#F4D33D"/>
<path d="M115.86 33.63C114.69 33.63 113.64 34.09 112.88 34.88C112.11 35.65 111.63 36.7 111.63 37.86V47.94H108.8V39.34C108.8 36.17 106.24 33.63 103.09 33.63H85.65L85.66 33.64V47.95H82.78V33.63H63.63C61.29 33.63 59.39 35.53 59.39 37.87C59.39 36.7 58.93 35.65 58.14 34.89C57.37 34.12 56.32 33.64 55.16 33.64H35.59V51.39H40.83V48.87L41.72 47.98H55.6L59.39 44.91V51.38H64.25L64.23 48.01L76.35 47.93C77.24 47.93 77.94 48.64 77.94 49.52V51.38H116.48L116.46 48.01L128.58 47.93C129.47 47.93 130.17 48.64 130.17 49.52V51.38H134.99V33.63H115.86V33.63ZM54.99 43.57C54.45 44.18 53.66 44.54 52.79 44.54L40.87 44.52V37.68H55.77V41.57H55.78C55.76 42.34 55.48 43.04 54.99 43.57ZM77.95 44.48H64.25V40.69C64.25 39.82 64.63 39.04 65.24 38.49C65.76 38.03 66.45 37.72 67.22 37.72H77.95V44.48V44.48ZM104.14 47.95H90.31V37.66L101.8 37.72C102.9 37.94 103.78 38.78 104.06 39.86C104.12 40.1 104.16 40.36 104.16 40.61L104.14 42.32V47.95ZM130.17 44.48H116.47V40.71C116.47 39.88 116.81 39.14 117.36 38.59C117.9 38.07 118.63 37.74 119.44 37.74H130.17V44.48Z" fill="#02B1EC"/>
</svg>
