<svg width="150" height="85" viewBox="0 0 150 85" fill="none" xmlns="http://www.w3.org/2000/svg">
<path d="M43.16 42.5C43.16 54.66 46.58 63.75 46.58 63.75C46.58 63.75 56.53 70 75 70C93.47 70 103.43 63.75 103.43 63.75C103.43 63.75 106.85 54.66 106.85 42.5C106.85 30.34 103.43 21.25 103.43 21.25C103.43 21.25 93.47 15 75 15C56.53 15 46.57 21.25 46.57 21.25C46.57 21.25 43.16 30.34 43.16 42.5V42.5Z" fill="#B5121B"/>
<path d="M85.07 49.68C83.22 51.53 80.67 52.63 77.89 52.63C72.27 52.63 67.7 48.06 67.7 42.44C67.7 36.82 72.27 32.25 77.89 32.25C80.73 32.25 83.27 33.41 85.07 35.2L91.73 28.54C88.2 25.01 83.28 22.81 77.89 22.81C67.06 22.81 58.26 31.61 58.26 42.44C58.26 53.27 67.06 62.07 77.89 62.07C83.33 62.07 88.2 59.87 91.73 56.34L85.07 49.68V49.68Z" fill="white"/>
</svg>
