<svg width="150" height="85" viewBox="0 0 150 85" fill="none" xmlns="http://www.w3.org/2000/svg">
<path d="M129.18 43.41C118.28 30.47 104.93 14.63 75 15C45.09 15.4 31.74 30.48 20.82 43.41C31.74 59.33 51.93 70 75 70C98.09 70 118.26 59.33 129.18 43.41ZM117.23 44.15C111.38 53.4 102.13 60.55 91.06 64.15C96.42 59.67 99.84 52.93 99.84 45.41C99.86 38.84 97.26 32.89 93.05 28.49C103.23 31.53 111.74 37.09 117.23 44.15ZM70.65 26.05H70.93C71.13 26.05 71.32 26.03 71.52 26.03H71.73C71.95 26.03 72.17 26.01 72.39 26.01H72.48C72.73 26.01 72.97 25.99 73.22 25.99H73.29C73.54 25.99 73.78 25.99 74.05 25.97H74.19C74.46 25.92 74.71 25.92 74.95 25.92H75.78C76.05 25.92 76.3 25.92 76.57 25.94H76.64C76.89 25.94 77.11 25.96 77.35 25.96H77.55L78.07 25.98H78.44L78.88 26H78.98L79.25 26.02L79.67 26.04H79.87L80.04 26.06H80.14L80.66 26.11L75.42 35.78L70.2 26.07L70.65 26.05V26.05ZM32.77 44.18C38.48 36.85 47.43 31.14 58.13 28.17C53.73 32.6 51 38.7 51 45.41C51 53.18 54.64 60.09 60.3 64.57C48.63 61.15 38.87 53.79 32.77 44.18V44.18ZM58.08 49.73C58.08 43.66 61.2 38.29 65.95 35.17L75.49 52.83L85.03 35.17C89.78 38.27 92.9 43.63 92.9 49.73C92.9 57.53 87.76 64.14 80.68 66.36C78.81 66.56 76.92 66.66 75.02 66.68C73.57 66.68 72.14 66.63 70.74 66.51C63.44 64.44 58.08 57.7 58.08 49.73V49.73Z" fill="#0665C9"/>
</svg>
