<svg width="150" height="85" viewBox="0 0 150 85" fill="none" xmlns="http://www.w3.org/2000/svg">
<path d="M50.62 50.16C53.45 46.85 55.15 42.55 55.15 37.85C55.15 34.43 54.25 31.22 52.66 28.45C49.39 22.73 43.23 18.87 36.16 18.87C25.68 18.87 17.18 27.37 17.18 37.85V38.2H31.14V38.07C31.14 35.3 33.39 32.84 36.16 32.84C38.93 32.84 41.18 35.09 41.18 37.86C41.18 39.23 40.63 40.48 39.73 41.39L39.69 41.43L26.78 54.34L15 66.12H34.66C34.66 66.12 49.97 50.93 50.62 50.16V50.16ZM97.04 38.2H83.08V24.24L55.16 52.16L41.19 66.13H55.16V52.17H69.11V66.13H83.08V52.17H97.04V38.2ZM130.47 50.16C133.3 46.85 135 42.55 135 37.85C135 34.43 134.09 31.22 132.51 28.45C129.24 22.73 123.08 18.87 116.02 18.87C105.54 18.87 97.04 27.37 97.04 37.85V38.2H111V38.07C111 35.3 113.25 32.84 116.02 32.84C118.79 32.84 121.04 35.09 121.04 37.86C121.04 39.23 120.49 40.48 119.59 41.39L119.55 41.43L106.63 54.36L94.85 66.12H114.51C114.51 66.12 129.81 50.93 130.47 50.16V50.16ZM135 66.13V52.16L121.03 66.13H135V66.13Z" fill="#FE5000"/>
</svg>
