<svg width="150" height="85" viewBox="0 0 150 85" fill="none" xmlns="http://www.w3.org/2000/svg">
<path d="M35.92 34.02C37.03 34.02 37.91 33.13 37.91 32.05C37.91 30.96 37.02 30.08 35.92 30.08C34.86 30.08 33.97 30.97 33.97 32.05C33.97 33.14 34.86 34.02 35.92 34.02ZM22.05 30.08H16.17V34H22.05C25.3 34 27.91 36.63 27.91 39.88C27.91 43.13 25.3 45.76 22.05 45.76H16.17V49.68H22.05C27.73 49.68 32.21 45.53 32.21 39.88C32.21 34.23 27.73 30.08 22.05 30.08V30.08ZM90.83 35.86L87.89 44.42L84.7 35.86H80.13L85.79 49.63H90.03L95.26 35.86H90.83ZM17.49 36.85C17.49 36.85 17.49 36.84 17.49 36.85C17.49 36.84 17.49 36.84 17.49 36.85ZM114.17 37.71V35.85H110.09V49.62H114.3V43.61C114.3 40.87 115.82 39.87 117.51 39.87C117.92 39.87 118.37 39.9 118.84 40.01L118.85 35.86C118.58 35.78 118.16 35.72 117.74 35.72C116.63 35.72 114.89 36.16 114.17 37.71V37.71ZM130.54 35.86L127.49 43.23L124.14 35.86H119.43L125.22 47.77L122.09 54.92H126.52L135 35.86H130.54V35.86ZM73.51 35.44C69.41 35.44 66.19 38.46 66.19 42.73C66.19 47 69.41 50.04 73.51 50.04C77.64 50.04 80.82 46.99 80.82 42.73C80.82 38.47 77.64 35.44 73.51 35.44V35.44ZM73.51 46.16C71.93 46.16 70.4 45.03 70.4 42.72C70.4 40.4 71.93 39.31 73.51 39.31C75.12 39.31 76.61 40.39 76.61 42.72C76.61 45.06 75.12 46.16 73.51 46.16ZM101.61 35.44C98.04 35.44 94.74 38.27 94.74 42.7C94.74 47.33 98.12 50.04 101.92 50.04C105.41 50.04 107.6 48.05 108.27 45.66L104.74 44.67C104.35 45.75 103.49 46.47 101.97 46.47C100.33 46.47 98.92 45.36 98.84 43.81H108.43C108.46 43.73 108.51 43.09 108.51 42.51C108.51 38.08 105.88 35.44 101.61 35.44V35.44ZM98.92 41.1C99 40.07 99.89 38.77 101.66 38.77C103.66 38.77 104.38 40.04 104.43 41.1H98.92V41.1ZM33.84 35.86H38.05V49.63H33.84V35.86Z" fill="black"/>
<path d="M19.7 44.58C22.3 44.58 24.4 42.48 24.4 39.88C24.4 37.29 22.3 35.18 19.7 35.18C17.1 35.18 15 37.28 15 39.88C15 42.48 17.1 44.58 19.7 44.58ZM17.22 43.48C17.28 43.5 17.32 43.53 17.27 43.52C17.25 43.51 17.23 43.5 17.22 43.5C17.21 43.5 17.2 43.49 17.2 43.49C17.2 43.48 17.19 43.48 17.18 43.47C17.17 43.46 17.19 43.47 17.22 43.48V43.48ZM19.71 44.28C19.44 44.28 19.18 44.26 18.93 44.21C18.94 44.21 18.95 44.2 18.95 44.2C18.95 44.2 18.94 44.19 18.93 44.19H18.91C18.92 44.19 18.92 44.18 18.93 44.18C18.95 44.17 18.95 44.17 18.91 44.17H18.86C18.85 44.18 18.77 44.13 18.77 44.13C18.78 44.08 19.04 44.08 19.12 44.09C19.14 44.09 19.16 44.09 19.16 44.08C19.16 44.07 19.18 44.06 19.2 44.05C19.24 44.03 19.24 44.03 19.22 44.03C19.19 44.03 19.19 44.03 19.19 44.02C19.19 44.02 19.2 44.01 19.21 44.01C19.22 44.01 19.24 44 19.24 44C19.25 43.99 19.25 43.99 19.26 43.99C19.27 43.99 19.28 43.98 19.29 43.98C19.3 43.97 19.3 43.97 19.29 43.95C19.28 43.93 19.28 43.93 19.29 43.94C19.29 43.95 19.31 43.95 19.32 43.94C19.34 43.93 19.35 43.93 19.36 43.95C19.37 43.97 19.37 43.97 19.39 43.95C19.41 43.93 19.44 43.92 19.43 43.94C19.42 43.95 19.44 43.96 19.47 43.96C19.47 43.96 19.46 43.95 19.46 43.94C19.47 43.94 19.47 43.93 19.47 43.93C19.48 43.93 19.48 43.94 19.48 43.95C19.48 43.95 19.48 43.96 19.47 43.96H19.49C19.55 43.97 19.58 43.97 19.62 43.95C19.64 43.94 19.78 43.94 19.81 43.95C19.82 43.96 19.83 43.96 19.84 43.95C19.91 43.93 19.98 43.94 20.04 43.95C20.08 43.95 20.13 43.95 20.19 43.94C20.27 43.93 20.3 43.92 20.33 43.89C20.34 43.88 20.35 43.88 20.36 43.9C20.37 43.91 20.38 43.91 20.39 43.91C20.39 43.9 20.4 43.9 20.4 43.91C20.4 43.93 20.43 43.92 20.45 43.9C20.46 43.88 20.5 43.87 20.55 43.85C20.56 43.84 20.58 43.84 20.59 43.83C20.61 43.82 20.63 43.82 20.64 43.82C20.65 43.82 20.66 43.82 20.66 43.81C20.66 43.8 20.66 43.8 20.68 43.8C20.69 43.8 20.7 43.8 20.7 43.79C20.71 43.77 20.81 43.74 20.83 43.76C20.84 43.77 20.84 43.78 20.84 43.78C20.84 43.79 20.93 43.79 21.02 43.79C21.05 43.79 21.07 43.8 21.07 43.8C21.06 43.82 21.02 43.86 21.01 43.86C21 43.86 20.99 43.87 20.99 43.87C20.98 43.88 20.99 43.89 21.01 43.88C21.02 43.87 21.02 43.87 21.01 43.89L20.99 43.91C20.97 43.91 20.96 43.94 20.97 43.94C20.98 43.95 21.02 43.92 21.05 43.89L21.07 43.87C21.07 43.87 21.08 43.87 21.09 43.86C21.1 43.85 21.13 43.84 21.15 43.83C21.17 43.82 21.21 43.79 21.23 43.78C21.25 43.77 21.27 43.75 21.28 43.75C21.29 43.74 21.3 43.74 21.31 43.73C21.32 43.72 21.35 43.7 21.41 43.69C21.42 43.69 21.43 43.68 21.44 43.67C21.44 43.67 21.45 43.67 21.46 43.66C21.49 43.64 21.5 43.64 21.55 43.64C21.6 43.64 21.6 43.63 21.62 43.62C21.65 43.6 21.69 43.58 21.69 43.59C21.7 43.6 21.72 43.6 21.75 43.59C21.8 43.58 21.87 43.55 21.88 43.54C21.88 43.53 21.89 43.53 21.89 43.54C21.89 43.56 21.91 43.55 21.93 43.53C21.94 43.52 21.96 43.51 21.98 43.5C22.01 43.49 22.01 43.49 22.02 43.47L22.04 43.45C22.04 43.45 22.04 43.46 22.03 43.47C22.02 43.49 22.01 43.49 22.02 43.49C22.04 43.49 22.05 43.48 22.07 43.48C22.11 43.47 22.13 43.46 22.14 43.46C22.13 43.47 22.15 43.48 22.17 43.47H22.19C22.2 43.47 22.21 43.46 22.21 43.46C22.22 43.45 22.23 43.45 22.22 43.46H22.27C22.27 43.46 22.28 43.46 22.31 43.45C21.58 43.98 20.68 44.3 19.71 44.28V44.28ZM21.64 39.66C21.63 39.66 21.63 39.66 21.62 39.65C21.61 39.64 21.62 39.63 21.63 39.64C21.65 39.64 21.65 39.65 21.64 39.66V39.66ZM23.49 40.73C23.5 40.73 23.51 40.72 23.51 40.71C23.51 40.7 23.51 40.68 23.52 40.67C23.53 40.66 23.54 40.65 23.54 40.64C23.54 40.63 23.56 40.61 23.57 40.61C23.58 40.61 23.59 40.58 23.59 40.57C23.58 40.55 23.59 40.56 23.6 40.57C23.61 40.58 23.62 40.58 23.63 40.58C23.64 40.57 23.64 40.58 23.64 40.59C23.64 40.6 23.63 40.61 23.63 40.61L23.61 40.65C23.6 40.69 23.6 40.69 23.62 40.73C23.63 40.74 23.63 40.75 23.63 40.76C23.63 40.77 23.65 40.76 23.66 40.73C23.67 40.72 23.68 40.67 23.69 40.64C23.72 40.56 23.73 40.51 23.74 40.49C23.75 40.46 23.75 40.48 23.74 40.54C23.73 40.59 23.73 40.6 23.74 40.66C23.75 40.67 23.75 40.68 23.74 40.7C23.74 40.72 23.73 40.74 23.73 40.75C23.73 40.76 23.72 40.78 23.72 40.8C23.71 40.82 23.72 40.84 23.72 40.85V41.02C23.72 41.05 23.72 41.07 23.71 41.09C23.7 41.11 23.69 41.14 23.69 41.15C23.69 41.17 23.68 41.2 23.67 41.22C23.66 41.24 23.65 41.27 23.64 41.29C23.63 41.31 23.62 41.34 23.61 41.35C23.59 41.39 23.52 41.53 23.51 41.56C23.5 41.58 23.5 41.59 23.49 41.59C23.48 41.59 23.47 41.61 23.45 41.63C23.42 41.67 23.42 41.67 23.42 41.65C23.42 41.64 23.42 41.64 23.4 41.66C23.39 41.68 23.38 41.69 23.38 41.68C23.37 41.67 23.37 41.67 23.36 41.67C23.35 41.67 23.35 41.65 23.36 41.62C23.37 41.58 23.37 41.57 23.36 41.58C23.35 41.59 23.35 41.59 23.36 41.57C23.38 41.54 23.38 41.52 23.36 41.55L23.37 41.53C23.4 41.47 23.39 41.47 23.36 41.52C23.33 41.57 23.32 41.58 23.33 41.56C23.34 41.53 23.34 41.47 23.33 41.47C23.32 41.47 23.31 41.46 23.31 41.46C23.3 41.45 23.29 41.46 23.27 41.47C23.19 41.52 23.16 41.55 23.14 41.58C23.14 41.59 23.13 41.6 23.1 41.61C23.07 41.61 23.05 41.63 23.03 41.65C22.99 41.69 22.99 41.69 22.97 41.67C22.96 41.66 22.96 41.65 22.98 41.63C22.99 41.62 23.02 41.54 23.02 41.53C23.02 41.53 23.03 41.51 23.03 41.49C23.04 41.48 23.04 41.43 23.05 41.4C23.06 41.35 23.06 41.34 23.07 41.33C23.08 41.32 23.08 41.31 23.08 41.29C23.08 41.25 23.12 41.14 23.13 41.15C23.13 41.15 23.14 41.15 23.14 41.14C23.14 41.13 23.15 41.12 23.15 41.12L23.17 41.1C23.17 41.09 23.2 41.06 23.23 41.04C23.26 41.02 23.28 41 23.29 40.99C23.31 40.97 23.33 40.92 23.34 40.9C23.35 40.87 23.37 40.84 23.37 40.86V40.87C23.38 40.87 23.38 40.86 23.38 40.85C23.38 40.84 23.38 40.83 23.39 40.83C23.39 40.83 23.4 40.82 23.4 40.81C23.4 40.79 23.43 40.74 23.44 40.74C23.44 40.74 23.45 40.74 23.45 40.73C23.46 40.71 23.47 40.7 23.48 40.71L23.49 40.73C23.48 40.73 23.48 40.74 23.49 40.73V40.73ZM20.87 36.56C20.87 36.58 20.84 36.59 20.83 36.58C20.82 36.58 20.82 36.57 20.82 36.56C20.82 36.54 20.86 36.55 20.87 36.56ZM19.64 36.79C19.65 36.79 19.66 36.78 19.66 36.77C19.66 36.76 19.66 36.76 19.67 36.76C19.68 36.77 19.7 36.76 19.71 36.74C19.72 36.73 19.74 36.72 19.74 36.72C19.75 36.72 19.75 36.72 19.75 36.71C19.75 36.7 19.75 36.69 19.76 36.69C19.77 36.69 19.78 36.67 19.79 36.65C19.8 36.63 19.83 36.59 19.86 36.57C19.91 36.53 19.93 36.49 19.9 36.51C19.89 36.51 19.88 36.51 19.87 36.5C19.86 36.48 19.86 36.48 19.88 36.49C19.89 36.49 19.89 36.49 19.89 36.48C19.88 36.47 19.88 36.47 19.9 36.48C19.92 36.5 19.95 36.49 19.93 36.47C19.92 36.45 19.92 36.45 19.94 36.45H19.97C19.98 36.45 19.98 36.45 19.98 36.44C19.98 36.42 19.99 36.42 20.01 36.44C20.02 36.44 20.04 36.44 20.05 36.43C20.06 36.42 20.08 36.42 20.09 36.42C20.1 36.43 20.12 36.43 20.12 36.42C20.12 36.41 20.14 36.4 20.16 36.39C20.19 36.37 20.19 36.37 20.18 36.39C20.18 36.4 20.17 36.41 20.17 36.42L20.18 36.41C20.19 36.4 20.2 36.39 20.21 36.39C20.22 36.39 20.23 36.38 20.24 36.38C20.24 36.38 20.25 36.38 20.25 36.39C20.25 36.4 20.25 36.4 20.26 36.4C20.27 36.4 20.28 36.4 20.3 36.41C20.33 36.43 20.33 36.43 20.31 36.44C20.29 36.45 20.3 36.45 20.34 36.46C20.46 36.49 20.48 36.5 20.56 36.54C20.6 36.56 20.65 36.59 20.65 36.6C20.65 36.61 20.65 36.63 20.63 36.64C20.61 36.66 20.59 36.66 20.52 36.64C20.43 36.62 20.4 36.62 20.45 36.64C20.46 36.65 20.47 36.66 20.47 36.67C20.47 36.68 20.47 36.7 20.48 36.71C20.49 36.73 20.55 36.77 20.57 36.77C20.59 36.78 20.58 36.75 20.56 36.74C20.55 36.73 20.54 36.72 20.54 36.71C20.54 36.69 20.55 36.69 20.56 36.7C20.57 36.71 20.6 36.72 20.62 36.72C20.65 36.73 20.65 36.73 20.64 36.71C20.62 36.68 20.62 36.68 20.66 36.66C20.67 36.65 20.7 36.64 20.71 36.65C20.73 36.66 20.75 36.63 20.73 36.61C20.72 36.61 20.72 36.59 20.72 36.58C20.72 36.56 20.72 36.55 20.71 36.54C20.7 36.52 20.75 36.53 20.77 36.54C20.8 36.56 20.8 36.58 20.78 36.58C20.76 36.57 20.76 36.6 20.78 36.61C20.8 36.62 20.84 36.62 20.84 36.6C20.84 36.58 20.89 36.56 20.93 36.55C20.94 36.55 20.95 36.54 20.96 36.54C20.97 36.54 20.97 36.54 20.98 36.55C20.98 36.56 21 36.57 21.05 36.56C21.1 36.55 21.11 36.56 21.12 36.57C21.13 36.58 21.13 36.58 21.14 36.57C21.15 36.55 21.14 36.53 21.1 36.5L21.09 36.49C21.1 36.5 21.14 36.51 21.17 36.52C21.2 36.54 21.25 36.56 21.29 36.58C21.37 36.62 21.38 36.61 21.32 36.56L21.29 36.53V36.51L21.27 36.49C21.27 36.49 21.27 36.48 21.28 36.47C21.29 36.46 21.3 36.44 21.3 36.43C21.3 36.42 21.3 36.41 21.31 36.41C21.32 36.41 21.32 36.41 21.32 36.4C21.32 36.39 21.32 36.39 21.33 36.39C21.34 36.39 21.34 36.39 21.34 36.4C21.34 36.41 21.34 36.42 21.36 36.42C21.39 36.42 21.4 36.44 21.4 36.47C21.4 36.48 21.4 36.49 21.41 36.5C21.42 36.51 21.43 36.53 21.44 36.56C21.45 36.6 21.46 36.62 21.47 36.63C21.49 36.65 21.49 36.65 21.48 36.69C21.47 36.73 21.47 36.73 21.44 36.72C21.42 36.71 21.41 36.71 21.42 36.72C21.44 36.75 21.5 36.75 21.52 36.72C21.54 36.7 21.54 36.68 21.53 36.66C21.52 36.64 21.52 36.63 21.53 36.63C21.55 36.62 21.58 36.64 21.59 36.67C21.6 36.69 21.6 36.69 21.6 36.67C21.6 36.64 21.57 36.62 21.53 36.61C21.49 36.6 21.47 36.58 21.47 36.55C21.47 36.53 21.47 36.53 21.45 36.51C21.43 36.49 21.42 36.49 21.43 36.48C21.44 36.47 21.44 36.47 21.45 36.47V36.45C21.44 36.44 21.44 36.43 21.45 36.44C21.46 36.45 21.46 36.46 21.47 36.48C21.48 36.51 21.49 36.51 21.51 36.52C21.54 36.52 21.54 36.52 21.52 36.51C21.49 36.49 21.49 36.48 21.52 36.49C21.55 36.5 21.55 36.5 21.53 36.48C21.51 36.46 21.51 36.46 21.54 36.47C21.55 36.48 21.58 36.49 21.6 36.5C21.62 36.52 21.63 36.52 21.64 36.52C21.64 36.52 21.64 36.51 21.62 36.5C21.6 36.49 21.56 36.43 21.57 36.43H21.65C21.7 36.43 21.71 36.43 21.7 36.42L21.68 36.41L21.69 36.4C21.71 36.38 21.83 36.37 21.9 36.39C21.92 36.4 21.93 36.4 21.93 36.39C21.93 36.38 21.93 36.38 21.94 36.38C21.95 36.38 21.95 36.38 21.95 36.37V36.35H21.94C21.92 36.34 21.91 36.34 21.89 36.34C21.89 36.33 21.89 36.33 21.88 36.32C21.89 36.3 21.92 36.29 21.92 36.31C21.93 36.32 21.94 36.33 21.95 36.33C21.96 36.34 21.97 36.34 21.98 36.35C22.01 36.35 22.04 36.37 22.04 36.38C22.04 36.39 22.09 36.41 22.12 36.42C22.13 36.42 22.16 36.43 22.17 36.44C22.18 36.45 22.2 36.46 22.2 36.46C22.21 36.46 22.22 36.47 22.22 36.47C22.23 36.5 22.23 36.5 22.22 36.51C22.21 36.52 22.19 36.53 22.18 36.53C22.17 36.53 22.16 36.54 22.15 36.54C22.13 36.55 22.15 36.56 22.18 36.56C22.2 36.56 22.21 36.56 22.2 36.55C22.19 36.54 22.2 36.54 22.22 36.55C22.24 36.56 22.28 36.58 22.31 36.59C22.33 36.6 22.37 36.62 22.38 36.63L22.44 36.66C22.46 36.67 22.47 36.67 22.46 36.65C22.45 36.63 22.46 36.63 22.49 36.65C22.52 36.66 22.54 36.67 22.55 36.68C22.56 36.69 22.56 36.7 22.56 36.7C22.56 36.71 22.56 36.71 22.57 36.71C22.58 36.72 22.6 36.74 22.59 36.74C22.58 36.74 22.58 36.74 22.6 36.76C22.64 36.81 22.66 36.82 22.66 36.8C22.66 36.79 22.67 36.79 22.7 36.8C22.72 36.81 22.74 36.82 22.75 36.83C22.76 36.84 22.76 36.84 22.76 36.83C22.76 36.82 22.76 36.82 22.77 36.83C22.79 36.85 22.79 36.84 22.77 36.82V36.81C22.77 36.81 22.76 36.8 22.75 36.8C22.74 36.79 22.74 36.78 22.74 36.78C22.74 36.77 22.76 36.78 22.78 36.8C22.79 36.8 22.79 36.81 22.79 36.81C22.8 36.81 22.81 36.82 22.83 36.83C22.85 36.84 22.86 36.84 22.87 36.86C22.86 36.84 22.91 36.86 22.93 36.89C22.95 36.92 22.92 36.91 22.98 36.94C23 36.95 23.02 36.96 23.03 36.97L23.06 37C23.06 37.01 23.07 37.02 23.07 37.02L23.08 37.03L23.09 37.04C23.19 37.17 23.29 37.31 23.38 37.45C23.38 37.46 23.37 37.46 23.37 37.45C23.35 37.43 23.34 37.42 23.34 37.44C23.34 37.45 23.33 37.45 23.33 37.44L23.32 37.43H23.31V37.46C23.32 37.5 23.32 37.51 23.33 37.51C23.34 37.52 23.34 37.52 23.35 37.54C23.35 37.56 23.36 37.57 23.36 37.57C23.36 37.58 23.37 37.58 23.37 37.59V37.6C23.36 37.58 23.36 37.61 23.37 37.63C23.37 37.65 23.38 37.66 23.37 37.66C23.36 37.66 23.37 37.68 23.37 37.69V37.74C23.38 37.77 23.38 37.81 23.37 37.79C23.37 37.78 23.35 37.75 23.33 37.71C23.31 37.68 23.29 37.63 23.28 37.61C23.26 37.56 23.25 37.51 23.26 37.5C23.27 37.49 23.27 37.48 23.27 37.47V37.42C23.28 37.39 23.26 37.34 23.25 37.33C23.24 37.33 23.24 37.34 23.25 37.35C23.25 37.36 23.26 37.36 23.26 37.37C23.25 37.36 23.25 37.37 23.25 37.38C23.25 37.4 23.24 37.39 23.23 37.36C23.23 37.35 23.23 37.35 23.21 37.34C23.19 37.33 23.19 37.34 23.19 37.37C23.19 37.4 23.19 37.41 23.2 37.42C23.21 37.43 23.21 37.43 23.2 37.43H23.18C23.17 37.43 23.16 37.43 23.16 37.42C23.16 37.4 23.12 37.38 23.12 37.39C23.12 37.4 23.11 37.4 23.09 37.39C23.03 37.36 23.07 37.38 23.06 37.49C23.06 37.5 23.05 37.53 23.05 37.54C23.04 37.55 23.04 37.55 23.04 37.56C23.05 37.57 23.05 37.57 23.06 37.57C23.07 37.58 23.08 37.58 23.09 37.59C23.07 37.58 23.07 37.57 23.08 37.58C23.08 37.58 23.09 37.58 23.09 37.59V37.6C23.1 37.62 23.1 37.62 23.1 37.6C23.1 37.59 23.09 37.59 23.1 37.6C23.1 37.6 23.11 37.61 23.11 37.62C23.11 37.64 23.12 37.64 23.12 37.62C23.13 37.6 23.15 37.62 23.17 37.66V37.65C23.17 37.63 23.17 37.64 23.18 37.66C23.18 37.66 23.18 37.67 23.19 37.67C23.21 37.68 23.22 37.71 23.22 37.71C23.22 37.73 23.27 37.82 23.28 37.84C23.3 37.86 23.3 37.87 23.29 37.87C23.28 37.87 23.29 37.9 23.3 37.93C23.31 37.94 23.32 37.96 23.33 37.98C23.35 38.01 23.35 38.01 23.34 38C23.34 37.99 23.33 37.99 23.33 38C23.33 38.01 23.32 37.99 23.28 37.89C23.25 37.83 23.23 37.77 23.22 37.75C23.22 37.76 23.23 37.78 23.24 37.81C23.26 37.86 23.26 37.88 23.27 37.98C23.28 38.12 23.27 38.14 23.25 38.12C23.24 38.11 23.23 38.11 23.23 38.14V38.19C23.24 38.2 23.23 38.25 23.22 38.26L23.26 38.32C23.29 38.37 23.3 38.39 23.31 38.43C23.33 38.47 23.33 38.48 23.31 38.49C23.3 38.5 23.29 38.5 23.29 38.5C23.27 38.47 23.25 38.4 23.25 38.39C23.25 38.38 23.23 38.35 23.22 38.35C23.21 38.35 23.2 38.34 23.19 38.3C23.18 38.27 23.18 38.27 23.16 38.26C23.15 38.25 23.13 38.26 23.13 38.27C23.11 38.3 23.1 38.28 23.1 38.24C23.1 38.21 23.1 38.21 23.09 38.2C23.08 38.19 23.08 38.2 23.07 38.23C23.06 38.25 23.06 38.27 23.05 38.27C23.04 38.27 23.05 38.31 23.07 38.32C23.08 38.33 23.09 38.34 23.09 38.35C23.1 38.38 23.12 38.39 23.12 38.37C23.12 38.35 23.13 38.35 23.14 38.36C23.17 38.37 23.18 38.39 23.16 38.4C23.15 38.41 23.14 38.49 23.15 38.5C23.16 38.51 23.17 38.52 23.21 38.59C23.25 38.65 23.26 38.69 23.25 38.71C23.24 38.71 23.24 38.71 23.24 38.72H23.25C23.27 38.72 23.28 38.77 23.28 38.85V38.92C23.29 38.93 23.28 38.98 23.27 39.02C23.26 39.06 23.22 39.09 23.21 39.06V39.07C23.21 39.09 23.21 39.1 23.19 39.12C23.18 39.14 23.17 39.16 23.17 39.18C23.17 39.18 23.17 39.19 23.18 39.19L23.19 39.2C23.18 39.19 23.18 39.18 23.18 39.18C23.17 39.17 23.17 39.16 23.17 39.15C23.15 39.1 23.12 39.12 23.11 39.17C23.09 39.23 23.1 39.26 23.16 39.34C23.23 39.43 23.24 39.46 23.26 39.53C23.28 39.59 23.28 39.6 23.27 39.63C23.27 39.64 23.26 39.66 23.25 39.66C23.24 39.66 23.24 39.67 23.24 39.68C23.24 39.7 23.23 39.75 23.22 39.75C23.22 39.75 23.21 39.74 23.21 39.72C23.21 39.7 23.2 39.68 23.19 39.68C23.18 39.67 23.16 39.65 23.14 39.62C23.12 39.59 23.09 39.57 23.09 39.57C23.09 39.57 23.08 39.56 23.08 39.55C23.07 39.51 23.06 39.55 23.07 39.62C23.08 39.72 23.09 39.73 23.11 39.76C23.12 39.78 23.14 39.8 23.14 39.82C23.14 39.84 23.15 39.86 23.16 39.86C23.2 39.87 23.26 39.94 23.25 39.99C23.24 40.01 23.24 40.05 23.24 40.07C23.24 40.1 23.24 40.11 23.23 40.11C23.2 40.11 23.18 40 23.16 39.93C23.15 39.9 23.1 39.8 23.09 39.8C23.09 39.8 23.07 39.75 23.06 39.69C23.04 39.61 23.03 39.57 23.01 39.53C22.99 39.5 22.97 39.45 22.96 39.42C22.96 39.41 22.95 39.4 22.95 39.39H22.93C22.92 39.38 22.92 39.37 22.92 39.35C22.92 39.31 22.89 39.24 22.88 39.24C22.87 39.24 22.87 39.23 22.87 39.22C22.87 39.2 22.86 39.19 22.85 39.18C22.84 39.17 22.82 39.14 22.8 39.11C22.77 39.04 22.74 39.02 22.75 39.06C22.75 39.08 22.75 39.09 22.74 39.09C22.74 39.09 22.72 39.1 22.71 39.1C22.7 39.11 22.68 39.11 22.68 39.11V39.14C22.69 39.17 22.68 39.2 22.67 39.2C22.67 39.2 22.66 39.22 22.65 39.25C22.63 39.33 22.61 39.38 22.6 39.38C22.59 39.38 22.59 39.38 22.59 39.39C22.59 39.4 22.59 39.41 22.58 39.41C22.56 39.42 22.56 39.43 22.58 39.49C22.61 39.57 22.63 39.67 22.6 39.75C22.6 39.76 22.6 39.77 22.59 39.77C22.6 39.78 22.6 39.79 22.62 39.82C22.66 39.9 22.67 39.92 22.65 39.94C22.64 39.96 22.63 39.96 22.62 39.94C22.6 39.92 22.58 39.84 22.58 39.79C22.57 39.81 22.55 39.79 22.53 39.74C22.51 39.71 22.49 39.65 22.47 39.62C22.45 39.59 22.43 39.55 22.43 39.54C22.43 39.53 22.41 39.49 22.39 39.45C22.35 39.37 22.31 39.27 22.29 39.17C22.29 39.16 22.28 39.13 22.27 39.11C22.25 39.07 22.25 39.07 22.25 39.1C22.25 39.16 22.22 39.16 22.18 39.11C22.14 39.06 22.14 39.06 22.16 39.06C22.18 39.06 22.18 39.05 22.18 39.04C22.18 39.03 22.17 39.03 22.17 39.03C22.16 39.04 22.11 39 22.06 38.93C22.03 38.91 22.01 38.89 22.01 38.89C21.93 38.92 21.8 38.9 21.72 38.87C21.71 38.86 21.7 38.84 21.69 38.82C21.68 38.78 21.65 38.77 21.66 38.8C21.67 38.81 21.66 38.81 21.66 38.81C21.66 38.81 21.65 38.81 21.64 38.82C21.57 38.83 21.49 38.74 21.45 38.68C21.42 38.61 21.39 38.6 21.36 38.63C21.34 38.65 21.34 38.65 21.37 38.71C21.39 38.74 21.41 38.78 21.42 38.78C21.43 38.79 21.45 38.82 21.46 38.85C21.49 38.91 21.49 38.91 21.49 38.88C21.49 38.84 21.52 38.85 21.52 38.9C21.52 38.99 21.61 38.99 21.66 38.9C21.67 38.88 21.68 38.87 21.69 38.85C21.69 38.86 21.7 38.87 21.7 38.89C21.72 38.94 21.73 38.97 21.77 38.98C21.79 38.98 21.81 39 21.83 39.02C21.84 39.04 21.85 39.05 21.86 39.06C21.86 39.08 21.85 39.09 21.85 39.11C21.85 39.14 21.84 39.16 21.83 39.16C21.81 39.16 21.81 39.2 21.82 39.22C21.82 39.23 21.81 39.24 21.8 39.25C21.79 39.27 21.78 39.28 21.78 39.29C21.78 39.3 21.77 39.31 21.76 39.31C21.75 39.31 21.74 39.32 21.74 39.33C21.74 39.34 21.73 39.35 21.7 39.36C21.68 39.37 21.65 39.39 21.64 39.41C21.63 39.43 21.6 39.46 21.58 39.47C21.55 39.48 21.52 39.51 21.51 39.52C21.5 39.53 21.48 39.54 21.48 39.54C21.48 39.54 21.46 39.54 21.45 39.55C21.44 39.56 21.42 39.57 21.41 39.57L21.37 39.59C21.36 39.61 21.34 39.61 21.33 39.61C21.31 39.6 21.27 39.48 21.26 39.42C21.26 39.4 21.23 39.35 21.21 39.32C21.18 39.29 21.16 39.25 21.16 39.24C21.16 39.23 21.14 39.2 21.11 39.18C21.08 39.15 21.06 39.13 21.06 39.1C21.05 39.04 21.02 38.98 20.98 38.95C20.97 38.94 20.95 38.92 20.95 38.91C20.95 38.9 20.92 38.86 20.89 38.81C20.86 38.76 20.83 38.71 20.82 38.7C20.81 38.68 20.81 38.69 20.81 38.71C20.81 38.76 20.79 38.75 20.75 38.68C20.73 38.65 20.71 38.63 20.71 38.63C20.7 38.63 20.71 38.65 20.73 38.68C20.74 38.7 20.77 38.75 20.78 38.78C20.8 38.81 20.82 38.86 20.84 38.89C20.86 38.93 20.88 38.97 20.88 38.98C20.88 39 20.9 39.03 20.92 39.05C20.94 39.08 20.96 39.12 20.97 39.17C20.98 39.22 21 39.26 21.02 39.28C21.04 39.3 21.07 39.34 21.08 39.38C21.09 39.42 21.11 39.45 21.15 39.48C21.22 39.53 21.31 39.63 21.29 39.64C21.28 39.65 21.29 39.66 21.31 39.69C21.33 39.71 21.34 39.71 21.35 39.73C21.4 39.72 21.42 39.71 21.47 39.7C21.54 39.68 21.6 39.66 21.61 39.65C21.63 39.63 21.64 39.64 21.64 39.71C21.65 39.75 21.64 39.79 21.64 39.8C21.63 39.81 21.62 39.86 21.61 39.91C21.58 40.02 21.54 40.11 21.45 40.18C21.43 40.19 21.38 40.23 21.34 40.28C21.3 40.33 21.25 40.39 21.23 40.41C21.21 40.43 21.17 40.49 21.15 40.53C21.12 40.59 21.11 40.61 21.12 40.64C21.13 40.66 21.13 40.7 21.13 40.74C21.13 40.78 21.14 40.81 21.15 40.82C21.17 40.83 21.17 40.87 21.16 40.96C21.15 41.07 21.15 41.09 21.12 41.12C21.11 41.14 21.07 41.16 21.05 41.17C21.03 41.18 21 41.21 20.98 41.23C20.96 41.25 20.93 41.28 20.91 41.29C20.88 41.31 20.88 41.31 20.89 41.36V41.46C20.89 41.51 20.88 41.51 20.83 41.54C20.77 41.57 20.77 41.57 20.76 41.63C20.75 41.68 20.74 41.7 20.71 41.73C20.69 41.75 20.66 41.79 20.64 41.82C20.57 41.92 20.46 41.96 20.34 41.97C20.3 41.97 20.25 41.98 20.24 41.99C20.22 42 20.2 42 20.18 41.99C20.15 41.98 20.12 41.93 20.13 41.91C20.14 41.9 20.06 41.75 20.03 41.73C20 41.7 19.97 41.64 19.96 41.55C19.95 41.5 19.93 41.45 19.92 41.43C19.87 41.37 19.81 41.29 19.8 41.21C19.79 41.16 19.83 41.04 19.86 41C19.89 40.97 19.89 40.95 19.88 40.91C19.87 40.88 19.86 40.83 19.86 40.8C19.84 40.69 19.78 40.59 19.71 40.51C19.63 40.42 19.6 40.38 19.62 40.35C19.63 40.34 19.64 40.3 19.64 40.26C19.64 40.22 19.64 40.17 19.65 40.16C19.65 40.15 19.64 40.12 19.61 40.1C19.57 40.07 19.56 40.06 19.5 40.07C19.43 40.09 19.4 40.07 19.4 40.03C19.4 40.02 19.39 40 19.37 39.98C19.3 39.93 19.19 39.98 19.12 40.01C19.05 40.04 19.02 40.04 18.98 40.03C18.94 40.02 18.9 40.02 18.86 40.03C18.74 40.06 18.73 40.06 18.7 40.03C18.64 39.98 18.53 39.9 18.53 39.83C18.53 39.81 18.51 39.77 18.49 39.73C18.47 39.69 18.45 39.66 18.45 39.65C18.45 39.65 18.44 39.63 18.42 39.63C18.4 39.62 18.39 39.61 18.4 39.58C18.41 39.56 18.41 39.52 18.4 39.5C18.39 39.48 18.39 39.46 18.4 39.46C18.41 39.46 18.45 39.35 18.46 39.29C18.47 39.2 18.47 39.17 18.46 39.14C18.45 39.11 18.45 39.1 18.49 39.04C18.51 39.01 18.53 38.96 18.55 38.94C18.57 38.92 18.58 38.9 18.58 38.89C18.59 38.86 18.68 38.75 18.72 38.72C18.79 38.67 18.83 38.62 18.83 38.58C18.83 38.53 18.89 38.44 18.94 38.41C18.97 38.39 19 38.36 19.01 38.33C19.03 38.27 19.04 38.27 19.05 38.29C19.06 38.31 19.18 38.32 19.2 38.3C19.26 38.24 19.39 38.22 19.48 38.21C19.56 38.2 19.63 38.19 19.66 38.19C19.68 38.19 19.7 38.19 19.7 38.2C19.7 38.21 19.71 38.21 19.72 38.21C19.74 38.2 19.74 38.21 19.72 38.23C19.71 38.25 19.71 38.26 19.72 38.28C19.74 38.31 19.73 38.32 19.71 38.34C19.69 38.36 19.68 38.38 19.68 38.38C19.68 38.39 19.79 38.45 19.8 38.44C19.82 38.43 19.91 38.47 19.92 38.5C19.92 38.52 19.94 38.53 19.96 38.53C19.98 38.53 20.02 38.54 20.05 38.56C20.1 38.59 20.1 38.59 20.12 38.57C20.13 38.56 20.14 38.53 20.14 38.51C20.14 38.47 20.19 38.43 20.24 38.45C20.25 38.45 20.27 38.46 20.27 38.47C20.27 38.47 20.31 38.49 20.35 38.5C20.39 38.51 20.45 38.53 20.47 38.54C20.53 38.56 20.56 38.56 20.6 38.54C20.63 38.52 20.64 38.52 20.67 38.54C20.72 38.58 20.76 38.55 20.78 38.45C20.79 38.4 20.8 38.34 20.8 38.3V38.23C20.78 38.24 20.78 38.24 20.76 38.24C20.74 38.24 20.72 38.25 20.72 38.26C20.72 38.28 20.67 38.28 20.63 38.25C20.6 38.23 20.6 38.23 20.58 38.25C20.56 38.27 20.55 38.27 20.53 38.26C20.52 38.25 20.49 38.23 20.47 38.22C20.45 38.21 20.43 38.19 20.43 38.18C20.43 38.17 20.43 38.16 20.42 38.16C20.41 38.16 20.41 38.14 20.41 38.12C20.41 38.09 20.41 38.08 20.4 38.08C20.39 38.08 20.39 38.08 20.39 38.07C20.37 38.07 20.36 38.06 20.36 38.05C20.37 38.04 20.38 38.04 20.39 38.04C20.38 37.99 20.32 37.97 20.29 38.02C20.28 38.04 20.26 38.04 20.25 38.04C20.23 38.03 20.22 38.05 20.24 38.07C20.25 38.07 20.25 38.09 20.25 38.1C20.24 38.11 20.24 38.12 20.25 38.12C20.3 38.11 20.32 38.15 20.27 38.17C20.25 38.18 20.24 38.19 20.25 38.21C20.25 38.22 20.25 38.23 20.24 38.23C20.22 38.23 20.16 38.16 20.18 38.15C20.18 38.14 20.17 38.11 20.14 38.08C20.11 38.04 20.09 38.01 20.09 37.98C20.09 37.95 20.08 37.93 20.04 37.9C20.01 37.88 19.98 37.86 19.96 37.85C19.94 37.84 19.92 37.81 19.91 37.79C19.89 37.76 19.88 37.75 19.87 37.75C19.85 37.76 19.84 37.75 19.84 37.74C19.83 37.7 19.78 37.73 19.78 37.77C19.78 37.79 19.78 37.81 19.79 37.81C19.8 37.81 19.83 37.83 19.85 37.87C19.87 37.9 19.9 37.93 19.91 37.93C19.92 37.93 19.93 37.94 19.93 37.95C19.93 37.96 19.94 37.97 19.95 37.97C19.97 37.97 20.05 38.03 20.04 38.04C20.04 38.05 20.03 38.04 20.01 38.03C19.99 38.01 19.98 38.01 19.97 38.03C19.95 38.05 19.95 38.06 19.97 38.07C19.98 38.08 19.98 38.09 19.95 38.13C19.91 38.17 19.91 38.18 19.92 38.14C19.93 38.07 19.91 38.04 19.83 37.99C19.78 37.96 19.73 37.91 19.7 37.87C19.68 37.83 19.65 37.8 19.64 37.8C19.63 37.8 19.6 37.82 19.57 37.84C19.53 37.87 19.51 37.87 19.49 37.86C19.45 37.83 19.41 37.86 19.4 37.91C19.39 37.94 19.38 37.96 19.35 37.97C19.31 37.99 19.25 38.06 19.25 38.09C19.25 38.13 19.21 38.19 19.19 38.19C19.19 38.19 19.17 38.2 19.17 38.21C19.17 38.22 19.15 38.23 19.12 38.23C19.09 38.23 19.06 38.24 19.04 38.25C19.02 38.26 19.01 38.26 18.99 38.23C18.98 38.21 18.97 38.2 18.94 38.21C18.91 38.22 18.9 38.22 18.91 38.18C18.92 38.16 18.91 38.13 18.91 38.12C18.9 38.1 18.9 38.09 18.92 38.05C18.93 38.02 18.95 37.97 18.95 37.93C18.95 37.87 18.96 37.86 18.98 37.84C19 37.83 19.01 37.83 19.02 37.83C19.03 37.83 19.08 37.84 19.13 37.84C19.22 37.85 19.23 37.85 19.24 37.81C19.25 37.79 19.26 37.75 19.26 37.73C19.26 37.67 19.21 37.6 19.17 37.6C19.16 37.6 19.15 37.59 19.15 37.58C19.16 37.56 19.18 37.55 19.23 37.56C19.25 37.56 19.26 37.56 19.26 37.53C19.26 37.5 19.26 37.5 19.28 37.51C19.3 37.52 19.31 37.52 19.34 37.5C19.36 37.48 19.38 37.46 19.38 37.45C19.38 37.44 19.4 37.43 19.42 37.42C19.43 37.41 19.46 37.39 19.48 37.36C19.51 37.32 19.52 37.32 19.52 37.33C19.53 37.35 19.53 37.34 19.54 37.32C19.55 37.29 19.55 37.28 19.63 37.28C19.66 37.28 19.66 37.27 19.65 37.16C19.65 37.11 19.65 37.1 19.66 37.11C19.67 37.12 19.68 37.11 19.69 37.1C19.71 37.07 19.74 37.07 19.73 37.09C19.72 37.1 19.72 37.12 19.73 37.13C19.74 37.14 19.74 37.15 19.72 37.16C19.71 37.16 19.69 37.18 19.69 37.19C19.68 37.21 19.7 37.23 19.72 37.24C19.72 37.23 19.73 37.22 19.74 37.21C19.77 37.2 19.77 37.2 19.77 37.21C19.77 37.22 19.76 37.24 19.75 37.25H19.77C19.8 37.25 19.83 37.26 19.84 37.26C19.84 37.26 19.88 37.26 19.92 37.24C19.96 37.22 19.99 37.21 20 37.22C20.02 37.24 20.06 37.24 20.06 37.22C20.06 37.22 20.07 37.21 20.08 37.21C20.1 37.21 20.1 37.2 20.1 37.16C20.1 37.13 20.1 37.1 20.11 37.08V37.07C20.11 37.07 20.12 37.06 20.13 37.06H20.14C20.15 37.06 20.16 37.07 20.17 37.08C20.19 37.11 20.21 37.1 20.21 37.06C20.21 37.04 20.2 37.02 20.19 37.02C20.18 37.02 20.17 37.01 20.17 37C20.17 36.98 20.2 36.97 20.28 36.97C20.31 36.97 20.35 36.97 20.35 36.96C20.36 36.95 20.35 36.94 20.33 36.94C20.32 36.95 20.31 36.95 20.3 36.95C20.29 36.95 20.29 36.94 20.29 36.93C20.27 36.93 20.24 36.93 20.21 36.94C20.14 36.95 20.09 36.93 20.09 36.88C20.09 36.86 20.08 36.83 20.08 36.82C20.08 36.8 20.09 36.78 20.19 36.7C20.22 36.68 20.21 36.66 20.16 36.65C20.12 36.64 20.07 36.67 20.08 36.7C20.09 36.72 20.07 36.74 20.02 36.77C19.98 36.8 19.95 36.84 19.95 36.89C19.95 36.91 19.95 36.92 19.96 36.92C19.97 36.92 19.98 36.93 19.99 36.94C20 36.96 20 36.96 19.99 36.98C19.98 36.99 19.97 37.01 19.95 37.02C19.93 37.03 19.93 37.04 19.93 37.08C19.93 37.13 19.91 37.16 19.87 37.16C19.85 37.16 19.84 37.16 19.84 37.17C19.84 37.2 19.8 37.2 19.79 37.17V37.14C19.8 37.13 19.79 37.12 19.78 37.1C19.77 37.08 19.76 37.06 19.76 37.05C19.76 37.04 19.76 37.03 19.75 37.03C19.74 37.03 19.74 37.02 19.74 37.01C19.74 37 19.74 36.98 19.73 36.97C19.73 36.96 19.72 36.96 19.72 36.97C19.72 36.98 19.7 37 19.68 37.02C19.65 37.04 19.63 37.05 19.6 37.04C19.55 37.02 19.55 37.01 19.57 36.99C19.58 36.97 19.58 36.97 19.56 36.98C19.54 36.99 19.53 36.99 19.55 36.97C19.57 36.95 19.57 36.95 19.56 36.93C19.54 36.89 19.56 36.85 19.6 36.82C19.6 36.8 19.63 36.79 19.64 36.79V36.79ZM19.72 38.2C19.72 38.2 19.75 38.19 19.78 38.19C19.83 38.19 19.84 38.19 19.83 38.23C19.83 38.26 19.82 38.27 19.82 38.27C19.82 38.27 19.79 38.25 19.77 38.24C19.74 38.22 19.72 38.21 19.72 38.2V38.2ZM19.17 37.41C19.15 37.4 19.13 37.4 19.13 37.4C19.12 37.4 19.12 37.4 19.12 37.39C19.13 37.39 19.14 37.37 19.15 37.37C19.17 37.36 19.17 37.36 19.16 37.34C19.16 37.31 19.16 37.31 19.18 37.31C19.19 37.31 19.2 37.3 19.21 37.29V37.27C19.2 37.27 19.2 37.26 19.2 37.25C19.2 37.23 19.19 37.23 19.17 37.24C19.14 37.25 19.14 37.25 19.15 37.21C19.16 37.17 19.15 37.15 19.13 37.19V37.18C19.13 37.16 19.13 37.15 19.12 37.16C19.11 37.17 19.11 37.16 19.13 37.12C19.14 37.09 19.15 37.07 19.16 37.06C19.17 37.06 19.19 37.05 19.2 37.05C19.23 37.05 19.23 37.05 19.21 37.07C19.18 37.1 19.18 37.11 19.22 37.1C19.26 37.09 19.26 37.11 19.23 37.16C19.21 37.19 19.21 37.19 19.23 37.2C19.24 37.21 19.25 37.22 19.25 37.24C19.25 37.26 19.26 37.28 19.27 37.28C19.27 37.29 19.29 37.31 19.29 37.33C19.3 37.35 19.31 37.37 19.32 37.37C19.34 37.37 19.35 37.39 19.34 37.41C19.34 37.42 19.34 37.43 19.33 37.43C19.33 37.43 19.31 37.44 19.29 37.44C19.27 37.45 19.23 37.45 19.2 37.46C19.17 37.46 19.13 37.47 19.12 37.48C19.1 37.49 19.11 37.49 19.13 37.46C19.14 37.44 19.17 37.42 19.18 37.42C19.2 37.42 19.2 37.42 19.17 37.41V37.41ZM18.7 35.81C18.71 35.81 18.72 35.81 18.72 35.82C18.71 35.83 18.67 35.83 18.67 35.82C18.67 35.82 18.68 35.81 18.7 35.81ZM17.61 36.17L17.63 36.15C17.63 36.14 17.64 36.13 17.68 36.12C17.69 36.11 17.72 36.12 17.74 36.13H17.76C17.77 36.13 17.78 36.14 17.78 36.14C17.78 36.14 17.79 36.14 17.79 36.13C17.79 36.12 17.81 36.11 17.85 36.1C17.88 36.09 17.92 36.08 17.92 36.08C17.93 36.07 17.9 36.07 17.84 36.09C17.81 36.1 17.81 36.1 17.82 36.09L17.81 36.1C17.79 36.12 17.76 36.12 17.75 36.1C17.73 36.08 17.75 36.07 17.79 36.06C17.81 36.05 17.84 36.04 17.85 36.03C17.86 36.02 17.88 36.02 17.89 36.02C17.9 36.02 17.92 36.02 17.93 36.01C17.94 36 17.97 35.98 18.01 35.97C18.11 35.94 18.29 35.88 18.39 35.92C18.43 35.89 18.54 35.87 18.55 35.89C18.56 35.9 18.56 35.9 18.57 35.89C18.58 35.88 18.59 35.88 18.6 35.89C18.63 35.91 18.64 35.9 18.64 35.88C18.64 35.85 18.65 35.85 18.71 35.87C18.77 35.89 18.77 35.89 18.77 35.87L18.78 35.86C18.79 35.85 18.78 35.84 18.76 35.83C18.75 35.83 18.77 35.82 18.83 35.82C18.88 35.82 18.93 35.82 18.93 35.81C18.93 35.8 18.95 35.79 18.98 35.79C19.06 35.77 19.16 35.77 19.24 35.79C19.25 35.79 19.27 35.8 19.29 35.8C19.31 35.8 19.32 35.8 19.32 35.81C19.32 35.81 19.3 35.82 19.28 35.82C19.26 35.82 19.24 35.82 19.24 35.83C19.24 35.83 19.25 35.84 19.28 35.83C19.32 35.82 19.33 35.82 19.31 35.84C19.3 35.85 19.28 35.86 19.28 35.86V35.87C19.28 35.88 19.3 35.87 19.32 35.86C19.34 35.85 19.37 35.85 19.38 35.85C19.39 35.85 19.42 35.85 19.44 35.84C19.46 35.82 19.49 35.82 19.52 35.83C19.54 35.83 19.55 35.83 19.57 35.84C19.55 35.85 19.54 35.85 19.52 35.86C19.48 35.88 19.46 35.89 19.42 35.92C19.41 35.92 19.4 35.93 19.39 35.93C19.38 35.93 19.37 35.94 19.36 35.95C19.36 35.96 19.35 35.97 19.34 35.97C19.34 35.97 19.32 35.98 19.31 36C19.3 36.01 19.3 36.02 19.29 36.03C19.3 36.03 19.3 36.02 19.31 36.02C19.32 36.02 19.33 36.02 19.33 36.03C19.34 36.04 19.35 36.05 19.36 36.05C19.39 36.05 19.39 36.07 19.37 36.09C19.36 36.1 19.36 36.1 19.36 36.09C19.37 36.08 19.35 36.08 19.33 36.08C19.33 36.09 19.32 36.09 19.32 36.09V36.08C19.28 36.08 19.28 36.1 19.32 36.1C19.33 36.1 19.35 36.13 19.35 36.15C19.35 36.16 19.34 36.16 19.33 36.16C19.3 36.16 19.3 36.19 19.33 36.19H19.35C19.35 36.19 19.34 36.2 19.33 36.2C19.31 36.2 19.3 36.21 19.3 36.22C19.3 36.24 19.25 36.26 19.22 36.24C19.21 36.23 19.19 36.23 19.19 36.23C19.18 36.24 19.19 36.25 19.21 36.26C19.24 36.28 19.25 36.3 19.23 36.31C19.22 36.32 19.18 36.29 19.18 36.28C19.18 36.28 19.18 36.27 19.17 36.27C19.15 36.27 19.16 36.31 19.19 36.32C19.22 36.33 19.24 36.38 19.24 36.4C19.24 36.42 19.17 36.41 19.17 36.39L19.15 36.37C19.13 36.36 19.13 36.36 19.13 36.38C19.13 36.4 19.12 36.41 19.11 36.41C19.1 36.41 19.1 36.42 19.12 36.42C19.14 36.42 19.16 36.42 19.17 36.43C19.18 36.44 19.18 36.44 19.12 36.47C19.03 36.52 18.93 36.54 18.91 36.52C18.9 36.51 18.9 36.51 18.9 36.53C18.9 36.54 18.74 36.55 18.73 36.55C18.73 36.55 18.87 36.56 18.85 36.58C18.83 36.6 18.8 36.63 18.78 36.63C18.76 36.64 18.73 36.65 18.72 36.66C18.7 36.67 18.7 36.67 18.71 36.65C18.72 36.63 18.72 36.63 18.7 36.65C18.69 36.67 18.66 36.68 18.64 36.69C18.6 36.7 18.6 36.7 18.6 36.72C18.61 36.73 18.6 36.74 18.59 36.74C18.58 36.74 18.57 36.75 18.58 36.75C18.59 36.77 18.58 36.78 18.54 36.81C18.52 36.82 18.5 36.84 18.5 36.85C18.5 36.86 18.49 36.89 18.47 36.92C18.44 36.96 18.43 36.97 18.41 36.97C18.4 36.97 18.39 36.97 18.39 36.96C18.39 36.96 18.39 36.95 18.38 36.95C18.37 36.95 18.37 36.95 18.37 36.94H18.35C18.31 36.96 18.29 36.94 18.25 36.83C18.23 36.76 18.23 36.76 18.26 36.73C18.29 36.7 18.29 36.7 18.26 36.72C18.22 36.74 18.22 36.74 18.23 36.72V36.67C18.22 36.65 18.22 36.63 18.23 36.63C18.24 36.63 18.24 36.62 18.24 36.61C18.24 36.59 18.24 36.59 18.27 36.56C18.29 36.55 18.31 36.53 18.32 36.53C18.33 36.53 18.35 36.51 18.36 36.49C18.38 36.46 18.38 36.45 18.37 36.47C18.37 36.48 18.36 36.48 18.36 36.47C18.36 36.46 18.35 36.45 18.34 36.45C18.32 36.44 18.32 36.44 18.33 36.46C18.33 36.47 18.34 36.47 18.34 36.48C18.33 36.48 18.33 36.49 18.32 36.49C18.29 36.51 18.27 36.49 18.28 36.47L18.3 36.45C18.31 36.45 18.31 36.45 18.31 36.44C18.31 36.43 18.32 36.42 18.33 36.42C18.33 36.41 18.34 36.41 18.33 36.42C18.33 36.43 18.33 36.43 18.35 36.43C18.36 36.43 18.38 36.44 18.38 36.44C18.4 36.46 18.4 36.42 18.38 36.4C18.37 36.39 18.35 36.38 18.33 36.39C18.3 36.4 18.3 36.38 18.33 36.35C18.34 36.33 18.35 36.32 18.34 36.28C18.33 36.25 18.33 36.23 18.32 36.23C18.32 36.23 18.31 36.22 18.31 36.21C18.3 36.18 18.25 36.17 18.16 36.19C18.1 36.21 18.07 36.21 18.07 36.2C18.07 36.19 18.06 36.18 18.05 36.18C18.04 36.18 18.04 36.18 18.07 36.17C18.09 36.17 18.11 36.16 18.11 36.15C18.09 36.16 18.02 36.14 18.03 36.13C18.04 36.12 18.06 36.11 18.16 36.08C18.21 36.06 18.23 36.05 18.24 36.04C18.25 36.03 18.24 36.03 18.22 36.03H18.2L18.17 36.04C18.11 36.07 18.04 36.1 18.01 36.11C17.99 36.11 17.98 36.13 18 36.13C18.01 36.13 18.01 36.13 17.99 36.15C17.98 36.17 17.95 36.18 17.94 36.18C17.93 36.19 17.91 36.19 17.91 36.2L17.89 36.22C17.87 36.23 17.87 36.23 17.88 36.24C17.9 36.25 17.89 36.25 17.75 36.28C17.64 36.3 17.61 36.3 17.68 36.27C17.7 36.26 17.7 36.26 17.7 36.25C17.7 36.25 17.71 36.24 17.73 36.24C17.75 36.24 17.76 36.23 17.76 36.23C17.75 36.23 17.76 36.23 17.76 36.22H17.74C17.71 36.22 17.71 36.22 17.73 36.2C17.74 36.19 17.73 36.19 17.72 36.2C17.66 36.24 17.64 36.24 17.62 36.24C17.59 36.24 17.59 36.23 17.61 36.21L17.58 36.19C17.59 36.18 17.6 36.17 17.61 36.17V36.17ZM19.38 35.97C19.38 35.97 19.37 35.98 19.36 35.98C19.35 35.96 19.38 35.95 19.38 35.97ZM16.37 40.35C16.36 40.35 16.35 40.34 16.35 40.32C16.34 40.28 16.36 40.16 16.37 40.16C16.38 40.16 16.38 40.14 16.38 40.12C16.38 40.1 16.39 40.08 16.39 40.08C16.42 40.07 16.44 39.89 16.44 39.82C16.41 39.85 16.4 39.85 16.39 39.82V39.81C16.38 39.82 16.36 39.81 16.35 39.79C16.35 39.79 16.35 39.78 16.34 39.78C16.33 39.78 16.32 39.78 16.32 39.79C16.29 39.81 16.28 39.81 16.27 39.79C16.26 39.78 16.26 39.75 16.25 39.73C16.25 39.7 16.25 39.69 16.26 39.66C16.26 39.65 16.27 39.64 16.27 39.63C16.26 39.65 16.25 39.65 16.25 39.62C16.25 39.6 16.25 39.6 16.26 39.6H16.27V39.49C16.27 39.49 16.27 39.48 16.26 39.48C16.22 39.48 16.18 39.42 16.17 39.38C16.16 39.31 16.15 39.3 16.12 39.32C16.1 39.33 16.09 39.33 16.06 39.29C16.04 39.27 16.02 39.24 16.02 39.23C16.01 39.22 16.01 39.21 16 39.2C15.98 39.19 15.97 39.12 15.97 39.1C15.97 39.09 15.98 39.07 15.99 39.06C16.02 39.02 16.02 38.96 16.02 38.87V38.71C16.02 38.67 16.03 38.62 16.04 38.59C16.04 38.55 16.05 38.53 16.04 38.52C16.03 38.5 16.03 38.5 16.01 38.55C16 38.58 15.99 38.6 15.99 38.61C15.99 38.62 15.98 38.65 15.98 38.69C15.97 38.72 15.97 38.76 15.97 38.76L15.95 38.82C15.94 38.85 15.94 38.88 15.94 38.88C15.95 38.89 15.94 38.93 15.93 38.94C15.92 38.95 15.92 38.85 15.93 38.83C15.94 38.81 15.94 38.79 15.94 38.78C15.92 38.71 15.92 38.72 15.94 38.7C15.96 38.69 15.96 38.68 15.96 38.65C15.96 38.63 15.97 38.58 15.98 38.53C16.01 38.44 16.01 38.41 15.99 38.4C15.98 38.39 15.98 38.39 15.98 38.38C15.99 38.37 15.99 38.34 16 38.31C16.01 38.27 16.02 38.24 16.03 38.23C16.03 38.22 16.04 38.21 16.03 38.22C16.02 38.23 16.02 38.19 16.04 38.16C16.05 38.16 16.05 38.14 16.05 38.14C16.08 38.05 16.13 37.97 16.18 37.89C16.22 37.82 16.23 37.8 16.24 37.77C16.25 37.74 16.26 37.74 16.26 37.74C16.27 37.76 16.28 37.76 16.29 37.74C16.31 37.71 16.31 37.69 16.3 37.68V37.65C16.29 37.66 16.28 37.69 16.28 37.71C16.28 37.72 16.28 37.74 16.27 37.74C16.26 37.75 16.24 37.67 16.25 37.65C16.25 37.64 16.26 37.64 16.26 37.64C16.27 37.66 16.27 37.66 16.28 37.65C16.29 37.64 16.29 37.64 16.28 37.64C16.27 37.64 16.28 37.63 16.29 37.61C16.29 37.61 16.29 37.6 16.3 37.58C16.31 37.56 16.31 37.55 16.3 37.56C16.29 37.57 16.29 37.56 16.31 37.54C16.33 37.51 16.33 37.51 16.32 37.52C16.29 37.56 16.29 37.55 16.32 37.5C16.34 37.47 16.34 37.46 16.34 37.46C16.33 37.46 16.34 37.41 16.35 37.4C16.36 37.39 16.36 37.39 16.35 37.39C16.36 37.38 16.37 37.36 16.38 37.35C16.38 37.35 16.38 37.36 16.37 37.36L16.35 37.38V37.37C16.34 37.38 16.33 37.4 16.33 37.41C16.33 37.42 16.32 37.42 16.32 37.42L16.33 37.41C16.34 37.4 16.35 37.37 16.36 37.35C16.35 37.36 16.35 37.36 16.35 37.34C16.35 37.32 16.37 37.29 16.36 37.29C16.35 37.29 16.35 37.28 16.35 37.27C16.35 37.26 16.34 37.26 16.33 37.28C16.32 37.29 16.32 37.3 16.31 37.3C16.31 37.3 16.29 37.31 16.28 37.32C16.26 37.34 16.24 37.35 16.26 37.33L16.27 37.32C16.26 37.32 16.3 37.27 16.32 37.26C16.33 37.25 16.33 37.25 16.32 37.25C16.31 37.25 16.26 37.29 16.25 37.31C16.25 37.32 16.24 37.32 16.23 37.33C16.22 37.34 16.2 37.36 16.21 37.36C16.22 37.36 16.22 37.36 16.2 37.38L16.16 37.42L16.13 37.45L16.12 37.46C16.12 37.46 16.11 37.48 16.09 37.49C16.08 37.5 16.05 37.52 16.04 37.53C16.04 37.54 16.03 37.54 16.02 37.55C16.02 37.54 16.03 37.54 16.03 37.53L16.04 37.52L16.05 37.51L16.09 37.47L16.1 37.46C16.08 37.47 16.09 37.45 16.11 37.44C16.12 37.44 16.13 37.43 16.14 37.42C16.13 37.42 16.14 37.41 16.15 37.41C16.17 37.39 16.17 37.39 16.16 37.39C16.15 37.39 16.14 37.4 16.14 37.4H16.13C16.13 37.39 16.12 37.39 16.11 37.4C16.1 37.41 16.09 37.41 16.11 37.39C16.12 37.37 16.13 37.37 16.12 37.37C16.15 37.33 16.18 37.28 16.21 37.24C16.23 37.23 16.24 37.22 16.25 37.21C16.25 37.2 16.26 37.19 16.27 37.18C16.28 37.16 16.28 37.16 16.27 37.17C16.26 37.17 16.26 37.18 16.25 37.18L16.29 37.12C16.3 37.12 16.31 37.11 16.31 37.11C16.32 37.09 16.33 37.07 16.32 37.08L16.31 37.09C16.35 37.05 16.38 37 16.42 36.96C16.43 36.95 16.45 36.93 16.47 36.92C16.48 36.92 16.49 36.91 16.5 36.9C16.51 36.89 16.52 36.89 16.52 36.89H16.59C16.66 36.87 16.63 36.89 16.66 36.9C16.68 36.91 16.68 36.91 16.7 36.89C16.72 36.87 16.76 36.85 16.81 36.83C16.82 36.82 16.84 36.81 16.85 36.8C16.86 36.78 16.86 36.78 16.86 36.8C16.86 36.82 16.87 36.82 16.89 36.8C16.9 36.79 16.9 36.79 16.9 36.8C16.9 36.81 16.9 36.81 16.92 36.8C16.94 36.8 16.96 36.79 16.97 36.8H17.02C17.05 36.79 17.06 36.8 17.04 36.81C17.03 36.81 17.02 36.82 17.01 36.83C17 36.84 17.01 36.84 17.05 36.83C17.11 36.81 17.14 36.81 17.12 36.84C17.12 36.85 17.11 36.85 17.12 36.85C17.12 36.85 17.13 36.83 17.14 36.82C17.15 36.8 17.16 36.79 17.18 36.78C17.2 36.77 17.21 36.76 17.21 36.76C17.21 36.75 17.2 36.76 17.18 36.77C17.16 36.78 17.15 36.78 17.15 36.78C17.16 36.76 17.21 36.74 17.22 36.76C17.23 36.79 17.32 36.78 17.35 36.75C17.37 36.73 17.38 36.72 17.36 36.72C17.35 36.72 17.35 36.72 17.38 36.7C17.41 36.67 17.43 36.67 17.43 36.7C17.43 36.72 17.43 36.72 17.42 36.72H17.4V36.73C17.4 36.74 17.4 36.75 17.39 36.76V36.78C17.4 36.78 17.4 36.78 17.41 36.76C17.41 36.74 17.42 36.73 17.44 36.72C17.47 36.7 17.5 36.68 17.48 36.68C17.47 36.68 17.47 36.68 17.48 36.67C17.49 36.67 17.49 36.66 17.49 36.66C17.46 36.66 17.45 36.65 17.47 36.62C17.48 36.6 17.5 36.59 17.51 36.58C17.54 36.57 17.55 36.55 17.56 36.52C17.56 36.5 17.57 36.49 17.58 36.48C17.59 36.47 17.7 36.44 17.69 36.45C17.68 36.47 17.62 36.51 17.61 36.51C17.6 36.5 17.59 36.51 17.57 36.53C17.55 36.55 17.55 36.56 17.55 36.56C17.56 36.56 17.56 36.62 17.55 36.63C17.53 36.64 17.52 36.66 17.54 36.66C17.55 36.66 17.55 36.66 17.54 36.68C17.53 36.71 17.53 36.71 17.56 36.68C17.58 36.66 17.58 36.66 17.59 36.67C17.6 36.68 17.59 36.69 17.58 36.7C17.57 36.71 17.57 36.72 17.57 36.73C17.57 36.76 17.59 36.75 17.6 36.72C17.61 36.7 17.62 36.7 17.62 36.7C17.63 36.71 17.64 36.7 17.66 36.68C17.67 36.66 17.68 36.65 17.68 36.65C17.67 36.65 17.68 36.63 17.7 36.62C17.7 36.62 17.69 36.61 17.67 36.61C17.64 36.61 17.63 36.6 17.63 36.58C17.63 36.56 17.63 36.55 17.66 36.52C17.69 36.48 17.72 36.46 17.76 36.45C17.78 36.44 17.78 36.44 17.76 36.46L17.73 36.49C17.72 36.5 17.72 36.51 17.71 36.52V36.55C17.72 36.57 17.72 36.57 17.73 36.55C17.74 36.54 17.74 36.54 17.73 36.54C17.72 36.54 17.72 36.53 17.73 36.52C17.74 36.49 17.77 36.47 17.82 36.45C17.85 36.44 17.86 36.44 17.86 36.45C17.87 36.44 17.88 36.43 17.9 36.43C17.94 36.42 17.97 36.44 17.95 36.46C17.94 36.47 17.94 36.47 17.95 36.47C17.95 36.47 17.97 36.48 17.97 36.5C17.97 36.52 17.98 36.53 17.99 36.52C18.01 36.51 18.04 36.52 18.03 36.54C18.03 36.55 18.03 36.55 18.04 36.55C18.07 36.54 18.07 36.55 18.06 36.56C18.05 36.57 18.06 36.58 18.07 36.57C18.08 36.56 18.09 36.56 18.09 36.57C18.09 36.58 18.08 36.59 18.07 36.59C18.06 36.59 18.06 36.59 18.07 36.6C18.08 36.61 18.08 36.61 18.07 36.61C18.02 36.62 18.04 36.66 18.09 36.67C18.1 36.67 18.11 36.68 18.11 36.69C18.1 36.7 18.12 36.71 18.13 36.71C18.14 36.72 18.15 36.72 18.16 36.72C18.14 36.73 18.13 36.74 18.12 36.75C18.1 36.77 18.08 36.78 18.08 36.78C18.08 36.77 18.08 36.78 18.07 36.79C18.06 36.81 18.04 36.81 18.03 36.78C18.02 36.73 18.01 36.73 17.99 36.75C17.96 36.77 17.96 36.77 17.97 36.79C17.98 36.8 17.98 36.81 17.99 36.81C18 36.81 18 36.82 18 36.84C18 36.87 18 36.88 17.98 36.9C17.96 36.92 17.96 36.92 17.93 36.9C17.9 36.87 17.88 36.88 17.91 36.92C17.93 36.95 17.93 36.98 17.91 36.97C17.91 36.97 17.89 36.96 17.88 36.96C17.87 36.96 17.86 36.95 17.86 36.94C17.85 36.94 17.85 36.93 17.84 36.94C17.82 36.95 17.81 36.92 17.82 36.9C17.83 36.89 17.83 36.89 17.82 36.89C17.81 36.89 17.8 36.88 17.8 36.87C17.8 36.85 17.78 36.85 17.74 36.86C17.71 36.87 17.69 36.87 17.69 36.86C17.71 36.84 17.74 36.81 17.75 36.82C17.75 36.82 17.77 36.82 17.79 36.81C17.81 36.8 17.82 36.79 17.82 36.78C17.82 36.77 17.82 36.76 17.84 36.75C17.9 36.72 17.92 36.67 17.88 36.65C17.86 36.65 17.86 36.64 17.86 36.63H17.85C17.84 36.64 17.84 36.64 17.84 36.63C17.85 36.62 17.85 36.61 17.84 36.6C17.83 36.58 17.83 36.58 17.82 36.6C17.81 36.61 17.8 36.62 17.75 36.62C17.71 36.62 17.69 36.63 17.69 36.63C17.69 36.64 17.7 36.64 17.71 36.65C17.72 36.66 17.73 36.67 17.72 36.68C17.71 36.69 17.7 36.69 17.7 36.69C17.69 36.69 17.69 36.71 17.69 36.73V36.75L17.67 36.77C17.65 36.78 17.63 36.79 17.62 36.79C17.6 36.79 17.59 36.8 17.59 36.81C17.58 36.82 17.58 36.82 17.58 36.81C17.58 36.8 17.57 36.79 17.56 36.79H17.54C17.54 36.79 17.53 36.82 17.5 36.84C17.51 36.83 17.53 36.84 17.53 36.84C17.53 36.84 17.52 36.84 17.52 36.85V36.87L17.57 36.92C17.58 36.92 17.58 36.92 17.58 36.93C17.57 36.94 17.56 36.95 17.54 36.95C17.53 36.94 17.52 36.94 17.49 36.96C17.46 36.98 17.45 36.98 17.45 36.97C17.45 36.96 17.44 36.95 17.43 36.96C17.41 36.97 17.41 36.97 17.43 36.95C17.44 36.94 17.46 36.91 17.47 36.89C17.48 36.88 17.49 36.86 17.5 36.85C17.47 36.88 17.44 36.91 17.42 36.91C17.4 36.92 17.36 36.94 17.36 36.96C17.36 36.96 17.35 36.97 17.34 36.97C17.32 36.97 17.25 37.03 17.21 37.08C17.16 37.15 17.14 37.17 17.16 37.18C17.16 37.18 17.17 37.2 17.16 37.22C17.15 37.25 17.15 37.25 17.18 37.25C17.2 37.25 17.22 37.26 17.23 37.28C17.24 37.3 17.25 37.31 17.26 37.31C17.27 37.31 17.27 37.31 17.27 37.32C17.26 37.33 17.28 37.33 17.3 37.33C17.34 37.33 17.34 37.33 17.29 37.43V37.46C17.29 37.45 17.29 37.45 17.3 37.45V37.46C17.3 37.47 17.29 37.47 17.29 37.47V37.49C17.29 37.53 17.3 37.53 17.32 37.52C17.35 37.5 17.36 37.49 17.38 37.41C17.39 37.39 17.39 37.38 17.4 37.36C17.42 37.35 17.43 37.34 17.45 37.33C17.47 37.32 17.5 37.29 17.51 37.28C17.54 37.25 17.55 37.2 17.54 37.18C17.53 37.17 17.53 37.17 17.56 37.14C17.58 37.11 17.59 37.1 17.61 37.05C17.62 37.02 17.63 36.99 17.64 36.98H17.72C17.74 36.98 17.77 37 17.76 37.02C17.76 37.03 17.77 37.04 17.78 37.04C17.8 37.05 17.8 37.05 17.78 37.1C17.76 37.15 17.76 37.16 17.77 37.15C17.78 37.15 17.79 37.15 17.79 37.16C17.79 37.18 17.83 37.16 17.88 37.11C17.9 37.09 17.9 37.08 17.92 37.06V37.14C17.93 37.19 17.93 37.24 17.92 37.25V37.29C17.93 37.3 17.93 37.31 17.93 37.32C17.93 37.33 17.94 37.34 17.95 37.34C17.96 37.35 17.97 37.35 17.97 37.35C17.97 37.35 17.98 37.36 17.99 37.36L17.98 37.37C17.97 37.38 17.97 37.39 17.99 37.4C18.01 37.41 18.01 37.42 18 37.46C17.98 37.5 17.98 37.51 17.94 37.52C17.92 37.53 17.88 37.55 17.86 37.57C17.82 37.59 17.81 37.6 17.74 37.59C17.68 37.59 17.65 37.59 17.63 37.61C17.62 37.62 17.59 37.64 17.57 37.65C17.55 37.66 17.52 37.69 17.49 37.72C17.46 37.76 17.45 37.76 17.48 37.74C17.53 37.68 17.59 37.65 17.63 37.65C17.66 37.65 17.67 37.65 17.66 37.67C17.65 37.68 17.64 37.7 17.62 37.7C17.6 37.71 17.6 37.71 17.61 37.71C17.62 37.71 17.62 37.72 17.61 37.74C17.59 37.78 17.6 37.81 17.64 37.82C17.66 37.82 17.67 37.81 17.7 37.78C17.72 37.75 17.73 37.75 17.72 37.77C17.71 37.79 17.71 37.8 17.72 37.8C17.73 37.8 17.72 37.81 17.71 37.82C17.7 37.83 17.69 37.83 17.69 37.82C17.69 37.8 17.69 37.8 17.68 37.82C17.67 37.84 17.61 37.88 17.58 37.89C17.57 37.89 17.55 37.9 17.53 37.92C17.51 37.94 17.49 37.95 17.49 37.94C17.48 37.93 17.5 37.89 17.51 37.89C17.51 37.89 17.52 37.88 17.54 37.87C17.57 37.85 17.57 37.85 17.54 37.86C17.52 37.86 17.51 37.87 17.5 37.87C17.5 37.87 17.48 37.88 17.47 37.89C17.45 37.9 17.42 37.92 17.4 37.93C17.35 37.96 17.31 38.01 17.31 38.05C17.31 38.06 17.3 38.07 17.26 38.08C17.23 38.08 17.22 38.09 17.22 38.1C17.22 38.11 17.21 38.11 17.2 38.11C17.19 38.11 17.18 38.12 17.16 38.15C17.14 38.18 17.13 38.19 17.12 38.19C17.11 38.19 17.1 38.2 17.1 38.21C17.09 38.22 17.08 38.24 17.07 38.26C17.06 38.29 17.06 38.28 17.07 38.24C17.08 38.21 17.08 38.2 17.07 38.21C17.05 38.23 17.03 38.3 17.03 38.32C17.03 38.33 17.02 38.35 17.01 38.36C17 38.37 16.99 38.38 17 38.38C17.01 38.38 17.01 38.39 17 38.4C16.99 38.41 16.98 38.41 16.98 38.41C16.98 38.4 16.97 38.4 16.97 38.42C16.97 38.44 16.96 38.45 16.95 38.45C16.95 38.45 16.93 38.46 16.92 38.47C16.91 38.48 16.89 38.49 16.89 38.49L16.85 38.53L16.81 38.57C16.8 38.57 16.75 38.63 16.74 38.66C16.73 38.67 16.72 38.69 16.72 38.72C16.7 38.83 16.69 38.87 16.67 38.91C16.66 38.93 16.64 38.95 16.64 38.95C16.63 38.95 16.62 38.92 16.63 38.9V38.85C16.63 38.83 16.64 38.8 16.65 38.79C16.67 38.75 16.66 38.69 16.63 38.71C16.61 38.72 16.6 38.71 16.6 38.7C16.6 38.69 16.57 38.68 16.55 38.68C16.5 38.68 16.5 38.68 16.49 38.71C16.48 38.74 16.48 38.74 16.46 38.73C16.41 38.7 16.37 38.7 16.34 38.73C16.32 38.74 16.31 38.75 16.3 38.75C16.28 38.75 16.24 38.82 16.22 38.87C16.22 38.89 16.21 38.92 16.2 38.92C16.19 38.93 16.17 38.97 16.15 39.02C16.12 39.09 16.11 39.12 16.11 39.18C16.1 39.27 16.12 39.3 16.16 39.28H16.19C16.19 39.3 16.24 39.25 16.25 39.21C16.27 39.16 16.29 39.15 16.34 39.14C16.38 39.13 16.38 39.14 16.35 39.19C16.34 39.21 16.32 39.24 16.31 39.26C16.3 39.28 16.29 39.29 16.29 39.29C16.29 39.28 16.28 39.3 16.27 39.33C16.25 39.36 16.24 39.39 16.23 39.4C16.21 39.43 16.21 39.43 16.28 39.43C16.32 39.43 16.34 39.44 16.34 39.46C16.34 39.49 16.34 39.5 16.3 39.59C16.29 39.62 16.28 39.64 16.27 39.66C16.27 39.67 16.27 39.67 16.28 39.67C16.3 39.68 16.32 39.71 16.31 39.73C16.3 39.75 16.3 39.75 16.33 39.76C16.34 39.76 16.35 39.77 16.35 39.78C16.37 39.77 16.39 39.78 16.39 39.8C16.39 39.77 16.43 39.73 16.44 39.74V39.81C16.46 39.78 16.48 39.75 16.48 39.74L16.5 39.72H16.52C16.53 39.72 16.53 39.72 16.54 39.71C16.54 39.7 16.55 39.7 16.56 39.7C16.57 39.7 16.59 39.69 16.61 39.67C16.65 39.64 16.66 39.65 16.63 39.69C16.61 39.73 16.61 39.76 16.63 39.73C16.64 39.72 16.65 39.71 16.66 39.71C16.67 39.71 16.68 39.7 16.68 39.69V39.68C16.68 39.68 16.68 39.69 16.69 39.69C16.7 39.69 16.71 39.71 16.71 39.73C16.72 39.75 16.73 39.76 16.75 39.76C16.77 39.75 16.78 39.76 16.79 39.77C16.8 39.78 16.82 39.78 16.85 39.77C16.89 39.76 16.9 39.76 16.9 39.78C16.9 39.8 16.91 39.81 16.92 39.82C16.94 39.83 16.94 39.84 16.93 39.86C16.92 39.88 16.92 39.89 16.94 39.89C16.95 39.9 16.97 39.92 16.99 39.97C17.02 40.04 17.02 40.05 17.09 40.06C17.15 40.07 17.17 40.08 17.19 40.13C17.21 40.16 17.23 40.21 17.24 40.24C17.25 40.26 17.27 40.3 17.28 40.31C17.3 40.33 17.3 40.34 17.28 40.38C17.27 40.41 17.26 40.44 17.26 40.46C17.26 40.49 17.27 40.49 17.28 40.45C17.3 40.42 17.31 40.41 17.33 40.42C17.37 40.43 17.38 40.46 17.35 40.49C17.34 40.5 17.33 40.52 17.34 40.53C17.34 40.54 17.36 40.52 17.37 40.5C17.38 40.49 17.38 40.48 17.39 40.46C17.42 40.48 17.43 40.48 17.46 40.5C17.51 40.53 17.53 40.54 17.53 40.57C17.53 40.6 17.54 40.6 17.56 40.59C17.58 40.58 17.59 40.59 17.61 40.6C17.63 40.6 17.66 40.62 17.69 40.62C17.73 40.63 17.75 40.64 17.81 40.7C17.85 40.74 17.89 40.77 17.91 40.77C17.94 40.78 17.94 40.79 17.96 40.84C17.98 40.87 17.98 40.92 17.98 40.94C17.96 41.03 17.9 41.1 17.86 41.17C17.84 41.2 17.84 41.22 17.85 41.29V41.49C17.86 41.5 17.85 41.52 17.84 41.55C17.83 41.58 17.82 41.6 17.82 41.61C17.82 41.63 17.78 41.66 17.75 41.66C17.71 41.66 17.6 41.72 17.58 41.75C17.58 41.76 17.57 41.8 17.58 41.83C17.59 41.87 17.58 41.9 17.57 41.93C17.56 41.95 17.55 41.97 17.54 41.98V42V41.97C17.53 41.96 17.52 42 17.51 42.05C17.51 42.08 17.49 42.11 17.48 42.13C17.46 42.16 17.45 42.16 17.4 42.15C17.37 42.15 17.34 42.13 17.33 42.12C17.32 42.11 17.32 42.11 17.32 42.12L17.35 42.15C17.36 42.16 17.38 42.18 17.38 42.19C17.39 42.21 17.39 42.22 17.4 42.22C17.42 42.22 17.42 42.25 17.4 42.28C17.38 42.31 17.34 42.32 17.28 42.31C17.25 42.3 17.24 42.31 17.25 42.32C17.26 42.33 17.26 42.35 17.26 42.37C17.26 42.4 17.26 42.4 17.22 42.39C17.18 42.37 17.18 42.37 17.19 42.4C17.2 42.42 17.21 42.43 17.22 42.44C17.23 42.45 17.23 42.45 17.22 42.45C17.21 42.45 17.21 42.45 17.21 42.46V42.53C17.21 42.54 17.2 42.55 17.19 42.55C17.15 42.55 17.17 42.62 17.22 42.63C17.24 42.63 17.24 42.67 17.22 42.68C17.21 42.69 17.2 42.71 17.2 42.72C17.2 42.73 17.2 42.74 17.19 42.74C17.17 42.74 17.17 42.75 17.19 42.79C17.2 42.82 17.2 42.82 17.19 42.82C17.18 42.82 17.18 42.82 17.2 42.83C17.22 42.84 17.23 42.85 17.23 42.86C17.24 42.88 17.31 42.94 17.33 42.94C17.36 42.95 17.35 42.96 17.31 42.96C17.29 42.96 17.27 42.95 17.26 42.94C17.24 42.93 17.24 42.93 17.25 42.94C17.26 42.95 17.26 42.95 17.24 42.95C17.23 42.94 17.22 42.94 17.22 42.93C17.22 42.92 17.21 42.91 17.19 42.91C17.18 42.91 17.17 42.9 17.17 42.9C17.17 42.89 17.18 42.89 17.18 42.89C17.18 42.89 17.19 42.88 17.19 42.87C17.19 42.85 17.19 42.85 17.18 42.85C17.18 42.85 17.17 42.85 17.17 42.84C17.18 42.84 17.18 42.83 17.19 42.83C17.18 42.83 17.18 42.82 17.18 42.82C17.18 42.81 17.17 42.81 17.16 42.81C17.16 42.81 17.17 42.82 17.17 42.83V42.84C17.14 42.86 17.15 42.85 17.15 42.84C17.15 42.82 17.15 42.82 17.16 42.81C17.15 42.81 17.13 42.81 17.13 42.8V42.79C17.14 42.79 17.13 42.77 17.11 42.74C17.08 42.7 17.07 42.69 17.06 42.69C17.05 42.69 17.05 42.68 17.05 42.68C17.05 42.67 17.05 42.62 17.04 42.62C17.04 42.62 17.03 42.63 17.03 42.64C17.03 42.65 17.03 42.65 17.02 42.62C17.02 42.59 17.01 42.58 17 42.57C16.99 42.56 16.99 42.55 16.99 42.55L17.01 42.57L17.03 42.59C17.02 42.52 17.01 42.5 16.97 42.5C16.96 42.5 16.96 42.49 16.97 42.48C16.98 42.48 16.99 42.47 17 42.48C17.01 42.49 17.01 42.48 17.01 42.45C17 42.43 17 42.41 17 42.4C16.99 42.33 16.98 42.3 16.97 42.3C16.96 42.3 16.96 42.31 16.96 42.33C16.97 42.34 16.97 42.36 16.96 42.36C16.95 42.36 16.95 42.36 16.95 42.34C16.95 42.33 16.95 42.3 16.94 42.27C16.93 42.24 16.93 42.22 16.93 42.21C16.93 42.21 16.93 42.18 16.92 42.16C16.91 42.13 16.91 42.1 16.91 42.06C16.91 41.97 16.91 41.92 16.89 41.86C16.88 41.83 16.88 41.8 16.88 41.8C16.89 41.79 16.88 41.78 16.88 41.77C16.88 41.76 16.87 41.73 16.87 41.69C16.86 41.57 16.84 41.46 16.82 41.35C16.81 41.26 16.77 41.19 16.7 41.14C16.64 41.09 16.58 41.01 16.58 40.99C16.58 40.98 16.57 40.94 16.55 40.9C16.53 40.86 16.49 40.78 16.47 40.72L16.4 40.58C16.36 40.53 16.35 40.44 16.37 40.41C16.39 40.39 16.39 40.35 16.37 40.35V40.35ZM17.95 37.68C17.96 37.68 17.95 37.69 17.92 37.72C17.87 37.77 17.84 37.79 17.87 37.75C17.88 37.73 17.87 37.73 17.82 37.73C17.78 37.73 17.76 37.73 17.76 37.72C17.76 37.71 17.77 37.7 17.77 37.7C17.78 37.7 17.79 37.69 17.79 37.68L17.81 37.66C17.82 37.66 17.83 37.65 17.84 37.63C17.85 37.61 17.87 37.58 17.89 37.56C17.93 37.52 17.97 37.5 17.93 37.55C17.89 37.59 17.87 37.62 17.89 37.61C17.9 37.6 17.91 37.61 17.91 37.62C17.92 37.63 17.93 37.64 17.95 37.63C17.97 37.63 17.97 37.63 17.95 37.66C17.94 37.68 17.94 37.69 17.95 37.68V37.68ZM58.94 46.17C57.19 46.17 55.72 44.95 55.72 42.76C55.72 40.54 57.14 39.32 58.88 39.32C60.51 39.32 61.35 40.32 61.65 41.37L65.42 40.24C64.81 37.77 62.59 35.45 58.8 35.45C54.75 35.45 51.54 38.47 51.54 42.76C51.54 47.03 54.84 50.05 58.94 50.05C62.62 50.05 64.9 47.67 65.51 45.26L61.79 44.12C61.49 45.14 60.57 46.17 58.94 46.17ZM46.34 41.07L44.51 40.71C43.9 40.6 43.43 40.27 43.43 39.69C43.43 38.97 44.12 38.5 44.93 38.5C46.2 38.5 46.79 39.28 46.9 40.19L50.39 39.55C50.25 37.94 48.86 35.45 44.88 35.45C41.8 35.45 39.59 37.5 39.59 40.02C39.59 41.96 40.75 43.62 43.69 44.26L45.27 44.62C46.3 44.84 46.63 45.26 46.63 45.76C46.63 46.37 46.1 46.95 45.02 46.95C43.58 46.95 42.92 46.04 42.86 45.09L39.27 45.72C39.38 47.24 40.77 50.04 45.09 50.04C48.77 50.04 50.58 47.74 50.58 45.39C50.58 43.37 49.2 41.65 46.34 41.07V41.07Z" fill="black"/>
</svg>
