<svg width="150" height="85" viewBox="0 0 150 85" fill="none" xmlns="http://www.w3.org/2000/svg">
<path d="M63.5814 15.19C65.6314 14.76 67.8014 15.05 69.6914 15.95C71.5514 16.83 73.1314 18.24 74.3814 19.86C75.3414 21.08 76.0514 22.46 76.8414 23.78C80.1214 29.42 83.4114 35.06 86.6414 40.72C86.6714 36.43 86.6414 32.14 86.6514 27.85C86.6914 26.02 86.4914 24.14 86.9814 22.35C87.6314 19.68 89.4314 17.3 91.8914 16.05C93.9814 14.94 96.4914 14.71 98.7614 15.36C100.951 15.97 102.881 17.34 104.371 19.04C105.771 20.58 106.701 22.44 107.761 24.21C110.961 29.72 114.201 35.21 117.401 40.72C117.421 32.21 117.401 23.7 117.411 15.2C119.701 15.19 121.991 15.19 124.281 15.2V58.33C124.281 59.01 124.341 59.76 123.931 60.34C123.631 60.8 122.971 60.92 122.501 60.67C122.111 60.49 121.851 60.13 121.641 59.77C114.221 47.86 106.771 35.96 99.4114 24.01C98.8714 23.07 97.8514 22.39 96.7614 22.33C95.5914 22.25 94.4314 22.96 93.9414 24.02C93.5414 24.8 93.5314 25.69 93.5514 26.54V59.08C93.5514 59.71 93.3614 60.5 92.6914 60.75C92.0614 60.97 91.4314 60.52 91.1114 60C83.5914 47.94 76.0514 35.88 68.5914 23.78C67.9814 22.89 66.9314 22.28 65.8414 22.33C64.8014 22.34 63.8114 22.97 63.3314 23.89C62.8814 24.69 62.8414 25.64 62.8614 26.54C62.8614 37.34 62.8714 48.14 62.8614 58.95C62.8214 59.92 61.9214 60.73 60.9614 60.73C55.9814 60.74 51.0014 60.73 46.0114 60.73C43.9814 60.75 41.9314 60.65 39.9414 60.2C36.1214 59.4 32.5214 57.39 30.0114 54.37C27.0614 50.85 25.6014 46.19 25.7714 41.62C25.9114 36.96 27.7414 32.32 31.0314 29C33.8814 26.08 37.8214 24.34 41.8614 23.92C43.4314 23.73 45.0214 23.78 46.6014 23.78H54.0214C54.0514 26.04 54.0314 28.31 54.0314 30.58H46.6114C45.2314 30.59 43.8514 30.53 42.4914 30.76C40.0314 31.13 37.6714 32.27 35.9314 34.06C33.7714 36.24 32.5714 39.31 32.5714 42.36C32.5514 44.9 33.3714 47.45 34.9714 49.43C36.3114 51.13 38.1814 52.35 40.2114 53.06C41.8414 53.63 43.5614 53.88 45.2814 53.93H54.1614C54.8614 53.96 55.5414 53.53 55.8114 52.89C56.0314 52.42 55.9814 51.89 55.9814 51.39V24.91C56.0014 22.57 56.7914 20.21 58.3114 18.41C59.6314 16.77 61.5214 15.62 63.5814 15.19V15.19Z" fill="#EE1B2E"/>
<path d="M41.4214 15.42C44.1214 15.11 46.8414 15.2 49.5614 15.19C51.0514 15.2 52.5314 15.17 54.0214 15.2C54.0114 17.49 54.0214 19.77 54.0214 22.06H44.6714C42.1514 22.06 39.6114 22.37 37.2214 23.19C33.5014 24.41 30.1914 26.84 27.9214 30.03C24.8714 34.27 23.5814 39.68 24.2014 44.85C24.7214 49.28 26.6614 53.6 29.8614 56.74C32.6814 59.57 36.4614 61.34 40.3714 62.01C42.1314 62.34 43.9214 62.42 45.7114 62.41H59.9214C60.6514 62.4 61.4114 62.47 62.1214 62.2C63.4914 61.73 64.5214 60.38 64.5514 58.93V25.78C64.5514 25.15 64.7614 24.43 65.3614 24.12C66.0114 23.81 66.8214 24.13 67.1914 24.72C74.6214 36.78 82.1414 48.8 89.6414 60.83C90.3114 61.98 91.7314 62.78 93.0614 62.38C94.4214 62 95.2214 60.57 95.2114 59.22V25.94C95.2114 25.31 95.3314 24.57 95.9014 24.2C96.5314 23.78 97.4114 24.08 97.8114 24.68C105.261 36.75 112.771 48.77 120.271 60.81C120.741 61.61 121.531 62.25 122.451 62.44C123.411 62.66 124.461 62.28 125.091 61.54C125.701 60.88 125.951 59.95 125.951 59.07V15.2C128.231 15.19 130.501 15.19 132.771 15.2C132.781 29.78 132.771 44.35 132.771 58.93C132.761 59.97 132.821 61.02 132.641 62.05C132.301 64.46 131.101 66.79 129.111 68.24C126.981 69.85 124.131 70.32 121.541 69.81C118.291 69.18 115.451 67.01 113.761 64.2C109.881 57.77 105.991 51.35 102.121 44.91V57.75C102.111 59.53 102.211 61.33 101.761 63.07C101.271 65.13 100.101 67.05 98.3714 68.3C96.2614 69.86 93.4714 70.32 90.9314 69.82C87.6414 69.2 84.7714 67.01 83.0714 64.16C79.2014 57.74 75.3014 51.33 71.4614 44.9C71.4214 49.62 71.4614 54.35 71.4414 59.08C71.3814 61.43 70.8014 63.85 69.3414 65.74C68.0414 67.47 66.0614 68.59 63.9614 69.05C62.1414 69.48 60.2614 69.37 58.4014 69.38C54.0814 69.37 49.7514 69.39 45.4314 69.37C39.9614 69.29 34.4214 68.02 29.7214 65.13C26.1714 62.97 23.1714 59.92 21.0614 56.34C16.0314 47.88 15.9114 36.72 20.8614 28.2C23.4014 23.77 27.3514 20.18 31.9814 18.03C34.9614 16.61 38.1714 15.78 41.4214 15.42V15.42Z" fill="#EE1B2E"/>
</svg>
