<svg width="150" height="85" viewBox="0 0 150 85" fill="none" xmlns="http://www.w3.org/2000/svg">
<path d="M47.5 15H102.5V70H47.5V15Z" fill="#B5191E"/>
<path d="M88.54 22.83V22.97L70.49 46.38H89.81C92.07 43.28 93.48 39.47 93.48 35.38C93.47 30.51 91.57 26.07 88.54 22.83Z" fill="white"/>
<path d="M78.81 24.38H60.19C57.93 27.48 56.52 31.29 56.52 35.38C56.52 39.96 58.21 44.12 60.96 47.37L78.81 24.38V24.38Z" fill="white"/>
<path d="M66.19 59L69.65 55.05H66.4V53.43H72.25V54.77L68.79 58.65H72.46V60.27H66.18C66.19 60.27 66.19 59 66.19 59V59Z" fill="white"/>
<path d="M73.8 51.67C73.8 51.04 74.29 50.54 74.93 50.54C75.57 50.54 76.06 51.03 76.06 51.67C76.06 52.3 75.57 52.8 74.93 52.8C74.29 52.8 73.8 52.3 73.8 51.67ZM73.94 53.5H75.84V60.27H73.94V53.5Z" fill="white"/>
<path d="M77.89 50.75H79.79V55.97L82.12 53.5H84.45L81.49 56.53L84.87 60.27H82.4L79.72 57.38V60.27H77.82V50.75H77.89V50.75Z" fill="white"/>
</svg>
