<svg width="150" height="85" viewBox="0 0 150 85" fill="none" xmlns="http://www.w3.org/2000/svg">
<path d="M86.62 36.67V48.19H83.88V40.27C82.87 42.91 81.85 45.54 80.83 48.2H78.46C77.46 45.6 76.45 43 75.45 40.39V48.2H72.7V36.67H76.75C77.69 39.18 78.64 41.72 79.62 44.3C80.57 41.73 81.5 39.2 82.43 36.66H86.62V36.67V36.67ZM98.42 48.19H95.72V40.24C94.34 42.89 92.96 45.54 91.57 48.19H88.01V36.69H90.72V44.64H90.73L94.87 36.69H98.43L98.42 48.19ZM99.84 36.68H102.56V44.62C103.94 41.97 105.32 39.33 106.7 36.69H110.24V48.18H107.55V40.25H107.54C106.16 42.9 104.77 45.55 103.4 48.19H99.84V36.68V36.68ZM71.28 36.67V48.18H68.54V44.62H66.23C65.55 45.8 64.87 47 64.18 48.19H61.03C61.88 46.77 62.71 45.38 63.45 44.13C63.13 43.75 62.83 43.42 62.57 43.06C61.62 41.77 61.45 40.36 62.14 38.92C62.85 37.46 64.07 36.7 65.7 36.68C67.45 36.66 69.2 36.67 70.95 36.67H71.28V36.67ZM68.53 39.03H68.46C67.68 39.03 66.91 39.02 66.13 39.02C65.25 39.03 64.55 39.73 64.54 40.6C64.53 41.49 65.22 42.21 66.11 42.22C66.68 42.23 67.26 42.22 67.83 42.22H68.53V39.03V39.03ZM42.5 48.19H39.76V36.69H49.88V48.19H47.16V39.05H42.5V48.19ZM51.3 36.67H56.66C58.83 36.67 60.55 38.34 60.61 40.58C60.66 42.69 59.07 44.41 57.03 44.58C56.14 44.65 55.25 44.6 54.35 44.6H54.01V48.18H51.29L51.3 36.67V36.67ZM54.03 42.23C54.07 42.24 54.01 42.23 54.03 42.23C54.78 42.23 55.62 42.27 56.37 42.23C57.24 42.19 57.87 41.42 57.82 40.53C57.78 39.72 57.07 39.05 56.24 39.04C55.76 39.03 55.28 39.04 54.81 39.04H54.02L54.03 42.23V42.23Z" fill="#009FE2"/>
<path d="M86.29 32.54H83.76C86.48 26.68 89.18 20.84 91.88 15H94.41C91.71 20.86 89 26.7 86.29 32.54ZM53.09 70H50.56C53.28 64.13 55.98 58.29 58.69 52.45H61.22C58.51 58.32 55.8 64.16 53.09 70ZM76.87 15H79.4C76.69 20.86 73.98 26.69 71.28 32.53H68.75C71.46 26.68 74.16 20.85 76.87 15ZM63.72 52.46H66.25C63.53 58.32 60.83 64.16 58.13 70H55.6C58.3 64.14 61.01 58.3 63.72 52.46ZM73.77 32.53C76.49 26.67 79.19 20.83 81.89 15H84.42C81.7 20.86 79 26.7 76.29 32.54C75.46 32.53 74.65 32.53 73.77 32.53V32.53ZM63.11 70H60.58C63.3 64.14 66 58.3 68.71 52.46H71.24C68.52 58.32 65.82 64.16 63.11 70ZM73.72 52.45H76.25C73.53 58.31 70.83 64.15 68.12 69.99H65.59C68.31 64.14 71.01 58.3 73.72 52.45ZM81.29 32.53H78.76C81.48 26.67 84.18 20.83 86.88 15H89.41C86.7 20.86 84 26.69 81.29 32.53V32.53ZM91.34 32.54H88.81C91.53 26.68 94.23 20.84 96.93 15H99.46C96.75 20.86 94.04 26.69 91.34 32.54ZM78.76 52.45H81.29C78.57 58.31 75.87 64.16 73.16 69.99H70.63C73.35 64.13 76.05 58.3 78.76 52.45Z" fill="#373737"/>
<path d="M102.58 35.98V33.65H107.43V35.98H102.58Z" fill="#009FE2"/>
</svg>
