<svg width="150" height="85" viewBox="0 0 150 85" fill="none" xmlns="http://www.w3.org/2000/svg">
<path d="M95.27 47.88V49.28H93.35V55.55H91.58V49.28H89.66V47.88H95.27V47.88ZM97.56 47.88L98.74 52.01C98.89 52.6 99.03 53.04 99.11 53.34H99.18C99.33 52.9 99.4 52.46 99.55 51.94L100.66 47.89H102.28L100.07 55.56H98.23L95.94 47.89C95.94 47.88 97.56 47.88 97.56 47.88V47.88ZM84.07 53.71C82.01 55.77 79.35 56.81 76.7 56.88H104.35V45.97H87.31C87.31 48.77 86.21 51.57 84.07 53.71Z" fill="#FF460F"/>
<path d="M65.86 19.87L60.33 25.4L55.54 20.53L60.99 15L65.86 19.87Z" fill="#FF460F"/>
<path d="M45.66 30.48L51.19 24.95L55.98 29.82L50.52 35.35L45.66 30.48Z" fill="#FF460F"/>
<path d="M50.45 35.35C54.65 39.63 61.58 39.63 65.79 35.35L69.11 32.03L71.99 34.98L60.99 46.04L50.45 35.35Z" fill="#FF460F"/>
<path d="M79.79 49.36C77.95 51.2 75 51.2 73.15 49.36C71.31 47.52 71.31 44.49 73.15 42.65C74.99 40.81 77.94 40.81 79.79 42.65C81.64 44.49 81.64 47.51 79.79 49.36Z" fill="#FF460F"/>
<path d="M69.99 65.58H73.01V62.85H74.41V69.85H73.01V66.68H69.99V69.85H68.59V62.85H69.99V65.58Z" fill="#FF460F"/>
<path d="M81.56 62.85V69.78H80.16V63.96H78.1V67.06C78.1 67.8 78.1 68.76 77.36 69.35C77.07 69.57 76.62 69.79 75.96 69.79C75.74 69.79 75.59 69.79 75.37 69.72V68.54C75.44 68.54 75.59 68.61 75.74 68.61C76.03 68.61 76.26 68.46 76.4 68.39C76.77 68.02 76.77 67.43 76.77 66.77V62.79H81.56" fill="#FF460F"/>
<path d="M88.86 66.31C88.86 64.91 87.9 63.88 86.5 63.88C85.1 63.88 84.14 64.91 84.14 66.31C84.14 67.71 85.1 68.74 86.5 68.74C87.9 68.74 88.86 67.79 88.86 66.31ZM90.34 66.31C90.34 68.45 88.79 69.92 86.51 69.92C84.23 69.92 82.68 68.37 82.68 66.31C82.68 64.17 84.23 62.7 86.51 62.7C88.71 62.7 90.34 64.25 90.34 66.31Z" fill="#FF460F"/>
<path d="M95.27 64.03V69.85H93.87V64.03H92.25V62.85H96.9V64.03H95.27Z" fill="#FF460F"/>
<path d="M98.89 62.85L100.8 67.57L102.72 62.85H104.27L101.17 70H100.44L97.41 62.85H98.89" fill="#FF460F"/>
</svg>
