<svg width="150" height="85" viewBox="0 0 150 85" fill="none" xmlns="http://www.w3.org/2000/svg">
<path d="M51.35 46.94C51.35 46.7 51.59 46.46 51.83 46.46H63.25C63.49 46.46 63.73 46.7 63.73 46.94V68.71C63.73 68.95 63.49 69.19 63.25 69.19H51.82C51.58 69.19 51.34 68.95 51.34 68.71L51.35 46.94V46.94ZM55.62 15.14C55.78 14.97 56.12 14.95 56.29 15.11L84.3 40.71C84.47 40.87 84.49 41.21 84.33 41.38L76.56 49.95C76.4 50.13 76.06 50.14 75.88 49.98L47.88 24.15C47.7 23.99 47.69 23.65 47.85 23.48L55.62 15.14V15.14Z" fill="#ED1B24"/>
<path d="M89.72 15.68C89.77 15.62 90 15.52 90.08 15.52H101.77C102.01 15.52 102.25 15.76 102.25 16V69.53C102.25 69.77 102.01 70.01 101.77 70.01H90.36C90.12 70.01 89.88 69.77 89.88 69.53V36.67C89.88 36.65 89.87 36.69 89.86 36.67C89.85 36.65 89.89 36.67 89.87 36.66L80.03 27.44C79.86 27.28 79.85 26.95 80 26.78L89.72 15.68V15.68Z" fill="white" stroke="#000105" stroke-width="0.1" stroke-miterlimit="10"/>
</svg>
