<svg width="150" height="85" viewBox="0 0 150 85" fill="none" xmlns="http://www.w3.org/2000/svg">
<path d="M15 24.64V60.37H39.6V24.64H15ZM36.05 56.77H18.55V28.24H36.05V56.77Z" fill="#FBD42C"/>
<path d="M54.27 37.09H54.24C52.28 33.89 50.3 31.07 48.3 28.23H46.78V40.67H48.46V31.75H48.48C50.46 34.97 52.44 37.81 54.44 40.67H55.96V28.23H54.28V37.09H54.27V37.09ZM66.42 40.66L62.51 28.22H60.76L56.52 40.66H58.34L59.41 37.27H63.11L64.07 40.66H66.42V40.66ZM59.95 35.74C60.44 34.11 60.93 32.6 61.37 30.68H61.41C61.9 32.6 62.34 34.11 62.8 35.74H59.95ZM68.4 40.66H70.5V29.9H73.73V28.23H65.18V29.9H68.4V40.66V40.66ZM76.5 28.23H74.41V40.67H76.5V28.23V28.23ZM82.98 40.88C86.19 40.88 88.19 37.99 88.19 34.27C88.19 30.79 85.98 28.02 82.98 28.02C79.98 28.02 77.77 30.79 77.77 34.27C77.78 37.98 79.77 40.88 82.98 40.88ZM82.98 29.79C85.07 29.79 85.94 31.97 85.94 34.27C85.94 36.65 85.17 39.1 82.98 39.1C80.79 39.1 80.02 36.65 80.02 34.27C80.02 31.98 80.9 29.79 82.98 29.79ZM91.15 31.75H91.17C93.15 34.97 95.13 37.81 97.13 40.67H98.65V28.23H96.97V37.09H96.93C94.97 33.89 92.99 31.07 90.99 28.23H89.47V40.67H91.15V31.75V31.75ZM102.11 37.27H105.81L106.77 40.66H109.12L105.21 28.22H103.46L99.22 40.66H101.05L102.11 37.27V37.27ZM104.07 30.68H104.1C104.59 32.6 105.03 34.11 105.49 35.74H102.65C103.14 34.11 103.63 32.6 104.07 30.68ZM115.98 38.99H111.83V28.23H109.74V40.67H115.98V38.99V38.99ZM52.55 54.89C52.11 55.12 51.64 55.19 51.08 55.19C49.27 55.19 47.52 53.45 47.52 50.5C47.52 47.68 49.04 45.88 51.29 45.88C52.1 45.88 52.97 46.18 53.53 46.54L54.21 45.07C53.51 44.54 52.37 44.11 51.23 44.11C47.55 44.11 45.27 47.08 45.27 50.47C45.27 54.13 47.55 56.97 51.16 56.97C52.35 56.97 53.53 56.65 54.65 56.21V51.07H52.55V54.89V54.89ZM58.67 51.07H62.11V49.4H58.67V45.99H62.18V44.32H56.57V56.76H62.81V55.09H58.67V51.07ZM68.66 44.1C65.66 44.1 63.45 46.87 63.45 50.35C63.45 54.06 65.45 56.96 68.66 56.96C71.87 56.96 73.87 54.06 73.87 50.35C73.87 46.88 71.66 44.1 68.66 44.1ZM68.66 55.19C66.47 55.19 65.7 52.74 65.7 50.36C65.7 48.07 66.58 45.88 68.66 45.88C70.75 45.88 71.62 48.06 71.62 50.36C71.63 52.74 70.86 55.19 68.66 55.19ZM81.86 54.89C81.42 55.12 80.95 55.19 80.39 55.19C78.58 55.19 76.83 53.45 76.83 50.5C76.83 47.68 78.36 45.88 80.6 45.88C81.41 45.88 82.28 46.18 82.84 46.54L83.52 45.07C82.82 44.54 81.68 44.11 80.54 44.11C76.86 44.11 74.58 47.08 74.58 50.47C74.58 54.13 76.86 56.97 80.47 56.97C81.66 56.97 82.83 56.65 83.96 56.21V51.07H81.86V54.89V54.89ZM92.98 47.91C92.98 45.49 91.52 44.32 89.18 44.32H85.9V56.76H88V52.07H88.95L90.93 56.76H93.33L90.86 51.6C92.21 50.87 92.98 49.4 92.98 47.91V47.91ZM88.88 50.46C88.67 50.48 88.18 50.5 88 50.51V45.98H88.93C90.17 45.98 90.87 46.71 90.87 47.99C90.87 49.66 89.88 50.41 88.88 50.46ZM97.61 44.32L93.37 56.76H95.19L96.26 53.37H99.96L100.93 56.76H103.28L99.37 44.32H97.61V44.32ZM96.8 51.83C97.29 50.19 97.78 48.68 98.22 46.77H98.26C98.75 48.69 99.19 50.2 99.65 51.83H96.8ZM118.66 49.1H114.3V44.32H112.21V56.76H114.3V50.77H118.67V56.76H120.77V44.36H118.67L118.66 49.1V49.1ZM122.78 56.75H124.87V44.32H122.78V56.75ZM132.23 55.19C130.2 55.19 128.48 53.45 128.48 50.5C128.48 47.68 130.04 45.88 132.18 45.88C132.99 45.88 133.83 46.25 134.34 46.57L135.01 45.06C134.29 44.56 133.28 44.1 132.19 44.1C128.53 44.1 126.26 47.07 126.26 50.46C126.26 54.12 128.54 56.96 132.15 56.96C133.17 56.96 134.29 56.55 134.92 56.11L134.34 54.56C133.79 54.92 133.04 55.19 132.23 55.19V55.19ZM107.21 44.32H103.93V56.76H106.03V52.07H106.98C109.49 52.07 111.01 50.01 111.01 47.91C111.02 45.49 109.56 44.32 107.21 44.32V44.32ZM106.92 50.46C106.71 50.48 106.2 50.49 106.04 50.51V45.98H106.99C108.22 45.98 108.92 46.71 108.92 47.99C108.91 49.66 107.91 50.41 106.92 50.46Z" fill="black"/>
</svg>
