<svg width="150" height="85" viewBox="0 0 150 85" fill="none" xmlns="http://www.w3.org/2000/svg">
<path d="M88.66 39.42C89.9523 39.42 91 38.3723 91 37.08C91 35.7877 89.9523 34.74 88.66 34.74C87.3677 34.74 86.32 35.7877 86.32 37.08C86.32 38.3723 87.3677 39.42 88.66 39.42Z" fill="#FCC716"/>
<path d="M92.2 36.46C93.4923 36.46 94.54 35.4123 94.54 34.12C94.54 32.8277 93.4923 31.78 92.2 31.78C90.9076 31.78 89.86 32.8277 89.86 34.12C89.86 35.4123 90.9076 36.46 92.2 36.46Z" fill="#FCC716"/>
<path d="M88.66 53.18V42.14L94.63 37.13V53.18H88.66ZM53.65 53.22V37.12H62.87C67.89 37.12 69.7 40.23 69.7 42.9C69.7 45.72 67.65 48.58 63.01 48.58H59.62V53.21C59.62 53.22 53.65 53.22 53.65 53.22ZM59.62 44.91H60.86C62.72 44.91 63.68 44.19 63.68 42.86C63.68 41.9 63.2 40.81 60.81 40.81H59.62V44.91ZM80.92 53.22L79.82 49.78H75L73.95 53.22H67.98L73.47 37.12H81.59L87.18 53.17H80.92V53.22V53.22ZM75.67 46.06H79.16L77.48 40.9H77.33L75.67 46.06V46.06ZM19.54 53.22L21.31 49.74L15 37.13H21.26L24.41 43.48L27.61 37.13H33.87L25.8 53.22H19.54ZM108.06 53.22V47.25H103.9V53.22H97.93V37.13H103.9V42.71H108.06V37.13H114.03V53.22H108.06ZM128.74 53.22L127.64 49.78H122.82L121.77 53.22H115.8L121.29 37.12H129.41L135 53.17H128.74V53.22V53.22ZM123.49 46.06H126.98L125.3 40.9H125.16L123.49 46.06V46.06ZM45.14 53.22L41.42 46.82V53.22H35.45V37.13H41.42V43.48L45.19 37.13H51.88L47.05 45.15L51.88 53.22H45.14Z" fill="#005EA1"/>
</svg>
