<svg width="150" height="85" viewBox="0 0 150 85" fill="none" xmlns="http://www.w3.org/2000/svg">
<path d="M24.6054 25.7556H100.292C100.339 25.7556 100.378 25.7946 100.378 25.8417V59.2482H15.0871C15.0399 59.2482 15.001 59.2092 15.001 59.1621V35.3601C15.001 30.0557 19.301 25.7556 24.6054 25.7556V25.7556Z" fill="#FFDD00"/>
<path d="M15.5441 42.5152H99.8339C99.8811 42.5152 99.92 42.5542 99.92 42.6013V58.7901H15.5441C15.497 58.7901 15.458 58.7511 15.458 58.704V42.6013C15.458 42.5542 15.496 42.5152 15.5441 42.5152Z" fill="black"/>
<path d="M25.0625 26.2127H99.8329C99.8801 26.2127 99.919 26.2516 99.919 26.2988V42.4302C99.919 42.4773 99.8801 42.5162 99.8329 42.5162H15.5431C15.496 42.5162 15.457 42.4773 15.457 42.4302V35.8182C15.458 30.5128 19.7581 26.2127 25.0625 26.2127V26.2127Z" fill="#FFDD00"/>
<path d="M60.8772 54.5003H59.0469C58.9997 54.5003 58.9608 54.4613 58.9608 54.4142V47.1494C58.9608 47.1022 58.9997 47.0633 59.0469 47.0633H64.7376C66.0534 47.0633 67.111 48.1506 67.111 49.4367V49.3804C67.111 50.6234 66.243 51.2793 65.8341 51.4925C65.7952 51.513 65.7767 51.5591 65.7931 51.6011C65.9561 52.0018 66.8026 53.8813 67.027 54.3793C67.0526 54.4357 67.0106 54.5003 66.9481 54.5003H65.0225C64.9887 54.5003 64.9579 54.4798 64.9436 54.448L63.7876 51.805C63.7733 51.7733 63.7435 51.7528 63.7087 51.7528H61.7647C61.7175 51.7528 61.6786 51.7138 61.6786 51.6667V49.8938C61.6786 49.8466 61.7175 49.8077 61.7647 49.8077H64.8534C64.9958 49.8077 65.1967 49.6366 65.1967 49.407C65.1967 49.1774 64.9958 49.0063 64.8534 49.0063H60.9633C60.9161 49.0063 60.8772 49.0452 60.8772 49.0924V54.5003V54.5003Z" fill="white"/>
<path d="M75.4642 54.5003H73.6339C73.5867 54.5003 73.5478 54.4613 73.5478 54.4142V49.0944C73.5478 49.0473 73.5089 49.0084 73.4617 49.0084H70.2305C70.1834 49.0084 70.1444 48.9694 70.1444 48.9223V47.1494C70.1444 47.1022 70.1834 47.0633 70.2305 47.0633H78.7815C78.8286 47.0633 78.8675 47.1022 78.8675 47.1494V48.9223C78.8675 48.9694 78.8286 49.0084 78.7815 49.0084H75.5503C75.5031 49.0084 75.4642 49.0473 75.4642 49.0944V54.5003Z" fill="white"/>
<path d="M51.6109 54.5003H49.3799C48.0641 54.5003 47.0065 53.4129 47.0065 52.1268V49.4377C47.0065 48.1219 48.0938 47.0643 49.3799 47.0643H52.7546C54.2252 47.0643 55.0471 48.2582 55.1229 48.9151C55.1291 48.9653 55.0881 49.0094 55.0368 49.0094H49.3799C49.1432 49.0094 48.9505 49.2031 48.9505 49.4388V52.1268C48.9505 52.3635 49.1442 52.5562 49.3799 52.5562H52.8981C53.0405 52.5562 53.2414 52.3851 53.2414 52.2129V49.9245C53.2414 49.8774 53.2803 49.8384 53.3275 49.8384H55.1004C55.1475 49.8384 55.1865 49.8774 55.1865 49.9245V52.1268C55.1865 53.4427 54.0991 54.5003 52.813 54.5003H51.6109Z" fill="white"/>
<path d="M37.7095 54.5003H35.8792C35.8321 54.5003 35.7931 54.4613 35.7931 54.4142V47.1494C35.7931 47.1022 35.8321 47.0633 35.8792 47.0633H41.656C43.0006 47.0633 44.0295 48.1209 44.0295 49.4367V49.3804C44.0295 50.7249 42.9719 51.7538 41.656 51.7538H38.596C38.5488 51.7538 38.5099 51.7148 38.5099 51.6677V49.8948C38.5099 49.8477 38.5488 49.8087 38.596 49.8087H41.7708C41.9132 49.8087 42.1141 49.6376 42.1141 49.408C42.1141 49.1795 41.9132 49.0073 41.7708 49.0073H37.7956C37.7485 49.0073 37.7095 49.0463 37.7095 49.0934V54.5003V54.5003Z" fill="white"/>
<path d="M29.7581 54.5003H24.3594C24.3082 54.5003 24.2672 54.4562 24.2734 54.406C24.3482 53.7491 25.1711 52.5552 26.6417 52.5552H29.8452C29.9877 52.5552 30.1885 52.384 30.1885 52.1545C30.1885 51.9249 29.9877 51.7538 29.8452 51.7538H26.613C25.2971 51.7538 24.2395 50.6962 24.2395 49.3804V49.4367C24.2395 48.1496 25.2869 47.0633 26.613 47.0633H32.0127C32.0639 47.0633 32.1049 47.1073 32.0987 47.1576C32.0239 47.8145 31.201 49.0084 29.7304 49.0084H26.5269C26.3845 49.0084 26.1836 49.1795 26.1836 49.409C26.1836 49.6376 26.3845 49.8097 26.5269 49.8097H29.7591C31.1037 49.8097 32.1326 50.8971 32.1326 52.1832V52.1268C32.1326 53.4416 31.0616 54.5003 29.7581 54.5003Z" fill="white"/>
<path d="M87.8786 54.5003H82.4779C82.4267 54.5003 82.3857 54.4562 82.3918 54.406C82.4666 53.7491 83.2896 52.5552 84.7601 52.5552H87.9637C88.1061 52.5552 88.307 52.384 88.307 52.1545C88.307 51.9249 88.1061 51.7538 87.9637 51.7538H84.7315C83.4156 51.7538 82.358 50.6962 82.358 49.3804V49.4367C82.358 48.1496 83.4054 47.0633 84.7315 47.0633H90.1311C90.1824 47.0633 90.2234 47.1073 90.2172 47.1576C90.1424 47.8145 89.3195 49.0084 87.8489 49.0084H84.6454C84.5029 49.0084 84.3021 49.1795 84.3021 49.409C84.3021 49.6376 84.5029 49.8097 84.6454 49.8097H87.8776C89.2221 49.8097 90.251 50.8971 90.251 52.1832V52.1268C90.2521 53.4416 89.1811 54.5003 87.8786 54.5003V54.5003Z" fill="white"/>
<path d="M34.1627 38.1393V30.646C34.1627 30.5988 34.2016 30.5599 34.2488 30.5599H41.0842C41.1313 30.5599 41.1703 30.5988 41.1703 30.646V32.5624C41.1703 32.6095 41.1313 32.6484 41.0842 32.6484H36.3363C36.2891 32.6484 36.2502 32.6874 36.2502 32.7345V33.2203C36.2502 33.2674 36.2891 33.3064 36.3363 33.3064H38.6523C38.6995 33.3064 38.7384 33.3453 38.7384 33.3924V35.3088C38.7384 35.356 38.6995 35.3949 38.6523 35.3949H36.3363C36.2891 35.3949 36.2502 35.4339 36.2502 35.481V35.9667C36.2502 36.0139 36.2891 36.0528 36.3363 36.0528H41.2266C41.2738 36.0528 41.3127 36.0918 41.3127 36.1389V38.0553C41.3127 38.1024 41.2738 38.1414 41.2266 38.1414L34.1627 38.1393V38.1393Z" fill="black"/>
<path d="M46.4613 38.0532V32.7335C46.4613 32.6864 46.4224 32.6474 46.3752 32.6474H43.9157C43.8686 32.6474 43.8296 32.6085 43.8296 32.5613V30.645C43.8296 30.5978 43.8686 30.5589 43.9157 30.5589H51.0944C51.1416 30.5589 51.1805 30.5978 51.1805 30.645V32.5613C51.1805 32.6085 51.1416 32.6474 51.0944 32.6474H48.6349C48.5878 32.6474 48.5488 32.6864 48.5488 32.7335V38.0532C48.5488 38.1004 48.5099 38.1393 48.4627 38.1393H46.5464C46.5003 38.1393 46.4613 38.1014 46.4613 38.0532V38.0532Z" fill="black"/>
<path d="M75.8075 38.0532V32.7335C75.8075 32.6864 75.7685 32.6474 75.7214 32.6474H73.2619C73.2147 32.6474 73.1758 32.6085 73.1758 32.5613V30.645C73.1758 30.5978 73.2147 30.5589 73.2619 30.5589H80.4406C80.4877 30.5589 80.5267 30.5978 80.5267 30.645V32.5613C80.5267 32.6085 80.4877 32.6474 80.4406 32.6474H77.9811C77.9339 32.6474 77.895 32.6864 77.895 32.7335V38.0532C77.895 38.1004 77.8561 38.1393 77.8089 38.1393H75.8925C75.8454 38.1393 75.8075 38.1014 75.8075 38.0532V38.0532Z" fill="black"/>
<path d="M52.2637 38.0194L55.5339 30.6122C55.5482 30.5804 55.5779 30.5609 55.6128 30.5609H57.7884C57.8222 30.5609 57.853 30.5814 57.8673 30.6122L61.1375 38.0194C61.1621 38.0758 61.1211 38.1403 61.0586 38.1403H58.9587C58.9249 38.1403 58.8942 38.1209 58.8798 38.0891L56.778 33.3679C56.7482 33.3002 56.6509 33.3002 56.6212 33.3679L55.4683 35.9309C55.4427 35.9872 55.4847 36.0518 55.5472 36.0518H57.2166C57.2504 36.0518 57.2811 36.0723 57.2955 36.1041L58.1358 38.0204C58.1604 38.0768 58.1194 38.1403 58.0569 38.1403H52.3426C52.2801 38.1393 52.2391 38.0758 52.2637 38.0194Z" fill="black"/>
<path d="M81.4101 38.0194L84.6802 30.6122C84.6946 30.5804 84.7243 30.5609 84.7591 30.5609H86.9348C86.9686 30.5609 86.9993 30.5814 87.0137 30.6122L90.2838 38.0194C90.3084 38.0758 90.2674 38.1403 90.2049 38.1403H88.1051C88.0713 38.1403 88.0405 38.1209 88.0262 38.0891L85.9243 33.3679C85.8946 33.3002 85.7972 33.3002 85.7675 33.3679L84.6146 35.9309C84.589 35.9872 84.631 36.0518 84.6935 36.0518H86.3629C86.3967 36.0518 86.4275 36.0723 86.4418 36.1041L87.2822 38.0204C87.3068 38.0768 87.2658 38.1403 87.2033 38.1403H81.489C81.4265 38.1393 81.3845 38.0758 81.4101 38.0194V38.0194Z" fill="black"/>
<path d="M65.2244 38.1393H63.308C63.2609 38.1393 63.2219 38.1004 63.2219 38.0532V30.646C63.2219 30.5988 63.2609 30.5599 63.308 30.5599H65.2982C65.3248 30.5599 65.3484 30.5712 65.3648 30.5917L68.6759 34.6622C68.7271 34.7247 68.8286 34.6888 68.8286 34.6079V30.646C68.8286 30.5988 68.8675 30.5599 68.9147 30.5599H70.8311C70.8782 30.5599 70.9171 30.5988 70.9171 30.646V38.0532C70.9171 38.1004 70.8782 38.1393 70.8311 38.1393H68.8409C68.8143 38.1393 68.7907 38.128 68.7743 38.1076L65.4642 34.0381C65.4129 33.9756 65.3115 34.0114 65.3115 34.0924V38.0543C65.3105 38.1014 65.2725 38.1393 65.2244 38.1393Z" fill="black"/>
<path d="M24.1524 38.1393C24.1524 37.6525 24.8104 36.0508 26.612 36.0508H29.4148C29.5859 36.0508 29.7581 35.936 29.7581 35.7362V35.7075C29.7581 35.5066 29.5869 35.3929 29.4148 35.3929H26.5259C25.3463 35.3929 24.1524 34.3055 24.1524 33.0194C24.1524 31.6616 25.2541 30.5599 26.612 30.5599H31.7821C31.8343 30.5599 31.8743 30.606 31.8671 30.6573C31.7923 31.2291 31.1108 32.6484 29.4148 32.6484H26.612C26.4408 32.6484 26.2686 32.7632 26.2686 32.9631V32.9918C26.2686 33.1926 26.4398 33.3064 26.612 33.3064H29.5009C30.7286 33.333 31.8743 34.4213 31.8743 35.7085V35.7372C31.8743 37.053 30.787 38.1393 29.5009 38.1393H24.1524V38.1393Z" fill="black"/>
<path d="M121.5 59.25H101.51V25.75H135V45.74C135 53.2 128.96 59.25 121.5 59.25Z" fill="#FFDD00"/>
<path d="M115.42 34.58H120.76V39.92H126.09V45.36H120.76V50.48H115.42V45.36H110.09V39.92H115.42V34.58Z" fill="black"/>
</svg>
