<svg width="150" height="85" viewBox="0 0 150 85" fill="none" xmlns="http://www.w3.org/2000/svg">
<path d="M20.663 21.83L20.714 28.677L21.394 28.813C26.694 29.901 31.044 34.149 32.251 39.45C32.642 41.2 32.608 44.174 32.183 45.873C30.909 50.851 26.763 55.014 22.005 56.085L20.629 56.391V70L21.835 69.881C27.765 69.235 33.253 66.619 37.892 62.201L39.438 60.74L40.525 61.844C44.892 66.279 50.974 69.269 56.87 69.864L58.178 70V56.391L56.853 56.085C51.824 54.964 47.576 50.58 46.437 45.347C46.148 44.039 46.148 41.048 46.437 39.74C47.507 34.83 51.245 30.667 55.884 29.24C56.632 29.002 57.447 28.764 57.719 28.713L58.178 28.611V21.815C58.178 16.497 58.127 15.019 57.974 15.019C57.855 15.019 57.006 15.138 56.105 15.274C50.311 16.141 45.367 18.57 41.187 22.597L39.403 24.33L37.772 22.75C35.563 20.643 33.388 19.114 30.738 17.823C27.629 16.294 24.893 15.495 21.597 15.104L20.629 15.002L20.663 21.83ZM62.291 21.83L62.342 28.643L63.616 28.966C66.369 29.663 69.291 31.532 71.092 33.757C72.077 34.98 73.335 37.41 73.726 38.888C73.879 39.449 74.032 40.74 74.1 41.776C74.321 45.973 72.894 49.626 69.903 52.565C68.085 54.349 65.163 55.878 62.92 56.235L62.257 56.354V70L63.463 69.881C69.376 69.235 75.204 66.415 79.638 62.031L80.997 60.706L82.458 62.15C85.431 65.089 88.66 67.111 92.687 68.556C94.539 69.219 97.343 69.83 98.872 69.915L99.722 69.966V56.408L98.448 56.102C97.751 55.932 96.375 55.405 95.39 54.93C93.81 54.148 93.419 53.86 91.992 52.415C89.868 50.274 88.9 48.609 88.135 45.755C87.727 44.243 87.727 40.845 88.152 39.23C89.222 35.152 91.89 31.822 95.645 29.919C96.427 29.528 98.143 28.968 99.349 28.713L99.808 28.611V15L98.924 15.085C92.552 15.697 86.096 18.908 81.695 23.631L80.998 24.379L79.996 23.343C75.748 18.857 69.53 15.833 63.141 15.102L62.257 15L62.291 21.83V21.83ZM103.851 21.762C103.817 25.483 103.8 28.541 103.817 28.558C103.817 28.592 104.429 28.762 105.176 28.949C109.967 30.138 113.79 33.876 115.303 38.804L115.677 40.078L115.745 54.911L115.796 69.727H129.371V55.913C129.371 48.335 129.286 41.216 129.201 40.128C128.504 31.802 124.019 24.241 116.967 19.484C115.642 18.583 113.042 17.275 111.36 16.663C109.678 16.034 106.535 15.287 104.869 15.117L103.884 15.015L103.851 21.762V21.762ZM127.808 42.661L127.859 43.731H124.614V41.506L126.194 41.557L127.757 41.608L127.808 42.661ZM127.842 46.79V47.81H124.614V45.772H127.842V46.79ZM127.842 50.868V51.887H124.614V49.849H127.842V50.868V50.868ZM127.808 54.98C127.774 55.575 127.706 56.033 127.638 55.999C127.553 55.982 126.856 55.965 126.058 55.965H124.614V53.927H127.859L127.808 54.98ZM127.808 59.058L127.757 60.128L126.194 60.179L124.614 60.23V58.005H127.859L127.808 59.058ZM127.808 63.136L127.757 64.206L126.194 64.257L124.614 64.308V62.083H127.859L127.808 63.136ZM127.808 67.213L127.757 68.283L126.194 68.334L124.614 68.385V66.16H127.859L127.808 67.213Z" fill="#ED920D"/>
</svg>
