<svg width="150" height="85" viewBox="0 0 150 85" fill="none" xmlns="http://www.w3.org/2000/svg">
<path d="M15.004 59.7182C15.004 60.1382 15.334 60.4682 15.754 60.4682H23.064C23.484 60.4682 23.814 60.1382 23.814 59.7182V48.5382C23.814 48.1182 24.144 47.7882 24.564 47.7882H34.764C35.184 47.7882 35.514 48.1182 35.514 48.5382V59.7182C35.514 60.1382 35.844 60.4682 36.264 60.4682H43.574C43.994 60.4682 44.324 60.1382 44.324 59.7182V28.5482C44.324 28.1282 43.994 27.7982 43.574 27.7982H36.264C35.844 27.7982 35.514 28.1282 35.514 28.5482V39.7282C35.514 40.1482 35.184 40.4782 34.764 40.4782H24.564C24.144 40.4782 23.814 40.1482 23.814 39.7282V28.5482C23.814 28.1282 23.484 27.7982 23.064 27.7982H15.754C15.334 27.7982 15.004 28.1282 15.004 28.5482V59.7182V59.7182Z" fill="#1328D8"/>
<path d="M94.264 27.7982C93.844 27.7982 93.514 28.1282 93.514 28.5482V59.7182C93.514 60.1382 93.844 60.4682 94.264 60.4682H134.244C134.664 60.4682 134.994 60.1382 134.994 59.7182V28.5482C134.994 28.1282 134.664 27.7982 134.244 27.7982H127.264C126.844 27.7982 126.514 28.1282 126.514 28.5482V52.8282C126.514 53.2482 126.184 53.5782 125.764 53.5782H119.534C119.114 53.5782 118.784 53.2482 118.784 52.8282V28.5482C118.784 28.1282 118.454 27.7982 118.034 27.7982H110.934C110.514 27.7982 110.184 28.1282 110.184 28.5482V52.8282C110.184 53.2482 109.854 53.5782 109.434 53.5782H102.984C102.564 53.5782 102.234 53.2482 102.234 52.8282V28.5482C102.234 28.1282 101.904 27.7982 101.484 27.7982H94.264Z" fill="#1328D8"/>
<path d="M74.394 50.2482L68.814 48.4182H68.694L63.114 50.2482C62.904 50.3682 62.784 50.1282 62.904 49.9182L68.604 38.5282C68.724 38.4082 68.934 38.4082 68.934 38.5282L74.634 49.9182C74.714 50.1582 74.504 50.2482 74.394 50.2482ZM88.144 60.8882L69.444 23.3882C69.114 22.8482 68.364 22.8482 68.034 23.3882L49.334 60.8882C49.004 61.5482 49.544 62.1782 50.294 61.9682L68.554 56.8082H68.974L87.234 61.9682C87.934 62.1782 88.474 61.5482 88.144 60.8882Z" fill="#1328D8"/>
</svg>
