<svg width="150" height="85" viewBox="0 0 150 85" fill="none" xmlns="http://www.w3.org/2000/svg">
<path d="M25.28 32.49H15C15.35 32.84 15.87 33.71 15.87 34.41V52.52H25.27V32.49H25.28V32.49ZM131.43 45.37H120.11V52.51H110.71V34.4C110.71 33.7 110.19 32.75 109.84 32.48H131.44C133.01 32.48 135.01 33.96 135.01 36.31V41.71C135 43.81 133.96 45.37 131.43 45.37V45.37ZM123.68 42.15C124.64 42.15 125.94 41.37 125.94 38.93C125.94 36.49 124.63 35.62 123.68 35.62H120.11V42.15H123.68ZM105.04 41.02H94.24V35.62H107.04V32.49H83.97C84.32 32.84 84.84 33.71 84.84 34.41V52.52H107.05V49.39H94.25V44.17H105.05L105.04 41.02V41.02ZM44.96 40.93H39.21V32.48H28.93C29.28 32.83 29.8 33.7 29.8 34.4V52.51H39.2V44.06H44.95V52.51H54.35V32.49H44.95V40.93H44.96V40.93ZM81.44 32.49H57.24V35.62H64.9V52.51H74.3V35.62H81.44V32.49V32.49Z" fill="#265C9E"/>
</svg>
