<svg width="150" height="85" viewBox="0 0 150 85" fill="none" xmlns="http://www.w3.org/2000/svg">
<path d="M61.1 28.09H87.1V47.19H61.1V28.09Z" fill="white"/>
<path d="M72.46 15.2C79.22 14.43 86.26 16.79 91.15 21.51C95.93 26.01 98.64 32.6 98.43 39.16C98.32 43.79 96.79 48.37 94.1 52.12C92.72 54.12 90.91 55.76 89.21 57.48C85.51 61.18 81.82 64.89 78.12 68.59C76.59 70.36 73.58 70.42 72 68.68C67.84 64.5 63.67 60.33 59.49 56.17C57.62 54.4 55.9 52.44 54.65 50.18C50.93 43.81 50.54 35.67 53.57 28.97C55.96 23.5 60.55 19.05 66.08 16.81C68.11 15.96 70.28 15.42 72.46 15.2V15.2ZM83.67 29.37C83 29.52 82.51 30.04 82.08 30.57C80.75 32.12 79.41 33.63 78.08 35.16C77.58 35.72 77.41 36.54 77.61 37.27C77.89 38.41 79.18 39.16 80.32 38.86C81.09 38.71 81.59 38.08 82.08 37.52V44.41C82.06 45.1 82.32 45.81 82.86 46.24C83.76 47.02 85.29 46.87 86 45.9C86.6 45.15 86.39 44.14 86.43 43.27C86.43 39.3 86.49 35.27 86.49 31.37C86.41 30 84.96 29 83.67 29.37V29.37ZM61.84 31.68C61.82 35.92 61.84 40.16 61.84 44.38C61.8 45.52 62.68 46.58 63.8 46.75C65.11 47.01 66.51 45.93 66.49 44.57C66.47 42.59 66.45 40.57 66.45 38.61C66.67 39.51 67.4 40.09 67.94 40.78C69.25 42.35 70.57 43.88 71.86 45.45C72.33 46.05 72.89 46.65 73.69 46.74C74.96 46.98 76.3 45.92 76.3 44.59C76.36 43.92 76.04 43.3 75.61 42.82C74.3 41.27 73 39.74 71.69 38.17C73 36.66 74.29 35.13 75.59 33.61C76.04 33.11 76.51 32.55 76.54 31.85C76.71 30.54 75.55 29.27 74.22 29.37C73.25 29.33 72.56 30.08 72.02 30.77C70.71 32.32 69.39 33.85 68.06 35.4C67.46 36.13 66.68 36.74 66.4 37.68C66.4 35.63 66.44 33.67 66.47 31.67C66.54 30.29 65.13 29.11 63.78 29.37C62.7 29.54 61.82 30.56 61.84 31.68V31.68Z" fill="url(#paint0_linear)"/>
<defs>
<linearGradient id="paint0_linear" x1="58.4" y1="21.923" x2="91.6" y2="55.123" gradientUnits="userSpaceOnUse">
<stop stop-color="#03D1D6"/>
<stop offset="0.5" stop-color="#02C7CD"/>
<stop offset="0.64" stop-color="#01C3C9"/>
<stop offset="1" stop-color="#00BCC3"/>
</linearGradient>
</defs>
</svg>
