<svg width="150" height="85" viewBox="0 0 150 85" fill="none" xmlns="http://www.w3.org/2000/svg">
<path d="M104.81 38.27C106.44 34.84 106.63 30.89 105.32 27.33C101.26 17.38 84.25 15.05 67.32 22.15C51.02 28.99 40.75 42.06 43.62 51.91L42.74 51.97C39.01 42.04 49.73 27.91 67.09 20.08C73.91 16.89 81.32 15.16 88.85 14.99C97.61 14.99 104.52 17.95 107.02 23.63C108.92 27.96 107.95 33.14 104.81 38.27V38.27ZM55.46 44.26C58.2 42.25 61.05 40.41 64.01 38.74C67.13 36.87 68.88 35.08 69.28 33.37C69.5 32.68 69.31 31.92 68.78 31.42C68.22 30.91 67.48 30.65 66.73 30.68C65.41 30.65 64.16 31.24 63.34 32.27C62.54 33.3 61.99 34.51 61.75 35.79H54.78C55.74 29.09 61.72 24.27 68.48 24.78C70.93 24.61 73.35 25.31 75.34 26.75C77.16 28.27 77.72 30.49 77.04 33.41C76.35 36.03 74.66 38.29 72.34 39.69C71.66 40.17 70.22 41 68.03 42.19C67.23 42.64 66.15 43.21 64.78 43.91C63.41 44.61 62.48 45.1 62 45.4H74.19L72.7 51.84H50.57C50.89 50.39 51.47 49.02 52.27 47.77C53.17 46.46 54.24 45.28 55.46 44.26V44.26ZM77.04 39.95L92.73 25.15H99.97L96.45 40.41H99.75L98.39 46.28H95.1L93.82 51.84H86.43L87.71 46.28H75.59L77.04 39.95V39.95ZM89.06 40.41L90.94 32.27L82.8 40.41H89.06V40.41ZM59.75 69.43C59.78 69.55 59.84 69.66 59.93 69.74C60.05 69.81 60.19 69.84 60.33 69.83H61.83C62.06 69.83 62.14 69.72 62.07 69.49L61.26 66.89C61.14 66.53 61 66.18 60.83 65.84C60.68 65.56 60.44 65.34 60.14 65.23C60.41 65.1 60.64 64.9 60.79 64.63C60.99 64.29 61.15 63.93 61.27 63.55L61.97 61.28C62.04 61.06 61.96 60.94 61.73 60.94H60.33C60.19 60.92 60.05 60.95 59.93 61.03C59.85 61.12 59.78 61.23 59.75 61.34L59.1 63.39C59.05 63.56 58.98 63.72 58.88 63.87C58.8 63.98 58.71 64.07 58.6 64.14C58.5 64.2 58.4 64.25 58.29 64.27C58.19 64.29 58.08 64.3 57.98 64.3H57.25V61.2C57.25 61.13 57.23 61.06 57.2 60.99C57.15 60.91 57.06 60.87 56.97 60.89H55.4C55.31 60.88 55.22 60.91 55.16 60.98C55.11 61.04 55.09 61.12 55.09 61.2V69.52C55.07 69.67 55.18 69.8 55.32 69.82H56.96C57.05 69.83 57.14 69.79 57.19 69.72C57.22 69.66 57.24 69.59 57.24 69.52V66.12H57.93C58.16 66.12 58.39 66.18 58.59 66.29C58.84 66.47 59.02 66.74 59.08 67.05C59.08 67.06 59.75 69.43 59.75 69.43V69.43ZM65.52 67.83H68.14L68.58 69.42C68.61 69.53 68.66 69.64 68.73 69.73C68.81 69.81 68.92 69.85 69.03 69.83H70.66C70.73 69.84 70.8 69.81 70.83 69.75C70.85 69.67 70.84 69.59 70.82 69.51L68.17 61.32C68.14 61.21 68.08 61.11 68.02 61.02C67.92 60.93 67.79 60.9 67.66 60.91H66C65.87 60.89 65.74 60.93 65.64 61.01C65.57 61.09 65.51 61.19 65.48 61.3L62.93 69.48C62.89 69.57 62.88 69.67 62.92 69.77C62.97 69.82 63.05 69.84 63.12 69.83H64.58C64.68 69.83 64.78 69.81 64.87 69.75C64.96 69.67 65.02 69.57 65.04 69.45L65.52 67.83V67.83ZM67.69 66.2H65.97L66.37 64.7L66.81 63.07H66.88L67.3 64.72L67.69 66.2ZM76.52 64.32H73.94V61.22C73.94 61.15 73.92 61.08 73.89 61.01C73.84 60.93 73.75 60.89 73.66 60.91H72.13C72.05 60.9 71.96 60.93 71.91 61C71.86 61.06 71.84 61.14 71.84 61.22V69.54C71.82 69.68 71.91 69.81 72.06 69.83H73.66C73.75 69.85 73.84 69.81 73.89 69.74C73.92 69.68 73.94 69.61 73.94 69.54V66.1H76.51V69.54C76.49 69.68 76.58 69.81 76.72 69.83H78.33C78.42 69.84 78.51 69.81 78.56 69.74C78.59 69.68 78.61 69.61 78.61 69.54V61.22C78.61 61.15 78.59 61.08 78.56 61.01C78.51 60.93 78.42 60.89 78.33 60.91H76.8C76.72 60.9 76.63 60.93 76.58 61C76.53 61.06 76.51 61.14 76.51 61.22L76.52 64.32C76.52 64.33 76.52 64.32 76.52 64.32V64.32ZM82.25 67.83H84.88L85.32 69.42C85.35 69.53 85.4 69.64 85.46 69.73C85.54 69.81 85.65 69.85 85.76 69.83H87.39C87.46 69.84 87.53 69.81 87.56 69.75C87.58 69.67 87.57 69.59 87.55 69.51L84.9 61.32C84.86 61.21 84.81 61.11 84.75 61.02C84.65 60.93 84.52 60.9 84.39 60.91H82.73C82.6 60.89 82.47 60.93 82.37 61.01C82.3 61.09 82.24 61.19 82.21 61.3L79.66 69.48C79.62 69.57 79.61 69.68 79.65 69.77C79.7 69.82 79.78 69.84 79.85 69.83H81.31C81.41 69.84 81.52 69.81 81.6 69.75C81.69 69.67 81.75 69.57 81.77 69.45C81.77 69.46 82.25 67.83 82.25 67.83V67.83ZM84.41 66.2H82.7L83.1 64.7L83.54 63.07H83.61L84.03 64.72C84.02 64.72 84.41 66.2 84.41 66.2ZM91.97 62.74H93.41V69.54C93.39 69.69 93.5 69.82 93.64 69.84H95.28C95.37 69.86 95.46 69.82 95.51 69.75C95.54 69.69 95.56 69.62 95.56 69.55V61.24C95.59 61.1 95.5 60.96 95.36 60.93C95.34 60.93 95.31 60.92 95.29 60.93H90.38C90.24 60.91 90.1 61.02 90.09 61.16V61.23C90.05 62.07 90 62.91 89.95 63.74L89.79 66.27C89.77 66.6 89.74 66.93 89.68 67.25C89.65 67.46 89.57 67.67 89.46 67.86C89.37 68.01 89.24 68.13 89.09 68.22C88.92 68.31 88.73 68.38 88.54 68.42C88.46 68.44 88.37 68.47 88.3 68.52C88.26 68.59 88.24 68.67 88.25 68.75C88.25 68.9 88.25 69.05 88.27 69.19C88.29 69.33 88.29 69.48 88.29 69.63C88.28 69.73 88.31 69.83 88.38 69.9C88.51 69.97 88.66 70 88.81 69.98C89.27 69.99 89.73 69.91 90.17 69.77C90.51 69.65 90.81 69.45 91.04 69.17C91.27 68.88 91.44 68.54 91.53 68.18C91.65 67.73 91.73 67.26 91.77 66.79C91.82 66.26 91.86 65.65 91.88 64.98C91.9 64.31 91.94 63.56 91.99 62.73L91.97 62.74V62.74Z" fill="#D12032"/>
</svg>
