<svg width="150" height="85" viewBox="0 0 150 85" fill="none" xmlns="http://www.w3.org/2000/svg">
<path d="M51.67 37.53V51.15H55V40.34H59.81V51.15H63.14V37.53H51.67ZM66.11 37.53V51.15H74.87V48.28H69.44V45.72H73.59V42.85H69.44V40.4H74.62V37.53H66.11ZM77.23 51.15V37.53H82.92C84.15 37.48 85.28 37.94 86.15 38.81C86.97 39.73 87.43 40.96 87.38 42.19C87.43 43.42 86.97 44.65 86.15 45.57C85.33 46.44 84.15 46.95 82.92 46.9H80.62V51.1L77.23 51.15V51.15ZM80.61 44.08H82.25C82.71 44.13 83.22 43.93 83.53 43.57C83.84 43.21 83.99 42.7 83.99 42.24C84.04 41.78 83.84 41.27 83.58 40.91C83.27 40.55 82.81 40.4 82.35 40.4H80.66L80.61 44.08V44.08ZM89.21 51.15V37.53H92.54V48.33H95.97V37.53H99.3V48.33H102.73V37.53H106.06V51.15H89.21ZM109.03 51.15V37.53H112.36V43.88L112.21 46.18H112.26C112.57 45.36 112.98 44.59 113.39 43.88L117.18 37.53H120.56V51.15H117.23V44.8L117.38 42.5H117.33C117.02 43.32 116.61 44.09 116.2 44.8L112.41 51.15H109.03ZM123.48 51.15V37.53H126.81V43.88L126.66 46.18H126.71C127.02 45.36 127.43 44.59 127.84 43.88L131.63 37.53H135.01V51.15H131.68V44.8L131.78 42.5C131.47 43.32 131.06 44.09 130.65 44.8L126.86 51.15H123.48ZM129.42 36.91C128.5 36.91 127.63 36.65 126.86 36.14C126.19 35.63 125.78 34.86 125.84 33.99V33.79H128.3V34.05C128.3 34.36 128.4 34.66 128.66 34.87C128.92 35.07 129.17 35.18 129.48 35.18C129.79 35.18 130.04 35.08 130.3 34.87C130.56 34.67 130.66 34.36 130.66 34.05V33.79H133.02V33.99C133.07 34.81 132.66 35.63 132 36.14C131.21 36.66 130.34 36.96 129.42 36.91V36.91ZM42.2 49.67C40.92 49.67 39.84 48.65 39.84 47.31C39.84 46.03 40.86 44.95 42.2 44.95C43.48 44.95 44.56 45.97 44.56 47.31C44.5 48.59 43.48 49.67 42.2 49.67ZM42.2 43.06C40.92 43.06 39.84 42.04 39.84 40.7C39.84 39.42 40.86 38.34 42.2 38.34C43.48 38.34 44.56 39.36 44.56 40.7C44.5 42.03 43.48 43.06 42.2 43.06ZM25.6 37.48H22.73C22.63 37.48 22.58 37.53 22.53 37.63V45.93C22.53 47.62 21.76 48.44 20.38 48.44C19 48.44 18.23 47.62 18.23 45.93V37.68C18.23 37.58 18.18 37.53 18.08 37.48H15.2C15.1 37.48 15.05 37.53 15 37.63V45.98C15 46.7 15.1 47.41 15.36 48.13C15.77 49.41 16.79 50.38 18.02 50.84C18.79 51.1 19.56 51.25 20.38 51.2C21.2 51.25 21.97 51.1 22.74 50.84C23.35 50.64 23.92 50.23 24.38 49.76C24.84 49.3 25.2 48.74 25.4 48.12C25.6 47.45 25.76 46.74 25.71 46.02V37.67C25.76 37.58 25.7 37.53 25.6 37.48V37.48ZM38.71 50.84C38.2 49.25 34.56 37.78 34.56 37.73C34.51 37.63 34.41 37.53 34.3 37.53H30.97C30.87 37.53 30.77 37.63 30.71 37.73C30.71 37.78 27.07 49.25 26.56 50.84C26.51 50.89 26.56 50.99 26.61 50.99H29.73C29.83 50.99 29.88 50.94 29.93 50.84C29.98 50.74 32.49 41.88 32.64 41.36H32.74C32.89 41.87 35.4 50.73 35.45 50.84C35.5 50.94 35.55 50.99 35.65 50.99H38.67C38.72 50.99 38.82 50.94 38.82 50.89C38.76 50.89 38.71 50.84 38.71 50.84" fill="#02509E"/>
</svg>
