<svg width="150" height="85" viewBox="0 0 150 85" fill="none" xmlns="http://www.w3.org/2000/svg">
<path d="M102.5 42.5C102.5 57.69 90.19 70 75 70C59.81 70 47.5 57.69 47.5 42.5C47.5 27.31 59.81 15 75 15C90.19 15 102.5 27.31 102.5 42.5Z" fill="#14284D"/>
<path d="M55.44 48.14H95.05V49.45H55.44V48.14Z" fill="#BF312F"/>
<path d="M57.13 58.46L57.98 56.71L55.47 51.69H56.97L58.71 55.23L60.43 51.69H61.89L58.61 58.46H57.13ZM62.37 51.69H63.69V58.46H62.37V51.69ZM63.76 54.98L66.54 51.68H67.93L65.15 54.98L68.18 58.45H66.66L63.76 54.98V54.98ZM69.98 58.46H68.66V51.69H71.2C72.62 51.69 73.66 52.64 73.66 53.91C73.66 55.2 72.52 56.13 71.2 56.13H69.97L69.98 58.46ZM69.98 52.88V54.94H71.24C71.95 54.94 72.35 54.5 72.35 53.9C72.35 53.3 71.94 52.87 71.24 52.87H69.98V52.88V52.88ZM79.69 58.46H78.37L77.84 57.05H75.04L74.51 58.46H73.2L75.7 51.69H77.2L79.69 58.46V58.46ZM75.4 55.98H77.47L76.43 53.22L75.4 55.98V55.98ZM80.01 49.75C80.32 49.75 80.56 50.03 80.56 50.38C80.56 50.74 80.32 51 80.01 51C79.69 51 79.46 50.74 79.46 50.38C79.46 50.03 79.69 49.75 80.01 49.75ZM80.17 51.69H81.49V58.46H80.17V51.69ZM81.63 49.75C81.94 49.75 82.19 50.03 82.19 50.38C82.19 50.74 81.94 51 81.63 51C81.32 51 81.09 50.74 81.09 50.38C81.08 50.03 81.32 49.75 81.63 49.75ZM86.78 55.55H83.87V58.46H82.55V51.69H83.87V54.36H86.78V51.69H88.1V58.46H86.78V55.55ZM95.06 58.46H93.74L93.21 57.05H90.41L89.88 58.46H88.56L91.06 51.69H92.56L95.06 58.46ZM90.77 55.98H92.84L91.8 53.22L90.77 55.98V55.98ZM58.4 30.8H55.46V27.62L63.74 26.55V45.85H58.4V30.8ZM70.58 30.8H67.64V27.62L75.92 26.55V45.85H70.58V30.8ZM80.29 32.53C80.34 28.04 83.34 25.78 87.54 25.78C91.81 25.78 94.78 28.74 94.78 32.64C94.78 34.29 94 36.28 93.12 37.31C92.71 37.79 89.37 41.6 89.37 41.6H94.98V45.85H79.63L86.86 37.1C87.96 35.66 89.6 34.26 89.6 32.54C89.6 31.15 88.65 30.03 87.47 30.03C86.29 30.03 85.34 31.15 85.34 32.54V33.2H80.28L80.29 32.53V32.53Z" fill="#F3F3F3"/>
</svg>
