<svg width="20" height="20" viewBox="0 0 20 20" fill="none" xmlns="http://www.w3.org/2000/svg">
<circle cx="10" cy="10" r="10" fill="#0082C5"/>
<g clip-path="url(#clip0)">
<path d="M9.9986 4.89062C7.18213 4.89062 4.89062 7.18201 4.89062 9.9986C4.89062 12.8152 7.18213 15.1066 9.9986 15.1066C12.8152 15.1066 15.1066 12.8152 15.1066 9.9986C15.1066 7.18201 12.8151 4.89062 9.9986 4.89062ZM9.9986 14.3609C7.59326 14.3609 5.63631 12.4039 5.63631 9.9986C5.63631 7.59326 7.59326 5.63631 9.9986 5.63631C12.4039 5.63631 14.3609 7.59325 14.3609 9.99849C14.3609 12.4039 12.4039 14.3609 9.9986 14.3609Z" fill="white"/>
<path fill-rule="evenodd" clip-rule="evenodd" d="M4.66406 9.99906C4.66406 7.05709 7.05721 4.66406 9.99906 4.66406C12.9409 4.66406 15.3341 7.05709 15.3341 9.99906C15.3341 12.941 12.941 15.3341 9.99906 15.3341C7.05721 15.3341 4.66406 12.941 4.66406 9.99906ZM5.86379 9.99906C5.86379 12.279 7.7191 14.1343 9.99906 14.1343C12.279 14.1343 14.1343 12.279 14.1343 9.99894C14.1343 7.71909 12.279 5.86379 9.99906 5.86379C7.7191 5.86379 5.86379 7.7191 5.86379 9.99906ZM4.89108 9.99906C4.89108 7.18247 7.18259 4.89108 9.99906 4.89108C12.8155 4.89108 15.107 7.18247 15.107 9.99906C15.107 12.8157 12.8157 15.107 9.99906 15.107C7.18259 15.107 4.89108 12.8157 4.89108 9.99906ZM5.63677 9.99906C5.63677 12.4044 7.59372 14.3614 9.99906 14.3614C12.4044 14.3614 14.3614 12.4044 14.3614 9.99894C14.3614 7.5937 12.4044 5.63677 9.99906 5.63677C7.59372 5.63677 5.63677 7.59372 5.63677 9.99906Z" fill="white"/>
<path d="M11.7383 10.0005H10.1226V7.76347C10.1226 7.55753 9.95573 7.39062 9.7498 7.39062C9.54386 7.39062 9.37695 7.55753 9.37695 7.76347V10.3734C9.37695 10.5793 9.54386 10.7462 9.7498 10.7462H11.7383C11.9442 10.7462 12.1111 10.5793 12.1111 10.3734C12.1111 10.1675 11.9442 10.0005 11.7383 10.0005Z" fill="white"/>
<path fill-rule="evenodd" clip-rule="evenodd" d="M10.3501 9.77398H11.7388C12.0701 9.77398 12.3386 10.0425 12.3386 10.3738C12.3386 10.7052 12.0701 10.9737 11.7388 10.9737H9.75025C9.41894 10.9737 9.15039 10.7052 9.15039 10.3738V7.76393C9.15039 7.43261 9.41894 7.16406 9.75025 7.16406C10.0816 7.16406 10.3501 7.43261 10.3501 7.76393V9.77398ZM11.7388 10.001C11.9447 10.001 12.1116 10.1679 12.1116 10.3738C12.1116 10.5798 11.9447 10.7467 11.7388 10.7467H9.75025C9.54432 10.7467 9.37741 10.5798 9.37741 10.3738V7.76393C9.37741 7.55799 9.54432 7.39108 9.75025 7.39108C9.95619 7.39108 10.1231 7.55799 10.1231 7.76393V10.001H11.7388Z" fill="white"/>
</g>
<defs>
<clipPath id="clip0">
<rect width="10.67" height="10.67" fill="white" transform="translate(4.66406 4.66406)"/>
</clipPath>
</defs>
</svg>
