<svg width="20" height="20" viewBox="0 0 20 20" fill="none" xmlns="http://www.w3.org/2000/svg">
<circle cx="10" cy="10" r="10" fill="#0082C5"/>
<path d="M13.8592 13.6872C14.0704 13.6872 14.2535 13.6174 14.4091 13.4797L11.7466 10.8171C11.6827 10.8629 11.6208 10.9073 11.5623 10.9496C11.363 11.0964 11.2013 11.211 11.0772 11.2931C10.953 11.3754 10.7878 11.4592 10.5816 11.5448C10.3752 11.6306 10.183 11.6733 10.0047 11.6733H9.99946H9.99424C9.81589 11.6733 9.62365 11.6306 9.41732 11.5448C9.21099 11.4592 9.0458 11.3754 8.92176 11.2931C8.7976 11.211 8.63597 11.0965 8.43662 10.9496C8.38107 10.9089 8.31946 10.8642 8.25285 10.8164L5.58984 13.4797C5.74543 13.6174 5.92859 13.6872 6.13982 13.6872H13.8592Z" fill="white"/>
<path d="M5.8305 9.1399C5.63127 9.00707 5.45459 8.85495 5.30078 8.68359V12.7345L7.64749 10.3878C7.17802 10.06 6.57312 9.64455 5.8305 9.1399Z" fill="white"/>
<path d="M14.1749 9.1399C13.4606 9.62336 12.8535 10.0396 12.3535 10.3887L14.6993 12.7346V8.68359C14.5489 8.8515 14.3741 9.00352 14.1749 9.1399Z" fill="white"/>
<path d="M13.8591 6.30469H6.1398C5.8705 6.30469 5.66345 6.39563 5.51841 6.57732C5.37324 6.7591 5.30078 6.98643 5.30078 7.25906C5.30078 7.47928 5.39694 7.71789 5.58918 7.97496C5.78141 8.23193 5.98597 8.43377 6.20274 8.58059C6.32158 8.66455 6.67995 8.91369 7.27785 9.32792C7.60061 9.55158 7.88129 9.74653 8.12249 9.91476C8.32809 10.058 8.5054 10.1821 8.65179 10.285C8.6686 10.2968 8.69502 10.3157 8.7301 10.3408C8.7679 10.3679 8.81572 10.4024 8.87472 10.445C8.98834 10.5272 9.08272 10.5936 9.1579 10.6443C9.23297 10.6951 9.32393 10.7518 9.43063 10.8147C9.53725 10.8776 9.63781 10.9249 9.7322 10.9563C9.8266 10.9878 9.91399 11.0035 9.99439 11.0035H9.99961H10.0048C10.0852 11.0035 10.1726 10.9878 10.267 10.9563C10.3614 10.9249 10.4619 10.8777 10.5686 10.8147C10.6752 10.7518 10.766 10.695 10.8413 10.6443C10.9165 10.5936 11.0109 10.5272 11.1245 10.445C11.1834 10.4024 11.2312 10.3679 11.269 10.3409C11.3041 10.3157 11.3305 10.2969 11.3474 10.285C11.4615 10.2057 11.6392 10.0821 11.8781 9.91621C12.3129 9.61413 12.9532 9.16952 13.8017 8.58059C14.0569 8.40235 14.2701 8.18725 14.4415 7.9356C14.6125 7.68395 14.6983 7.41999 14.6983 7.14379C14.6983 6.91303 14.6151 6.71557 14.4492 6.55111C14.2831 6.38686 14.0864 6.30469 13.8591 6.30469Z" fill="white"/>
</svg>
