<svg width="54" height="54" viewBox="0 0 54 54" fill="none" xmlns="http://www.w3.org/2000/svg">
<rect width="54" height="54" rx="6" fill="url(#paint0_linear)"/>
<g clip-path="url(#clip0)">
<path d="M39.1175 21.9746C39.0574 20.6785 38.8503 19.7899 38.5496 19.0149C38.2356 18.2132 37.8214 17.5317 37.1466 16.8569C36.4718 16.1821 35.7903 15.7612 34.9886 15.4539C34.2136 15.1532 33.325 14.9461 32.0289 14.886C30.7261 14.8259 30.3118 14.8125 27.0047 14.8125C23.6909 14.8125 23.2766 14.8259 21.9805 14.886C20.6844 14.9461 19.7958 15.1532 19.0208 15.4539C18.219 15.7679 17.5376 16.1821 16.8628 16.8569C16.188 17.5317 15.7671 18.2132 15.4597 19.0149C15.1591 19.7899 14.952 20.6785 14.8919 21.9746C14.8317 23.2775 14.8184 23.6917 14.8184 26.9988C14.8184 30.3127 14.8317 30.7269 14.8919 32.023C14.952 33.3191 15.1591 34.2077 15.4597 34.9827C15.7738 35.7845 16.188 36.4659 16.8628 37.1407C17.5376 37.8155 18.219 38.2364 19.0208 38.5438C19.7958 38.8444 20.6844 39.0515 21.9805 39.1117C23.2833 39.1718 23.6975 39.1852 27.0047 39.1852C30.3185 39.1852 30.7327 39.1718 32.0289 39.1117C33.325 39.0515 34.2136 38.8444 34.9886 38.5438C35.7903 38.2298 36.4718 37.8155 37.1466 37.1407C37.8214 36.4659 38.2423 35.7845 38.5496 34.9827C38.8503 34.2077 39.0574 33.3191 39.1175 32.023C39.1777 30.7202 39.191 30.306 39.191 26.9988C39.191 23.6917 39.1777 23.2708 39.1175 21.9746ZM36.9261 31.9228C36.8727 33.112 36.6722 33.7601 36.5052 34.1877C36.2847 34.7556 36.0175 35.1631 35.5899 35.5907C35.1623 36.0183 34.7548 36.2789 34.1869 36.506C33.7593 36.6731 33.1112 36.8735 31.922 36.9269C30.6392 36.9871 30.2517 37.0004 26.998 37.0004C23.7443 37.0004 23.3568 36.9871 22.074 36.9269C20.8848 36.8735 20.2367 36.6731 19.8091 36.506C19.2412 36.2856 18.8337 36.0183 18.4061 35.5907C17.9785 35.1631 17.718 34.7556 17.4908 34.1877C17.3238 33.7601 17.1233 33.112 17.0699 31.9228C17.0098 30.64 16.9964 30.2525 16.9964 26.9988C16.9964 23.7451 17.0098 23.3576 17.0699 22.0749C17.1233 20.8856 17.3238 20.2376 17.4908 19.81C17.7113 19.2421 17.9785 18.8345 18.4061 18.4069C18.8337 17.9793 19.2412 17.7188 19.8091 17.4916C20.2367 17.3246 20.8848 17.1242 22.074 17.0707C23.3568 17.0106 23.7443 16.9972 26.998 16.9972C30.2517 16.9972 30.6392 17.0106 31.922 17.0707C33.1112 17.1242 33.7593 17.3246 34.1869 17.4916C34.7548 17.7121 35.1623 17.9793 35.5899 18.4069C36.0175 18.8345 36.2781 19.2421 36.5052 19.81C36.6722 20.2376 36.8727 20.8856 36.9261 22.0749C36.9863 23.3576 36.9996 23.7451 36.9996 26.9988C36.9996 30.2525 36.9796 30.64 36.9261 31.9228Z" fill="white"/>
<path d="M27.0004 20.7383C23.5396 20.7383 20.7402 23.5443 20.7402 26.9985C20.7402 30.4593 23.5463 33.2587 27.0004 33.2587C30.4546 33.2587 33.2606 30.4526 33.2606 26.9985C33.2606 23.5377 30.4612 20.7383 27.0004 20.7383ZM27.0004 31.0606C24.7556 31.0606 22.9383 29.2433 22.9383 26.9985C22.9383 24.7536 24.7556 22.9364 27.0004 22.9364C29.2453 22.9364 31.0625 24.7536 31.0625 26.9985C31.0625 29.2433 29.2453 31.0606 27.0004 31.0606Z" fill="white"/>
<path d="M33.5061 21.9535C34.3141 21.9535 34.9692 21.2985 34.9692 20.4904C34.9692 19.6824 34.3141 19.0273 33.5061 19.0273C32.698 19.0273 32.043 19.6824 32.043 20.4904C32.043 21.2985 32.698 21.9535 33.5061 21.9535Z" fill="white"/>
<path d="M14.8066 26.9988C14.8066 30.3127 14.82 30.7269 14.8801 32.023C14.9403 33.3191 15.1474 34.2077 15.448 34.9827C15.762 35.7845 16.1763 36.4659 16.8511 37.1407C17.5258 37.8155 18.2073 38.2364 19.0091 38.5438C19.7841 38.8444 20.6726 39.0515 21.9688 39.1117C23.2716 39.1718 23.6858 39.1852 26.993 39.1852C30.3068 39.1852 30.721 39.1718 32.0172 39.1117C33.3133 39.0515 34.2019 38.8444 34.9769 38.5438C35.7786 38.2298 36.4601 37.8155 37.1349 37.1407C37.8097 36.4659 38.2306 35.7845 38.5379 34.9827C38.8386 34.2077 39.0457 33.3191 39.1058 32.023C39.1659 30.7202 39.1793 30.306 39.1793 26.9988C39.1793 23.685 39.1659 23.2708 39.1058 21.9746C39.0457 20.6785 38.8386 19.7899 38.5379 19.0149C38.2239 18.2132 37.8097 17.5317 37.1349 16.8569C36.4601 16.1821 35.7786 15.7612 34.9769 15.4539C34.2019 15.1532 33.3133 14.9461 32.0172 14.886C30.7143 14.8259 30.3001 14.8125 26.993 14.8125C23.6791 14.8125 23.2649 14.8259 21.9688 14.886C20.6726 14.9461 19.7841 15.1532 19.0091 15.4539C18.2073 15.7679 17.5258 16.1821 16.8511 16.8569C16.1763 17.5317 15.7554 18.2132 15.448 19.0149C15.1474 19.7899 14.9403 20.6785 14.8801 21.9746C14.82 23.2708 14.8066 23.685 14.8066 26.9988ZM17.0047 26.9988C17.0047 23.7451 17.0181 23.3576 17.0782 22.0749C17.1317 20.8856 17.3321 20.2376 17.4991 19.81C17.7196 19.2421 17.9868 18.8345 18.4144 18.4069C18.842 17.9793 19.2496 17.7188 19.8175 17.4916C20.2451 17.3246 20.8931 17.1242 22.0824 17.0707C23.3651 17.0106 23.7526 16.9972 27.0063 16.9972C30.26 16.9972 30.6475 17.0106 31.9303 17.0707C33.1195 17.1242 33.7676 17.3246 34.1952 17.4916C34.7631 17.7121 35.1706 17.9793 35.5982 18.4069C36.0258 18.8345 36.2864 19.2421 36.5135 19.81C36.6806 20.2376 36.881 20.8856 36.9344 22.0749C36.9946 23.3576 37.0079 23.7451 37.0079 26.9988C37.0079 30.2525 36.9946 30.64 36.9344 31.9228C36.881 33.112 36.6806 33.7601 36.5135 34.1877C36.2931 34.7556 36.0258 35.1631 35.5982 35.5907C35.1706 36.0183 34.7631 36.2789 34.1952 36.506C33.7676 36.6731 33.1195 36.8735 31.9303 36.9269C30.6475 36.9871 30.26 37.0004 27.0063 37.0004C23.7526 37.0004 23.3651 36.9871 22.0824 36.9269C20.8931 36.8735 20.2451 36.6731 19.8175 36.506C19.2496 36.2856 18.842 36.0183 18.4144 35.5907C17.9868 35.1631 17.7263 34.7556 17.4991 34.1877C17.3321 33.7601 17.1317 33.112 17.0782 31.9228C17.0181 30.64 17.0047 30.2525 17.0047 26.9988Z" fill="white"/>
</g>
<defs>
<linearGradient id="paint0_linear" x1="27" y1="0" x2="27" y2="54" gradientUnits="userSpaceOnUse">
<stop stop-color="#EA76AF"/>
<stop offset="1" stop-color="#D03180"/>
</linearGradient>
<clipPath id="clip0">
<rect width="24.4528" height="24.4528" fill="white" transform="translate(14.7734 14.7734)"/>
</clipPath>
</defs>
</svg>
