<svg width="20" height="20" viewBox="0 0 20 20" fill="none" xmlns="http://www.w3.org/2000/svg">
<circle cx="10" cy="10" r="10" fill="#0082C5"/>
<path d="M13.64 11.3716C13.1068 11.3716 12.5845 11.2883 12.0894 11.125C11.8478 11.0417 11.5735 11.1059 11.4147 11.2679L10.4333 12.009C9.30718 11.408 8.58648 10.6878 7.99364 9.56984L8.71479 8.61164C8.89633 8.4301 8.9614 8.16438 8.88359 7.9155C8.71888 7.41729 8.63517 6.89451 8.63517 6.36217C8.63517 5.98589 8.32897 5.67969 7.95269 5.67969H6.36022C5.98393 5.67969 5.67773 5.98589 5.67773 6.36217C5.67773 10.7524 9.24985 14.3245 13.64 14.3245C14.0163 14.3245 14.3225 14.0183 14.3225 13.642V12.0541C14.3225 11.6778 14.0163 11.3716 13.64 11.3716Z" fill="white"/>
</svg>
